<?xml version="1.0" standalone="no"?>
<!DOCTYPE svg PUBLIC "-//W3C//DTD SVG 1.1//EN" "http://www.w3.org/Graphics/SVG/1.1/DTD/svg11.dtd" >
<svg xmlns="http://www.w3.org/2000/svg" xmlns:xlink="http://www.w3.org/1999/xlink" version="1.1">
<metadata>
Created by FontForge 20150824 at Sun Jul 31 02:43:46 2016
 By Everything Fonts
Copyright (c) TOP RITHY, 2003. All rights reserved.
</metadata>
<defs>
<font id="KhmerChrieng1" horiz-adv-x="0" >
  <font-face 
    font-family="Khmer Chrieng1"
    font-weight="400"
    font-stretch="normal"
    units-per-em="2048"
    panose-1="2 0 5 6 0 0 0 2 0 4"
    ascent="1638"
    descent="-410"
    x-height="1117"
    cap-height="1489"
    bbox="-1690 -1443 3348 2793"
    underline-thickness="130"
    underline-position="-235"
    unicode-range="U+0020-25CC"
  />
<missing-glyph horiz-adv-x="2048" 
d="M256 0v1536h1536v-1536h-1536zM384 128h1280v1280h-1280v-1280z" />
    <glyph glyph-name=".notdef" horiz-adv-x="2048" 
d="M256 0v1536h1536v-1536h-1536zM384 128h1280v1280h-1280v-1280z" />
    <glyph glyph-name=".null" 
 />
    <glyph glyph-name="nonmarkingreturn" horiz-adv-x="640" 
 />
    <glyph glyph-name="space" unicode=" " horiz-adv-x="640" 
 />
    <glyph glyph-name="exclam" unicode="!" horiz-adv-x="680" 
d="M452 1489l-28 -1079h-166l-30 1079h224zM442 0h-204v211h204v-211z" />
    <glyph glyph-name="quotedbl" unicode="&#x22;" horiz-adv-x="822" 
d="M708 1556l-43 -579h-132l-43 579h218zM332 1556l-43 -579h-132l-43 579h218z" />
    <glyph glyph-name="numbersign" unicode="#" horiz-adv-x="1490" 
d="M1348 932h-293l-92 -376h268v-135h-303l-105 -421h-129l105 421h-270l-105 -421h-129l105 421h-258v135h293l92 376h-268v135h303l105 422h129l-105 -422h270l105 422h129l-105 -422h258v-135zM929 934h-274l-94 -380h274z" />
    <glyph glyph-name="dollar" unicode="$" horiz-adv-x="1118" 
d="M1024 380q0 -146 -113 -253q-113 -105 -283 -126v-362h-114v357q-54 1 -108.5 7t-109.5 18q-110 24 -190 64v202h15q79 -60 177.5 -96.5t215.5 -46.5v432q-25 6 -61 14.5t-61 16.5q-150 41 -214.5 124t-64.5 204q0 142 111 247q112 106 290 122v272h114v-270
q46 -2 92.5 -8.5t95.5 -17.5t89 -23t71 -26v-198h-15q-70 48 -153 84t-180 44v-430q33 -7 61.5 -14.5t49.5 -12.5q136 -32 210.5 -111t74.5 -213zM514 746v414q-89 -7 -151 -59q-61 -49 -61 -140q0 -88 44 -138q46 -49 168 -77zM835 354q0 94 -48 139q-49 46 -159 68v-415
q103 12 155 61.5t52 146.5z" />
    <glyph glyph-name="percent" unicode="%" horiz-adv-x="2000" 
d="M807 1076q0 -225 -90.5 -333.5t-261.5 -108.5q-174 0 -263.5 110t-89.5 331q0 224 91 333t262 109q174 0 263 -110t89 -331zM1473 1489l-780 -1489h-165l780 1489h165zM1897 413q0 -225 -90.5 -333.5t-261.5 -108.5q-174 0 -263.5 110t-89.5 331q0 224 91 333t262 109
q174 0 263 -110t89 -331zM629 1076q0 152 -36 230q-35 78 -138 78t-139 -79q-36 -80 -36 -230q0 -151 34 -229q34 -79 141 -79q104 0 138 79q36 79 36 230zM1719 413q0 152 -36 230q-35 78 -138 78t-139 -79q-36 -80 -36 -230q0 -151 34 -229q34 -79 141 -79q104 0 138 79
q36 79 36 230z" />
    <glyph glyph-name="ampersand" unicode="&#x26;" horiz-adv-x="1380" 
d="M1445 0h-256l-204 213q-101 -130 -210 -187q-107 -57 -243 -57q-203 0 -334 121q-131 122 -131 319q0 87 24 153.5t64 120.5q39 52 89.5 91.5t98.5 68.5q-102 68 -151 143q-50 76 -50 189q0 72 28.5 132t74.5 106q48 48 124.5 77.5t167.5 29.5q167 0 271 -88
q105 -87 105 -221q0 -49 -12.5 -101.5t-45.5 -101.5t-86.5 -92t-142.5 -75l352 -362q7 42 11 86t6 92q3 97 3 252h195v-96q0 -98 -25 -217q-24 -118 -80 -228zM898 301l-460 471q-25 -16 -50 -38t-55 -66q-24 -35 -42.5 -91.5t-18.5 -119.5q0 -143 84 -234q85 -91 229 -91
q97 0 173.5 40.5t139.5 128.5zM532 912q57 19 93 51t56 70q36 70 36 158q0 97 -57 150q-56 53 -131 53q-89 0 -140 -60t-51 -150q0 -20 1.5 -36.5t6 -32t12 -31.5t19.5 -35q21 -31 58 -66t97 -71z" />
    <glyph glyph-name="quotesingle" unicode="'" horiz-adv-x="432" 
d="M327 1556l-43 -579h-136l-43 579h222z" />
    <glyph glyph-name="parenleft" unicode="(" horiz-adv-x="784" 
d="M710 -412h-229q-173 206 -274 438q-99 231 -99 546q0 307 98 542q98 233 275 442h229v-10q-81 -73 -154.5 -168t-136.5 -223q-60 -124 -97.5 -271t-37.5 -312q0 -171 36.5 -313t98.5 -270q60 -124 136.5 -223t154.5 -168v-10z" />
    <glyph glyph-name="parenright" unicode=")" horiz-adv-x="784" 
d="M676 572q0 -309 -99 -543q-99 -235 -274 -441h-229v10q77 69 155 170q78 100 136 221q63 130 99 272.5t36 310.5q0 166 -37 312t-98 271t-138 223.5t-153 167.5v10h229q174 -206 273 -440q100 -231 100 -544z" />
    <glyph glyph-name="asterisk" unicode="*" horiz-adv-x="1118" 
d="M1007 887l-65 -110l-327 217l7 -364h-125l6 364l-325 -218l-66 110l354 207l-354 207l66 110l326 -219l-7 365h125l-8 -365l328 218l65 -110l-354 -205z" />
    <glyph glyph-name="plus" unicode="+" horiz-adv-x="1490" 
d="M1333 572h-505v-505h-166v505h-505v160h505v505h166v-505h505v-160z" />
    <glyph glyph-name="comma" unicode="," horiz-adv-x="620" 
d="M500 285l-280 -655h-146l176 655h250z" />
    <glyph glyph-name="hyphen" unicode="-" horiz-adv-x="744" 
d="M654 561h-564v181h564v-181z" />
    <glyph glyph-name="period" unicode="." horiz-adv-x="620" 
d="M429 0h-239v285h239v-285z" />
    <glyph glyph-name="slash" unicode="/" horiz-adv-x="783" 
d="M728 1556l-583 -1880h-169l580 1880h172z" />
    <glyph glyph-name="zero" unicode="0" horiz-adv-x="1118" 
d="M1035 745q0 -402 -117 -589q-115 -187 -359 -187q-246 0 -361 191t-115 583q0 402 116 589q117 187 360 187q246 0 361 -193t115 -581zM779 291q29 75 41 187t12 267q0 154 -12 266.5t-42 187.5q-30 76 -82 115.5t-137 39.5q-84 0 -137 -39.5t-84 -117.5
q-30 -76 -41 -191.5t-11 -262.5q0 -156 9 -261q11 -106 42 -188q29 -78 82 -119t140 -41q84 0 137 39.5t83 117.5z" />
    <glyph glyph-name="one" unicode="1" horiz-adv-x="1118" 
d="M952 0h-726v152h270v998h-270v136q154 0 225 43q73 43 82 165h155v-1342h264v-152z" />
    <glyph glyph-name="two" unicode="2" horiz-adv-x="1118" 
d="M1028 0h-919v209q99 94 187 180t172 179q85 94 143 168t89 131q62 113 62 233q0 63 -19.5 109.5t-53.5 77.5q-71 60 -182 60q-54 0 -107.5 -13.5t-104.5 -33.5q-42 -17 -81 -41t-63 -41h-11v212q60 31 172 60q111 30 210 30q207 0 326 -111q118 -109 118 -299
q0 -88 -20.5 -161.5t-56.5 -136.5q-37 -66 -89 -129t-110 -126q-48 -51 -100 -104t-110 -108t-103.5 -98.5t-80.5 -75.5h732v-171z" />
    <glyph glyph-name="three" unicode="3" horiz-adv-x="1118" 
d="M511 1347q-54 0 -108 -13t-106 -34q-48 -20 -83.5 -42t-63.5 -41h-12v211q64 34 176 63q114 29 213 29q102 0 177 -20.5t136 -63.5q66 -48 99.5 -116t33.5 -159q0 -123 -81 -216q-80 -92 -194 -118v-14q48 -9 101 -31t99 -65t75 -110.5t29 -164.5q0 -102 -34.5 -185.5
t-97.5 -149.5q-132 -138 -366 -138q-113 0 -222 27t-185 65v211h14q62 -46 169 -88q106 -42 212 -42q61 0 122 19t103 64q40 44 61 97t21 134t-23.5 133t-65.5 82t-99.5 41.5t-124.5 11.5h-85v166h66q136 0 219 64q85 64 85 186q0 57 -22 97t-56 64q-38 26 -84 36t-98 10z
" />
    <glyph glyph-name="four" unicode="4" horiz-adv-x="1118" 
d="M1067 512h-177v-512h-192v512h-658v210l666 767h184v-817h177v-160zM698 672v582l-502 -582h502z" />
    <glyph glyph-name="five" unicode="5" horiz-adv-x="1118" 
d="M1011 474q0 -109 -34 -200.5t-97 -158.5q-63 -69 -156 -107.5t-210 -38.5q-108 0 -211 24q-52 11 -96.5 26.5t-82.5 34.5v211h14q23 -17 66 -38.5t95 -40.5q30 -11 56 -19t52 -13.5t53 -8.5t57 -3q60 0 116.5 21.5t98.5 69.5q37 45 56.5 103t19.5 139q0 79 -21 130
t-63 84q-43 38 -105 53.5t-140 15.5q-41 0 -81 -3t-82 -10q-42 -6 -74 -12t-57 -11v767h817v-175h-624v-396q36 4 71 6t64 2q116 0 193 -19q80 -20 152 -74q37 -28 65.5 -62.5t48 -78t29.5 -97.5t10 -121z" />
    <glyph glyph-name="six" unicode="6" horiz-adv-x="1118" 
d="M1051 483q0 -115 -38 -211.5t-102 -162.5q-135 -140 -333 -140q-202 0 -329 135q-77 81 -120.5 216.5t-43.5 333.5q0 195 39.5 350.5t123.5 272.5q81 114 208.5 177t296.5 63q51 0 93.5 -5t75.5 -16v-191h-9q-27 15 -78 27.5t-109 12.5q-93 0 -169 -31.5t-131.5 -94
t-90.5 -156t-45 -216.5q72 51 146 77.5t164 26.5q87 0 152 -18q65 -16 137 -70q162 -123 162 -380zM848 475q0 93 -24 154t-78 106q-39 32 -88.5 42t-101.5 10q-70 0 -136 -21t-130 -61q-2 -22 -3 -42.5t-1 -51.5q0 -78 8 -140t22.5 -110.5t33.5 -84t42 -59.5
q43 -48 88 -66.5t99 -18.5q120 0 194 86q75 85 75 257z" />
    <glyph glyph-name="seven" unicode="7" horiz-adv-x="1118" 
d="M1044 1266l-644 -1266h-213l682 1314h-770v175h945v-223z" />
    <glyph glyph-name="eight" unicode="8" horiz-adv-x="1118" 
d="M811 1142q0 100 -67 167t-186 67q-109 0 -179 -60q-69 -60 -69 -162q0 -75 35 -125t107 -92q16 -8 39 -20t55 -27t61 -27t55 -20q87 67 118 137q31 69 31 162zM839 396q0 92 -36 146q-37 55 -139 110q-34 19 -90 41t-128 52q-84 -55 -127.5 -135.5t-43.5 -183.5
q0 -135 81 -223q82 -88 205 -88q125 0 202 75q76 76 76 206zM559 -34q-112 0 -202.5 32.5t-154.5 95.5q-63 60 -95.5 142t-32.5 175q0 60 16.5 116.5t48 106t78.5 90.5t109 71v6q-55 32 -96 67t-67 73q-53 77 -53 190q0 168 127 280t322 112q203 0 325 -107
q123 -107 123 -272q0 -100 -59 -198t-168 -153v-6q130 -61 197 -148q67 -86 67 -224q0 -191 -139 -320q-138 -129 -346 -129z" />
    <glyph glyph-name="nine" unicode="9" horiz-adv-x="1118" 
d="M832 877q0 152 -28 247.5t-77 147.5q-45 48 -89.5 66t-98.5 18q-62 0 -111.5 -22t-84.5 -65.5t-54 -107.5t-19 -148q0 -94 24 -155t78 -105q38 -31 86 -41.5t103 -10.5q66 0 138 22q73 22 129 60q1 15 2.5 39.5t1.5 54.5zM67 1005q0 115 37 210t103 164q63 66 151.5 103
t181.5 37q103 0 186.5 -34t144.5 -100q39 -41 69 -94t50.5 -120.5t31.5 -151t11 -185.5q0 -185 -42 -351q-40 -163 -122 -274q-43 -58 -94 -102.5t-112.5 -74.5t-135.5 -45.5t-162 -15.5q-40 0 -85 4.5t-84 16.5v191h10q25 -14 78 -27q51 -13 108 -13q197 0 308.5 128.5
t126.5 369.5q-40 -27 -77.5 -46.5t-75 -32.5t-76.5 -19t-81 -6t-79 4t-72 14t-69 27t-68 43q-81 61 -121.5 154t-40.5 226z" />
    <glyph glyph-name="colon" unicode=":" horiz-adv-x="724" 
d="M482 832h-239v285h239v-285zM482 0h-239v285h239v-285z" />
    <glyph glyph-name="semicolon" unicode=";" horiz-adv-x="724" 
d="M482 832h-239v285h239v-285zM548 285l-280 -655h-146l176 655h250z" />
    <glyph glyph-name="less" unicode="&#x3c;" horiz-adv-x="1490" 
d="M1275 79l-1074 513v120l1074 513v-178l-833 -395l833 -395v-178z" />
    <glyph glyph-name="equal" unicode="=" horiz-adv-x="1490" 
d="M1298 782h-1106v160h1106v-160zM1298 362h-1106v160h1106v-160z" />
    <glyph glyph-name="greater" unicode="&#x3e;" horiz-adv-x="1490" 
d="M1289 592l-1074 -513v178l833 395l-833 395v178l1074 -513v-120z" />
    <glyph glyph-name="question" unicode="?" horiz-adv-x="970" 
d="M912 1139q0 -99 -32.5 -175t-86.5 -134t-122.5 -107t-144.5 -95v-228h-179v305q28 17 60.5 37.5t69.5 43.5q73 47 117 89q54 51 84 111t30 138q0 112 -71 168t-185 56q-102 0 -189 -34q-86 -32 -143 -69h-11v204q68 27 169 48q100 22 193 22q204 0 323 -105
q118 -103 118 -275zM542 0h-204v211h204v-211z" />
    <glyph glyph-name="at" unicode="@" horiz-adv-x="1862" 
d="M1739 663q0 -140 -37.5 -268.5t-109.5 -237.5h-421l-25 116q-67 -56 -124 -91q-56 -33 -153 -33q-155 0 -252 123q-98 125 -98 359q0 235 120 366q122 131 276 131q36 0 66.5 -4.5t57.5 -13.5t52.5 -21t52.5 -27v48h159v-842h227q37 70 54 184q8 57 12.5 108t4.5 97
q0 326 -167 526t-478 200q-296 0 -489 -216q-192 -215 -192 -522q0 -330 187 -535q187 -204 489 -204q81 0 170 11t170 35v-142q-85 -20 -170.5 -28t-170.5 -8q-354 0 -586 243q-232 242 -232 630q0 366 239 619q240 252 584 252q368 0 576 -238q208 -236 208 -617z
M1142 408v518q-57 29 -103.5 41.5t-97.5 12.5q-113 0 -182 -85q-69 -84 -69 -261q0 -160 52 -245t166 -85q61 0 120.5 29t113.5 75z" />
    <glyph glyph-name="A" unicode="A" horiz-adv-x="1228" 
d="M-10 0l502 1489h244l502 -1489h-209l-135 416h-569l-135 -416h-200zM839 585l-230 702l-229 -702h459z" />
    <glyph glyph-name="B" unicode="B" horiz-adv-x="1207" 
d="M1161 457q0 -112 -41.5 -196.5t-113.5 -139.5q-83 -65 -180 -94q-96 -27 -248 -27h-427v1489h395q80 0 139 -3t99 -8q81 -11 153 -49q81 -43 117.5 -112.5t36.5 -163.5q0 -106 -55 -188t-154 -130v-8q134 -36 206.5 -131t72.5 -239zM885 1125q0 54 -18 93.5t-58 62.5
q-48 27 -107 33t-163 6h-190v-436h225q93 0 137 9q46 11 91 40t64 76t19 116zM955 449q0 84 -24 138q-24 56 -97 93q-23 13 -49 20.5t-54 11.5t-67 5.5t-90 1.5h-225v-550h161q130 0 205 12t132 51t82.5 88.5t25.5 128.5z" />
    <glyph glyph-name="C" unicode="C" horiz-adv-x="1230" 
d="M733 -27q-147 0 -268.5 49t-211.5 146t-138.5 241.5t-48.5 333.5q0 187 47.5 326t138.5 242q90 100 211 152.5t273 52.5q75 0 140 -11t122 -28q48 -15 98.5 -37.5t99.5 -49.5v-239h-16q-26 24 -66.5 58t-100.5 67q-57 31 -124 51t-155 20q-96 0 -180.5 -39t-148.5 -115
q-63 -76 -98 -190.5t-35 -259.5q0 -154 37 -264t101 -186q63 -75 146.5 -112t177.5 -37q87 0 159.5 21t129.5 53q55 31 95 63.5t63 55.5h15v-236q-25 -11 -48 -22t-45 -22t-48 -21t-57 -20q-67 -22 -121 -32q-58 -11 -144 -11z" />
    <glyph glyph-name="D" unicode="D" horiz-adv-x="1389" 
d="M1325 743q0 -204 -83 -368q-42 -82 -96.5 -146t-124.5 -110q-113 -71 -230 -95q-116 -24 -297 -24h-343v1489h339q209 0 329 -32q60 -16 111 -37t93 -49q144 -95 223 -252.5t79 -375.5zM1119 746q0 173 -57 293.5t-169 189.5q-80 48 -169 69q-90 21 -224 21h-151v-1149
h151q66 0 123.5 5t108 16t95 30t85.5 48q103 70 155 186t52 291z" />
    <glyph glyph-name="E" unicode="E" horiz-adv-x="1149" 
d="M151 0v1489h931v-176h-733v-408h683v-176h-683v-553h733v-176h-931z" />
    <glyph glyph-name="F" unicode="F" horiz-adv-x="1068" 
d="M1042 1313h-693v-420h664v-176h-664v-717h-198v1489h891v-176z" />
    <glyph glyph-name="G" unicode="G" horiz-adv-x="1367" 
d="M774 -29q-159 0 -289.5 47.5t-224.5 146.5q-94 100 -144 245t-50 336q0 181 50.5 322.5t144.5 243.5q91 99 223.5 151.5t291.5 52.5q75 0 144 -11t132 -30q49 -15 111 -42q31 -13 56 -24t44 -21v-239h-17q-19 17 -38 32.5t-39 29.5q-37 29 -111 64q-60 30 -137.5 50
t-168.5 20q-215 0 -348 -162q-132 -162 -132 -431q0 -151 35 -262.5t101 -189.5q64 -78 154 -118t204 -40q42 0 84.5 3t82.5 9t75.5 15t64.5 21v385h-344v174h540v-650q-19 -8 -44.5 -19t-57.5 -24t-61 -23t-57 -18q-74 -23 -132 -33q-61 -11 -143 -11z" />
    <glyph glyph-name="H" unicode="H" horiz-adv-x="1383" 
d="M1232 0h-198v729h-685v-729h-198v1489h198v-584h685v584h198v-1489z" />
    <glyph glyph-name="I" unicode="I" horiz-adv-x="764" 
d="M671 0h-578v152h190v1185h-190v152h578v-152h-190v-1185h190v-152z" />
    <glyph glyph-name="J" unicode="J" horiz-adv-x="853" 
d="M712 387q0 -196 -120 -302q-118 -106 -320 -106q-48 0 -129 9q-40 4 -73.5 9t-60.5 11v189h11q20 -7 45.5 -15t55.5 -16q63 -17 124 -17q93 0 147 21t80 60q27 40 34.5 98t7.5 134v869h-315v158h513v-1102z" />
    <glyph glyph-name="K" unicode="K" horiz-adv-x="1204" 
d="M1236 0h-257l-543 693l-87 -98v-595h-198v1489h198v-685l610 685h241l-616 -665z" />
    <glyph glyph-name="L" unicode="L" horiz-adv-x="1019" 
d="M1014 0h-863v1489h198v-1313h665v-176z" />
    <glyph glyph-name="M" unicode="M" horiz-adv-x="1578" 
d="M1427 0h-198v1283l-388 -873h-120l-385 873v-1283h-185v1489h270l372 -829l359 829h275v-1489z" />
    <glyph glyph-name="N" unicode="N" horiz-adv-x="1367" 
d="M1216 0h-222l-658 1284v-1284h-185v1489h281l599 -1179v1179h185v-1489z" />
    <glyph glyph-name="O" unicode="O" horiz-adv-x="1449" 
d="M1204 1318q85 -99 132 -243t47 -331q0 -182 -45.5 -327t-133.5 -245q-91 -105 -212 -154t-268 -49q-152 0 -272 50.5t-208 152.5q-87 100 -132.5 244t-45.5 328q0 189 46 330t133 244q87 100 207.5 151t271.5 51q153 0 274 -52.5t206 -149.5zM1177 744q0 149 -32 262.5
t-90 188.5q-60 78 -142.5 116t-187.5 38q-109 0 -188.5 -37.5t-142.5 -116.5q-60 -76 -91 -190.5t-31 -260.5q0 -293 123 -449q123 -155 330 -155t329 155q123 156 123 449z" />
    <glyph glyph-name="P" unicode="P" horiz-adv-x="1129" 
d="M1091 1040q0 -97 -34.5 -183.5t-95.5 -147.5q-75 -75 -181 -115q-104 -39 -263 -39h-168v-555h-198v1489h374q132 0 225 -22t164 -71q83 -57 130 -144.5t47 -211.5zM885 1035q0 156 -107 227q-47 31 -109.5 44t-155.5 13h-164v-595h135q60 0 108 4.5t86 15t68.5 27.5
t54.5 42q45 45 64.5 97.5t19.5 124.5z" />
    <glyph glyph-name="Q" unicode="Q" horiz-adv-x="1449" 
d="M1388 -364q-54 -14 -113 -21t-119 -7q-168 0 -272 94q-104 95 -114 268h-46q-152 0 -272.5 51t-207.5 151t-132.5 244t-45.5 328q0 189 46 330t133 244q87 100 207.5 151t271.5 51q153 0 274 -52.5t206 -149.5q85 -99 132 -243t47 -331q0 -289 -113 -477t-309 -255
q5 -57 19.5 -101t37.5 -70q27 -31 65.5 -45.5t105.5 -14.5q42 0 94 13q56 13 78 22h27v-180zM1177 744q0 149 -32 262.5t-90 188.5q-60 78 -142.5 116t-187.5 38q-109 0 -188.5 -37.5t-142.5 -116.5q-60 -76 -91 -190.5t-31 -260.5q0 -293 123 -449t330 -156t329 156
q123 156 123 449z" />
    <glyph glyph-name="R" unicode="R" horiz-adv-x="1271" 
d="M1304 0h-257l-472 592h-226v-592h-198v1489h384q64 0 117.5 -3.5t96.5 -10.5q86 -13 165 -65q78 -51 123.5 -129t45.5 -196q0 -82 -21.5 -150.5t-61.5 -123.5t-97 -95.5t-129 -67.5zM876 1070q0 66 -23 116t-71 82q-42 28 -98 39.5t-139 11.5h-196v-562h174q85 0 153 15
t116 62q43 42 63.5 100t20.5 136z" />
    <glyph glyph-name="S" unicode="S" horiz-adv-x="1141" 
d="M566 -27q-162 0 -276 33q-57 17 -109.5 37.5t-103.5 45.5v248h14q98 -92 222 -143q126 -50 239 -50q82 0 144 18t104 50.5t63 78.5t21 102q0 90 -43.5 145.5t-140.5 82.5q-69 19 -126 33q-29 7 -64.5 15.5t-78.5 19.5q-78 20 -138 50.5t-108 81.5q-46 49 -71.5 115
t-25.5 154q0 181 141 303q141 123 360 123q126 0 236.5 -25t206.5 -71v-237h-15q-71 65 -182 113q-110 49 -233 49q-137 0 -223 -65q-85 -64 -85 -169q0 -96 49.5 -151.5t145.5 -81.5q32 -8 70 -18t84 -21q89 -21 151 -39q154 -47 225 -142t71 -234q0 -88 -35.5 -172
t-99.5 -144q-36 -32 -76.5 -57.5t-86.5 -42.5q-91 -35 -226 -35z" />
    <glyph glyph-name="T" unicode="T" horiz-adv-x="1196" 
d="M499 0v1313h-500v176h1198v-176h-500v-1313h-198z" />
    <glyph glyph-name="U" unicode="U" horiz-adv-x="1343" 
d="M671 -31q-132 0 -229.5 34t-166.5 103q-39 39 -66 85t-44 101.5t-24.5 121.5t-7.5 146v929h198v-929q0 -51 3 -94t10 -79.5t19.5 -67.5t31.5 -59q40 -60 108 -91t168 -31q94 0 165.5 31t111.5 91q18 28 30.5 59t20 67t10.5 77.5t3 91.5v934h198v-929q0 -155 -31.5 -266
t-110.5 -188q-71 -69 -165.5 -103t-231.5 -34z" />
    <glyph glyph-name="V" unicode="V" horiz-adv-x="1222" 
d="M1230 1489l-512 -1489h-214l-512 1489h212l412 -1236l412 1236h202z" />
    <glyph glyph-name="W" unicode="W" horiz-adv-x="1847" 
d="M1821 1489l-374 -1489h-223l-303 1236l-296 -1236h-218l-381 1489h203l300 -1238l298 1238h201l301 -1250l298 1250h194z" />
    <glyph glyph-name="X" unicode="X" horiz-adv-x="1189" 
d="M1181 0h-227l-363 596l-369 -596h-214l473 745l-459 744h226l356 -585l361 585h215l-466 -734z" />
    <glyph glyph-name="Y" unicode="Y" horiz-adv-x="1180" 
d="M1193 1489l-503 -830v-659h-198v638l-503 851h220l384 -657l390 657h210z" />
    <glyph glyph-name="Z" unicode="Z" horiz-adv-x="1145" 
d="M1100 0h-1040v184l797 1129h-761v176h984v-179l-806 -1134h826v-176z" />
    <glyph glyph-name="bracketleft" unicode="[" horiz-adv-x="784" 
d="M686 -392h-520v1948h520v-143h-345v-1662h345v-143z" />
    <glyph glyph-name="backslash" unicode="\" horiz-adv-x="783" 
d="M804 -324h-169l-583 1880h172z" />
    <glyph glyph-name="bracketright" unicode="]" horiz-adv-x="784" 
d="M618 -392h-520v143h345v1662h-345v143h520v-1948z" />
    <glyph glyph-name="asciicircum" unicode="^" horiz-adv-x="1490" 
d="M1357 684h-198l-415 625l-414 -627h-197l549 807h126z" />
    <glyph glyph-name="underscore" unicode="_" horiz-adv-x="1118" 
d="M1134 -300h-1150v130h1150v-130z" />
    <glyph glyph-name="grave" unicode="`" horiz-adv-x="1118" 
d="M670 1302h-149l-273 374h243z" />
    <glyph glyph-name="a" unicode="a" horiz-adv-x="1075" 
d="M760 275v310q-34 -3 -76 -7.5t-94 -9.5q-51 -5 -92 -12t-73 -17q-74 -22 -124 -71q-49 -46 -49 -132q0 -97 53.5 -145.5t158.5 -48.5q45 0 85 10t76.5 28t69.5 42.5t65 52.5zM760 119q-11 -8 -26.5 -20t-35.5 -28q-37 -29 -74 -48q-25 -13 -49.5 -23t-47.5 -17
q-48 -14 -130 -14q-69 0 -130.5 25.5t-109.5 73.5q-45 46 -72 113.5t-27 142.5q0 117 49 198t155 129q47 21 103 35.5t119 24t132.5 15t143.5 9.5v36q0 66 -20 106.5t-56 62.5q-36 23 -88 30.5t-107 7.5q-33 0 -72 -5t-81.5 -14.5t-87 -24t-88.5 -32.5h-11v191q54 16 149 33
q97 18 192 18q57 0 105 -4t89 -14t75.5 -25.5t66.5 -39.5q61 -46 91 -118.5t30 -178.5v-764h-187v119z" />
    <glyph glyph-name="b" unicode="b" horiz-adv-x="1132" 
d="M879 562q0 200 -61 303.5t-196 103.5q-78 0 -156 -36t-142 -91v-640q35 -17 66.5 -29.5t59.5 -20.5q28 -7 58 -10.5t63 -3.5q72 0 129 25t97 77t61 132t21 190zM1073 577q0 -275 -133 -441q-134 -167 -333 -167q-90 0 -156 23q-63 22 -127 60l-12 -52h-176v1556h188v-556
q36 32 74 59t80 47t88.5 31t99.5 11q188 0 298 -152q109 -151 109 -419z" />
    <glyph glyph-name="c" unicode="c" horiz-adv-x="945" 
d="M580 -25q-115 0 -211 35.5t-165 107.5t-107 181t-38 258q0 148 39.5 254.5t105.5 179.5t164 112.5t212 39.5q93 0 178 -26t152 -60v-211h-11q-20 17 -51.5 39t-76.5 45q-20 10 -43.5 19t-49 16t-51.5 11t-50 4q-147 0 -235 -111q-88 -109 -88 -312q0 -199 85 -309
q86 -110 238 -110q93 0 175.5 38t146.5 98h11v-211q-14 -6 -32 -14.5t-38 -17t-39.5 -16t-36.5 -11.5q-47 -13 -86 -21q-40 -8 -98 -8z" />
    <glyph glyph-name="d" unicode="d" horiz-adv-x="1132" 
d="M996 0h-188v114q-22 -18 -40.5 -33t-36 -27.5t-35.5 -23.5t-39 -21q-40 -19 -83 -29.5t-100 -10.5q-91 0 -168.5 38t-131.5 111q-55 75 -85 182.5t-30 249.5q0 147 38 254.5t105 187.5q61 73 147 114.5t182 41.5q86 0 146 -19q63 -18 131 -57v484h188v-1556zM808 272v644
q-35 17 -66.5 28.5t-59.5 18.5q-53 13 -120 13q-145 0 -227 -108.5t-82 -313.5q0 -197 63 -301.5t202 -104.5q75 0 149.5 33.5t140.5 90.5z" />
    <glyph glyph-name="e" unicode="e" horiz-adv-x="1078" 
d="M621 -26q-267 0 -415 150q-147 151 -147 428q0 273 143 434q142 162 374 162q105 0 184.5 -30t139.5 -94t92 -156t32 -227v-102h-774q0 -194 98 -298q97 -103 271 -103q63 0 122 14t107 36q51 23 86 44.5t58 40.5h11v-205q-17 -7 -37 -15l-45 -18q-51 -20 -88 -30
q-28 -8 -52.5 -13.5t-47.5 -9.5q-46 -8 -112 -8zM841 683q-2 76 -18 131t-46 93q-33 42 -84.5 64t-127.5 22q-75 0 -127.5 -22.5t-95.5 -65.5q-42 -45 -64 -97.5t-28 -124.5h591z" />
    <glyph glyph-name="f" unicode="f" horiz-adv-x="652" 
d="M724 1376h-10q-28 10 -72 17q-47 9 -84 9q-119 0 -170 -54q-50 -53 -50 -193v-38h311v-156h-305v-961h-188v961h-127v156h127v37q0 203 96.5 307.5t278.5 104.5q52 0 101.5 -5.5t91.5 -12.5v-172z" />
    <glyph glyph-name="g" unicode="g" horiz-adv-x="1132" 
d="M808 303v613q-70 34 -129 48.5t-119 14.5q-143 0 -225 -105q-82 -104 -82 -301q0 -186 62.5 -283t202.5 -97q73 0 150 29t140 81zM176 -179q19 -8 55.5 -21.5t84.5 -25.5q52 -13 96 -21t96 -8q88 0 148 22.5t94 64.5q32 42 45 95.5t13 122.5v98q-38 -33 -75 -57.5
t-74 -40.5q-72 -31 -183 -31q-192 0 -304 142q-113 143 -113 408q0 140 39 247t105 182q63 72 148.5 111t178.5 39q43 0 80 -5t70.5 -15t64.5 -25t63 -34l11 48h177v-990q0 -284 -124 -417t-379 -133q-82 0 -167 13t-160 35v196h10z" />
    <glyph glyph-name="h" unicode="h" horiz-adv-x="1142" 
d="M1014 0h-188v636q0 78 -7.5 144t-28.5 106q-23 42 -64 62.5t-112 20.5q-70 0 -144 -37.5t-146 -97.5v-834h-188v1556h188v-563q85 75 166.5 115t172.5 40q82 0 147.5 -27.5t110.5 -81t69 -132.5t24 -182v-725z" />
    <glyph glyph-name="i" unicode="i" horiz-adv-x="468" 
d="M328 0h-188v1117h188v-1117zM341 1304h-214v195h214v-195z" />
    <glyph glyph-name="j" unicode="j" horiz-adv-x="577" 
d="M441 -32q0 -96 -26.5 -169t-76 -122.5t-121 -74.5t-161.5 -25q-31 0 -69.5 3t-76.5 9v168h11q22 -5 48.5 -9.5t50.5 -4.5q75 0 123.5 18.5t72.5 58.5q22 36 29.5 91t7.5 134v916h-202v156h390v-1149zM442 1304h-214v195h214v-195z" />
    <glyph glyph-name="k" unicode="k" horiz-adv-x="1020" 
d="M1062 0h-247l-417 539l-74 -72v-467h-188v1556h188v-911l442 472h234l-459 -467z" />
    <glyph glyph-name="l" unicode="l" horiz-adv-x="468" 
d="M328 0h-188v1556h188v-1556z" />
    <glyph glyph-name="m" unicode="m" horiz-adv-x="1720" 
d="M1404 0v646q0 78 -6 143t-25 102q-20 40 -57 59t-100 19q-58 0 -124 -35.5t-138 -102.5q1 -17 2.5 -40.5t1.5 -55.5v-735h-188v646q0 78 -6 143t-25 102q-20 40 -57 59t-100 19q-61 0 -128 -37.5t-130 -97.5v-834h-188v1117h188v-124q74 74 146.5 114.5t159.5 40.5
q100 0 176 -45t116 -148q42 48 83 84t82.5 60t85 36.5t91.5 12.5q72 0 130.5 -22t103.5 -73t69.5 -127t24.5 -191v-735h-188z" />
    <glyph glyph-name="n" unicode="n" horiz-adv-x="1142" 
d="M1014 0h-188v636q0 78 -7.5 144t-28.5 106q-23 42 -64 62.5t-112 20.5q-70 0 -144 -37.5t-146 -97.5v-834h-188v1117h188v-124q85 75 166.5 115t172.5 40q82 0 147.5 -27.5t110.5 -81t69 -132.5t24 -182v-725z" />
    <glyph glyph-name="o" unicode="o" horiz-adv-x="1112" 
d="M1055 558q0 -282 -136 -436q-137 -153 -362 -153q-233 0 -367 158q-133 158 -133 431q0 280 137 435q138 155 363 155t362 -155q136 -154 136 -435zM861 558q0 217 -79 322.5t-225 105.5q-147 0 -226.5 -105.5t-79.5 -322.5q0 -211 79 -319t227 -108q145 0 224.5 106.5
t79.5 320.5z" />
    <glyph glyph-name="p" unicode="p" horiz-adv-x="1132" 
d="M1073 588q0 -278 -134 -445q-134 -165 -337 -165q-42 0 -78 4.5t-69.5 14.5t-65.5 24.5t-65 34.5v-468h-188v1529h188v-117q70 63 155.5 105.5t186.5 42.5q192 0 299 -152q108 -152 108 -408zM879 567q0 192 -61 296q-61 106 -198 106q-81 0 -155 -35t-141 -92v-633
q71 -35 126 -49q51 -13 121 -13q146 0 227 107t81 313z" />
    <glyph glyph-name="q" unicode="q" horiz-adv-x="1132" 
d="M996 -412h-188v534q-41 -38 -80 -65t-79.5 -44.5t-83 -26t-90.5 -8.5q-190 0 -303 152q-113 154 -113 425q0 145 39 255t105 185q63 73 148 113t179 40q43 0 79.5 -5t69.5 -15t64.5 -25t64.5 -34l12 48h176v-1529zM808 280v636q-35 17 -67 29.5t-60 19.5q-58 14 -120 14
q-149 0 -228.5 -106.5t-79.5 -308.5q0 -196 64 -301.5t199 -105.5q79 0 154 34t138 89z" />
    <glyph glyph-name="r" unicode="r" horiz-adv-x="738" 
d="M728 915h-10q-21 6 -44.5 7.5t-56.5 1.5q-76 0 -151 -32.5t-142 -98.5v-793h-188v1117h188v-166q102 90 179 128q78 38 149 38q29 0 43.5 -1.5t32.5 -4.5v-196z" />
    <glyph glyph-name="s" unicode="s" horiz-adv-x="914" 
d="M438 -27q-113 0 -210 30t-161 64v211h10q24 -19 56.5 -42t86.5 -48q48 -22 105 -39t120 -17q47 0 96 10q50 10 76 27q18 12 30.5 23.5t20.5 26t11.5 33t3.5 44.5q0 67 -37 101q-36 34 -129 57q-38 10 -94 21q-29 6 -55.5 12.5t-51.5 13.5q-128 37 -186 114.5t-58 187.5
q0 151 114 246q115 95 303 95q47 0 93 -6t94 -17t87 -26t71 -32v-201h-10q-72 57 -160 90t-179 33q-93 0 -157 -39t-64 -118q0 -35 9 -60.5t28.5 -44t50 -32t72.5 -24.5t93.5 -21.5t108.5 -24.5q124 -31 186.5 -103t62.5 -196q0 -72 -28.5 -136.5t-83.5 -110.5
q-30 -25 -63 -44t-72.5 -32t-86 -19.5t-103.5 -6.5z" />
    <glyph glyph-name="t" unicode="t" horiz-adv-x="685" 
d="M474 -22q-77 0 -137.5 21.5t-102.5 66t-64 113t-22 163.5v619h-127v156h127v321h188v-321h346v-156h-346v-531q0 -85 3 -131q3 -44 23 -86q17 -35 54.5 -52.5t103.5 -17.5q23 0 46 4t43 9.5t36.5 11.5t25.5 11h11v-169q-54 -15 -108 -23.5t-100 -8.5z" />
    <glyph glyph-name="u" unicode="u" horiz-adv-x="1142" 
d="M1006 0h-188v124q-44 -38 -84 -67t-81 -48.5t-83.5 -29.5t-90.5 -10q-73 0 -137.5 24t-112.5 76t-74.5 130.5t-26.5 192.5v725h188v-636q0 -89 6.5 -147.5t29.5 -102.5q23 -43 62.5 -63t113.5 -20q69 0 147 39q79 40 143 96v834h188v-1117z" />
    <glyph glyph-name="v" unicode="v" horiz-adv-x="1020" 
d="M1014 1117l-421 -1117h-169l-418 1117h203l306 -862l303 862h196z" />
    <glyph glyph-name="w" unicode="w" horiz-adv-x="1520" 
d="M1490 1117l-283 -1117h-174l-273 861l-271 -861h-173l-286 1117h196l197 -865l265 865h155l272 -865l186 865h189z" />
    <glyph glyph-name="x" unicode="x" horiz-adv-x="1014" 
d="M1004 0h-231l-271 422l-279 -422h-213l388 554l-384 563h231l269 -418l276 418h214l-386 -550z" />
    <glyph glyph-name="y" unicode="y" horiz-adv-x="1020" 
d="M1014 1117l-601 -1529h-201l200 466l-406 1063h203l305 -827l304 827h196z" />
    <glyph glyph-name="z" unicode="z" horiz-adv-x="910" 
d="M870 0h-821v139l584 823h-560v155h786v-134l-587 -826h598v-157z" />
    <glyph glyph-name="braceleft" unicode="{" horiz-adv-x="984" 
d="M886 -392h-116q-179 0 -281 99q-101 98 -101 288v149q0 34 -3 69.5t-10 69.5t-19.5 64.5t-30.5 55.5q-37 51 -96.5 76t-147.5 25h-21v156h21q88 0 147.5 25t96.5 76q18 25 30.5 55.5t19.5 64.5t10 69t3 70v149q0 190 101 288q102 99 281 99h116v-138h-80
q-60 0 -102.5 -12t-73.5 -41q-63 -59 -63 -213v-175q0 -82 -19 -138t-56 -105q-33 -45 -86 -81t-110 -59v-24q57 -23 109.5 -59t86.5 -81q37 -49 56 -105t19 -138v-175q0 -154 63 -213q30 -29 73 -41t103 -12h80v-138z" />
    <glyph glyph-name="bar" unicode="|" horiz-adv-x="783" 
d="M475 -392h-167v1948h167v-1948z" />
    <glyph glyph-name="braceright" unicode="}" horiz-adv-x="984" 
d="M924 504h-21q-88 0 -147.5 -25t-96.5 -76q-18 -25 -30.5 -55.5t-19.5 -64.5t-10 -69.5t-3 -69.5v-149q0 -191 -102 -288q-101 -99 -280 -99h-116v138h80q60 0 102.5 12t73.5 41q63 59 63 213v175q0 82 19 138t56 105q33 45 86 81t110 59v24q-57 23 -110 59t-86 81
q-37 49 -56 105t-19 138v175q0 154 -63 213q-31 29 -73.5 41t-102.5 12h-80v138h116q179 0 280 -99q102 -98 102 -288v-149q0 -35 3 -70t10 -69t19.5 -64.5t30.5 -55.5q37 -51 96.5 -76t147.5 -25h21v-156z" />
    <glyph glyph-name="asciitilde" unicode="~" horiz-adv-x="1490" 
d="M1356 927q-2 -103 -20.5 -197t-60.5 -169q-21 -36 -46 -66.5t-56.5 -52.5t-70.5 -34t-88 -12q-57 0 -102.5 15.5t-80.5 40.5t-67 60t-57 65q-27 33 -53 67t-51 60q-27 28 -56 45t-66 17q-51 0 -83.5 -26.5t-54.5 -78.5q-21 -51 -29.5 -120.5t-11.5 -145.5h-168
q2 105 21.5 199.5t58.5 166.5q40 76 105.5 120.5t156.5 44.5q60 0 105.5 -16t80.5 -41t64.5 -57t57.5 -67q11 -14 24 -30t28 -36q32 -39 52 -61q29 -30 58.5 -46t62.5 -16q51 0 85 28t53 76q20 51 29.5 118t11.5 149h168z" />
    <glyph glyph-name="Adieresis" unicode="&#x201a;" horiz-adv-x="1228" 
d="M-10 0l502 1489h244l502 -1489h-209l-135 416h-569l-135 -416h-200zM839 585l-230 702l-229 -702h459zM913 1657h-201v195h201v-195zM500 1657h-201v195h201v-195z" />
    <glyph glyph-name="Aring" unicode="&#x192;" horiz-adv-x="1228" 
d="M758 1425l480 -1425h-209l-135 416h-569l-135 -416h-200l479 1422q-72 40 -116.5 108t-44.5 155q0 128 89 214q88 87 217 87q128 0 217 -86t89 -215q0 -85 -46 -153q-45 -69 -116 -107zM839 584l-230 705l-229 -705h459zM773 1683q0 72 -44 121q-43 49 -115 49
q-70 0 -115 -49q-44 -49 -44 -121q0 -74 45 -123q45 -48 114 -48t114 48q45 49 45 123z" />
    <glyph glyph-name="Ccedilla" unicode="&#x201e;" horiz-adv-x="1230" 
d="M733 -27q-147 0 -268.5 49t-211.5 146t-138.5 241.5t-48.5 333.5q0 187 47.5 326t138.5 242q90 100 211 152.5t273 52.5q75 0 140 -11t122 -28q48 -15 98.5 -37.5t99.5 -49.5v-239h-16q-26 24 -66.5 58t-100.5 67q-57 31 -124 51t-155 20q-96 0 -180.5 -39t-148.5 -115
q-63 -76 -98 -190.5t-35 -259.5q0 -154 37 -264t101 -186q63 -75 146.5 -112t177.5 -37q87 0 159.5 21t129.5 53q55 31 95 63.5t63 55.5h15v-236q-25 -11 -48 -22t-45 -22t-48 -21t-57 -20q-8 -3 -23 -7.5t-21 -5.5q1 -15 3 -39t2 -53q0 -150 -82 -241q-83 -93 -227 -93
q-37 0 -87 6t-90 18v160h9q24 -11 63 -22.5t79 -11.5q94 0 138 39t44 127q0 18 -0.5 38t-1.5 45q-18 -1 -33.5 -2t-37.5 -1z" />
    <glyph glyph-name="Eacute" unicode="&#x2026;" horiz-adv-x="1149" 
d="M151 0v1489h931v-176h-733v-408h683v-176h-683v-553h733v-176h-931zM920 2049l-273 -374h-149l179 374h243z" />
    <glyph glyph-name="Ntilde" unicode="&#x2020;" horiz-adv-x="1367" 
d="M1216 0h-222l-658 1284v-1284h-185v1489h281l599 -1179v1179h185v-1489zM1110 1985q-10 -157 -74 -234.5t-172 -77.5q-52 0 -96 19t-86 59q-45 42 -76.5 63t-62.5 21q-49 0 -68.5 -45t-23.5 -121h-140q8 155 76 232q69 79 169 79q51 0 94 -19.5t86 -57.5
q43 -39 77.5 -59.5t63.5 -20.5q47 0 68.5 45t24.5 117h140z" />
    <glyph glyph-name="Odieresis" unicode="&#x2021;" horiz-adv-x="1449" 
d="M1204 1318q85 -99 132 -243t47 -331q0 -182 -45.5 -327t-133.5 -245q-91 -105 -212 -154t-268 -49q-152 0 -272 50.5t-208 152.5q-87 100 -132.5 244t-45.5 328q0 189 46 330t133 244q87 100 207.5 151t271.5 51q153 0 274 -52.5t206 -149.5zM1177 744q0 149 -32 262.5
t-90 188.5q-60 78 -142.5 116t-187.5 38q-109 0 -188.5 -37.5t-142.5 -116.5q-60 -76 -91 -190.5t-31 -260.5q0 -293 123 -449q123 -155 330 -155t329 155q123 156 123 449zM1027 1677h-201v195h201v-195zM614 1677h-201v195h201v-195z" />
    <glyph glyph-name="Udieresis" unicode="&#x2030;" horiz-adv-x="1343" 
d="M671 -31q-132 0 -229.5 34t-166.5 103q-39 39 -66 85t-44 101.5t-24.5 121.5t-7.5 146v929h198v-929q0 -51 3 -94t10 -79.5t19.5 -67.5t31.5 -59q40 -60 108 -91t168 -31q94 0 165.5 31t111.5 91q18 28 30.5 59t20 67t10.5 77.5t3 91.5v934h198v-929q0 -155 -31.5 -266
t-110.5 -188q-71 -69 -165.5 -103t-231.5 -34zM1004 1677h-201v195h201v-195zM591 1677h-201v195h201v-195z" />
    <glyph glyph-name="aacute" unicode="&#x2039;" horiz-adv-x="1174" 
d="M1043 541l-488 419v85l488 418v-188l-317 -273l317 -273v-188zM613 512l-510 446v89l510 445v-196l-331 -294l331 -294v-196z" />
    <glyph glyph-name="agrave" unicode="&#x152;" horiz-adv-x="1075" 
d="M760 275v310q-34 -3 -76 -7.5t-94 -9.5q-51 -5 -92 -12t-73 -17q-74 -22 -124 -71q-49 -46 -49 -132q0 -97 53.5 -145.5t158.5 -48.5q45 0 85 10t76.5 28t69.5 42.5t65 52.5zM760 119q-11 -8 -26.5 -20t-35.5 -28q-37 -29 -74 -48q-25 -13 -49.5 -23t-47.5 -17
q-48 -14 -130 -14q-69 0 -130.5 25.5t-109.5 73.5q-45 46 -72 113.5t-27 142.5q0 117 49 198t155 129q47 21 103 35.5t119 24t132.5 15t143.5 9.5v36q0 66 -20 106.5t-56 62.5q-36 23 -88 30.5t-107 7.5q-33 0 -72 -5t-81.5 -14.5t-87 -24t-88.5 -32.5h-11v191q54 16 149 33
q97 18 192 18q57 0 105 -4t89 -14t75.5 -25.5t66.5 -39.5q61 -46 91 -118.5t30 -178.5v-764h-187v119zM670 1302h-149l-273 374h243z" />
    <glyph glyph-name="acircumflex" unicode="&#x2018;" horiz-adv-x="499" 
d="M385 1444q-36 -12 -64.5 -33.5t-49 -47.5t-31.5 -54t-11 -54q0 -43 31 -76.5t94 -39.5q17 -9 23 -24t6 -30q0 -19 -8 -35t-21.5 -27t-31.5 -17.5t-37 -6.5q-38 0 -69 18t-53 46t-34 63t-12 70q0 53 20 100t54 85.5t79 68t95 47.5z" />
    <glyph glyph-name="adieresis" unicode="&#x2019;" horiz-adv-x="858" 
d="M362 993q-49 19 -94 49t-79 68.5t-54 84.5t-20 99q0 35 12 70.5t34 64t53.5 46.5t70.5 18q18 0 35.5 -6t31 -17.5t21.5 -27.5t8 -37q0 -14 -6 -29.5t-23 -23.5q-32 -3 -53.5 -13.5t-35 -26.5t-19.5 -35t-6 -40q0 -54 36 -109q38 -56 109 -81zM725 993q-50 18 -94.5 48
t-79 69t-54.5 85.5t-20 98.5q0 35 12 70.5t33.5 64t52.5 46.5t70 18t68.5 -23t29.5 -65q0 -14 -7 -29.5t-21 -23.5q-32 -3 -55.5 -13.5t-39 -26.5t-23 -35t-7.5 -40q0 -27 10.5 -54.5t31 -53t49 -47t64.5 -35.5z" />
    <glyph glyph-name="atilde" unicode="&#x201c;" horiz-adv-x="858" 
d="M745 1444q-36 -12 -64.5 -33.5t-49 -47.5t-31 -54t-10.5 -54q0 -43 30.5 -76.5t94.5 -39.5q14 -9 21 -24t7 -30q0 -19 -8 -35t-21.5 -27t-31.5 -17.5t-37 -6.5q-39 0 -70 18t-52.5 46t-33.5 63t-12 70q0 52 20 99t54 86t79 68.5t95 47.5zM385 1444q-36 -12 -64.5 -33.5
t-49 -47.5t-31.5 -54t-11 -54q0 -43 31 -76.5t94 -39.5q17 -9 23 -24t6 -30q0 -19 -8 -35t-21.5 -27t-31.5 -17.5t-37 -6.5q-38 0 -69 18t-53 46t-34 63t-12 70q0 53 20 100t54 85.5t79 68t95 47.5z" />
    <glyph glyph-name="aring" unicode="&#x201d;" horiz-adv-x="858" 
d="M477 1047q71 25 109 81q37 55 37 109q0 21 -6 40t-20 35t-36 26.5t-53 13.5q-16 8 -22.5 23.5t-6.5 29.5q0 21 8 37t21.5 27.5t31 17.5t35.5 6q39 0 70.5 -18t53.5 -46.5t34 -64t12 -70.5q0 -53 -20 -99t-54 -84.5t-79 -68.5t-94 -49zM115 1047q36 14 65 35.5t49 47
t30.5 53.5t10.5 54q0 21 -7.5 40t-23 35t-39 26.5t-55.5 13.5q-14 8 -21 23.5t-7 29.5q0 42 29.5 65t68.5 23t70 -18t52.5 -46.5t33.5 -64t12 -70.5q0 -52 -20 -98.5t-54.5 -85.5t-79.5 -69t-94 -48z" />
    <glyph glyph-name="ccedilla" unicode="&#x2022;" horiz-adv-x="945" 
d="M580 -25q-115 0 -211 35.5t-165 107.5t-107 181t-38 258q0 148 39.5 254.5t105.5 179.5t164 112.5t212 39.5q93 0 178 -26t152 -60v-211h-11q-20 17 -51.5 39t-76.5 45q-20 10 -43.5 19t-49 16t-51.5 11t-50 4q-147 0 -235 -111q-88 -109 -88 -312q0 -199 85 -309
q86 -110 238 -110q93 0 175.5 38t146.5 98h11v-211q-28 -13 -65 -29t-68 -26q1 -16 3 -42t2 -55q0 -150 -82 -241q-83 -93 -227 -93q-37 0 -87 6t-90 18v160h9q24 -11 63 -22.5t79 -11.5q94 0 138 39t44 127q0 18 -0.5 38.5t-1.5 45.5q-13 0 -22.5 -1t-24.5 -1z" />
    <glyph glyph-name="eacute" unicode="&#x2013;" horiz-adv-x="1078" 
d="M621 -26q-267 0 -415 150q-147 151 -147 428q0 273 143 434q142 162 374 162q105 0 184.5 -30t139.5 -94t92 -156t32 -227v-102h-774q0 -194 98 -298q97 -103 271 -103q63 0 122 14t107 36q51 23 86 44.5t58 40.5h11v-205q-17 -7 -37 -15l-45 -18q-51 -20 -88 -30
q-28 -8 -52.5 -13.5t-47.5 -9.5q-46 -8 -112 -8zM841 683q-2 76 -18 131t-46 93q-33 42 -84.5 64t-127.5 22q-75 0 -127.5 -22.5t-95.5 -65.5q-42 -45 -64 -97.5t-28 -124.5h591zM889 1676l-273 -374h-149l179 374h243z" />
    <glyph glyph-name="egrave" unicode="&#x2014;" horiz-adv-x="1078" 
d="M621 -26q-267 0 -415 150q-147 151 -147 428q0 273 143 434q142 162 374 162q105 0 184.5 -30t139.5 -94t92 -156t32 -227v-102h-774q0 -194 98 -298q97 -103 271 -103q63 0 122 14t107 36q51 23 86 44.5t58 40.5h11v-205q-17 -7 -37 -15l-45 -18q-51 -20 -88 -30
q-28 -8 -52.5 -13.5t-47.5 -9.5q-46 -8 -112 -8zM841 683q-2 76 -18 131t-46 93q-33 42 -84.5 64t-127.5 22q-75 0 -127.5 -22.5t-95.5 -65.5q-42 -45 -64 -97.5t-28 -124.5h591zM685 1302h-149l-273 374h243z" />
    <glyph glyph-name="ecircumflex" unicode="&#x2122;" horiz-adv-x="1078" 
d="M621 -26q-267 0 -415 150q-147 151 -147 428q0 273 143 434q142 162 374 162q105 0 184.5 -30t139.5 -94t92 -156t32 -227v-102h-774q0 -194 98 -298q97 -103 271 -103q63 0 122 14t107 36q51 23 86 44.5t58 40.5h11v-205q-17 -7 -37 -15l-45 -18q-51 -20 -88 -30
q-28 -8 -52.5 -13.5t-47.5 -9.5q-46 -8 -112 -8zM841 683q-2 76 -18 131t-46 93q-33 42 -84.5 64t-127.5 22q-75 0 -127.5 -22.5t-95.5 -65.5q-42 -45 -64 -97.5t-28 -124.5h591zM915 1297h-159l-185 256l-184 -256h-155l228 379h227z" />
    <glyph glyph-name="edieresis" unicode="&#x203a;" horiz-adv-x="1174" 
d="M1071 958l-510 -446v196l331 294l-331 294v196l510 -445v-89zM619 960l-488 -419v188l317 273l-317 273v188l488 -418v-85z" />
    <glyph glyph-name="iacute" unicode="&#x153;" horiz-adv-x="468" 
d="M328 0h-188v1117h188v-1117zM552 1676l-273 -374h-149l179 374h243z" />
    <glyph glyph-name="igrave" unicode="&#x178;" horiz-adv-x="468" 
d="M328 0h-188v1117h188v-1117zM431 1302h-149l-273 374h243z" />
    <glyph glyph-name="icircumflex" unicode="&#xa0;" horiz-adv-x="468" 
d="M328 0h-188v1117h188v-1117zM521 1297h-151l-139 263l-138 -263h-147l174 379h227z" />
    <glyph glyph-name="idieresis" unicode="&#xa1;" horiz-adv-x="468" 
d="M328 0h-188v1117h188v-1117zM506 1304h-189v195h189v-195zM151 1304h-189v195h189v-195z" />
    <glyph glyph-name="ntilde" unicode="&#xa2;" horiz-adv-x="1142" 
d="M1014 0h-188v636q0 78 -7.5 144t-28.5 106q-23 42 -64 62.5t-112 20.5q-70 0 -144 -37.5t-146 -97.5v-834h-188v1117h188v-124q85 75 166.5 115t172.5 40q82 0 147.5 -27.5t110.5 -81t69 -132.5t24 -182v-725zM978 1632q-10 -157 -74 -234.5t-172 -77.5q-52 0 -96 19
t-86 59q-45 42 -76.5 63t-62.5 21q-49 0 -68.5 -45t-23.5 -121h-140q8 155 76 232q69 79 169 79q51 0 94 -19.5t86 -57.5q43 -39 77.5 -59.5t63.5 -20.5q47 0 68.5 45t24.5 117h140z" />
    <glyph glyph-name="oacute" unicode="&#xa3;" horiz-adv-x="1112" 
d="M1055 558q0 -282 -136 -436q-137 -153 -362 -153q-233 0 -367 158q-133 158 -133 431q0 280 137 435q138 155 363 155t362 -155q136 -154 136 -435zM861 558q0 217 -79 322.5t-225 105.5q-147 0 -226.5 -105.5t-79.5 -322.5q0 -211 79 -319t227 -108q145 0 224.5 106.5
t79.5 320.5zM871 1676l-273 -374h-149l179 374h243z" />
    <glyph glyph-name="ograve" unicode="&#xa4;" horiz-adv-x="1112" 
d="M1055 558q0 -282 -136 -436q-137 -153 -362 -153q-233 0 -367 158q-133 158 -133 431q0 280 137 435q138 155 363 155t362 -155q136 -154 136 -435zM861 558q0 217 -79 322.5t-225 105.5q-147 0 -226.5 -105.5t-79.5 -322.5q0 -211 79 -319t227 -108q145 0 224.5 106.5
t79.5 320.5zM670 1302h-149l-273 374h243z" />
    <glyph glyph-name="ocircumflex" unicode="&#xa5;" horiz-adv-x="1112" 
d="M1055 558q0 -282 -136 -436q-137 -153 -362 -153q-233 0 -367 158q-133 158 -133 431q0 280 137 435q138 155 363 155t362 -155q136 -154 136 -435zM861 558q0 217 -79 322.5t-225 105.5q-147 0 -226.5 -105.5t-79.5 -322.5q0 -211 79 -319t227 -108q145 0 224.5 106.5
t79.5 320.5zM901 1297h-159l-185 256l-184 -256h-155l228 379h227z" />
    <glyph glyph-name="odieresis" unicode="&#xa7;" horiz-adv-x="1112" 
d="M1055 558q0 -282 -136 -436q-137 -153 -362 -153q-233 0 -367 158q-133 158 -133 431q0 280 137 435q138 155 363 155t362 -155q136 -154 136 -435zM861 558q0 217 -79 322.5t-225 105.5q-147 0 -226.5 -105.5t-79.5 -322.5q0 -211 79 -319t227 -108q145 0 224.5 106.5
t79.5 320.5zM867 1304h-201v195h201v-195zM454 1304h-201v195h201v-195z" />
    <glyph glyph-name="otilde" unicode="&#xa8;" horiz-adv-x="1112" 
d="M1055 558q0 -282 -136 -436q-137 -153 -362 -153q-233 0 -367 158q-133 158 -133 431q0 280 137 435q138 155 363 155t362 -155q136 -154 136 -435zM861 558q0 217 -79 322.5t-225 105.5q-147 0 -226.5 -105.5t-79.5 -322.5q0 -211 79 -319t227 -108q145 0 224.5 106.5
t79.5 320.5zM960 1632q-10 -157 -74 -234.5t-172 -77.5q-52 0 -96 19t-86 59q-45 42 -76.5 63t-62.5 21q-49 0 -68.5 -45t-23.5 -121h-140q8 155 76 232q69 79 169 79q51 0 94 -19.5t86 -57.5q43 -39 77.5 -59.5t63.5 -20.5q47 0 68.5 45t24.5 117h140z" />
    <glyph glyph-name="uacute" unicode="&#xa9;" horiz-adv-x="1142" 
d="M1006 0h-188v124q-44 -38 -84 -67t-81 -48.5t-83.5 -29.5t-90.5 -10q-73 0 -137.5 24t-112.5 76t-74.5 130.5t-26.5 192.5v725h188v-636q0 -89 6.5 -147.5t29.5 -102.5q23 -43 62.5 -63t113.5 -20q69 0 147 39q79 40 143 96v834h188v-1117zM871 1676l-273 -374h-149
l179 374h243z" />
    <glyph glyph-name="ugrave" unicode="&#xaa;" horiz-adv-x="1142" 
d="M1006 0h-188v124q-44 -38 -84 -67t-81 -48.5t-83.5 -29.5t-90.5 -10q-73 0 -137.5 24t-112.5 76t-74.5 130.5t-26.5 192.5v725h188v-636q0 -89 6.5 -147.5t29.5 -102.5q23 -43 62.5 -63t113.5 -20q69 0 147 39q79 40 143 96v834h188v-1117zM687 1302h-149l-273 374h243z
" />
    <glyph glyph-name="ucircumflex" unicode="&#xab;" horiz-adv-x="1142" 
d="M1006 0h-188v124q-44 -38 -84 -67t-81 -48.5t-83.5 -29.5t-90.5 -10q-73 0 -137.5 24t-112.5 76t-74.5 130.5t-26.5 192.5v725h188v-636q0 -89 6.5 -147.5t29.5 -102.5q23 -43 62.5 -63t113.5 -20q69 0 147 39q79 40 143 96v834h188v-1117zM908 1297h-159l-185 256
l-184 -256h-155l228 379h227z" />
    <glyph glyph-name="udieresis" unicode="&#xac;" horiz-adv-x="1142" 
d="M1006 0h-188v124q-44 -38 -84 -67t-81 -48.5t-83.5 -29.5t-90.5 -10q-73 0 -137.5 24t-112.5 76t-74.5 130.5t-26.5 192.5v725h188v-636q0 -89 6.5 -147.5t29.5 -102.5q23 -43 62.5 -63t113.5 -20q69 0 147 39q79 40 143 96v834h188v-1117zM879 1304h-201v195h201v-195z
M466 1304h-201v195h201v-195z" />
    <glyph glyph-name="dagger" unicode="&#xae;" horiz-adv-x="1118" 
d="M983 1034l-363 5l5 -904h-132l5 904l-363 -5v129l363 -5l-5 398h132l-5 -398l363 5v-129z" />
    <glyph glyph-name="degree" unicode="&#xaf;" horiz-adv-x="964" 
d="M863 1135q0 -160 -110 -270t-271 -110q-160 0 -270 109q-111 109 -111 271q0 160 110 270t271 110t271 -110t110 -270zM706 1135q0 97 -64 162q-65 66 -160 66q-96 0 -160 -66q-64 -65 -64 -162q0 -98 65 -163q67 -65 159 -65q95 0 160 66q64 67 64 162z" />
    <glyph glyph-name="cent" unicode="&#xb0;" horiz-adv-x="1118" 
d="M557 2q-108 12 -190.5 55t-138.5 113.5t-85 168t-29 218.5q0 238 118 386t325 172v360h114v-359q88 -3 167.5 -26.5t136.5 -52.5v-200h-10q-62 51 -132 89t-162 51v-836q49 5 98.5 23t83.5 38q36 21 64 41.5t48 37.5h10v-198q-33 -15 -66 -28.5t-69.5 -24.5t-78 -18.5
t-90.5 -10.5v-362h-114v363zM557 146v825q-116 -21 -183 -125.5t-67 -288.5q0 -94 18 -166.5t50.5 -123.5t78.5 -81t103 -40z" />
    <glyph glyph-name="sterling" unicode="&#xb1;" horiz-adv-x="1118" 
d="M1031 0h-942v207q111 33 156 128q46 93 46 278h-161v138h161v320q0 200 116 324q115 123 301 123q48 0 89 -4.5t77 -11t67 -15t60 -17.5v-206h-10q-58 42 -129 64.5t-135 22.5q-124 0 -184 -76.5t-60 -222.5v-301h364v-138h-364v-61q0 -118 -58 -212.5t-164 -157.5v-11
h770v-171z" />
    <glyph glyph-name="section" unicode="&#xb4;" horiz-adv-x="1118" 
d="M759 401q12 18 21.5 34t16 33.5t10 38.5t3.5 48q0 49 -14.5 85t-39.5 59q-24 23 -56 38.5t-74 28.5q-33 10 -77 22.5t-99 30.5q-20 -12 -41.5 -30t-47.5 -51q-10 -13 -19.5 -31t-17 -39t-12 -44t-4.5 -45q0 -80 38 -129q37 -48 146 -81q34 -10 77.5 -23.5t97.5 -30.5
q19 12 44 33t48 53zM182 -133q26 -13 64.5 -29t74.5 -28q23 -8 45 -13t42 -9t45 -6t56 -2q113 0 190 47t77 137q0 54 -18 87.5t-60 59.5q-42 25 -103.5 42.5t-134.5 38.5q-89 25 -147 51q-59 25 -105 69q-45 42 -67 95.5t-22 125.5q0 94 48.5 178t150.5 147v7
q-91 51 -130.5 121t-39.5 161q0 168 128 270q127 102 352 102q43 0 82 -3t75 -10t76 -17.5t85 -26.5v-194h-10q-90 45 -167.5 66t-161.5 21q-113 0 -190 -46q-77 -45 -77 -133q0 -57 20.5 -93t59.5 -59q39 -24 99 -43t138 -39q184 -49 262 -129q79 -78 79 -212
q0 -108 -54.5 -189t-144.5 -135v-7q88 -46 129 -116t41 -164q0 -37 -8 -74t-23.5 -71t-38 -64.5t-51.5 -54.5q-62 -53 -148.5 -82t-209.5 -29q-79 0 -156.5 14t-161.5 44v194h10z" />
    <glyph glyph-name="bullet" unicode="&#xb5;" horiz-adv-x="931" 
d="M817 662q0 -144 -104 -248q-103 -103 -248 -103t-248 103t-103 248t103 248t248 103t248 -103q104 -104 104 -248z" />
    <glyph glyph-name="paragraph" unicode="&#xb6;" horiz-adv-x="1118" 
d="M982 -363h-140v1722h-187v-1722h-140v956q-206 5 -332 129t-126 328q0 208 130 323q131 116 373 116h422v-1852z" />
    <glyph glyph-name="germandbls" unicode="&#xb7;" horiz-adv-x="1123" 
d="M1068 481q0 -218 -135 -362q-135 -143 -351 -143q-12 0 -28.5 1t-34 2.5t-33 3t-26.5 3.5v166h10q28 -8 59 -12.5t61 -4.5q78 0 132 27t87 75q35 51 49.5 111t14.5 141q0 169 -103 248.5t-304 79.5v157q152 0 233.5 57.5t81.5 190.5q0 33 -10 68.5t-34 63.5
q-24 29 -61.5 46.5t-97.5 17.5q-54 0 -96.5 -14.5t-80.5 -54.5q-36 -37 -56.5 -103t-20.5 -160v-1086h-188v1080q0 130 34 218t95 150q60 60 142 89t175 29q169 0 279 -85q112 -85 112 -240q0 -112 -71 -201t-184 -121v-9q82 -18 147 -55.5t110 -91.5t69 -125t24 -157z" />
    <glyph glyph-name="registered" unicode="&#xb8;" horiz-adv-x="1902" 
d="M1816 655q0 -358 -254 -612q-253 -253 -611 -253q-359 0 -612 253t-253 612q0 358 253 611t612 253q358 0 611 -253q254 -254 254 -611zM1701 655q0 313 -220 533q-219 221 -529 221q-309 0 -530 -221q-219 -221 -219 -533q0 -314 219 -534q221 -221 530 -221
q310 0 529 221q220 220 220 534zM1448 215h-227l-283 355h-123v-355h-165v915h279q48 0 84.5 -1.5t63.5 -5.5q55 -8 111 -39q60 -34 87 -82t27 -123q0 -50 -14.5 -90.5t-41 -73t-63 -57.5t-81.5 -43zM1120 868q0 37 -12 64t-42 46q-25 16 -56 21.5t-80 5.5h-115v-309h98
q48 0 90 9.5t68 32.5t37.5 52.5t11.5 77.5z" />
    <glyph glyph-name="copyright" unicode="&#xba;" horiz-adv-x="1902" 
d="M1816 655q0 -358 -254 -612q-253 -253 -611 -253q-359 0 -612 253t-253 612q0 358 253 611t612 253q358 0 611 -253q254 -254 254 -611zM1701 655q0 313 -220 533q-219 221 -529 221q-309 0 -530 -221q-219 -221 -219 -533q0 -314 219 -534q221 -221 530 -221
q310 0 529 221q220 220 220 534zM1274 255q-34 -15 -67 -28.5t-67 -24.5q-66 -22 -158 -22q-209 0 -330 123q-121 124 -121 357q0 229 125 356q124 127 326 127q83 0 159 -22t133 -51v-181h-16q-45 38 -119 72q-78 35 -153 35q-62 0 -111.5 -20.5t-85 -62t-54.5 -104.5
t-19 -149q0 -163 69.5 -248t200.5 -85q84 0 159 36q38 19 66 36.5t47 34.5h16v-179z" />
    <glyph glyph-name="trademark" unicode="&#xbb;" horiz-adv-x="1794" 
d="M1634 785h-124v616h-20l-204 -453h-85l-206 460h-25v-623h-123v704h238l161 -382l161 382h227v-704zM692 1372h-229v-587h-127v587h-229v117h585v-117z" />
    <glyph glyph-name="acute" unicode="&#xbf;" horiz-adv-x="1118" 
d="M871 1676l-273 -374h-149l179 374h243z" />
    <glyph glyph-name="dieresis" unicode="&#xc0;" horiz-adv-x="1118" 
d="M867 1304h-201v195h201v-195zM454 1304h-201v195h201v-195z" />
    <glyph glyph-name="notequal" unicode="&#xc1;" horiz-adv-x="1490" 
d="M1298 362h-568l-105 -335h-153l105 335h-385v156h434l84 268h-518v156h566l105 335h153l-105 -335h387v-156h-436l-83 -268h519v-156z" />
    <glyph glyph-name="AE" unicode="&#xc2;" horiz-adv-x="1870" 
d="M1802 0h-912v557h-505l-217 -557h-207l603 1489h1238v-176h-716v-408h666v-176h-666v-553h716v-176zM890 723v601h-194l-245 -601h439z" />
    <glyph glyph-name="Oslash" unicode="&#xc3;" horiz-adv-x="1449" 
d="M1383 744q0 -368 -180 -572q-180 -203 -479 -203q-111 0 -204.5 28.5t-171.5 82.5l-132 -196h-148l189 278q-91 100 -141 245t-50 337q0 368 180 572q181 204 478 204q114 0 203.5 -27.5t169.5 -82.5l115 171h148l-171 -251q91 -100 142.5 -243.5t51.5 -342.5zM995 1260
q-104 89 -270 89q-208 0 -332 -154q-123 -155 -123 -451q0 -136 25.5 -240t73.5 -180zM1179 744q0 139 -27.5 246t-73.5 179l-628 -937q28 -23 58 -40t63 -28.5t71 -17.5t83 -6q205 0 330 155q124 155 124 449z" />
    <glyph glyph-name="infinity" unicode="&#xc4;" horiz-adv-x="1862" 
d="M1752 663q0 -229 -114 -368q-113 -138 -316 -138q-127 0 -234 80q-107 81 -168 219q-77 -153 -176.5 -226t-236.5 -73q-182 0 -290 137q-107 137 -107 348q0 236 117 371q118 135 313 135q127 0 234 -81q106 -79 168 -218q75 151 176.5 225t236.5 74q182 0 289 -137
q108 -137 108 -348zM873 729q-60 117 -144.5 175.5t-174.5 58.5q-132 0 -203 -81.5t-71 -239.5q0 -71 16 -126.5t46 -94t72.5 -58.5t95.5 -20q85 0 143 37q57 36 124 154q25 45 49.5 92.5t46.5 102.5zM1582 663q0 72 -16.5 127.5t-46.5 94t-72.5 58t-94.5 19.5
q-88 0 -145 -39t-123 -152q-17 -28 -30 -52t-23 -46q-10 -21 -20.5 -45t-21.5 -52q29 -58 65.5 -102t78 -73t86 -44t89.5 -15q132 0 203 81t71 240z" />
    <glyph glyph-name="plusminus" unicode="&#xc5;" horiz-adv-x="1490" 
d="M1328 159h-1166v158h500v422h-500v158h500v505h166v-505h500v-158h-500v-422h500v-158z" />
    <glyph glyph-name="lessequal" unicode="&#xc6;" horiz-adv-x="1490" 
d="M1275 305l-1074 483v120l1074 483v-181l-812 -362l812 -362v-181zM1275 0h-1074v160h1074v-160z" />
    <glyph glyph-name="greaterequal" unicode="&#xc7;" horiz-adv-x="1490" 
d="M1289 788l-1074 -483v181l812 362l-812 362v181l1074 -483v-120zM1289 0h-1074v160h1074v-160z" />
    <glyph glyph-name="yen" unicode="&#xc8;" horiz-adv-x="1118" 
d="M1059 1489l-408 -811v-100h342v-138h-340v-440h-188v440h-340v138h342v79l-411 832h210l294 -639l298 639h201z" />
    <glyph glyph-name="mu1" unicode="&#xc9;" horiz-adv-x="1163" 
d="M1027 0h-172v116h-6q-30 -32 -60 -56.5t-61 -41.5q-61 -35 -150 -35q-92 0 -145 35t-109 97v-527h-188v1529h188v-842q42 -51 104.5 -81t149.5 -30q90 0 151.5 29t109.5 82v842h188v-1117z" />
    <glyph glyph-name="partialdiff" unicode="&#xca;" horiz-adv-x="1118" 
d="M1033 837q0 -69 -7.5 -154t-25.5 -170t-47.5 -169.5t-74.5 -153.5q-41 -62 -85.5 -104t-93 -68t-100 -37.5t-105.5 -11.5q-191 0 -309 123q-118 124 -118 332q0 229 130 372q130 145 327 145q87 0 163 -26t151 -91q2 26 2.5 53t0.5 58q0 216 -75 317.5t-221 101.5
q-79 0 -165 -30.5t-162 -87.5h-13v194q80 44 179 66q103 23 188 23q141 0 236.5 -56t155.5 -177q20 -43 34 -90.5t21 -100.5t10.5 -117t3.5 -141zM832 678q-57 46 -129.5 73.5t-142.5 27.5q-134 0 -214 -89q-79 -88 -79 -263q0 -73 16.5 -129t47 -93.5t73.5 -56.5t96 -19
q143 0 230 143q87 142 102 406z" />
    <glyph glyph-name="summation" unicode="&#xcb;" horiz-adv-x="1303" 
d="M1228 -189h-1102v191l626 668l-616 631v188h1053v-176h-807l601 -598v-72l-628 -656h873v-176z" />
    <glyph glyph-name="product" unicode="&#xcc;" horiz-adv-x="1393" 
d="M1237 1489v-1678h-198v1502h-685v-1502h-198v1678h1081z" />
    <glyph glyph-name="pi1" unicode="&#xcd;" horiz-adv-x="1154" 
d="M1018 0h-188v955h-506v-955h-188v1117h882v-1117z" />
    <glyph glyph-name="integral" unicode="&#xce;" horiz-adv-x="1118" 
d="M1048 1369h-10q-29 10 -81 18q-51 9 -80 9q-127 0 -176 -60q-48 -59 -48 -211v-1123q0 -211 -106 -317q-105 -108 -283 -108q-48 0 -93.5 4.5t-96.5 14.5v178h10q19 -6 40 -10.5t42 -8.5t40.5 -6t34.5 -2q127 0 175 60q49 58 49 211v1123q0 210 105 317q105 108 284 108
q58 0 105 -5.5t89 -13.5v-178z" />
    <glyph glyph-name="ordfeminine" unicode="&#xcf;" horiz-adv-x="1010" 
d="M874 566h-166v91q-9 -8 -22.5 -18t-28.5 -20.5t-31.5 -20.5t-31.5 -17q-41 -20 -81 -30q-37 -10 -109 -10q-124 0 -207 83q-83 85 -83 215q0 104 43 169.5t123 103.5q75 36 189 51t239 21v19q0 52 -16.5 84t-48.5 50q-29 17 -72 22.5t-89 5.5q-78 0 -159 -24
q-40 -11 -69.5 -20.5t-49.5 -16.5h-15v170q22 7 54.5 14t76.5 15q86 16 163 16q192 0 291.5 -76.5t99.5 -248.5v-628zM708 802v243q-32 -2 -70 -5t-81 -7q-84 -7 -137 -23q-60 -17 -97 -55.5t-37 -105.5q0 -75 43.5 -114t131.5 -39q76 0 136 33q63 34 111 73z" />
    <glyph glyph-name="ordmasculine" unicode="&#xd1;" horiz-adv-x="1010" 
d="M926 1030q0 -235 -117 -362q-117 -128 -303 -128q-193 0 -307 131q-114 132 -114 359q0 233 117 361q117 129 304 129q188 0 303 -127q117 -128 117 -363zM746 1030q0 173 -64.5 256.5t-175.5 83.5q-56 0 -100.5 -20.5t-75.5 -62.5t-48 -106t-17 -151q0 -170 63.5 -255
t177.5 -85q111 0 175.5 85.5t64.5 254.5z" />
    <glyph glyph-name="Ohm" unicode="&#xd2;" horiz-adv-x="1438" 
d="M1403 0h-559v387q61 38 120.5 83t99.5 102q45 62 68 133q24 70 24 188q0 96 -26.5 179.5t-80.5 144.5t-136 96.5t-190 35.5q-109 0 -191 -35t-140 -98q-27 -29 -47.5 -65.5t-34.5 -78.5t-21 -87.5t-7 -91.5q0 -109 26 -187t71 -135t104 -101.5t119 -82.5v-387h-559v174
h393v124q-73 42 -137.5 101.5t-115.5 134.5q-51 76 -79 166t-28 193q0 140 43.5 250t128.5 198q40 42 92 75t112.5 56t128.5 35.5t142 12.5q149 0 268 -46.5t203 -131.5q82 -85 125 -198.5t43 -250.5q0 -103 -27 -193t-75 -165t-111.5 -134.5t-138.5 -102.5v-124h393v-174z
" />
    <glyph glyph-name="ae" unicode="&#xd3;" horiz-adv-x="1802" 
d="M817 298q-19 54 -29 119.5t-10 140.5q-48 -2 -96 -3.5t-94 -5t-89 -10t-80 -16.5t-68 -26.5t-53 -40t-34.5 -55t-12.5 -71.5q0 -188 223 -188q90 0 184 44q91 43 159 112zM1340 138q66 0 126 14.5t106 35.5q51 23 86 44.5t58 40.5h11v-205q-17 -7 -37.5 -15t-45.5 -18
q-51 -20 -88 -30q-28 -8 -52.5 -13.5t-47.5 -9.5q-46 -8 -114 -8q-162 0 -276 52t-189 155q-11 -10 -27 -25t-38 -35t-44.5 -37t-46.5 -31q-65 -38 -135 -60q-67 -22 -179 -22q-147 0 -248 97q-101 98 -101 249q0 64 13.5 114.5t39.5 89.5t64 67.5t86 49.5q90 38 231 52
q70 7 143 10.5t151 5.5v58q0 66 -21.5 108.5t-60.5 66.5q-36 22 -87 31.5t-117 9.5q-81 0 -177 -27q-96 -26 -152 -51h-15v191q51 14 151 33q52 10 100 15t94 5q160 0 260 -48t153 -136q65 80 165 133t217 53q224 0 338 -135q115 -133 115 -372v-82h-788q0 -115 29.5 -196
t83.5 -132t120.5 -72t145.5 -21zM1567 703q-5 60 -20.5 113t-47.5 92q-31 38 -85 61.5t-127 23.5q-78 0 -129.5 -21t-94.5 -63q-40 -38 -64.5 -92t-34.5 -114h603z" />
    <glyph glyph-name="oslash" unicode="&#xd4;" horiz-adv-x="1112" 
d="M1055 558q0 -283 -136 -435q-137 -153 -362 -153q-79 0 -145 20.5t-124 56.5l-123 -194h-124l168 261q-72 76 -112 186.5t-40 257.5q0 279 137 434q138 155 363 155q75 0 142 -20t124 -57l108 170h125l-152 -236q71 -77 111 -186t40 -260zM735 932q-34 26 -77.5 40
t-100.5 14q-148 0 -228.5 -107t-80.5 -321q0 -97 14.5 -169.5t43.5 -126.5zM864 558q0 100 -14.5 173.5t-42.5 124.5l-429 -669q38 -29 79.5 -42.5t99.5 -13.5q145 0 226 106.5t81 320.5z" />
    <glyph glyph-name="questiondown" unicode="&#xd5;" horiz-adv-x="970" 
d="M632 1278h-204v211h204v-211zM861 40q-79 -30 -166.5 -50t-195.5 -20q-204 0 -323 104q-118 105 -118 276q0 94 29.5 168t89.5 141q54 60 123 107t144 95v228h179v-305q-71 -43 -131.5 -81t-115.5 -89q-51 -48 -82.5 -109t-31.5 -140q0 -113 71 -169q70 -55 185 -55
q101 0 191 34q91 34 141 69h11v-204z" />
    <glyph glyph-name="exclamdown" unicode="&#xd6;" horiz-adv-x="680" 
d="M442 1278h-204v211h204v-211zM452 0h-224l28 1079h166z" />
    <glyph glyph-name="logicalnot" unicode="&#xd8;" horiz-adv-x="1490" 
d="M1323 57h-171v545h-995v160h1166v-705z" />
    <glyph glyph-name="radical" unicode="&#xd9;" horiz-adv-x="1490" 
d="M1554 1789l-790 -1940h-104l-342 993h-237v139h393l265 -797l653 1605h162z" />
    <glyph glyph-name="florin" unicode="&#xda;" horiz-adv-x="1118" 
d="M1087 1320h-10q-14 5 -33.5 10.5t-45.5 12.5q-53 14 -89 14q-113 0 -162 -61q-50 -60 -72 -213l-29 -199h292v-138h-310l-70 -511q-16 -116 -50.5 -198.5t-87 -135.5t-124 -78t-161.5 -25q-39 0 -86 4.5t-98 13.5v181h10q14 -5 33 -10.5t44 -12.5q51 -14 91 -14
q112 0 163 61q52 62 71 213l72 512h-178v138h196l27 198q17 124 54 206.5t92 136.5q52 49 125.5 71.5t151.5 22.5q25 0 47 -1t44 -3.5t44.5 -6t48.5 -7.5v-181z" />
    <glyph glyph-name="approxequal" unicode="&#xdb;" horiz-adv-x="1490" 
d="M1298 1104q-19 -195 -100.5 -293.5t-235.5 -98.5q-70 0 -137 37q-34 19 -64 39.5t-56 43.5q-14 12 -36.5 28.5t-54.5 36.5q-62 41 -105 41q-72 0 -105 -47t-59 -172h-155q21 181 104 279t233 98q67 0 134 -37q70 -37 123 -82q18 -15 41.5 -32t52.5 -37q59 -38 102 -38
q34 0 60.5 13t45.5 41t32.5 72.5t22.5 107.5h157zM1299 588q-12 -93 -37 -163.5t-66 -118.5t-99 -72.5t-136 -24.5q-67 0 -135 37q-34 19 -64.5 39.5t-57.5 43.5q-36 30 -95 68t-101 38q-36 0 -62.5 -13.5t-45 -42t-31.5 -72.5t-22 -105h-157q17 193 101.5 292t234.5 99
q70 0 138 -38q69 -38 119 -81q16 -13 38.5 -30t51.5 -37q58 -40 106 -40q69 0 104 50q17 25 31.5 67.5t27.5 103.5h157z" />
    <glyph glyph-name="Delta" unicode="&#xdc;" horiz-adv-x="1268" 
d="M1278 0h-1288l522 1489h244zM1010 172l-381 1120l-380 -1120h761z" />
    <glyph glyph-name="guillemotleft" unicode="&#xdf;" horiz-adv-x="1174" 
d="M1043 191l-488 419v85l488 418v-188l-317 -273l317 -273v-188zM613 162l-510 446v89l510 445v-196l-331 -294l331 -294v-196z" />
    <glyph glyph-name="guillemotright" unicode="&#xe0;" horiz-adv-x="1174" 
d="M1071 608l-510 -446v196l331 294l-331 294v196l510 -445v-89zM619 610l-488 -419v188l317 273l-317 273v188l488 -418v-85z" />
    <glyph glyph-name="ellipsis" unicode="&#xe1;" horiz-adv-x="1674" 
d="M1497 0h-204v223h204v-223zM939 0h-204v223h204v-223zM381 0h-204v223h204v-223z" />
    <glyph glyph-name="Agrave" unicode="&#xe2;" horiz-adv-x="1228" 
d="M-10 0l502 1489h244l502 -1489h-209l-135 416h-569l-135 -416h-200zM839 585l-230 702l-229 -702h459zM769 1675h-149l-273 374h243z" />
    <glyph glyph-name="Atilde" unicode="&#xe3;" horiz-adv-x="1228" 
d="M-10 0l502 1489h244l502 -1489h-209l-135 416h-569l-135 -416h-200zM839 585l-230 702l-229 -702h459zM1010 1965q-10 -157 -74 -234.5t-172 -77.5q-52 0 -96 19t-86 59q-45 42 -76.5 63t-62.5 21q-49 0 -68.5 -45t-23.5 -121h-140q8 155 76 232q69 79 169 79
q51 0 94 -19.5t86 -57.5q43 -39 77.5 -59.5t63.5 -20.5q47 0 68.5 45t24.5 117h140z" />
    <glyph glyph-name="Otilde" unicode="&#xe4;" horiz-adv-x="1449" 
d="M1204 1318q85 -99 132 -243t47 -331q0 -182 -45.5 -327t-133.5 -245q-91 -105 -212 -154t-268 -49q-152 0 -272 50.5t-208 152.5q-87 100 -132.5 244t-45.5 328q0 189 46 330t133 244q87 100 207.5 151t271.5 51q153 0 274 -52.5t206 -149.5zM1177 744q0 149 -32 262.5
t-90 188.5q-60 78 -142.5 116t-187.5 38q-109 0 -188.5 -37.5t-142.5 -116.5q-60 -76 -91 -190.5t-31 -260.5q0 -293 123 -449q123 -155 330 -155t329 155q123 156 123 449zM1110 1985q-10 -157 -74 -234.5t-172 -77.5q-52 0 -96 19t-86 59q-45 42 -76.5 63t-62.5 21
q-49 0 -68.5 -45t-23.5 -121h-140q8 155 76 232q69 79 169 79q51 0 94 -19.5t86 -57.5q43 -39 77.5 -59.5t63.5 -20.5q47 0 68.5 45t24.5 117h140z" />
    <glyph glyph-name="OE" unicode="&#xe5;" horiz-adv-x="2000" 
d="M1932 0h-1031q-93 0 -169 6.5t-139 19.5q-123 25 -225 92q-145 96 -223.5 253.5t-78.5 374.5q0 209 84 370q86 162 221 253q88 60 209 90t319 30h1033v-176h-723v-408h673v-176h-673v-553h723v-176zM1012 171v1147h-119q-75 0 -134.5 -6t-107.5 -17q-92 -22 -172 -75
q-207 -137 -207 -477q0 -173 57 -293.5t169 -189.5q42 -25 85 -42.5t88 -27.5q89 -19 220 -19h121z" />
    <glyph glyph-name="oe" unicode="&#xe6;" horiz-adv-x="1861" 
d="M1625 683q-4 158 -70.5 234t-202.5 76q-129 0 -215 -82q-86 -83 -98 -228h586zM856 558q0 217 -78.5 322.5t-223.5 105.5q-149 0 -226 -110t-77 -318q0 -211 78 -319t225 -108q144 0 223 107.5t79 319.5zM1403 138q63 0 122 14t107 36q51 23 86 44.5t58 40.5h11v-205
q-17 -7 -37 -15l-45 -18q-51 -20 -88 -30q-28 -8 -52.5 -13.5t-47.5 -9.5q-46 -8 -112 -8q-148 0 -264.5 52.5t-188.5 152.5q-67 -103 -164 -156.5t-234 -53.5q-230 0 -364 158q-133 157 -133 431q0 278 135 434t362 156q132 0 235 -54.5t167 -156.5q67 102 172 156.5
t235 54.5q215 0 330 -133t115 -374v-102h-769q0 -194 97 -297q98 -104 267 -104z" />
    <glyph glyph-name="endash" unicode="&#xe7;" horiz-adv-x="1118" 
d="M1122 572h-1126v160h1126v-160z" />
    <glyph glyph-name="emdash" unicode="&#xe8;" horiz-adv-x="1862" 
d="M1866 572h-1870v160h1870v-160z" />
    <glyph glyph-name="quotedblleft" unicode="&#xe9;" horiz-adv-x="822" 
d="M725 997h-134l-261 559h238zM331 997h-134l-261 559h238z" />
    <glyph glyph-name="quotedblright" unicode="&#xea;" horiz-adv-x="822" 
d="M896 1556l-261 -559h-134l157 559h238zM502 1556l-261 -559h-134l157 559h238z" />
    <glyph glyph-name="quoteleft" unicode="&#xeb;" horiz-adv-x="432" 
d="M335 997h-138l-261 559h242z" />
    <glyph glyph-name="quoteright" unicode="&#xec;" horiz-adv-x="432" 
d="M496 1556l-261 -559h-138l157 559h242z" />
    <glyph glyph-name="divide" unicode="&#xed;" horiz-adv-x="1490" 
d="M864 1012h-238v275h238v-275zM1333 572h-1176v160h1176v-160zM864 17h-238v275h238v-275z" />
    <glyph glyph-name="lozenge" unicode="&#xee;" horiz-adv-x="1490" 
d="M1371 654l-626 -710l-626 710l626 710zM1153 654l-408 476l-408 -476l408 -474z" />
    <glyph glyph-name="ydieresis" unicode="&#xef;" horiz-adv-x="1020" 
d="M1014 1117l-601 -1529h-201l200 466l-406 1063h203l305 -827l304 827h196zM839 1304h-201v195h201v-195zM426 1304h-201v195h201v-195z" />
    <glyph glyph-name="Ydieresis" unicode="&#xf1;" horiz-adv-x="1180" 
d="M1193 1489l-503 -830v-659h-198v638l-503 851h220l384 -657l390 657h210zM900 1677h-201v195h201v-195zM487 1677h-201v195h201v-195z" />
    <glyph glyph-name="fraction" unicode="&#xf2;" horiz-adv-x="886" 
d="M916 1489l-780 -1489h-165l780 1489h165z" />
    <glyph glyph-name="Euro" unicode="&#xf3;" horiz-adv-x="1118" 
d="M945 662l-27 -138h-620q44 -170 146 -268q115 -112 290 -112q187 0 324 92h14v-193q-168 -70 -339 -70q-274 0 -444 158q-153 141 -203 393h-114l28 138h69q-3 40 -3 81v28.5t1 28.5h-95l28 138h83q46 262 207 414q175 164 446 164q177 0 336 -71v-195h-16
q-140 97 -322 97q-184 0 -302 -123q-101 -107 -140 -286h709l-27 -138h-700q-1 -14 -1.5 -28.5t-0.5 -28.5q0 -41 3 -81h670z" />
    <glyph glyph-name="guilsinglleft" unicode="&#xf4;" horiz-adv-x="784" 
d="M633 172l-510 436v89l510 435v-199l-331 -281l331 -281v-199z" />
    <glyph glyph-name="guilsinglright" unicode="&#xf5;" horiz-adv-x="784" 
d="M661 608l-510 -436v199l331 281l-331 281v199l510 -435v-89z" />
    <glyph glyph-name="fi" unicode="&#xf6;" horiz-adv-x="1092" 
d="M954 0h-188v964h-422v-964h-188v961h-127v156h127v57q0 183 97 287q97 105 250 105q52 0 94.5 -5.5t70.5 -9.5v-172h-10q-16 6 -53 14.5t-79 8.5q-53 0 -88.5 -13.5t-58 -41t-32 -70.5t-9.5 -102v-58h616v-1117zM954 1304h-202v195h202v-195z" />
    <glyph glyph-name="fl" unicode="&#xf7;" horiz-adv-x="1086" 
d="M948 0h-188v1404q-14 2 -30.5 3t-36.5 2t-35.5 1.5t-27.5 0.5q-163 0 -227 -54q-65 -53 -65 -193v-47h243v-156h-237v-961h-188v961h-127v156h127v49q0 103 32 177t90 125q55 48 142.5 73t187.5 25q30 0 63 -1.5t68 -5.5t63 -6.5t48 -4.5l98 8v-1556z" />
    <glyph glyph-name="daggerdbl" unicode="&#xf8;" horiz-adv-x="1118" 
d="M983 507l-363 5l5 -388h-132l5 388l-363 -5v129l363 -5v418l-363 -5v129l363 -5l-5 388h132l-5 -388l363 5v-129l-363 5v-418l363 5v-129z" />
    <glyph glyph-name="glyph194" unicode="&#xf9;" horiz-adv-x="620" 
d="M429 516h-239v273h239v-273z" />
    <glyph glyph-name="quotesinglbase" unicode="&#xfa;" horiz-adv-x="432" 
d="M386 283l-261 -559h-138l157 559h242z" />
    <glyph glyph-name="quotedblbase" unicode="&#xfb;" horiz-adv-x="814" 
d="M781 283l-261 -559h-134l157 559h238zM387 283l-261 -559h-134l157 559h238z" />
    <glyph glyph-name="perthousand" unicode="&#xfc;" horiz-adv-x="2848" 
d="M807 1076q0 -225 -90.5 -333.5t-261.5 -108.5q-174 0 -263.5 110t-89.5 331q0 224 91 333t262 109q174 0 263 -110t89 -331zM1473 1489l-780 -1489h-165l780 1489h165zM1897 413q0 -225 -90.5 -333.5t-261.5 -108.5q-174 0 -263.5 110t-89.5 331q0 224 91 333t262 109
q174 0 263 -110t89 -331zM629 1076q0 152 -36 230q-35 78 -138 78t-139 -79q-36 -80 -36 -230q0 -151 34 -229q34 -79 141 -79q104 0 138 79q36 79 36 230zM1719 413q0 152 -36 230q-35 78 -138 78t-139 -79q-36 -80 -36 -230q0 -151 34 -229q34 -79 141 -79q104 0 138 79
q36 79 36 230zM2741 413q0 -225 -90.5 -333.5t-261.5 -108.5q-174 0 -263.5 110t-89.5 331q0 224 91 333t262 109q174 0 263 -110t89 -331zM2563 413q0 152 -36 230q-35 78 -138 78t-139 -79q-36 -80 -36 -230q0 -151 34 -229q34 -79 141 -79q104 0 138 79q36 79 36 230z
" />
    <glyph glyph-name="Acircumflex" unicode="&#xff;" horiz-adv-x="1228" 
d="M-10 0l502 1489h244l502 -1489h-209l-135 416h-569l-135 -416h-200zM839 585l-230 702l-229 -702h459zM940 1650h-159l-185 256l-184 -256h-155l228 379h227z" />
    <glyph glyph-name="Ecircumflex" unicode="&#x2260;" horiz-adv-x="1149" 
d="M151 0v1489h931v-176h-733v-408h683v-176h-683v-553h733v-176h-931zM961 1670h-159l-185 256l-184 -256h-155l228 379h227z" />
    <glyph glyph-name="Aacute" unicode="&#x20a0;" horiz-adv-x="1228" 
d="M-10 0l502 1489h244l502 -1489h-209l-135 416h-569l-135 -416h-200zM839 585l-230 702l-229 -702h459zM871 2049l-273 -374h-149l179 374h243z" />
    <glyph glyph-name="Edieresis" unicode="&#x160;" horiz-adv-x="1149" 
d="M151 0v1489h931v-176h-733v-408h683v-176h-683v-553h733v-176h-931zM966 1677h-201v195h201v-195zM553 1677h-201v195h201v-195z" />
    <glyph glyph-name="Egrave" unicode="&#x161;" horiz-adv-x="1149" 
d="M151 0v1489h931v-176h-733v-408h683v-176h-683v-553h733v-176h-931zM754 1675h-149l-273 374h243z" />
    <glyph glyph-name="Iacute" unicode="&#xa6;" horiz-adv-x="764" 
d="M671 0h-578v152h190v1185h-190v152h578v-152h-190v-1185h190v-152zM667 2049l-273 -374h-149l179 374h243z" />
    <glyph glyph-name="Icircumflex" unicode="&#xb2;" horiz-adv-x="764" 
d="M671 0h-578v152h190v1185h-190v152h578v-152h-190v-1185h190v-152zM735 1670h-159l-185 256l-184 -256h-155l228 379h227z" />
    <glyph glyph-name="Idieresis" unicode="&#xb3;" horiz-adv-x="764" 
d="M671 0h-578v152h190v1185h-190v152h578v-152h-190v-1185h190v-152zM700 1677h-201v195h201v-195zM287 1677h-201v195h201v-195z" />
    <glyph glyph-name="Igrave" unicode="&#xb9;" horiz-adv-x="764" 
d="M671 0h-578v152h190v1185h-190v152h578v-152h-190v-1185h190v-152zM539 1675h-149l-273 374h243z" />
    <glyph glyph-name="Oacute" unicode="&#xbc;" horiz-adv-x="1449" 
d="M1204 1318q85 -99 132 -243t47 -331q0 -182 -45.5 -327t-133.5 -245q-91 -105 -212 -154t-268 -49q-152 0 -272 50.5t-208 152.5q-87 100 -132.5 244t-45.5 328q0 189 46 330t133 244q87 100 207.5 151t271.5 51q153 0 274 -52.5t206 -149.5zM1177 744q0 149 -32 262.5
t-90 188.5q-60 78 -142.5 116t-187.5 38q-109 0 -188.5 -37.5t-142.5 -116.5q-60 -76 -91 -190.5t-31 -260.5q0 -293 123 -449q123 -155 330 -155t329 155q123 156 123 449zM1002 2049l-273 -374h-149l179 374h243z" />
    <glyph glyph-name="Ocircumflex" unicode="&#xbd;" horiz-adv-x="1449" 
d="M1204 1318q85 -99 132 -243t47 -331q0 -182 -45.5 -327t-133.5 -245q-91 -105 -212 -154t-268 -49q-152 0 -272 50.5t-208 152.5q-87 100 -132.5 244t-45.5 328q0 189 46 330t133 244q87 100 207.5 151t271.5 51q153 0 274 -52.5t206 -149.5zM1177 744q0 149 -32 262.5
t-90 188.5q-60 78 -142.5 116t-187.5 38q-109 0 -188.5 -37.5t-142.5 -116.5q-60 -76 -91 -190.5t-31 -260.5q0 -293 123 -449q123 -155 330 -155t329 155q123 156 123 449zM1055 1670h-159l-185 256l-184 -256h-155l228 379h227z" />
    <glyph glyph-name="Ograve" unicode="&#xbe;" horiz-adv-x="1449" 
d="M1204 1318q85 -99 132 -243t47 -331q0 -182 -45.5 -327t-133.5 -245q-91 -105 -212 -154t-268 -49q-152 0 -272 50.5t-208 152.5q-87 100 -132.5 244t-45.5 328q0 189 46 330t133 244q87 100 207.5 151t271.5 51q153 0 274 -52.5t206 -149.5zM1177 744q0 149 -32 262.5
t-90 188.5q-60 78 -142.5 116t-187.5 38q-109 0 -188.5 -37.5t-142.5 -116.5q-60 -76 -91 -190.5t-31 -260.5q0 -293 123 -449q123 -155 330 -155t329 155q123 156 123 449zM851 1675h-149l-273 374h243z" />
    <glyph glyph-name="Uacute" unicode="&#xd0;" horiz-adv-x="1343" 
d="M671 -31q-132 0 -229.5 34t-166.5 103q-39 39 -66 85t-44 101.5t-24.5 121.5t-7.5 146v929h198v-929q0 -51 3 -94t10 -79.5t19.5 -67.5t31.5 -59q40 -60 108 -91t168 -31q94 0 165.5 31t111.5 91q18 28 30.5 59t20 67t10.5 77.5t3 91.5v934h198v-929q0 -155 -31.5 -266
t-110.5 -188q-71 -69 -165.5 -103t-231.5 -34zM995 2049l-273 -374h-149l179 374h243z" />
    <glyph glyph-name="Ucircumflex" unicode="&#xd7;" horiz-adv-x="1343" 
d="M671 -31q-132 0 -229.5 34t-166.5 103q-39 39 -66 85t-44 101.5t-24.5 121.5t-7.5 146v929h198v-929q0 -51 3 -94t10 -79.5t19.5 -67.5t31.5 -59q40 -60 108 -91t168 -31q94 0 165.5 31t111.5 91q18 28 30.5 59t20 67t10.5 77.5t3 91.5v934h198v-929q0 -155 -31.5 -266
t-110.5 -188q-71 -69 -165.5 -103t-231.5 -34zM1006 1670h-159l-185 256l-184 -256h-155l228 379h227z" />
    <glyph glyph-name="Ugrave" unicode="&#xdd;" horiz-adv-x="1343" 
d="M671 -31q-132 0 -229.5 34t-166.5 103q-39 39 -66 85t-44 101.5t-24.5 121.5t-7.5 146v929h198v-929q0 -51 3 -94t10 -79.5t19.5 -67.5t31.5 -59q40 -60 108 -91t168 -31q94 0 165.5 31t111.5 91q18 28 30.5 59t20 67t10.5 77.5t3 91.5v934h198v-929q0 -155 -31.5 -266
t-110.5 -188q-71 -69 -165.5 -103t-231.5 -34zM854 1675h-149l-273 374h243z" />
    <glyph glyph-name="dotlessi" unicode="&#xde;" horiz-adv-x="468" 
d="M328 0h-188v1117h188v-1117z" />
    <glyph glyph-name="circumflex" unicode="&#xf0;" horiz-adv-x="1118" 
d="M901 1297h-159l-185 256l-184 -256h-155l228 379h227z" />
    <glyph glyph-name="tilde" unicode="&#xfd;" horiz-adv-x="1118" 
d="M960 1632q-10 -157 -74 -234.5t-172 -77.5q-52 0 -96 19t-86 59q-45 42 -76.5 63t-62.5 21q-49 0 -68.5 -45t-23.5 -121h-140q8 155 76 232q69 79 169 79q51 0 94 -19.5t86 -57.5q43 -39 77.5 -59.5t63.5 -20.5q47 0 68.5 45t24.5 117h140z" />
    <glyph glyph-name="glyph216" unicode="&#xfe;" horiz-adv-x="1118" 
d="M936 1335h-754v154h754v-154z" />
    <glyph glyph-name="breve" unicode="&#x25cc;" horiz-adv-x="1079" 
d="M643 43q0 20 13.5 35.5t33.5 15.5q21 0 35 -15.5t14 -35.5t-14 -33.5t-35 -13.5q-20 0 -33.5 13.5t-13.5 33.5zM645 944q0 21 14.5 36t34.5 15q21 0 35 -15t14 -36q0 -20 -14 -33.5t-35 -13.5q-20 0 -34.5 13.5t-14.5 33.5zM618 76q0 -21 -14 -34t-35 -13q-20 0 -34.5 13
t-14.5 34q0 20 14.5 34.5t34.5 14.5q21 0 35 -14.5t14 -34.5zM516 150q0 -21 -14.5 -35.5t-34.5 -14.5q-21 0 -35 14.5t-14 35.5q0 20 14 34.5t35 14.5q20 0 34.5 -14.5t14.5 -34.5zM446 258q0 -20 -14 -34.5t-35 -14.5q-20 0 -34.5 14.5t-14.5 34.5q0 21 14.5 35t34.5 14
q21 0 35 -14t14 -35zM408 375q0 -21 -14.5 -35t-35.5 -14q-20 0 -34.5 14t-14.5 35q0 20 14.5 34.5t34.5 14.5q21 0 35.5 -14.5t14.5 -34.5zM399 494q0 -21 -14 -34.5t-35 -13.5q-20 0 -34.5 13.5t-14.5 34.5q0 20 14.5 35.5t34.5 15.5q21 0 35 -15.5t14 -35.5zM408 612
q0 -20 -14.5 -34.5t-35.5 -14.5q-20 0 -34.5 14.5t-14.5 34.5q0 21 14.5 35.5t34.5 14.5q21 0 35.5 -14.5t14.5 -35.5zM449 729q0 -20 -14.5 -34.5t-35.5 -14.5q-20 0 -34.5 14.5t-14.5 34.5q0 21 14.5 35t34.5 14q21 0 35.5 -14t14.5 -35zM514 838q0 -21 -14.5 -35.5
t-34.5 -14.5q-21 0 -34 14.5t-13 35.5q0 20 13 34.5t34 14.5q20 0 34.5 -14.5t14.5 -34.5zM616 913q0 -20 -14 -33.5t-35 -13.5q-20 0 -34.5 13.5t-14.5 33.5q0 21 14.5 36.5t34.5 15.5q21 0 35 -15.5t14 -36.5zM762 76q0 20 14.5 34.5t34.5 14.5t34.5 -14.5t14.5 -34.5
q0 -21 -14.5 -34t-34.5 -13t-34.5 13t-14.5 34zM864 150q0 20 14.5 34.5t34.5 14.5q21 0 35.5 -14.5t14.5 -34.5q0 -21 -14.5 -35.5t-35.5 -14.5q-20 0 -34.5 14.5t-14.5 35.5zM934 258q0 21 14.5 35t34.5 14q21 0 35 -14t14 -35q0 -20 -14 -34.5t-35 -14.5
q-20 0 -34.5 14.5t-14.5 34.5zM973 375q0 20 14 34.5t35 14.5q20 0 34.5 -14.5t14.5 -34.5q0 -21 -14.5 -35t-34.5 -14q-21 0 -35 14t-14 35zM981 494q0 20 14.5 35.5t34.5 15.5q21 0 35 -15.5t14 -35.5q0 -21 -14 -34.5t-35 -13.5q-20 0 -34.5 13.5t-14.5 34.5zM973 612
q0 21 14 35.5t35 14.5q20 0 34.5 -14.5t14.5 -35.5q0 -20 -14.5 -34.5t-34.5 -14.5q-21 0 -35 14.5t-14 34.5zM932 729q0 21 14.5 35t34.5 14t34.5 -14t14.5 -35q0 -20 -14.5 -34.5t-34.5 -14.5t-34.5 14.5t-14.5 34.5zM866 838q0 20 13.5 33.5t33.5 13.5q21 0 36.5 -13.5
t15.5 -33.5q0 -21 -15.5 -35.5t-36.5 -14.5q-20 0 -33.5 14.5t-13.5 35.5zM766 913q0 21 13.5 36.5t33.5 15.5q21 0 35 -15.5t14 -36.5q0 -20 -14 -33.5t-35 -13.5q-20 0 -33.5 13.5t-13.5 33.5z" />
    <glyph glyph-name="dotaccent" unicode="&#x200b;" 
 />
    <glyph glyph-name="ring" unicode="&#x200c;" horiz-adv-x="63" 
d="M0 0v1610h63v-1610h-63z" />
    <glyph glyph-name="cedilla" unicode="&#x200d;" horiz-adv-x="61" 
d="M184 1499l-123 123v-1622h-61v1620l-118 -121l-41 45l151 152l-151 151l41 45l151 -153l151 153l43 -45l-153 -151l153 -152z" />
    <glyph glyph-name="hungarumlaut" unicode="&#x1780;" horiz-adv-x="1321" 
d="M458 944q-48 8 -145 72l-44 32l-8 36q0 28 18 66q8 19 17.5 36.5t20.5 34.5l137 184q91 0 189 -48q52 -24 92 -52q20 -14 45 -35t55 -49q24 0 120 84t149 92q49 0 101 -64q32 -41 68 -60l16 -8q40 0 60 12q0 -72 -36 -127q-38 -54 -96 -58q-52 12 -121 81l-60 60
q-49 -8 -136 -89l-81 -80q-125 100 -245 153q-30 10 -59 17t-57 11q-72 -113 -81 -157l21 -24q60 -64 136 -88l121 28q67 12 164 12h44q110 0 181 -20q127 -36 209 -121v-875h-157v839q-54 29 -151 54q-95 27 -154 27q-37 0 -74 -6q-38 -6 -103 -39l-68 -44v-831h-160v875
l12 20q19 25 60 49z" />
    <glyph glyph-name="ogonek" 
d="M-236 -722v325q0 41 -97 72q-96 24 -181 24q-76 0 -160 -24t-84 -72v-325h-161v325q0 104 129 157q122 52 276 52q173 0 302 -48q128 -50 128 -161v-325h-152z" />
    <glyph glyph-name="caron" 
d="M-236 -1342v325q0 41 -97 72q-96 24 -181 24q-76 0 -160 -24t-84 -72v-325h-161v325q0 104 129 157q122 52 276 52q173 0 302 -48q128 -50 128 -161v-325h-152z" />
    <glyph glyph-name="Lslash" horiz-adv-x="1955" 
d="M1927 0h-167v959q-71 124 -207 201q-136 76 -187 63q-53 -11 -95 -30q-20 -10 -52 -23.5t-77 -32.5q-173 -71 -190 -66l-296 167q-32 14 -56 7l-107 -56q-107 -56 -116 -101l21 -24q84 -53 164 -73l93 13q67 12 164 12h44q107 0 181 -20q127 -36 209 -121v-875h-157v839
q-54 29 -151 54q-95 27 -154 27q-37 0 -74 -6q-38 -6 -103 -39l-68 -44v-831h-160v875l12 20q19 25 60 49q-48 8 -145 72l-44 32l-8 36q0 27 6 53q6 25 50 84l246 153q59 32 109 32h10q54 -5 78 -27q13 -11 70 -55.5t160 -122.5q88 54 156 94t120 69q73 37 118 37h92
q52 0 168 -90q58 -45 102 -83t76 -69l105 -107v-1052z" />
    <glyph glyph-name="lslash" horiz-adv-x="1955" 
d="M1927 0h-167v959q-71 124 -207 201q-136 76 -187 63q-53 -11 -95 -30q-20 -10 -52 -23.5t-77 -32.5q-173 -71 -190 -66l-296 167q-32 14 -56 7l-107 -56q-107 -56 -116 -101l21 -24q84 -53 164 -73l93 13q67 12 164 12h44q107 0 181 -20q127 -36 209 -121v-875h-157v839
q-54 29 -151 54q-95 27 -154 27q-37 0 -74 -6q-38 -6 -103 -39l-68 -44v-831h-160v875l12 20q19 25 60 49q-48 8 -145 72l-44 32l-8 36q0 27 6 53q6 25 50 84l246 153q71 35 119 31q52 -3 78 -26q13 -11 70 -55.5t160 -122.5q88 54 156 94t120 69q73 37 118 37h92
q52 0 168 -90q58 -45 102 -78t76 -54l8 210q0 98 -32 185q-24 67 -80 105l-24 12q-52 31 -57 80q-5 39 25 70l31 20q42 15 80 15h13q41 -5 86 -34q55 -37 55 -200v-1642z" />
    <glyph glyph-name="Scaron" unicode="&#x1781;" horiz-adv-x="1220" 
d="M675 1414h68l100 -9q75 0 171 -32q90 -32 147 -108l24 -60q24 -69 24 -113q0 -53 -24 -144l-24 -81q-49 -115 -233 -204l-173 -65l-80 -28l-81 -8q-36 0 -64.5 -8.5t-49.5 -23.5t-33.5 -34.5t-16.5 -41.5v-173l60 -84q91 -85 249 -85l152 37q153 60 153 164v253h165v-273
q-12 -132 -165 -225l-153 -64h-180q-258 0 -370 129q-36 36 -60 132v233q0 48 36 96q53 65 169 89q107 0 205 36q178 24 273 104q60 48 72 93l20 68l8 56q0 38 -8 64q0 25 -16 44q-48 105 -173 141l-176 16q-121 -12 -201 -80l-52 -64l56 8l48 4q48 0 78.5 -14.5t34.5 -54.5
q0 -43 -53 -129q-26 -42 -66.5 -82t-97.5 -78q-73 0 -117 44.5t-44 132.5v169l28 76q97 177 370 177zM454 1068q-73 -12 -73 -36q5 -8 15 -20t22 -20l36 -16l36 28q36 31 36 52l-16 12h-56z" />
    <glyph glyph-name="scaron" 
d="M-349 -377q36 19 36 52l-16 28l-36 28l-56 25l-84 4l-93 -4l-76 -29q-44 -12 -60 -28l-20 -44l44 28q29 12 72 -4q36 -24 36 -48t-40 -52l-88 -20q-31 0 -68 14q-33 14 -37 54l4 20q12 84 121 141l104 24l121 12h44l64 -12l76 -20l49 -24q40 -12 60 -45q24 -12 24 -52
l-36 -72q-37 -45 -133 -64l-181 -32l-140 -17v-104l40 -24l60 -12l69 -4q52 0 112 36q24 8 36 56v77l60 28l77 8l40 -8v-141l-36 -32l-48 -36l-93 -36l-132 -16l-28 -4l-121 12q-22 2 -38 4t-26 4t-29 8.5t-47 17.5q-57 22 -73 58v149l137 12q66 0 96 8l149 36z" />
    <glyph glyph-name="Zcaron" 
d="M-349 -1007q36 19 36 52l-16 28l-36 28l-56 25l-84 4l-93 -4l-76 -29q-44 -12 -60 -28l-20 -44l44 28q29 12 72 -4q36 -24 36 -48t-40 -52l-88 -20q-31 0 -68 14q-33 14 -37 54l4 20q12 84 121 141l104 24l121 12h44l64 -12l76 -20l49 -24q40 -12 60 -45q24 -12 24 -52
l-36 -72q-37 -45 -133 -64l-181 -32l-140 -17v-104l40 -24l60 -12l69 -4q52 0 112 36q24 8 36 56v77l60 28l77 8l40 -8v-141l-36 -32l-48 -36l-93 -36l-132 -16l-28 -4l-121 12q-22 2 -38 4t-26 4t-29 8.5t-47 17.5q-57 22 -73 58v149l137 12q66 0 96 8l149 36z" />
    <glyph glyph-name="zcaron" horiz-adv-x="1981" 
d="M1962 0h-167v959q-71 98 -170 188q-129 89 -174 76q-53 -11 -95 -30q-19 -9 -56 -29t-92 -52q1 -5 1 -10v-10q0 -53 -24 -144l-24 -81q-49 -116 -214 -214q-58 -28 -114 -46.5t-113 -27.5l-126 -17q-36 0 -64.5 -8.5t-49.5 -23.5t-33.5 -34.5t-16.5 -41.5v-173l60 -84
q91 -85 249 -85l152 37q153 60 153 164v253h165v-273q-12 -132 -165 -225l-153 -64h-180q-258 0 -370 129q-36 36 -60 132v233q0 48 36 96q52 65 176 94q48 7 97.5 11.5t104.5 8.5q175 34 269 115q60 48 72 93l20 68l8 56q0 38 -8 64q0 25 -16 44q-48 105 -242 134
q-148 10 -217 -2q-60 -12 -91 -40q-25 -19 -39 -47l-13 -32l56 8l48 4q48 0 78.5 -14.5t34.5 -54.5q0 -43 -53 -129q-52 -84 -118 -129q-119 -31 -163 13q-44 47 -44 133v169l6 28l9 24l13 24q97 177 370 177h68l89 -1q46 -4 91.5 -14t90.5 -26q90 -32 147 -108l8 -21
q137 95 182 120q73 37 118 37h92q51 0 122 -81q58 -42 100 -86t74 -75l105 -107v-1052zM432 1077q-51 -21 -51 -45q-2 -12 1 -19.5t21 -27.5q53 -9 87 19q36 31 34 63l-42 12z" />
    <glyph glyph-name="brokenbar" horiz-adv-x="1981" 
d="M1962 0h-168v960q-35 48 -77.5 94.5t-91.5 92.5q-129 89 -174 76q-53 -11 -95 -30q-19 -9 -56 -29t-92 -52q1 -2 1 -10v-10q0 -53 -24 -144l-24 -81q-49 -116 -214 -214q-58 -28 -114 -46.5t-113 -27.5l-126 -17q-36 0 -64.5 -8.5t-49.5 -23.5t-33.5 -34.5t-16.5 -41.5
v-173l60 -84q91 -85 249 -85l152 37q153 60 153 164v253h165v-273q-12 -132 -165 -225l-153 -64h-180q-258 0 -370 129q-36 36 -60 132v233q0 48 36 96q52 65 176 94q48 7 97.5 11.5t104.5 8.5q175 34 269 115q60 48 72 93l20 68l8 56q0 38 -8 64q0 25 -16 44
q-48 105 -242 134q-148 10 -217 -2q-60 -12 -91 -40q-25 -19 -39 -47l-13 -32l56 8l48 4q48 0 78.5 -14.5t34.5 -54.5q0 -43 -53 -129q-52 -84 -118 -129q-119 -31 -163 13q-44 47 -44 133v169l6 28l9 24l13 24q97 177 370 177h68l89 -1q46 -4 91.5 -14t90.5 -26
q90 -32 147 -108l8 -21q137 95 182 120q73 37 118 37h92q51 0 122 -81q51 -37 89.5 -76t68.5 -70q8 9 15 5l8 210q0 98 -32 185q-24 67 -80 105l-24 12q-52 31 -57 80q-5 39 25 70l31 20q42 15 80 15h13q41 -5 86 -34q55 -37 55 -200v-589l1 -1v-1052zM432 1077
q-51 -21 -51 -45q-2 -12 1 -19.5t21 -27.5q53 -9 87 19q36 31 34 63l-42 12z" />
    <glyph glyph-name="Eth" unicode="&#x1782;" horiz-adv-x="1264" 
d="M502 0h-157v871l12 20l65 49q-49 7 -145 72l-44 32l-8 36q0 37 40 113q20 36 58 88t95 116q92 0 188 -48q26 -12 49.5 -25t43.5 -27t45 -35t55 -49l161 120q72 60 108 60q32 0 64 -24l105 -100l12 -12q45 0 64 16q0 -72 -42 -127q-42 -54 -94 -58q-53 12 -121 81l-60 60
q-48 -12 -137 -89l-80 -80q-128 101 -245 149l-116 28q-74 -105 -81 -153l40 -44q57 -48 117 -68l120 28q69 12 165 12h48q122 0 205 -28q98 -24 181 -113v-875h-161v839l-136 56q-68 25 -161 25q-85 0 -177 -37l-68 -36l-4 -333l8 -237q72 84 110 110q39 27 87 27
q37 0 62 -37q25 -36 30 -84q0 -36 -24 -60l-48 -16l-52 20l-61 20q-40 -4 -64 -72l-32 -125z" />
    <glyph glyph-name="eth" 
d="M-505 -582q0 -29 -21 -48l-40 -20l-44 20q-19 12 -60 20q-28 -6 -51.5 -14.5t-41 -21.5t-27 -31.5t-9.5 -44.5h-140v325q0 104 129 157q122 52 280 52q173 0 302 -48q128 -50 128 -161v-325h-140v325q0 44 -102 70q-52 13 -98.5 19.5t-89.5 6.5q-80 0 -168 -24
q-89 -24 -97 -72v-165q85 105 189 105q45 0 73 -30.5t28 -94.5z" />
    <glyph glyph-name="Yacute" 
d="M-505 -1212q0 -29 -21 -48l-40 -20l-44 20q-19 12 -60 20q-28 -6 -51.5 -14.5t-41 -21.5t-27 -31.5t-9.5 -44.5h-140v325q0 104 129 157q122 52 280 52q173 0 302 -48q128 -50 128 -161v-325h-140v325q0 44 -102 70q-52 13 -98.5 19.5t-89.5 6.5q-80 0 -168 -24
q-89 -24 -97 -72v-165q85 105 189 105q45 0 73 -30.5t28 -94.5z" />
    <glyph glyph-name="yacute" horiz-adv-x="1966" 
d="M1942 0h-167v959q-71 124 -207 201q-136 76 -187 63q-53 -11 -95 -30q-20 -10 -52 -23.5t-77 -32.5q-173 -71 -190 -66l-296 167q-32 14 -56 7l-107 -56q-107 -56 -116 -101l21 -24q42 -26 84.5 -47t88.5 -36l78 19q69 12 165 12h48q122 0 205 -28q98 -24 181 -113v-875
h-161v839l-136 56q-68 25 -161 25q-85 0 -177 -37l-68 -36l-4 -333l8 -237q72 84 110 110q39 27 87 27q37 0 62 -37q25 -36 30 -84q0 -36 -24 -60l-48 -16l-52 20l-61 20q-40 -4 -64 -72l-32 -125l-20 -56h-157v871l12 20l61 46q-46 16 -140 79l-44 32l-8 36q0 27 6 53
q6 25 50 84l246 153q59 32 109 32h10q54 -5 78 -27q13 -11 70 -55.5t160 -122.5q88 54 156 94t120 69q73 37 118 37h92q52 0 168 -90q58 -45 102 -83t76 -69l105 -107v-1052z" />
    <glyph glyph-name="Thorn" horiz-adv-x="1963" 
d="M1942 0h-168v960q-69 123 -206 200q-136 76 -187 63q-53 -11 -95 -30q-20 -10 -52 -23.5t-77 -32.5q-173 -71 -190 -66l-296 167q-32 14 -56 7l-107 -56q-107 -56 -116 -101l21 -24q42 -26 84.5 -47t88.5 -36l78 19q69 12 165 12h48q122 0 205 -28q98 -24 181 -113v-875
h-161v839l-136 56q-68 25 -161 25q-85 0 -177 -37l-68 -36l-4 -333l8 -237q72 84 110 110q39 27 87 27q37 0 62 -37q25 -36 30 -84q0 -36 -24 -60l-48 -16l-52 20l-61 20q-40 -4 -64 -72l-32 -125l-20 -56h-157v871l12 20l61 46q-46 16 -140 79l-44 32l-8 36q0 27 6 53
q6 25 50 84l246 153q59 32 109 32h10q54 -5 78 -27q13 -11 70 -55.5t160 -122.5q88 54 156 94t120 69q73 37 118 37h92q52 0 168 -90q51 -39 91 -73.5t71 -63.5q8 9 15 5l8 210q0 98 -32 185q-24 67 -80 105l-24 12q-52 31 -57 80q-5 39 25 70l31 20q42 15 80 15h13
q41 -5 86 -34q55 -37 55 -200v-589l1 -1v-1052z" />
    <glyph glyph-name="thorn" unicode="&#x1783;" horiz-adv-x="1967" 
d="M859 124q69 0 123 18.5t86 74.5v743q-6 8 -12.5 14.5t-13.5 11.5t-20 12t-32 16q-20 10 -35.5 16t-28.5 10t-39 11t-68 17q12 37 28 85t40 88q89 173 153 173l64 -21l193 -80l72 8q-24 -100 -62 -142.5t-78 -42.5q-23 0 -64 29l-33 32q-52 40 -124 40l-56 -117l140 -60
q136 -64 141 -116v-715l64 -52q19 -12 66 -33q52 -20 99 -20q134 0 209 37q29 12 48 40l-4 369v394q0 23 -69 52q-10 4 -23 9t-29 11q-32 12 -120 36q12 37 28 85t40 88q89 173 153 173l96 -37l60 -20q25 -8 101 -48l72 12q-12 -52 -28 -88t-34 -58.5t-38 -32.5t-41 -10
q-30 0 -64 25l-32 28q-20 20 -68 32l-81 8l-56 -117q110 -12 145 -28q140 -36 148 -84l-4 -851q-24 -53 -56 -77q-101 -80 -273 -80l-84 4q-105 0 -177 36q-60 36 -64 88q-69 -52 -205 -92l-233 -24h-56q-141 0 -223 36t-82 137v630q-149 36 -213 129q-56 92 -56 217
q16 48 30 78t26 46q76 124 168 124l37 -4q52 0 80 -16q84 -36 84 -140l-4 -52v-334l4 -654l36 -40q64 -45 141 -45zM301 1124q4 -26 11 -47t17 -37q24 -24 81 -40v253l-57 -20q-52 -28 -52 -109z" />
    <glyph glyph-name="minus" horiz-adv-x="700" 
d="M390 -542l4 1510l-13 28q-39 33 -200 80l68 173q80 173 149 173l76 -29l185 -76l72 12q-12 -52 -27 -88t-33 -58.5t-38.5 -34.5t-42.5 -16q-25 0 -68 25l-28 28l-76 40l-57 12l-56 -109l125 -36q124 -48 128 -88v-1606l-52 -60q-72 -60 -189 -60h-36q-98 0 -201 52
l-44 28q-32 -32 -92 -56l-100 -20l-32 4q-145 0 -221 40q-48 24 -76 88l-4 225l-12 36l-21 -36q0 -45 -36 -52q-20 4 -24 8l-24 16q0 66 40 145l16 28l28 8l73 12q43 0 78 -24q34 -24 34 -101l-4 -249l44 -28q26 -13 51 -20.5t50 -11.5q30 0 66 14q30 13 66 66v326h144v-326
l65 -36q72 -36 128 -36q40 0 74 18t43 62z" />
    <glyph glyph-name="multiply" horiz-adv-x="700" 
d="M390 -1182l4 2150l-13 28q-39 33 -200 80l68 173q80 173 149 173l76 -29l185 -76l72 12q-12 -52 -27 -88t-33 -58.5t-38.5 -34.5t-42.5 -16q-25 0 -68 25l-28 28l-76 40l-57 12l-56 -109l125 -36q124 -48 128 -88v-2246l-52 -60q-72 -60 -189 -60h-36q-98 0 -201 52
l-44 28q-32 -32 -92 -56l-100 -20l-32 4q-145 0 -221 40q-48 24 -76 88l-4 225l-12 36l-21 -36q0 -45 -36 -52q-20 4 -24 8l-24 16q0 66 40 145l16 28l28 8l73 12q43 0 78 -24q34 -24 34 -101l-4 -249l44 -28q26 -13 51 -20.5t50 -11.5q30 0 66 14q30 13 66 66v326h144v-326
l65 -36q72 -36 128 -36q40 0 74 18t43 62z" />
    <glyph glyph-name="onesuperior" horiz-adv-x="2676" 
d="M2659 0h-167v959q-78 141 -150 201q-101 89 -184 76q-28 -4 -53 -9.5t-48 -13.5q-18 -7 -47.5 -20.5t-71.5 -35.5q-8 -7 -17 -11t-17 -7l-8 -4l1 2q-2 -1 -9 -1h-8q-30 0 -64 25l-32 28q-20 20 -68 32l-81 8l-56 -117q110 -12 145 -28q140 -36 148 -84v-60h3l-3 -451
l1 -300h-2v-40q-24 -53 -56 -77q-101 -80 -273 -80l-84 4q-105 0 -177 36q-60 36 -64 88q-69 -52 -205 -92l-233 -24h-56q-141 0 -223 36t-82 137v630q-149 36 -213 129q-56 92 -56 217q16 48 30 78t26 46q76 124 168 124l37 -4q52 0 80 -16q84 -36 84 -140l-4 -52v-334
l4 -654l36 -40q64 -45 141 -45l108 8q69 0 123 18.5t86 74.5v743q-6 8 -12.5 14.5t-13.5 11.5t-20 12t-32 16q-20 10 -35.5 16t-28.5 10t-39 11t-68 17q12 37 28 85t40 88q89 173 153 173l64 -21l193 -80l72 8q-24 -100 -62 -142.5t-78 -42.5q-23 0 -64 29l-33 32
q-52 40 -124 40l-56 -117l140 -60q136 -64 141 -116v-715l64 -52q19 -12 66 -33q52 -20 99 -20q134 0 209 37q23 9 41 30v773q0 23 -69 52q-10 4 -23 9t-29 11q-32 12 -120 36q12 37 28 85t40 88q89 173 198 173l36 -16q32 -28 63 -48.5t60 -34.5q60 -27 79 -9l18 6
q20 12 55.5 33.5t89.5 52.5l59 15q89 -15 190 -97q57 -45 98 -85t69 -76l105 -107v-1052zM301 1124q4 -26 11 -47t17 -37q24 -24 81 -40v253l-57 -20q-52 -28 -52 -109z" />
    <glyph glyph-name="twosuperior" horiz-adv-x="1361" 
d="M1340 0h-167v1059q-38 32 -84.5 68.5t-101.5 76.5q-60 46 -148 32q-28 -4 -53 -9.5t-48 -13.5q-18 -7 -47.5 -20.5t-71.5 -35.5q-8 -7 -17 -11t-17 -7l-8 -4l1 2q-2 -1 -9 -1h-8q-30 0 -64 25l-32 28q-20 20 -68 32l-81 8l-56 -117q110 -12 145 -28q140 -36 148 -84v-107
l5 1v-1496l-52 -60q-72 -60 -189 -60h-36q-98 0 -201 52l-44 28q-32 -32 -92 -56l-100 -20l-32 4q-145 0 -221 40q-48 24 -76 88l-4 225l-12 36l-21 -36q0 -45 -36 -52q-20 4 -24 8l-24 16q0 66 40 145l16 28l28 8l73 12q43 0 78 -24q34 -24 34 -101l-4 -249l44 -28
q26 -13 51 -20.5t50 -11.5q30 0 66 14q30 13 66 66v326h144v-326l65 -36q72 -36 128 -36q40 0 74 18t43 62v1400h3v106q0 23 -69 52q-10 4 -23 9t-29 11q-32 12 -120 36q12 37 28 85t40 88q89 173 198 173l36 -16q32 -28 63 -48.5t60 -34.5q60 -27 79 -9l18 6
q20 12 55.5 33.5t89.5 52.5l59 15q83 -15 200 -90q31 -22 70.5 -49t88.5 -61l103 -65v-1152z" />
    <glyph glyph-name="threesuperior" horiz-adv-x="1361" 
d="M1340 0h-167v1059q-38 32 -84.5 68.5t-101.5 76.5q-60 46 -148 32q-28 -4 -53 -9.5t-48 -13.5q-18 -7 -47.5 -20.5t-71.5 -35.5q-8 -7 -17 -11t-17 -7l-8 -4l1 2q-2 -1 -9 -1h-8q-30 0 -64 25l-32 28q-20 20 -68 32l-81 8l-56 -117q110 -12 145 -28q140 -36 148 -84v-107
l5 1v-2126l-52 -60q-72 -60 -189 -60h-36q-98 0 -201 52l-44 28q-32 -32 -92 -56l-100 -20l-32 4q-145 0 -221 40q-48 24 -76 88l-4 225l-12 36l-21 -36q0 -45 -36 -52q-20 4 -24 8l-24 16q0 66 40 145l16 28l28 8l73 12q43 0 78 -24q34 -24 34 -101l-4 -249l44 -28
q26 -13 51 -20.5t50 -11.5q30 0 66 14q30 13 66 66v326h144v-326l65 -36q72 -36 128 -36q40 0 74 18t43 62v2030h3v106q0 23 -69 52q-10 4 -23 9t-29 11q-32 12 -120 36q12 37 28 85t40 88q89 173 198 173l36 -16q32 -28 63 -48.5t60 -34.5q60 -27 79 -9l18 6
q20 12 55.5 33.5t89.5 52.5l59 15q83 -15 200 -90q31 -22 70.5 -49t88.5 -61l103 -65v-1152z" />
    <glyph glyph-name="onehalf" horiz-adv-x="2676" 
d="M2659 0h-168v960q-78 140 -149 200q-101 89 -184 76q-28 -4 -53 -9.5t-48 -13.5q-18 -7 -47.5 -20.5t-71.5 -35.5q-8 -7 -17 -11t-17 -7l-8 -4l1 2q-2 -1 -9 -1h-8q-30 0 -64 25l-32 28q-20 20 -68 32l-81 8l-56 -117q110 -12 145 -28q140 -36 148 -84v-60h3l-3 -451
l1 -300h-2v-40q-24 -53 -56 -77q-101 -80 -273 -80l-84 4q-105 0 -177 36q-60 36 -64 88q-69 -52 -205 -92l-233 -24h-56q-141 0 -223 36t-82 137v630q-149 36 -213 129q-56 92 -56 217q16 48 30 78t26 46q76 124 168 124l37 -4q52 0 80 -16q84 -36 84 -140l-4 -52v-334
l4 -654l36 -40q64 -45 141 -45l108 8q69 0 123 18.5t86 74.5v743q-6 8 -12.5 14.5t-13.5 11.5t-20 12t-32 16q-20 10 -35.5 16t-28.5 10t-39 11t-68 17q12 37 28 85t40 88q89 173 153 173l64 -21l193 -80l72 8q-24 -100 -62 -142.5t-78 -42.5q-23 0 -64 29l-33 32
q-52 40 -124 40l-56 -117l140 -60q136 -64 141 -116v-715l64 -52q19 -12 66 -33q52 -20 99 -20q134 0 209 37q23 9 41 30v773q0 23 -69 52q-10 4 -23 9t-29 11q-32 12 -120 36q12 37 28 85t40 88q89 173 198 173l36 -16q32 -28 63 -48.5t60 -34.5q60 -27 79 -9l18 6
q20 12 55.5 33.5t89.5 52.5l59 15q89 -15 190 -97q51 -38 88 -74t65 -70q6 7 13 3l8 210q0 98 -32 185q-24 67 -80 105l-24 12q-52 31 -57 80q-5 39 25 70l31 20q42 15 80 15h13q41 -5 86 -34q55 -37 55 -200v-589l1 -1v-1052zM301 1124q4 -26 11 -47t17 -37q24 -24 81 -40
v253l-57 -20q-52 -28 -52 -109z" />
    <glyph glyph-name="onequarter" horiz-adv-x="1361" 
d="M1340 0h-168v1059q-38 32 -84.5 68.5t-100.5 76.5q-60 46 -148 32q-28 -4 -53 -9.5t-48 -13.5q-18 -7 -47.5 -20.5t-71.5 -35.5q-8 -7 -17 -11t-17 -7l-8 -4l1 2q-2 -1 -9 -1h-8q-30 0 -64 25l-32 28q-20 20 -68 32l-81 8l-56 -117q110 -12 145 -28q140 -36 148 -84v-107
l5 1v-1496l-52 -60q-72 -60 -189 -60h-36q-98 0 -201 52l-44 28q-32 -32 -92 -56l-100 -20l-32 4q-145 0 -221 40q-48 24 -76 88l-4 225l-12 36l-21 -36q0 -45 -36 -52q-20 4 -24 8l-24 16q0 66 40 145l16 28l28 8l73 12q43 0 78 -24q34 -24 34 -101l-4 -249l44 -28
q26 -13 51 -20.5t50 -11.5q30 0 66 14q30 13 66 66v326h144v-326l65 -36q72 -36 128 -36q40 0 74 18t43 62v1400h3v106q0 23 -69 52q-10 4 -23 9t-29 11q-32 12 -120 36q12 37 28 85t40 88q89 173 198 173l36 -16q32 -28 63 -48.5t60 -34.5q60 -27 79 -9l18 6
q20 12 55.5 33.5t89.5 52.5l59 15q83 -15 200 -90q30 -22 68.5 -48.5t86.5 -58.5l9 169q0 98 -32 185q-24 67 -80 105l-24 12q-52 31 -57 80q-5 39 25 70l31 20q42 15 80 15h13q41 -5 86 -34q55 -37 55 -200v-490h1v-1152z" />
    <glyph glyph-name="threequarters" horiz-adv-x="1365" 
d="M1340 0h-168v1059q-38 32 -84.5 68.5t-100.5 76.5q-60 46 -148 32q-28 -4 -53 -9.5t-48 -13.5q-18 -7 -47.5 -20.5t-71.5 -35.5q-8 -7 -17 -11t-17 -7l-8 -4l1 2q-2 -1 -9 -1h-8q-30 0 -64 25l-32 28q-20 20 -68 32l-81 8l-56 -117q110 -12 145 -28q140 -36 148 -84v-107
l5 1v-2126l-52 -60q-72 -60 -189 -60h-36q-98 0 -201 52l-44 28q-32 -32 -92 -56l-100 -20l-32 4q-145 0 -221 40q-48 24 -76 88l-4 225l-12 36l-21 -36q0 -45 -36 -52q-20 4 -24 8l-24 16q0 66 40 145l16 28l28 8l73 12q43 0 78 -24q34 -24 34 -101l-4 -249l44 -28
q26 -13 51 -20.5t50 -11.5q30 0 66 14q30 13 66 66v326h144v-326l65 -36q72 -36 128 -36q40 0 74 18t43 62v2030h3v106q0 23 -69 52q-10 4 -23 9t-29 11q-32 12 -120 36q12 37 28 85t40 88q89 173 198 173l36 -16q32 -28 63 -48.5t60 -34.5q60 -27 79 -9l18 6
q20 12 55.5 33.5t89.5 52.5l59 15q83 -15 200 -90q30 -22 68.5 -48.5t86.5 -58.5l9 169q0 98 -32 185q-24 67 -80 105l-24 12q-52 31 -57 80q-5 39 25 70l31 20q42 15 80 15h13q41 -5 86 -34q55 -37 55 -200v-490h1v-1152z" />
    <glyph glyph-name="franc" unicode="&#x1784;" horiz-adv-x="1313" 
d="M1064 1144q28 4 44 29l28 60q0 13 -7 27.5t-19 26t-29 19t-37 7.5q-72 0 -72 -100q7 -69 92 -69zM610 177l81 52l152 100l137 -100l32 -28l60 -28l40 4l8 28v719l-64 80q-30 -20 -69 -37t-87 -31l-161 -16h-68l-41 12q-148 36 -218.5 86t-70.5 126v266q0 28 -40 56
l-60 28q6 22 23.5 40t42.5 32t56.5 23t66.5 13q24 -5 36 -24q36 -48 36 -193l-4 -216q0 -25 36 -61q91 -96 269 -96q89 0 141 40l20 20l-81 64q-32 38 -40 77q0 82 56 150q57 67 145 67q95 0 157 -57q68 -48 68 -140l-24 -68q-32 -71 -113 -105l153 -92v-900l-12 -20
q-36 -48 -112 -48l-81 12l-237 173l-285 -173l-92 -12q-89 0 -89 68v627l-4 24l-12 16l-24 -20l-16 -20q0 -42 16 -61l32 -28q0 -44 -28 -56l-56 -16q-36 0 -68 32q-24 30 -32 89q0 74 44 124q64 64 181 64l92 -28q64 -28 68 -76l-4 -454q0 -108 28 -112z" />
    <glyph glyph-name="Gbreve" 
d="M-168 -220q34 0 78 -14q38 -14 38 -55l-56 -72l-44 8q-28 -12 -36 -20q-93 -134 -229 -213l-113 -44l-84 -12q-80 0 -161 24l-32 16q-66 32 -114 95q-50 62 -50 130q4 36 14 67t26.5 55t41 39.5t58.5 19.5l52 8q55 0 93 -20q36 -20 36 -81l-4 -44q-4 -16 -11 -31t-17 -29
l-12 -20l-36 -24l-36 12l-29 20l16 60q-25 0 -56 -24l4 -12q12 -68 97 -116q48 -26 108 -33l12 4l20 -4q60 0 146.5 70.5t182.5 202.5l33 17z" />
    <glyph glyph-name="gbreve" 
d="M-168 -840q34 0 78 -14q38 -14 38 -55l-56 -72l-44 8q-28 -12 -36 -20q-93 -134 -229 -213l-113 -44l-84 -12q-80 0 -161 24l-32 16q-66 32 -114 95q-50 62 -50 130q4 36 14 67t26.5 55t41 39.5t58.5 19.5l52 8q55 0 93 -20q36 -20 36 -81l-4 -44q-4 -16 -11 -31t-17 -29
l-12 -20l-36 -24l-36 12l-29 20l16 60q-25 0 -56 -24l4 -12q12 -68 97 -116q48 -26 108 -33l12 4l20 -4q60 0 146.5 70.5t182.5 202.5l33 17z" />
    <glyph glyph-name="Idotaccent" horiz-adv-x="1978" 
d="M1962 0h-167v959q-71 98 -170 188q-129 89 -174 76q-53 -11 -95 -30q-18 -9 -54.5 -28.5t-90.5 -50.5q-31 -31 -79 -54l153 -92v-900l-12 -20q-36 -48 -112 -48l-81 12l-237 173l-285 -173l-92 -12q-89 0 -89 68v627l-4 24l-12 16l-24 -20l-16 -20q0 -42 16 -61l32 -28
q0 -44 -28 -56l-56 -16q-36 0 -68 32q-24 30 -32 89q0 74 44 124q64 64 181 64l92 -28q64 -28 68 -76l-4 -454q0 -108 28 -112l16 4l81 52l152 100l137 -100l32 -28l60 -28l40 4l8 28v719l-64 80q-30 -20 -69 -37t-87 -31l-161 -16h-68l-41 12q-148 36 -218.5 86t-70.5 126
v266q0 28 -40 56l-60 28q6 22 23.5 40t42.5 32t56.5 23t66.5 13q24 -5 36 -24q36 -48 36 -193l-4 -216q0 -25 36 -61q91 -96 269 -96q89 0 141 40l20 20l-81 64q-32 38 -40 77q0 82 56 150q57 67 145 67q95 0 157 -57q39 -28 55 -70q33 23 57 38t38 23q73 37 118 37h92
q51 0 122 -81q58 -42 100 -86t74 -75l105 -107v-1052zM1064 1144q28 4 44 29l28 60q0 13 -7 27.5t-19 26t-29 19t-37 7.5q-72 0 -72 -100q7 -69 92 -69z" />
    <glyph glyph-name="Scedilla" horiz-adv-x="1978" 
d="M1962 0h-168v960q-35 48 -77.5 94.5t-91.5 92.5q-129 89 -174 76q-53 -11 -95 -30q-18 -9 -54.5 -28.5t-90.5 -50.5q-31 -31 -79 -54l153 -92v-900l-12 -20q-36 -48 -112 -48l-81 12l-237 173l-285 -173l-92 -12q-89 0 -89 68v627l-4 24l-12 16l-24 -20l-16 -20
q0 -42 16 -61l32 -28q0 -44 -28 -56l-56 -16q-36 0 -68 32q-24 30 -32 89q0 74 44 124q64 64 181 64l92 -28q64 -28 68 -76l-4 -454q0 -108 28 -112l16 4l81 52l152 100l137 -100l32 -28l60 -28l40 4l8 28v719l-64 80q-30 -20 -69 -37t-87 -31l-161 -16h-68l-41 12
q-148 36 -218.5 86t-70.5 126v266q0 28 -40 56l-60 28q6 22 23.5 40t42.5 32t56.5 23t66.5 13q24 -5 36 -24q36 -48 36 -193l-4 -216q0 -25 36 -61q91 -96 269 -96q89 0 141 40l20 20l-81 64q-32 38 -40 77q0 82 56 150q57 67 145 67q95 0 157 -57q39 -28 55 -70
q33 23 57 38t38 23q73 37 118 37h92q51 0 122 -81q51 -37 89.5 -76t68.5 -70q8 9 15 5l8 210q0 98 -32 185q-24 67 -80 105l-24 12q-52 31 -57 80q-5 39 25 70l31 20q42 15 80 15h13q41 -5 86 -34q55 -37 55 -200v-589l1 -1v-1052zM1064 1144q28 4 44 29l28 60q0 13 -7 27.5
t-19 26t-29 19t-37 7.5q-72 0 -72 -100q7 -69 92 -69z" />
    <glyph glyph-name="scedilla" unicode="&#x1785;" horiz-adv-x="1232" 
d="M984 141q56 20 56 92l-4 44v100q-125 50 -205 137q-8 8 -22 29.5t-34 58.5q0 117 60 209q62 80 157 101q68 0 128 -27q61 -26 65 -82v-679l-49 -60q-68 -60 -168 -60h-273q-196 0 -285 56q-29 13 -61 60v796l-16 20l-36 40l-116 68l-8 36q0 37 40 113q20 36 57.5 88
t94.5 116q69 0 141 -24q116 -44 241 -160q20 0 112 98q93 99 141 103q48 0 96 -65q36 -48 61 -60l44 -20q40 0 60 12q0 -66 -50 -125q-50 -56 -111 -60q-53 12 -120 81l-60 60q-47 -4 -129 -89l-68 -80q-69 52 -130.5 89t-118.5 60l-117 28q-72 -105 -72 -161l84 -60
q93 -60 153 -64v-803l80 -24l181 -29h44l89 4q32 8 68 33zM948 618l12 -36q16 -32 60 -64l12 8v229l-24 4l-16 -12q-44 -53 -44 -129z" />
    <glyph glyph-name="Cacute" 
d="M-397 -353l-16 -40l40 -40l36 88l-12 20l-12 4q-24 -12 -32 -20zM-538 -622q45 0 105 72l-56 36q-32 17 -57 61l-12 24q0 34 20 92l12 24q43 49 85 81q46 20 104 20t95 -14q30 -14 34 -71l-65 -176l37 -28q22 -13 64 -13q56 26 68 61l48 -52q0 -73 -76 -121l-48 -12
q-23 0 -81 20l-68 20q-61 -92 -132 -124q-74 -24 -229 -24q-89 16 -127 50t-38 74q0 26 8 48l20 32q36 24 48 53l13 52q0 47 -93 88q-48 19 -48 52q0 39 44 71q42 30 105 38q64 0 100 -32t36 -109l-20 -100l-40 -97l-4 -36q0 -68 88 -68z" />
    <glyph glyph-name="cacute" 
d="M-397 -973l-16 -40l40 -40l36 88l-12 20l-12 4q-24 -12 -32 -20zM-538 -1242q45 0 105 72l-56 36q-32 17 -57 61l-12 24q0 34 20 92l12 24q43 49 85 81q46 20 104 20t95 -14q30 -14 34 -71l-65 -176l37 -28q22 -13 64 -13q56 26 68 61l48 -52q0 -73 -76 -121l-48 -12
q-23 0 -81 20l-68 20q-61 -92 -132 -124q-74 -24 -229 -24q-89 16 -127 50t-38 74q0 26 8 48l20 32q36 24 48 53l13 52q0 47 -93 88q-48 19 -48 52q0 39 44 71q42 30 105 38q64 0 100 -32t36 -109l-20 -100l-40 -97l-4 -36q0 -68 88 -68z" />
    <glyph glyph-name="Ccaron" horiz-adv-x="1855" 
d="M1839 0h-167v959q-71 124 -207 201q-136 76 -187 63q-53 -11 -95 -30q-20 -10 -52 -23.5t-77 -32.5q-173 -71 -190 -66l-296 167q-32 14 -56 7l-107 -56q-107 -56 -116 -101l21 -24q42 -26 94 -52t115 -51l-4 -1h7v-803l80 -24l181 -29h44l89 4q32 8 68 33q56 20 56 92
l-4 44v100q-125 50 -205 137q-8 8 -22 29.5t-34 58.5q0 117 60 209q62 80 157 101q68 0 128 -27q61 -26 65 -82v-679l-49 -60q-68 -60 -168 -60h-273q-196 0 -285 56q-29 13 -61 60v796l-16 20h2q-10 9 -37 29t-73 51l-44 32l-8 36q0 27 6 53q6 25 50 84l246 153
q59 32 109 32h10q54 -5 78 -27q13 -11 70 -55.5t160 -122.5q88 54 156 94t120 69q73 37 118 37h92q52 0 168 -90q58 -45 102 -83t76 -69l105 -107v-1052zM948 618l12 -36q16 -32 60 -64l12 8v229l-24 4l-16 -12q-44 -53 -44 -129z" />
    <glyph glyph-name="ccaron" horiz-adv-x="1855" 
d="M1839 0h-168v960q-69 123 -206 200q-136 76 -187 63q-53 -11 -95 -30q-20 -10 -52 -23.5t-77 -32.5q-173 -71 -190 -66l-296 167q-32 14 -56 7l-107 -56q-107 -56 -116 -101l21 -24q42 -26 94 -52t115 -51l-4 -1h7v-803l80 -24l181 -29h44l89 4q32 8 68 33q56 20 56 92
l-4 44v100q-125 50 -205 137q-8 8 -22 29.5t-34 58.5q0 117 60 209q62 80 157 101q68 0 128 -27q61 -26 65 -82v-679l-49 -60q-68 -60 -168 -60h-273q-196 0 -285 56q-29 13 -61 60v796l-16 20h2q-10 9 -37 29t-73 51l-44 32l-8 36q0 27 6 53q6 25 50 84l246 153
q59 32 109 32h10q54 -5 78 -27q13 -11 70 -55.5t160 -122.5q88 54 156 94t120 69q73 37 118 37h92q52 0 168 -90q51 -39 91 -73.5t71 -63.5q8 9 15 5l8 210q0 98 -32 185q-24 67 -80 105l-24 12q-52 31 -57 80q-5 39 25 70l31 20q42 15 80 15h13q41 -5 86 -34
q55 -37 55 -200v-589l1 -1v-1052zM948 618l12 -36q16 -32 60 -64l12 8v229l-24 4l-16 -12q-44 -53 -44 -129z" />
    <glyph glyph-name="dmacron" unicode="&#x1786;" horiz-adv-x="1353" 
d="M1153 4l-117 -4l-68 4l-44 12q-73 24 -107 112q-34 83 -34 169q0 68 -76 68l-44 4v-293q0 -72 -101 -72l-100 12q-57 12 -121 94t-64 167q0 55 30 114t74 83l81 20q24 -8 24 -16v434l-72 56l-117 72q-32 17 -32 24q0 32 36 113q20 40 56.5 89.5t96.5 118.5q45 0 88.5 -4
t83.5 -16q145 -36 274 -156q24 16 42 30q9 7 35 30.5t71 63.5q66 60 105 64q32 0 64 -24l104 -104l32 -16q45 0 61 16q0 -67 -59 -147q-58 -78 -110 -86q-50 12 -121 80l-60 61q-61 -8 -160 -89l-49 -40q-132 105 -257 145q-20 6 -51 11t-73 9l-36 -52q-24 -33 -28 -67
l84 -54q52 -28 94.5 -44t74.5 -20v-486l100 -8q96 0 104 -48l37 -153q55 -157 156 -157q48 0 84 37q33 0 33 120l-24 84q-118 37 -189 137l-44 84q12 105 36 157q68 165 209 181q64 0 106 -24.5t46 -84.5v-686q0 -53 -40 -93q-41 -32 -124 -32zM1181 514l8 36l4 40l-4 93
q0 44 -12 64q-42 0 -61 -48l-16 -93l16 -40q25 -48 65 -52zM486 169v180q-27 0 -62 -20q-34 -19 -34 -56l16 -52q25 -48 80 -52z" />
    <glyph glyph-name="macron" 
d="M-811 -538q4 -56 49 -64v97q-33 0 -49 -33zM-84 -377v-169l-4 -72q-8 -24 -36 -48l-68 -32q-24 -12 -56 -12l-53 -8q-53 0 -84 28q-40 24 -60 68q-12 74 -50 109q-40 32 -87 40l-24 -4l-4 -173l-16 -28q-24 -24 -76 -32h-77q-84 12 -108 60q-13 25 -20.5 53.5t-11.5 62.5
l4 65l32 44q36 36 104 44v177l165 -4v-173l36 12l64 -4l41 -12q96 -44 132 -165l20 -20q16 -12 48 -20q25 0 41 40v165q-16 -60 -53 -64l-20 8l-12 8q-36 48 -36 100q0 68 32 103q31 34 125 34q32 -5 56 -24q56 -50 56 -157z" />
    <glyph glyph-name="periodcentered" 
d="M-811 -1138q4 -56 49 -64v97q-33 0 -49 -33zM-84 -977v-169l-4 -72q-8 -24 -36 -48l-68 -32q-24 -12 -56 -12l-53 -8q-53 0 -84 28q-40 24 -60 68q-12 74 -50 109q-40 32 -87 40l-24 -4l-4 -173l-16 -28q-24 -24 -76 -32h-77q-84 12 -108 60q-13 25 -20.5 53.5
t-11.5 62.5l4 65l32 44q36 36 104 44v177l165 -4v-173l36 12l64 -4l41 -12q96 -44 132 -165l20 -20q16 -12 48 -20q25 0 41 40v165q-16 -60 -53 -64l-20 8l-12 8q-36 48 -36 100q0 68 32 103q31 34 125 34q32 -5 56 -24q56 -50 56 -157z" />
    <glyph glyph-name="Abreve" horiz-adv-x="1963" 
d="M1945 0h-167v959q-71 124 -207 201q-136 76 -187 63q-53 -11 -95 -30q-20 -10 -52 -23.5t-77 -32.5q-173 -71 -190 -66l-296 167q-32 14 -56 7l-107 -56q-107 -56 -116 -101l21 -24q78 -49 207 -86q8 -1 15 -1t13 -1v-486l100 -8q96 0 104 -48l37 -153q55 -157 156 -157
q48 0 84 37q33 0 33 120l-24 84q-118 37 -189 137l-44 84q12 105 36 157q68 165 209 181q64 0 106 -24.5t46 -84.5v-686q0 -53 -40 -93q-41 -32 -124 -32l-117 -4l-68 4l-44 12q-73 24 -107 112q-34 83 -34 169q0 68 -76 68l-44 4v-293q0 -72 -101 -72l-100 12
q-57 12 -121 94t-64 167q0 55 30 114t74 83l81 20q24 -8 24 -16v434l-29 22h-1q-1 1 -2.5 2t-3.5 3l-33 26q-14 11 -32.5 23t-41.5 28l-44 32l-8 36q0 27 6 53q6 25 50 84l246 153q59 32 109 32h10q54 -5 78 -27q13 -11 70 -55.5t160 -122.5q88 54 156 94t120 69
q73 37 118 37h92q52 0 168 -90q58 -45 102 -83t76 -69l105 -107v-1052zM1169 514l8 36l4 40l-4 93q0 44 -12 64q-42 0 -61 -48l-16 -93l16 -40q25 -48 65 -52zM474 169v180q-27 0 -62 -20q-34 -19 -34 -56l16 -52q25 -48 80 -52z" />
    <glyph glyph-name="abreve" horiz-adv-x="1966" 
d="M1947 0h-169v959q-71 124 -207 201q-136 76 -187 63q-53 -11 -95 -30q-20 -10 -52 -23.5t-77 -32.5q-173 -71 -190 -66l-296 167q-32 14 -56 7l-107 -56q-107 -56 -116 -101l21 -24q78 -49 207 -86q8 -1 15 -1t13 -1v-486l100 -8q96 0 104 -48l37 -153q55 -157 156 -157
q48 0 84 37q33 0 33 120l-24 84q-118 37 -189 137l-44 84q12 105 36 157q68 165 209 181q64 0 106 -24.5t46 -84.5v-686q0 -53 -40 -93q-41 -32 -124 -32l-117 -4l-68 4l-44 12q-73 24 -107 112q-34 83 -34 169q0 68 -76 68l-44 4v-293q0 -72 -101 -72l-100 12
q-57 12 -121 94t-64 167q0 55 30 114t74 83l81 20q21 -8 24 -15v433l-29 22h-1q-1 1 -2.5 2t-3.5 3l-33 26q-14 11 -32.5 23t-41.5 28l-44 32l-8 36q0 27 6 53q6 25 50 84l246 153q59 32 109 32h10q54 -5 78 -27q13 -11 70 -55.5t160 -122.5q88 54 156 94t120 69
q73 37 118 37h92q52 0 168 -90q52 -42 92 -76t71 -63q8 11 17 7l8 210q0 98 -32 185q-24 67 -80 105l-24 12q-52 31 -57 80q-5 39 25 70l31 20q42 15 80 15h13q41 -5 86 -34q55 -37 55 -200v-1642zM1169 514l8 36l4 40l-4 93q0 44 -12 64q-42 0 -61 -48l-16 -93l16 -40
q25 -48 65 -52zM474 169v180q-27 0 -62 -20q-34 -19 -34 -56l16 -52q25 -48 80 -52z" />
    <glyph glyph-name="Aogonek" unicode="&#x1787;" horiz-adv-x="1264" 
d="M538 980v-691q0 -84 48 -84q25 0 101 112l32 28q40 24 92 32q57 0 121 -52l28 -52q32 -48 64 -56q68 0 68 108v550h153v-751q0 -26 -9 -49t-27 -40.5t-46 -28t-67 -10.5l-64 4q-60 26 -124 129l-53 100l-24 28l-20 8q-14 -6 -24 -11t-16 -9l-24 -28l-24 -40
q-60 -101 -149 -173l-76 -8q-83 0 -121 68l-16 73v819q-23 17 -54.5 33.5t-73.5 30.5l-68 20l28 80q36 97 124 209l64 40q75 32 133 41q64 0 185 -109l40 -20q19 -8 30.5 -14t15.5 -8q5 -3 16.5 -12.5t29.5 -25.5q29 -13 50.5 -20.5t35.5 -11.5q31 -7 71 -12q60 0 96 42
t36 98q-62 117 -144 169l-64 28l-45 24q-36 28 -40 64q0 56 121 125q46 -20 83 -41t65 -44q149 -125 149 -313q0 -168 -101 -233q-68 -44 -196 -44h-73l-44 12q-100 16 -172 72l-29 29q-88 60 -136 68q-34 0 -60 -20l-24 -28l-29 -49l-12 -40l33 -28q68 -56 136 -88z" />
    <glyph glyph-name="aogonek" 
d="M-345 -313q7 -11 12 -18t8 -10l28 -16v84q-44 0 -48 -40zM-12 -381q-16 -29 -41.5 -54.5t-62.5 -45.5l-68 -24q-45 -109 -95 -161t-98 -52q-36 0 -80 32l-32 32q-61 43 -73 80l-64 -80q-36 -60 -120 -60q-85 0 -137 76q-36 103 -36 189l4 76l12 48q24 141 177 141l24 -97
l-28 -12q-65 -53 -65 -144l8 -52q0 -93 53 -93q36 0 88 40l24 24l16 13l56 100l12 -24q29 -56 61 -76l24 -41q29 -32 60 -40q28 0 52 52l36 69l-44 24q-44 12 -72 60l-4 36q0 22 -8 44q0 129 136 129q49 -12 85 -36q21 -25 28 -77l-4 -128l52 16q51 23 80 92z" />
    <glyph glyph-name="Dcaron" 
d="M-345 -963q7 -11 12 -18t8 -10l28 -16v84q-44 0 -48 -40zM-12 -1031q-16 -29 -41.5 -54.5t-62.5 -45.5l-68 -24q-45 -109 -95 -161t-98 -52q-36 0 -80 32l-32 32q-61 43 -73 80l-64 -80q-36 -60 -120 -60q-85 0 -137 76q-36 103 -36 189l4 76l12 48q24 141 177 141
l24 -97l-28 -12q-65 -53 -65 -144l8 -52q0 -93 53 -93q36 0 88 40l24 24l16 13l56 100l12 -24q29 -56 61 -76l24 -41q29 -32 60 -40q28 0 52 52l36 69l-44 24q-44 12 -72 60l-4 36q0 22 -8 44q0 129 136 129q49 -12 85 -36q21 -25 28 -77l-4 -128l52 16q51 23 80 92z" />
    <glyph glyph-name="dcaron" horiz-adv-x="1980" 
d="M1962 0h-167v959q-71 98 -170 188q-112 123 -156 100q-32 -10 -60.5 -19t-52.5 -18q-22 -8 -65.5 -29t-109.5 -53q-21 -23 -37 -32q-68 -44 -196 -44h-73l-44 12q-100 16 -172 72l-29 29q-88 60 -136 68q-34 0 -60 -20l-24 -28l-29 -49l-12 -40l33 -28q68 -56 136 -88
v-691q0 -84 48 -84q25 0 101 112l32 28q40 24 92 32q57 0 121 -52l28 -52q32 -48 64 -56q68 0 68 108v550h153v-751q0 -26 -9 -49t-27 -40.5t-46 -28t-67 -10.5l-64 4q-60 26 -124 129l-53 100l-24 28l-20 8q-14 -6 -24 -11t-16 -9l-24 -28l-24 -40q-60 -101 -149 -173
l-76 -8q-83 0 -121 68l-16 73v819q-23 17 -54.5 33.5t-73.5 30.5l-68 20l28 80q36 97 124 209l64 40q75 32 133 41q64 0 185 -109l40 -20q19 -8 30.5 -14t15.5 -8q5 -3 16.5 -12.5t29.5 -25.5q29 -13 50.5 -20.5t35.5 -11.5q31 -7 71 -12q60 0 96 42t36 98q-62 117 -144 169
l-64 28l-45 24q-36 28 -40 64q0 56 121 125q46 -20 83 -41t65 -44q149 -125 149 -313q0 -8 -0.5 -16t-0.5 -16q33 17 59.5 30t47.5 24q77 50 148 59l48 -4q66 -22 136 -86q58 -42 100 -86t74 -75l105 -107v-1052z" />
    <glyph glyph-name="Dslash" horiz-adv-x="1980" 
d="M1962 0h-168v960q-35 48 -77.5 94.5t-91.5 92.5q-112 123 -156 100q-32 -10 -60.5 -19t-52.5 -18q-22 -8 -65.5 -29t-109.5 -53q-21 -23 -37 -32q-68 -44 -196 -44h-73l-44 12q-100 16 -172 72l-29 29q-88 60 -136 68q-34 0 -60 -20l-24 -28l-29 -49l-12 -40l33 -28
q68 -56 136 -88v-691q0 -84 48 -84q25 0 101 112l32 28q40 24 92 32q57 0 121 -52l28 -52q32 -48 64 -56q68 0 68 108v550h153v-751q0 -26 -9 -49t-27 -40.5t-46 -28t-67 -10.5l-64 4q-60 26 -124 129l-53 100l-24 28l-20 8q-14 -6 -24 -11t-16 -9l-24 -28l-24 -40
q-60 -101 -149 -173l-76 -8q-83 0 -121 68l-16 73v819q-23 17 -54.5 33.5t-73.5 30.5l-68 20l28 80q36 97 124 209l64 40q75 32 133 41q64 0 185 -109l40 -20q19 -8 30.5 -14t15.5 -8q5 -3 16.5 -12.5t29.5 -25.5q29 -13 50.5 -20.5t35.5 -11.5q31 -7 71 -12q60 0 96 42
t36 98q-62 117 -144 169l-64 28l-45 24q-36 28 -40 64q0 56 121 125q46 -20 83 -41t65 -44q149 -125 149 -313q0 -8 -0.5 -16t-0.5 -16q33 17 59.5 30t47.5 24q77 50 148 59l48 -4q66 -22 136 -86q51 -37 89.5 -76t68.5 -70q8 9 15 5l8 210q0 98 -32 185q-24 67 -80 105
l-24 12q-52 31 -57 80q-5 39 25 70l31 20q42 15 80 15h13q41 -5 86 -34q55 -37 55 -200v-589l1 -1v-1052z" />
    <glyph glyph-name="Eogonek" unicode="&#x1788;" horiz-adv-x="2401" 
d="M759 305q-28 -88 -161 -209l-124 -100l-56 4q-58 10 -83 26q-11 7 -24.5 19t-29.5 31v1177q0 64 124 104q119 40 318 40q45 -4 96 -10t105 -22q204 -48 204 -140v-1076l77 -20l168 -21l93 12q36 13 80 57l4 779q0 10 -14.5 23.5t-41.5 28.5t-66.5 29.5t-90.5 26.5
q12 37 28 85t40 88q89 173 153 173l64 -21q20 -8 38 -14.5t34 -11.5q28 -10 121 -54l72 8q-24 -100 -58 -128t-82 -28q-28 0 -64 24l-29 24q-29 26 -76 40l-68 12l-60 -181l128 -28q129 -44 129 -132l4 -763l40 -16q110 -49 197 -49l112 12q44 12 80 53l4 799q0 24 -55.5 50
t-173.5 58q12 37 28.5 85t40.5 88q89 173 152 173l65 -21q20 -8 38 -14.5t34 -11.5q31 -11 120 -54l73 8q-24 -99 -59 -128q-34 -28 -82 -28q-28 0 -64 24l-28 24q-41 24 -81 36l-72 12l-60 -173l140 -24q145 -43 145 -128v-799q0 -48 -95 -95q-91 -46 -214 -46l-153 -4
q-80 0 -128 48l-24 48q-81 -48 -165 -72q-28 -6 -48 -10t-32 -6t-32 -3t-49 -1q-168 0 -333 72l-64 40v1065q0 48 -91 78q-90 30 -162 30q-85 0 -121 -6q-18 -3 -40 -9.5t-48 -16.5l-60 -36l-4 -619l52 4q100 0 169 -36q100 -55 100 -197zM578 309l20 52q0 33 -48 53
l-104 16l-4 -237q60 0 98 20t38 96z" />
    <glyph glyph-name="eogonek" horiz-adv-x="700" 
d="M-730 -722q-69 0 -105 21.5t-36 66.5v321q0 61 36 105q56 56 201 56l64 -4h44q69 0 125 -30t56 -135v-241l48 -28q68 -28 113 -28q40 0 68 14t52 54v362h144v-362l65 -36q72 -36 128 -36q40 0 74 18t43 62l4 1510l-13 28q-39 33 -200 80l68 173q80 173 149 173l76 -29
l185 -76l72 12q-12 -52 -27 -88t-33 -58.5t-38.5 -34.5t-42.5 -16q-25 0 -68 25l-28 28l-76 40l-57 12l-56 -109l125 -36q124 -48 128 -88v-1606l-52 -60q-72 -60 -189 -60h-36q-98 0 -201 52l-44 28q-32 -32 -92 -56l-100 -20l-76 -4q-133 0 -209 64q-11 10 -23 26t-25 38
v297q-61 49 -121 49q-48 0 -80 -29l-24 -32v-116l76 -24q76 -40 76 -93q0 -36 -38 -82t-130 -98zM-658 -558q0 36 -64 36v-64q52 0 64 28z" />
    <glyph glyph-name="Ecaron" horiz-adv-x="700" 
d="M-730 -1372q-69 0 -105 21.5t-36 66.5v321q0 61 36 105q56 56 201 56l64 -4h44q69 0 125 -30t56 -135v-241l48 -28q68 -28 113 -28q40 0 68 14t52 54v362h144v-362l65 -36q72 -36 128 -36q40 0 74 18t43 62l4 2160l-13 28q-39 33 -200 80l68 173q80 173 149 173l76 -29
l185 -76l72 12q-12 -52 -27 -88t-33 -58.5t-38.5 -34.5t-42.5 -16q-25 0 -68 25l-28 28l-76 40l-57 12l-56 -109l125 -36q124 -48 128 -88v-2256l-52 -60q-72 -60 -189 -60h-36q-98 0 -201 52l-44 28q-32 -32 -92 -56l-100 -20l-76 -4q-133 0 -209 64q-11 10 -23 26t-25 38
v297q-61 49 -121 49q-48 0 -80 -29l-24 -32v-116l76 -24q76 -40 76 -93q0 -36 -38 -82t-130 -98zM-658 -1208q0 36 -64 36v-64q52 0 64 28z" />
    <glyph glyph-name="ecaron" horiz-adv-x="3114" 
d="M3089 0h-167v959q-78 141 -150 201q-101 89 -184 76q-28 -4 -53 -9.5t-48 -13.5q-18 -7 -47.5 -20.5t-71.5 -35.5q-8 -7 -17 -11t-17 -7l-8 -4l1 2q-2 -1 -9 -1h-8q-30 0 -64 25l-32 28q-20 20 -68 32l-81 8l-56 -117q110 -12 145 -28q140 -36 148 -84v-218h3v-649
q0 -48 -95 -95q-91 -46 -214 -46l-77 -4q-157 0 -224 58l-34 18q-23 -13 -56.5 -26t-78.5 -26q-28 -6 -48 -10t-32 -6t-32 -3t-49 -1q-168 0 -333 72l-64 40v1065q0 48 -91 78q-90 30 -162 30q-85 0 -121 -6q-18 -3 -40 -9.5t-48 -16.5l-60 -36l-4 -619l52 4q100 0 169 -36
q100 -55 100 -197l-4 -56q-28 -88 -161 -209l-124 -100l-56 4q-58 10 -83 26q-11 7 -24.5 19t-29.5 31v1177q0 64 124 104q119 40 318 40q45 -4 96 -10t105 -22q204 -48 204 -140v-1076l77 -20l168 -21l93 12q36 13 80 57l2 779q1 10 -13 23.5t-41 28.5t-66.5 29.5
t-90.5 26.5q12 37 28 85t40 88q89 173 153 173l64 -21q20 -8 38 -14.5t34 -11.5q28 -10 121 -54l72 8q-24 -100 -58 -128t-82 -28q-28 0 -64 24l-29 24q-29 26 -76 40l-68 12l-60 -181l128 -28q129 -44 133 -132v-763l40 -16q51 -20 94.5 -32t82.5 -14l132 9q44 12 80 53
l1 649h1v158q0 23 -69 52q-10 4 -23 9t-29 11q-32 12 -120 36q12 37 28 85t40 88q89 173 198 173l36 -16q32 -28 63 -48.5t60 -34.5q60 -27 79 -9l18 6q20 12 55.5 33.5t89.5 52.5l59 15q89 -15 190 -97q57 -45 98 -85t69 -76l105 -107v-1052zM601 322l-3 39q0 33 -48 53
l-104 16l-4 -237q60 0 98 20t61 109z" />
    <glyph glyph-name="Lacute" horiz-adv-x="1365" 
d="M1343 0h-167v1009q-43 90 -160 171q-89 69 -174 56q-28 -4 -53 -9.5t-48 -13.5q-18 -7 -47.5 -20.5t-71.5 -35.5q-8 -7 -17 -11t-17 -7l-8 -4l1 2q-2 -1 -9 -1h-8q-30 0 -64 25l-32 28q-20 20 -68 32l-81 8l-56 -117q110 -12 145 -28q140 -36 148 -84v-217l2 1v-1386
l-52 -60q-72 -60 -189 -60h-36q-98 0 -201 52l-44 28q-32 -32 -92 -56l-100 -20l-76 -4q-133 0 -209 64q-11 10 -23 26t-25 38v297q-61 49 -121 49q-48 0 -80 -29l-24 -32v-116l76 -24q76 -40 76 -93q0 -36 -38 -82t-130 -98q-69 0 -105 21.5t-36 66.5v321q0 61 36 105
q56 56 201 56l64 -4h44q69 0 125 -30t56 -135v-241l48 -28q68 -28 113 -28q40 0 68 14t52 54v362h144v-362l65 -36q72 -36 128 -36q40 0 74 18t43 62l3 1290h3v216q0 23 -69 52q-10 4 -23 9t-29 11q-32 12 -120 36q12 37 28 85t40 88q89 173 198 173l36 -16q32 -28 63 -48.5
t60 -34.5q60 -27 79 -9l18 6q20 12 55.5 33.5t89.5 52.5l59 15q83 -15 185 -57q60 -38 102 -76t70 -75l105 -107v-1102zM-658 -558q0 36 -64 36v-64q52 0 64 28z" />
    <glyph glyph-name="lacute" horiz-adv-x="1372" 
d="M1343 0h-167v1009q-43 90 -160 171q-89 69 -174 56q-28 -4 -53 -9.5t-48 -13.5q-18 -7 -47.5 -20.5t-71.5 -35.5q-8 -7 -17 -11t-17 -7l-8 -4l1 2q-2 -1 -9 -1h-8q-30 0 -64 25l-32 28q-20 20 -68 32l-81 8l-56 -117q110 -12 145 -28q140 -36 148 -84v-217l2 1v-1996
l-52 -60q-72 -60 -189 -60h-36q-98 0 -201 52l-44 28q-32 -32 -92 -56l-100 -20l-76 -4q-133 0 -209 64q-11 10 -23 26t-25 38v297q-61 49 -121 49q-48 0 -80 -29l-24 -32v-116l76 -24q76 -40 76 -93q0 -36 -38 -82t-130 -98q-69 0 -105 21.5t-36 66.5v321q0 61 36 105
q56 56 201 56l64 -4h44q69 0 125 -30t56 -135v-241l48 -28q68 -28 113 -28q40 0 68 14t52 54v362h144v-362l65 -36q72 -36 128 -36q40 0 74 18t43 62l3 1900h3v216q0 23 -69 52q-10 4 -23 9t-29 11q-32 12 -120 36q12 37 28 85t40 88q89 173 198 173l36 -16q32 -28 63 -48.5
t60 -34.5q60 -27 79 -9l18 6q20 12 55.5 33.5t89.5 52.5l59 15q83 -15 185 -57q60 -38 102 -76t70 -75l105 -107v-1102zM-658 -1168q0 36 -64 36v-64q52 0 64 28z" />
    <glyph glyph-name="Lcaron" horiz-adv-x="3118" 
d="M3089 0h-168v960q-78 140 -149 200q-101 89 -184 76q-28 -4 -53 -9.5t-48 -13.5q-18 -7 -47.5 -20.5t-71.5 -35.5q-8 -7 -17 -11t-17 -7l-8 -4l1 2q-2 -1 -9 -1h-8q-30 0 -64 25l-32 28q-20 20 -68 32l-81 8l-56 -117q110 -12 145 -28q140 -36 148 -84v-218h3v-649
q0 -48 -95 -95q-91 -46 -214 -46l-77 -4q-157 0 -224 58l-34 18q-23 -13 -56.5 -26t-78.5 -26q-28 -6 -48 -10t-32 -6t-32 -3t-49 -1q-168 0 -333 72l-64 40v1065q0 48 -91 78q-90 30 -162 30q-85 0 -121 -6q-18 -3 -40 -9.5t-48 -16.5l-60 -36l-4 -619l52 4q100 0 169 -36
q100 -55 100 -197l-4 -56q-28 -88 -161 -209l-124 -100l-56 4q-58 10 -83 26q-11 7 -24.5 19t-29.5 31v1177q0 64 124 104q119 40 318 40q45 -4 96 -10t105 -22q204 -48 204 -140v-1076l77 -20l168 -21l93 12q36 13 80 57l2 779q1 10 -13 23.5t-41 28.5t-66.5 29.5
t-90.5 26.5q12 37 28 85t40 88q89 173 153 173l64 -21q20 -8 38 -14.5t34 -11.5q28 -10 121 -54l72 8q-24 -100 -58 -128t-82 -28q-28 0 -64 24l-29 24q-29 26 -76 40l-68 12l-60 -181l128 -28q129 -44 133 -132v-763l40 -16q51 -20 94.5 -32t82.5 -14l132 9q44 12 80 53
l1 649h1v158q0 23 -69 52q-10 4 -23 9t-29 11q-32 12 -120 36q12 37 28 85t40 88q89 173 198 173l36 -16q32 -28 63 -48.5t60 -34.5q60 -27 79 -9l18 6q20 12 55.5 33.5t89.5 52.5l59 15q89 -15 190 -97q51 -38 88 -74t65 -70q6 7 13 3l8 210q0 98 -32 185q-24 67 -80 105
l-24 12q-52 31 -57 80q-5 39 25 70l31 20q42 15 80 15h13q41 -5 86 -34q55 -37 55 -200v-589l1 -1v-1052zM601 322l-3 39q0 33 -48 53l-104 16l-4 -237q60 0 98 20t61 109z" />
    <glyph glyph-name="lcaron" horiz-adv-x="1368" 
d="M1343 0h-168v960q-78 140 -149 200q-101 89 -184 76q-28 -4 -53 -9.5t-48 -13.5q-18 -7 -47.5 -20.5t-71.5 -35.5q-8 -7 -17 -11t-17 -7l-8 -4l1 2q-2 -1 -9 -1h-8q-30 0 -64 25l-32 28q-20 20 -68 32l-81 8l-56 -117q110 -12 145 -28q140 -36 148 -84v-217l2 1v-1386
l-52 -60q-72 -60 -189 -60h-36q-98 0 -201 52l-44 28q-32 -32 -92 -56l-100 -20l-76 -4q-133 0 -209 64q-11 10 -23 26t-25 38v297q-61 49 -121 49q-48 0 -80 -29l-24 -32v-116l76 -24q76 -40 76 -93q0 -36 -38 -82t-130 -98q-69 0 -105 21.5t-36 66.5v321q0 61 36 105
q56 56 201 56l64 -4h44q69 0 125 -30t56 -135v-241l48 -28q68 -28 113 -28q40 0 68 14t52 54v362h144v-362l65 -36q72 -36 128 -36q40 0 74 18t43 62l3 1290h3v216q0 23 -69 52q-10 4 -23 9t-29 11q-32 12 -120 36q12 37 28 85t40 88q89 173 198 173l36 -16q32 -28 63 -48.5
t60 -34.5q60 -27 79 -9l18 6q20 12 55.5 33.5t89.5 52.5l59 15q89 -15 190 -97q51 -38 88 -74t65 -70q6 7 13 3l8 210q0 98 -32 185q-24 67 -80 105l-24 12q-52 31 -57 80q-5 39 25 70l31 20q42 15 80 15h13q41 -5 86 -34q55 -37 55 -200v-589l1 -1v-1052zM-658 -558
q0 36 -64 36v-64q52 0 64 28z" />
    <glyph glyph-name="Ldot" horiz-adv-x="1372" 
d="M1343 0h-168v960q-78 140 -149 200q-101 89 -184 76q-28 -4 -53 -9.5t-48 -13.5q-18 -7 -47.5 -20.5t-71.5 -35.5q-8 -7 -17 -11t-17 -7l-8 -4l1 2q-2 -1 -9 -1h-8q-30 0 -64 25l-32 28q-20 20 -68 32l-81 8l-56 -117q110 -12 145 -28q140 -36 148 -84v-217l2 1v-1996
l-52 -60q-72 -60 -189 -60h-36q-98 0 -201 52l-44 28q-32 -32 -92 -56l-100 -20l-76 -4q-133 0 -209 64q-11 10 -23 26t-25 38v297q-61 49 -121 49q-48 0 -80 -29l-24 -32v-116l76 -24q76 -40 76 -93q0 -36 -38 -82t-130 -98q-69 0 -105 21.5t-36 66.5v321q0 61 36 105
q56 56 201 56l64 -4h44q69 0 125 -30t56 -135v-241l48 -28q68 -28 113 -28q40 0 68 14t52 54v362h144v-362l65 -36q72 -36 128 -36q40 0 74 18t43 62l3 1900h3v216q0 23 -69 52q-10 4 -23 9t-29 11q-32 12 -120 36q12 37 28 85t40 88q89 173 198 173l36 -16q32 -28 63 -48.5
t60 -34.5q60 -27 79 -9l18 6q20 12 55.5 33.5t89.5 52.5l59 15q89 -15 190 -97q51 -38 88 -74t65 -70q6 7 13 3l8 210q0 98 -32 185q-24 67 -80 105l-24 12q-52 31 -57 80q-5 39 25 70l31 20q42 15 80 15h13q41 -5 86 -34q55 -37 55 -200v-589l1 -1v-1052zM-658 -1168
q0 36 -64 36v-64q52 0 64 28z" />
    <glyph glyph-name="ldot" unicode="&#x1789;" horiz-adv-x="1814" 
d="M1124 -582q-80 105 -150 151t-119 46q-40 0 -60 -20l-16 -20l-68 64l16 36q32 36 112 60q163 0 249 -80l137 -144l52 -57q72 -60 161 -60l64 8q60 43 60 101q0 20 -64 32q-60 0 -72 64q0 157 132 157q43 0 96 -30q53 -32 77 -123q0 -112 -30 -178.5t-99 -94.5l-92 -40
q-24 -12 -64 -12q-73 0 -131 18t-118 58q-32 20 -73 64zM438 398v-237q44 0 76 62t32 114q0 35 -48 49zM1076 1165q-43 76 -128 76l-105 -72q-70 -49 -104 -49l-105 77q-52 40 -80 40q-20 0 -62 -45q-42 -44 -54 -88l4 -582l48 4q74 0 124 -32q73 -48 73 -165
q-13 -66 -28.5 -118t-32.5 -91q-17 -50 -68 -92l-72 -24q-138 0 -181 96l-24 121v972q0 36 92 128q93 84 153 93q55 0 117 -45l116 -88l32 -12q10 6 18 11t14 9q22 14 44.5 32.5t45.5 41.5q47 47 95 47q57 0 82 -13q26 -12 58 -68l69 -116l76 96q101 101 205 101l52 4l60 -4
l57 -25l36 -24l40 -36q40 -58 40 -124v-1193h-149v1124l-24 65q-36 68 -120 68l-48 -8q-49 0 -121 -88l-60 -93v-1072h-169l4 1076z" />
    <glyph glyph-name="Nacute" horiz-adv-x="1807" 
d="M438 398v-237q44 0 76 62t32 114q0 35 -48 49zM1076 1165q-43 76 -128 76l-105 -72q-70 -49 -104 -49l-105 77q-52 40 -80 40q-20 0 -62 -45q-42 -44 -54 -88l4 -582l48 4q74 0 124 -32q73 -48 73 -165q-13 -66 -28.5 -118t-32.5 -91q-17 -50 -68 -92l-72 -24
q-138 0 -181 96l-24 121v972q0 36 92 128q93 84 153 93q55 0 117 -45l116 -88l32 -12q10 6 18 11t14 9q22 14 44.5 32.5t45.5 41.5q47 47 95 47q57 0 82 -13q26 -12 58 -68l69 -116l76 96q101 101 205 101l52 4l60 -4l57 -25l36 -24l40 -36q40 -58 40 -124v-1193h-149v1124
l-24 65q-36 68 -120 68l-48 -8q-49 0 -121 -88l-60 -93v-1072h-169l4 1076z" />
    <glyph glyph-name="nacute" 
d="M-762 -542q-81 100 -153 153q-60 36 -113 44q-41 0 -60 -16l-20 -20l-68 64l8 16q29 49 124 77q165 0 249 -81l137 -144l52 -56q76 -57 161 -57l60 4q64 52 64 105q0 20 -60 28q-60 0 -76 64q0 161 128 161q69 0 111 -40.5t66 -116.5q0 -36 -1 -61.5t-3 -40.5
q-4 -30 -28 -71q-29 -65 -89 -100l-84 -32l-80 -16q-161 0 -285 96z" />
    <glyph glyph-name="Ncaron" 
d="M-762 -1152q-81 100 -153 153q-60 36 -113 44q-41 0 -60 -16l-20 -20l-68 64l8 16q29 49 124 77q165 0 249 -81l137 -144l52 -56q76 -57 161 -57l60 4q64 52 64 105q0 20 -60 28q-60 0 -76 64q0 161 128 161q69 0 111 -40.5t66 -116.5q0 -36 -1 -61.5t-3 -40.5
q-4 -30 -28 -71q-29 -65 -89 -100l-84 -32l-80 -16q-161 0 -285 96z" />
    <glyph glyph-name="ncaron" 
d="M-578 -1040q-64 69 -120 99t-105 38q-40 0 -60 -20l-8 -8l-60 44q8 20 32 36l80 32q142 0 209 -52l121 -104l48 -40q68 -41 136 -41l53 4q45 39 52 73q-14 8 -27 13t-25 7q-48 0 -65 44q0 108 113 108q119 0 148 -104q0 -148 -104 -189l-72 -28l-69 -8q-116 0 -213 48z
M-1044 -614l25 12l12 8l-8 20l-29 16v-56zM-52 -433v-281l-132 -8v237q0 92 -36 136q-30 24 -101 32l-48 -4q-52 0 -88 -30t-44 -90v-273h-145v221q0 156 -52 156q-12 -4 -22 -8t-26 -16l-69 -56l-32 -8q-28 0 -60 32l-72 52l-24 4q-21 -24 -25 -44l-8 -100l57 -28
q52 -32 56 -81q0 -36 -48 -72l-101 -60q-72 0 -104 44l-16 44v257q4 26 9 46t11 34q40 81 144 101q4 -4 9 -4q14 -8 28 -18t28 -22l76 -61l32 -4q23 0 52 32q61 73 89 77q69 0 118.5 -30t73.5 -99q29 77 71 103q44 26 118 26q104 -12 141 -28q140 -62 140 -209z" />
    <glyph glyph-name="Odblacute" 
d="M-578 -1353q-64 57 -120 82.5t-105 31.5q-41 0 -60 -16l-8 -7l-60 37q8 17 32 30l80 27q141 0 209 -44l121 -87l48 -34q67 -34 136 -34l53 4q44 31 52 60q-35 14 -52 17q-49 0 -65 37q0 91 113 91q119 0 148 -87q0 -124 -104 -159l-72 -23l-69 -7q-110 0 -213 41z
M-1044 -1046l25 10l12 6l-8 17l-29 14v-47zM-52 -895v-236l-132 -6v198q0 77 -36 115q-32 20 -101 27l-48 -4q-52 0 -88 -25t-44 -76v-229h-145v186q0 131 -52 131q-12 -3 -22 -6.5t-26 -13.5l-69 -47l-32 -7q-29 0 -60 27l-72 44l-24 3q-21 -21 -25 -37l-8 -84l57 -24
q51 -26 56 -67q0 -30 -48 -61l-101 -50q-73 0 -104 37l-16 37v215q4 22 8.5 38.5t11.5 29.5q40 67 144 84q4 -4 9 -4q14 -7 28 -15t28 -18l76 -51l32 -3q23 0 52 27q61 60 89 64q69 0 118.5 -25.5t73.5 -82.5q29 64 71 86q40 22 118 22q97 -11 141 -24q140 -50 140 -175z
" />
    <glyph glyph-name="odblacute" horiz-adv-x="2483" 
d="M2462 0h-167v959q-44 141 -185 272q-70 57 -117 19q-72 -39 -122 -83.5t-88 -89.5v-1069h-149v1124l-24 65q-36 68 -120 68l-48 -8q-49 0 -121 -88l-60 -93v-1072h-169l4 1076l-20 85q-43 76 -128 76l-105 -72q-70 -49 -104 -49l-105 77q-52 40 -80 40q-20 0 -62 -45
q-42 -44 -54 -88l4 -582l48 4q74 0 124 -32q73 -48 73 -165q-13 -66 -28.5 -118t-32.5 -91q-17 -50 -68 -92l-72 -24q-138 0 -181 96l-24 121v972q0 36 92 128q93 84 153 93q55 0 117 -45l116 -88l32 -12q10 6 18 11t14 9q22 14 44.5 32.5t45.5 41.5q47 47 95 47
q57 0 82 -13q26 -12 58 -68l69 -116l76 96q101 101 205 101l52 4l60 -4l57 -25l36 -24l40 -36q28 -42 36 -86q70 78 176 130q45 33 106 33l30 -1q52 0 124 -54q66 -51 116.5 -99t72.5 -78l58 -67v-1103zM1124 -582q-80 105 -150 151t-119 46q-40 0 -60 -20l-16 -20l-68 64
l16 36q32 36 112 60q163 0 249 -80l137 -144l52 -57q72 -60 161 -60l64 8q60 43 60 101q0 20 -64 32q-60 0 -72 64q0 157 132 157q43 0 96 -30q53 -32 77 -123q0 -112 -30 -178.5t-99 -94.5l-92 -40q-24 -12 -64 -12q-73 0 -131 18t-118 58q-32 20 -73 64zM438 398v-237
q44 0 76 62t32 114q0 35 -48 49z" />
    <glyph glyph-name="Racute" horiz-adv-x="2486" 
d="M2462 0h-167v959q-44 141 -185 272q-70 57 -117 19q-72 -39 -122 -83.5t-88 -89.5v-1069h-149v1124l-24 65q-36 68 -120 68l-48 -8q-49 0 -121 -88l-60 -93v-1072h-169l4 1076l-20 85q-43 76 -128 76l-105 -72q-70 -49 -104 -49l-105 77q-52 40 -80 40q-20 0 -62 -45
q-42 -44 -54 -88l4 -582l48 4q74 0 124 -32q73 -48 73 -165q-13 -66 -28.5 -118t-32.5 -91q-17 -50 -68 -92l-72 -24q-138 0 -181 96l-24 121v972q0 36 92 128q93 84 153 93q55 0 117 -45l116 -88l32 -12q10 6 18 11t14 9q22 14 44.5 32.5t45.5 41.5q47 47 95 47
q57 0 82 -13q26 -12 58 -68l69 -116l76 96q101 101 205 101l52 4l60 -4l57 -25l36 -24l40 -36q28 -42 36 -86q70 78 176 130q45 33 106 33l30 -1q52 0 124 -54q66 -51 116.5 -99t72.5 -78l58 -67v-1103zM438 398v-237q44 0 76 62t32 114q0 35 -48 49z" />
    <glyph glyph-name="racute" horiz-adv-x="2486" 
d="M2462 0h-168v961q-43 138 -184 270q-70 57 -117 19q-72 -39 -122 -83.5t-88 -89.5v-1069h-149v1124l-24 65q-36 68 -120 68l-48 -8q-49 0 -121 -88l-60 -93v-1072h-169l4 1076l-20 85q-43 76 -128 76l-105 -72q-70 -49 -104 -49l-105 77q-52 40 -80 40q-20 0 -62 -45
q-42 -44 -54 -88l4 -582l48 4q74 0 124 -32q73 -48 73 -165q-13 -66 -28.5 -118t-32.5 -91q-17 -50 -68 -92l-72 -24q-138 0 -181 96l-24 121v972q0 36 92 128q93 84 153 93q55 0 117 -45l116 -88l32 -12q10 6 18 11t14 9q22 14 44.5 32.5t45.5 41.5q47 47 95 47
q57 0 82 -13q26 -12 58 -68l69 -116l76 96q101 101 205 101l52 4l60 -4l57 -25l36 -24l40 -36q28 -42 36 -86q70 78 176 130q45 33 106 33l30 -1q52 0 124 -54q42 -33 79 -65t64 -60l6 167q0 98 -32 185q-24 67 -80 105l-24 12q-52 31 -57 80q-5 39 25 70l31 20q42 15 80 15
h13q41 -5 86 -34q55 -37 55 -200v-538l1 -1v-1103zM1124 -582q-80 105 -150 151t-119 46q-40 0 -60 -20l-16 -20l-68 64l16 36q32 36 112 60q163 0 249 -80l137 -144l52 -57q72 -60 161 -60l64 8q60 43 60 101q0 20 -64 32q-60 0 -72 64q0 157 132 157q43 0 96 -30
q53 -32 77 -123q0 -112 -30 -178.5t-99 -94.5l-92 -40q-24 -12 -64 -12q-73 0 -131 18t-118 58q-32 20 -73 64zM438 398v-237q44 0 76 62t32 114q0 35 -48 49z" />
    <glyph glyph-name="Rcaron" horiz-adv-x="2490" 
d="M2462 0h-168v961q-43 138 -184 270q-70 57 -117 19q-72 -39 -122 -83.5t-88 -89.5v-1069h-149v1124l-24 65q-36 68 -120 68l-48 -8q-49 0 -121 -88l-60 -93v-1072h-169l4 1076l-20 85q-43 76 -128 76l-105 -72q-70 -49 -104 -49l-105 77q-52 40 -80 40q-20 0 -62 -45
q-42 -44 -54 -88l4 -582l48 4q74 0 124 -32q73 -48 73 -165q-13 -66 -28.5 -118t-32.5 -91q-17 -50 -68 -92l-72 -24q-138 0 -181 96l-24 121v972q0 36 92 128q93 84 153 93q55 0 117 -45l116 -88l32 -12q10 6 18 11t14 9q22 14 44.5 32.5t45.5 41.5q47 47 95 47
q57 0 82 -13q26 -12 58 -68l69 -116l76 96q101 101 205 101l52 4l60 -4l57 -25l36 -24l40 -36q28 -42 36 -86q70 78 176 130q45 33 106 33l30 -1q52 0 124 -54q42 -33 79 -65t64 -60l6 167q0 98 -32 185q-24 67 -80 105l-24 12q-52 31 -57 80q-5 39 25 70l31 20q42 15 80 15
h13q41 -5 86 -34q55 -37 55 -200v-538l1 -1v-1103zM438 398v-237q44 0 76 62t32 114q0 35 -48 49z" />
    <glyph glyph-name="rcaron" unicode="&#x178a;" horiz-adv-x="1192" 
d="M554 197l72 96l109 97l185 -153l44 -68l12 -8l20 28l16 48v594l161 4v-731q-8 -40 -20 -52q-40 -52 -117 -52l-36 4l-80 28l-181 189l-181 -201l-144 -16q-73 0 -93 20l-32 44v759h169v-558l4 -72q4 -16 28 -20l32 4zM450 1249l-40 8q-48 0 -53 -44q0 -48 57 -73
q37 0 44 49zM787 1040q91 0 153 48q88 81 88 277q0 49 -12 81l-24 40l-68 -12q-61 0 -87 24t-34 76l4 48l12 36q36 45 101 45q41 0 112 -20l32 -12l36 -25q89 -89 89 -232l4 -105q0 -201 -77 -293q-52 -64 -116 -64l-137 -40l-156 -12l-69 -5l-80 5q-86 0 -197 52l-52 28
q-36 36 -48 108l-20 113q0 82 40 140q40 60 121 60l64 4q44 0 92 -30t72 -98q0 -86 -20 -155q-20 -62 -96 -78l64 -16l81 -4h44z" />
    <glyph glyph-name="Sacute" 
d="M-734 -722h-61q-89 0 -114 24t-30 56v245q0 104 129 157q122 52 280 52q173 0 302 -48q128 -50 128 -161v-325h-161v317q0 40 -96 76q-56 16 -94 22t-79 6q-18 0 -37 -1t-39 -3t-47 -7.5t-61 -14.5q-68 -18 -73 -62v-72q55 0 135 -20q74 -20 74 -113q-8 -48 -54 -84
q-45 -36 -102 -44zM-795 -634q101 0 101 48q0 20 -36 32l-65 12v-92z" />
    <glyph glyph-name="sacute" 
d="M-734 -1352h-61q-89 0 -114 24t-30 56v245q0 104 129 157q122 52 280 52q173 0 302 -48q128 -50 128 -161v-325h-161v317q0 40 -96 76q-56 16 -94 22t-79 6q-18 0 -37 -1t-39 -3t-47 -7.5t-61 -14.5q-68 -18 -73 -62v-72q55 0 135 -20q74 -20 74 -113q-8 -48 -54 -84
q-45 -36 -102 -44zM-795 -1264q101 0 101 48q0 20 -36 32l-65 12v-92z" />
    <glyph glyph-name="Tcedilla" horiz-adv-x="1885" 
d="M1872 0h-167v959q-71 98 -170 188q-112 123 -156 100q-32 -10 -60.5 -19t-52.5 -18q-14 -5 -35 -14.5t-50 -23.5q-18 -97 -65 -156q-52 -64 -116 -64l-137 -40l-156 -12l-69 -5l-80 5q-86 0 -197 52l-52 28q-36 36 -48 108l-20 113q0 82 40 140q40 60 121 60l64 4
q44 0 92 -30t72 -98q0 -86 -20 -155q-20 -62 -96 -78l64 -16l81 -4h44l84 16q91 0 153 48q88 81 88 277q0 49 -12 81l-24 40l-68 -12q-61 0 -87 24t-34 76l4 48l12 36q36 45 101 45q41 0 112 -20l32 -12l36 -25q89 -89 89 -232l3 -98q20 11 37.5 19.5t31.5 15.5
q77 50 148 59l48 -4q66 -22 136 -86q58 -42 100 -86t74 -75l105 -107v-1052zM554 197l72 96l109 97l185 -153l44 -68l12 -8l20 28l16 48v594l161 4v-731q-8 -40 -20 -52q-40 -52 -117 -52l-36 4l-80 28l-181 189l-181 -201l-144 -16q-73 0 -93 20l-32 44v759h169v-558l4 -72
q4 -16 28 -20l32 4zM450 1249l-40 8q-48 0 -53 -44q0 -48 57 -73q37 0 44 49z" />
    <glyph glyph-name="tcedilla" horiz-adv-x="1885" 
d="M1872 0h-168v960q-35 48 -77.5 94.5t-91.5 92.5q-112 123 -156 100q-32 -10 -60.5 -19t-52.5 -18q-14 -5 -35 -14.5t-50 -23.5q-18 -97 -65 -156q-52 -64 -116 -64l-137 -40l-156 -12l-69 -5l-80 5q-86 0 -197 52l-52 28q-36 36 -48 108l-20 113q0 82 40 140
q40 60 121 60l64 4q44 0 92 -30t72 -98q0 -86 -20 -155q-20 -62 -96 -78l64 -16l81 -4h44l84 16q91 0 153 48q88 81 88 277q0 49 -12 81l-24 40l-68 -12q-61 0 -87 24t-34 76l4 48l12 36q36 45 101 45q41 0 112 -20l32 -12l36 -25q89 -89 89 -232l3 -98q20 11 37.5 19.5
t31.5 15.5q77 50 148 59l48 -4q66 -22 136 -86q51 -37 89.5 -76t68.5 -70q8 9 15 5l8 210q0 98 -32 185q-24 67 -80 105l-24 12q-52 31 -57 80q-5 39 25 70l31 20q42 15 80 15h13q41 -5 86 -34q55 -37 55 -200v-589l1 -1v-1052zM554 197l72 96l109 97l185 -153l44 -68l12 -8
l20 28l16 48v594l161 4v-731q-8 -40 -20 -52q-40 -52 -117 -52l-36 4l-80 28l-181 189l-181 -201l-144 -16q-73 0 -93 20l-32 44v759h169v-558l4 -72q4 -16 28 -20l32 4zM450 1249l-40 8q-48 0 -53 -44q0 -48 57 -73q37 0 44 49z" />
    <glyph glyph-name="Tcaron" unicode="&#x178b;" horiz-adv-x="1389" 
d="M1369 1297q-36 -84 -88 -124q-34 -25 -76 -25q-22 0 -65 25l-28 24q-31 28 -72 40l-60 12l-56 -125l172 -68q165 -72 173 -120v-779q0 -97 -92 -133q-53 -17 -115 -18q-31 -1 -55.5 -1.5t-42.5 -0.5h-125l-160 -4h-45q-92 0 -134 18t-90 98v731l-12 28l-25 25l-12 -13
l-24 -32q0 -48 16 -64l28 -20q0 -39 -20 -56l-32 -8q-33 0 -64 36q-24 36 -24 96q0 69 56 125t145 56l52 -8q84 -12 84 -108v-739l16 -20q55 -49 185 -49l112 8l141 16q84 21 84 77v719q-4 6 -8.5 12.5t-11.5 13.5q-10 14 -56 42q-92 60 -225 88l60 173q74 173 141 173
l56 -21q20 -8 37.5 -14.5t32.5 -11.5q31 -11 99 -42q40 0 64 56l8 57q0 36 -22 70q-23 34 -78 38l-117 -12q-28 0 -40 12q-36 31 -36 88q0 42 16 73q31 60 129 60l76 -8q80 -20 124 -95q45 -74 45 -162l4 -44q0 -55 -7 -79q-3 -14 -12.5 -35.5t-25.5 -50.5z" />
    <glyph glyph-name="tcaron" 
d="M-819 -240h755v-149h-60v-169q0 -53 -24 -84q-48 -72 -141 -72q-22 0 -44 8l-36 12l-161 152l-168 -152q-17 -7 -41 -11.5t-56 -8.5q-85 0 -128 84l-20 88v185q12 32 44 73q32 40 80 44zM-265 -522v145h-538v-137l8 -32q16 -16 33 -16q24 0 80 44l152 85l153 -89l28 -24
q36 -24 60 -24t24 48z" />
    <glyph glyph-name="Uring" 
d="M-819 -820h755v-149h-60v-169q0 -53 -24 -84q-48 -72 -141 -72q-22 0 -44 8l-36 12l-161 152l-168 -152q-17 -7 -41 -11.5t-56 -8.5q-85 0 -128 84l-20 88v185q12 32 44 73q32 40 80 44zM-265 -1102v145h-538v-137l8 -32q16 -16 33 -16q24 0 80 44l152 85l153 -89l28 -24
q36 -24 60 -24t24 48z" />
    <glyph glyph-name="uring" horiz-adv-x="1990" 
d="M1972 0h-167v999q-71 98 -158 176q-101 95 -165 76q-66 -22 -111.5 -39.5t-68.5 -19.5q-5 -5 -10.5 -10t-10.5 -9q-34 -25 -76 -25q-22 0 -65 25l-28 24q-31 28 -72 40l-60 12l-56 -125l172 -68q165 -72 173 -120v-779q0 -97 -92 -133q-53 -17 -115 -18
q-31 -1 -55.5 -1.5t-42.5 -0.5h-125l-160 -4h-45q-92 0 -134 18t-90 98v731l-12 28l-25 25l-12 -13l-24 -32q0 -48 16 -64l28 -20q0 -39 -20 -56l-32 -8q-33 0 -64 36q-24 36 -24 96q0 69 56 125t145 56l52 -8q84 -12 84 -108v-739l16 -20q55 -49 185 -49l112 8l141 16
q84 21 84 77v719q-4 6 -8.5 12.5t-11.5 13.5q-10 14 -56 42q-92 60 -225 88l60 173q74 173 141 173l56 -21q20 -8 37.5 -14.5t32.5 -11.5q31 -11 99 -42q40 0 64 56l8 57q0 36 -22 70q-23 34 -78 38l-117 -12q-28 0 -40 12q-36 31 -36 88q0 42 16 73q31 60 129 60l76 -8
q80 -20 124 -95q45 -74 45 -162l4 -44q0 -55 -7 -79q-2 -12 -8.5 -27.5t-16.5 -35.5q91 35 139.5 54.5t59.5 21.5q19 6 44 6t75 -42q51 -42 93 -86t74 -75l105 -107v-1092z" />
    <glyph glyph-name="Udblacute" horiz-adv-x="1990" 
d="M1972 0h-168v960q-69 94 -166 197q-92 113 -156 94q-66 -22 -111.5 -39.5t-68.5 -19.5q-5 -5 -10.5 -10t-10.5 -9q-34 -25 -76 -25q-22 0 -65 25l-28 24q-31 28 -72 40l-60 12l-56 -125l172 -68q165 -72 173 -120v-779q0 -97 -92 -133q-53 -17 -115 -18
q-31 -1 -55.5 -1.5t-42.5 -0.5h-125l-160 -4h-45q-92 0 -134 18t-90 98v731l-12 28l-25 25l-12 -13l-24 -32q0 -48 16 -64l28 -20q0 -39 -20 -56l-32 -8q-33 0 -64 36q-24 36 -24 96q0 69 56 125t145 56l52 -8q84 -12 84 -108v-739l16 -20q55 -49 185 -49l112 8l141 16
q84 21 84 77v719q-4 6 -8.5 12.5t-11.5 13.5q-10 14 -56 42q-92 60 -225 88l60 173q74 173 141 173l56 -21q20 -8 37.5 -14.5t32.5 -11.5q31 -11 99 -42q40 0 64 56l8 57q0 36 -22 70q-23 34 -78 38l-117 -12q-28 0 -40 12q-36 31 -36 88q0 42 16 73q31 60 129 60l76 -8
q80 -20 124 -95q45 -74 45 -162l4 -44q0 -55 -7 -79q-2 -12 -8.5 -27.5t-16.5 -35.5q91 35 139.5 54.5t59.5 21.5q19 6 44 6t75 -62q45 -54 82.5 -95t68.5 -71q8 9 15 5l8 210q0 98 -32 185q-24 67 -80 105l-24 12q-52 31 -57 80q-5 39 25 70l31 20q42 15 80 15h13
q41 -5 86 -34q55 -37 55 -200v-589l1 -1v-1052z" />
    <glyph glyph-name="udblacute" unicode="&#x178c;" horiz-adv-x="1168" 
d="M558 550q-68 0 -86 -22q-18 -21 -26 -70l4 -28v-253q8 -28 20 -40q36 -45 112 -45q50 0 89 16q116 0 233 105q12 10 22 20t18 20q16 22 29 39t23 29v269l161 73v-807l-53 -72q-68 -74 -144 -93l-89 101q29 0 93 76l28 40v249q-34 -36 -173 -97q-18 -8 -41 -16.5
t-51 -17.5q-26 -8 -49.5 -14t-43.5 -8q-341 0 -341 169v365q0 100 76 100l165 29q78 12 141 40l192 68q133 48 133 88v378q-8 28 -16 36l-36 16l-36 -16q-67 0 -141 -68q-29 -20 -60 -69q-8 23 -77 69l-120 60l-44 8q-36 0 -40 -52v-253l24 -32q20 -28 56 -32q44 0 60 64
l-20 36l12 20l32 16q38 0 82 -14q39 -14 39 -62q0 -28 -32 -81q0 -48 -73 -72l-172 -16q-105 12 -131 38t-26 103v325q0 36 38 72q37 36 75 48l40 16l56 13q56 0 118 -35q64 -34 123 -146l16 52q68 125 241 125l60 -5q84 -12 104 -42q21 -30 21 -114v-378q0 -68 -205 -176
l-237 -97z" />
    <glyph glyph-name="Zacute" 
d="M-678 -361l64 8l12 -8l8 -52l-4 -16q-24 -48 -108 -48q-14 0 -30 5t-32 13.5t-30.5 20t-24.5 25.5q-24 19 -24 52q0 51 44 113q32 44 109 44q20 0 36 -1t28 -3t32 -9t48 -19l117 -33l96 53q17 7 40 11.5t53 8.5l48 -8l68 -48q36 -29 40 -53q0 -108 -128 -176
q-54 -28 -117 -46.5t-136 -26.5l-93 -16q-96 -24 -96 -52l8 -12q0 -4 4 -4q14 -10 30 -17t34 -11l117 -16l108 36q108 48 113 104l132 37v-261h-145v80q-32 -32 -108 -52l-132 -20l-85 4h-44q-87 0 -122 26q-35 25 -63 78l-8 44q0 60 77 84q52 0 84 17l64 20q34 8 66 16
t63 16q59 16 76 24q132 48 137 104l-53 -16q-96 -36 -124 -36l-125 52l-116 44l-28 -20q-28 -20 -32 -44z" />
    <glyph glyph-name="zacute" 
d="M-678 -971l64 8l12 -8l8 -52l-4 -16q-24 -48 -108 -48q-14 0 -30 5t-32 13.5t-30.5 20t-24.5 25.5q-24 19 -24 52q0 51 44 113q32 44 109 44q20 0 36 -1t28 -3t32 -9t48 -19l117 -33l96 53q17 7 40 11.5t53 8.5l48 -8l68 -48q36 -29 40 -53q0 -108 -128 -176
q-54 -28 -117 -46.5t-136 -26.5l-93 -16q-96 -24 -96 -52l8 -12q0 -4 4 -4q14 -10 30 -17t34 -11l117 -16l108 36q108 48 113 104l132 37v-261h-145v80q-32 -32 -108 -52l-132 -20l-85 4h-44q-87 0 -122 26q-35 25 -63 78l-8 44q0 60 77 84q52 0 84 17l64 20q34 8 66 16
t63 16q59 16 76 24q132 48 137 104l-53 -16q-96 -36 -124 -36l-125 52l-116 44l-28 -20q-28 -20 -32 -44z" />
    <glyph glyph-name="Zdot" horiz-adv-x="1875" 
d="M1862 0h-167v959q-44 141 -185 272q-70 57 -117 19q-78 -42 -130 -90t-90 -96v-193q0 -68 -205 -176l-237 -97l-173 -48q-68 0 -86 -22q-18 -21 -26 -70l4 -28v-253q8 -28 20 -40q36 -45 112 -45q50 0 89 16q116 0 233 105q12 10 22 20t18 20q16 22 29 39t23 29v269
l161 73v-807l-53 -72q-68 -74 -144 -93l-89 101q29 0 93 76l28 40v249q-34 -36 -173 -97q-18 -8 -41 -16.5t-51 -17.5q-26 -8 -49.5 -14t-43.5 -8q-341 0 -341 169v365q0 100 76 100l165 29q78 12 141 40l192 68q133 48 133 88v378q-8 28 -16 36l-36 16l-36 -16
q-67 0 -141 -68q-29 -20 -60 -69q-8 23 -77 69l-120 60l-44 8q-36 0 -40 -52v-253l24 -32q20 -28 56 -32q44 0 60 64l-20 36l12 20l32 16q38 0 82 -14q39 -14 39 -62q0 -28 -32 -81q0 -48 -73 -72l-172 -16q-105 12 -131 38t-26 103v325q0 36 38 72q37 36 75 48l40 16l56 13
q56 0 118 -35q64 -34 123 -146l16 52q68 125 241 125l60 -5q84 -12 104 -42q21 -30 21 -114v-18q73 85 182 138q45 33 106 33l30 -1q52 0 124 -54q66 -51 116.5 -99t72.5 -78l58 -67v-1103z" />
    <glyph glyph-name="zdot" horiz-adv-x="1875" 
d="M1862 0h-168v961q-43 138 -184 270q-70 57 -117 19q-78 -42 -130 -90t-90 -96v-193q0 -68 -205 -176l-237 -97l-173 -48q-68 0 -86 -22q-18 -21 -26 -70l4 -28v-253q8 -28 20 -40q36 -45 112 -45q50 0 89 16q116 0 233 105q12 10 22 20t18 20q16 22 29 39t23 29v269
l161 73v-807l-53 -72q-68 -74 -144 -93l-89 101q29 0 93 76l28 40v249q-34 -36 -173 -97q-18 -8 -41 -16.5t-51 -17.5q-26 -8 -49.5 -14t-43.5 -8q-341 0 -341 169v365q0 100 76 100l165 29q78 12 141 40l192 68q133 48 133 88v378q-8 28 -16 36l-36 16l-36 -16
q-67 0 -141 -68q-29 -20 -60 -69q-8 23 -77 69l-120 60l-44 8q-36 0 -40 -52v-253l24 -32q20 -28 56 -32q44 0 60 64l-20 36l12 20l32 16q38 0 82 -14q39 -14 39 -62q0 -28 -32 -81q0 -48 -73 -72l-172 -16q-105 12 -131 38t-26 103v325q0 36 38 72q37 36 75 48l40 16l56 13
q56 0 118 -35q64 -34 123 -146l16 52q68 125 241 125l60 -5q84 -12 104 -42q21 -30 21 -114v-18q73 85 182 138q45 33 106 33l30 -1q52 0 124 -54q42 -33 79 -65t64 -60l6 167q0 98 -32 185q-24 67 -80 105l-24 12q-52 31 -57 80q-5 39 25 70l31 20q42 15 80 15h13
q41 -5 86 -34q55 -37 55 -200v-538l1 -1v-1103z" />
    <glyph glyph-name="Gamma" unicode="&#x178d;" horiz-adv-x="1875" 
d="M1052 169v180q-27 0 -62 -20q-34 -19 -34 -56l16 -52q25 -48 80 -52zM558 345q0 27 -36 41l-76 16v-290l56 89q56 89 56 144zM1422 24q-69 24 -85 100l-16 173q0 64 -92 64l-32 -4v-293q0 -60 -57 -60l-116 12q-72 12 -127 94q-54 82 -54 167q0 62 14 126q13 55 48 69
q17 7 39 12.5t48 9.5q32 0 44 -16v759q0 49 -22 62q-11 7 -27.5 12.5t-38.5 9.5l-48 -4q-49 -12 -85 -60l-52 -84q-112 136 -189 136l-52 16q-28 0 -52 -44l-24 -44v-707l24 -12l20 4l80 -28q60 -36 77 -137q0 -57 -25 -116q-48 -133 -192 -229l-36 -8h-41q-61 0 -68 48
v1201q0 181 269 181q58 -10 89 -29q92 -44 120 -124q0 18 8 38.5t25.5 41t45 39.5t66.5 34q86 0 144 -20q145 -37 145 -141v-779h56q30 0 84 -16q64 -4 68 -56q0 -114 24 -208q25 -94 105 -94l64 4l52 29v819q-16 27 -28 36q-64 48 -229 92q12 37 28.5 85t40.5 88
q89 173 152 173q46 -7 58 -12q16 -4 43 -20l156 -69l73 8q-25 -96 -61 -136t-80 -40q-28 0 -64 24l-28 24l-89 40l-72 16l-60 -128l156 -49q157 -55 157 -104v-839q0 -69 -52 -117q-52 -40 -137 -40l-76 -4h-48q-20 0 -68 24z" />
    <glyph glyph-name="Theta" horiz-adv-x="722" 
d="M-72 -542l-24 4q-33 0 -40 -48q0 -40 64 -44v88zM-497 -522v-76q52 0 56 28q0 48 -56 48zM390 -542l4 1510l-13 28q-39 33 -200 80l68 173q80 173 149 173l76 -29l185 -76l72 12q-12 -52 -27 -88t-33 -58.5t-38.5 -34.5t-42.5 -16q-25 0 -68 25l-28 28l-76 40l-57 12
l-56 -109l125 -36q124 -48 128 -88v-1606q0 -68 -38 -98t-102 -38q-49 0 -121 24l-56 24q-26 22 -52 50t-52 62l-21 36h-44v-88q-12 -48 -48 -70t-80 -30l-64 8q-45 12 -70.5 48t-29.5 96q0 59 48 85q25 13 50 20.5t50 11.5v48q0 80 -36 88l-28 4l-52 -12l-93 -72
q-11 17 -25 30.5t-31 21.5l-52 12h-24l-28 -12q-24 -20 -32 -88l64 -32q64 -45 64 -93q0 -41 -42 -72q-21 -16 -57 -35t-90 -41q-48 0 -62 26q-7 13 -12.5 31.5t-9.5 42.5v237q0 56 36 109q36 52 85 64l24 4q77 0 144 -52l60 -49q12 7 21 12q12 8 25 18t27 23q55 48 124 48
l52 -8q88 -24 88 -161l4 -80l109 -12l64 -69q66 -60 108 -68q32 0 37 56z" />
    <glyph glyph-name="Phi" horiz-adv-x="722" 
d="M-72 -1162l-24 4q-33 0 -40 -48q0 -40 64 -44v88zM-497 -1142v-76q52 0 56 28q0 48 -56 48zM390 -1162l4 2130l-13 28q-39 33 -200 80l68 173q80 173 149 173l76 -29l185 -76l72 12q-12 -52 -27 -88t-33 -58.5t-38.5 -34.5t-42.5 -16q-25 0 -68 25l-28 28l-76 40l-57 12
l-56 -109l125 -36q124 -48 128 -88v-2226q0 -68 -38 -98t-102 -38q-49 0 -121 24l-56 24q-26 22 -52 50t-52 62l-21 36h-44v-88q-12 -48 -48 -70t-80 -30l-64 8q-45 12 -70.5 48t-29.5 96q0 59 48 85q25 13 50 20.5t50 11.5v48q0 80 -36 88l-28 4l-52 -12l-93 -72
q-11 17 -25 30.5t-31 21.5l-52 12h-24l-28 -12q-24 -20 -32 -88l64 -32q64 -45 64 -93q0 -41 -42 -72q-21 -16 -57 -35t-90 -41q-48 0 -62 26q-7 13 -12.5 31.5t-9.5 42.5v237q0 56 36 109q36 52 85 64l24 4q77 0 144 -52l60 -49q12 7 21 12q12 8 25 18t27 23q55 48 124 48
l52 -8q88 -24 88 -161l4 -80l109 -12l64 -69q66 -60 108 -68q32 0 37 56z" />
    <glyph glyph-name="alpha" horiz-adv-x="2573" 
d="M1644 188l2 776v1q-3 23 -70 51q-10 4 -23 9t-29 11q-32 12 -120 36q12 37 28 85t40 88q89 173 198 173l36 -16q32 -28 63 -48.5t60 -34.5q60 -27 79 -9l18 6q20 12 55.5 33.5t89.5 52.5l59 15q83 -15 170 -90q31 -22 70.5 -49t88.5 -61l103 -65v-1152h-167v1059
q-38 32 -77 68.5t-79 76.5q-60 46 -148 32q-28 -4 -53 -9.5t-48 -13.5q-18 -7 -47.5 -20.5t-71.5 -35.5q-8 -7 -17 -11t-17 -7l-8 -4l1 2q-2 -1 -9 -1h-8q-30 0 -64 25l-32 28q-20 20 -68 32l-81 8l-56 -117q110 -12 145 -28q140 -36 148 -84v-811h-2v-28q0 -69 -52 -117
q-52 -40 -137 -40l-76 -4h-48q-20 0 -68 24q-69 24 -85 100l-16 173q0 64 -92 64l-32 -4v-293q0 -60 -57 -60l-116 12q-72 12 -127 94q-54 82 -54 167q0 62 14 126q13 55 48 69q17 7 39 12.5t48 9.5q32 0 44 -16v759q0 49 -22 62q-11 7 -27.5 12.5t-38.5 9.5l-48 -4
q-49 -12 -85 -60l-52 -84q-112 136 -189 136l-52 16q-28 0 -52 -44l-24 -44v-707l24 -12l20 4l80 -28q60 -36 77 -137q0 -57 -25 -116q-48 -133 -192 -229l-36 -8h-41q-61 0 -68 48v1201q0 181 269 181q58 -10 89 -29q92 -44 120 -124q0 18 8 38.5t25.5 41t45 39.5t66.5 34
q86 0 144 -20q145 -37 145 -141v-779h56q30 0 84 -16q64 -4 68 -56q0 -114 24 -208q25 -94 105 -94l64 4l48 29v35h-2zM558 345q0 27 -36 41l-76 16v-290l56 89q56 89 56 144zM1052 169v180q-27 0 -62 -20q-34 -19 -34 -56l16 -52q25 -48 80 -52z" />
    <glyph glyph-name="delta" horiz-adv-x="1352" 
d="M1341 0h-167v1059q-38 32 -84.5 68.5t-101.5 76.5q-60 46 -148 32q-28 -4 -53 -9.5t-48 -13.5q-18 -7 -47.5 -20.5t-71.5 -35.5q-8 -7 -17 -11t-17 -7l-8 -4l1 2q-2 -1 -9 -1h-8q-30 0 -64 25l-32 28q-20 20 -68 32l-81 8l-56 -117q110 -12 145 -28q136 -38 147 -81l5 1
v-1606q0 -68 -38 -98t-102 -38q-49 0 -121 24l-56 24q-26 22 -52 50t-52 62l-21 36h-44v-88q-12 -48 -48 -70t-80 -30l-64 8q-45 12 -70.5 48t-29.5 96q0 59 48 85q25 13 50 20.5t50 11.5v48q0 80 -36 88l-28 4l-52 -12l-93 -72q-11 17 -25 30.5t-31 21.5l-52 12h-24
l-28 -12q-24 -20 -32 -88l64 -32q64 -45 64 -93q0 -41 -42 -72q-21 -16 -57 -35t-90 -41q-48 0 -62 26q-7 13 -12.5 31.5t-9.5 42.5v237q0 56 36 109q36 52 85 64l24 4q77 0 144 -52l60 -49q12 7 21 12q12 8 25 18t27 23q55 48 124 48l52 -8q88 -24 88 -161l4 -80l109 -12
l64 -69q66 -60 108 -68q32 0 37 56v1510l3 1q-6 21 -68 47q-10 4 -23 9t-29 11q-32 12 -120 36q12 37 28 85t40 88q89 173 198 173l36 -16q32 -28 63 -48.5t60 -34.5q60 -27 79 -9l18 6q20 12 55.5 33.5t89.5 52.5l59 15q83 -15 200 -90q31 -22 70.5 -49t88.5 -61l103 -65
v-1152zM-72 -542l-24 4q-33 0 -40 -48q0 -40 64 -44v88zM-497 -522v-76q52 0 56 28q0 48 -56 48z" />
    <glyph glyph-name="epsilon" horiz-adv-x="1352" 
d="M1341 0h-167v1059q-38 32 -84.5 68.5t-101.5 76.5q-60 46 -148 32q-28 -4 -53 -9.5t-48 -13.5q-18 -7 -47.5 -20.5t-71.5 -35.5q-8 -7 -17 -11t-17 -7l-8 -4l1 2q-2 -1 -9 -1h-8q-30 0 -64 25l-32 28q-20 20 -68 32l-81 8l-56 -117q110 -12 145 -28q136 -38 147 -81l5 1
v-2216q0 -68 -38 -98t-102 -38q-49 0 -121 24l-56 24q-26 22 -52 50t-52 62l-21 36h-44v-88q-12 -48 -48 -70t-80 -30l-64 8q-45 12 -70.5 48t-29.5 96q0 59 48 85q25 13 50 20.5t50 11.5v48q0 80 -36 88l-28 4l-52 -12l-93 -72q-11 17 -25 30.5t-31 21.5l-52 12h-24
l-28 -12q-24 -20 -32 -88l64 -32q64 -45 64 -93q0 -41 -42 -72q-21 -16 -57 -35t-90 -41q-48 0 -62 26q-7 13 -12.5 31.5t-9.5 42.5v237q0 56 36 109q36 52 85 64l24 4q77 0 144 -52l60 -49q12 7 21 12q12 8 25 18t27 23q55 48 124 48l52 -8q88 -24 88 -161l4 -80l109 -12
l64 -69q66 -60 108 -68q32 0 37 56v2120l3 1q-6 21 -68 47q-10 4 -23 9t-29 11q-32 12 -120 36q12 37 28 85t40 88q89 173 198 173l36 -16q32 -28 63 -48.5t60 -34.5q60 -27 79 -9l18 6q20 12 55.5 33.5t89.5 52.5l59 15q83 -15 200 -90q31 -22 70.5 -49t88.5 -61l103 -65
v-1152zM-72 -1152l-24 4q-33 0 -40 -48q0 -40 64 -44v88zM-497 -1132v-76q52 0 56 28q0 48 -56 48z" />
    <glyph glyph-name="sigma" horiz-adv-x="2573" 
d="M1644 188l2 776v1q-3 23 -70 51q-10 4 -23 9t-29 11q-32 12 -120 36q12 37 28 85t40 88q89 173 198 173l36 -16q32 -28 63 -48.5t60 -34.5q60 -27 79 -9l18 6q20 12 55.5 33.5t89.5 52.5l59 15q83 -15 170 -90q30 -22 68.5 -48.5t86.5 -58.5l9 169q0 98 -32 185
q-24 67 -80 105l-24 12q-52 31 -57 80q-5 39 25 70l31 20q42 15 80 15h13q41 -5 86 -34q55 -37 55 -200v-490h1v-1152h-168v1059q-38 32 -77 68.5t-78 76.5q-60 46 -148 32q-28 -4 -53 -9.5t-48 -13.5q-18 -7 -47.5 -20.5t-71.5 -35.5q-8 -7 -17 -11t-17 -7q-6 -2 -12 -2.5
t-12 -0.5q-30 0 -64 25l-32 28q-20 20 -68 32l-81 8l-56 -117q110 -12 145 -28q140 -36 148 -84v-811h-2v-28q0 -69 -52 -117q-52 -40 -137 -40l-76 -4h-48q-20 0 -68 24q-69 24 -85 100l-16 173q0 64 -92 64l-32 -4v-293q0 -60 -57 -60l-116 12q-72 12 -127 94
q-54 82 -54 167q0 62 14 126q13 55 48 69q17 7 39 12.5t48 9.5q32 0 44 -16v759q0 49 -22 62q-11 7 -27.5 12.5t-38.5 9.5l-48 -4q-49 -12 -85 -60l-52 -84q-112 136 -189 136l-52 16q-28 0 -52 -44l-24 -44v-707l24 -12l20 4l80 -28q60 -36 77 -137q0 -57 -25 -116
q-48 -133 -192 -229l-36 -8h-41q-61 0 -68 48v1201q0 181 269 181q58 -10 89 -29q92 -44 120 -124q0 18 8 38.5t25.5 41t45 39.5t66.5 34q86 0 144 -20q145 -37 145 -141v-779h56q30 0 84 -16q64 -4 68 -56q0 -114 24 -208q25 -94 105 -94l64 4l48 29v35h-2zM558 345
q0 27 -36 41l-76 16v-290l56 89q56 89 56 144zM1052 169v180q-27 0 -62 -20q-34 -19 -34 -56l16 -52q25 -48 80 -52z" />
    <glyph glyph-name="tau" horiz-adv-x="1352" 
d="M1341 0h-168v1059q-38 32 -84.5 68.5t-100.5 76.5q-60 46 -148 32q-28 -4 -53 -9.5t-48 -13.5q-18 -7 -47.5 -20.5t-71.5 -35.5q-8 -7 -17 -11t-17 -7l-8 -4l1 2q-2 -1 -9 -1h-8q-30 0 -64 25l-32 28q-20 20 -68 32l-81 8l-56 -117q110 -12 145 -28q136 -38 147 -81l5 1
v-1606q0 -68 -38 -98t-102 -38q-49 0 -121 24l-56 24q-26 22 -52 50t-52 62l-21 36h-44v-88q-12 -48 -48 -70t-80 -30l-64 8q-45 12 -70.5 48t-29.5 96q0 59 48 85q25 13 50 20.5t50 11.5v48q0 80 -36 88l-28 4l-52 -12l-93 -72q-11 17 -25 30.5t-31 21.5l-52 12h-24
l-28 -12q-24 -20 -32 -88l64 -32q64 -45 64 -93q0 -41 -42 -72q-21 -16 -57 -35t-90 -41q-48 0 -62 26q-7 13 -12.5 31.5t-9.5 42.5v237q0 56 36 109q36 52 85 64l24 4q77 0 144 -52l60 -49q12 7 21 12q12 8 25 18t27 23q55 48 124 48l52 -8q88 -24 88 -161l4 -80l109 -12
l64 -69q66 -60 108 -68q32 0 37 56v1510l3 1q-6 21 -68 47q-10 4 -23 9t-29 11q-32 12 -120 36q12 37 28 85t40 88q89 173 198 173l36 -16q32 -28 63 -48.5t60 -34.5q60 -27 79 -9l18 6q20 12 55.5 33.5t89.5 52.5l59 15q83 -15 200 -90q30 -22 68.5 -48.5t86.5 -58.5l9 169
q0 98 -32 185q-24 67 -80 105l-24 12q-52 31 -57 80q-5 39 25 70l31 20q42 15 80 15h13q41 -5 86 -34q55 -37 55 -200v-490h1v-1152zM-72 -542l-24 4q-33 0 -40 -48q0 -40 64 -44v88zM-497 -522v-76q52 0 56 28q0 48 -56 48z" />
    <glyph glyph-name="phi" horiz-adv-x="1352" 
d="M1341 0h-168v1059q-38 32 -84.5 68.5t-100.5 76.5q-60 46 -148 32q-28 -4 -53 -9.5t-48 -13.5q-18 -7 -47.5 -20.5t-71.5 -35.5q-8 -7 -17 -11t-17 -7l-8 -4l1 2q-2 -1 -9 -1h-8q-30 0 -64 25l-32 28q-20 20 -68 32l-81 8l-56 -117q110 -12 145 -28q136 -38 147 -81l5 1
v-2236q0 -68 -38 -98t-102 -38q-49 0 -121 24l-56 24q-26 22 -52 50t-52 62l-21 36h-44v-88q-12 -48 -48 -70t-80 -30l-64 8q-45 12 -70.5 48t-29.5 96q0 59 48 85q25 13 50 20.5t50 11.5v48q0 80 -36 88l-28 4l-52 -12l-93 -72q-11 17 -25 30.5t-31 21.5l-52 12h-24
l-28 -12q-24 -20 -32 -88l64 -32q64 -45 64 -93q0 -41 -42 -72q-21 -16 -57 -35t-90 -41q-48 0 -62 26q-7 13 -12.5 31.5t-9.5 42.5v237q0 56 36 109q36 52 85 64l24 4q77 0 144 -52l60 -49q12 7 21 12q12 8 25 18t27 23q55 48 124 48l52 -8q88 -24 88 -161l4 -80l109 -12
l64 -69q66 -60 108 -68q32 0 37 56v2140l3 1q-6 21 -68 47q-10 4 -23 9t-29 11q-32 12 -120 36q12 37 28 85t40 88q89 173 198 173l36 -16q32 -28 63 -48.5t60 -34.5q60 -27 79 -9l18 6q20 12 55.5 33.5t89.5 52.5l59 15q83 -15 200 -90q30 -22 68.5 -48.5t86.5 -58.5l9 169
q0 98 -32 185q-24 67 -80 105l-24 12q-52 31 -57 80q-5 39 25 70l31 20q42 15 80 15h13q41 -5 86 -34q55 -37 55 -200v-490h1v-1152zM-72 -1172l-24 4q-33 0 -40 -48q0 -40 64 -44v88zM-497 -1152v-76q52 0 56 28q0 48 -56 48z" />
    <glyph glyph-name="underscoredbl" unicode="&#x178e;" horiz-adv-x="2200" 
d="M1891 1414q92 0 193 -59t101 -158l4 -1193h-109q-15 0 -31 2t-33 6l4 1221q-26 48 -117 76l-84 12q-92 0 -165 -36q-56 -37 -64 -72v-1121q-12 -36 -36 -62t-52 -26l-80 4l-45 16l-132 149l-129 -133q-32 -12 -66 -20t-70 -12q-54 0 -89 32l-24 36v1165q-28 48 -108 80
l-72 12h-36q-81 0 -133 -28l-76 -68v-747l104 -36q108 -36 125 -161q0 -53 -39 -129q-38 -77 -114 -132q-18 -7 -64 -18q-22 -5 -39 -8.5t-29 -5.5q-61 0 -79 20q-18 17 -26 56v1137q0 68 64 128t209 60l129 4l76 -4q99 0 182 -50t83 -154v-1028q0 -21 60 -28l24 4
q27 16 36 28l113 100l116 -108l12 -24l12 -4q21 16 25 32l4 16l4 498v542q0 68 72 128q70 61 217 61h172zM450 381v-269q21 0 76 97q13 27 20.5 58t11.5 66q-20 20 -36 28l-60 29z" />
    <glyph glyph-name="exclamdbl" 
d="M-1538 -505v-81l41 4q24 0 24 32q0 49 -36 57zM-1200 -333q-11 16 -72 44l-101 12q-74 0 -124 -32l-36 -32l4 -52l88 -80q40 -40 40 -81q0 -14 -6.5 -30t-21.5 -34t-40.5 -39t-63.5 -45h-37q-60 0 -88 28q-28 20 -32 68v289q12 48 36 73q72 72 245 72h80q112 0 201 -24
q88 -24 88 -121l4 -249l137 169l137 -173l-4 245q8 32 20 48q60 109 293 109l44 4q95 0 187 -30q90 -30 114 -127v-389h-140v337q0 48 -69 92q-70 37 -128 37q-64 0 -112 -30q-49 -31 -57 -91v-285q0 -36 -20 -56l-56 -16l-36 4l-36 12l-141 164l-108 -136l-109 -28
q-35 0 -52 20l-28 56v297z" />
    <glyph glyph-name="nsuperior" 
d="M-1538 -1145v-81l41 4q24 0 24 32q0 49 -36 57zM-1200 -973q-11 16 -72 44l-101 12q-74 0 -124 -32l-36 -32l4 -52l88 -80q40 -40 40 -81q0 -14 -6.5 -30t-21.5 -34t-40.5 -39t-63.5 -45h-37q-60 0 -88 28q-28 20 -32 68v289q12 48 36 73q72 72 245 72h80q112 0 201 -24
q88 -24 88 -121l4 -249l137 169l137 -173l-4 245q8 32 20 48q60 109 293 109l44 4q95 0 187 -30q90 -30 114 -127v-389h-140v337q0 48 -69 92q-70 37 -128 37q-64 0 -112 -30q-49 -31 -57 -91v-285q0 -36 -20 -56l-56 -16l-36 4l-36 12l-141 164l-108 -136l-109 -28
q-35 0 -52 20l-28 56v297z" />
    <glyph glyph-name="peseta" horiz-adv-x="2880" 
d="M2872 0h-167v959q-44 141 -185 272q-70 57 -117 19q-76 -42 -128 -88.5t-90 -94.5l2 -1063h-107q-23 0 -60 8v1221q-26 48 -117 76l-84 12q-92 0 -165 -36q-56 -37 -64 -72v-1121q-12 -36 -36 -62t-52 -26l-80 4l-45 16l-132 149l-129 -133q-32 -12 -66 -20t-70 -12
q-54 0 -89 32l-24 36v1165q-28 48 -108 80l-72 12h-36q-81 0 -133 -28l-76 -68v-747l104 -36q108 -36 125 -161q0 -53 -39 -129q-38 -77 -114 -132q-18 -7 -64 -18q-22 -5 -39 -8.5t-29 -5.5q-61 0 -79 20q-18 17 -26 56v1137q0 68 64 128t209 60l129 4l76 -4q99 0 182 -50
t83 -154v-1028q0 -21 60 -28l24 4q27 16 36 28l113 100l116 -108l12 -24l12 -4q21 16 25 32l4 16l4 498v542q0 68 72 128q70 61 217 61h172q92 0 193 -59q83 -50 98 -125q73 85 183 139q45 33 106 33l30 -1q52 0 124 -54q66 -51 116.5 -99t72.5 -78l58 -67v-1103zM450 381
v-269q21 0 76 97q13 27 20.5 58t11.5 66q-20 20 -36 28l-60 29z" />
    <glyph glyph-name="IJ" horiz-adv-x="2880" 
d="M2872 0h-168v961q-43 138 -184 270q-70 57 -117 19q-76 -42 -128 -88.5t-90 -94.5l2 -1063h-107q-23 0 -60 8v1221q-26 48 -117 76l-84 12q-92 0 -165 -36q-56 -37 -64 -72v-1121q-12 -36 -36 -62t-52 -26l-80 4l-45 16l-132 149l-129 -133q-32 -12 -66 -20t-70 -12
q-54 0 -89 32l-24 36v1165q-28 48 -108 80l-72 12h-36q-81 0 -133 -28l-76 -68v-747l104 -36q108 -36 125 -161q0 -53 -39 -129q-38 -77 -114 -132q-18 -7 -64 -18q-22 -5 -39 -8.5t-29 -5.5q-61 0 -79 20q-18 17 -26 56v1137q0 68 64 128t209 60l129 4l76 -4q99 0 182 -50
t83 -154v-1028q0 -21 60 -28l24 4q27 16 36 28l113 100l116 -108l12 -24l12 -4q21 16 25 32l4 16l4 498v542q0 68 72 128q70 61 217 61h172q92 0 193 -59q83 -50 98 -125q73 85 183 139q45 33 106 33l30 -1q52 0 124 -54q42 -33 79 -65t64 -60l6 167q0 98 -32 185
q-24 67 -80 105l-24 12q-52 31 -57 80q-5 39 25 70l31 20q42 15 80 15h13q41 -5 86 -34q55 -37 55 -200v-538l1 -1v-1103zM450 381v-269q21 0 76 97q13 27 20.5 58t11.5 66q-20 20 -36 28l-60 29z" />
    <glyph glyph-name="ij" unicode="&#x178f;" horiz-adv-x="1305" 
d="M522 149q22 6 36 14t22 20t13 28t9 38q-12 44 -44 64l-36 16v-180zM775 293q0 -73 -36 -143t-129 -118l-76 -20l-84 -8q-97 0 -101 52v815l28 24l73 53q-48 8 -145 72l-44 32l-8 36q0 28 18 66q8 19 17.5 36.5t20.5 34.5l137 185q94 0 188 -49q26 -12 49.5 -25t43.5 -27
t45 -35t55 -49q24 16 42 30q9 7 35.5 30.5t71.5 63.5q64 61 104 65q47 0 97 -65q36 -48 60 -60l44 -20q40 0 60 12q0 -65 -58 -129t-110 -64q-53 12 -121 81l-60 60q-42 -4 -129 -85l-72 -72q-135 103 -249 149l-112 28q-36 -48 -53 -92l-12 -65l41 -44q48 -40 120 -68
l121 28q67 12 164 12h44q110 0 181 -20q127 -36 209 -121v-875h-181v831q-149 81 -281 81q-109 0 -213 -49l-40 -24v-317q42 -10 72 -20t49 -20q124 -67 124 -193z" />
    <glyph glyph-name="napostrophe" 
d="M-734 -722h-61q-89 0 -114 24t-30 56v245q0 104 129 157q122 52 280 52q173 0 302 -48q128 -50 128 -161v-325h-161v317q0 40 -96 76q-56 16 -94 22t-79 6q-18 0 -37 -1t-39 -3t-47 -7.5t-61 -14.5q-68 -18 -73 -62v-72q55 0 135 -20q74 -20 74 -113q-8 -48 -54 -84
q-45 -36 -102 -44zM-795 -634q101 0 101 48q0 20 -36 32l-65 12v-92z" />
    <glyph glyph-name="minute" 
d="M-734 -1352h-61q-89 0 -114 24t-30 56v245q0 104 129 157q122 52 280 52q173 0 302 -48q128 -50 128 -161v-325h-161v317q0 40 -96 76q-56 16 -94 22t-79 6q-18 0 -37 -1t-39 -3t-47 -7.5t-61 -14.5q-68 -18 -73 -62v-72q55 0 135 -20q74 -20 74 -113q-8 -48 -54 -84
q-45 -36 -102 -44zM-795 -1264q101 0 101 48q0 20 -36 32l-65 12v-92z" />
    <glyph glyph-name="second" horiz-adv-x="1926" 
d="M1919 0h-167v959q-71 124 -207 201q-136 76 -187 63q-53 -11 -95 -30q-20 -10 -52 -23.5t-77 -32.5q-173 -71 -190 -66l-296 167q-32 14 -56 7l-107 -56q-107 -56 -116 -101l21 -24q36 -23 75 -42.5t84 -35.5l95 22q67 12 164 12h44q110 0 181 -20q127 -36 209 -121v-875
h-181v831q-149 81 -281 81q-109 0 -213 -49l-40 -24v-317q42 -10 72 -20t49 -20q124 -67 124 -193q0 -73 -36 -143t-129 -118l-76 -20l-84 -8q-97 0 -101 52v815l28 24l64 46q-32 14 -65 32.5t-68 42.5l-44 32l-8 36q0 27 6 53q6 25 50 84l246 153q59 32 109 32h10
q54 -5 78 -27q13 -11 70 -55.5t160 -122.5q88 54 156 94t120 69q73 37 118 37h92q52 0 168 -90q58 -45 102 -83t76 -69l105 -107v-1052zM519 149q22 6 36 14t22 20t13 28t9 38q-12 44 -44 64l-36 16v-180z" />
    <glyph glyph-name="afii61248" horiz-adv-x="1926" 
d="M1919 0h-168v960q-69 123 -206 200q-136 76 -187 63q-53 -11 -95 -30q-20 -10 -52 -23.5t-77 -32.5q-173 -71 -190 -66l-296 167q-32 14 -56 7l-107 -56q-107 -56 -116 -101l21 -24q36 -23 75 -42.5t84 -35.5l95 22q67 12 164 12h44q110 0 181 -20q127 -36 209 -121v-875
h-181v831q-149 81 -281 81q-109 0 -213 -49l-40 -24v-317q42 -10 72 -20t49 -20q124 -67 124 -193q0 -73 -36 -143t-129 -118l-76 -20l-84 -8q-97 0 -101 52v815l28 24l64 46q-32 14 -65 32.5t-68 42.5l-44 32l-8 36q0 27 6 53q6 25 50 84l246 153q59 32 109 32h10
q54 -5 78 -27q13 -11 70 -55.5t160 -122.5q88 54 156 94t120 69q73 37 118 37h92q52 0 168 -90q51 -39 91 -73.5t71 -63.5q8 9 15 5l8 210q0 98 -32 185q-24 67 -80 105l-24 12q-52 31 -57 80q-5 39 25 70l31 20q42 15 80 15h13q41 -5 86 -34q55 -37 55 -200v-589l1 -1
v-1052zM519 149q22 6 36 14t22 20t13 28t9 38q-12 44 -44 64l-36 16v-180z" />
    <glyph glyph-name="afii61289" unicode="&#x1790;" horiz-adv-x="1301" 
d="M1104 502l12 8v229l-24 4q-26 0 -40 -8q-48 -24 -60 -121l16 -28q24 -53 96 -84zM1028 100q51 0 80 65l12 68v128q-124 45 -192 137l-45 88q0 59 8 89q45 204 213 229q61 0 115 -27q54 -26 58 -82v-687l-44 -52q-77 -56 -185 -56h-418q-120 0 -180 72l-32 73v811l-153 80
l-36 12q4 16 16 52t30 74q8 17 20 38t28 47q30 46 54 78l65 36q70 37 128 37q89 0 181 -89l52 -36l80 -64l89 -32l72 -12q64 0 96 36q25 31 37 104q-31 57 -67.5 99t-81.5 70l-64 28l-44 24q-37 24 -37 64q0 56 121 125q42 -20 76 -41.5t60 -43.5q141 -120 161 -313
q0 -164 -104 -241q-77 -56 -193 -56l-68 4l-53 12q-96 19 -168 72l-28 24q-44 33 -97 53l-80 16l-48 -4l-28 -16l-36 -61l-12 -36l60 -44q62 -40 144 -52v-771l-4 -36q0 -93 81 -93h361z" />
    <glyph glyph-name="H22073" 
d="M-754 -305q-77 -20 -109 -52l-20 -36l16 -24l80 16q49 0 65 -52q0 -51 -20 -89q-40 -76 -141 -76q-34 0 -64.5 10t-54.5 28t-40 44t-22 59q0 71 51 136q50 65 118 93l124 40l121 12q75 0 124 -20l117 -77l124 -124q89 -80 157 -80l48 -4l-72 -85q-16 -12 -80 -16
q-61 0 -149 76l-145 149q-34 27 -104 52z" />
    <glyph glyph-name="H18543" 
d="M-754 -925q-77 -20 -109 -52l-20 -36l16 -24l80 16q49 0 65 -52q0 -51 -20 -89q-40 -76 -141 -76q-34 0 -64.5 10t-54.5 28t-40 44t-22 59q0 71 51 136q50 65 118 93l124 40l121 12q75 0 124 -20l117 -77l124 -124q89 -80 157 -80l48 -4l-72 -85q-16 -12 -80 -16
q-61 0 -149 76l-145 149q-34 27 -104 52z" />
    <glyph glyph-name="H18551" horiz-adv-x="1973" 
d="M1962 0h-167v959q-44 141 -185 272q-70 57 -117 19q-42 -23 -77.5 -43t-66.5 -39q-28 -17 -71.5 -40.5t-103.5 -54.5q-71 -41 -170 -41l-68 4l-53 12q-96 19 -168 72l-28 24q-44 33 -97 53l-80 16l-48 -4l-28 -16l-36 -61l-12 -36l60 -44q62 -40 144 -52v-771l-4 -36
q0 -93 81 -93h361q51 0 80 65l12 68v128q-124 45 -192 137l-45 88q0 59 8 89q45 204 213 229q61 0 115 -27q54 -26 58 -82v-687l-44 -52q-77 -56 -185 -56h-418q-120 0 -180 72l-32 73v811l-153 80l-36 12q4 16 16 52t30 74q8 17 20 38t28 47q30 46 54 78l65 36
q70 37 128 37q89 0 181 -89l52 -36l80 -64l89 -32l72 -12q64 0 96 36q25 31 37 104q-31 57 -67.5 99t-81.5 70l-64 28l-44 24q-37 24 -37 64q0 56 121 125q42 -20 76 -41.5t60 -43.5q141 -120 161 -313q0 -11 -0.5 -20.5t-1.5 -19.5q21 12 60 32t96 48q45 33 106 33l30 -1
q52 0 124 -54q66 -51 116.5 -99t72.5 -78l58 -67v-1103zM1104 502l12 8v229l-24 4q-26 0 -40 -8q-48 -24 -60 -121l16 -28q24 -53 96 -84z" />
    <glyph glyph-name="H18533" horiz-adv-x="1973" 
d="M1962 0h-168v961q-43 138 -184 270q-70 57 -117 19q-42 -23 -77.5 -43t-66.5 -39q-28 -17 -71.5 -40.5t-103.5 -54.5q-71 -41 -170 -41l-68 4l-53 12q-96 19 -168 72l-28 24q-44 33 -97 53l-80 16l-48 -4l-28 -16l-36 -61l-12 -36l60 -44q62 -40 144 -52v-771l-4 -36
q0 -93 81 -93h361q51 0 80 65l12 68v128q-124 45 -192 137l-45 88q0 59 8 89q45 204 213 229q61 0 115 -27q54 -26 58 -82v-687l-44 -52q-77 -56 -185 -56h-418q-120 0 -180 72l-32 73v811l-153 80l-36 12q4 16 16 52t30 74q8 17 20 38t28 47q30 46 54 78l65 36
q70 37 128 37q89 0 181 -89l52 -36l80 -64l89 -32l72 -12q64 0 96 36q25 31 37 104q-31 57 -67.5 99t-81.5 70l-64 28l-44 24q-37 24 -37 64q0 56 121 125q42 -20 76 -41.5t60 -43.5q141 -120 161 -313q0 -11 -0.5 -20.5t-1.5 -19.5q21 12 60 32t96 48q45 33 106 33l30 -1
q52 0 124 -54q42 -33 79 -65t64 -60l6 167q0 98 -32 185q-24 67 -80 105l-24 12q-52 31 -57 80q-5 39 25 70l31 20q42 15 80 15h13q41 -5 86 -34q55 -37 55 -200v-538l1 -1v-1103zM1104 502l12 8v229l-24 4q-26 0 -40 -8q-48 -24 -60 -121l16 -28q24 -53 96 -84z" />
    <glyph glyph-name="openbullet" unicode="&#x1791;" horiz-adv-x="1296" 
d="M1100 606q81 49 81 89q0 23 -53 52l-28 12q-32 -8 -48 -20l-16 -36q0 -45 64 -97zM526 1197q-48 -36 -76 -105q-20 -74 -20 -144l4 -133l16 -100q29 -77 221 -113l192 -20l85 8l8 8l-24 57q-24 48 -24 92q0 48 38 84t146 48q83 0 141 -58q60 -59 60 -158
q-16 -118 -92 -153q-32 -17 -32 -24v-341q0 -81 -121 -129q-44 -12 -90 -20t-111 -8l-88 4q-172 0 -293 44q-22 8 -44 19t-45 25v326l25 12l28 4q21 0 136 -61v-204l12 -24q40 -33 189 -33l52 -4q22 0 39 1t29 3q13 2 31 9t42 20l60 36v325l-28 8l-161 -4q-180 0 -269 16
q-193 28 -257 112l-20 169l-4 149q0 157 28 225q4 14 13.5 31.5t23.5 38.5q33 47 112 98q169 77 353 77q239 0 329 -29q137 -44 137 -196l-12 -101q-25 -68 -84 -124h-53q-69 0 -112 12q-24 10 -32 60l-12 60q0 73 64 73h24l56 -25v81q0 47 -56 64l-116 16l-145 8
q-112 0 -201 -56q-16 -8 -34 -22t-38 -34z" />
    <glyph glyph-name="Amacron" horiz-adv-x="1" 
d="M-175 -429v-217h-113v209l-100 -109q-60 -68 -108 -84q-50 -24 -85 -24l-68 -4q-129 24 -181 60q-52 35 -56 93q0 52 60 100l61 32l108 24q80 24 96 40l28 24q20 29 8 49l12 12l69 32q16 -8 20 -16v-57l-24 -56q-24 -44 -93 -72q-18 -8 -33 -14t-30.5 -10t-33 -6
t-39.5 -2l-56 -20q-53 -24 -57 -52q4 -5 9.5 -14.5t20.5 -21t43.5 -23.5t79.5 -22l116 44q125 70 181 189l64 12q38 0 57 -16z" />
    <glyph glyph-name="amacron" 
d="M-176 -1049v-217h-113v209l-100 -109q-60 -68 -108 -84q-50 -24 -85 -24l-68 -4q-129 24 -181 60q-52 35 -56 93q0 52 60 100l61 32l108 24q80 24 96 40l28 24q20 29 8 49l12 12l69 32q16 -8 20 -16v-57l-24 -56q-24 -44 -93 -72q-18 -8 -33 -14t-30.5 -10t-33 -6
t-39.5 -2l-56 -20q-53 -24 -57 -52q4 -5 9.5 -14.5t20.5 -21t43.5 -23.5t79.5 -22l116 44q125 70 181 189l64 12q38 0 57 -16z" />
    <glyph glyph-name="Ccircumflex" horiz-adv-x="1968" 
d="M1952 0h-167v959q-44 141 -185 272q-70 57 -117 19q-83 -45 -138 -97.5t-95 -104.5v1q-25 -48 -69 -89h-53q-69 0 -112 12q-24 10 -32 60l-12 60q0 73 64 73h24l56 -25v81q0 47 -56 64l-116 16l-145 8q-112 0 -201 -56q-16 -8 -34 -22t-38 -34q-48 -36 -76 -105
q-20 -74 -20 -144l4 -133l16 -100q29 -77 221 -113l192 -20l85 8l8 8l-24 57q-24 48 -24 92q0 48 38 84t146 48q83 0 141 -58q60 -59 60 -158q-16 -118 -92 -153q-32 -17 -32 -24v-341q0 -81 -121 -129q-44 -12 -90 -20t-111 -8l-88 4q-172 0 -293 44q-22 8 -44 19t-45 25
v326l25 12l28 4q21 0 136 -61v-204l12 -24q40 -33 189 -33l52 -4q22 0 39 1t29 3q13 2 31 9t42 20l60 36v325l-28 8l-161 -4q-180 0 -269 16q-193 28 -257 112l-20 169l-4 149q0 157 28 225q4 14 13.5 31.5t23.5 38.5q33 47 112 98q169 77 353 77q239 0 329 -29
q110 -36 131 -140q73 79 174 128q45 33 106 33l30 -1q52 0 124 -54q66 -51 116.5 -99t72.5 -78l58 -67v-1103zM1100 606q81 49 81 89q0 23 -53 52l-28 12q-32 -8 -48 -20l-16 -36q0 -45 64 -97z" />
    <glyph glyph-name="ccircumflex" horiz-adv-x="1968" 
d="M1952 0h-168v961q-43 138 -184 270q-70 57 -117 19q-83 -45 -138 -97.5t-95 -104.5v1q-25 -48 -69 -89h-53q-69 0 -112 12q-24 10 -32 60l-12 60q0 73 64 73h24l56 -25v81q0 47 -56 64l-116 16l-145 8q-112 0 -201 -56q-16 -8 -34 -22t-38 -34q-48 -36 -76 -105
q-20 -74 -20 -144l4 -133l16 -100q29 -77 221 -113l192 -20l85 8l8 8l-24 57q-24 48 -24 92q0 48 38 84t146 48q83 0 141 -58q60 -59 60 -158q-16 -118 -92 -153q-32 -17 -32 -24v-341q0 -81 -121 -129q-44 -12 -90 -20t-111 -8l-88 4q-172 0 -293 44q-22 8 -44 19t-45 25
v326l25 12l28 4q21 0 136 -61v-204l12 -24q40 -33 189 -33l52 -4q22 0 39 1t29 3q13 2 31 9t42 20l60 36v325l-28 8l-161 -4q-180 0 -269 16q-193 28 -257 112l-20 169l-4 149q0 157 28 225q4 14 13.5 31.5t23.5 38.5q33 47 112 98q169 77 353 77q239 0 329 -29
q110 -36 131 -140q73 79 174 128q45 33 106 33l30 -1q52 0 124 -54q42 -33 79 -65t64 -60l6 167q0 98 -32 185q-24 67 -80 105l-24 12q-52 31 -57 80q-5 39 25 70l31 20q42 15 80 15h13q41 -5 86 -34q55 -37 55 -200v-538l1 -1v-1103zM1100 606q81 49 81 89q0 23 -53 52
l-28 12q-32 -8 -48 -20l-16 -36q0 -45 64 -97z" />
    <glyph glyph-name="Cdot" unicode="&#x1792;" horiz-adv-x="1353" 
d="M1096 466l8 8v229l-20 4q-18 0 -33.5 -5.5t-28.5 -20t-22.5 -39.5t-15.5 -64l20 -44q17 -33 92 -68zM859 321q16 -4 26 -6q9 -1 35 -26l56 -44l28 -56q32 -48 64 -56q40 0 40 100v128q-115 40 -188 121l-45 68q0 58 8 88q45 205 213 229q59 0 105 -34q48 -35 48 -90v-643
q-16 -44 -48 -64q-57 -36 -145 -36q-29 13 -58 38t-58 62l-36 53q-13 36 -29 40l-20 8l-36 -24l-28 -20l-112 -157l-61 -4q-92 0 -152 48q-24 20 -56 109v795q-31 16 -56 32t-45 32l-36 36l-8 36q0 28 18 66q8 19 17.5 36.5t20.5 34.5l137 184q100 0 190.5 -44t190.5 -140
q25 0 116 94q93 95 133 95q48 0 86 -53q37 -52 87 -76l32 -16q40 0 60 12q0 -64 -68 -120q-63 -45 -124 -53q-54 12 -121 85l-24 32q-50 -8 -125 -77l-68 -68q-57 45 -106.5 77t-94.5 56q-46 22 -82 35t-62 17l-64 -100l-37 -73l57 -52q67 -52 132 -64v-723l12 -44
q16 -40 52 -44q30 11 45 20l56 64l36 36q45 36 92 40z" />
    <glyph glyph-name="cdot" 
d="M-642 -642q4 0 8 4q23 23 52 64l60 97l65 -16l116 -41q33 13 64 73l65 172l-157 -88q-183 -88 -321 -88q-97 0 -97 -53q0 -38 8 -52q25 -60 137 -72zM-289 -642l-24 -4q-45 0 -124 48l-28 24q-24 -96 -82 -132q-59 -36 -115 -36l-52 4q-129 24 -185 132l-28 105
q0 105 52 142q53 38 185 38q120 0 293 51q88 25 161.5 52t139.5 58q0 -202 -48 -319.5t-145 -162.5z" />
    <glyph glyph-name="Emacron" 
d="M-642 -1272q4 0 8 4q23 23 52 64l60 97l65 -16l116 -41q33 13 64 73l65 172l-157 -88q-183 -88 -321 -88q-97 0 -97 -53q0 -38 8 -52q25 -60 137 -72zM-289 -1272l-24 -4q-45 0 -124 48l-28 24q-24 -96 -82 -132q-59 -36 -115 -36l-52 4q-129 24 -185 132l-28 105
q0 105 52 142q53 38 185 38q120 0 293 51q88 25 161.5 52t139.5 58q0 -202 -48 -319.5t-145 -162.5z" />
    <glyph glyph-name="emacron" horiz-adv-x="1938" 
d="M1928 0h-167v959q-71 124 -207 201q-136 76 -187 63q-53 -11 -95 -30q-20 -10 -52 -23.5t-77 -32.5q-173 -71 -190 -66l-296 167q-32 14 -56 7l-107 -56q-107 -56 -116 -101l21 -24q45 -28 86 -50.5t81 -41.5v-723l12 -44q16 -40 52 -44q30 11 45 20l56 64l36 36
q45 36 92 40q16 -4 26 -6q9 -1 35 -26l56 -44l28 -56q32 -48 64 -56q40 0 40 100v128q-115 40 -188 121l-45 68q0 58 8 88q45 205 213 229q59 0 105 -34q48 -35 48 -90v-643q-16 -44 -48 -64q-57 -36 -145 -36q-29 13 -58 38t-58 62l-36 53q-13 36 -29 40l-20 8l-36 -24
l-28 -20l-112 -157l-61 -4q-92 0 -152 48q-24 20 -56 109v794q-5 5 -28 22.5t-68 46.5l-44 32l-8 36q0 27 6 53q6 25 50 84l246 153q59 32 109 32h10q54 -5 78 -27q13 -11 70 -55.5t160 -122.5q88 54 156 94t120 69q73 37 118 37h92q52 0 168 -90q58 -45 102 -83t76 -69
l105 -107v-1052zM1096 466l8 8v229l-20 4q-18 0 -33.5 -5.5t-28.5 -20t-22.5 -39.5t-15.5 -64l20 -44q17 -33 92 -68z" />
    <glyph glyph-name="Ebreve" horiz-adv-x="1938" 
d="M1933 0h-172v959q-71 124 -207 201q-136 76 -187 63q-53 -11 -95 -30q-20 -10 -52 -23.5t-77 -32.5q-173 -71 -190 -66l-296 167q-32 14 -56 7l-107 -56q-107 -56 -116 -101l21 -24q45 -28 86 -50.5t81 -41.5v-723l12 -44q16 -40 52 -44q30 11 45 20l56 64l36 36
q45 36 92 40q16 -4 26 -6q9 -1 35 -26l56 -44l28 -56q32 -48 64 -56q40 0 40 100v128q-115 40 -188 121l-45 68q0 58 8 88q45 205 213 229q59 0 105 -34q48 -35 48 -90v-643q-16 -44 -48 -64q-57 -36 -145 -36q-29 13 -58 38t-58 62l-36 53q-13 36 -29 40l-20 8l-36 -24
l-28 -20l-112 -157l-61 -4q-92 0 -152 48q-24 20 -56 109v794q-5 5 -28 22.5t-68 46.5l-44 32l-8 36q0 27 6 53q6 25 50 84l246 153q59 32 109 32h10q54 -5 78 -27q13 -11 70 -55.5t160 -122.5q88 54 156 94t120 69q73 37 118 37h92q52 0 168 -90q54 -42 94 -76.5t71 -63.5
q9 14 18 8l8 210q0 98 -32 185q-24 67 -80 105l-24 12q-52 31 -57 80q-5 39 25 70l31 20q42 15 80 15h13q41 -5 86 -34q55 -37 55 -200v-1642zM1096 466l8 8v229l-20 4q-18 0 -33.5 -5.5t-28.5 -20t-22.5 -39.5t-15.5 -64l20 -44q17 -33 92 -68z" />
    <glyph glyph-name="ebreve" unicode="&#x1793;" horiz-adv-x="1188" 
d="M948 827q-101 113 -101 185t89 108l92 20q0 81 -89 111t-200 30l-109 -4q-88 -12 -144 -80l-44 -65v-325q0 -36 184 -52q57 0 94 -1t55 -3q19 -2 37 -6.5t35 -9.5l209 -48q117 -36 117 -133l4 -164v-177q-4 -20 -6 -34t-2 -22q0 -73 -33 -89q-5 -32 -100 -56l-88 -8
q-85 46 -171 82.5t-183 62.5l-160 36v-181h-147l-2 526h149v-217h52l157 -12q42 0 72 -10q18 -5 47 -14.5t69 -23.5l40 -36q49 -36 89 -36q47 0 64 68v261q0 44 -112 80l-197 44q-186 0 -310 24q-124 25 -124 85v397q0 110 52 165q86 92 297 92l85 -4h108q109 0 205 -24
q97 -24 149 -100v-237q0 -18 -1 -38t-3 -42t-6.5 -49.5t-12.5 -59.5q-14 -64 -62 -80q-68 0 -112 32z" />
    <glyph glyph-name="Edot" 
d="M-200 -301h-85v-100h53q124 -12 124 -121q0 -32 -32 -64t-96 -36l-65 12q-36 0 -62 36t-38 97l-56 -8l-101 -65l-56 -16q-26 0 -48 -8l-60 -8h-73l-68 4q-92 17 -140 117l-12 52l-4 36q24 77 94 117t118 40h406v84l24 4l40 8l16 -4l36 -4v-92h145l32 -4q4 -4 4 -8
q0 -49 -40 -65zM-192 -497l-12 16l-20 8l-24 4q-21 -12 -17 -45q0 -36 33 -36q24 0 40 16v37zM-401 -409v116h-394q-52 0 -86 -34t-22 -74q24 -56 56 -78t81 -22l88 -4l100 28q38 12 69 32l48 32z" />
    <glyph glyph-name="edot" 
d="M-200 -881h-85v-100h53q124 -12 124 -121q0 -32 -32 -64t-96 -36l-65 12q-36 0 -62 36t-38 97l-56 -8l-101 -65l-56 -16q-26 0 -48 -8l-60 -8h-73l-68 4q-92 17 -140 117l-12 52l-4 36q24 77 94 117t118 40h406v84l24 4l40 8l16 -4l36 -4v-92h145l32 -4q4 -4 4 -8
q0 -49 -40 -65zM-192 -1077l-12 16l-20 8l-24 4q-21 -12 -17 -45q0 -36 33 -36q24 0 40 16v37zM-401 -989v116h-394q-52 0 -86 -34t-22 -74q24 -56 56 -78t81 -22l88 -4l100 28q38 12 69 32l48 32z" />
    <glyph glyph-name="Gcircumflex" horiz-adv-x="1868" 
d="M1862 0h-167v959q-44 141 -185 272q-70 57 -117 19q-75 -42 -126.5 -87.5t-89.5 -93.5v-37q0 -18 -1 -38t-3 -42t-6.5 -49.5t-12.5 -59.5q-14 -64 -62 -80q-68 0 -112 32l-32 32q-101 113 -101 185t89 108l92 20q0 81 -89 111t-200 30l-109 -4q-88 -12 -144 -80l-44 -65
v-325q0 -36 184 -52q57 0 94 -1t55 -3q19 -2 37 -6.5t35 -9.5l209 -48q117 -36 117 -133l4 -164v-177q-4 -20 -6 -34t-2 -22q0 -73 -33 -89q-5 -32 -100 -56l-88 -8q-85 46 -171 82.5t-183 62.5l-160 36v-181h-148l-1 526h149v-217h52l157 -12q42 0 72 -10q18 -5 47 -14.5
t69 -23.5l40 -36q49 -36 89 -36q47 0 64 68v261q0 44 -112 80l-197 44q-186 0 -310 24q-124 25 -124 85v397q0 110 52 165q86 92 297 92l85 -4h108q109 0 205 -24q97 -24 149 -100v-33q72 81 178 133q45 33 106 33l30 -1q52 0 124 -54q66 -51 116.5 -99t72.5 -78l58 -67
v-1103z" />
    <glyph glyph-name="gcircumflex" horiz-adv-x="1868" 
d="M1862 0h-168v961q-43 138 -184 270q-70 57 -117 19q-75 -42 -126.5 -87.5t-89.5 -93.5v-37q0 -18 -1 -38t-3 -42t-6.5 -49.5t-12.5 -59.5q-14 -64 -62 -80q-68 0 -112 32l-32 32q-101 113 -101 185t89 108l92 20q0 81 -89 111t-200 30l-109 -4q-88 -12 -144 -80l-44 -65
v-325q0 -36 184 -52q57 0 94 -1t55 -3q19 -2 37 -6.5t35 -9.5l209 -48q117 -36 117 -133l4 -164v-177q-4 -20 -6 -34t-2 -22q0 -73 -33 -89q-5 -32 -100 -56l-88 -8q-85 46 -171 82.5t-183 62.5l-160 36v-181h-148l-1 526h149v-217h52l157 -12q42 0 72 -10q18 -5 47 -14.5
t69 -23.5l40 -36q49 -36 89 -36q47 0 64 68v261q0 44 -112 80l-197 44q-186 0 -310 24q-124 25 -124 85v397q0 110 52 165q86 92 297 92l85 -4h108q109 0 205 -24q97 -24 149 -100v-33q72 81 178 133q45 33 106 33l30 -1q52 0 124 -54q42 -33 79 -65t64 -60l6 167
q0 98 -32 185q-24 67 -80 105l-24 12q-52 31 -57 80q-5 39 25 70l31 20q42 15 80 15h13q41 -5 86 -34q55 -37 55 -200v-538l1 -1v-1103z" />
    <glyph glyph-name="Gdot" unicode="&#x1794;" horiz-adv-x="1353" 
d="M1084 562v394q0 36 -50 60t-163 48q12 37 28.5 85t40.5 88q89 173 152 173l65 -21q20 -8 38 -14.5t34 -11.5q31 -11 120 -54l73 8q-25 -96 -61 -136.5t-80 -40.5q-30 0 -64 25l-28 28q-29 26 -73 40l-60 12l-68 -145l132 -32q133 -43 133 -92v-868q-105 -84 -269 -108
h-76.5t-88.5 -8q-216 0 -337 56q-34 13 -88 60v840q0 20 -37 48q-36 28 -176 60q12 37 28 85t40 88q88 172 153 172l64 -20l193 -80l72 8q-24 -96 -60.5 -136.5t-80.5 -40.5q-21 0 -64 25l-28 24q-31 28 -72 40l-61 12l-68 -133l129 -60q132 -72 132 -120v-771l97 -33
q60 -17 102 -24q21 -4 44.5 -6t49.5 -2l109 16q16 6 47.5 25.5t80.5 51.5z" />
    <glyph glyph-name="gdot" horiz-adv-x="702" 
d="M-144 -341q72 24 76 52q-28 24 -52 32l-24 5v-89zM-285 -574v366q0 24 16 36q37 36 125 36l80 -20q84 -36 84 -105q0 -45 -28 -94q-14 -25 -42.5 -57.5t-73.5 -72.5v-69q60 0 92 20q95 53 177 229q6 -14 12 -26.5t12 -23.5t17 -26.5t27 -35.5q72 -97 181 -97v1462
q0 10 -14.5 23.5t-42 28.5t-67 29.5t-89.5 26.5l68 173q79 172 149 172l64 -20l197 -80l72 8q-24 -108 -61 -145q-36 -40 -80 -48q-25 0 -68 24l-28 25q-31 28 -72 40l-61 12l-56 -105l125 -40q120 -48 128 -96v-1562q-55 -88 -140 -88q-49 0 -97 24l-68 36q-36 12 -72 76
l-28 61l-20 -49q-29 -56 -97 -96q-96 -48 -184 -48q-68 0 -113 48z" />
    <glyph glyph-name="Gcedilla" horiz-adv-x="702" 
d="M-144 -1011q72 24 76 52q-28 24 -52 32l-24 5v-89zM-285 -1244v366q0 24 16 36q37 36 125 36l80 -20q84 -36 84 -105q0 -45 -28 -94q-14 -25 -42.5 -57.5t-73.5 -72.5v-69q60 0 92 20q95 53 177 229q6 -14 12 -26.5t12 -23.5t17 -26.5t27 -35.5q72 -97 181 -97v2132
q0 10 -14.5 23.5t-42 28.5t-67 29.5t-89.5 26.5l68 173q79 172 149 172l64 -20l197 -80l72 8q-24 -108 -61 -145q-36 -40 -80 -48q-25 0 -68 24l-28 25q-31 28 -72 40l-61 12l-56 -105l125 -40q120 -48 128 -96v-2232q-55 -88 -140 -88q-49 0 -97 24l-68 36q-36 12 -72 76
l-28 61l-20 -49q-29 -56 -97 -96q-96 -48 -184 -48q-68 0 -113 48z" />
    <glyph glyph-name="gcedilla" horiz-adv-x="1919" 
d="M1914 0h-167v959q-71 124 -207 201q-136 76 -187 63q-53 -11 -95 -30q-20 -10 -52 -23.5t-77 -32.5q-173 -71 -190 -66l-296 167q-32 14 -56 7l-107 -56q-107 -56 -116 -101l21 -24q42 -26 103.5 -57t143.5 -68l3 1v-759q0 -24 28 -40l88 -8l132 4l113 48q72 43 72 84
v542l181 20v-975l-52 -8l-44 -4l-93 8v301q-32 -69 -132 -117q-43 -16 -82 -26t-75 -14q-173 0 -233 24q-84 36 -84 149v735q-29 23 -67 51.5t-87 60.5l-44 32l-8 36q0 27 6 53q6 25 50 84l246 153q59 32 109 32h10q54 -5 78 -27q13 -11 70 -55.5t160 -122.5q88 54 156 94
t120 69q73 37 118 37h92q52 0 168 -90q58 -45 102 -83t76 -69l105 -107v-1052z" />
    <glyph glyph-name="Hcircumflex" horiz-adv-x="1349" 
d="M391 188l1 766q0 23 -69 52q-10 4 -23 9t-29 11q-32 12 -120 36q12 37 28 85t40 88q89 173 198 173l36 -16q32 -28 63 -48.5t60 -34.5q60 -27 79 -9l18 6q20 12 55.5 33.5t89.5 52.5l59 15q83 -15 200 -90q31 -22 70.5 -49t88.5 -61l103 -65v-1142h-167v1049
q-38 32 -84.5 68.5t-101.5 76.5q-60 46 -148 32q-28 -4 -53 -9.5t-48 -13.5q-18 -7 -47.5 -20.5t-71.5 -35.5q-8 -7 -17 -11t-17 -7l-8 -4l1 2q-2 -1 -9 -1h-8q-30 0 -64 25l-32 28q-20 20 -68 32l-81 8l-56 -117q110 -12 145 -28q140 -36 148 -84v-25l6 1v-1552
q-55 -88 -140 -88q-49 0 -97 24l-68 36q-36 12 -72 76l-28 61l-20 -49q-29 -56 -97 -96q-96 -48 -184 -48q-68 0 -113 48l-24 48v366q0 24 16 36q37 36 125 36l80 -20q84 -36 84 -105q0 -45 -28 -94q-14 -25 -42.5 -57.5t-73.5 -72.5v-69q60 0 92 20q95 53 177 229
q6 -14 12 -26.5t12 -23.5t17 -26.5t27 -35.5q72 -97 181 -97v702h-3zM-144 -341q72 24 76 52q-28 24 -52 32l-24 5v-89z" />
    <glyph glyph-name="hcircumflex" horiz-adv-x="1349" 
d="M391 188l1 766q0 23 -69 52q-10 4 -23 9t-29 11q-32 12 -120 36q12 37 28 85t40 88q89 173 198 173l36 -16q32 -28 63 -48.5t60 -34.5q60 -27 79 -9l18 6q20 12 55.5 33.5t89.5 52.5l59 15q83 -15 200 -90q31 -22 70.5 -49t88.5 -61l103 -65v-1142h-167v1049
q-38 32 -84.5 68.5t-101.5 76.5q-60 46 -148 32q-28 -4 -53 -9.5t-48 -13.5q-18 -7 -47.5 -20.5t-71.5 -35.5q-8 -7 -17 -11t-17 -7l-8 -4l1 2q-2 -1 -9 -1h-8q-30 0 -64 25l-32 28q-20 20 -68 32l-81 8l-56 -117q110 -12 145 -28q140 -36 148 -84v-25l6 1v-2222
q-55 -88 -140 -88q-49 0 -97 24l-68 36q-36 12 -72 76l-28 61l-20 -49q-29 -56 -97 -96q-96 -48 -184 -48q-68 0 -113 48l-24 48v366q0 24 16 36q37 36 125 36l80 -20q84 -36 84 -105q0 -45 -28 -94q-14 -25 -42.5 -57.5t-73.5 -72.5v-69q60 0 92 20q95 53 177 229
q6 -14 12 -26.5t12 -23.5t17 -26.5t27 -35.5q72 -97 181 -97v1372h-3zM-144 -1011q72 24 76 52q-28 24 -52 32l-24 5v-89z" />
    <glyph glyph-name="Hbar" horiz-adv-x="1919" 
d="M1914 0h-168v960q-69 123 -206 200q-136 76 -187 63q-53 -11 -95 -30q-20 -10 -52 -23.5t-77 -32.5q-173 -71 -190 -66l-296 167q-32 14 -56 7l-107 -56q-107 -56 -116 -101l21 -24q42 -26 103.5 -57t143.5 -68l3 1v-759q0 -24 28 -40l88 -8l132 4l113 48q72 43 72 84
v542l181 20v-975l-52 -8l-44 -4l-93 8v301q-32 -69 -132 -117q-43 -16 -82 -26t-75 -14q-173 0 -233 24q-84 36 -84 149v735q-29 23 -67 51.5t-87 60.5l-44 32l-8 36q0 27 6 53q6 25 50 84l246 153q59 32 109 32h10q54 -5 78 -27q13 -11 70 -55.5t160 -122.5q88 54 156 94
t120 69q73 37 118 37h92q52 0 168 -90q51 -39 91 -73.5t71 -63.5q8 9 15 5l8 210q0 98 -32 185q-24 67 -80 105l-24 12q-52 31 -57 80q-5 39 25 70l31 20q42 15 80 15h13q41 -5 86 -34q55 -37 55 -200v-589l1 -1v-1052z" />
    <glyph glyph-name="hbar" horiz-adv-x="1349" 
d="M391 188l1 766q0 23 -69 52q-10 4 -23 9t-29 11q-32 12 -120 36q12 37 28 85t40 88q89 173 198 173l36 -16q32 -28 63 -48.5t60 -34.5q60 -27 79 -9l18 6q20 12 55.5 33.5t89.5 52.5l59 15q83 -15 200 -90q30 -22 68.5 -48.5t86.5 -58.5l9 169q0 98 -32 185
q-24 67 -80 105l-24 12q-52 31 -57 80q-5 39 25 70l31 20q42 15 80 15h13q41 -5 86 -34q55 -37 55 -200v-490h1v-1142h-168v1049q-38 32 -84.5 68.5t-100.5 76.5q-60 46 -148 32q-28 -4 -53 -9.5t-48 -13.5q-18 -7 -47.5 -20.5t-71.5 -35.5q-8 -7 -17 -11t-17 -7l-8 -4l1 2
q-2 -1 -9 -1h-8q-30 0 -64 25l-32 28q-20 20 -68 32l-81 8l-56 -117q110 -12 145 -28q140 -36 148 -84v-25l6 1v-1552q-55 -88 -140 -88q-49 0 -97 24l-68 36q-36 12 -72 76l-28 61l-20 -49q-29 -56 -97 -96q-96 -48 -184 -48q-68 0 -113 48l-24 48v366q0 24 16 36
q37 36 125 36l80 -20q84 -36 84 -105q0 -45 -28 -94q-14 -25 -42.5 -57.5t-73.5 -72.5v-69q60 0 92 20q95 53 177 229q6 -14 12 -26.5t12 -23.5t17 -26.5t27 -35.5q72 -97 181 -97v702h-3zM-144 -341q72 24 76 52q-28 24 -52 32l-24 5v-89z" />
    <glyph glyph-name="Itilde" horiz-adv-x="1349" 
d="M391 188l1 766q0 23 -69 52q-10 4 -23 9t-29 11q-32 12 -120 36q12 37 28 85t40 88q89 173 198 173l36 -16q32 -28 63 -48.5t60 -34.5q60 -27 79 -9l18 6q20 12 55.5 33.5t89.5 52.5l59 15q83 -15 200 -90q30 -22 68.5 -48.5t86.5 -58.5l9 169q0 98 -32 185
q-24 67 -80 105l-24 12q-52 31 -57 80q-5 39 25 70l31 20q42 15 80 15h13q41 -5 86 -34q55 -37 55 -200v-490h1v-1142h-168v1049q-38 32 -84.5 68.5t-100.5 76.5q-60 46 -148 32q-28 -4 -53 -9.5t-48 -13.5q-18 -7 -47.5 -20.5t-71.5 -35.5q-8 -7 -17 -11t-17 -7l-8 -4l1 2
q-2 -1 -9 -1h-8q-30 0 -64 25l-32 28q-20 20 -68 32l-81 8l-56 -117q110 -12 145 -28q140 -36 148 -84v-25l6 1v-2222q-55 -88 -140 -88q-49 0 -97 24l-68 36q-36 12 -72 76l-28 61l-20 -49q-29 -56 -97 -96q-96 -48 -184 -48q-68 0 -113 48l-24 48v366q0 24 16 36
q37 36 125 36l80 -20q84 -36 84 -105q0 -45 -28 -94q-14 -25 -42.5 -57.5t-73.5 -72.5v-69q60 0 92 20q95 53 177 229q6 -14 12 -26.5t12 -23.5t17 -26.5t27 -35.5q72 -97 181 -97v1372h-3zM-144 -1011q72 24 76 52q-28 24 -52 32l-24 5v-89z" />
    <glyph glyph-name="itilde" unicode="&#x1795;" horiz-adv-x="1317" 
d="M1144 518l13 8v233h-25q-32 0 -68 -40q-20 -32 -28 -89l24 -56q11 -16 84 -56zM1161 237v140q-117 41 -189 137l-44 88q0 42 8 81.5t16 67.5q48 144 192 169q64 0 111 -27q46 -25 46 -82v-687q0 -69 -46 -94q-23 -13 -49.5 -21.5t-57.5 -12.5l-60 4q-76 35 -152 165
l-28 52q-4 16 -12.5 26t-12.5 14l-20 8q-14 -6 -24 -11t-16 -9l-24 -24l-44 -76q-52 -81 -125 -141l-76 -8q-84 0 -120 72l-16 73v815q-25 16 -58 32t-75 32l-68 20l28 80q36 97 124 209l69 40q79 32 132 41q73 0 181 -109l44 -20l88 -60l89 -32l72 -12q64 0 96 36
q25 31 37 104q-31 57 -67.5 99t-81.5 70l-64 28l-44 24q-37 24 -37 64q0 56 121 125q42 -20 76 -41.5t60 -43.5q141 -120 161 -313q0 -164 -104 -233q-71 -44 -193 -44h-76l-45 12q-101 24 -168 72l-28 29q-101 68 -141 68q-24 0 -56 -20l-20 -20l-36 -61l-12 -36l44 -52
q55 -52 120 -64v-727q0 -52 57 -56q24 20 40 44q36 72 56 92l36 28q40 25 92 33l57 -13q28 -8 60 -40q13 -46 28 -68q32 -60 64 -68l28 -12q52 0 57 44z" />
    <glyph glyph-name="Imacron" 
d="M-261 -401l-32 24l-20 8q-16 -16 -16 -28t-4 -18t-8 -10l-20 -8q-24 0 -48 36q-8 32 -20 48q0 49 40 101t100 52l49 -8q42 -8 72 -32l44 -61v-257l-4 -60v-4q-12 -24 -32 -36q-24 -24 -64 -36l-69 -16q-40 0 -64 12l-161 152l-156 -152q-24 -12 -72 -12q-59 0 -115 38
q-54 37 -54 114v330h161l-4 -265l12 -49q0 -21 24 -28q12 4 24 12t32 28l152 113l141 -109l36 -16l40 -8q36 0 36 49v96z" />
    <glyph glyph-name="imacron" 
d="M-261 -991l-32 24l-20 8q-16 -16 -16 -28t-4 -18t-8 -10l-20 -8q-24 0 -48 36q-8 32 -20 48q0 49 40 101t100 52l49 -8q42 -8 72 -32l44 -61v-257l-4 -60v-4q-12 -24 -32 -36q-24 -24 -64 -36l-69 -16q-40 0 -64 12l-161 152l-156 -152q-24 -12 -72 -12q-59 0 -115 38
q-54 37 -54 114v330h161l-4 -265l12 -49q0 -21 24 -28q12 4 24 12t32 28l152 113l141 -109l36 -16l40 -8q36 0 36 49v96z" />
    <glyph glyph-name="Ibreve" horiz-adv-x="1970" 
d="M1962 0h-167v959q-71 98 -170 188q-112 123 -156 100q-32 -10 -60.5 -19t-52.5 -18q-14 -5 -37 -15.5t-55 -26.5q-25 -42 -67 -72q-71 -44 -193 -44h-76l-45 12q-101 24 -168 72l-28 29q-101 68 -141 68q-24 0 -56 -20l-20 -20l-36 -61l-12 -36l44 -52q55 -52 120 -64
v-727q0 -52 57 -56q24 20 40 44q36 72 56 92l36 28q40 25 92 33l57 -13q28 -8 60 -40q13 -46 28 -68q32 -60 64 -68l28 -12q52 0 57 44v140q-117 41 -189 137l-44 88q0 42 8 81.5t16 67.5q48 144 192 169q64 0 111 -27q46 -25 46 -82v-687q0 -69 -46 -94
q-23 -13 -49.5 -21.5t-57.5 -12.5l-60 4q-76 35 -152 165l-28 52q-4 16 -12.5 26t-12.5 14l-20 8q-14 -6 -24 -11t-16 -9l-24 -24l-44 -76q-52 -81 -125 -141l-76 -8q-84 0 -120 72l-16 73v815q-25 16 -58 32t-75 32l-68 20l28 80q36 97 124 209l69 40q79 32 132 41
q73 0 181 -109l44 -20l88 -60l89 -32l72 -12q64 0 96 36q25 31 37 104q-31 57 -67.5 99t-81.5 70l-64 28l-44 24q-37 24 -37 64q0 56 121 125q42 -20 76 -41.5t60 -43.5q141 -120 161 -313v-3q14 7 26.5 13.5t23.5 11.5q77 50 148 59l48 -4q66 -22 136 -86q58 -42 100 -86
t74 -75l105 -107v-1052zM1144 518l13 8v233h-25q-32 0 -68 -40q-20 -32 -28 -89l24 -56q11 -16 84 -56z" />
    <glyph glyph-name="ibreve" horiz-adv-x="1970" 
d="M1962 0h-168v960q-35 48 -77.5 94.5t-91.5 92.5q-112 123 -156 100q-32 -10 -60.5 -19t-52.5 -18q-14 -5 -37 -15.5t-55 -26.5q-25 -42 -67 -72q-71 -44 -193 -44h-76l-45 12q-101 24 -168 72l-28 29q-101 68 -141 68q-24 0 -56 -20l-20 -20l-36 -61l-12 -36l44 -52
q55 -52 120 -64v-727q0 -52 57 -56q24 20 40 44q36 72 56 92l36 28q40 25 92 33l57 -13q28 -8 60 -40q13 -46 28 -68q32 -60 64 -68l28 -12q52 0 57 44v140q-117 41 -189 137l-44 88q0 42 8 81.5t16 67.5q48 144 192 169q64 0 111 -27q46 -25 46 -82v-687q0 -69 -46 -94
q-23 -13 -49.5 -21.5t-57.5 -12.5l-60 4q-76 35 -152 165l-28 52q-4 16 -12.5 26t-12.5 14l-20 8q-14 -6 -24 -11t-16 -9l-24 -24l-44 -76q-52 -81 -125 -141l-76 -8q-84 0 -120 72l-16 73v815q-25 16 -58 32t-75 32l-68 20l28 80q36 97 124 209l69 40q79 32 132 41
q73 0 181 -109l44 -20l88 -60l89 -32l72 -12q64 0 96 36q25 31 37 104q-31 57 -67.5 99t-81.5 70l-64 28l-44 24q-37 24 -37 64q0 56 121 125q42 -20 76 -41.5t60 -43.5q141 -120 161 -313v-3q14 7 26.5 13.5t23.5 11.5q77 50 148 59l48 -4q66 -22 136 -86q51 -37 89.5 -76
t68.5 -70q8 9 15 5l8 210q0 98 -32 185q-24 67 -80 105l-24 12q-52 31 -57 80q-5 39 25 70l31 20q42 15 80 15h13q41 -5 86 -34q55 -37 55 -200v-589l1 -1v-1052zM1144 518l13 8v233h-25q-32 0 -68 -40q-20 -32 -28 -89l24 -56q11 -16 84 -56z" />
    <glyph glyph-name="Iogonek" unicode="&#x1796;" horiz-adv-x="1272" 
d="M450 377v-188q104 0 104 112q-12 76 -104 76zM1269 0h-157v1084q-40 83 -62 111q-11 15 -26.5 27.5t-35.5 22.5l-121 -113q-84 -84 -116 -84l-104 96q-69 73 -101 81q-23 0 -64 -41q-40 -40 -52 -88l4 -534q94 -12 136 -32q141 -60 141 -221q-28 -156 -97 -249l-64 -56
l-60 -4q-137 0 -185 100l-24 125v964q0 36 92 128q93 84 153 93q48 0 121 -73l112 -112l32 -12q12 10 22 18t18 14q24 22 50 47t54 53q59 56 109 65q40 0 72 -21q31 -12 105 -152l48 -113v-1124z" />
    <glyph glyph-name="iogonek" 
d="M-722 -586q-8 12 -61 20v-72q61 0 61 52zM-819 -714l-56 24l-16 20l-12 12v285q0 68 46 123q46 54 127 54l72 -16q88 -32 120 -105l37 60q60 61 160 61q88 -12 125 -40q64 -57 64 -161v-325h-125v325q-8 52 -28 68q-20 17 -64 24h-36l-28 -12q-12 -4 -24 -12t-32 -32
l-41 -52q-44 65 -80 84l-64 20l-36 4q-31 0 -48 -20l-29 -64v-88l97 -4q48 -12 48 -105q0 -38 -20 -76q-36 -60 -104 -60z" />
    <glyph glyph-name="Jcircumflex" 
d="M-722 -1206q-8 12 -61 20v-72q61 0 61 52zM-819 -1334l-56 24l-16 20l-12 12v285q0 68 46 123q46 54 127 54l72 -16q88 -32 120 -105l37 60q60 61 160 61q88 -12 125 -40q64 -57 64 -161v-325h-125v325q-8 52 -28 68q-20 17 -64 24h-36l-28 -12q-12 -4 -24 -12t-32 -32
l-41 -52q-44 65 -80 84l-64 20l-36 4q-31 0 -48 -20l-29 -64v-88l97 -4q48 -12 48 -105q0 -38 -20 -76q-36 -60 -104 -60z" />
    <glyph glyph-name="jcircumflex" horiz-adv-x="1960" 
d="M1952 0h-167v959q-44 141 -185 272q-70 57 -117 19q-75 -40 -125.5 -86t-88.5 -92v-1072h-157v1084q-40 83 -62 111q-11 15 -26.5 27.5t-35.5 22.5l-121 -113q-84 -84 -116 -84l-104 96q-69 73 -101 81q-23 0 -64 -41q-40 -40 -52 -88l4 -534q94 -12 136 -32
q141 -60 141 -221q-28 -156 -97 -249l-64 -56l-60 -4q-137 0 -185 100l-24 125v964q0 36 92 128q93 84 153 93q48 0 121 -73l112 -112l32 -12q12 10 22 18t18 14q24 22 50 47t54 53q59 56 109 65q40 0 72 -21q31 -12 105 -152l8 -19q51 48 104.5 85.5t111.5 65.5
q45 33 106 33l30 -1q52 0 124 -54q66 -51 116.5 -99t72.5 -78l58 -67v-1103zM450 377v-188q104 0 104 112q-12 76 -104 76z" />
    <glyph glyph-name="Kcedilla" horiz-adv-x="1960" 
d="M1952 0h-168v961q-43 138 -184 270q-70 57 -117 19q-75 -40 -125.5 -86t-88.5 -92v-1072h-157v1084q-40 83 -62 111q-11 15 -26.5 27.5t-35.5 22.5l-121 -113q-84 -84 -116 -84l-104 96q-69 73 -101 81q-23 0 -64 -41q-40 -40 -52 -88l4 -534q94 -12 136 -32
q141 -60 141 -221q-28 -156 -97 -249l-64 -56l-60 -4q-137 0 -185 100l-24 125v964q0 36 92 128q93 84 153 93q48 0 121 -73l112 -112l32 -12q12 10 22 18t18 14q24 22 50 47t54 53q59 56 109 65q40 0 72 -21q31 -12 105 -152l8 -19q51 48 104.5 85.5t111.5 65.5
q45 33 106 33l30 -1q52 0 124 -54q42 -33 79 -65t64 -60l6 167q0 98 -32 185q-24 67 -80 105l-24 12q-52 31 -57 80q-5 39 25 70l31 20q42 15 80 15h13q41 -5 86 -34q55 -37 55 -200v-538l1 -1v-1103zM450 377v-188q104 0 104 112q-12 76 -104 76z" />
    <glyph glyph-name="kcedilla" unicode="&#x1797;" horiz-adv-x="1381" 
d="M614 80q-12 -52 -46 -68t-94 -24l-48 4l-28 8q-61 36 -111 104q-50 71 -50 141q0 83 32 136q25 42 70 81.5t111 79.5v333l12 20l64 49q-48 8 -145 72l-44 32l-8 36q0 13 5 30.5t13 36t18 37t21 33.5l136 184q100 0 190.5 -44.5t191.5 -139.5q24 0 120 84t149 92
q32 0 64 -24l104 -100l12 -8q39 0 65 12q0 -70 -43 -125q-42 -56 -94 -60q-53 12 -120 81l-61 60q-49 -8 -136 -89l-81 -80q-45 32 -94 64.5t-106 64.5q-48 25 -87.5 38.5t-73.5 17.5q-72 -105 -80 -153l40 -48q56 -56 116 -72l121 28q67 12 164 12h49q121 0 204 -28
q101 -24 181 -113v-875h-160v831l-137 56q-66 25 -161 25q-86 0 -176 -37l-69 -36v-759zM450 124v253q-4 -12 -10 -20q-3 -4 -12 -13.5t-25 -24.5q-30 -30 -42 -86l-4 -36q0 -36 37 -48q32 -4 56 -25z" />
    <glyph glyph-name="kgreenlandic" 
d="M-867 -598v201q0 105 115 157q108 52 255 52q152 0 271 -48q118 -49 118 -161v-325h-140v325q0 44 -86 70q-93 26 -163 26t-143 -24q-74 -24 -82 -72v-269l-24 -40l-65 -16q-114 0 -154 34q-42 34 -42 102q0 85 52 125l32 12q28 0 32 -40q-24 -27 -28 -45l12 -44
q7 -29 12 -30q4 -2 8 -6z" />
    <glyph glyph-name="Lcedilla" 
d="M-867 -1218v201q0 105 115 157q108 52 255 52q152 0 271 -48q118 -49 118 -161v-325h-140v325q0 44 -86 70q-93 26 -163 26t-143 -24q-74 -24 -82 -72v-269l-24 -40l-65 -16q-114 0 -154 34q-42 34 -42 102q0 85 52 125l32 12q28 0 32 -40q-24 -27 -28 -45l12 -44
q7 -29 12 -30q4 -2 8 -6z" />
    <glyph glyph-name="lcedilla" horiz-adv-x="1947" 
d="M1942 0h-167v959q-71 124 -207 201q-136 76 -187 63q-53 -11 -95 -30q-20 -10 -52 -23.5t-77 -32.5q-173 -71 -190 -66l-296 167q-32 14 -56 7l-107 -56q-107 -56 -116 -101l21 -24q42 -26 88 -48.5t98 -39.5l120 28q67 12 164 12h49q121 0 204 -28q101 -24 181 -113
v-875h-160v831l-137 56q-66 25 -161 25q-86 0 -176 -37l-69 -36v-759q-12 -52 -46 -68t-94 -24l-48 4l-28 8q-61 36 -111 104q-50 71 -50 141q0 83 32 136q25 42 70 81.5t111 79.5v333l12 20l40 30q-42 14 -84 37t-90 54l-44 32l-8 36q0 27 6 53q6 25 50 84l246 153
q59 32 109 32h10q54 -5 78 -27q13 -11 70 -55.5t160 -122.5q88 54 156 94t120 69q73 37 118 37h92q52 0 168 -90q58 -45 102 -83t76 -69l105 -107v-1052zM450 124v253q-4 -12 -10 -20q-3 -4 -12 -13.5t-25 -24.5q-30 -30 -42 -86l-4 -36q0 -36 37 -48q32 -4 56 -25z" />
    <glyph glyph-name="Ncedilla" horiz-adv-x="1947" 
d="M1942 0h-168v960q-69 123 -206 200q-136 76 -187 63q-53 -11 -95 -30q-20 -10 -52 -23.5t-77 -32.5q-173 -71 -190 -66l-296 167q-32 14 -56 7l-107 -56q-107 -56 -116 -101l21 -24q42 -26 88 -48.5t98 -39.5l120 28q67 12 164 12h49q121 0 204 -28q101 -24 181 -113
v-875h-160v831l-137 56q-66 25 -161 25q-86 0 -176 -37l-69 -36v-759q-12 -52 -46 -68t-94 -24l-48 4l-28 8q-61 36 -111 104q-50 71 -50 141q0 83 32 136q25 42 70 81.5t111 79.5v333l12 20l40 30q-42 14 -84 37t-90 54l-44 32l-8 36q0 27 6 53q6 25 50 84l246 153
q59 32 109 32h10q54 -5 78 -27q13 -11 70 -55.5t160 -122.5q88 54 156 94t120 69q73 37 118 37h92q52 0 168 -90q51 -39 91 -73.5t71 -63.5q8 9 15 5l8 210q0 98 -32 185q-24 67 -80 105l-24 12q-52 31 -57 80q-5 39 25 70l31 20q42 15 80 15h13q41 -5 86 -34
q55 -37 55 -200v-589l1 -1v-1052zM450 124v253q-4 -12 -10 -20q-3 -4 -12 -13.5t-25 -24.5q-30 -30 -42 -86l-4 -36q0 -36 37 -48q32 -4 56 -25z" />
    <glyph glyph-name="ncedilla" unicode="&#x1798;" horiz-adv-x="1441" 
d="M1177 173v393h-547v-393l97 -32q30 -8 55.5 -14.5t46.5 -10.5t45 -6t50 -2l44 4l64 -4l60 12zM1337 112q-84 -65 -205 -96l-237 -20q-214 0 -337 56q-34 13 -88 60v840q0 10 -14.5 23.5t-42 28.5t-67 29.5t-89.5 26.5q12 37 28 85t40 88q88 172 153 172q46 -7 58 -12
q7 -2 17.5 -7t24.5 -13l157 -68l72 8q-24 -96 -60 -136.5t-80 -40.5q-31 0 -65 25l-28 24q-31 28 -72 40l-60 12l-61 -125l125 -60q120 -64 124 -116v-245h547v269q0 25 -61 56l-168 52q12 37 28 85t40 88q89 173 153 173l64 -21q20 -8 38 -14.5t34 -11.5q26 -10 121 -54
l72 8q-24 -96 -60.5 -136.5t-80.5 -40.5q-30 0 -64 25l-28 28q-31 28 -72 40l-61 12l-60 -125q36 -12 68.5 -20t64.5 -24q132 -48 132 -100v-868z" />
    <glyph glyph-name="Eng" 
d="M-702 -457q48 0 92 48q45 50 68 112h149v121h120v-117h69q44 0 92 -36q40 -40 40 -88q0 -33 -36 -76q-36 -45 -85.5 -69t-103.5 -24q-52 0 -68 18t-24 71v112h-108q-25 -69 -71 -115t-122 -58q-89 0 -157 65q-68 56 -116 164l68 36q7 -31 73 -92q64 -60 120 -72z
M-273 -365v-140l65 28q32 20 44 52q0 60 -109 60z" />
    <glyph glyph-name="eng" 
d="M-702 -1097q48 0 92 48q45 50 68 112h149v121h120v-117h69q44 0 92 -36q40 -40 40 -88q0 -33 -36 -76q-36 -45 -85.5 -69t-103.5 -24q-52 0 -68 18t-24 71v112h-108q-25 -69 -71 -115t-122 -58q-89 0 -157 65q-68 56 -116 164l68 36q7 -31 73 -92q64 -60 120 -72z
M-273 -1005v-140l65 28q32 20 44 52q0 60 -109 60z" />
    <glyph glyph-name="Omacron" horiz-adv-x="2100" 
d="M2092 0h-167v1059q-38 32 -77 68.5t-79 76.5q-60 46 -148 32q-28 -4 -53 -9.5t-48 -13.5q-18 -7 -47.5 -20.5t-71.5 -35.5q-8 -7 -17 -11t-17 -7l-8 -4l1 2q-2 -1 -9 -1h-8q-30 0 -64 25l-32 28q-20 20 -68 32l-81 8l-56 -117q110 -12 145 -28q140 -36 148 -84v-21l2 1
v-868q-84 -65 -205 -96l-237 -20q-214 0 -337 56q-34 13 -88 60v840q0 10 -14.5 23.5t-42 28.5t-67 29.5t-89.5 26.5q12 37 28 85t40 88q88 172 153 172q46 -7 58 -12q7 -2 17.5 -7t24.5 -13l157 -68l72 8q-24 -96 -60 -136.5t-80 -40.5q-31 0 -65 25l-28 24q-31 28 -72 40
l-60 12l-61 -125l125 -60q120 -64 124 -116v-245h544l1 273q0 23 -69 52q-10 4 -23 9t-29 11q-32 12 -120 36q12 37 28 85t40 88q89 173 198 173l36 -16q32 -28 63 -48.5t60 -34.5q60 -27 79 -9l18 6q20 12 55.5 33.5t89.5 52.5l59 15q83 -15 170 -90q31 -22 70.5 -49
t88.5 -61l103 -65v-1152zM1177 173v15h-3v378h-544v-393l97 -32q30 -8 55.5 -14.5t46.5 -10.5t45 -6t50 -2l44 4l64 -4l60 12z" />
    <glyph glyph-name="omacron" horiz-adv-x="2100" 
d="M2092 0h-168v1059q-38 32 -77 68.5t-78 76.5q-60 46 -148 32q-28 -4 -53 -9.5t-48 -13.5q-18 -7 -47.5 -20.5t-71.5 -35.5q-8 -7 -17 -11t-17 -7l-8 -4l1 2q-2 -1 -9 -1h-8q-30 0 -64 25l-32 28q-20 20 -68 32l-81 8l-56 -117q110 -12 145 -28q140 -36 148 -84v-21l2 1
v-868q-84 -65 -205 -96l-237 -20q-214 0 -337 56q-34 13 -88 60v840q0 10 -14.5 23.5t-42 28.5t-67 29.5t-89.5 26.5q12 37 28 85t40 88q88 172 153 172q46 -7 58 -12q7 -2 17.5 -7t24.5 -13l157 -68l72 8q-24 -96 -60 -136.5t-80 -40.5q-31 0 -65 25l-28 24q-31 28 -72 40
l-60 12l-61 -125l125 -60q120 -64 124 -116v-245h544l1 273q0 23 -69 52q-10 4 -23 9t-29 11q-32 12 -120 36q12 37 28 85t40 88q89 173 198 173l36 -16q32 -28 63 -48.5t60 -34.5q60 -27 79 -9l18 6q20 12 55.5 33.5t89.5 52.5l59 15q83 -15 170 -90q30 -22 68.5 -48.5
t86.5 -58.5l9 169q0 98 -32 185q-24 67 -80 105l-24 12q-52 31 -57 80q-5 39 25 70l31 20q42 15 80 15h13q41 -5 86 -34q55 -37 55 -200v-490h1v-1152zM1177 173v15h-3v378h-544v-393l97 -32q30 -8 55.5 -14.5t46.5 -10.5t45 -6t50 -2l44 4l64 -4l60 12z" />
    <glyph glyph-name="Obreve" unicode="&#x1799;" horiz-adv-x="1919" 
d="M446 855v-658l56 -44q79 -49 161 -49l96 12q94 0 136 13q84 24 125 92v723q0 24 -40 52q-60 44 -193 72q12 37 28 85t40 88q89 173 153 173q22 -5 36.5 -8t21.5 -5t17.5 -7t24.5 -13l157 -68l72 8q-24 -96 -60 -136.5t-80 -40.5q-28 0 -65 25l-28 28l-76 36l-56 16
l-60 -125l132 -60q129 -70 137 -120v-735l56 -44q70 -49 156 -49q109 0 181 36q72 37 72 85v735q-8 10 -14 17t-10 11q-24 14 -78 34t-139 46q12 37 28.5 85t40.5 88q89 173 152 173l97 -37l60 -20q23 -7 100 -48l73 12q-24 -96 -60.5 -136t-80.5 -40q-28 0 -64 24l-28 24
q-29 26 -73 40l-60 12l-60 -125l145 -36q144 -44 144 -88v-888q-36 -56 -96 -80q-104 -40 -241 -40l-93 4q-112 0 -166 28t-58 80q-77 -65 -205 -96l-233 -20l-89 -4q-216 0 -313 96q-23 31 -48 97v903l-4 85q0 90 26 174q25 79 111 79l64 -12l112 -73q117 -96 117 -193
q0 -68 -60.5 -140t-196.5 -153zM530 1124l8 33q0 40 -60 72l-32 12v-253z" />
    <glyph glyph-name="obreve" horiz-adv-x="867" 
d="M-64 -361q72 24 76 52q-28 24 -52 32l-24 8v-92zM462 -714l-149 -4l-269 -4q-99 0 -188 104l-64 104l4 290l8 20q31 52 132 52q65 -8 84 -20q84 -36 84 -109q0 -36 -32 -90t-116 -134q0 -32 32 -49q70 -32 221 -32q84 0 120 6q18 3 39 9.5t46 16.5l96 73l8 1449
q0 10 -14.5 23.5t-41.5 28.5t-66.5 29.5t-90.5 26.5l68 173q81 173 149 173l64 -21l197 -80l72 8q-24 -104 -60 -145q-36 -40 -80 -48q-25 0 -68 25l-29 24q-31 28 -72 40l-60 12l-56 -105l124 -36q124 -48 129 -92l4 -1538q-12 -58 -32 -88q-62 -92 -193 -92z" />
    <glyph glyph-name="Rcedilla" horiz-adv-x="867" 
d="M-64 -1001q72 24 76 52q-28 24 -52 32l-24 8v-92zM462 -1354l-149 -4l-269 -4q-99 0 -188 104l-64 104l4 290l8 20q31 52 132 52q65 -8 84 -20q84 -36 84 -109q0 -36 -32 -90t-116 -134q0 -32 32 -49q70 -32 221 -32q84 0 120 6q18 3 39 9.5t46 16.5l96 73l8 2089
q0 10 -14.5 23.5t-41.5 28.5t-66.5 29.5t-90.5 26.5l68 173q81 173 149 173l64 -21l197 -80l72 8q-24 -104 -60 -145q-36 -40 -80 -48q-25 0 -68 25l-29 24q-31 28 -72 40l-60 12l-56 -105l124 -36q124 -48 129 -92l4 -2178q-12 -58 -32 -88q-62 -92 -193 -92z" />
    <glyph glyph-name="rcedilla" horiz-adv-x="2610" 
d="M2599 0h-167v959q-78 141 -150 201q-101 89 -184 76q-28 -4 -53 -9.5t-48 -13.5q-18 -7 -47.5 -20.5t-71.5 -35.5q-8 -7 -17 -11t-17 -7l-8 -4l1 2q-2 -1 -9 -1h-8q-30 0 -64 25l-32 28q-20 20 -68 32l-81 8l-56 -117q110 -12 145 -28q140 -36 148 -84v-64l7 2v-818
q-36 -56 -96 -80q-104 -40 -241 -40l-93 4q-112 0 -166 28t-58 80q-77 -65 -205 -96l-233 -20l-89 -4q-216 0 -313 96q-23 31 -48 97v903l-4 85q0 90 26 174q25 79 111 79l64 -12l112 -73q117 -96 117 -193q0 -68 -60.5 -140t-196.5 -153v-658l56 -44q79 -49 161 -49l96 12
q94 0 136 13q84 24 125 92v723q0 24 -40 52q-60 44 -193 72q12 37 28 85t40 88q89 173 153 173q22 -5 36.5 -8t21.5 -5t17.5 -7t24.5 -13l157 -68l72 8q-24 -96 -60 -136.5t-80 -40.5q-28 0 -65 25l-28 28l-76 36l-56 16l-60 -125l132 -60q129 -70 137 -120v-735l56 -44
q70 -49 156 -49q109 0 181 36q72 37 72 85v665l6 1v61q0 23 -69 52q-10 4 -23 9t-29 11q-32 12 -120 36q12 37 28 85t40 88q89 173 198 173l36 -16q32 -28 63 -48.5t60 -34.5q60 -27 79 -9l18 6q20 12 55.5 33.5t89.5 52.5l59 15q89 -15 190 -97q57 -45 98 -85t69 -76
l105 -107v-1052zM530 1124l8 33q0 40 -60 72l-32 12v-253z" />
    <glyph glyph-name="Scircumflex" horiz-adv-x="1473" 
d="M1467 0h-167v1059q-38 32 -84.5 68.5t-101.5 76.5q-60 46 -148 32q-28 -4 -53 -9.5t-48 -13.5q-18 -7 -47.5 -20.5t-71.5 -35.5q-8 -7 -17 -11t-17 -7l-8 -4l1 2q-2 -1 -9 -1h-8q-30 0 -64 25l-32 28q-20 20 -68 32l-81 8l-56 -117q110 -12 145 -28q140 -36 148 -84v-56
h1l2 -1478q-8 -62 -28 -88q-62 -92 -193 -92l-149 -4l-269 -4q-99 0 -188 104l-64 104l4 290l8 20q31 52 132 52q65 -8 84 -20q84 -36 84 -109q0 -36 -32 -90t-116 -134q0 -32 32 -49q70 -32 221 -32q84 0 120 6q18 3 39 9.5t46 16.5l101 73l3 1389h2v56q0 23 -69 52
q-10 4 -23 9t-29 11q-32 12 -120 36q12 37 28 85t40 88q89 173 198 173l36 -16q32 -28 63 -48.5t60 -34.5q60 -27 79 -9l18 6q20 12 55.5 33.5t89.5 52.5l59 15q83 -15 200 -90q31 -22 70.5 -49t88.5 -61l103 -65v-1152zM-64 -361q72 24 76 52q-28 24 -52 32l-24 8v-92z" />
    <glyph glyph-name="scircumflex" horiz-adv-x="1473" 
d="M1467 0h-167v1059q-38 32 -84.5 68.5t-101.5 76.5q-60 46 -148 32q-28 -4 -53 -9.5t-48 -13.5q-18 -7 -47.5 -20.5t-71.5 -35.5q-8 -7 -17 -11t-17 -7l-8 -4l1 2q-2 -1 -9 -1h-8q-30 0 -64 25l-32 28q-20 20 -68 32l-81 8l-56 -117q110 -12 145 -28q140 -36 148 -84v-56
h1l2 -2128q-8 -62 -28 -88q-62 -92 -193 -92l-149 -4l-269 -4q-99 0 -188 104l-64 104l4 290l8 20q31 52 132 52q65 -8 84 -20q84 -36 84 -109q0 -36 -32 -90t-116 -134q0 -32 32 -49q70 -32 221 -32q84 0 120 6q18 3 39 9.5t46 16.5l101 73l3 2039h2v56q0 23 -69 52
q-10 4 -23 9t-29 11q-32 12 -120 36q12 37 28 85t40 88q89 173 198 173l36 -16q32 -28 63 -48.5t60 -34.5q60 -27 79 -9l18 6q20 12 55.5 33.5t89.5 52.5l59 15q83 -15 200 -90q31 -22 70.5 -49t88.5 -61l103 -65v-1152zM-64 -1011q72 24 76 52q-28 24 -52 32l-24 8v-92z
" />
    <glyph glyph-name="Tbar" horiz-adv-x="2610" 
d="M2599 0h-168v960q-78 140 -149 200q-101 89 -184 76q-28 -4 -53 -9.5t-48 -13.5q-18 -7 -47.5 -20.5t-71.5 -35.5q-8 -7 -17 -11t-17 -7l-8 -4l1 2q-2 -1 -9 -1h-8q-30 0 -64 25l-32 28q-20 20 -68 32l-81 8l-56 -117q110 -12 145 -28q140 -36 148 -84v-64l7 2v-818
q-36 -56 -96 -80q-104 -40 -241 -40l-93 4q-112 0 -166 28t-58 80q-77 -65 -205 -96l-233 -20l-89 -4q-216 0 -313 96q-23 31 -48 97v903l-4 85q0 90 26 174q25 79 111 79l64 -12l112 -73q117 -96 117 -193q0 -68 -60.5 -140t-196.5 -153v-658l56 -44q79 -49 161 -49l96 12
q94 0 136 13q84 24 125 92v723q0 24 -40 52q-60 44 -193 72q12 37 28 85t40 88q89 173 153 173q22 -5 36.5 -8t21.5 -5t17.5 -7t24.5 -13l157 -68l72 8q-24 -96 -60 -136.5t-80 -40.5q-28 0 -65 25l-28 28l-76 36l-56 16l-60 -125l132 -60q129 -70 137 -120v-735l56 -44
q70 -49 156 -49q109 0 181 36q72 37 72 85v665l6 1v61q0 23 -69 52q-10 4 -23 9t-29 11q-32 12 -120 36q12 37 28 85t40 88q89 173 198 173l36 -16q32 -28 63 -48.5t60 -34.5q60 -27 79 -9l18 6q20 12 55.5 33.5t89.5 52.5l59 15q89 -15 190 -97q51 -38 88 -74t65 -70
q6 7 13 3l8 210q0 98 -32 185q-24 67 -80 105l-24 12q-52 31 -57 80q-5 39 25 70l31 20q42 15 80 15h13q41 -5 86 -34q55 -37 55 -200v-589l1 -1v-1052zM530 1124l8 33q0 40 -60 72l-32 12v-253z" />
    <glyph glyph-name="tbar" horiz-adv-x="1473" 
d="M1467 0h-168v1059q-38 32 -84.5 68.5t-100.5 76.5q-60 46 -148 32q-28 -4 -53 -9.5t-48 -13.5q-18 -7 -47.5 -20.5t-71.5 -35.5q-8 -7 -17 -11t-17 -7l-8 -4l1 2q-2 -1 -9 -1h-8q-30 0 -64 25l-32 28q-20 20 -68 32l-81 8l-56 -117q110 -12 145 -28q140 -36 148 -84v-56
h1l2 -1478q-8 -62 -28 -88q-62 -92 -193 -92l-149 -4l-269 -4q-99 0 -188 104l-64 104l4 290l8 20q31 52 132 52q65 -8 84 -20q84 -36 84 -109q0 -36 -32 -90t-116 -134q0 -32 32 -49q70 -32 221 -32q84 0 120 6q18 3 39 9.5t46 16.5l101 73l3 1389h2v56q0 23 -69 52
q-10 4 -23 9t-29 11q-32 12 -120 36q12 37 28 85t40 88q89 173 198 173l36 -16q32 -28 63 -48.5t60 -34.5q60 -27 79 -9l18 6q20 12 55.5 33.5t89.5 52.5l59 15q83 -15 200 -90q30 -22 68.5 -48.5t86.5 -58.5l9 169q0 98 -32 185q-24 67 -80 105l-24 12q-52 31 -57 80
q-5 39 25 70l31 20q42 15 80 15h13q41 -5 86 -34q55 -37 55 -200v-490h1v-1152zM-64 -361q72 24 76 52q-28 24 -52 32l-24 8v-92z" />
    <glyph glyph-name="Utilde" horiz-adv-x="1473" 
d="M1467 0h-168v1059q-38 32 -84.5 68.5t-100.5 76.5q-60 46 -148 32q-28 -4 -53 -9.5t-48 -13.5q-18 -7 -47.5 -20.5t-71.5 -35.5q-8 -7 -17 -11t-17 -7l-8 -4l1 2q-2 -1 -9 -1h-8q-30 0 -64 25l-32 28q-20 20 -68 32l-81 8l-56 -117q110 -12 145 -28q140 -36 148 -84v-56
h1l2 -2128q-8 -62 -28 -88q-62 -92 -193 -92l-149 -4l-269 -4q-99 0 -188 104l-64 104l4 290l8 20q31 52 132 52q65 -8 84 -20q84 -36 84 -109q0 -36 -32 -90t-116 -134q0 -32 32 -49q70 -32 221 -32q84 0 120 6q18 3 39 9.5t46 16.5l101 73l3 2039h2v56q0 23 -69 52
q-10 4 -23 9t-29 11q-32 12 -120 36q12 37 28 85t40 88q89 173 198 173l36 -16q32 -28 63 -48.5t60 -34.5q60 -27 79 -9l18 6q20 12 55.5 33.5t89.5 52.5l59 15q83 -15 200 -90q30 -22 68.5 -48.5t86.5 -58.5l9 169q0 98 -32 185q-24 67 -80 105l-24 12q-52 31 -57 80
q-5 39 25 70l31 20q42 15 80 15h13q41 -5 86 -34q55 -37 55 -200v-490h1v-1152zM-64 -1011q72 24 76 52q-28 24 -52 32l-24 8v-92z" />
    <glyph glyph-name="utilde" unicode="&#x179a;" horiz-adv-x="775" 
d="M402 325q0 -64 30 -137q30 -72 62 -72v225l-60 8zM659 100q0 -35 -29 -64q-28 -28 -108 -28l-72 4q-73 0 -121 108q-48 109 -48 213q12 85 56 111t109 26h16l20 8l12 16v482q-4 5 -7 9.5t-5 6.5q-19 22 -40 32q-53 28 -189 60q12 37 28 85t40 88q89 173 153 173l76 -20
q20 -7 35.5 -12t28.5 -9q62 -22 145 -60l72 8q-24 -104 -60 -144q-34 -40 -80 -49q-26 0 -69 25l-36 28l-72 36q-15 7 -37 11.5t-51 8.5l-57 -125l145 -36q145 -48 145 -92v-900z" />
    <glyph glyph-name="Umacron" horiz-adv-x="758" 
d="M1173 -441v225h144v-269l4 -37q0 -80 -96 -116q-111 -32 -213 -32l-92 4l-97 -4q-213 0 -293 80q-36 36 -44 105v1441q0 28 -48 54t-169 54l96 173q113 173 181 173l64 -21q20 -8 38.5 -14.5t34.5 -11.5q31 -11 120 -54l72 8q-24 -100 -59.5 -146.5t-80.5 -46.5
q-21 0 -64 24l-28 25q-63 37 -101 48l-72 16l-44 -64l-28 -53l124 -36q124 -48 129 -92v-1441q0 -36 76 -64q82 -29 177 -29l48 -4q82 0 148 25q73 24 73 80z" />
    <glyph glyph-name="umacron" horiz-adv-x="758" 
d="M1173 -1081v225h144v-269l4 -37q0 -80 -96 -116q-111 -32 -213 -32l-92 4l-97 -4q-213 0 -293 80q-36 36 -44 105v2081q0 28 -48 54t-169 54l96 173q113 173 181 173l64 -21q20 -8 38.5 -14.5t34.5 -11.5q31 -11 120 -54l72 8q-24 -100 -59.5 -146.5t-80.5 -46.5
q-21 0 -64 24l-28 25q-63 37 -101 48l-72 16l-44 -64l-28 -53l124 -36q124 -48 129 -92v-2081q0 -36 76 -64q82 -29 177 -29l48 -4q82 0 148 25q73 24 73 80z" />
    <glyph glyph-name="Ubreve" horiz-adv-x="1449" 
d="M1441 0h-167v1059q-38 32 -84.5 68.5t-101.5 76.5q-60 46 -148 32q-28 -4 -53 -9.5t-48 -13.5q-18 -7 -47.5 -20.5t-71.5 -35.5q-8 -7 -17 -11t-17 -7l-8 -4l1 2q-2 -1 -9 -1h-8q-30 0 -64 25l-32 28q-20 20 -68 32l-81 8l-56 -117q110 -12 145 -28q140 -36 148 -84v-81
l3 1v-820q0 -35 -29 -64q-28 -28 -108 -28l-72 4q-73 0 -121 108q-48 109 -48 213q12 85 56 111t109 26h16l20 8l12 16v402h2v68q0 23 -69 52q-10 4 -23 9t-29 11q-32 12 -120 36q12 37 28 85t40 88q89 173 198 173l36 -16q32 -28 63 -48.5t60 -34.5q60 -27 79 -9l18 6
q20 12 55.5 33.5t89.5 52.5l59 15q83 -15 200 -90q31 -22 70.5 -49t88.5 -61l103 -65v-1152zM400 325q0 -64 30 -137q30 -72 62 -72v225l-60 8z" />
    <glyph glyph-name="ubreve" horiz-adv-x="1449" 
d="M1441 0h-168v1059q-38 32 -84.5 68.5t-100.5 76.5q-60 46 -148 32q-28 -4 -53 -9.5t-48 -13.5q-18 -7 -47.5 -20.5t-71.5 -35.5q-8 -7 -17 -11t-17 -7l-8 -4l1 2q-2 -1 -9 -1h-8q-30 0 -64 25l-32 28q-20 20 -68 32l-81 8l-56 -117q110 -12 145 -28q140 -36 148 -84v-81
l3 1v-820q0 -35 -29 -64q-28 -28 -108 -28l-72 4q-73 0 -121 108q-48 109 -48 213q12 85 56 111t109 26h16l20 8l12 16v402h2v68q0 23 -69 52q-10 4 -23 9t-29 11q-32 12 -120 36q12 37 28 85t40 88q89 173 198 173l36 -16q32 -28 63 -48.5t60 -34.5q60 -27 79 -9l18 6
q20 12 55.5 33.5t89.5 52.5l59 15q83 -15 200 -90q30 -22 68.5 -48.5t86.5 -58.5l9 169q0 98 -32 185q-24 67 -80 105l-24 12q-52 31 -57 80q-5 39 25 70l31 20q42 15 80 15h13q41 -5 86 -34q55 -37 55 -200v-490h1v-1152zM400 325q0 -64 30 -137q30 -72 62 -72v225l-60 8z
" />
    <glyph glyph-name="Uogonek" unicode="&#x179b;" horiz-adv-x="1778" 
d="M574 357v16q0 33 -36 53l-92 16l4 -233q48 0 86 38t38 110zM446 610l48 -4q100 0 169 -36q100 -55 100 -197l-4 -56q-28 -88 -161 -209l-124 -100l-56 4q-58 10 -83 26q-11 7 -24.5 19t-29.5 31v1129q0 40 24 76q85 117 418 117q45 -5 96 -11t105 -22q204 -48 204 -140
v-1040l33 -36q53 -41 116 -41l88 -4q40 0 93 33l92 80v723q-4 5 -7 9.5t-5 6.5q-17 24 -36 36q-68 43 -201 72q12 37 28 85t40 88q89 173 153 173l64 -21q20 -8 38 -14.5t34 -11.5q28 -10 121 -54l72 8q-24 -100 -58 -128t-82 -28q-28 0 -65 24l-28 24l-80 64l-28 -32
l-72 -117l132 -48q137 -68 137 -156v-779q-54 -85 -138.5 -123t-187.5 -38q-138 0 -285 52q-26 6 -58 20t-70 36v1081q0 48 -91 78q-90 30 -162 30q-85 0 -121 -6q-18 -3 -40 -9.5t-48 -16.5l-60 -36v-611z" />
    <glyph glyph-name="uogonek" 
d="M-124 -598q0 -83 -44 -112q-55 -28 -117 -28l-96 8h-44q-69 0 -103 28t-42 88v253l-52 32l-52 12q-45 0 -66.5 -8t-34.5 -20v-96l69 -36q60 -45 68 -101q0 -68 -141 -144q-80 0 -120 52q-12 12 -24 56v253l12 52q53 89 221 89h78q40 0 82 -16q109 -33 109 -117v-249
l32 -20q12 -12 48 -12q32 0 68 24v374h149v-362zM-787 -522v-80q33 0 45 20l12 40q-17 20 -28 20h-29z" />
    <glyph glyph-name="Wcircumflex" 
d="M-124 -1198q0 -83 -44 -112q-55 -28 -117 -28l-96 8h-44q-69 0 -103 28t-42 88v253l-52 32l-52 12q-45 0 -66.5 -8t-34.5 -20v-96l69 -36q60 -45 68 -101q0 -68 -141 -144q-80 0 -120 52q-12 12 -24 56v253l12 52q53 89 221 89h78q40 0 82 -16q109 -33 109 -117v-249
l32 -20q12 -12 48 -12q32 0 68 24v374h149v-362zM-787 -1122v-80q33 0 45 20l12 40q-17 20 -28 20h-29z" />
    <glyph glyph-name="wcircumflex" horiz-adv-x="2501" 
d="M1548 558l1 406q0 23 -69 52q-10 4 -23 9t-29 11q-32 12 -120 36q12 37 28 85t40 88q89 173 198 173l36 -16q32 -28 63 -48.5t60 -34.5q60 -27 79 -9l18 6q20 12 55.5 33.5t89.5 52.5l59 15q83 -15 200 -90q31 -22 70.5 -49t88.5 -61l103 -65v-1152h-167v1059
q-38 32 -84.5 68.5t-101.5 76.5q-60 46 -148 32q-28 -4 -53 -9.5t-48 -13.5q-18 -7 -47.5 -20.5t-71.5 -35.5q-8 -7 -17 -11t-17 -7l-8 -4l1 2q-2 -1 -9 -1h-8q-30 0 -64 25l-32 28q-20 20 -68 32l-81 8l-56 -117q110 -12 145 -28q140 -36 148 -84v-441h-2v-406
q-54 -85 -138.5 -123t-187.5 -38q-138 0 -285 52q-26 6 -58 20t-70 36v1081q0 48 -91 78q-90 30 -162 30q-85 0 -121 -6q-18 -3 -40 -9.5t-48 -16.5l-60 -36v-611l48 -4q100 0 169 -36q100 -55 100 -197l-4 -56q-28 -88 -161 -209l-124 -100l-56 4q-58 10 -83 26
q-11 7 -24.5 19t-29.5 31v1129q0 40 24 76q85 117 418 117q45 -5 96 -11t105 -22q204 -48 204 -140v-1040l33 -36q53 -41 116 -41l88 -4q40 0 93 33l92 80v329h-2zM574 357v16q0 33 -36 53l-92 16l4 -233q48 0 86 38t38 110z" />
    <glyph glyph-name="Ycircumflex" horiz-adv-x="2501" 
d="M1548 558l1 406q0 23 -69 52q-10 4 -23 9t-29 11q-32 12 -120 36q12 37 28 85t40 88q89 173 198 173l36 -16q32 -28 63 -48.5t60 -34.5q60 -27 79 -9l18 6q20 12 55.5 33.5t89.5 52.5l59 15q83 -15 200 -90q30 -22 68.5 -48.5t86.5 -58.5l9 169q0 98 -32 185
q-24 67 -80 105l-24 12q-52 31 -57 80q-5 39 25 70l31 20q42 15 80 15h13q41 -5 86 -34q55 -37 55 -200v-490h1v-1152h-168v1059q-38 32 -84.5 68.5t-100.5 76.5q-60 46 -148 32q-28 -4 -53 -9.5t-48 -13.5q-18 -7 -47.5 -20.5t-71.5 -35.5q-8 -7 -17 -11t-17 -7l-8 -4l1 2
q-2 -1 -9 -1h-8q-30 0 -64 25l-32 28q-20 20 -68 32l-81 8l-56 -117q110 -12 145 -28q140 -36 148 -84v-441h-2v-406q-54 -85 -138.5 -123t-187.5 -38q-138 0 -285 52q-26 6 -58 20t-70 36v1081q0 48 -91 78q-90 30 -162 30q-85 0 -121 -6q-18 -3 -40 -9.5t-48 -16.5
l-60 -36v-611l48 -4q100 0 169 -36q100 -55 100 -197l-4 -56q-28 -88 -161 -209l-124 -100l-56 4q-58 10 -83 26q-11 7 -24.5 19t-29.5 31v1129q0 40 24 76q85 117 418 117q45 -5 96 -11t105 -22q204 -48 204 -140v-1040l33 -36q53 -41 116 -41l88 -4q40 0 93 33l92 80v329
h-2zM574 357v16q0 33 -36 53l-92 16l4 -233q48 0 86 38t38 110z" />
    <glyph glyph-name="ycircumflex" unicode="&#x179c;" horiz-adv-x="859" 
d="M422 313q0 -81 60 -172l28 -33v221l-56 8q-20 0 -32 -24zM691 1333q40 0 64 52l8 57q0 19 -4.5 37t-15.5 32.5t-30.5 24.5t-49.5 14l-117 -12l-44 12q-36 36 -36 88q0 42 16 73q31 60 128 60l77 -4q80 -24 124 -95t44 -162l4 -48l-12 -89q-8 -36 -32 -76
q-24 -94 -76 -140q-31 -25 -84 -25q-26 0 -69 25l-28 24q-31 28 -72 40l-60 12l-57 -105l153 -56q157 -67 157 -108v-880q0 -36 -29 -62t-108 -26l-76 4q-72 0 -121 108q-48 109 -48 213q12 86 58 111q47 26 111 26h16l40 -4l8 510q-4 5 -7 9.5t-5 6.5q-16 16 -52 32
l-205 60l60 173q74 173 141 173l88 -25z" />
    <glyph glyph-name="longs" 
d="M-485 -618l-117 -40l-136 -20q-95 0 -145 44q-64 55 -64 177q12 80 64 114t181 34q30 0 60.5 2t61.5 6t71.5 12t91.5 20q91 19 166.5 41t138.5 48q0 -82 -48 -173q-93 -156 -325 -265zM-281 -333l-144 -40q-85 -20 -148 -30t-105 -10q-48 0 -64 -12q-15 -11 -20 -68
q0 -61 64 -65q100 0 205.5 53.5t211.5 171.5z" />
    <glyph glyph-name="Aringacute" 
d="M-485 -1208l-117 -40l-136 -20q-95 0 -145 44q-64 55 -64 177q12 80 64 114t181 34q30 0 60.5 2t61.5 6t71.5 12t91.5 20q91 19 166.5 41t138.5 48q0 -82 -48 -173q-93 -156 -325 -265zM-281 -923l-144 -40q-85 -20 -148 -30t-105 -10q-48 0 -64 -12q-15 -11 -20 -68
q0 -61 64 -65q100 0 205.5 53.5t211.5 171.5z" />
    <glyph glyph-name="aringacute" horiz-adv-x="1477" 
d="M1472 0h-167v959q-71 98 -170 188q-112 123 -156 100q-32 -10 -60.5 -19t-52.5 -18q-17 -7 -45 -17t-70 -24q-3 -4 -6 -6.5t-6 -5.5q-31 -25 -84 -25q-26 0 -69 25l-28 24q-31 28 -72 40l-60 12l-57 -105l153 -56q157 -67 157 -108v-880q0 -36 -29 -62t-108 -26l-76 4
q-72 0 -121 108q-48 109 -48 213q12 86 58 111q47 26 111 26h16l40 -4l8 510q-4 5 -7 9.5t-5 6.5q-16 16 -52 32l-205 60l60 173q74 173 141 173l88 -25l141 -60q40 0 64 52l8 57q0 19 -4.5 37t-15.5 32.5t-30.5 24.5t-49.5 14l-117 -12l-44 12q-36 36 -36 88q0 42 16 73
q31 60 128 60l77 -4q80 -24 124 -95t44 -162l4 -48l-12 -89q-2 -8 -4.5 -17t-6.5 -17q7 3 13 6l12 6q77 50 148 59l48 -4q66 -22 136 -86q58 -42 100 -86t74 -75l105 -107v-1052zM422 313q0 -81 60 -172l28 -33v221l-56 8q-20 0 -32 -24z" />
    <glyph glyph-name="AEacute" horiz-adv-x="1477" 
d="M1472 0h-168v960q-35 48 -77.5 94.5t-91.5 92.5q-112 123 -156 100q-32 -10 -60.5 -19t-52.5 -18q-17 -7 -45 -17t-70 -24q-3 -4 -6 -6.5t-6 -5.5q-31 -25 -84 -25q-26 0 -69 25l-28 24q-31 28 -72 40l-60 12l-57 -105l153 -56q157 -67 157 -108v-880q0 -36 -29 -62
t-108 -26l-76 4q-72 0 -121 108q-48 109 -48 213q12 86 58 111q47 26 111 26h16l40 -4l8 510q-4 5 -7 9.5t-5 6.5q-16 16 -52 32l-205 60l60 173q74 173 141 173l88 -25l141 -60q40 0 64 52l8 57q0 19 -4.5 37t-15.5 32.5t-30.5 24.5t-49.5 14l-117 -12l-44 12
q-36 36 -36 88q0 42 16 73q31 60 128 60l77 -4q80 -24 124 -95t44 -162l4 -48l-12 -89q-2 -8 -4.5 -17t-6.5 -17q7 2 13 6l12 6q77 50 148 59l48 -4q66 -22 136 -86q51 -37 89.5 -76t68.5 -70q8 9 15 5l8 210q0 98 -32 185q-24 67 -80 105l-24 12q-52 31 -57 80q-5 39 25 70
l31 20q42 15 80 15h13q41 -5 86 -34q55 -37 55 -200v-589l1 -1v-1052zM422 313q0 -81 60 -172l28 -33v221l-56 8q-20 0 -32 -24z" />
    </font>
</defs>
</svg>
