<?xml version="1.0" standalone="no"?>
<!DOCTYPE svg PUBLIC "-//W3C//DTD SVG 1.1//EN" "http://www.w3.org/Graphics/SVG/1.1/DTD/svg11.dtd" >
<svg xmlns="http://www.w3.org/2000/svg" xmlns:xlink="http://www.w3.org/1999/xlink" version="1.1">
<metadata>
Created by FontForge 20150824 at Sun Jul 31 02:43:59 2016
 By Everything Fonts
Copyright (c) TOP RITHY, 2003. All rights reserved.
</metadata>
<defs>
<font id="KhmerKep" horiz-adv-x="0" >
  <font-face 
    font-family="Khmer Kep"
    font-weight="400"
    font-stretch="normal"
    units-per-em="2048"
    panose-1="2 0 5 6 0 0 0 2 0 4"
    ascent="1638"
    descent="-410"
    x-height="1117"
    cap-height="1489"
    bbox="-1772 -1429 3895 2717"
    underline-thickness="130"
    underline-position="-235"
    unicode-range="U+0020-25CC"
  />
<missing-glyph horiz-adv-x="2048" 
d="M256 0v1536h1536v-1536h-1536zM384 128h1280v1280h-1280v-1280z" />
    <glyph glyph-name=".notdef" horiz-adv-x="2048" 
d="M256 0v1536h1536v-1536h-1536zM384 128h1280v1280h-1280v-1280z" />
    <glyph glyph-name=".null" 
 />
    <glyph glyph-name="nonmarkingreturn" horiz-adv-x="640" 
 />
    <glyph glyph-name="space" unicode=" " horiz-adv-x="640" 
 />
    <glyph glyph-name="exclam" unicode="!" horiz-adv-x="680" 
d="M452 1489l-28 -1079h-166l-30 1079h224zM442 0h-204v211h204v-211z" />
    <glyph glyph-name="quotedbl" unicode="&#x22;" horiz-adv-x="822" 
d="M708 1556l-43 -579h-132l-43 579h218zM332 1556l-43 -579h-132l-43 579h218z" />
    <glyph glyph-name="numbersign" unicode="#" horiz-adv-x="1490" 
d="M1348 932h-293l-92 -376h268v-135h-303l-105 -421h-129l105 421h-270l-105 -421h-129l105 421h-258v135h293l92 376h-268v135h303l105 422h129l-105 -422h270l105 422h129l-105 -422h258v-135zM929 934h-274l-94 -380h274z" />
    <glyph glyph-name="dollar" unicode="$" horiz-adv-x="1118" 
d="M1024 380q0 -147 -112.5 -252.5t-283.5 -126.5v-362h-114v357q-108 1 -217.5 25t-190.5 64v202h15q79 -59 178 -96t215 -47v432q-25 6 -61 14.5t-61 16.5q-150 41 -214.5 124t-64.5 204q0 142 111 247t290 122v272h114v-270q91 -3 188.5 -25.5t159.5 -49.5v-198h-15
q-70 48 -153.5 84t-179.5 44v-430q33 -7 61.5 -14.5t49.5 -12.5q136 -32 210.5 -111t74.5 -213zM514 746v414q-90 -8 -151 -58.5t-61 -140.5q0 -89 44.5 -137.5t167.5 -77.5zM835 354q0 94 -48 139t-159 68v-415q102 12 154.5 61.5t52.5 146.5z" />
    <glyph glyph-name="percent" unicode="%" horiz-adv-x="2000" 
d="M807 1076q0 -225 -90.5 -333.5t-261.5 -108.5q-174 0 -263.5 110t-89.5 331q0 224 91 333t262 109q174 0 263 -110t89 -331zM1473 1489l-780 -1489h-165l780 1489h165zM1897 413q0 -225 -90.5 -333.5t-261.5 -108.5q-174 0 -263.5 110t-89.5 331q0 224 91 333t262 109
q174 0 263 -110t89 -331zM629 1076q0 152 -35.5 230t-138.5 78t-139 -79t-36 -230q0 -150 34 -229t141 -79q103 0 138.5 79t35.5 230zM1719 413q0 152 -35.5 230t-138.5 78t-139 -79t-36 -230q0 -150 34 -229t141 -79q103 0 138.5 79t35.5 230z" />
    <glyph glyph-name="ampersand" unicode="&#x26;" horiz-adv-x="1380" 
d="M1445 0h-256l-204 213q-102 -130 -209.5 -187t-243.5 -57q-202 0 -333.5 121.5t-131.5 318.5q0 86 24 153t64 121q39 52 90 91.5t98 68.5q-101 68 -151 143t-50 189q0 71 28.5 131.5t74.5 106.5q48 47 124.5 77t167.5 30q166 0 271 -87.5t105 -221.5q0 -49 -12.5 -101.5
t-45.5 -101.5t-86.5 -92t-142.5 -75l352 -362q14 82 17 178.5t3 251.5h195v-96q0 -96 -24.5 -216.5t-80.5 -228.5zM898 301l-460 471q-25 -16 -50 -38t-55 -66q-24 -35 -42.5 -91.5t-18.5 -119.5q0 -142 84.5 -233.5t228.5 -91.5q96 0 173 40.5t140 128.5zM532 912
q56 19 92.5 51t56.5 70q18 35 27 74t9 84q0 97 -56.5 150t-131.5 53q-89 0 -140 -60t-51 -150q0 -40 7.5 -68.5t31.5 -66.5q21 -31 58.5 -66t96.5 -71z" />
    <glyph glyph-name="quotesingle" unicode="'" horiz-adv-x="432" 
d="M327 1556l-43 -579h-136l-43 579h222z" />
    <glyph glyph-name="parenleft" unicode="(" horiz-adv-x="784" 
d="M710 -412h-229q-174 207 -273.5 438t-99.5 546q0 308 98.5 542.5t274.5 441.5h229v-10q-81 -73 -154.5 -168.5t-136.5 -222.5q-60 -123 -97.5 -271t-37.5 -312q0 -171 36.5 -313t98.5 -270q60 -123 137 -222.5t154 -168.5v-10z" />
    <glyph glyph-name="parenright" unicode=")" horiz-adv-x="784" 
d="M676 572q0 -309 -99 -543t-274 -441h-229v10q77 69 155 169.5t136 221.5q62 129 98.5 272.5t36.5 310.5q0 165 -37 312t-98 271t-138 223t-153 168v10h229q174 -207 273.5 -440t99.5 -544z" />
    <glyph glyph-name="asterisk" unicode="*" horiz-adv-x="1118" 
d="M1007 887l-65 -110l-327 217l7 -364h-125l6 364l-325 -218l-66 110l354 207l-354 207l66 110l326 -219l-7 365h125l-8 -365l328 218l65 -110l-354 -205z" />
    <glyph glyph-name="plus" unicode="+" horiz-adv-x="1490" 
d="M1333 572h-505v-505h-166v505h-505v160h505v505h166v-505h505v-160z" />
    <glyph glyph-name="comma" unicode="," horiz-adv-x="620" 
d="M500 285l-280 -655h-146l176 655h250z" />
    <glyph glyph-name="hyphen" unicode="-" horiz-adv-x="744" 
d="M654 561h-564v181h564v-181z" />
    <glyph glyph-name="period" unicode="." horiz-adv-x="620" 
d="M429 0h-239v285h239v-285z" />
    <glyph glyph-name="slash" unicode="/" horiz-adv-x="783" 
d="M728 1556l-583 -1880h-169l580 1880h172z" />
    <glyph glyph-name="zero" unicode="0" horiz-adv-x="1118" 
d="M1035 745q0 -401 -116.5 -588.5t-359.5 -187.5q-246 0 -361 191t-115 583q0 403 116.5 589.5t359.5 186.5q246 0 361 -193t115 -581zM779 291q29 74 41 187t12 267q0 153 -12 266t-42 188q-30 76 -82.5 115.5t-136.5 39.5q-83 0 -136.5 -39.5t-84.5 -117.5
q-30 -76 -41 -192t-11 -262q0 -156 9.5 -261t41.5 -188q29 -77 82.5 -118.5t139.5 -41.5q83 0 136.5 39.5t83.5 117.5z" />
    <glyph glyph-name="one" unicode="1" horiz-adv-x="1118" 
d="M952 0h-726v152h270v998h-270v136q153 0 225.5 43.5t81.5 164.5h155v-1342h264v-152z" />
    <glyph glyph-name="two" unicode="2" horiz-adv-x="1118" 
d="M1028 0h-919v209q99 94 187 180t172 179q170 187 232 299.5t62 232.5q0 62 -19.5 109t-53.5 78q-35 30 -81 45t-101 15q-53 0 -107.5 -13.5t-104.5 -33.5q-42 -17 -81 -41t-63 -41h-11v212q62 31 172.5 60.5t209.5 29.5q208 0 326 -110.5t118 -299.5q0 -87 -20.5 -161
t-56.5 -137q-37 -65 -89 -129t-110 -126q-94 -102 -209.5 -212t-184.5 -174h732v-171z" />
    <glyph glyph-name="three" unicode="3" horiz-adv-x="1118" 
d="M511 1347q-54 0 -108 -13t-106 -34q-48 -20 -83.5 -42t-63.5 -41h-12v211q65 35 176.5 63.5t212.5 28.5t176.5 -20.5t136.5 -63.5q66 -48 99.5 -116t33.5 -159q0 -123 -81 -216t-194 -118v-14q47 -9 100.5 -31t99.5 -65t75 -110.5t29 -164.5q0 -101 -34.5 -185.5
t-97.5 -149.5q-65 -68 -157 -103t-209 -35q-112 0 -222 27t-185 65v211h14q63 -46 169 -88t212 -42q61 0 122.5 19.5t102.5 63.5q40 44 61 97t21 134t-23.5 133t-65.5 82t-99.5 41.5t-124.5 11.5h-85v166h66q135 0 219.5 64t84.5 186q0 56 -22 96.5t-56 64.5q-38 26 -84 36
t-98 10z" />
    <glyph glyph-name="four" unicode="4" horiz-adv-x="1118" 
d="M1067 512h-177v-512h-192v512h-658v210l666 767h184v-817h177v-160zM698 672v582l-502 -582h502z" />
    <glyph glyph-name="five" unicode="5" horiz-adv-x="1118" 
d="M1011 474q0 -108 -34.5 -200t-96.5 -159q-63 -68 -156.5 -107t-209.5 -39q-107 0 -210.5 23.5t-179.5 61.5v211h14q23 -17 66 -38.5t95 -40.5q59 -21 108 -32.5t110 -11.5q60 0 117 21.5t98 69.5q37 44 56.5 103t19.5 139q0 79 -21.5 130t-62.5 84q-43 38 -105.5 53.5
t-139.5 15.5q-81 0 -163 -12.5t-131 -23.5v767h817v-175h-624v-396q36 4 71 6t64 2q114 0 193 -19t152 -74q74 -56 113.5 -140t39.5 -219z" />
    <glyph glyph-name="six" unicode="6" horiz-adv-x="1118" 
d="M1051 483q0 -115 -38 -212t-102 -162q-67 -69 -150 -104.5t-183 -35.5q-101 0 -183.5 34t-145.5 101q-77 81 -120.5 216.5t-43.5 333.5q0 194 40 350.5t123 272.5q81 113 209 176.5t296 63.5q50 0 93 -5t76 -16v-191h-9q-27 15 -78 27.5t-109 12.5q-186 0 -300.5 -125.5
t-135.5 -372.5q71 50 146 77t164 27q87 0 152.5 -17.5t136.5 -70.5q82 -62 122 -157t40 -223zM848 475q0 92 -24 154t-78 106q-39 32 -88.5 42t-101.5 10q-70 0 -136 -21t-130 -61q-2 -22 -3 -42.5t-1 -51.5q0 -155 30.5 -250t75.5 -144q43 -47 88.5 -66t98.5 -19
q120 0 194.5 86t74.5 257z" />
    <glyph glyph-name="seven" unicode="7" horiz-adv-x="1118" 
d="M1044 1266l-644 -1266h-213l682 1314h-770v175h945v-223z" />
    <glyph glyph-name="eight" unicode="8" horiz-adv-x="1118" 
d="M811 1142q0 100 -67 167t-186 67q-109 0 -178.5 -60t-69.5 -162q0 -74 35.5 -125t106.5 -92q31 -17 94.5 -47t115.5 -47q87 67 118 137.5t31 161.5zM839 396q0 92 -36 146t-139 110q-34 19 -90.5 41t-127.5 52q-83 -55 -127 -135.5t-44 -183.5q0 -135 81.5 -223
t204.5 -88q126 0 202 75.5t76 205.5zM559 -34q-111 0 -202 33t-155 95q-63 60 -95.5 142.5t-32.5 174.5q0 121 64.5 222.5t187.5 161.5v6q-110 64 -163 140t-53 190q0 168 127 280t322 112q203 0 325.5 -106.5t122.5 -272.5q0 -100 -58.5 -198t-168.5 -153v-6
q130 -61 197 -148t67 -224q0 -191 -138.5 -320t-346.5 -129z" />
    <glyph glyph-name="nine" unicode="9" horiz-adv-x="1118" 
d="M832 877q0 152 -28 247.5t-77 147.5q-44 48 -89 66t-99 18q-123 0 -196 -88t-73 -255q0 -94 24 -155t78 -105q38 -31 86 -41.5t103 -10.5q64 0 138 22.5t129 59.5q1 15 2.5 39.5t1.5 54.5zM67 1005q0 115 37.5 210t102.5 164q62 66 151.5 103t181.5 37q103 0 186.5 -34.5
t144.5 -99.5q77 -82 119.5 -215t42.5 -336q0 -185 -41.5 -350.5t-122.5 -274.5q-86 -116 -206.5 -177t-297.5 -61q-40 0 -85 4.5t-84 16.5v191h10q25 -14 78 -27t108 -13q196 0 308 129t127 369q-80 -54 -152.5 -79t-157.5 -25q-83 0 -151 18t-137 70q-80 61 -121 154.5
t-41 225.5z" />
    <glyph glyph-name="colon" unicode=":" horiz-adv-x="724" 
d="M482 832h-239v285h239v-285zM482 0h-239v285h239v-285z" />
    <glyph glyph-name="semicolon" unicode=";" horiz-adv-x="724" 
d="M482 832h-239v285h239v-285zM548 285l-280 -655h-146l176 655h250z" />
    <glyph glyph-name="less" unicode="&#x3c;" horiz-adv-x="1490" 
d="M1275 79l-1074 513v120l1074 513v-178l-833 -395l833 -395v-178z" />
    <glyph glyph-name="equal" unicode="=" horiz-adv-x="1490" 
d="M1298 782h-1106v160h1106v-160zM1298 362h-1106v160h1106v-160z" />
    <glyph glyph-name="greater" unicode="&#x3e;" horiz-adv-x="1490" 
d="M1289 592l-1074 -513v178l833 395l-833 395v178l1074 -513v-120z" />
    <glyph glyph-name="question" unicode="?" horiz-adv-x="970" 
d="M912 1139q0 -98 -32.5 -174.5t-86.5 -134.5t-122.5 -107t-144.5 -95v-228h-179v305q56 34 130.5 81.5t116.5 88.5q54 51 84 111.5t30 137.5q0 113 -71 168.5t-185 55.5q-100 0 -188.5 -33.5t-143.5 -69.5h-11v204q67 27 169 48.5t193 21.5q205 0 323 -104.5t118 -275.5z
M542 0h-204v211h204v-211z" />
    <glyph glyph-name="at" unicode="@" horiz-adv-x="1862" 
d="M1739 663q0 -139 -38 -268.5t-109 -237.5h-421l-25 116q-67 -57 -123.5 -90.5t-153.5 -33.5q-154 0 -252 123.5t-98 358.5t120.5 366t275.5 131q72 0 124 -18t105 -48v48h159v-842h227q38 71 54.5 184t16.5 205q0 327 -166.5 526.5t-478.5 199.5q-296 0 -488.5 -215.5
t-192.5 -522.5q0 -330 187 -534.5t489 -204.5q81 0 170.5 11t169.5 35v-142q-84 -20 -170.5 -28t-170.5 -8q-354 0 -586 243t-232 630q0 367 239.5 619t583.5 252q368 0 576 -237.5t208 -617.5zM1142 408v518q-56 29 -103 41.5t-98 12.5q-113 0 -182 -84.5t-69 -261.5
q0 -160 52 -245t166 -85q61 0 120.5 29t113.5 75z" />
    <glyph glyph-name="A" unicode="A" horiz-adv-x="1228" 
d="M-10 0l502 1489h244l502 -1489h-209l-135 416h-569l-135 -416h-200zM839 585l-230 702l-229 -702h459z" />
    <glyph glyph-name="B" unicode="B" horiz-adv-x="1207" 
d="M1161 457q0 -111 -42 -196t-113 -140q-84 -66 -180 -93.5t-248 -27.5h-427v1489h395q159 0 238.5 -10.5t152.5 -49.5q80 -43 117 -112.5t37 -163.5q0 -105 -55.5 -188t-153.5 -130v-8q133 -36 206 -131.5t73 -238.5zM885 1125q0 54 -18 93.5t-58 62.5q-48 27 -107 33
t-163 6h-190v-436h225q93 0 137 9.5t91 39.5q45 29 64 76t19 116zM955 449q0 84 -24 138.5t-97 92.5q-47 25 -102.5 32t-157.5 7h-225v-550h161q130 0 205 12t132 51q56 39 82 88.5t26 128.5z" />
    <glyph glyph-name="C" unicode="C" horiz-adv-x="1230" 
d="M733 -27q-146 0 -268.5 49t-211.5 146t-138 242t-49 333q0 187 47.5 326t138.5 242q89 100 211 152.5t273 52.5q75 0 140.5 -11t121.5 -28q48 -15 98.5 -37.5t99.5 -49.5v-239h-16q-26 24 -67 58t-100 67q-57 31 -124 51t-155 20q-95 0 -180 -39t-149 -115
q-63 -76 -98 -191t-35 -259q0 -153 37 -263.5t101 -186.5q62 -74 146 -111.5t178 -37.5q86 0 159 21t130 53q55 31 95 63.5t63 55.5h15v-236q-49 -23 -92.5 -44t-105.5 -41q-65 -21 -120.5 -32t-144.5 -11z" />
    <glyph glyph-name="D" unicode="D" horiz-adv-x="1389" 
d="M1325 743q0 -204 -82.5 -368t-221.5 -256q-113 -71 -229.5 -95t-297.5 -24h-343v1489h339q210 0 329.5 -31.5t203.5 -86.5q144 -95 223 -252.5t79 -375.5zM1119 746q0 172 -57 293.5t-169 189.5q-79 48 -169 69t-224 21h-151v-1149h151q132 0 231 21t181 78
q103 70 155 186.5t52 290.5z" />
    <glyph glyph-name="E" unicode="E" horiz-adv-x="1149" 
d="M151 0v1489h931v-176h-733v-408h683v-176h-683v-553h733v-176h-931z" />
    <glyph glyph-name="F" unicode="F" horiz-adv-x="1068" 
d="M1042 1313h-693v-420h664v-176h-664v-717h-198v1489h891v-176z" />
    <glyph glyph-name="G" unicode="G" horiz-adv-x="1367" 
d="M774 -29q-158 0 -289 48t-225 146q-94 99 -144 245t-50 336q0 180 50.5 322.5t144.5 243.5q91 98 224 151t291 53q75 0 144 -11t132 -30q50 -15 111.5 -41.5t99.5 -45.5v-239h-17q-37 33 -76.5 62.5t-111.5 63.5q-60 30 -138 50t-168 20q-215 0 -347.5 -162t-132.5 -431
q0 -150 35 -262t101 -190q64 -77 154.5 -117.5t203.5 -40.5q84 0 167 12t140 36v385h-344v174h540v-650q-38 -17 -101.5 -43t-118.5 -41q-73 -22 -132 -33t-143 -11z" />
    <glyph glyph-name="H" unicode="H" horiz-adv-x="1383" 
d="M1232 0h-198v729h-685v-729h-198v1489h198v-584h685v584h198v-1489z" />
    <glyph glyph-name="I" unicode="I" horiz-adv-x="764" 
d="M671 0h-578v152h190v1185h-190v152h578v-152h-190v-1185h190v-152z" />
    <glyph glyph-name="J" unicode="J" horiz-adv-x="853" 
d="M712 387q0 -196 -119.5 -302t-320.5 -106q-48 0 -128.5 8.5t-134.5 20.5v189h11q41 -14 101.5 -31t123.5 -17q92 0 146.5 21t80.5 60q27 40 34.5 98t7.5 134v869h-315v158h513v-1102z" />
    <glyph glyph-name="K" unicode="K" horiz-adv-x="1204" 
d="M1236 0h-257l-543 693l-87 -98v-595h-198v1489h198v-685l610 685h241l-616 -665z" />
    <glyph glyph-name="L" unicode="L" horiz-adv-x="1019" 
d="M1014 0h-863v1489h198v-1313h665v-176z" />
    <glyph glyph-name="M" unicode="M" horiz-adv-x="1578" 
d="M1427 0h-198v1283l-388 -873h-120l-385 873v-1283h-185v1489h270l372 -829l359 829h275v-1489z" />
    <glyph glyph-name="N" unicode="N" horiz-adv-x="1367" 
d="M1216 0h-222l-658 1284v-1284h-185v1489h281l599 -1179v1179h185v-1489z" />
    <glyph glyph-name="O" unicode="O" horiz-adv-x="1449" 
d="M1204 1318q85 -98 132 -243t47 -331q0 -181 -46 -327t-133 -245q-91 -104 -212.5 -153.5t-267.5 -49.5q-151 0 -272 51t-208 152q-86 99 -132 244t-46 328q0 188 46.5 330t132.5 244q86 99 207.5 150.5t271.5 51.5q152 0 274 -53t206 -149zM1177 744q0 148 -32 262
t-90 189q-59 77 -142.5 115.5t-187.5 38.5q-108 0 -188.5 -37.5t-142.5 -116.5q-59 -76 -90.5 -191t-31.5 -260q0 -293 123 -448.5t330 -155.5t329.5 155.5t122.5 448.5z" />
    <glyph glyph-name="P" unicode="P" horiz-adv-x="1129" 
d="M1091 1040q0 -97 -34.5 -183.5t-95.5 -147.5q-77 -76 -181 -115t-263 -39h-168v-555h-198v1489h374q132 0 225 -22t164 -71q83 -57 130 -144.5t47 -211.5zM885 1035q0 77 -26.5 134t-80.5 93q-47 31 -109.5 44t-155.5 13h-164v-595h135q120 0 194 19.5t123 69.5
q44 45 64 98t20 124z" />
    <glyph glyph-name="Q" unicode="Q" horiz-adv-x="1449" 
d="M1388 -364q-54 -14 -113.5 -21t-118.5 -7q-167 0 -271.5 94t-114.5 268h-25h-21q-151 0 -272.5 51.5t-207.5 150.5t-132 244t-46 328q0 188 46.5 330t132.5 244q86 99 207.5 150.5t271.5 51.5q152 0 274 -53t206 -149q85 -98 132 -243t47 -331q0 -289 -113 -477
t-309 -255q5 -56 19.5 -100.5t37.5 -70.5q27 -31 65.5 -45.5t105.5 -14.5q40 0 94 12.5t78 22.5h27v-180zM1177 744q0 148 -32 262t-90 189q-59 77 -142.5 115.5t-187.5 38.5q-108 0 -188.5 -37.5t-142.5 -116.5q-59 -76 -90.5 -191t-31.5 -260q0 -293 123 -449t330 -156
t329.5 156t122.5 449z" />
    <glyph glyph-name="R" unicode="R" horiz-adv-x="1271" 
d="M1304 0h-257l-472 592h-226v-592h-198v1489h384q128 0 214.5 -14t164.5 -65q78 -50 123.5 -129t45.5 -196q0 -164 -83 -274t-226 -163zM876 1070q0 65 -23 115.5t-71 82.5q-42 28 -98 39.5t-139 11.5h-196v-562h174q85 0 153 15t116 62q43 42 63.5 100t20.5 136z" />
    <glyph glyph-name="S" unicode="S" horiz-adv-x="1141" 
d="M566 -27q-162 0 -275.5 33.5t-213.5 82.5v248h14q98 -92 222 -142.5t239 -50.5q164 0 248 68.5t84 180.5q0 89 -44 145t-140 83q-69 20 -126 33t-143 35q-77 20 -138 51t-108 81q-46 49 -71.5 115.5t-25.5 153.5q0 181 141 303.5t360 122.5q125 0 236.5 -25t206.5 -71
v-237h-15q-71 65 -182 113.5t-233 48.5q-138 0 -223 -64.5t-85 -169.5q0 -95 50 -151t145 -82q63 -17 154 -38.5t151 -39.5q154 -47 225 -142t71 -234q0 -87 -35.5 -172t-99.5 -144q-72 -65 -162.5 -100t-226.5 -35z" />
    <glyph glyph-name="T" unicode="T" horiz-adv-x="1196" 
d="M499 0v1313h-500v176h1198v-176h-500v-1313h-198z" />
    <glyph glyph-name="U" unicode="U" horiz-adv-x="1343" 
d="M671 -31q-131 0 -229 34.5t-167 102.5q-78 78 -110 186.5t-32 267.5v929h198v-929q0 -103 13 -173.5t51 -126.5q40 -60 108.5 -91t167.5 -31q93 0 165 31t112 91q37 57 50.5 126t13.5 169v934h198v-929q0 -155 -31.5 -266t-110.5 -188q-71 -69 -165.5 -103t-231.5 -34z
" />
    <glyph glyph-name="V" unicode="V" horiz-adv-x="1222" 
d="M1230 1489l-512 -1489h-214l-512 1489h212l412 -1236l412 1236h202z" />
    <glyph glyph-name="W" unicode="W" horiz-adv-x="1847" 
d="M1821 1489l-374 -1489h-223l-303 1236l-296 -1236h-218l-381 1489h203l300 -1238l298 1238h201l301 -1250l298 1250h194z" />
    <glyph glyph-name="X" unicode="X" horiz-adv-x="1189" 
d="M1181 0h-227l-363 596l-369 -596h-214l473 745l-459 744h226l356 -585l361 585h215l-466 -734z" />
    <glyph glyph-name="Y" unicode="Y" horiz-adv-x="1180" 
d="M1193 1489l-503 -830v-659h-198v638l-503 851h220l384 -657l390 657h210z" />
    <glyph glyph-name="Z" unicode="Z" horiz-adv-x="1145" 
d="M1100 0h-1040v184l797 1129h-761v176h984v-179l-806 -1134h826v-176z" />
    <glyph glyph-name="bracketleft" unicode="[" horiz-adv-x="784" 
d="M686 -392h-520v1948h520v-143h-345v-1662h345v-143z" />
    <glyph glyph-name="backslash" unicode="\" horiz-adv-x="783" 
d="M804 -324h-169l-583 1880h172z" />
    <glyph glyph-name="bracketright" unicode="]" horiz-adv-x="784" 
d="M618 -392h-520v143h345v1662h-345v143h520v-1948z" />
    <glyph glyph-name="asciicircum" unicode="^" horiz-adv-x="1490" 
d="M1357 684h-198l-415 625l-414 -627h-197l549 807h126z" />
    <glyph glyph-name="underscore" unicode="_" horiz-adv-x="1118" 
d="M1134 -300h-1150v130h1150v-130z" />
    <glyph glyph-name="grave" unicode="`" horiz-adv-x="1118" 
d="M670 1302h-149l-273 374h243z" />
    <glyph glyph-name="a" unicode="a" horiz-adv-x="1075" 
d="M760 275v310q-67 -6 -169.5 -16.5t-165.5 -29.5q-75 -23 -124 -70.5t-49 -132.5q0 -96 54 -145t158 -49q89 0 161 38.5t135 94.5zM760 119q-23 -17 -61.5 -47.5t-74.5 -48.5q-50 -26 -96.5 -40t-130.5 -14q-69 0 -131 26t-109 73q-45 46 -72 113.5t-27 142.5
q0 116 49 197.5t155 129.5q94 43 222 59.5t276 24.5v36q0 66 -20 106.5t-56 62.5q-36 23 -88 30.5t-107 7.5q-65 0 -153 -19.5t-176 -56.5h-11v191q52 15 149 33t192 18q115 0 194 -18t142 -65q61 -46 91 -119t30 -178v-764h-187v119z" />
    <glyph glyph-name="b" unicode="b" horiz-adv-x="1132" 
d="M879 562q0 200 -61 303.5t-196 103.5q-77 0 -155.5 -36t-142.5 -91v-640q71 -35 126 -49.5t121 -14.5q144 0 226 102t82 322zM1073 577q0 -274 -133 -441t-333 -167q-91 0 -155.5 22.5t-127.5 60.5l-12 -52h-176v1556h188v-556q71 64 154 106t188 42q189 0 298 -151.5
t109 -419.5z" />
    <glyph glyph-name="c" unicode="c" horiz-adv-x="945" 
d="M580 -25q-115 0 -211 35.5t-165 107.5t-107 181.5t-38 257.5q0 147 39.5 254t105.5 180t164.5 112.5t211.5 39.5q92 0 177.5 -26t152.5 -60v-211h-11q-20 17 -51.5 39t-76.5 45q-39 20 -92 35t-102 15q-146 0 -234.5 -110.5t-88.5 -312.5q0 -198 85.5 -308.5
t237.5 -110.5q92 0 175 38t147 98h11v-211q-28 -13 -70 -31.5t-76 -27.5q-48 -14 -86 -21.5t-98 -7.5z" />
    <glyph glyph-name="d" unicode="d" horiz-adv-x="1132" 
d="M996 0h-188v114q-44 -37 -76 -61t-75 -44q-40 -19 -83 -29.5t-100 -10.5q-91 0 -168.5 38t-131.5 111q-55 74 -85 182.5t-30 249.5q0 147 38 254.5t105 187.5q61 73 147.5 114.5t181.5 41.5q84 0 146 -18.5t131 -57.5v484h188v-1556zM808 272v644q-70 34 -125.5 47
t-120.5 13q-145 0 -227 -108.5t-82 -313.5q0 -197 63 -301.5t202 -104.5q74 0 149 33.5t141 90.5z" />
    <glyph glyph-name="e" unicode="e" horiz-adv-x="1078" 
d="M621 -26q-267 0 -414.5 150.5t-147.5 427.5q0 273 143 434.5t374 161.5q104 0 184 -30t140 -94t92 -156.5t32 -226.5v-102h-774q0 -195 98 -298t271 -103q62 0 121.5 14t107.5 36q51 23 86 44.5t58 40.5h11v-205q-33 -13 -82 -32.5t-88 -30.5q-55 -15 -99.5 -23
t-112.5 -8zM841 683q-2 76 -18 131t-46 93q-33 42 -84.5 64t-127.5 22q-75 0 -127.5 -22.5t-95.5 -65.5q-42 -44 -64 -97.5t-28 -124.5h591z" />
    <glyph glyph-name="f" unicode="f" horiz-adv-x="652" 
d="M724 1376h-10q-25 9 -72 17.5t-84 8.5q-119 0 -169.5 -53.5t-50.5 -193.5v-38h311v-156h-305v-961h-188v961h-127v156h127v37q0 202 97 307t278 105q52 0 102 -5.5t91 -12.5v-172z" />
    <glyph glyph-name="g" unicode="g" horiz-adv-x="1132" 
d="M808 303v613q-70 34 -129.5 48.5t-118.5 14.5q-143 0 -225 -105t-82 -301q0 -186 62.5 -283t202.5 -97q73 0 150.5 29t139.5 81zM176 -179q19 -8 56 -21.5t84 -25.5q52 -13 96 -21t96 -8q87 0 147.5 23t94.5 64q32 41 45 95t13 123v98q-76 -66 -149 -97.5t-183 -31.5
q-191 0 -304 142t-113 408q0 139 39 246.5t105 182.5q63 72 149 111t178 39q87 0 150.5 -20.5t127.5 -58.5l11 48h177v-990q0 -284 -124 -417t-379 -133q-82 0 -167.5 13t-159.5 35v196h10z" />
    <glyph glyph-name="h" unicode="h" horiz-adv-x="1142" 
d="M1014 0h-188v636q0 77 -7.5 143.5t-28.5 106.5q-23 42 -64 62.5t-112 20.5q-70 0 -144.5 -37.5t-145.5 -97.5v-834h-188v1556h188v-563q84 75 166 115t173 40q165 0 258 -108.5t93 -314.5v-725z" />
    <glyph glyph-name="i" unicode="i" horiz-adv-x="468" 
d="M328 0h-188v1117h188v-1117zM341 1304h-214v195h214v-195z" />
    <glyph glyph-name="j" unicode="j" horiz-adv-x="577" 
d="M441 -32q0 -191 -102.5 -291t-282.5 -100q-31 0 -69.5 3t-76.5 9v168h11q22 -5 48.5 -9.5t50.5 -4.5q75 0 123.5 18.5t72.5 58.5q22 36 29.5 91t7.5 134v916h-202v156h390v-1149zM442 1304h-214v195h214v-195z" />
    <glyph glyph-name="k" unicode="k" horiz-adv-x="1020" 
d="M1062 0h-247l-417 539l-74 -72v-467h-188v1556h188v-911l442 472h234l-459 -467z" />
    <glyph glyph-name="l" unicode="l" horiz-adv-x="468" 
d="M328 0h-188v1556h188v-1556z" />
    <glyph glyph-name="m" unicode="m" horiz-adv-x="1720" 
d="M1404 0v646q0 77 -6 142.5t-25 102.5q-20 40 -57 59t-100 19q-58 0 -124.5 -35.5t-137.5 -102.5q1 -17 2.5 -40.5t1.5 -55.5v-735h-188v646q0 77 -6 142.5t-25 102.5q-20 40 -57 59t-100 19q-61 0 -128 -38t-130 -97v-834h-188v1117h188v-124q74 74 146.5 114.5
t159.5 40.5q99 0 175.5 -45t116.5 -148q85 95 166 144t176 49q72 0 131 -22.5t103 -72.5q45 -51 69.5 -127t24.5 -191v-735h-188z" />
    <glyph glyph-name="n" unicode="n" horiz-adv-x="1142" 
d="M1014 0h-188v636q0 77 -7.5 143.5t-28.5 106.5q-23 42 -64 62.5t-112 20.5q-70 0 -144.5 -37.5t-145.5 -97.5v-834h-188v1117h188v-124q84 75 166 115t173 40q165 0 258 -108.5t93 -314.5v-725z" />
    <glyph glyph-name="o" unicode="o" horiz-adv-x="1112" 
d="M1055 558q0 -282 -136 -435.5t-362 -153.5q-233 0 -366.5 158.5t-133.5 430.5q0 280 137.5 435t362.5 155q226 0 362 -154.5t136 -435.5zM861 558q0 217 -79 322.5t-225 105.5q-147 0 -226.5 -105.5t-79.5 -322.5q0 -210 79.5 -318.5t226.5 -108.5q145 0 224.5 106.5
t79.5 320.5z" />
    <glyph glyph-name="p" unicode="p" horiz-adv-x="1132" 
d="M1073 588q0 -279 -133.5 -444.5t-337.5 -165.5q-83 0 -147 19t-131 59v-468h-188v1529h188v-117q70 63 155.5 105.5t186.5 42.5q192 0 299.5 -152t107.5 -408zM879 567q0 191 -61 296.5t-198 105.5q-80 0 -154.5 -35.5t-141.5 -91.5v-633q74 -36 126.5 -49t120.5 -13
q146 0 227 107t81 313z" />
    <glyph glyph-name="q" unicode="q" horiz-adv-x="1132" 
d="M996 -412h-188v534q-82 -75 -160 -109.5t-173 -34.5q-190 0 -303 152.5t-113 424.5q0 144 39.5 254.5t104.5 185.5q62 73 148 113t179 40q86 0 149 -20t129 -59l12 48h176v-1529zM808 280v636q-71 35 -127 49t-120 14q-148 0 -228 -107t-80 -308q0 -196 64 -301.5
t199 -105.5q79 0 154 34t138 89z" />
    <glyph glyph-name="r" unicode="r" horiz-adv-x="738" 
d="M728 915h-10q-21 6 -44.5 7.5t-56.5 1.5q-76 0 -151 -33t-142 -98v-793h-188v1117h188v-166q103 91 179.5 128.5t148.5 37.5q29 0 43.5 -1.5t32.5 -4.5v-196z" />
    <glyph glyph-name="s" unicode="s" horiz-adv-x="914" 
d="M438 -27q-112 0 -209.5 30t-161.5 64v211h10q24 -19 56.5 -42t86.5 -48q48 -22 105.5 -39t119.5 -17q45 0 96 10.5t76 26.5q35 23 50.5 49t15.5 78q0 67 -36.5 101t-129.5 57q-36 9 -94 21t-107 26q-128 37 -186 114.5t-58 187.5q0 151 114 246t303 95q93 0 187 -23
t158 -58v-201h-10q-72 57 -160.5 90t-178.5 33q-93 0 -157 -39t-64 -118q0 -70 38 -104.5t122 -56.5q42 -11 93.5 -21.5t108.5 -24.5q124 -31 186.5 -103t62.5 -196q0 -72 -28.5 -136.5t-83.5 -110.5q-60 -50 -135.5 -76t-189.5 -26z" />
    <glyph glyph-name="t" unicode="t" horiz-adv-x="685" 
d="M474 -22q-154 0 -240 87.5t-86 276.5v619h-127v156h127v321h188v-321h346v-156h-346v-531q0 -85 3 -131t23 -86q17 -35 55 -52.5t103 -17.5q46 0 89 13.5t62 22.5h11v-169q-53 -15 -107.5 -23.5t-100.5 -8.5z" />
    <glyph glyph-name="u" unicode="u" horiz-adv-x="1142" 
d="M1006 0h-188v124q-87 -76 -165 -115.5t-174 -39.5q-73 0 -137.5 24t-112.5 76t-74.5 131t-26.5 192v725h188v-636q0 -89 6.5 -147.5t29.5 -102.5q23 -43 62.5 -63t113.5 -20q69 0 147 39t143 96v834h188v-1117z" />
    <glyph glyph-name="v" unicode="v" horiz-adv-x="1020" 
d="M1014 1117l-421 -1117h-169l-418 1117h203l306 -862l303 862h196z" />
    <glyph glyph-name="w" unicode="w" horiz-adv-x="1520" 
d="M1490 1117l-283 -1117h-174l-273 861l-271 -861h-173l-286 1117h196l197 -865l265 865h155l272 -865l186 865h189z" />
    <glyph glyph-name="x" unicode="x" horiz-adv-x="1014" 
d="M1004 0h-231l-271 422l-279 -422h-213l388 554l-384 563h231l269 -418l276 418h214l-386 -550z" />
    <glyph glyph-name="y" unicode="y" horiz-adv-x="1020" 
d="M1014 1117l-601 -1529h-201l200 466l-406 1063h203l305 -827l304 827h196z" />
    <glyph glyph-name="z" unicode="z" horiz-adv-x="910" 
d="M870 0h-821v139l584 823h-560v155h786v-134l-587 -826h598v-157z" />
    <glyph glyph-name="braceleft" unicode="{" horiz-adv-x="984" 
d="M886 -392h-116q-179 0 -280.5 98.5t-101.5 288.5v149q0 69 -13 139t-50 120t-96.5 75.5t-147.5 25.5h-21v156h21q88 0 147.5 25.5t96.5 75.5t50 120t13 139v149q0 190 101.5 288.5t280.5 98.5h116v-138h-80q-59 0 -102 -12t-74 -41q-32 -30 -47.5 -83t-15.5 -130v-175
q0 -82 -19 -138t-56 -105q-33 -44 -86 -80.5t-110 -59.5v-24q57 -23 109.5 -59.5t86.5 -80.5q37 -49 56 -105t19 -138v-175q0 -77 15.5 -130t47.5 -83q30 -29 73.5 -41t102.5 -12h80v-138z" />
    <glyph glyph-name="bar" unicode="|" horiz-adv-x="783" 
d="M475 -392h-167v1948h167v-1948z" />
    <glyph glyph-name="braceright" unicode="}" horiz-adv-x="984" 
d="M924 504h-21q-88 0 -147.5 -25.5t-96.5 -75.5t-50 -120t-13 -139v-149q0 -190 -101.5 -288.5t-280.5 -98.5h-116v138h80q59 0 102 12t74 41q32 30 47.5 83t15.5 130v175q0 82 19 138t56 105q33 44 86 80.5t110 59.5v24q-57 23 -110 59.5t-86 80.5q-37 49 -56 105t-19 138
v175q0 77 -15.5 130t-47.5 83q-31 29 -74 41t-102 12h-80v138h116q179 0 280.5 -98.5t101.5 -288.5v-149q0 -69 13 -139t50 -120t96.5 -75.5t147.5 -25.5h21v-156z" />
    <glyph glyph-name="asciitilde" unicode="~" horiz-adv-x="1490" 
d="M1356 927q-2 -102 -21 -196.5t-60 -169.5q-41 -73 -102 -119t-159 -46q-57 0 -102.5 15.5t-80.5 40.5t-67 60t-57 65q-27 33 -53 67t-51 60q-27 28 -56 45t-66 17q-50 0 -83 -26.5t-55 -78.5q-21 -50 -29.5 -120t-11.5 -146h-168q2 104 21.5 199t58.5 167
q40 76 106 120.5t156 44.5q60 0 105.5 -16t80.5 -41t64.5 -57t57.5 -67q22 -27 52.5 -66t51.5 -61q29 -30 58.5 -46t62.5 -16q50 0 84.5 28t53.5 76q20 50 29.5 117.5t11.5 149.5h168z" />
    <glyph glyph-name="Adieresis" unicode="&#x201a;" horiz-adv-x="1228" 
d="M-10 0l502 1489h244l502 -1489h-209l-135 416h-569l-135 -416h-200zM839 585l-230 702l-229 -702h459zM913 1657h-201v195h201v-195zM500 1657h-201v195h201v-195z" />
    <glyph glyph-name="Aring" unicode="&#x192;" horiz-adv-x="1228" 
d="M874.5 1532q-45.5 -69 -116.5 -107l480 -1425h-209l-135 416h-569l-135 -416h-200l479 1422q-72 40 -116.5 108.5t-44.5 154.5q0 128 89 214.5t217 86.5q129 0 217.5 -86t88.5 -215q0 -84 -45.5 -153zM839 584l-230 705l-229 -705h459zM773 1683q0 73 -44 121.5
t-115 48.5q-70 0 -114.5 -48.5t-44.5 -121.5q0 -74 45 -122.5t114 -48.5t114 48.5t45 122.5z" />
    <glyph glyph-name="Ccedilla" unicode="&#x201e;" horiz-adv-x="1230" 
d="M733 -27q-146 0 -268.5 49t-211.5 146t-138 242t-49 333q0 187 47.5 326t138.5 242q89 100 211 152.5t273 52.5q75 0 140.5 -11t121.5 -28q48 -15 98.5 -37.5t99.5 -49.5v-239h-16q-26 24 -67 58t-100 67q-57 31 -124 51t-155 20q-95 0 -180 -39t-149 -115
q-63 -76 -98 -191t-35 -259q0 -153 37 -263.5t101 -186.5q62 -74 146 -111.5t178 -37.5q86 0 159 21t130 53q55 31 95 63.5t63 55.5h15v-236q-49 -23 -92.5 -44t-105.5 -41q-8 -3 -23 -7.5t-21 -5.5q1 -15 3 -39t2 -53q0 -149 -82 -241.5t-227 -92.5q-37 0 -87 6t-90 18v160
h9q24 -11 63 -22.5t79 -11.5q94 0 138 39.5t44 126.5q0 18 -0.5 38t-1.5 45q-18 -1 -33.5 -2t-37.5 -1z" />
    <glyph glyph-name="Eacute" unicode="&#x2026;" horiz-adv-x="1149" 
d="M151 0v1489h931v-176h-733v-408h683v-176h-683v-553h733v-176h-931zM920 2049l-273 -374h-149l179 374h243z" />
    <glyph glyph-name="Ntilde" unicode="&#x2020;" horiz-adv-x="1367" 
d="M1216 0h-222l-658 1284v-1284h-185v1489h281l599 -1179v1179h185v-1489zM1110 1985q-10 -156 -74.5 -234t-171.5 -78q-52 0 -96 19t-86 59q-44 41 -76 62.5t-63 21.5q-49 0 -68.5 -45t-23.5 -121h-140q7 154 76 232.5t169 78.5q51 0 94 -19.5t86 -57.5q43 -39 77.5 -59.5
t63.5 -20.5q47 0 68.5 45t24.5 117h140z" />
    <glyph glyph-name="Odieresis" unicode="&#x2021;" horiz-adv-x="1449" 
d="M1204 1318q85 -98 132 -243t47 -331q0 -181 -46 -327t-133 -245q-91 -104 -212.5 -153.5t-267.5 -49.5q-151 0 -272 51t-208 152q-86 99 -132 244t-46 328q0 188 46.5 330t132.5 244q86 99 207.5 150.5t271.5 51.5q152 0 274 -53t206 -149zM1177 744q0 148 -32 262
t-90 189q-59 77 -142.5 115.5t-187.5 38.5q-108 0 -188.5 -37.5t-142.5 -116.5q-59 -76 -90.5 -191t-31.5 -260q0 -293 123 -448.5t330 -155.5t329.5 155.5t122.5 448.5zM1027 1677h-201v195h201v-195zM614 1677h-201v195h201v-195z" />
    <glyph glyph-name="Udieresis" unicode="&#x2030;" horiz-adv-x="1343" 
d="M671 -31q-131 0 -229 34.5t-167 102.5q-78 78 -110 186.5t-32 267.5v929h198v-929q0 -103 13 -173.5t51 -126.5q40 -60 108.5 -91t167.5 -31q93 0 165 31t112 91q37 57 50.5 126t13.5 169v934h198v-929q0 -155 -31.5 -266t-110.5 -188q-71 -69 -165.5 -103t-231.5 -34z
M1004 1677h-201v195h201v-195zM591 1677h-201v195h201v-195z" />
    <glyph glyph-name="aacute" unicode="&#x2039;" horiz-adv-x="1174" 
d="M1043 541l-488 419v85l488 418v-188l-317 -273l317 -273v-188zM613 512l-510 446v89l510 445v-196l-331 -294l331 -294v-196z" />
    <glyph glyph-name="agrave" unicode="&#x152;" horiz-adv-x="1075" 
d="M760 275v310q-67 -6 -169.5 -16.5t-165.5 -29.5q-75 -23 -124 -70.5t-49 -132.5q0 -96 54 -145t158 -49q89 0 161 38.5t135 94.5zM760 119q-23 -17 -61.5 -47.5t-74.5 -48.5q-50 -26 -96.5 -40t-130.5 -14q-69 0 -131 26t-109 73q-45 46 -72 113.5t-27 142.5
q0 116 49 197.5t155 129.5q94 43 222 59.5t276 24.5v36q0 66 -20 106.5t-56 62.5q-36 23 -88 30.5t-107 7.5q-65 0 -153 -19.5t-176 -56.5h-11v191q52 15 149 33t192 18q115 0 194 -18t142 -65q61 -46 91 -119t30 -178v-764h-187v119zM670 1302h-149l-273 374h243z" />
    <glyph glyph-name="acircumflex" unicode="&#x2018;" horiz-adv-x="499" 
d="M385 1444q-35 -12 -64.5 -33.5t-49 -47.5t-31 -53.5t-11.5 -54.5q0 -43 31 -76.5t94 -39.5q17 -9 23 -24t6 -30q0 -38 -29.5 -62t-68.5 -24q-37 0 -69 17.5t-53.5 46.5t-33.5 63.5t-12 69.5q0 53 19.5 100t54 85t79.5 68t95 48z" />
    <glyph glyph-name="adieresis" unicode="&#x2019;" horiz-adv-x="858" 
d="M362 993q-49 19 -94 48.5t-78.5 68.5t-54 85t-20.5 99q0 35 12 71t33.5 63.5t53.5 46t71 18.5q37 0 66.5 -23.5t29.5 -64.5q0 -14 -6 -29.5t-23 -23.5q-63 -6 -88.5 -40t-25.5 -75q0 -53 36.5 -108.5t108.5 -81.5zM725 993q-51 19 -95 48.5t-78 68.5t-54.5 85t-20.5 99
q0 35 11.5 71t34 63.5t53 46t69.5 18.5t68.5 -23.5t29.5 -64.5q0 -14 -7 -29.5t-21 -23.5q-64 -6 -94.5 -40t-30.5 -75q0 -27 11 -54.5t30.5 -53t48.5 -47t65 -35.5z" />
    <glyph glyph-name="atilde" unicode="&#x201c;" horiz-adv-x="858" 
d="M745 1444q-36 -12 -65 -33.5t-48.5 -47.5t-30.5 -53.5t-11 -54.5q0 -43 30.5 -76.5t94.5 -39.5q14 -9 21 -24t7 -30q0 -38 -29.5 -62t-68.5 -24t-69.5 17.5t-53 46.5t-34 63.5t-11.5 69.5q0 53 19.5 100t54.5 85t79 68t95 48zM385 1444q-35 -12 -64.5 -33.5t-49 -47.5
t-31 -53.5t-11.5 -54.5q0 -43 31 -76.5t94 -39.5q17 -9 23 -24t6 -30q0 -38 -29.5 -62t-68.5 -24q-37 0 -69 17.5t-53.5 46.5t-33.5 63.5t-12 69.5q0 53 19.5 100t54 85t79.5 68t95 48z" />
    <glyph glyph-name="aring" unicode="&#x201d;" horiz-adv-x="858" 
d="M477 1047q72 26 109 81.5t37 108.5q0 41 -26 75t-89 40q-16 8 -22.5 23.5t-6.5 29.5q0 41 30 64.5t66 23.5q39 0 71 -18.5t53.5 -46t33.5 -63.5t12 -71q0 -53 -20 -99t-54 -85t-79 -68.5t-94 -48.5zM115 1047q37 14 65.5 35.5t48 47t30.5 53t11 54.5q0 41 -30.5 75
t-94.5 40q-14 8 -21 23.5t-7 29.5q0 41 29.5 64.5t68.5 23.5t69.5 -18.5t53 -46t34 -63.5t11.5 -71q0 -53 -20.5 -99t-54.5 -85t-78 -68.5t-95 -48.5z" />
    <glyph glyph-name="ccedilla" unicode="&#x2022;" horiz-adv-x="945" 
d="M580 -25q-115 0 -211 35.5t-165 107.5t-107 181.5t-38 257.5q0 147 39.5 254t105.5 180t164.5 112.5t211.5 39.5q92 0 177.5 -26t152.5 -60v-211h-11q-20 17 -51.5 39t-76.5 45q-39 20 -92 35t-102 15q-146 0 -234.5 -110.5t-88.5 -312.5q0 -198 85.5 -308.5
t237.5 -110.5q92 0 175 38t147 98h11v-211q-28 -13 -65 -29t-68 -26q1 -16 3 -42t2 -55q0 -149 -82 -241.5t-227 -92.5q-37 0 -87 6t-90 18v160h9q24 -11 63 -22.5t79 -11.5q94 0 138 39.5t44 126.5q0 18 -0.5 38.5t-1.5 45.5q-13 0 -22.5 -1t-24.5 -1z" />
    <glyph glyph-name="eacute" unicode="&#x2013;" horiz-adv-x="1078" 
d="M621 -26q-267 0 -414.5 150.5t-147.5 427.5q0 273 143 434.5t374 161.5q104 0 184 -30t140 -94t92 -156.5t32 -226.5v-102h-774q0 -195 98 -298t271 -103q62 0 121.5 14t107.5 36q51 23 86 44.5t58 40.5h11v-205q-33 -13 -82 -32.5t-88 -30.5q-55 -15 -99.5 -23
t-112.5 -8zM841 683q-2 76 -18 131t-46 93q-33 42 -84.5 64t-127.5 22q-75 0 -127.5 -22.5t-95.5 -65.5q-42 -44 -64 -97.5t-28 -124.5h591zM889 1676l-273 -374h-149l179 374h243z" />
    <glyph glyph-name="egrave" unicode="&#x2014;" horiz-adv-x="1078" 
d="M621 -26q-267 0 -414.5 150.5t-147.5 427.5q0 273 143 434.5t374 161.5q104 0 184 -30t140 -94t92 -156.5t32 -226.5v-102h-774q0 -195 98 -298t271 -103q62 0 121.5 14t107.5 36q51 23 86 44.5t58 40.5h11v-205q-33 -13 -82 -32.5t-88 -30.5q-55 -15 -99.5 -23
t-112.5 -8zM841 683q-2 76 -18 131t-46 93q-33 42 -84.5 64t-127.5 22q-75 0 -127.5 -22.5t-95.5 -65.5q-42 -44 -64 -97.5t-28 -124.5h591zM685 1302h-149l-273 374h243z" />
    <glyph glyph-name="ecircumflex" unicode="&#x2122;" horiz-adv-x="1078" 
d="M621 -26q-267 0 -414.5 150.5t-147.5 427.5q0 273 143 434.5t374 161.5q104 0 184 -30t140 -94t92 -156.5t32 -226.5v-102h-774q0 -195 98 -298t271 -103q62 0 121.5 14t107.5 36q51 23 86 44.5t58 40.5h11v-205q-33 -13 -82 -32.5t-88 -30.5q-55 -15 -99.5 -23
t-112.5 -8zM841 683q-2 76 -18 131t-46 93q-33 42 -84.5 64t-127.5 22q-75 0 -127.5 -22.5t-95.5 -65.5q-42 -44 -64 -97.5t-28 -124.5h591zM915 1297h-159l-185 256l-184 -256h-155l228 379h227z" />
    <glyph glyph-name="edieresis" unicode="&#x203a;" horiz-adv-x="1174" 
d="M1071 958l-510 -446v196l331 294l-331 294v196l510 -445v-89zM619 960l-488 -419v188l317 273l-317 273v188l488 -418v-85z" />
    <glyph glyph-name="iacute" unicode="&#x153;" horiz-adv-x="468" 
d="M328 0h-188v1117h188v-1117zM546 1676l-273 -374h-149l179 374h243z" />
    <glyph glyph-name="igrave" unicode="&#x178;" horiz-adv-x="468" 
d="M328 0h-188v1117h188v-1117zM425 1302h-149l-273 374h243z" />
    <glyph glyph-name="icircumflex" unicode="&#xa0;" horiz-adv-x="468" 
d="M328 0h-188v1117h188v-1117zM521 1297h-151l-139 263l-138 -263h-147l174 379h227z" />
    <glyph glyph-name="idieresis" unicode="&#xa1;" horiz-adv-x="468" 
d="M328 0h-188v1117h188v-1117zM506 1304h-189v195h189v-195zM151 1304h-189v195h189v-195z" />
    <glyph glyph-name="ntilde" unicode="&#xa2;" horiz-adv-x="1142" 
d="M1014 0h-188v636q0 77 -7.5 143.5t-28.5 106.5q-23 42 -64 62.5t-112 20.5q-70 0 -144.5 -37.5t-145.5 -97.5v-834h-188v1117h188v-124q84 75 166 115t173 40q165 0 258 -108.5t93 -314.5v-725zM978 1632q-10 -156 -74.5 -234t-171.5 -78q-52 0 -96 19t-86 59
q-44 41 -76 62.5t-63 21.5q-49 0 -68.5 -45t-23.5 -121h-140q7 154 76 232.5t169 78.5q51 0 94 -19.5t86 -57.5q43 -39 77.5 -59.5t63.5 -20.5q47 0 68.5 45t24.5 117h140z" />
    <glyph glyph-name="oacute" unicode="&#xa3;" horiz-adv-x="1112" 
d="M1055 558q0 -282 -136 -435.5t-362 -153.5q-233 0 -366.5 158.5t-133.5 430.5q0 280 137.5 435t362.5 155q226 0 362 -154.5t136 -435.5zM861 558q0 217 -79 322.5t-225 105.5q-147 0 -226.5 -105.5t-79.5 -322.5q0 -210 79.5 -318.5t226.5 -108.5q145 0 224.5 106.5
t79.5 320.5zM871 1676l-273 -374h-149l179 374h243z" />
    <glyph glyph-name="ograve" unicode="&#xa4;" horiz-adv-x="1112" 
d="M1055 558q0 -282 -136 -435.5t-362 -153.5q-233 0 -366.5 158.5t-133.5 430.5q0 280 137.5 435t362.5 155q226 0 362 -154.5t136 -435.5zM861 558q0 217 -79 322.5t-225 105.5q-147 0 -226.5 -105.5t-79.5 -322.5q0 -210 79.5 -318.5t226.5 -108.5q145 0 224.5 106.5
t79.5 320.5zM670 1302h-149l-273 374h243z" />
    <glyph glyph-name="ocircumflex" unicode="&#xa5;" horiz-adv-x="1112" 
d="M1055 558q0 -282 -136 -435.5t-362 -153.5q-233 0 -366.5 158.5t-133.5 430.5q0 280 137.5 435t362.5 155q226 0 362 -154.5t136 -435.5zM861 558q0 217 -79 322.5t-225 105.5q-147 0 -226.5 -105.5t-79.5 -322.5q0 -210 79.5 -318.5t226.5 -108.5q145 0 224.5 106.5
t79.5 320.5zM901 1297h-159l-185 256l-184 -256h-155l228 379h227z" />
    <glyph glyph-name="odieresis" unicode="&#xa7;" horiz-adv-x="1112" 
d="M1055 558q0 -282 -136 -435.5t-362 -153.5q-233 0 -366.5 158.5t-133.5 430.5q0 280 137.5 435t362.5 155q226 0 362 -154.5t136 -435.5zM861 558q0 217 -79 322.5t-225 105.5q-147 0 -226.5 -105.5t-79.5 -322.5q0 -210 79.5 -318.5t226.5 -108.5q145 0 224.5 106.5
t79.5 320.5zM867 1304h-201v195h201v-195zM454 1304h-201v195h201v-195z" />
    <glyph glyph-name="otilde" unicode="&#xa8;" horiz-adv-x="1112" 
d="M1055 558q0 -282 -136 -435.5t-362 -153.5q-233 0 -366.5 158.5t-133.5 430.5q0 280 137.5 435t362.5 155q226 0 362 -154.5t136 -435.5zM861 558q0 217 -79 322.5t-225 105.5q-147 0 -226.5 -105.5t-79.5 -322.5q0 -210 79.5 -318.5t226.5 -108.5q145 0 224.5 106.5
t79.5 320.5zM960 1632q-10 -156 -74.5 -234t-171.5 -78q-52 0 -96 19t-86 59q-44 41 -76 62.5t-63 21.5q-49 0 -68.5 -45t-23.5 -121h-140q7 154 76 232.5t169 78.5q51 0 94 -19.5t86 -57.5q43 -39 77.5 -59.5t63.5 -20.5q47 0 68.5 45t24.5 117h140z" />
    <glyph glyph-name="uacute" unicode="&#xa9;" horiz-adv-x="1142" 
d="M1006 0h-188v124q-87 -76 -165 -115.5t-174 -39.5q-73 0 -137.5 24t-112.5 76t-74.5 131t-26.5 192v725h188v-636q0 -89 6.5 -147.5t29.5 -102.5q23 -43 62.5 -63t113.5 -20q69 0 147 39t143 96v834h188v-1117zM871 1676l-273 -374h-149l179 374h243z" />
    <glyph glyph-name="ugrave" unicode="&#xaa;" horiz-adv-x="1142" 
d="M1006 0h-188v124q-87 -76 -165 -115.5t-174 -39.5q-73 0 -137.5 24t-112.5 76t-74.5 131t-26.5 192v725h188v-636q0 -89 6.5 -147.5t29.5 -102.5q23 -43 62.5 -63t113.5 -20q69 0 147 39t143 96v834h188v-1117zM687 1302h-149l-273 374h243z" />
    <glyph glyph-name="ucircumflex" unicode="&#xab;" horiz-adv-x="1142" 
d="M1006 0h-188v124q-87 -76 -165 -115.5t-174 -39.5q-73 0 -137.5 24t-112.5 76t-74.5 131t-26.5 192v725h188v-636q0 -89 6.5 -147.5t29.5 -102.5q23 -43 62.5 -63t113.5 -20q69 0 147 39t143 96v834h188v-1117zM908 1297h-159l-185 256l-184 -256h-155l228 379h227z" />
    <glyph glyph-name="udieresis" unicode="&#xac;" horiz-adv-x="1142" 
d="M1006 0h-188v124q-87 -76 -165 -115.5t-174 -39.5q-73 0 -137.5 24t-112.5 76t-74.5 131t-26.5 192v725h188v-636q0 -89 6.5 -147.5t29.5 -102.5q23 -43 62.5 -63t113.5 -20q69 0 147 39t143 96v834h188v-1117zM879 1304h-201v195h201v-195zM466 1304h-201v195h201v-195z
" />
    <glyph glyph-name="dagger" unicode="&#xae;" horiz-adv-x="1118" 
d="M983 1034l-363 5l5 -904h-132l5 904l-363 -5v129l363 -5l-5 398h132l-5 -398l363 5v-129z" />
    <glyph glyph-name="degree" unicode="&#xaf;" horiz-adv-x="964" 
d="M863 1135q0 -160 -110 -270t-271 -110q-159 0 -270 109t-111 271q0 160 110 270t271 110t271 -110t110 -270zM706 1135q0 96 -64 162t-160 66t-160 -66t-64 -162q0 -98 65.5 -163t158.5 -65q96 0 160 66.5t64 161.5z" />
    <glyph glyph-name="cent" unicode="&#xb0;" horiz-adv-x="1118" 
d="M557 2q-215 25 -329 169t-114 386q0 238 118 386t325 172v360h114v-359q87 -3 167.5 -26.5t136.5 -52.5v-200h-10q-62 51 -132 89t-162 51v-836q49 5 98.5 23t83.5 38q36 21 64 41.5t48 37.5h10v-198q-65 -30 -135.5 -53.5t-168.5 -28.5v-362h-114v363zM557 146v825
q-116 -21 -183 -125.5t-67 -288.5q0 -188 68.5 -289.5t181.5 -121.5z" />
    <glyph glyph-name="sterling" unicode="&#xb1;" horiz-adv-x="1118" 
d="M1031 0h-942v207q111 33 156.5 128t45.5 278h-161v138h161v320q0 201 116 324t301 123q97 0 166 -15.5t127 -32.5v-206h-10q-58 41 -129 64t-135 23q-123 0 -183.5 -77t-60.5 -222v-301h364v-138h-364v-61q0 -117 -58.5 -212.5t-163.5 -157.5v-11h770v-171z" />
    <glyph glyph-name="section" unicode="&#xb4;" horiz-adv-x="1118" 
d="M759 401q24 35 37.5 67.5t13.5 86.5q0 49 -14.5 85t-39.5 59q-24 23 -56 38.5t-74 28.5q-33 10 -77 22.5t-99 30.5q-20 -12 -41.5 -30t-47.5 -51q-20 -26 -36.5 -70t-16.5 -89q0 -81 38 -129t146 -81q34 -10 77.5 -23.5t97.5 -30.5q19 12 44 33t48 53zM182 -133
q26 -13 64.5 -29t74.5 -28q47 -15 87 -22.5t101 -7.5q114 0 190.5 46.5t76.5 137.5q0 54 -18.5 87.5t-59.5 59.5q-42 25 -103.5 42.5t-134.5 38.5q-88 25 -146.5 51t-105.5 69q-45 41 -67 95t-22 126q0 94 49 178.5t150 146.5v7q-91 50 -130.5 121t-39.5 161q0 168 128 270
t352 102q85 0 157 -13t161 -44v-194h-10q-90 45 -167.5 66t-161.5 21q-112 0 -189.5 -45.5t-77.5 -133.5q0 -57 20.5 -93t59.5 -59q39 -24 99.5 -43t137.5 -39q184 -50 262.5 -128.5t78.5 -212.5q0 -108 -54.5 -189t-144.5 -135v-7q87 -46 128.5 -116t41.5 -164
q0 -74 -31.5 -145t-89.5 -119q-62 -53 -148.5 -82t-209.5 -29q-79 0 -157 14t-161 44v194h10z" />
    <glyph glyph-name="bullet" unicode="&#xb5;" horiz-adv-x="931" 
d="M817 662q0 -145 -103.5 -248t-248.5 -103t-248 103t-103 248t103 248t248 103t248.5 -103t103.5 -248z" />
    <glyph glyph-name="paragraph" unicode="&#xb6;" horiz-adv-x="1118" 
d="M982 -363h-140v1722h-187v-1722h-140v956q-206 5 -332 129t-126 328q0 207 130 323t373 116h422v-1852z" />
    <glyph glyph-name="germandbls" unicode="&#xb7;" horiz-adv-x="1123" 
d="M1068 481q0 -218 -135 -361.5t-351 -143.5q-25 0 -62.5 3t-59.5 7v166h10q28 -8 59 -12.5t61 -4.5q77 0 131.5 27.5t87.5 74.5q35 51 49.5 111t14.5 141q0 169 -103 248.5t-304 79.5v157q152 0 233.5 57.5t81.5 190.5q0 33 -10 68.5t-34 63.5q-24 29 -62 46.5t-97 17.5
q-53 0 -96 -14.5t-81 -54.5q-36 -37 -56.5 -103t-20.5 -160v-1086h-188v1080q0 130 34 218t95 150q60 60 142.5 89t174.5 29q168 0 279.5 -85t111.5 -240q0 -112 -71 -201t-184 -121v-9q164 -37 257 -147t93 -282z" />
    <glyph glyph-name="registered" unicode="&#xb8;" horiz-adv-x="1902" 
d="M1816 655q0 -358 -253.5 -611.5t-611.5 -253.5t-611.5 253.5t-253.5 611.5t253.5 611t611.5 253t611.5 -253t253.5 -611zM1701 655q0 313 -219.5 533.5t-529.5 220.5t-529.5 -220.5t-219.5 -533.5t219.5 -534t529.5 -221t529.5 221t219.5 534zM1448 215h-227l-283 355
h-123v-355h-165v915h279q94 0 148.5 -7t110.5 -39q60 -34 87 -82t27 -123q0 -100 -55.5 -164t-144.5 -100zM1120 868q0 37 -12 64t-42 46q-25 16 -56 21.5t-80 5.5h-115v-309h98q48 0 90 9.5t68 32.5t37.5 53t11.5 77z" />
    <glyph glyph-name="copyright" unicode="&#xba;" horiz-adv-x="1902" 
d="M1816 655q0 -358 -253.5 -611.5t-611.5 -253.5t-611.5 253.5t-253.5 611.5t253.5 611t611.5 253t611.5 -253t253.5 -611zM1701 655q0 313 -219.5 533.5t-529.5 220.5t-529.5 -220.5t-219.5 -533.5t219.5 -534t529.5 -221t529.5 221t219.5 534zM1274 255
q-67 -30 -134 -52.5t-158 -22.5q-209 0 -330 123.5t-121 356.5q0 230 125 356.5t326 126.5q83 0 159 -22t133 -51v-181h-16q-43 38 -119 72.5t-153 34.5q-123 0 -196.5 -82t-73.5 -254q0 -162 70 -247.5t200 -85.5q84 0 159 36.5t113 70.5h16v-179z" />
    <glyph glyph-name="trademark" unicode="&#xbb;" horiz-adv-x="1794" 
d="M1634 785h-124v616h-20l-204 -453h-85l-206 460h-25v-623h-123v704h238l161 -382l161 382h227v-704zM692 1372h-229v-587h-127v587h-229v117h585v-117z" />
    <glyph glyph-name="acute" unicode="&#xbf;" horiz-adv-x="1118" 
d="M871 1676l-273 -374h-149l179 374h243z" />
    <glyph glyph-name="dieresis" unicode="&#xc0;" horiz-adv-x="1118" 
d="M867 1304h-201v195h201v-195zM454 1304h-201v195h201v-195z" />
    <glyph glyph-name="notequal" unicode="&#xc1;" horiz-adv-x="1490" 
d="M1298 362h-568l-105 -335h-153l105 335h-385v156h434l84 268h-518v156h566l105 335h153l-105 -335h387v-156h-436l-83 -268h519v-156z" />
    <glyph glyph-name="AE" unicode="&#xc2;" horiz-adv-x="1870" 
d="M1802 0h-912v557h-505l-217 -557h-207l603 1489h1238v-176h-716v-408h666v-176h-666v-553h716v-176zM890 723v601h-194l-245 -601h439z" />
    <glyph glyph-name="Oslash" unicode="&#xc3;" horiz-adv-x="1449" 
d="M1383 744q0 -368 -180 -571.5t-479 -203.5q-110 0 -204.5 29t-171.5 82l-132 -196h-148l189 278q-90 99 -140.5 245t-50.5 337q0 368 180.5 572t477.5 204q114 0 203.5 -27.5t169.5 -82.5l115 171h148l-171 -251q91 -100 142.5 -243.5t51.5 -342.5zM995 1260
q-52 44 -120 66.5t-150 22.5q-208 0 -331.5 -154t-123.5 -451q0 -135 26 -239.5t73 -180.5zM1179 744q0 138 -27.5 246t-73.5 179l-628 -937q57 -46 120.5 -69t154.5 -23q206 0 330 155.5t124 448.5z" />
    <glyph glyph-name="infinity" unicode="&#xc4;" horiz-adv-x="1862" 
d="M1752 663q0 -229 -113.5 -367.5t-316.5 -138.5q-127 0 -234 80.5t-168 218.5q-77 -153 -176.5 -226t-236.5 -73q-182 0 -289.5 137t-107.5 348q0 236 117.5 371t312.5 135q127 0 234 -80.5t168 -218.5q75 150 177 224.5t236 74.5q182 0 289.5 -137t107.5 -348zM873 729
q-60 117 -144.5 175.5t-174.5 58.5q-131 0 -202.5 -82t-71.5 -239q0 -142 62.5 -220.5t167.5 -78.5q85 0 143 37.5t124 153.5q25 44 49.5 92t46.5 103zM1582 663q0 144 -63 221.5t-167 77.5q-88 0 -145 -39t-123 -152q-33 -55 -52.5 -97.5t-42.5 -97.5q58 -116 143.5 -175
t175.5 -59q131 0 202.5 81.5t71.5 239.5z" />
    <glyph glyph-name="plusminus" unicode="&#xc5;" horiz-adv-x="1490" 
d="M1328 159h-1166v158h500v422h-500v158h500v505h166v-505h500v-158h-500v-422h500v-158z" />
    <glyph glyph-name="lessequal" unicode="&#xc6;" horiz-adv-x="1490" 
d="M1275 305l-1074 483v120l1074 483v-181l-812 -362l812 -362v-181zM1275 0h-1074v160h1074v-160z" />
    <glyph glyph-name="greaterequal" unicode="&#xc7;" horiz-adv-x="1490" 
d="M1289 788l-1074 -483v181l812 362l-812 362v181l1074 -483v-120zM1289 0h-1074v160h1074v-160z" />
    <glyph glyph-name="yen" unicode="&#xc8;" horiz-adv-x="1118" 
d="M1059 1489l-408 -811v-100h342v-138h-340v-440h-188v440h-340v138h342v79l-411 832h210l294 -639l298 639h201z" />
    <glyph glyph-name="mu1" unicode="&#xc9;" horiz-adv-x="1163" 
d="M1027 0h-172v116h-6q-60 -63 -120.5 -98t-150.5 -35q-92 0 -145 35t-109 97v-527h-188v1529h188v-842q42 -50 105 -80.5t149 -30.5q90 0 151.5 29t109.5 82v842h188v-1117z" />
    <glyph glyph-name="partialdiff" unicode="&#xca;" horiz-adv-x="1118" 
d="M1033 837q0 -68 -7.5 -153.5t-25.5 -170.5t-48 -170t-74 -153q-82 -123 -178.5 -172t-205.5 -49q-190 0 -308.5 123.5t-118.5 331.5q0 228 130.5 372.5t326.5 144.5q87 0 163 -26t151 -91q2 26 2.5 53t0.5 58q0 216 -75 317.5t-221 101.5q-79 0 -165 -31t-162 -87h-13
v194q79 44 179.5 66.5t187.5 22.5q140 0 236.5 -56t155.5 -177q41 -86 55 -191t14 -258zM832 678q-56 46 -129 73.5t-143 27.5q-134 0 -213.5 -89t-79.5 -263q0 -146 63.5 -222t169.5 -76q143 0 230 143t102 406z" />
    <glyph glyph-name="summation" unicode="&#xcb;" horiz-adv-x="1303" 
d="M1228 -189h-1102v191l626 668l-616 631v188h1053v-176h-807l601 -598v-72l-628 -656h873v-176z" />
    <glyph glyph-name="product" unicode="&#xcc;" horiz-adv-x="1393" 
d="M1237 1489v-1678h-198v1502h-685v-1502h-198v1678h1081z" />
    <glyph glyph-name="pi1" unicode="&#xcd;" horiz-adv-x="1154" 
d="M1018 0h-188v955h-506v-955h-188v1117h882v-1117z" />
    <glyph glyph-name="integral" unicode="&#xce;" horiz-adv-x="1118" 
d="M1048 1369h-10q-29 10 -80.5 18.5t-80.5 8.5q-127 0 -175.5 -59.5t-48.5 -211.5v-1123q0 -210 -105.5 -317.5t-283.5 -107.5q-48 0 -94 4.5t-96 14.5v178h10q38 -11 82 -19t75 -8q127 0 175.5 59.5t48.5 211.5v1123q0 210 105 317.5t284 107.5q58 0 105 -5.5t89 -13.5
v-178z" />
    <glyph glyph-name="ordfeminine" unicode="&#xcf;" horiz-adv-x="1010" 
d="M874 566h-166v91q-19 -15 -51 -38.5t-63 -37.5q-41 -19 -80.5 -29.5t-109.5 -10.5q-124 0 -207 83.5t-83 214.5q0 104 43 169.5t123 103.5q75 36 189 51t239 21v19q0 52 -16.5 84t-48.5 50q-29 17 -72 22.5t-89 5.5q-78 0 -158.5 -23.5t-119.5 -37.5h-15v170
q44 13 131.5 29t162.5 16q192 0 291.5 -76.5t99.5 -248.5v-628zM708 802v243q-65 -4 -151 -12t-137 -23q-60 -17 -97 -55.5t-37 -105.5q0 -75 44 -114t131 -39q76 0 136.5 33t110.5 73z" />
    <glyph glyph-name="ordmasculine" unicode="&#xd1;" horiz-adv-x="1010" 
d="M926 1030q0 -234 -117 -362t-303 -128q-193 0 -307 131.5t-114 358.5q0 233 117 361.5t304 128.5t303.5 -127t116.5 -363zM746 1030q0 173 -64.5 256.5t-175.5 83.5t-176 -82.5t-65 -257.5q0 -169 64 -254.5t177 -85.5q111 0 175.5 85.5t64.5 254.5z" />
    <glyph glyph-name="Ohm" unicode="&#xd2;" horiz-adv-x="1438" 
d="M1403 0h-559v387q61 38 120.5 83.5t99.5 101.5q45 62 68.5 133t23.5 188q0 95 -26.5 179t-80.5 145q-53 61 -136 96.5t-190 35.5q-109 0 -191 -35t-140 -98q-53 -58 -81.5 -144.5t-28.5 -178.5q0 -109 26.5 -187.5t70.5 -134.5q45 -57 104 -101.5t119 -82.5v-387h-559
v174h393v124q-73 42 -138 101.5t-115 134.5q-50 76 -78.5 166.5t-28.5 192.5q0 139 43.5 250t128.5 198q81 83 204 131t271 48t268 -46.5t203 -131.5q82 -84 125 -198.5t43 -250.5q0 -103 -27.5 -193.5t-74.5 -164.5t-111 -134t-139 -103v-124h393v-174z" />
    <glyph glyph-name="ae" unicode="&#xd3;" horiz-adv-x="1802" 
d="M817 298q-19 54 -29 119.5t-10 140.5q-95 -3 -189.5 -8.5t-169.5 -26.5q-74 -20 -121 -66t-47 -127q0 -95 56 -141.5t167 -46.5q91 0 184 44t159 112zM1340 138q65 0 125.5 14.5t106.5 35.5q51 23 86 44.5t58 40.5h11v-205l-82.5 -32.5t-88.5 -30.5q-55 -15 -99.5 -23
t-114.5 -8q-161 0 -276 52t-189 155q-21 -19 -64.5 -59.5t-91.5 -68.5q-65 -38 -134.5 -60t-179.5 -22q-146 0 -247.5 97t-101.5 249q0 129 53 204t150 117q92 39 231.5 52t293.5 16v58q0 65 -21.5 108t-60.5 67q-36 22 -87.5 31.5t-116.5 9.5q-81 0 -176.5 -26.5
t-152.5 -51.5h-15v191q49 14 151.5 33.5t193.5 19.5q160 0 260 -48t153 -136q66 81 165 133.5t217 52.5q224 0 338.5 -134.5t114.5 -372.5v-82h-788q0 -114 30 -195.5t83 -132.5q53 -50 120 -71.5t146 -21.5zM1567 703q-5 59 -20.5 112.5t-47.5 92.5q-31 38 -85 61.5
t-127 23.5q-78 0 -129.5 -21.5t-94.5 -62.5q-40 -38 -64.5 -92.5t-34.5 -113.5h603z" />
    <glyph glyph-name="oslash" unicode="&#xd4;" horiz-adv-x="1112" 
d="M1055 558q0 -282 -136 -435t-362 -153q-79 0 -145 20.5t-124 56.5l-123 -194h-124l168 261q-72 76 -112 187t-40 257q0 280 137.5 434.5t362.5 154.5q75 0 142 -20t124 -57l108 170h125l-152 -236q71 -77 111 -186t40 -260zM735 932q-34 26 -78 40t-100 14
q-147 0 -228 -107.5t-81 -320.5q0 -97 14.5 -169.5t43.5 -126.5zM864 558q0 99 -14.5 173t-42.5 125l-429 -669q38 -29 79.5 -42.5t99.5 -13.5q145 0 226 106.5t81 320.5z" />
    <glyph glyph-name="questiondown" unicode="&#xd5;" horiz-adv-x="970" 
d="M632 1278h-204v211h204v-211zM861 40q-79 -30 -167 -50t-195 -20q-205 0 -323 104.5t-118 275.5q0 94 30 168t89 141q53 59 122.5 106.5t144.5 95.5v228h179v-305q-71 -43 -131.5 -81t-115.5 -89q-51 -48 -82.5 -109t-31.5 -140q0 -113 71 -168.5t185 -55.5
q99 0 191 34.5t141 68.5h11v-204z" />
    <glyph glyph-name="exclamdown" unicode="&#xd6;" horiz-adv-x="680" 
d="M442 1278h-204v211h204v-211zM452 0h-224l28 1079h166z" />
    <glyph glyph-name="logicalnot" unicode="&#xd8;" horiz-adv-x="1490" 
d="M1323 57h-171v545h-995v160h1166v-705z" />
    <glyph glyph-name="radical" unicode="&#xd9;" horiz-adv-x="1490" 
d="M1554 1789l-790 -1940h-104l-342 993h-237v139h393l265 -797l653 1605h162z" />
    <glyph glyph-name="florin" unicode="&#xda;" horiz-adv-x="1118" 
d="M1087 1320h-10q-27 10 -78.5 23.5t-89.5 13.5q-112 0 -162 -60.5t-72 -213.5l-29 -199h292v-138h-310l-70 -511q-32 -231 -137 -334t-286 -103q-39 0 -86.5 4.5t-97.5 13.5v181h10q28 -10 77.5 -23.5t90.5 -13.5q112 0 163 61t71 213l72 512h-178v138h196l27 198
q17 123 54 206.5t92 136.5q52 49 125.5 71.5t151.5 22.5q50 0 91 -4.5t93 -13.5v-181z" />
    <glyph glyph-name="approxequal" unicode="&#xdb;" horiz-adv-x="1490" 
d="M1298 1104q-19 -195 -100.5 -293.5t-235.5 -98.5q-69 0 -136.5 37t-120.5 83q-28 24 -90.5 65t-105.5 41q-72 0 -105 -47t-59 -172h-155q21 181 104 279t233 98q66 0 134.5 -36.5t122.5 -82.5q36 -30 94.5 -68.5t101.5 -38.5q69 0 106 53.5t55 180.5h157zM1299 588
q-23 -185 -102.5 -282t-235.5 -97q-66 0 -134.5 37t-122.5 83q-37 31 -95 68.5t-101 37.5q-72 0 -107.5 -55.5t-53.5 -177.5h-157q17 192 102 291.5t234 99.5q71 0 138.5 -37.5t118.5 -81.5q31 -26 90 -66.5t106 -40.5q70 0 104 50t59 171h157z" />
    <glyph glyph-name="Delta" unicode="&#xdc;" horiz-adv-x="1268" 
d="M1278 0h-1288l522 1489h244zM1010 172l-381 1120l-380 -1120h761z" />
    <glyph glyph-name="guillemotleft" unicode="&#xdf;" horiz-adv-x="1174" 
d="M1043 191l-488 419v85l488 418v-188l-317 -273l317 -273v-188zM613 162l-510 446v89l510 445v-196l-331 -294l331 -294v-196z" />
    <glyph glyph-name="guillemotright" unicode="&#xe0;" horiz-adv-x="1174" 
d="M1071 608l-510 -446v196l331 294l-331 294v196l510 -445v-89zM619 610l-488 -419v188l317 273l-317 273v188l488 -418v-85z" />
    <glyph glyph-name="ellipsis" unicode="&#xe1;" horiz-adv-x="1674" 
d="M1497 0h-204v223h204v-223zM939 0h-204v223h204v-223zM381 0h-204v223h204v-223z" />
    <glyph glyph-name="Agrave" unicode="&#xe2;" horiz-adv-x="1228" 
d="M-10 0l502 1489h244l502 -1489h-209l-135 416h-569l-135 -416h-200zM839 585l-230 702l-229 -702h459zM769 1675h-149l-273 374h243z" />
    <glyph glyph-name="Atilde" unicode="&#xe3;" horiz-adv-x="1228" 
d="M-10 0l502 1489h244l502 -1489h-209l-135 416h-569l-135 -416h-200zM839 585l-230 702l-229 -702h459zM1010 1965q-10 -156 -74.5 -234t-171.5 -78q-52 0 -96 19t-86 59q-44 41 -76 62.5t-63 21.5q-49 0 -68.5 -45t-23.5 -121h-140q7 154 76 232.5t169 78.5
q51 0 94 -19.5t86 -57.5q43 -39 77.5 -59.5t63.5 -20.5q47 0 68.5 45t24.5 117h140z" />
    <glyph glyph-name="Otilde" unicode="&#xe4;" horiz-adv-x="1449" 
d="M1204 1318q85 -98 132 -243t47 -331q0 -181 -46 -327t-133 -245q-91 -104 -212.5 -153.5t-267.5 -49.5q-151 0 -272 51t-208 152q-86 99 -132 244t-46 328q0 188 46.5 330t132.5 244q86 99 207.5 150.5t271.5 51.5q152 0 274 -53t206 -149zM1177 744q0 148 -32 262
t-90 189q-59 77 -142.5 115.5t-187.5 38.5q-108 0 -188.5 -37.5t-142.5 -116.5q-59 -76 -90.5 -191t-31.5 -260q0 -293 123 -448.5t330 -155.5t329.5 155.5t122.5 448.5zM1110 1985q-10 -156 -74.5 -234t-171.5 -78q-52 0 -96 19t-86 59q-44 41 -76 62.5t-63 21.5
q-49 0 -68.5 -45t-23.5 -121h-140q7 154 76 232.5t169 78.5q51 0 94 -19.5t86 -57.5q43 -39 77.5 -59.5t63.5 -20.5q47 0 68.5 45t24.5 117h140z" />
    <glyph glyph-name="OE" unicode="&#xe5;" horiz-adv-x="2000" 
d="M1932 0h-1031q-184 0 -308 26t-225 92q-144 95 -223 253.5t-79 374.5q0 209 84.5 370.5t220.5 252.5q89 60 209.5 90t318.5 30h1033v-176h-723v-408h673v-176h-673v-553h723v-176zM1012 171v1147h-119q-148 0 -241.5 -22.5t-172.5 -75.5q-103 -68 -155 -188t-52 -289
q0 -172 57 -293.5t169 -189.5q83 -50 173.5 -69.5t219.5 -19.5h121z" />
    <glyph glyph-name="oe" unicode="&#xe6;" horiz-adv-x="1861" 
d="M1625 683q-4 157 -71 233.5t-202 76.5q-128 0 -214.5 -82t-98.5 -228h586zM856 558q0 217 -78.5 322.5t-223.5 105.5q-148 0 -225.5 -110.5t-77.5 -317.5q0 -210 78.5 -318.5t224.5 -108.5q144 0 223 107.5t79 319.5zM1403 138q62 0 121.5 14t107.5 36q51 23 86 44.5
t58 40.5h11v-205q-33 -13 -82 -32.5t-88 -30.5q-55 -15 -99.5 -23t-112.5 -8q-147 0 -264.5 52.5t-188.5 152.5q-67 -103 -164.5 -156.5t-233.5 -53.5q-231 0 -364 158t-133 431q0 278 135 434t362 156q131 0 234.5 -55t167.5 -156q67 101 172.5 156t234.5 55
q215 0 330 -133t115 -374v-102h-769q0 -193 97 -297t267 -104z" />
    <glyph glyph-name="endash" unicode="&#xe7;" horiz-adv-x="1118" 
d="M1122 572h-1126v160h1126v-160z" />
    <glyph glyph-name="emdash" unicode="&#xe8;" horiz-adv-x="1862" 
d="M1866 572h-1870v160h1870v-160z" />
    <glyph glyph-name="quotedblleft" unicode="&#xe9;" horiz-adv-x="822" 
d="M725 997h-134l-261 559h238zM331 997h-134l-261 559h238z" />
    <glyph glyph-name="quotedblright" unicode="&#xea;" horiz-adv-x="822" 
d="M896 1556l-261 -559h-134l157 559h238zM502 1556l-261 -559h-134l157 559h238z" />
    <glyph glyph-name="quoteleft" unicode="&#xeb;" horiz-adv-x="432" 
d="M335 997h-138l-261 559h242z" />
    <glyph glyph-name="quoteright" unicode="&#xec;" horiz-adv-x="432" 
d="M496 1556l-261 -559h-138l157 559h242z" />
    <glyph glyph-name="divide" unicode="&#xed;" horiz-adv-x="1490" 
d="M864 1012h-238v275h238v-275zM1333 572h-1176v160h1176v-160zM864 17h-238v275h238v-275z" />
    <glyph glyph-name="lozenge" unicode="&#xee;" horiz-adv-x="1490" 
d="M1371 654l-626 -710l-626 710l626 710zM1153 654l-408 476l-408 -476l408 -474z" />
    <glyph glyph-name="ydieresis" unicode="&#xef;" horiz-adv-x="1020" 
d="M1014 1117l-601 -1529h-201l200 466l-406 1063h203l305 -827l304 827h196zM833 1304h-201v195h201v-195zM420 1304h-201v195h201v-195z" />
    <glyph glyph-name="Ydieresis" unicode="&#xf1;" horiz-adv-x="1180" 
d="M1193 1489l-503 -830v-659h-198v638l-503 851h220l384 -657l390 657h210zM900 1677h-201v195h201v-195zM487 1677h-201v195h201v-195z" />
    <glyph glyph-name="fraction" unicode="&#xf2;" horiz-adv-x="886" 
d="M916 1489l-780 -1489h-165l780 1489h165z" />
    <glyph glyph-name="Euro" unicode="&#xf3;" horiz-adv-x="1118" 
d="M945 662l-27 -138h-620q44 -170 146 -268q116 -112 290 -112q187 0 324 92h14v-193q-170 -70 -339 -70q-274 0 -444 158q-154 143 -203 393h-114l28 138h69q-3 40 -3 81q0 29 1 57h-95l28 138h83q46 262 207 414q174 164 446 164q178 0 336 -71v-195h-16q-141 97 -322 97
q-184 0 -302 -123q-101 -106 -140 -286h709l-27 -138h-700q-2 -28 -2 -57q0 -41 3 -81h670z" />
    <glyph glyph-name="guilsinglleft" unicode="&#xf4;" horiz-adv-x="784" 
d="M633 172l-510 436v89l510 435v-199l-331 -281l331 -281v-199z" />
    <glyph glyph-name="guilsinglright" unicode="&#xf5;" horiz-adv-x="784" 
d="M661 608l-510 -436v199l331 281l-331 281v199l510 -435v-89z" />
    <glyph glyph-name="fi" unicode="&#xf6;" horiz-adv-x="1092" 
d="M954 0h-188v964h-422v-964h-188v961h-127v156h127v57q0 182 97 287t250 105q52 0 94.5 -5.5t70.5 -9.5v-172h-10q-16 6 -53 14.5t-79 8.5q-105 0 -146.5 -54.5t-41.5 -172.5v-58h616v-1117zM954 1304h-202v195h202v-195z" />
    <glyph glyph-name="fl" unicode="&#xf7;" horiz-adv-x="1086" 
d="M948 0h-188v1404q-27 3 -66.5 5t-63.5 2q-162 0 -227 -53.5t-65 -193.5v-47h243v-156h-237v-961h-188v961h-127v156h127v49q0 103 32 177t90 125q55 48 142.5 73t187.5 25q60 0 131 -7t111 -11l98 8v-1556z" />
    <glyph glyph-name="daggerdbl" unicode="&#xf8;" horiz-adv-x="1118" 
d="M983 507l-363 5l5 -388h-132l5 388l-363 -5v129l363 -5v418l-363 -5v129l363 -5l-5 388h132l-5 -388l363 5v-129l-363 5v-418l363 5v-129z" />
    <glyph glyph-name="glyph194" unicode="&#xf9;" horiz-adv-x="620" 
d="M429 516h-239v273h239v-273z" />
    <glyph glyph-name="quotesinglbase" unicode="&#xfa;" horiz-adv-x="432" 
d="M386 283l-261 -559h-138l157 559h242z" />
    <glyph glyph-name="quotedblbase" unicode="&#xfb;" horiz-adv-x="814" 
d="M781 283l-261 -559h-134l157 559h238zM387 283l-261 -559h-134l157 559h238z" />
    <glyph glyph-name="perthousand" unicode="&#xfc;" horiz-adv-x="2848" 
d="M807 1076q0 -225 -90.5 -333.5t-261.5 -108.5q-174 0 -263.5 110t-89.5 331q0 224 91 333t262 109q174 0 263 -110t89 -331zM1473 1489l-780 -1489h-165l780 1489h165zM1897 413q0 -225 -90.5 -333.5t-261.5 -108.5q-174 0 -263.5 110t-89.5 331q0 224 91 333t262 109
q174 0 263 -110t89 -331zM629 1076q0 152 -35.5 230t-138.5 78t-139 -79t-36 -230q0 -150 34 -229t141 -79q103 0 138.5 79t35.5 230zM1719 413q0 152 -35.5 230t-138.5 78t-139 -79t-36 -230q0 -150 34 -229t141 -79q103 0 138.5 79t35.5 230zM2741 413
q0 -225 -90.5 -333.5t-261.5 -108.5q-174 0 -263.5 110t-89.5 331q0 224 91 333t262 109q174 0 263 -110t89 -331zM2563 413q0 152 -35.5 230t-138.5 78t-139 -79t-36 -230q0 -150 34 -229t141 -79q103 0 138.5 79t35.5 230z" />
    <glyph glyph-name="Acircumflex" unicode="&#xff;" horiz-adv-x="1228" 
d="M-10 0l502 1489h244l502 -1489h-209l-135 416h-569l-135 -416h-200zM839 585l-230 702l-229 -702h459zM940 1650h-159l-185 256l-184 -256h-155l228 379h227z" />
    <glyph glyph-name="Ecircumflex" unicode="&#x2260;" horiz-adv-x="1149" 
d="M151 0v1489h931v-176h-733v-408h683v-176h-683v-553h733v-176h-931zM961 1670h-159l-185 256l-184 -256h-155l228 379h227z" />
    <glyph glyph-name="Aacute" unicode="&#x20a0;" horiz-adv-x="1228" 
d="M-10 0l502 1489h244l502 -1489h-209l-135 416h-569l-135 -416h-200zM839 585l-230 702l-229 -702h459zM866 2049l-273 -374h-149l179 374h243z" />
    <glyph glyph-name="Edieresis" unicode="&#x160;" horiz-adv-x="1149" 
d="M151 0v1489h931v-176h-733v-408h683v-176h-683v-553h733v-176h-931zM966 1677h-201v195h201v-195zM553 1677h-201v195h201v-195z" />
    <glyph glyph-name="Egrave" unicode="&#x161;" horiz-adv-x="1149" 
d="M151 0v1489h931v-176h-733v-408h683v-176h-683v-553h733v-176h-931zM754 1675h-149l-273 374h243z" />
    <glyph glyph-name="Iacute" unicode="&#xa6;" horiz-adv-x="764" 
d="M671 0h-578v152h190v1185h-190v152h578v-152h-190v-1185h190v-152zM661 2049l-273 -374h-149l179 374h243z" />
    <glyph glyph-name="Icircumflex" unicode="&#xb2;" horiz-adv-x="764" 
d="M671 0h-578v152h190v1185h-190v152h578v-152h-190v-1185h190v-152zM729 1670h-159l-185 256l-184 -256h-155l228 379h227z" />
    <glyph glyph-name="Idieresis" unicode="&#xb3;" horiz-adv-x="764" 
d="M671 0h-578v152h190v1185h-190v152h578v-152h-190v-1185h190v-152zM694 1677h-201v195h201v-195zM281 1677h-201v195h201v-195z" />
    <glyph glyph-name="Igrave" unicode="&#xb9;" horiz-adv-x="764" 
d="M671 0h-578v152h190v1185h-190v152h578v-152h-190v-1185h190v-152zM533 1675h-149l-273 374h243z" />
    <glyph glyph-name="Oacute" unicode="&#xbc;" horiz-adv-x="1449" 
d="M1204 1318q85 -98 132 -243t47 -331q0 -181 -46 -327t-133 -245q-91 -104 -212.5 -153.5t-267.5 -49.5q-151 0 -272 51t-208 152q-86 99 -132 244t-46 328q0 188 46.5 330t132.5 244q86 99 207.5 150.5t271.5 51.5q152 0 274 -53t206 -149zM1177 744q0 148 -32 262
t-90 189q-59 77 -142.5 115.5t-187.5 38.5q-108 0 -188.5 -37.5t-142.5 -116.5q-59 -76 -90.5 -191t-31.5 -260q0 -293 123 -448.5t330 -155.5t329.5 155.5t122.5 448.5zM1002 2049l-273 -374h-149l179 374h243z" />
    <glyph glyph-name="Ocircumflex" unicode="&#xbd;" horiz-adv-x="1449" 
d="M1204 1318q85 -98 132 -243t47 -331q0 -181 -46 -327t-133 -245q-91 -104 -212.5 -153.5t-267.5 -49.5q-151 0 -272 51t-208 152q-86 99 -132 244t-46 328q0 188 46.5 330t132.5 244q86 99 207.5 150.5t271.5 51.5q152 0 274 -53t206 -149zM1177 744q0 148 -32 262
t-90 189q-59 77 -142.5 115.5t-187.5 38.5q-108 0 -188.5 -37.5t-142.5 -116.5q-59 -76 -90.5 -191t-31.5 -260q0 -293 123 -448.5t330 -155.5t329.5 155.5t122.5 448.5zM1055 1670h-159l-185 256l-184 -256h-155l228 379h227z" />
    <glyph glyph-name="Ograve" unicode="&#xbe;" horiz-adv-x="1449" 
d="M1204 1318q85 -98 132 -243t47 -331q0 -181 -46 -327t-133 -245q-91 -104 -212.5 -153.5t-267.5 -49.5q-151 0 -272 51t-208 152q-86 99 -132 244t-46 328q0 188 46.5 330t132.5 244q86 99 207.5 150.5t271.5 51.5q152 0 274 -53t206 -149zM1177 744q0 148 -32 262
t-90 189q-59 77 -142.5 115.5t-187.5 38.5q-108 0 -188.5 -37.5t-142.5 -116.5q-59 -76 -90.5 -191t-31.5 -260q0 -293 123 -448.5t330 -155.5t329.5 155.5t122.5 448.5zM851 1675h-149l-273 374h243z" />
    <glyph glyph-name="Uacute" unicode="&#xd0;" horiz-adv-x="1343" 
d="M671 -31q-131 0 -229 34.5t-167 102.5q-78 78 -110 186.5t-32 267.5v929h198v-929q0 -103 13 -173.5t51 -126.5q40 -60 108.5 -91t167.5 -31q93 0 165 31t112 91q37 57 50.5 126t13.5 169v934h198v-929q0 -155 -31.5 -266t-110.5 -188q-71 -69 -165.5 -103t-231.5 -34z
M995 2049l-273 -374h-149l179 374h243z" />
    <glyph glyph-name="Ucircumflex" unicode="&#xd7;" horiz-adv-x="1343" 
d="M671 -31q-131 0 -229 34.5t-167 102.5q-78 78 -110 186.5t-32 267.5v929h198v-929q0 -103 13 -173.5t51 -126.5q40 -60 108.5 -91t167.5 -31q93 0 165 31t112 91q37 57 50.5 126t13.5 169v934h198v-929q0 -155 -31.5 -266t-110.5 -188q-71 -69 -165.5 -103t-231.5 -34z
M1006 1670h-159l-185 256l-184 -256h-155l228 379h227z" />
    <glyph glyph-name="Ugrave" unicode="&#xdd;" horiz-adv-x="1343" 
d="M671 -31q-131 0 -229 34.5t-167 102.5q-78 78 -110 186.5t-32 267.5v929h198v-929q0 -103 13 -173.5t51 -126.5q40 -60 108.5 -91t167.5 -31q93 0 165 31t112 91q37 57 50.5 126t13.5 169v934h198v-929q0 -155 -31.5 -266t-110.5 -188q-71 -69 -165.5 -103t-231.5 -34z
M854 1675h-149l-273 374h243z" />
    <glyph glyph-name="dotlessi" unicode="&#xde;" horiz-adv-x="468" 
d="M328 0h-188v1117h188v-1117z" />
    <glyph glyph-name="circumflex" unicode="&#xf0;" horiz-adv-x="1118" 
d="M901 1297h-159l-185 256l-184 -256h-155l228 379h227z" />
    <glyph glyph-name="tilde" unicode="&#xfd;" horiz-adv-x="1118" 
d="M960 1632q-10 -156 -74.5 -234t-171.5 -78q-52 0 -96 19t-86 59q-44 41 -76 62.5t-63 21.5q-49 0 -68.5 -45t-23.5 -121h-140q7 154 76 232.5t169 78.5q51 0 94 -19.5t86 -57.5q43 -39 77.5 -59.5t63.5 -20.5q47 0 68.5 45t24.5 117h140z" />
    <glyph glyph-name="glyph216" unicode="&#xfe;" horiz-adv-x="1118" 
d="M936 1335h-754v154h754v-154z" />
    <glyph glyph-name="breve" unicode="&#x25cc;" horiz-adv-x="1079" 
d="M643 43q0 20 13.5 35.5t33.5 15.5q21 0 35 -15.5t14 -35.5t-14 -33.5t-35 -13.5q-20 0 -33.5 13.5t-13.5 33.5zM645 944q0 21 14.5 36t34.5 15q21 0 35 -15t14 -36q0 -20 -14 -33.5t-35 -13.5q-20 0 -34.5 13.5t-14.5 33.5zM618 76q0 -21 -14 -34t-35 -13q-20 0 -34.5 13
t-14.5 34q0 20 14.5 34.5t34.5 14.5q21 0 35 -14.5t14 -34.5zM516 150q0 -21 -14.5 -35.5t-34.5 -14.5q-21 0 -35 14.5t-14 35.5q0 20 14 34.5t35 14.5q20 0 34.5 -14.5t14.5 -34.5zM446 258q0 -20 -14 -34.5t-35 -14.5q-20 0 -34.5 14.5t-14.5 34.5q0 21 14.5 35t34.5 14
q21 0 35 -14t14 -35zM408 375q0 -21 -14.5 -35t-35.5 -14q-20 0 -34.5 14t-14.5 35q0 20 14.5 34.5t34.5 14.5q21 0 35.5 -14.5t14.5 -34.5zM399 494q0 -21 -14 -34.5t-35 -13.5q-20 0 -34.5 13.5t-14.5 34.5q0 20 14.5 35.5t34.5 15.5q21 0 35 -15.5t14 -35.5zM408 612
q0 -20 -14.5 -34.5t-35.5 -14.5q-20 0 -34.5 14.5t-14.5 34.5q0 21 14.5 35.5t34.5 14.5q21 0 35.5 -14.5t14.5 -35.5zM449 729q0 -20 -14.5 -34.5t-35.5 -14.5q-20 0 -34.5 14.5t-14.5 34.5q0 21 14.5 35t34.5 14q21 0 35.5 -14t14.5 -35zM514 838q0 -21 -14.5 -35.5
t-34.5 -14.5q-21 0 -34 14.5t-13 35.5q0 20 13 34.5t34 14.5q20 0 34.5 -14.5t14.5 -34.5zM616 913q0 -20 -14 -33.5t-35 -13.5q-20 0 -34.5 13.5t-14.5 33.5q0 21 14.5 36.5t34.5 15.5q21 0 35 -15.5t14 -36.5zM762 76q0 20 14.5 34.5t34.5 14.5t34.5 -14.5t14.5 -34.5
q0 -21 -14.5 -34t-34.5 -13t-34.5 13t-14.5 34zM864 150q0 20 14.5 34.5t34.5 14.5q21 0 35.5 -14.5t14.5 -34.5q0 -21 -14.5 -35.5t-35.5 -14.5q-20 0 -34.5 14.5t-14.5 35.5zM934 258q0 21 14.5 35t34.5 14q21 0 35 -14t14 -35q0 -20 -14 -34.5t-35 -14.5
q-20 0 -34.5 14.5t-14.5 34.5zM973 375q0 20 14 34.5t35 14.5q20 0 34.5 -14.5t14.5 -34.5q0 -21 -14.5 -35t-34.5 -14q-21 0 -35 14t-14 35zM981 494q0 20 14.5 35.5t34.5 15.5q21 0 35 -15.5t14 -35.5q0 -21 -14 -34.5t-35 -13.5q-20 0 -34.5 13.5t-14.5 34.5zM973 612
q0 21 14 35.5t35 14.5q20 0 34.5 -14.5t14.5 -35.5q0 -20 -14.5 -34.5t-34.5 -14.5q-21 0 -35 14.5t-14 34.5zM932 729q0 21 14.5 35t34.5 14t34.5 -14t14.5 -35q0 -20 -14.5 -34.5t-34.5 -14.5t-34.5 14.5t-14.5 34.5zM866 838q0 20 13.5 33.5t33.5 13.5q21 0 36.5 -13.5
t15.5 -33.5q0 -21 -15.5 -35.5t-36.5 -14.5q-20 0 -33.5 14.5t-13.5 35.5zM766 913q0 21 13.5 36.5t33.5 15.5q21 0 35 -15.5t14 -36.5q0 -20 -14 -33.5t-35 -13.5q-20 0 -33.5 13.5t-13.5 33.5z" />
    <glyph glyph-name="dotaccent" unicode="&#x200b;" 
 />
    <glyph glyph-name="ring" unicode="&#x200c;" horiz-adv-x="63" 
d="M0 0v1610h63v-1610h-63z" />
    <glyph glyph-name="cedilla" unicode="&#x200d;" horiz-adv-x="61" 
d="M184 1499l-123 123v-1622h-61v1620l-118 -121l-41 45l151 152l-151 151l41 45l151 -153l151 153l43 -45l-153 -151l153 -152z" />
    <glyph glyph-name="hungarumlaut" unicode="&#x1780;" horiz-adv-x="1298" 
d="M1050 1025h-19l-226 176l-184 -166h-48l-222 167l-105 -97q16 -13 36.5 -28t44.5 -34q23 -20 42 -35t33 -27q9 7 27.5 13t42 10.5t48 7t44.5 2.5h107q19 0 45.5 -3t57.5 -7q33 -5 64.5 -15.5t61.5 -24.5q61 -28 106 -81q44 -53 44 -136v-747h-171v703q0 49 -22 81.5
t-55.5 51.5t-73 27t-75.5 8h-72q-36 0 -73.5 -10.5t-68 -31.5t-50 -53.5t-19.5 -76.5v-699h-170v749q0 45 13.5 78.5t38.5 60.5l-153 126v112l269 272h49l233 -184l183 184h38l213 -176q16 -10 31 -10q16 0 36 12l38 -52z" />
    <glyph glyph-name="ogonek" 
d="M-191 -704h-169v336q0 43 -23 70.5t-58 43t-76 21.5t-77 6h-73q-36 0 -72 -8t-65 -26t-47 -45.5t-18 -66.5v-331h-171v370q0 55 34 98.5t85.5 73t112 45t114.5 15.5h118q20 0 46.5 -2t59.5 -6q34 -5 65.5 -14.5t62.5 -21.5q59 -24 106 -71q45 -44 45 -117v-370z" />
    <glyph glyph-name="caron" 
d="M-191 -1404h-169v336q0 43 -23 70.5t-58 43t-76 21.5t-77 6h-73q-36 0 -72 -8t-65 -26t-47 -45.5t-18 -66.5v-331h-171v370q0 55 34 98.5t85.5 73t112 45t114.5 15.5h118q20 0 46.5 -2t59.5 -6q34 -5 65.5 -14.5t62.5 -21.5q59 -24 106 -71q45 -44 45 -117v-370z" />
    <glyph glyph-name="Lslash" horiz-adv-x="1924" 
d="M1719 1140l9 -12v-1128h-171v1008l-412 208l-304 -177h-33l-322 179l-219 -128q34 -23 70.5 -53.5t64.5 -53.5q8 7 24.5 12.5t39.5 10.5q39 10 87 10h118q20 0 45.5 -3t57.5 -8q32 -4 63.5 -14t62.5 -26q63 -28 106 -80q44 -53 44 -136v-749h-171v705q0 51 -22 83.5
t-55.5 51t-73 26t-75.5 7.5h-72q-36 0 -73.5 -11.5t-68 -34.5t-50 -57t-19.5 -79v-691h-170v751q0 45 13.5 78.5t38.5 60.5l-153 126v112l431 272h38l313 -186l314 186h38l361 -180z" />
    <glyph glyph-name="lslash" horiz-adv-x="1925" 
d="M1784 1404q0 -75 -22 -140q-10 -36 -21 -67t-22 -57l9 -12v-1128h-171v1008l-412 208l-304 -177h-33l-322 179l-219 -128q34 -23 70.5 -53.5t64.5 -53.5q8 7 24.5 12.5t39.5 10.5q39 10 87 10h118q20 0 45.5 -3t57.5 -8q32 -4 63.5 -14t62.5 -26q63 -28 106 -80
q44 -53 44 -136v-749h-171v705q0 51 -22 83.5t-55.5 51t-73 26t-75.5 7.5h-72q-36 0 -73.5 -11.5t-68 -34.5t-50 -57t-19.5 -79v-691h-170v751q0 45 13.5 78.5t38.5 60.5l-153 126v112l431 272h38l313 -186l314 186h38l361 -180q8 18 16 38.5t16 43.5q15 43 15 80
q0 38 -11.5 84t-39.5 82q-10 11 -14 16.5t-10 5.5q-4 0 -12 -2t-26 -4h-16q-3 0 -7 0.5t-9 1.5q-46 4 -77 33.5t-31 74.5v3q0 66 46 100q47 35 106 35q79 0 139 -66q53 -56 78 -151q27 -93 27 -191z" />
    <glyph glyph-name="Scaron" unicode="&#x1781;" horiz-adv-x="1157" 
d="M951 265q0 -84 -43 -136t-103 -81q-31 -14 -61.5 -23.5t-61.5 -14.5q-32 -5 -57.5 -7.5t-45.5 -2.5h-118q-54 0 -117 17t-117.5 50.5t-91 83t-36.5 114.5v133q0 53 33.5 93.5t86.5 72.5t120 57t134 48l20 6q58 20 110 43.5t91.5 50t63 54.5t23.5 56v215q0 48 -22.5 79
t-56 49t-73.5 25t-74 7h-71q-36 0 -74 -10t-70 -30.5t-52.5 -53t-20.5 -77.5v-250q11 -20 25.5 -27t29.5 -7q20 0 40 20q19 22 19 38q0 10 -9 16q-11 0 -26 6t-28.5 20t-23.5 38.5t-10 61.5q0 79 37 110q36 33 83 33q43 0 76 -39q35 -38 35 -114q0 -75 -27 -134.5
t-68 -100.5t-90.5 -63t-95.5 -22h-40q-32 0 -63 25q-32 27 -32 67v367q0 42 16.5 78.5t44.5 66.5t64.5 54t76 40t80 24.5t76.5 8.5h118q20 0 46.5 -2.5t57.5 -9.5q66 -12 124 -42q64 -31 104 -83q44 -53 44 -137v-313q0 -44 -39.5 -83.5t-101 -74.5t-136.5 -65t-146 -55
q-57 -20 -103 -39.5t-83 -39.5q-75 -41 -75 -98v-49q0 -44 20.5 -75.5t52.5 -52t70 -30.5t74 -10h71q34 0 74 7.5t73.5 26.5t56 51t22.5 81v236l62 32h56l52 -34v-276z" />
    <glyph glyph-name="scaron" 
d="M-249 -560q0 -46 -17.5 -81.5t-46.5 -62t-65.5 -44t-74.5 -28.5t-73.5 -15.5t-62.5 -4.5h-273q-37 0 -78.5 7.5t-77 22t-59 36t-23.5 50.5v110q0 22 34 41t89 35t124 29t139 23q55 8 108 17.5t94 20t66 22.5t25 26v72q0 22 -20 39.5t-50.5 30t-68.5 19t-74 6.5h-120
q-74 0 -123 -24q-53 -26 -53 -63v-130q6 -8 21 -9.5t25 -1.5h6q18 3 32 15.5t14 20.5q0 9 -10 13q-22 0 -41 10.5t-22 44.5v8q0 40 27.5 60t63.5 20q50 0 67 -29q17 -32 17 -64t-22 -61t-57 -50.5t-80 -34t-91 -12.5h-30q-17 0 -33.5 4t-29 13t-20 23.5t-7.5 35.5v162
q0 30 34.5 55.5t86 44.5t112.5 30t115 11h118q19 0 46 -1.5t60 -5.5t64.5 -9t63.5 -13q29 -8 56 -18t50 -23q45 -26 45 -64v-167q0 -17 -33.5 -33t-88.5 -30.5t-125.5 -28t-143.5 -26.5l-40 -8q-74 -17 -122 -25.5t-76.5 -15t-40 -13t-11.5 -18.5v-24q0 -42 42.5 -59
t115.5 -17h120q36 0 76.5 5.5t75 22t57 46t22.5 77.5v34l57 42h55l60 -34v-57z" />
    <glyph glyph-name="Zcaron" 
d="M-251 -1200q0 -38 -17 -67.5t-45 -51.5t-64 -36.5t-73 -23.5t-72.5 -13t-62.5 -4h-333q-73 0 -127 26q-55 22 -55 73v102q0 20 34.5 35.5t89.5 28.5t124 23t138 19q55 7 108 15.5t94 17.5t66 19t25 21v57q0 16 -19.5 30.5t-49.5 25.5t-67 17t-73 6h-124q-74 0 -123 -21
q-53 -21 -53 -52v-104q6 -9 23 -9h29q18 4 32 13t14 17q0 6 -10 9q-22 0 -40 9.5t-22 39.5v4q0 35 27 51t63 16q25 0 41.5 -6.5t26 -17.5t13 -24.5t3.5 -28.5q0 -26 -22.5 -49.5t-58 -41t-80 -27.5t-89.5 -10h-26q-35 0 -63 19q-31 16 -31 51v120q0 17 16 32.5t42.5 28.5
t62 23t74 17.5t78 11.5t75.5 4h122q20 0 46 -1.5t59 -3.5q32 -3 63 -7.5t63 -12.5q64 -14 104 -34q44 -24 44 -52v-134q0 -15 -38 -30t-99 -29t-138 -25.5t-154 -19.5q-75 -12 -123.5 -19.5t-76.5 -13.5t-39 -12.5t-11 -16.5v-34q0 -34 42.5 -48.5t115.5 -14.5h124
q36 0 76 4.5t73.5 18t55.5 38t22 64.5v42l57 36h55l58 -28v-62z" />
    <glyph glyph-name="zcaron" horiz-adv-x="1820" 
d="M1628 1128v-1128h-170v1006l-250 206l-257 -88v-314q0 -45 -39.5 -83.5t-101.5 -72.5t-137.5 -64t-146.5 -57q-57 -18 -102 -36t-82 -38q-73 -37 -73 -97v-55q0 -45 19.5 -76.5t50.5 -52t68 -30t73 -9.5h71q36 0 76.5 7.5t74 26.5t55.5 50.5t22 79.5v244l58 32h51l63 -30
v-282q0 -85 -44 -135q-44 -53 -104 -81t-124 -40q-32 -5 -58 -8t-46 -3h-118q-54 0 -116.5 17t-116 50t-89.5 82t-36 114v139q0 51 32 89.5t83.5 68.5t116 53.5t130.5 45.5l29 10q56 20 108.5 44t92.5 50t64 54t24 56v215q0 48 -22 79.5t-55.5 50t-74 25.5t-76.5 7h-71
q-36 0 -73 -9t-68 -28.5t-50.5 -50.5t-19.5 -76v-289q16 -34 40 -34q26 0 47 31q21 30 21 54q0 13 -9 19q-11 0 -25.5 6t-28 20t-23 38.5t-9.5 61.5q0 76 35 111q37 34 83 34q42 0 76 -40q35 -41 35 -115q0 -76 -27 -141t-68 -113t-90.5 -75t-95.5 -27h-40q-30 0 -61 25
q-30 27 -30 67v409q0 63 35 113t87.5 85t115 53.5t116.5 18.5h118q30 0 75 -6t92.5 -21t92.5 -41.5t76 -67.5q17 -22 23 -20l322 156h36z" />
    <glyph glyph-name="brokenbar" horiz-adv-x="1824" 
d="M1674 1414q0 -25 -8 -58.5t-18.5 -68.5t-21 -69.5t-16.5 -62.5l18 -27v-1128h-170v1006l-250 206l-257 -88v-314q0 -45 -39.5 -83.5t-101.5 -72.5t-137.5 -64t-146.5 -57q-57 -18 -102 -36t-82 -38q-73 -37 -73 -97v-55q0 -45 19.5 -76.5t50.5 -52t68 -30t73 -9.5h71
q36 0 76.5 7.5t74 26.5t55.5 50.5t22 79.5v244l58 32h51l63 -30v-282q0 -85 -44 -135q-44 -53 -104 -81t-124 -40q-32 -5 -58 -8t-46 -3h-118q-54 0 -116.5 17t-116 50t-89.5 82t-36 114v139q0 51 32 89.5t83.5 68.5t116 53.5t130.5 45.5l29 10q56 20 108.5 44t92.5 50
t64 54t24 56v215q0 48 -22 79.5t-55.5 50t-74 25.5t-76.5 7h-71q-36 0 -73 -9t-68 -28.5t-50.5 -50.5t-19.5 -76v-289q16 -34 40 -34q26 0 47 31q21 30 21 54q0 13 -9 19q-11 0 -25.5 6t-28 20t-23 38.5t-9.5 61.5q0 76 35 111q37 34 83 34q42 0 76 -40q35 -41 35 -115
q0 -76 -27 -141t-68 -113t-90.5 -75t-95.5 -27h-40q-30 0 -61 25q-30 27 -30 67v409q0 63 35 113t87.5 85t115 53.5t116.5 18.5h118q30 0 75 -6t92.5 -21t92.5 -41.5t76 -67.5q17 -22 23 -20l322 156h36l214 -172q8 19 14.5 41.5t11.5 44.5t7.5 42t2.5 34q0 56 -15 95
t-41 74q-10 17 -22 21t-42 -4h-14q-4 0 -8.5 0.5t-9.5 1.5q-48 4 -73 31.5t-25 75.5v5q0 64 42 99q44 35 102 35q79 0 138 -65q52 -57 77 -152q27 -93 27 -191z" />
    <glyph glyph-name="Eth" unicode="&#x1782;" horiz-adv-x="1296" 
d="M1048 1025h-21l-226 177l-182 -167h-48l-220 167l-103 -97q15 -13 35 -29t41 -32.5t41 -32.5l35 -28q14 12 64 22q26 5 47.5 8t41.5 3h118q20 0 45.5 -3t57.5 -8q68 -9 125 -40q61 -32 105 -82q44 -53 44 -136v-747h-171v703q0 49 -21.5 81.5t-55 51.5t-73.5 27t-76 8
h-72q-36 0 -73.5 -10.5t-68 -31.5t-50 -53t-19.5 -75v-369q44 82 82.5 129t70.5 70.5t57 29t43 5.5q28 0 50 -8.5t37 -23t23 -32.5t8 -37q0 -20 -5.5 -38.5t-17.5 -33t-30 -23t-43 -8.5q-62 0 -105 -25.5t-75 -58.5q-27 -31 -45 -67.5t-29.5 -69.5t-16 -57t-4.5 -30v-54
h-170v751q0 42 14.5 76t39.5 61q-10 9 -32.5 28t-47 38.5t-45.5 36.5t-28 23v107l267 277h49l236 -178l180 178h38l212 -174q13 -10 30 -10q16 0 36 12l35 -54z" />
    <glyph glyph-name="eth" 
d="M-421 -732v364q0 44 -22 72t-55.5 43.5t-73.5 21.5t-76 6h-72q-35 0 -72.5 -8t-68 -25.5t-50 -45t-19.5 -66.5v-155v-3.5t2 -0.5t6.5 6t13.5 16q11 15 30.5 34.5t46 37t59 29.5t70.5 12q45 0 68.5 -18t23.5 -48v-32q-4 -31 -26 -44.5t-50 -13.5q-15 0 -26.5 3.5t-22 7
t-20 7t-19.5 3.5l-10 -1q-40 -10 -67.5 -34t-45 -49.5t-25.5 -46.5t-8 -24v-48h-170v399q0 58 35 102t87.5 74t114 45t115.5 15h118q39 0 104 -9q56 -9 126 -35q58 -26 105 -72q44 -47 44 -120v-399h-170z" />
    <glyph glyph-name="Yacute" 
d="M-421 -1412v316q0 45 -22.5 74t-57 46.5t-75 24.5t-76.5 7h-72q-36 0 -72.5 -9t-66.5 -28t-48.5 -48.5t-18.5 -70.5v-110q0 -2 2 -4q5 0 19 22t39.5 49t63.5 49t90 22q45 0 70.5 -24t25.5 -54v-6q0 -16 -5 -31t-14 -26t-21 -18t-26 -7q-15 0 -26.5 3.5t-22 8t-20 8.5
t-19.5 4l-10 -2q-40 -12 -67.5 -37.5t-45 -52.5t-25.5 -48.5t-8 -25.5v-32h-170v352q0 61 34.5 108.5t86 79t112.5 48t115 16.5h118q19 0 45.5 -2.5t59.5 -7.5q32 -5 64 -14.5t63 -22.5q31 -14 57 -33.5t49 -42.5q45 -48 45 -129v-352h-170z" />
    <glyph glyph-name="yacute" horiz-adv-x="1925" 
d="M1725 1140l5 -10v-1130h-171v1008l-391 206l-327 -177h-33l-322 179l-219 -128q34 -24 70.5 -54.5t64.5 -52.5q14 12 64 23q26 4 47.5 7t41.5 3h118q19 0 45.5 -3t57.5 -7q32 -5 63 -15t63 -26q63 -31 106 -82q44 -53 44 -136v-745h-169v701q0 49 -22.5 81.5t-57 51.5
t-74.5 27t-76 8h-72q-36 0 -73.5 -10t-68 -31t-50 -53t-19.5 -76v-369q44 83 82.5 130t70.5 70t57.5 28.5t42.5 5.5q28 0 50 -8.5t37 -23t23 -32.5t8 -37q0 -20 -6 -38.5t-17.5 -33t-29.5 -23t-42 -8.5q-63 0 -107 -24.5t-76 -57.5q-29 -32 -47 -68.5t-28.5 -69t-14 -56
t-3.5 -28.5v-56h-170v749q0 42 15 76t39 61q-10 9 -33 27.5t-48 38.5t-46 37t-28 23v118l431 268h38l315 -186l337 186h36z" />
    <glyph glyph-name="Thorn" horiz-adv-x="1919" 
d="M1788 1404q0 -70 -21 -140q-20 -73 -42 -124l5 -10v-1130h-171v1008l-391 206l-327 -177h-33l-322 179l-219 -128q34 -24 70.5 -54.5t64.5 -52.5q14 12 64 23q26 4 47.5 7t41.5 3h118q19 0 45.5 -3t57.5 -7q32 -5 63 -15t63 -26q63 -31 106 -82q44 -53 44 -136v-745h-169
v701q0 49 -22.5 81.5t-57 51.5t-74.5 27t-76 8h-72q-36 0 -73.5 -10t-68 -31t-50 -53t-19.5 -76v-369q44 83 82.5 130t70.5 70t57.5 28.5t42.5 5.5q28 0 50 -8.5t37 -23t23 -32.5t8 -37q0 -20 -6 -38.5t-17.5 -33t-29.5 -23t-42 -8.5q-63 0 -107 -24.5t-76 -57.5
q-29 -32 -47 -68.5t-28.5 -69t-14 -56t-3.5 -28.5v-56h-170v749q0 42 15 76t39 61q-10 9 -33 27.5t-48 38.5t-46 37t-28 23v118l431 268h38l315 -186l337 186h36l341 -178q8 19 16.5 39.5t16.5 42.5q16 45 16 80q0 38 -12 84t-40 82q-10 11 -14 16.5t-10 5.5q-4 0 -12 -2
t-26 -4h-16q-3 0 -7 0.5t-9 1.5q-23 2 -43 10.5t-35 23t-23.5 33t-8.5 41.5v3q0 65 47 100t107 35q79 0 139 -66q53 -56 78 -151q27 -93 27 -191z" />
    <glyph glyph-name="thorn" unicode="&#x1783;" horiz-adv-x="2092" 
d="M1898 1060h-13q-14 15 -29 28.5t-32 24.5q-29 19 -66 35t-79 16q-15 0 -30 -10t-28 -24t-23.5 -28t-17.5 -23q16 2 31.5 3.5t29.5 1.5q49 0 87 -15.5t63.5 -40t38.5 -56.5t13 -65v-722q0 -102 -47.5 -143.5t-131.5 -41.5h-402q-63 0 -101 23q-19 13 -36.5 30.5
t-36.5 40.5q-32 -42 -65 -68t-84 -26h-428q-54 0 -91 16.5t-60.5 44t-33.5 63.5t-10 76v1024q-7 8 -11 13.5t-6 8.5q-5 6 -25 6q-16 0 -28 -13.5t-20.5 -32.5t-13 -40t-4.5 -36q0 -19 8 -19q10 0 25 -6t28.5 -20.5t23.5 -39t10 -60.5q0 -60 -24.5 -101t-76.5 -47h-26
q-28 0 -48 17t-33 44.5t-19 63t-6 71.5q0 76 23.5 142t60.5 115.5t83.5 78t92.5 28.5h63q36 0 63 -28q30 -29 30 -61v-1030q0 -64 30 -101q30 -36 121 -36h211q147 0 147 143v531q0 66 -26 92.5t-74 26.5q-31 0 -48 -7q-20 -8 -37 18q-11 21 -24 46t-37 69l274 338h35
l198 -136q8 -8 32 -8q21 0 34 10l37 -52l-147 -149q-10 0 -28.5 16t-45 35.5t-62 35.5t-79.5 16q-29 0 -56 -30q-14 -14 -24 -26.5t-18 -23.5l-4 -5q16 2 31 3.5t31 1.5q98 0 153 -49q56 -50 56 -116v-633q0 -35 15 -62.5t39 -46t54 -28.5t60 -10h202q25 0 50 2t44.5 14.5
t31.5 39t12 75.5v535q0 69 -22.5 97t-73.5 28q-14 2 -24 -1.5t-18.5 -5t-16 1.5t-15.5 18q-12 20 -29 45.5t-41 67.5l272 339h38l198 -137q8 -8 29 -8q11 0 22.5 3t19.5 7l30 -54z" />
    <glyph glyph-name="minus" horiz-adv-x="678" 
d="M475 1065q-10 0 -28.5 16t-45.5 35.5t-62.5 35.5t-79.5 16q-27 0 -54 -30q-14 -14 -24.5 -26.5t-18.5 -23.5l-4 -5q16 2 30.5 3.5t28.5 1.5q49 0 88.5 -15t67 -39t42 -55t14.5 -62v-1521q0 -109 -53 -154q-52 -46 -132 -46h-236q-66 0 -103 19q-36 20 -69 65
q-32 -40 -65.5 -62t-85.5 -22h-221q-110 0 -155 56q-45 54 -45 134v305q0 48 -44 48q-26 0 -39 -18t-13 -34q0 -13 10 -13q21 0 46 -22q28 -21 28 -85q0 -49 -20.5 -85t-65.5 -40h-12q-46 0 -66 37.5t-20 95.5q0 64 19 120.5t51.5 98t74.5 65.5t87 24h42q16 0 33 -8.5
t31 -21.5t23 -29t9 -30v-337q0 -32 9.5 -54t26 -35.5t38.5 -19.5t48 -6h68q69 0 95 23t26 71v52q0 11 -13 27t-52 16q-9 -1 -15.5 -1.5t-12 1.5t-11 8.5t-11.5 18.5q-18 29 -30 54.5t-14 29.5l210 241h27l142 -96q8 -8 24 -8q17 0 25 8l28 -40l-109 -113h-10q-22 21 -41 35
q-19 13 -47 24.5t-60 11.5q-23 0 -44 -24q-10 -13 -18.5 -23t-13.5 -16q11 4 24 4h24q36 0 67 -9.5t53.5 -23t35.5 -27.5t13 -24v-126q0 -42 27 -68t87 -26h104q55 0 86 19q35 17 35 79v1377q0 66 -26.5 93t-74.5 27q-17 0 -33.5 -3.5t-38.5 -7.5l-74 134l274 338h36
l197 -134q13 -10 32 -10q17 0 34 12l36 -54z" />
    <glyph glyph-name="multiply" horiz-adv-x="678" 
d="M473 1065q-11 0 -29 16t-44.5 35.5t-62 35.5t-80.5 16q-27 0 -54 -30q-14 -14 -24.5 -26.5t-18.5 -23.5l-4 -5q16 2 31.5 3.5t29.5 1.5q49 0 88.5 -15t67 -39t42 -55t14.5 -62v-2133q0 -108 -51 -153q-50 -45 -134 -45h-236q-33 0 -57.5 2t-44.5 9t-36.5 20.5t-33.5 37.5
q-16 -20 -32 -33t-34 -21t-39 -11.5t-46 -3.5h-219q-110 0 -155 56q-45 54 -45 135v267q0 48 -42 48q-14 0 -24 -5.5t-16 -13.5t-8.5 -17t-2.5 -16q0 -14 7 -14q18 0 47 -20q27 -22 29 -86q0 -51 -21.5 -86.5t-66.5 -39.5h-12q-46 0 -66 38t-20 96q0 62 19 117.5t51.5 97
t74.5 65.5t87 24h42q16 0 33 -9t31.5 -22.5t24 -29.5t9.5 -30v-355q0 -7 26 -31q25 -25 58 -25h110q70 0 91 24q22 25 22 70v18q0 7 -14 27q-14 17 -51 17q-8 4 -13 0.5t-9.5 -5t-10 4t-15.5 26.5q-18 29 -30 54t-14 30l208 236h29l142 -91q4 -4 10 -2t14 2q5 0 11 -2t14 2
l28 -40l-111 -113h-10q-20 19 -42 36q-20 14 -46 25.5t-58 11.5q-23 0 -45 -25q-11 -14 -19.5 -23.5t-13.5 -16.5q11 4 24 4h24q37 0 68 -9.5t54 -22.5t36 -27.5t13 -24.5v-92q0 -42 35 -66.5t95 -24.5h86q26 0 48.5 2.5t38.5 14.5t25 37.5t9 70.5v1959q0 66 -27 93t-78 27
q-15 0 -28 -1.5t-24 -3.5q-18 -5 -28 17q-13 19 -26.5 44t-37.5 67l274 338h38l195 -134q13 -10 32 -10q17 0 34 12l36 -54z" />
    <glyph glyph-name="onesuperior" horiz-adv-x="2714" 
d="M482 278q0 -64 28 -101q28 -36 119 -36h212q69 0 109.5 35t40.5 104v535q0 66 -27 92.5t-78 26.5q-29 0 -46 -7q-21 -7 -37 18q-12 21 -25 46t-37 69l273 338h36l198 -136q8 -8 32 -8q10 0 12 -1t10 3l28 -44l-126 -149q-9 0 -26.5 16t-44 35.5t-62 35.5t-78.5 16
q-15 0 -29.5 -8.5t-27.5 -21t-25 -26.5t-21 -24l-4 -5q17 2 32.5 3.5t30.5 1.5q96 0 155 -51q58 -52 58 -118v-633q0 -73 48 -107q48 -36 109 -36h209q25 0 50.5 3.5t45.5 17t33 41t13 75.5v647l-102 91v124l503 258h38l412 -260v-1138h-173v1010l-326 206l-274 -135
l91 -102v-785q0 -104 -49 -149t-134 -45h-402q-63 0 -101 23q-35 23 -72 71q-17 -21 -32.5 -38t-33 -29.5t-38 -19.5t-47.5 -7h-427q-53 0 -90 16.5t-59.5 44t-32.5 63.5t-10 76v1031q-8 10 -11.5 14.5t-4.5 5.5q-5 5 -26 5q-26 0 -46 -29q-17 -29 -17 -51q0 -15 8 -15
q9 0 23 -6t28 -20t24 -38.5t10 -61.5q0 -59 -23.5 -101t-75.5 -48h-17q-55 0 -84 44t-29 114q0 76 22 141t58 112t81.5 74t92.5 27h63q33 0 65 -26q30 -26 30 -57v-1037z" />
    <glyph glyph-name="twosuperior" horiz-adv-x="1249" 
d="M1062 0h-170v1010l-340 206l-275 -135l103 -109v-1550q0 -109 -52 -157q-55 -49 -133 -49h-231q-33 0 -58 0.5t-45.5 6t-37 17.5t-32.5 36q-17 -20 -32.5 -32t-33 -18t-38 -8t-46.5 -2h-224q-54 0 -92 15.5t-62 42.5t-35 62.5t-11 74.5v303q0 48 -44 48
q-26 0 -38.5 -18.5t-12.5 -34.5q0 -14 10 -14q18 0 45 -21q29 -23 29 -84q0 -51 -21 -86.5t-66 -39.5h-12q-46 0 -66 37t-20 97q0 63 19 119t51.5 97.5t74.5 66t87 24.5h42q16 0 33 -9t31 -22.5t23 -29.5t9 -29v-331q0 -65 18 -90.5t62 -25.5h84q145 0 145 94v48q0 7 -11 27
q-11 17 -50 17q-9 4 -15 0.5t-11.5 -5t-10.5 3.5t-13 26q-9 15 -16.5 29t-13 25.5t-9.5 19.5l-5 10l210 242h27l142 -96q7 -7 24 -7q19 0 26 7l27 -40l-109 -114h-10q-11 11 -21 19.5t-19 15.5q-20 13 -48 25t-60 12q-23 0 -44 -24q-10 -12 -18 -22t-14 -18q11 4 25 4h24
q36 0 66.5 -9.5t52.5 -22.5t34.5 -27.5t12.5 -24.5v-121q0 -42 25.5 -68t85.5 -26h105q30 0 53 2.5t38 16t23 40.5t8 77v1413l-108 99v124l502 260h38l419 -260v-1140z" />
    <glyph glyph-name="threesuperior" horiz-adv-x="1249" 
d="M1062 0h-170v1008l-340 206l-275 -135l103 -109v-2182q0 -109 -52 -155q-53 -47 -133 -47h-233q-68 0 -104 18q-18 7 -35.5 23.5t-33.5 38.5q-32 -40 -65.5 -60t-84.5 -20h-222q-109 0 -155 58q-45 55 -45 134v250q0 48 -44 48q-26 0 -38.5 -18t-12.5 -34l10 -15
q18 0 45 -21q29 -23 29 -84q0 -51 -21 -86.5t-66 -39.5h-12q-46 0 -66 37t-20 97q0 63 19 117.5t51.5 95t74.5 63.5t87 23h42q30 0 64 -25q32 -26 32 -57v-280q0 -63 26 -89t66 -26h114q71 0 87 25t16 69q0 4 -12 19q-10 13 -57 13h-13q-17 0 -31 29l-44 84l210 238h27
l142 -89l78 -42l-110 -114h-9q-29 28 -64 50t-85 22q-21 0 -39 -20t-37 -45l49 4q36 0 66.5 -9t53 -22.5t35.5 -28t13 -24.5v-65q0 -42 22 -68t81 -26h133q22 0 41 5t32.5 19.5t21 41t7.5 70.5v2045l-108 99v124l502 260h38l419 -260v-1138z" />
    <glyph glyph-name="onehalf" horiz-adv-x="2719" 
d="M480 276q0 -64 27 -100q27 -37 118 -37h196q72 0 118 37q50 36 50 106v533q0 66 -28.5 92.5t-77.5 26.5q-16 0 -29 -4t-25 -4q-20 0 -30 19q-12 21 -25 46t-37 69l273 338h36l198 -136q8 -8 33 -8q9 0 26 3t25 7v-52l-127 -149q-10 0 -28.5 16t-45.5 35.5t-62.5 35.5
t-79.5 16q-28 0 -56 -30q-14 -14 -24.5 -26.5t-18.5 -23.5l-3 -5q16 2 31.5 3.5t30.5 1.5q96 0 156 -51t60 -118v-635q0 -36 15 -63t39 -44.5t53.5 -26.5t59.5 -9h194q25 0 51 3t47 16.5t34.5 41t13.5 76.5v649l-102 91v124l487 258h38l290 -176q7 19 15.5 39.5t16.5 43.5
q15 43 15 81t-11.5 83t-39.5 81l-4 7v2q-7 13 -16 13l-42 -6h-16q-3 0 -7 0.5t-9 1.5q-48 4 -74 34t-26 73v4q0 32 11 57t30.5 42.5t46 26.5t56.5 9q79 0 139 -66q52 -58 78 -151q27 -92 27 -189q0 -70 -14.5 -141.5t-37.5 -124.5v-1142h-173v1010l-339 206l-265 -135
l95 -102v-787q0 -105 -51 -148q-53 -44 -136 -44h-400q-65 0 -102 22q-35 24 -71 70q-17 -20 -32.5 -37t-33 -29t-38 -19t-47.5 -7h-421q-53 0 -90.5 16t-61 43t-34 63t-10.5 76v1035q-5 8 -9.5 12.5t-5.5 6.5q-4 4 -27 4q-27 0 -45 -29q-16 -28 -16 -51q0 -15 8 -15
q10 0 25 -6t28.5 -20t23.5 -38.5t10 -61.5q0 -60 -24.5 -101.5t-76.5 -47.5h-17q-55 0 -84 44t-29 114q0 76 22 141t58 112t81.5 74t92.5 27h63q18 0 34.5 -9t29.5 -22.5t21 -28t8 -25.5v-1037z" />
    <glyph glyph-name="onequarter" horiz-adv-x="1259" 
d="M649 1400l299 -184q16 34 28 77t12 77q0 38 -10.5 84t-37.5 82l-5 8q-7 13 -15 13l-42 -5h-16q-8 0 -16 2q-23 2 -44 10.5t-36.5 23t-24.5 33t-9 41.5v4q0 64 49 98q50 35 108 35q81 0 141 -65q53 -63 77 -151q26 -96 26 -191q0 -66 -20 -140q-10 -35 -20 -65.5
t-21 -56.5v-1130h-170v1010l-342 206l-277 -135l107 -109v-1555q0 -108 -55 -154q-56 -47 -134 -47h-217q-69 0 -103 21q-36 18 -71 65q-16 -20 -32 -36t-33.5 -27t-38 -17t-46.5 -6h-231q-110 0 -155 57t-45 135v301q0 49 -44 49q-26 0 -38.5 -18t-12.5 -35q0 -14 9 -14
q19 0 46 -21q28 -22 28 -84q0 -51 -21 -86.5t-64 -40.5h-13q-46 0 -66 37.5t-20 97.5q0 62 19 118t51 98.5t74 67.5t88 25h42q16 0 33 -9.5t31 -23t23 -30t9 -29.5v-345q0 -32 5 -52t15.5 -31t27 -15t39.5 -4h113q107 0 107 93v49q0 7 -11 27q-11 17 -51 17q-9 0 -14.5 -2
t-9.5 -2t-10 6t-15 23q-9 15 -17 29t-14 25.5t-9.5 19.5t-3.5 10l209 242h28l142 -96q7 -7 24 -7q19 0 26 7l27 -40l-109 -114h-10q-28 29 -62.5 51t-85.5 22q-23 0 -44 -25q-10 -11 -18 -21.5t-14 -18.5q15 4 24 4h25q36 0 66.5 -9t52.5 -22.5t34 -28t12 -24.5v-122
q0 -42 29.5 -67.5t89.5 -25.5h94q30 0 53.5 3t39.5 16t24 40t8 76v1418l-111 99v124l501 260h39z" />
    <glyph glyph-name="threequarters" horiz-adv-x="1260" 
d="M649 1400l299 -184q16 34 28 77t12 77q0 38 -10.5 84t-37.5 82l-5 8q-7 13 -15 13l-42 -5h-16q-10 0 -16 2q-23 2 -44 10.5t-36.5 23t-24.5 33t-9 41.5v4q0 64 49 98q49 35 108 35q81 0 141 -65q53 -61 77 -151q26 -95 26 -191q0 -68 -20 -140q-10 -35 -20 -65.5
t-21 -56.5v-1130h-170v1010l-342 206l-277 -135l107 -109v-2175q0 -108 -55 -154q-55 -47 -134 -47h-217q-69 0 -103 21q-36 18 -71 65q-16 -20 -32 -36t-33.5 -27t-38 -17t-46.5 -6h-231q-110 0 -155 57t-45 135v301q0 49 -44 49q-26 0 -38.5 -18t-12.5 -35q0 -14 9 -14
q19 0 46 -21q28 -22 28 -84q0 -51 -21 -86.5t-64 -40.5h-13q-46 0 -66 37.5t-20 97.5q0 62 19 118t51 98.5t74 67.5t88 25h42q16 0 33 -9.5t31 -23t23 -30t9 -29.5v-345q0 -32 5 -52t15.5 -31t27 -15t39.5 -4h113q107 0 107 93v49q0 8 -11 27q-11 17 -51 17q-9 0 -14.5 -2
t-9.5 -2t-10 6t-15 23q-18 29 -30.5 54.5t-13.5 29.5l209 242h28l142 -96q7 -7 24 -7q19 0 26 7l27 -40l-109 -114h-10q-28 29 -62.5 51t-85.5 22q-23 0 -44 -25q-10 -11 -18 -21.5t-14 -18.5q16 4 24 4h25q36 0 66.5 -9t52.5 -22.5t34 -28t12 -24.5v-122q0 -42 29.5 -67.5
t89.5 -25.5h94q30 0 53.5 3t39.5 16t24 40t8 76v2038l-111 99v124l501 260h39z" />
    <glyph glyph-name="franc" unicode="&#x1784;" horiz-adv-x="1298" 
d="M917 1201q0 32 -22 54t-54 22q-33 0 -51.5 -22t-18.5 -54q0 -33 18.5 -54t51.5 -21q32 0 54 21t22 54zM939 0l-256 256l-254 -256h-162v735q0 12 -10.5 26t-33.5 14q-26 0 -40 -26q-11 -28 -11 -46t7 -18q9 0 22 -5t24.5 -17t20 -33t8.5 -53q0 -100 -86 -100
q-32 0 -66 42q-32 44 -32 106q0 129 65 203q65 71 160 71h40q16 0 34 -9.5t33.5 -24t25.5 -30t10 -27.5v-623l253 253l256 -255v622q0 81 -66 110q-66 28 -164 28h-158q-57 0 -109.5 12t-93 37t-65 64t-24.5 93v246q-31 -5 -47 16t-16 51q0 19 6.5 37.5t23 33.5t43.5 24
t68 9q33 0 62 -26q28 -25 28 -62v-260q0 -57 56 -96q55 -39 136 -39q14 0 29.5 1.5t31.5 3.5q-37 46 -37 114q0 84 57 141q58 57 140 57q41 0 77 -15t62.5 -41.5t41.5 -63t15 -78.5q0 -46 -20 -85.5t-54 -68.5q67 -17 108 -49.5t41 -91.5v-907h-180z" />
    <glyph glyph-name="Gbreve" 
d="M-23 -215q-20 -50 -36 -46q-6 2 -12.5 4t-15.5 4q-20 7 -44 7q-52 0 -88 -30q-45 -36 -76 -103q-30 -68 -69 -141q-20 -37 -42.5 -72.5t-49.5 -66.5q-55 -65 -144 -95q-59 -18 -112 -18q-48 2 -90 13t-84 29q-82 37 -138 116q-45 66 -60.5 146t-15.5 171q0 32 11 64.5
t29.5 58t43.5 41.5t54 16h17q21 0 48 -5t51 -20.5t40 -44t16 -74.5q0 -39 -18 -78q-18 -40 -50 -52q-24 0 -35 -20t-11 -48q0 -30 14 -70q13 -38 36 -54q22 -17 47 -24t49 -7q23 0 36 4q44 9 79 31.5t63 53.5t51 68.5t43.5 76t41 75t42.5 67.5q35 46 83 82q49 38 124 38h4
q32 0 60 -13t50 -29.5t37 -32.5t21 -22z" />
    <glyph glyph-name="gbreve" 
d="M-24 -887q-20 -47 -36 -42q-6 0 -12.5 2t-15.5 3q-24 6 -44 6q-48 0 -88 -28q-45 -33 -76 -96q-32 -63 -69 -132q-20 -34 -42.5 -67t-49.5 -63q-55 -61 -144 -89q-56 -18 -112 -18q-94 4 -167.5 46.5t-130.5 115.5q-45 60 -65.5 144t-20.5 168v5q0 26 12 52
q20 42 54.5 70t67.5 30h17q22 0 46.5 -6t45 -22t34 -44t13.5 -72q0 -17 -4.5 -35.5t-11.5 -36t-16.5 -32t-19.5 -23.5q-24 0 -35 -19t-11 -46q0 -26 14 -66q14 -36 36 -49q22 -18 47 -24t49 -6q10 0 18 1t18 1q44 9 79 30.5t63 50.5t50.5 64t43.5 70.5t41 70t43 63.5
q34 42 82.5 69.5t124.5 31.5h4q33 0 61 -10.5t49.5 -24t36.5 -26z" />
    <glyph glyph-name="Idotaccent" horiz-adv-x="1999" 
d="M1780 1147l15 -17v-1130h-169v1008l-304 206l-301 -84v2q-20 -36 -55 -65q66 -19 110 -51q43 -31 43 -91v-921h-182l-256 255l-252 -255h-162v729q0 12 -10.5 26t-33.5 14q-26 0 -40 -26q-11 -27 -11 -46q0 -18 7 -18q17 0 46 -24q29 -23 29 -84v-5q0 -95 -86 -95
q-32 0 -66 42q-32 43 -32 106q0 130 65 203q65 71 160 71h40q16 0 34 -10t33.5 -24t25.5 -29.5t10 -26.5v-617l251 252l258 -254v635q0 82 -67 110q-68 30 -165 30h-54q-13 0 -26.5 -1t-26.5 -3q-5 -1 -11.5 -1.5t-15.5 -0.5h-24q-57 0 -109 13t-92.5 39t-64.5 65t-24 92
v246q-11 -6 -15 -6q-18 0 -32 22t-14 52v4q0 37 28 68q29 32 111 32q34 0 64 -27q29 -26 29 -61v-259q0 -59 54 -98q52 -39 133 -39q35 0 60 7q-35 50 -35 113q0 84 56 140q58 58 141 58q63 0 110 -31.5t70 -88.5q5 -10 10 -25l2 17l333 108h38zM923 1218q0 32 -22 54
t-54 22t-54 -22t-22 -54q0 -31 22 -52t54 -21t54 21t22 52z" />
    <glyph glyph-name="Scedilla" horiz-adv-x="1999" 
d="M1843 1416q0 -25 -7 -62t-16.5 -76t-20.5 -74.5t-19 -56.5l15 -17v-1130h-169v1008l-304 206l-301 -84v2q-19 -35 -55 -65q67 -20 110 -51t43 -91v-921h-182l-256 255l-252 -255h-162v729q0 12 -10.5 26t-33.5 14q-26 0 -40 -26q-11 -28 -11 -46t7 -18q17 0 46 -24
q29 -23 29 -84v-5q0 -95 -86 -95q-32 0 -66 42q-32 44 -32 106q0 129 65 203q65 71 160 71h40q16 0 34 -10t33.5 -24t25.5 -29.5t10 -26.5v-617l251 252l258 -254v635q0 82 -67 110q-68 30 -165 30h-54q-13 0 -26.5 -1t-26.5 -3q-5 -1 -11.5 -1.5t-15.5 -0.5h-24
q-57 0 -109 13t-92.5 39t-64.5 65t-24 92v246q-11 -6 -15 -6q-18 0 -32 22t-14 52v4q0 37 28 68q29 32 111 32q34 0 64 -27q29 -26 29 -61v-259q0 -59 54 -98q52 -39 133 -39q36 0 60 7q-35 50 -35 113q0 84 56 140q58 58 141 58q63 0 110 -31.5t70 -88.5q2 -5 5 -11t5 -14
l2 17l333 108h38l248 -174q8 19 16 41t17 47q19 44 19 78q0 56 -15.5 95t-40.5 74q-10 17 -22 21t-42 -4h-14q-6 0 -10.5 0.5t-8.5 1.5q-46 4 -73.5 32t-27.5 76v4q0 63 44 99q44 35 104 35q77 0 136 -65q52 -57 77 -152q26 -96 26 -191zM923 1218q0 32 -22 54t-54 22
t-54 -22t-22 -54q0 -31 22 -52t54 -21t54 21t22 52z" />
    <glyph glyph-name="scedilla" unicode="&#x1785;" horiz-adv-x="1298" 
d="M1092 1025l-235 176l-184 -166h-48l-223 164l-133 -101q17 -12 36 -29t38 -35.5t37 -36.5t32 -31v-697q0 -42 11.5 -67.5t29.5 -39t40.5 -17.5t43.5 -4h250q26 0 50.5 4.5t43 18t29.5 38t11 63.5v488q0 18 -10 31t-32 13q-32 0 -48 -30q-18 -30 -18 -50q0 -14 8 -14
q10 0 25 -6t29 -20t24 -38.5t10 -61.5q0 -58 -25 -100t-77 -48h-18q-17 0 -36.5 11t-36.5 32t-28 50t-11 65q0 76 23 140.5t59.5 112t82.5 74.5t92 27h65q36 0 63 -27q30 -29 30 -62v-667q0 -91 -45 -138t-132 -47h-505q-48 0 -80.5 18t-52 44.5t-27.5 56t-8 53.5v718
q-9 9 -30 27t-44.5 38t-43 36.5t-25.5 22.5v126l332 258h38l236 -180l180 180h38l213 -176q16 -10 30 -10q16 0 36 12l39 -52z" />
    <glyph glyph-name="Cacute" 
d="M-53 -660q0 -26 -5 -52t-9 -46l-2 -4l-91 -34l-75 30q10 18 12 36t2 44v26q0 24 -7.5 47.5t-20.5 50.5l-4 10q-10 20 -20.5 39t-31.5 35q-28 -54 -59.5 -99t-73.5 -81q-42 -34 -82.5 -58.5t-84 -40t-94 -22.5t-113.5 -7q-69 1 -122.5 23.5t-90.5 55.5t-56 71.5t-19 71.5
v8q16 3 38.5 11t50.5 22q28 13 54.5 30.5t51.5 38.5q34 29 56 60.5t22 60.5q0 7 -1 5t-6 4q-28 17 -41 44t-13 51q2 42 34 77t86 49q10 2 21 3t23 1q63 0 93.5 -37t30.5 -97q0 -38 -12.5 -76t-39.5 -80q-9 -15 -31.5 -39.5t-49.5 -51t-55 -50.5t-48 -38q3 -14 13 -22.5
t24 -14t31 -7.5t34 -2q35 4 56 6q33 5 62 17.5t54 29.5t45.5 37.5t37.5 41.5q32 41 50.5 81t22.5 60q-38 50 -55 85t-21 73l-2 12q0 34 24 50t56 20h10q30 0 55.5 -8t39.5 -24q4 -25 10.5 -48.5t13.5 -43.5q18 -51 42.5 -89t51.5 -72.5t54 -71t50 -85.5q10 -19 17 -50.5
t7 -66.5z" />
    <glyph glyph-name="cacute" 
d="M-55 -1288q0 -25 -5 -51.5t-9 -45.5l-2 -4l-91 -32l-74 30q9 18 11 35t2 43v25q0 23 -7.5 46t-20.5 49l-4 10q-10 19 -20.5 38t-31.5 33q-28 -51 -59.5 -95t-73.5 -79q-42 -33 -82.5 -57t-84.5 -39t-94 -22t-113 -7q-69 0 -122.5 22t-90.5 54.5t-56.5 70t-19.5 68.5v9
q33 6 89 33q29 13 55 29.5t52 36.5q25 23 32.5 36t7.5 27v23q0 14 -7 27q-28 17 -41 42t-13 51q2 42 35 77t85 47q5 1 9 1.5t7 0.5q6 0 7 -1q5 -1 10.5 -1h10.5q63 0 93.5 -36.5t30.5 -93.5q0 -36 -14.5 -81t-37.5 -88q-22 -38 -58.5 -78t-87.5 -65q6 -23 36 -33.5t66 -10.5
q35 4 56 6q66 11 109.5 40.5t69.5 65t38.5 69.5t16.5 53q-38 51 -55 92.5t-21 79.5l-2 14q0 32 24 47t56 19h10q30 0 55.5 -7t39.5 -21q5 -28 11.5 -50t12.5 -42q18 -51 49 -85.5t65.5 -65t67.5 -63.5t55 -81q9 -18 16 -49t7 -66z" />
    <glyph glyph-name="Ccaron" horiz-adv-x="1934" 
d="M1728 1140l4 -12v-1128h-170v1008l-365 206l-354 -177h-33l-322 179l-229 -132q6 -7 19 -22.5t29.5 -33.5t33.5 -35t31 -28v-696q0 -42 12 -67.5t30.5 -39t41.5 -17.5t45 -4h260q58 0 90 24q34 22 34 100v488q0 18 -9 31t-31 13q-16 0 -28 -13t-20.5 -31.5t-13 -38.5
t-4.5 -35q0 -20 8 -20q10 0 25 -5.5t29 -20t24 -39t10 -61.5q0 -58 -25 -100t-77 -48h-14q-59 0 -87.5 44t-28.5 114q0 76 23 147.5t60 126.5t83 88.5t92 33.5h64q34 0 61 -27q28 -28 28 -62v-665q0 -91 -42 -138t-127 -47h-513q-48 0 -80.5 18t-52 44.5t-27.5 56t-8 53.5
v716q-10 9 -25 24.5t-30.5 31t-29 29.5t-20.5 20v145l433 260h38l315 -186l344 186h37z" />
    <glyph glyph-name="ccaron" horiz-adv-x="1935" 
d="M1790 1404q0 -70 -21 -140q-9 -34 -19.5 -64.5t-21.5 -59.5l4 -12v-1128h-170v1008l-365 206l-354 -177h-33l-322 179l-229 -132q6 -7 19 -22.5t29.5 -33.5t33.5 -35t31 -28v-696q0 -42 12 -67.5t30.5 -39t41.5 -17.5t45 -4h260q58 0 90 24q34 22 34 100v488q0 18 -9 31
t-31 13q-16 0 -28 -13t-20.5 -31.5t-13 -38.5t-4.5 -35q0 -20 8 -20q10 0 25 -5.5t29 -20t24 -39t10 -61.5q0 -58 -25 -100t-77 -48h-14q-59 0 -87.5 44t-28.5 114q0 76 23 147.5t60 126.5t83 88.5t92 33.5h64q34 0 61 -27q28 -28 28 -62v-665q0 -91 -42 -138t-127 -47h-513
q-48 0 -80.5 18t-52 44.5t-27.5 56t-8 53.5v716q-10 9 -25 24.5t-30.5 31t-29 29.5t-20.5 20v145l433 260h38l315 -186l344 186h37l333 -178q8 19 16.5 39.5t16.5 42.5q16 45 16 80q0 38 -12 84t-41 82q-9 11 -13 16.5t-10 5.5q-4 0 -12 -2t-26 -4h-17q-2 0 -6 0.5t-9 1.5
q-48 4 -79 33.5t-31 74.5v3q0 66 46 100q50 35 108 35q80 0 140 -66q52 -58 77 -151q27 -93 27 -191z" />
    <glyph glyph-name="dmacron" unicode="&#x1786;" horiz-adv-x="1298" 
d="M259 311q-13 -5 -23 -12q-22 -13 -22 -61q0 -55 22 -68q11 -8 23 -10v151zM1113 1025h-6l-234 176l-184 -166h-48l-224 164l-129 -97q9 -12 26.5 -27t37.5 -31.5t39 -31.5t32 -27v-505q24 0 54.5 -3t67.5 -10q73 -12 160 -50q30 -13 64 -32.5t66 -42.5t59 -48t43 -48v511
q0 18 -8 29t-30 11q-31 0 -50 -30q-18 -29 -18 -48q0 -12 8 -12q10 0 24 -5.5t27.5 -19t23 -37.5t9.5 -60q0 -58 -24 -101q-22 -43 -74 -51h-15q-57 0 -86 44.5t-29 113.5q0 76 22 140.5t57.5 112t80.5 74.5t92 27h63q34 0 66 -29q31 -30 31 -64v-852h-177q-34 60 -69 101.5
t-69 71.5t-67 52.5t-64 37.5q-58 31 -118 38.5t-120 9.5v-247q0 -13 -11 -41q-12 -23 -42 -23h-101q-45 0 -81.5 20.5t-63 53t-40.5 72.5t-14 79q0 42 12 84t35 76.5t58 58t81 29.5v417l-30 27t-41 37.5t-39 36.5t-24 23v126l326 258h38l235 -180l180 180h36l216 -176
q13 -10 29 -10q19 0 36 12l46 -52z" />
    <glyph glyph-name="macron" 
d="M-1100 -503q-20 -5 -33.5 -19.5t-13.5 -49.5q0 -24 6.5 -38.5t16.5 -20.5q6 -7 17 -8q7 -1 7 136zM-431 -792q-7 12 -14 26t-18 26q-48 60 -102 106.5t-123 81.5q-21 9 -48 17t-55.5 14t-56.5 10t-50 6l-32 2v-213q0 -22 -18 -49q-20 -27 -50 -27h-48q-45 0 -86 20
t-71.5 50t-49 66t-18.5 69q0 78 39 132q38 55 132 62v132q0 39 -30 59q-16 9 -29 15t-22 10q110 98 133 98q2 0 2 -1q11 -5 23.5 -10t27.5 -13q25 -14 45 -35.5t20 -52.5v-196h17q4 0 8 -0.5t9 -1.5q24 0 56 -4.5t66.5 -12t68.5 -16.5t63 -18q54 -25 102 -54.5t81 -63.5
q11 -10 20.5 -21t17.5 -23v367q0 16 -12.5 30t-35.5 14q-26 0 -40 -20q-13 -22 -13 -38t10 -16q9 0 22 -5.5t26 -18t22 -32.5t9 -49q0 -45 -24.5 -70t-66.5 -25q-92 0 -92 120q0 60 19 109t49 84.5t67 55t73 19.5h40q17 0 37.5 -6.5t38 -19t29.5 -30.5t12 -40v-619h-180z
" />
    <glyph glyph-name="periodcentered" 
d="M-1100 -1127q-20 -5 -33.5 -19.5t-13.5 -50.5q0 -26 6.5 -37t16.5 -14q13 -3 17 -2q7 1 7 123zM-433 -1397q-7 12 -14 25t-18 25q-46 58 -101 97t-124 71q-19 12 -46.5 20.5t-56.5 14.5t-57 9.5t-48 5.5l-32 2v-196q0 -24 -16 -49q-18 -25 -47 -25h-49q-45 0 -86 16
t-71.5 42t-49 59.5t-18.5 68.5q0 78 37 133q35 54 130 65v82q0 43 -28 59q-25 16 -50 27q105 96 133 96q2 0 3 -1q11 -4 23.5 -9.5t27.5 -12.5q25 -16 43 -37t18 -51v-149h34q24 -2 55.5 -6.5t65.5 -11.5t68 -16.5t63 -20.5q54 -23 102 -54.5t81 -64.5q11 -10 20.5 -21
t17.5 -24v354q0 14 -12.5 30t-35.5 16q-14 0 -24 -9.5t-16.5 -23t-9.5 -27t-3 -22.5q0 -15 10 -15h22q10 -2 20 -4.5t18.5 -9.5t14 -20t5.5 -35q0 -43 -25 -64t-67 -21q-92 0 -92 122q0 58 19 98.5t49 65.5t67 36t73 11h40q17 0 38 -6t39 -18t30 -30t12 -41v-556h-182z" />
    <glyph glyph-name="Abreve" horiz-adv-x="1997" 
d="M257 311q-20 -5 -33.5 -20.5t-13.5 -52.5q0 -28 6.5 -44.5t15.5 -23.5q10 -8 18 -9q7 -1 7 150zM1784 1130h4v-1130h-170v1008l-423 206l-298 -177h-32l-324 171q-115 -66 -166 -97.5t-43 -39.5q8 -10 22 -24.5t28.5 -29t27.5 -27t19 -18.5v-492q48 0 119.5 -11.5
t156.5 -49.5q30 -13 64 -33.5t66 -44.5t59.5 -49.5t44.5 -49.5v551q0 17 -10 30.5t-32 13.5q-15 0 -27.5 -9.5t-21 -23t-13 -28.5t-4.5 -25q0 -14 8 -14q10 0 25 -6t28.5 -20.5t23.5 -38.5t10 -61q0 -118 -101 -129h-20q-54 0 -80 39.5t-26 109.5q0 76 22 140t58 110.5
t81.5 73t92.5 26.5h63q33 0 65 -27q30 -29 30 -62v-892h-181q-69 114 -137 173q-34 30 -67 52.5t-63 37.5q-58 31 -116 38.5t-118 9.5v-250q0 -17 -15 -39q-16 -22 -46 -22h-99q-45 0 -81.5 20.5t-63 53t-40.5 72.5t-14 79q0 42 12 84t36 76.5t59 58t80 29.5v436
q-10 8 -26 23t-32 31t-29.5 29t-17.5 18v130l433 258h38l318 -186l298 186h43z" />
    <glyph glyph-name="abreve" horiz-adv-x="1998" 
d="M257 311q-20 -5 -33.5 -20.5t-13.5 -52.5q0 -28 6.5 -44.5t15.5 -23.5q10 -8 18 -9q7 -1 7 150zM1845 1404q0 -35 -5.5 -71.5t-14 -72.5t-19.5 -69t-22 -61h4v-1130h-170v1008l-423 206l-298 -177h-32l-324 171q-115 -66 -166 -97.5t-43 -39.5q8 -10 22 -24.5t28.5 -29
t27.5 -27t19 -18.5v-492q48 0 119.5 -11.5t156.5 -49.5q30 -13 64 -33.5t66 -44.5t59.5 -49.5t44.5 -49.5v551q0 17 -10 30.5t-32 13.5q-15 0 -27.5 -9.5t-21 -23t-13 -28.5t-4.5 -25q0 -14 8 -14q10 0 25 -6t28.5 -20.5t23.5 -38.5t10 -61q0 -118 -101 -129h-20
q-54 0 -80 39.5t-26 109.5q0 76 22 140t58 110.5t81.5 73t92.5 26.5h63q33 0 65 -27q30 -29 30 -62v-892h-181q-69 114 -137 173q-34 30 -67 52.5t-63 37.5q-58 31 -116 38.5t-118 9.5v-250q0 -17 -15 -39q-16 -22 -46 -22h-99q-45 0 -81.5 20.5t-63 53t-40.5 72.5t-14 79
q0 42 12 84t36 76.5t59 58t80 29.5v436q-10 8 -26 23t-32 31t-29.5 29t-17.5 18v130l433 258h38l318 -186l298 186h43l374 -180q8 20 15.5 41t15.5 43q17 51 17 80q0 38 -12.5 83t-39.5 81q-11 11 -14.5 16.5t-9.5 5.5q-4 0 -12 -2t-26 -4h-16q-5 0 -9 0.5t-8 1.5
q-45 4 -77 33.5t-32 74.5v3q0 65 49 99q50 35 109 35q76 0 136 -65q51 -57 77 -150q26 -96 26 -190z" />
    <glyph glyph-name="Aogonek" unicode="&#x1787;" horiz-adv-x="1371" 
d="M1164 1338q0 -72 -20.5 -133.5t-58 -107t-89 -71t-113.5 -25.5q-78 0 -180 57l-230 141l-132 -92q35 -5 61.5 -21t44 -36.5t26.5 -43t9 -40.5v-760l253 255l256 -255v667q0 23 21 37q22 13 32 15h52q16 0 42 -20q24 -20 24 -30v-875h-181l-254 252l-250 -252h-166v913
q0 16 -6 27t-16 17.5t-23 9.5t-26 3q-37 0 -54 -11q-7 -5 -14.5 -11t-15.5 -11l-86 119l433 341h36q87 -58 150.5 -101.5t111 -73.5t83.5 -46.5t69 -20.5q16 -2 21 2q21 4 35.5 15t23.5 25t13 30.5t4 32.5q0 28 -11.5 47t-24.5 19q-11 0 -30 -4.5t-47 -4.5q-5 0 -9 0.5
t-9 1.5q-48 5 -72 34.5t-24 74.5v4q0 65 45 98q46 34 104 34h4q48 0 83 -19t58.5 -50.5t35 -72.5t11.5 -84z" />
    <glyph glyph-name="aogonek" 
d="M-13 -589l-92 13v16q0 6 -4 13q-4 35 -23 73t-45 70q-32 40 -72 57v-439h-184l-255 224l-256 -224h-156v613q0 10 8 23t21 25t29.5 20t33.5 8l42 -2q40 -20 38 -76q-1 -28 -1.5 -45t-0.5 -22v-360l248 209l261 -217v324q-23 0 -64 11q-33 10 -43 46q-4 11 -4 31
q0 22 10.5 41t28.5 32t42.5 20.5t52.5 7.5q58 0 114.5 -29t110.5 -72q40 -35 73 -75t58.5 -81.5t42.5 -81.5t25 -76q2 -8 3 -15t1 -18z" />
    <glyph glyph-name="Dcaron" 
d="M-15 -1267l-92 12v15q0 19 -6 41t-15.5 44.5t-22.5 43t-28 37.5q-30 40 -72 63v-390h-182l-255 236l-256 -236h-156v571q0 10 8 24t21 27t29.5 22t33.5 9l42 -4q36 -19 38 -60q2 -40 0 -59.5t-2 -30.5v-343l248 228l261 -242v311q-35 0 -64 13q-33 11 -43 48q-4 11 -4 31
q0 25 10.5 45t28.5 34t42.5 21.5t52.5 7.5q58 0 113.5 -30t109.5 -78q40 -35 73 -77.5t58.5 -86.5t42.5 -87.5t25 -80.5q4 -11 4 -33z" />
    <glyph glyph-name="dcaron" horiz-adv-x="2048" 
d="M1826 1147l15 -19v-1128h-169v1008l-340 206l-221 -69q-17 -26 -30 -45q-38 -48 -89.5 -73.5t-108.5 -25.5q-78 0 -180 57l-230 141l-132 -92q36 -5 63 -21t44.5 -36.5t26.5 -43t9 -40.5v-760l251 255l258 -255v669q0 24 21 36q12 7 20 10t12 4h48q18 0 44 -15t26 -35
v-875h-183l-254 252l-247 -252h-166v913q0 32 -23.5 45.5t-50.5 13.5q-34 0 -52 -12.5t-32 -22.5l-86 119l433 341h36q84 -57 144.5 -99t108.5 -72q90 -60 136 -62h25q5 0 10.5 0.5t10.5 1.5q42 10 59 36.5t17 57.5q0 28 -11.5 47t-24.5 19q-11 0 -27.5 -4.5t-43.5 -4.5
q-8 0 -13.5 0.5t-10.5 1.5q-48 5 -75 34.5t-27 74.5v4q0 65 48 98q49 34 107 34h4q48 0 83 -19t58.5 -50.5t35 -72.5t11.5 -84q0 -10 -0.5 -19.5t-1.5 -20.5l222 100h38z" />
    <glyph glyph-name="Dslash" horiz-adv-x="2047" 
d="M1891 1416q0 -25 -7.5 -62t-18 -76t-21.5 -74.5t-18 -56.5l15 -19v-1128h-169v1008l-340 206l-221 -69q-17 -26 -30 -45q-38 -48 -89.5 -73.5t-108.5 -25.5q-78 0 -180 57l-230 141l-132 -92q36 -5 63 -21t44.5 -36.5t26.5 -43t9 -40.5v-760l251 255l258 -255v669
q0 24 21 36q12 7 20 10t12 4h48q18 0 44 -15t26 -35v-875h-183l-254 252l-247 -252h-166v913q0 32 -23.5 45.5t-50.5 13.5q-34 0 -52 -12.5t-32 -22.5l-86 119l433 341h36q84 -57 144.5 -99t108.5 -72q90 -60 136 -62h25q5 0 10.5 0.5t10.5 1.5q42 10 59 36.5t17 57.5
q0 28 -11.5 47t-24.5 19q-11 0 -27.5 -4.5t-43.5 -4.5q-8 0 -13.5 0.5t-10.5 1.5q-48 5 -75 34.5t-27 74.5v4q0 65 48 98q49 34 107 34h4q48 0 83 -19t58.5 -50.5t35 -72.5t11.5 -84q0 -10 -0.5 -19.5t-1.5 -20.5l222 100h38l282 -174q8 19 16.5 42.5t15 47.5t10.5 45t4 36
q0 55 -12.5 92t-37.5 72q-10 17 -22 21t-43 -4h-13q-4 0 -8.5 0.5t-9.5 1.5q-48 4 -75 32t-27 76v4q0 63 44 99q44 35 104 35q79 0 138 -65q51 -57 77 -152q26 -96 26 -191z" />
    <glyph glyph-name="Eogonek" unicode="&#x1788;" horiz-adv-x="2496" 
d="M2353 1063q-11 0 -29 16t-44.5 35.5t-62 35.5t-80.5 16q-17 0 -32.5 -9.5t-29 -23t-24 -28t-16.5 -24.5q17 2 32.5 3.5t29.5 1.5q96 0 155 -51q56 -51 56 -118v-723q0 -106 -53 -150q-56 -44 -136 -44h-396q-64 0 -101 22q-17 11 -35 29t-37 41q-17 -20 -32 -37
t-32.5 -29t-38 -19t-47.5 -7h-424q-54 0 -91.5 16t-61 43t-34 63t-10.5 76v892q0 49 -22 80.5t-55.5 49.5t-74 25t-76.5 7h-71q-36 0 -73 -9t-68 -28.5t-50.5 -51.5t-19.5 -77v-947q28 0 48 16.5t33 38.5t19 44.5t6 35.5q0 12 -5 12q-11 0 -26 5.5t-28.5 20t-23.5 38.5
t-10 62q0 54 11.5 83.5t27.5 44t32 17t24 2.5h19q26 0 47.5 -11.5t37 -32.5t24 -50t8.5 -63q0 -77 -27.5 -149t-69.5 -128.5t-93 -90.5t-98 -34h-37q-16 0 -32 6t-28.5 17.5t-20.5 28t-8 36.5v1038q0 42 16 78.5t43 66.5t63 54t75 40t79.5 24.5t76.5 8.5h118q20 0 46 -3
t58 -8t63 -15t63 -26q61 -30 106 -82q45 -51 45 -136v-852q0 -64 38.5 -99.5t129.5 -35.5h191q69 0 108.5 35t39.5 104v535q0 66 -38 92q-36 27 -86 27q-21 0 -38 -5q-11 -3 -21 16q-13 21 -26.5 46t-38.5 69l274 338h36l197 -134q16 -10 33 -10q18 0 34 10l36 -52
l-146 -149q-10 0 -28.5 16t-45.5 35.5t-62.5 35.5t-79.5 16q-15 0 -30.5 -9.5t-29 -23t-24.5 -28t-17 -24.5q15 2 30 3.5t31 1.5q96 0 153 -51t57 -118v-635q0 -35 15 -62t39 -45t54 -27t61 -9h194q26 0 52 3t47 16.5t34 41t13 76.5v541q0 66 -27 93t-75 27q-18 0 -47 -8
q-21 -6 -37 18q-11 19 -24.5 45t-37.5 68l272 338h38l198 -136q8 -8 29 -8q23 0 36 10l37 -52z" />
    <glyph glyph-name="eogonek" horiz-adv-x="678" 
d="M477 1065q-11 0 -29.5 16t-45.5 35.5t-62.5 35.5t-80.5 16q-15 0 -30 -10t-28 -24t-23.5 -28t-17.5 -23q16 2 31.5 3.5t29.5 1.5q94 0 153 -51q55 -52 55 -118v-1527q0 -109 -52 -152q-53 -44 -131 -44h-188q-67 0 -106 18t-67 58q-32 -40 -65 -58t-85 -18h-191
q-55 0 -93 16.5t-61 44t-33.5 63.5t-10.5 76v250q0 48 -36 77q-38 26 -74 26h-32q-49 0 -93 -23q-41 -23 -41 -80v-306q5 -1 9.5 -1.5t9.5 -0.5q40 0 58 31q19 25 19 51q0 16 -8 16q-9 0 -21.5 2.5t-24.5 12.5t-20 30.5t-8 57.5q0 48 11.5 75.5t26 40.5t28 16t18.5 3h16
q96 0 96 -145q0 -75 -24 -136.5t-62 -105t-85 -67.5t-93 -24h-40q-16 0 -30 1.5t-24.5 7.5t-17 17.5t-6.5 31.5v422q0 71 22.5 115.5t57 69t77 33.5t81.5 9h152q40 0 81 -10t74 -36t54 -70.5t21 -112.5v-226q0 -38 5.5 -60t17.5 -33t32 -14t50 -3h57q69 1 92 27q24 22 24 92
v63q0 9 -12 27q-14 17 -51 17h-17q-2 0 -5.5 -0.5t-8.5 -1.5q-6 -1 -18 28q-9 13 -16.5 27.5t-13.5 26.5t-9.5 20t-4.5 10l207 248h31l140 -103q11 -8 24 -8t26 10l28 -42l-111 -114h-10q-11 10 -21 19t-21 17q-20 15 -46 26.5t-58 11.5q-23 0 -45 -25q-11 -14 -19.5 -23.5
t-13.5 -16.5q11 4 24 4h25q37 0 68 -9.5t53 -23t34 -27.5t12 -22v-139q0 -72 31 -93q28 -24 92 -24h64q54 0 79.5 35t25.5 95v1347q0 66 -25 93t-76 27q-15 2 -26.5 -1.5t-21.5 -5.5t-18 1t-16 18q-12 19 -26 44t-38 67l274 338h38l195 -134q13 -10 32 -10q17 0 34 12
l38 -54z" />
    <glyph glyph-name="Ecaron" horiz-adv-x="678" 
d="M475 1065q-11 0 -29.5 16t-45 35.5t-62.5 35.5t-81 16q-15 0 -30 -10t-28 -24t-23.5 -28t-17.5 -23q16 2 31.5 3.5t29.5 1.5q95 0 154 -51q56 -51 56 -118v-2135q0 -108 -53 -153q-50 -45 -132 -45h-170q-34 0 -60 2t-46 6q-40 7 -67 48q-33 -41 -64 -48q-17 -4 -38.5 -6
t-47.5 -2h-210q-54 0 -92 17t-61 45.5t-33.5 64.5t-10.5 75v260q0 8 -29 37q-27 27 -67 27h-68q-50 0 -81 -22q-29 -24 -29 -42v-315q4 -3 17 -3q40 0 58 30q19 28 19 52q0 16 -8 16q-9 0 -21.5 4t-24.5 16t-20 34.5t-8 59.5q0 48 11.5 75t26 40t28 16t18.5 3h16
q96 0 96 -144q0 -75 -24 -138.5t-62 -109.5t-85 -72t-92 -26h-40q-33 0 -54 26t-21 68v398q0 30 23 74q21 42 55 64q35 22 75.5 29t80.5 7h152q42 0 82 -8t73 -31q31 -23 54 -66q21 -44 21 -71v-236q0 -38 5.5 -60t18 -33t32.5 -14t49 -3h74q70 3 94 27q22 25 22 93v52
q0 -32 -11 -12q-13 16 -51 16h-18q-1 0 -4 -0.5t-8 -1.5q-5 -2 -20 28q-16 29 -29 54t-15 29l208 237h30l141 -90q6 -4 12 -2t12 2q3 0 10.5 -2t15.5 2h28l-112 -154h-9q-20 19 -42 36q-20 13 -45.5 25.5t-58.5 12.5q-22 0 -45 -26q-11 -12 -19 -22.5t-14 -18.5q11 4 24 4
h24q38 0 69 -9t53 -22t34 -27t12 -24v-87q0 -71 29 -94q32 -23 94 -23h46q54 0 80.5 26.5t26.5 86.5v1971q0 66 -26 93t-77 27q-15 2 -26.5 -1.5t-21.5 -5.5t-18 1t-16 18q-13 19 -26.5 44t-37.5 67l274 338h38l195 -134q13 -10 32 -10q17 0 34 12l38 -54z" />
    <glyph glyph-name="ecaron" horiz-adv-x="3192" 
d="M2992 0h-170v1008l-337 206l-272 -135l95 -100v-785q0 -107 -52 -150q-53 -44 -133 -44h-402q-64 0 -101 22q-17 11 -35 29t-37 41q-17 -20 -32 -37t-32.5 -29t-38 -19t-47.5 -7h-417q-109 0 -154 59q-46 61 -46 139v892q0 49 -22 80.5t-55 49.5t-73 25t-76 7h-71
q-36 0 -74 -9t-69.5 -28.5t-51.5 -51.5t-20 -77v-948q27 0 47.5 14.5t34.5 35t21 42t7 35.5q0 19 -9 19q-11 0 -26 5.5t-28.5 20t-23.5 38.5t-10 62q0 54 11.5 83.5t27.5 44t32 17t24 2.5h19q26 0 47.5 -11.5t37 -32.5t24 -50t8.5 -63q0 -76 -27 -148t-68 -128t-90.5 -90
t-95.5 -34h-40q-31 0 -62 22q-31 24 -31 64v1044q0 63 35.5 112.5t89 84t116 53t115.5 18.5h118q20 0 46 -3t58 -8t63 -15t62 -26q61 -29 105 -82t44 -136v-852q0 -32 7.5 -57t25.5 -42.5t48 -26.5t75 -9h201q69 0 109.5 35t40.5 104v535q0 66 -29.5 92.5t-80.5 26.5
q-14 0 -25 -1.5t-21 -3.5q-18 -4 -29 16q-13 21 -26.5 46t-38.5 69l274 338h35l196 -134q16 -10 33 -10q18 0 34 10l17 -52l-127 -149q-10 0 -28 16t-45 35.5t-62 35.5t-79 16q-15 0 -30.5 -9.5t-29 -23t-24.5 -28t-17 -24.5q15 2 30 3.5t31 1.5q97 0 154 -51
q58 -52 58 -118v-635q0 -70 47 -106q46 -37 113 -37h207q25 0 50.5 3t45.5 16.5t33 41t13 76.5v647l-102 91v124l502 259h36l419 -269v-1128z" />
    <glyph glyph-name="Lacute" horiz-adv-x="1298" 
d="M1111 0h-172v1008l-342 206l-271 -135l103 -109v-1574q0 -109 -54 -154q-52 -46 -133 -46h-181q-66 0 -105 19t-67 61q-32 -40 -65 -60t-85 -20h-185q-56 0 -93.5 17t-61 45.5t-33.5 65.5t-10 76v274q0 31 -8.5 51.5t-25 31.5t-41 15.5t-55.5 4.5h-20q-52 0 -95 -22
q-41 -24 -41 -81v-330q5 -1 10.5 -1.5t10.5 -0.5q40 0 58 30q19 28 19 52q0 16 -8 16q-10 0 -22.5 4t-24 16t-19 34t-7.5 58q0 48 11 73t25.5 36.5t28.5 13t19 1.5h15q48 0 72 -32.5t24 -102.5q0 -75 -24 -138t-62 -109t-85 -72t-93 -26h-40q-32 0 -55 27.5t-23 68.5v393
q0 73 28 116.5t70 66t90 29t88 6.5h74q41 0 89.5 -9t90.5 -33t70 -67t28 -110v-220q0 -63 18 -92.5t73 -29.5h59q67 1 93 27q25 22 25 93v66q0 11 -10 27t-49 16h-15q-6 0 -11.5 -3t-11 -4t-10.5 4t-11 20q-10 10 -20.5 25t-19.5 29.5t-15.5 26t-7.5 13.5l236 240h31
l140 -95q11 -8 24 -8t26 10l27 -42l-110 -113h-10q-11 10 -21 18.5t-21 16.5q-20 15 -46 26.5t-58 11.5q-23 0 -45 -25q-11 -14 -19 -24t-13 -16q12 3 23 3h25q36 0 66.5 -9.5t53 -22t35 -26t12.5 -21.5v-144q0 -71 23 -94q21 -24 86 -24h59q27 0 49 2.5t38 15.5t24.5 40.5
t8.5 77.5v1435l-103 99v124l492 259h37l426 -269v-1128z" />
    <glyph glyph-name="lacute" horiz-adv-x="1297" 
d="M1111 0h-172v1008l-342 206l-271 -135l103 -109v-2190q0 -109 -54 -154t-133 -45h-181q-66 0 -105 19t-67 61q-32 -40 -65 -60t-85 -20h-185q-56 0 -93.5 17t-61 45.5t-33.5 65t-10 75.5v274q0 32 -8.5 52.5t-25 32t-41 15.5t-55.5 4h-20q-51 0 -95 -23q-41 -23 -41 -81
v-329q5 -1 10.5 -1.5t10.5 -0.5q40 0 58 30q19 25 19 52q0 15 -8 15q-10 0 -22.5 4t-24 16t-19 34t-7.5 58q0 48 11 73.5t25.5 36.5t28.5 12.5t19 1.5h15q48 0 72 -32t24 -102q0 -75 -24 -138.5t-62 -109t-85 -71.5t-93 -26h-40q-32 0 -55 27t-23 68v394q0 73 28 116.5
t70 66t90 29t88 6.5h74q41 0 89.5 -9t90.5 -33.5t70 -67.5t28 -110v-219q0 -63 18 -92.5t73 -29.5h59q68 1 93 26q25 24 25 94v65q0 14 -10 27q-11 17 -49 17h-15q-6 0 -11.5 -3.5t-11 -4t-10.5 4t-11 20.5q-10 9 -20.5 24t-20 30t-15.5 26t-7 13l236 240h31l140 -94
q11 -8 24 -8q11 0 26 9l27 -41l-110 -114h-10q-11 10 -21 19t-21 17q-20 14 -46 26t-58 12q-22 0 -45 -26q-11 -13 -19 -23t-13 -17q9 4 23 4h25q36 0 66.5 -9.5t53 -22t35 -26t12.5 -22.5v-143q0 -72 23 -95q21 -23 86 -23h59q27 0 49 2.5t38 15.5t24.5 40t8.5 77v2051
l-103 99v124l492 259h37l426 -269v-1128z" />
    <glyph glyph-name="Lcaron" horiz-adv-x="3192" 
d="M3050 1404q0 -75 -22 -140q-11 -36 -21 -67t-21 -57l6 -12v-1128h-170v1008l-337 206l-272 -135l95 -100v-785q0 -107 -52 -150q-53 -44 -133 -44h-406q-64 0 -101 22q-17 11 -35 29t-37 41q-17 -20 -32.5 -37t-32.5 -29t-37.5 -19t-46.5 -7h-414q-108 0 -155 59
q-47 62 -47 139v892q0 49 -22 80.5t-55 49.5t-72.5 25t-74.5 7h-71q-36 0 -74 -9t-69.5 -28.5t-51.5 -51.5t-20 -77v-947q27 0 47.5 15t34.5 35.5t21 42t7 35.5q0 19 -9 19q-11 0 -26 5.5t-28.5 20t-23.5 38.5t-10 62q0 54 11.5 83.5t27.5 44t32 17t24 2.5h19
q26 0 47.5 -11.5t37 -32.5t24 -50t8.5 -63q0 -77 -27 -149t-68 -128.5t-90.5 -90.5t-95.5 -34h-40q-30 0 -62 23q-31 25 -31 65v1042q0 63 35.5 112.5t89 84t116 53t115.5 18.5h118q20 0 46 -3t58 -8t63 -15t62 -26q61 -29 105 -82t44 -136v-852q0 -64 38.5 -99.5
t129.5 -35.5h187q70 0 111 36.5t41 106.5v526q0 68 -28 96t-75 28q-14 0 -26 -1.5t-25 -3.5q-23 -3 -33 16q-13 21 -26.5 46t-38.5 69l274 338h36l197 -134q16 -10 33 -10q18 0 34 10l17 -52l-127 -149q-10 0 -28.5 16t-45.5 35.5t-62.5 35.5t-79.5 16q-17 0 -32 -9.5
t-28.5 -23t-24 -28t-17.5 -24.5q16 2 31.5 3.5t30.5 1.5q98 0 155 -51q59 -53 59 -118v-635q0 -70 46 -106q43 -37 112 -37h209q25 0 50.5 3t45.5 16.5t33 41t13 76.5v647l-102 91v124l502 259h36l287 -177q8 19 16 39.5t16 42.5q16 45 16 80q0 38 -12 83t-40 83
q-6 9 -8.5 13.5t-7.5 5.5t-15 0t-31 -3h-32q-48 6 -73 35.5t-25 74.5v3q0 32 11.5 57t31 42.5t45 26.5t54.5 9q79 0 138 -66q54 -58 79 -152q27 -95 27 -190z" />
    <glyph glyph-name="lcaron" horiz-adv-x="1298" 
d="M1189 1444q0 -42 -8 -86.5t-20 -86.5t-25.5 -79t-24.5 -64v-1128h-172v1008l-342 206l-271 -135l103 -109v-1550q0 -108 -54 -156q-53 -48 -133 -48h-178q-34 0 -59.5 5.5t-46 16.5t-36.5 26.5t-31 35.5q-32 -41 -64.5 -62.5t-85.5 -21.5h-175q-55 0 -92.5 17.5t-61 47
t-34 67t-10.5 76.5v229q0 32 -8.5 52.5t-25 32t-41 16t-55.5 4.5h-32q-51 0 -95 -23q-41 -23 -41 -82v-285q5 -1 10.5 -1.5t10.5 -0.5q40 0 58 30q19 28 19 52q0 16 -8 16q-10 0 -22.5 3t-24 14.5t-19 33t-7.5 58.5q0 48 11 74.5t25.5 39t28.5 14.5t19 2h15q96 0 96 -139
q0 -76 -24 -139.5t-62 -110t-85 -72.5t-93 -26h-40q-16 0 -30.5 7.5t-25 21t-16.5 32t-6 39.5v368q0 73 28 116.5t70 66t90 29.5t88 7h86q41 0 89.5 -9t90 -33.5t69.5 -67.5t28 -111v-204q0 -61 17 -87q16 -25 72 -25h52q68 1 93 26q25 22 25 94v20q0 14 -10 27
q-11 17 -49 17h-15q-2 0 -6 -0.5t-9 -1.5q-7 -1 -20 27q-15 30 -28.5 55t-14.5 29l207 242h30l141 -96q10 -7 24 -7q11 0 26 9l27 -42l-110 -114h-10q-20 22 -42 36q-19 14 -45.5 26t-57.5 12q-24 0 -46 -25q-23 -26 -32 -41q9 4 23 4h24q37 0 67.5 -9t53 -22t35 -26.5
t12.5 -22.5v-97q0 -73 31 -95q32 -23 95 -23h35q26 0 49 2.5t40 15.5t26.5 40.5t9.5 77.5v1411l-103 99v124l492 260h37l296 -184q0 3 4 10q8 16 16.5 39t18.5 54q21 58 21 105q0 19 -1.5 40.5t-6.5 43.5t-13.5 43t-22.5 39q-10 11 -14 16.5t-11 5.5q-4 0 -11.5 -2t-26.5 -4
h-13q-4 0 -8.5 0.5t-9.5 1.5q-48 4 -73 34t-25 73v4q0 66 37.5 100t98.5 34q46 0 90 -16q50 -16 80 -49q51 -58 64 -152q7 -46 10.5 -92.5t3.5 -97.5z" />
    <glyph glyph-name="Ldot" horiz-adv-x="1298" 
d="M1189 1444q0 -42 -8 -86.5t-20 -86.5t-25.5 -79t-24.5 -64v-1128h-172v1008l-342 206l-271 -135l103 -109v-2154q0 -110 -54 -156q-53 -48 -133 -48h-178q-34 0 -59.5 5t-46 15.5t-36.5 26.5t-31 37q-32 -41 -64.5 -62.5t-85.5 -21.5h-175q-55 0 -92.5 17.5t-61 46.5
t-34 66.5t-10.5 76.5v230q0 32 -8.5 52.5t-25 32t-41 15.5t-55.5 4h-32q-52 0 -95 -22q-41 -24 -41 -82v-286q5 -1 10.5 -1.5t10.5 -0.5q40 0 58 30q19 28 19 52q0 16 -8 16q-10 0 -22.5 3.5t-24 15t-19 33t-7.5 58.5q0 48 11 74t25.5 38.5t28.5 14.5t19 2h15q96 0 96 -139
q0 -76 -24 -139.5t-62 -109.5t-85 -72t-93 -26h-40q-16 0 -30.5 7.5t-25 21t-16.5 31.5t-6 39v368q0 74 28 117.5t70 66t90 29t88 6.5h86q41 0 89.5 -9t90 -33t69.5 -67t28 -112v-204q0 -61 17 -87q16 -25 72 -25h52q68 1 93 26q25 24 25 94v20q0 12 -10 28t-49 16h-15
q-2 0 -6 -0.5t-9 -1.5q-6 -2 -20 28q-8 15 -15.5 29t-13.5 25.5t-10 19.5t-4 10l207 241h30l141 -95q11 -8 24 -8t26 10l27 -42l-110 -114h-10q-20 19 -42 36q-19 13 -45.5 25.5t-57.5 12.5q-23 0 -46 -26q-11 -13 -19 -22.5t-13 -17.5q12 3 23 3h24q37 0 67.5 -9t53 -21.5
t35 -26.5t12.5 -23v-97q0 -73 31 -95q32 -23 95 -23h35q26 0 49 2.5t40 15.5t26.5 40.5t9.5 77.5v2016l-103 99v124l492 260h37l296 -184q0 3 4 10q8 16 16.5 39t18.5 54q21 58 21 105q0 19 -1.5 40.5t-6.5 43.5t-13.5 43t-22.5 39q-10 11 -14 16.5t-11 5.5q-4 0 -11.5 -2
t-26.5 -4h-13q-4 0 -8.5 0.5t-9.5 1.5q-48 4 -73 34t-25 73v4q0 66 37.5 100t98.5 34q46 0 90 -16q50 -16 80 -49q51 -58 64 -152q7 -46 10.5 -92.5t3.5 -97.5z" />
    <glyph glyph-name="ldot" unicode="&#x1789;" horiz-adv-x="1904" 
d="M1723 -224q0 -91 -36.5 -174.5t-100.5 -149.5q-76 -76 -183 -122.5t-235 -48.5q-77 0 -162 17q-85 21 -146 57t-106 79.5t-79 91.5t-65 92.5t-64 82t-77 61.5q-13 5 -21.5 10.5t-17.5 10.5t-21.5 8t-33.5 3h-18.5t-26.5 -1q-16 -1 -27 -2t-19 -3q-10 -2 -30 -7t-48 -14
l-14 46l4 3q10 8 32 21t52.5 25.5t69 21.5t81.5 9h7q109 -2 192.5 -29.5t134.5 -75.5q25 -21 45.5 -45.5t37.5 -52.5q17 -27 36 -54t41 -53q40 -53 102 -96q30 -22 70 -39t94 -30l9 -3l6 -2t7.5 -1h12.5q34 0 76.5 8t75.5 25q24 12 44.5 30t39.5 41q36 45 36 84q0 22 -14 36
q-28 22 -47 61t-19 79q0 64 45 108q45 45 109 45q63 0 107 -45q44 -47 44 -108zM1556 0v999l-264 207l-244 -158v-1048h-171v1107l-124 94l-182 -166h-49l-181 167l-95 -97q12 0 32.5 -12.5t40.5 -30.5t34.5 -38t14.5 -35v-846q26 0 46.5 15t34.5 35.5t21 42.5t7 36
q0 18 -8 18q-10 0 -24.5 5.5t-28 20t-23.5 38.5t-10 60q0 54 12 83.5t27.5 44t31 17t23.5 2.5h7q58 0 93.5 -40.5t35.5 -116.5q-1 -76 -27.5 -148.5t-67 -129.5t-89.5 -91.5t-95 -34.5h-40q-35 0 -65 24q-31 25 -31 66v821q0 34 -29 69q-30 34 -70 34v112l267 272h40
l195 -180l180 180h38l229 -176l288 176h50l339 -272v-1126h-169z" />
    <glyph glyph-name="Nacute" horiz-adv-x="1915" 
d="M1556 0v999l-264 207l-244 -158v-1048h-171v1107l-124 94l-182 -166h-49l-181 167l-95 -97q12 0 32.5 -12.5t40.5 -30.5t34.5 -38t14.5 -35v-846q26 0 46.5 15t34.5 35.5t21 42.5t7 36q0 18 -8 18q-10 0 -24.5 5.5t-28 20t-23.5 38.5t-10 60q0 54 12 83.5t27.5 44t31 17
t23.5 2.5h7q58 0 93.5 -40.5t35.5 -116.5q-1 -76 -27.5 -148.5t-67 -129.5t-89.5 -91.5t-95 -34.5h-40q-35 0 -65 24q-31 25 -31 66v821q0 34 -29 69q-30 34 -70 34v112l267 272h40l195 -180l180 180h38l229 -176l288 176h50l339 -272v-1126h-169z" />
    <glyph glyph-name="nacute" 
d="M-246 -328q0 -46 -5 -85t-16 -74t-28 -67.5t-40 -65.5q-54 -79 -129 -113.5t-166 -38.5q-28 0 -56 4t-58 14q-90 31 -144 87q-27 29 -49.5 59t-41.5 63q-18 33 -35 64t-33 61q-31 60 -79 96q-35 29 -86 29q-21 0 -46 -6q-22 -4 -40 -12l-21 50q7 7 21 20.5t35.5 27
t49.5 24t62 10.5h4q76 -4 124.5 -30.5t82.5 -74.5q35 -46 64 -97t63.5 -96.5t79.5 -80.5t113 -50q12 -4 37 -4q16 0 34 2t35 5.5t32 9.5t26 14q18 15 26.5 35t8.5 39q0 29 -15.5 50t-45.5 21h-2q-23 21 -42 54t-19 71q0 46 14.5 76t36 47.5t48 24.5t50.5 7h15q22 -2 46 -17
t43.5 -38t32.5 -53t13 -62z" />
    <glyph glyph-name="Ncaron" 
d="M-246 -940q0 -92 -21 -165t-68 -138q-54 -78 -129 -112.5t-166 -38.5q-28 0 -56 3t-58 13q-90 31 -144 88q-51 52 -91 122q-18 32 -35 63t-33 61q-31 60 -79 96q-35 29 -86 29q-21 0 -46 -6q-10 -2 -20 -4.5t-20 -6.5l-21 50q7 6 21.5 19.5t35.5 27t48.5 24t62.5 10.5h4
q76 -3 124.5 -30t82.5 -75q35 -45 64 -95.5t63.5 -96.5t80 -81.5t112.5 -50.5q12 -4 37 -4q16 0 34 2t35 6t32 10t26 15q18 13 26.5 33t8.5 40q0 28 -15.5 49t-45.5 21h-2q-12 12 -23 27.5t-19.5 33.5t-13.5 37.5t-5 38.5q0 46 14.5 76.5t36 48.5t48 25t50.5 7h15
q22 -2 46 -17t43.5 -38.5t32.5 -54t13 -62.5z" />
    <glyph glyph-name="ncaron" 
d="M-263 -568q0 -40 -23 -72t-61 -57t-88 -43t-103.5 -29.5t-107.5 -17t-100 -5.5h-10q-100 0 -174 12.5t-132 33t-104 45t-89.5 49t-89 46t-102.5 34.5q-53 12 -120 12q-16 0 -32.5 -1t-35.5 -3h-44l-14 17q8 2 25 7t43 13q49 15 140 15h8q54 -1 97.5 -5.5t79.5 -11.5
t65 -15.5t54 -17.5q32 -13 59 -28t55 -30t59 -30.5t71 -29t91.5 -25t119.5 -19.5q16 -2 30 -3t27 -1q55 0 101 10t79 24t51.5 30t18.5 28q0 6 -12 11q-28 13 -39.5 27.5t-11.5 29.5q0 24 24 50q24 24 88 24q63 0 86 -24q21 -26 21 -50zM-249 -488h-172v215l-269 94l-194 -61
v-248h-172v263l-129 50l-170 -71h-48l-180 73l-90 -38q14 0 32 -4.5t33.5 -11t26 -14t10.5 -14.5v-176q46 0 66 13.5t20 23.5q0 9 -12 9q-23 2 -41 9q-21 6 -21 35q0 24 12 38.5t27 22.5t28 10.5t15 2.5q58 0 75 -23q15 -26 15 -55q0 -30 -17.5 -56t-47.5 -45.5t-70.5 -30.5
t-86.5 -11h-40q-26 0 -61 11q-30 9 -30 27v166q0 7 -0.5 13.5t-1.5 13.5q-1 13 -30 13v46l213 103h40l196 -74l168 74h38l231 -86l254 86h38l345 -118v-275z" />
    <glyph glyph-name="Odblacute" 
d="M-271 -1162q0 -37 -23 -66.5t-61 -53t-87.5 -40.5t-103.5 -28t-108 -16.5t-100 -5.5h-10q-100 0 -174 12t-132 31.5t-104 43t-89.5 46.5t-89 42.5t-102.5 30.5q-47 10 -120 10h-33t-35 -2h-44l-13 16q15 7 66 20.5t141 13.5h8q107 -2 176.5 -16t119.5 -32q48 -18 87 -40
t86.5 -43.5t113.5 -39.5t168 -28q16 -2 30 -3.5t28 -1.5q54 0 100 9.5t79 23t51.5 28.5t18.5 26q0 6 -11 11q-29 10 -40.5 24t-11.5 28q0 12 5.5 24t18.5 22t34 16t53 6q64 0 87 -21q21 -23 21 -47zM-249 -1082h-172v221l-267 80l-183 -69v-232h-173v238l-130 57l-179 -68
h-48l-180 70l-90 -36q15 0 35 -3t38 -8.5t30.5 -13t12.5 -15.5v-167q46 0 66 12t20 22q0 8 -12 8q-11 1 -22 3.5t-20 7.5t-14.5 13.5t-5.5 22.5q0 23 12 37t27 21t28 9t15 2q59 0 76 -21q14 -23 14 -52q0 -27 -17 -52t-47 -44.5t-70.5 -31t-87.5 -11.5h-40q-38 0 -61 10
q-31 9 -31 24v160q0 14 -8.5 26t-37.5 12v44l214 98h40l196 -73l178 73h38l231 -88l244 88h38l343 -96v-278z" />
    <glyph glyph-name="odblacute" horiz-adv-x="2596" 
d="M1713 -224q0 -91 -36.5 -174.5t-100.5 -149.5q-76 -76 -183.5 -122.5t-233.5 -48.5q-77 0 -162 17q-86 21 -147 57t-106.5 79.5t-79 91.5t-64.5 92.5t-64 82t-77 61.5q-14 8 -24 13l-18 9q-21 8 -53 8h-20.5t-25.5 -1t-25 -2t-21 -3q-13 -2 -32 -6.5t-44 -12.5l-15 46
l4 3q11 8 32.5 21t51.5 25.5t68 21.5t82 9h6q111 -2 171 -30q58 -27 111 -75q33 -30 62.5 -64t59.5 -69t63 -70t74.5 -66.5t93.5 -57.5t120 -43q6 -2 9.5 -3.5t6.5 -2t6.5 -0.5h11.5q35 0 78.5 7.5t75.5 25.5q25 12 45.5 30t38.5 41q36 45 36 84q0 22 -14 36q-28 22 -47 61
t-19 79q0 64 45 108q45 45 109 45t108 -45q43 -43 43 -108zM2233 0v997l-255 207l-255 -205v-999h-169v1003l-260 198l-248 -197v-1004h-171v1044l-138 157l-180 -166h-50l-166 167l-95 -97q12 0 32 -12t39.5 -29.5t34 -37t14.5 -35.5v-850q26 0 46.5 15t35 35.5t22 42
t7.5 35.5q0 19 -8 19q-10 0 -25 5.5t-29 20t-24 38.5t-10 60q0 54 12.5 83.5t28.5 44t32 17t23 2.5h7q58 0 93.5 -40.5t35.5 -116.5q0 -77 -27 -149t-68 -128t-90.5 -90t-95.5 -35h-40q-35 0 -65 24q-31 25 -31 66v821q0 35 -28 69t-69 34v114l265 270h42l181 -180l180 180
h38l241 -266l288 266h50l335 -268l298 268h38l350 -264v-1134h-172z" />
    <glyph glyph-name="Racute" horiz-adv-x="2596" 
d="M2233 0v997l-255 207l-255 -205v-999h-169v1003l-260 198l-248 -197v-1004h-171v1044l-138 157l-180 -166h-50l-166 167l-95 -97q12 0 32 -12t39.5 -29.5t34 -37t14.5 -35.5v-850q26 0 46.5 15t35 35.5t22 42t7.5 35.5q0 19 -8 19q-10 0 -25 5.5t-29 20t-24 38.5t-10 60
q0 54 12.5 83.5t28.5 44t32 17t23 2.5h7q58 0 93.5 -40.5t35.5 -116.5q0 -77 -27 -149t-68 -128t-90.5 -90t-95.5 -35h-40q-35 0 -65 24q-31 25 -31 66v821q0 35 -28 69t-69 34v114l265 270h42l181 -180l180 180h38l241 -266l288 266h50l335 -268l298 268h38l350 -264v-1134
h-172z" />
    <glyph glyph-name="racute" horiz-adv-x="2596" 
d="M1723 -223q0 -94 -36.5 -175.5t-100.5 -147.5q-76 -76 -183 -122.5t-235 -49.5q-84 0 -162 18q-86 20 -146.5 56t-105.5 79.5t-78.5 92t-65 93t-64.5 82.5t-77 61q-13 6 -23.5 11.5t-18.5 10.5q-21 8 -53 8h-19.5t-25.5 -1q-15 -1 -26.5 -2t-20.5 -3q-13 -2 -32 -6.5
t-44 -12.5l-14 46l4 2q10 9 31.5 22.5t52 25.5t68.5 21t81 9h6q57 -1 98.5 -8.5t72.5 -21.5q58 -27 111 -75q33 -30 62 -64.5t59 -70t63.5 -71t75.5 -66.5t94 -56.5t120 -41.5q6 -2 8.5 -3t5.5 -2t7 -1h12q35 0 78 8t76 24q46 25 84 72q36 45 36 84q0 22 -14 36
q-28 22 -47 60.5t-19 78.5q0 65 45 109q45 45 109 45q63 0 107 -45q44 -47 44 -109zM2449 1406q0 -24 -4.5 -59t-10.5 -72t-13.5 -71t-13.5 -55h-2v-1149h-172v1003l-280 199l-230 -205v-997h-169v1014l-270 187l-238 -204v-997h-171v1016l-168 185l-156 -166h-50l-162 167
l-95 -97q13 0 34 -12.5t40.5 -30.5t33.5 -38t14 -35v-846q26 0 46.5 15.5t35 37t22 44t7.5 36.5t-8 14q-10 0 -25 5.5t-29 20t-24 38.5t-10 60q0 54 12.5 83.5t28.5 44t32 17t23 2.5h7q58 0 93.5 -40.5t35.5 -116.5q0 -50 -12.5 -99.5t-34 -94.5t-49.5 -83.5t-59.5 -66.5
t-64.5 -44t-63 -16h-40q-34 0 -64 24q-30 25 -30 66v821q0 35 -28 69t-69 34v114l265 270h40l177 -180l180 180h38l247 -266l292 266h46l331 -256l284 256h38l232 -178q6 15 12.5 38.5t12 48.5t9 46.5t3.5 30.5q0 35 -6 58.5t-16.5 41.5t-23.5 33t-27 33q-6 9 -7.5 13
t-6 5.5t-14 0.5t-30.5 -3h-31q-48 6 -73.5 36t-25.5 73v4q0 66 40.5 100.5t101.5 34.5q79 0 138 -66q54 -57 89 -153t35 -189z" />
    <glyph glyph-name="Rcaron" horiz-adv-x="2596" 
d="M2449 1406q0 -24 -4.5 -59t-10.5 -72t-13.5 -71t-13.5 -55h-2v-1149h-172v1003l-280 199l-230 -205v-997h-169v1014l-270 187l-238 -204v-997h-171v1016l-168 185l-156 -166h-50l-162 167l-95 -97q13 0 34 -12.5t40.5 -30.5t33.5 -38t14 -35v-846q26 0 46.5 15.5t35 37
t22 44t7.5 36.5t-8 14q-10 0 -25 5.5t-29 20t-24 38.5t-10 60q0 54 12.5 83.5t28.5 44t32 17t23 2.5h7q58 0 93.5 -40.5t35.5 -116.5q0 -50 -12.5 -99.5t-34 -94.5t-49.5 -83.5t-59.5 -66.5t-64.5 -44t-63 -16h-40q-34 0 -64 24q-30 25 -30 66v821q0 35 -28 69t-69 34v114
l265 270h40l177 -180l180 180h38l247 -266l292 266h46l331 -256l284 256h38l232 -178q6 15 12.5 38.5t12 48.5t9 46.5t3.5 30.5q0 35 -6 58.5t-16.5 41.5t-23.5 33t-27 33q-6 9 -7.5 13t-6 5.5t-14 0.5t-30.5 -3h-31q-48 6 -73.5 36t-25.5 73v4q0 66 40.5 100.5t101.5 34.5
q79 0 138 -66q54 -57 89 -153t35 -189z" />
    <glyph glyph-name="rcaron" unicode="&#x178a;" horiz-adv-x="1157" 
d="M767 0l-250 254l-254 -254h-164v787q0 22 22 35q21 15 35 15h65q19 0 34 -20q14 -20 14 -28v-583l259 257l251 -253v575q0 10 4.5 19t11 16t14 11.5t12.5 5.5h71q18 0 38 -20q21 -20 21 -30v-787h-184zM951 1083q0 -84 -42 -132q-44 -50 -102 -77q-29 -14 -59 -22.5
t-61 -12.5q-32 -4 -57 -6t-45 -2h-150q-54 0 -113 15t-108.5 46t-82 78t-32.5 111v203q0 19 14 39.5t34 37t41.5 27t36.5 10.5h42q35 0 74.5 -12t73 -40t55.5 -74.5t22 -114.5q0 -66 -21.5 -104.5t-66.5 -38.5q-23 0 -43 6.5t-35 21t-23.5 37.5t-8.5 57q0 61 26 84
q28 22 48 22q6 1 6 8q0 8 -12.5 16.5t-27.5 15.5q-11 4 -23 4q-16 0 -29 -10t-13 -34v-118q0 -44 20.5 -75t52.5 -50.5t70 -28.5t74 -9h93q36 0 72 6.5t64.5 24.5t46 49t17.5 81v226q0 16 -6 35t-14 34q-8 18 -15 25q-7 12 6 20t35 26q20 16 41.5 31t38.5 27q14 -14 28 -29
t29 -31q29 -32 29 -80v-323z" />
    <glyph glyph-name="Sacute" 
d="M-421 -786v420q0 43 -22 70t-55.5 43t-73.5 22t-76 6h-72q-35 0 -72.5 -8t-68 -25.5t-50 -45t-19.5 -66.5v-286q8 -4 25 -4q9 0 31 8q18 12 26 30t8 32q0 16 -8 16q-10 0 -23 4t-25 14t-20 28t-8 46q0 40 10.5 62.5t24 33t27.5 12.5t20 2h16q48 0 74 -32t26 -86
q0 -55 -21.5 -108t-56 -95t-79 -67.5t-89.5 -25.5h-40q-17 0 -32.5 6.5t-28 18t-20 27t-7.5 32.5v369q0 57 35 101t87.5 74t114 45.5t115.5 15.5h118q39 0 105 -9q61 -9 126 -35q58 -26 105 -73q45 -45 45 -121v-451h-172z" />
    <glyph glyph-name="sacute" 
d="M-421 -1412v372q0 44 -21.5 72.5t-54.5 45.5t-73 23.5t-76 6.5h-72q-36 0 -73.5 -8t-68.5 -26t-50.5 -47t-19.5 -71v-227q13 -6 26 -6q17 0 33 10q17 11 25 30t8 33q0 15 -8 15q-10 0 -23 4t-25 15t-20 29.5t-8 48.5q1 43 11.5 66.5t24 34.5t26.5 13t20 2h16q48 0 74 -35
t26 -89q0 -58 -21.5 -114t-56 -100t-79 -71t-89.5 -27h-40q-33 0 -60 27q-30 25 -30 63v316q0 40 16.5 74t43.5 61.5t63 48.5t75.5 35t79.5 21.5t76 7.5h117q20 0 46.5 -2.5t58.5 -7.5q31 -5 62 -14t63 -23q61 -28 104 -76q44 -50 44 -127v-404h-170z" />
    <glyph glyph-name="Tcedilla" horiz-adv-x="1831" 
d="M951 1084q0 -82 -35 -135q-36 -51 -84 -82q-51 -30 -104 -41t-95 -11h-198q-54 0 -113 17.5t-108.5 51.5t-82 83.5t-32.5 113.5v203q0 19 14 39.5t34 37t41.5 27t36.5 10.5h42q35 0 74.5 -12t73 -40t55.5 -74.5t22 -114.5q0 -66 -23.5 -104.5t-68.5 -38.5q-41 0 -76 23
q-32 23 -32 91q0 62 26 88q29 26 48 26q6 1 6 8q0 8 -12.5 16.5t-27.5 15.5q-11 4 -23 4q-15 0 -27.5 -10t-12.5 -34v-120q0 -43 20.5 -73.5t52.5 -50t70 -28.5t74 -9h93q36 0 72 6.5t64.5 24.5t46 49t17.5 81v208q0 16 -6 35t-13 33q-4 8 -7 15t-7 12q-7 12 6 19.5t35 25.5
q20 16 40.5 31t37.5 27l18 -18q11 -12 23 -24.5t22 -27.5t16.5 -32t6.5 -38v-142l311 152h26l340 -270v-1128h-170v1008l-246 206l-261 -107v-23zM951 0h-183l-251 252l-254 -252h-164v779q0 23 22 35q21 15 35 15h65q19 0 34 -20q14 -20 14 -28v-577l259 257l251 -253v569
q0 20 15.5 35t34.5 15h70q17 0 34 -20q18 -20 18 -32v-775z" />
    <glyph glyph-name="tcedilla" horiz-adv-x="1829" 
d="M951 1084q0 -83 -35 -135q-34 -50 -84 -82q-51 -30 -104 -41t-95 -11h-198q-54 0 -113 17.5t-108.5 51.5t-82 83.5t-32.5 113.5v203q0 19 14 39.5t34 37t41.5 27t36.5 10.5h42q35 0 74.5 -12t73 -40t55.5 -74.5t22 -114.5q0 -66 -23.5 -104.5t-68.5 -38.5q-41 0 -76 23
q-32 23 -32 91q0 62 26 88q28 26 48 26q6 1 6 8q0 8 -12.5 16.5t-27.5 15.5q-12 4 -23 4q-15 0 -27.5 -10t-12.5 -34v-120q0 -43 20.5 -73.5t52.5 -50t70 -28.5t74 -9h93q36 0 72 6.5t64.5 24.5t46 49t17.5 81v208q0 16 -6 35t-13 33q-4 8 -7 15t-7 12q-7 12 6 19.5t35 25.5
q20 16 40.5 31t37.5 27l18 -18q11 -12 23 -24.5t22 -27.5t16.5 -32t6.5 -38v-142l311 152h26l200 -174q8 19 16.5 43t15 47.5t10.5 44.5t4 36q0 55 -12 92t-38 72q-10 17 -22 21t-42 -4h-14q-6 0 -10 0.5t-8 1.5q-48 4 -74 32t-26 76v4q0 63 43 99q43 35 103 35
q79 0 138 -65q51 -55 77 -152q26 -95 26 -191q0 -25 -7 -62t-16.5 -76t-20.5 -74.5t-19 -56.5l16 -19v-1128h-170v1008l-246 206l-261 -107v-23zM951 0h-183l-251 252l-254 -252h-164v779q0 23 22 35q21 15 35 15h65q19 0 34 -20q14 -20 14 -28v-577l259 257l251 -253v569
q0 20 15.5 35t34.5 15h70q17 0 34 -20q18 -20 18 -32v-775z" />
    <glyph glyph-name="Tcaron" unicode="&#x178b;" horiz-adv-x="1391" 
d="M1284 1412q0 -46 -10.5 -82t-26 -63t-33 -46t-30.5 -30l-126 -128h-14q-13 16 -26.5 29t-28.5 23q-28 19 -63.5 35t-77.5 16q-14 0 -27.5 -8.5t-26.5 -21t-24 -26.5t-19 -24l-4 -5q16 2 32.5 3.5t33.5 1.5q42 0 91 -7t89 -25q29 -11 59 -30.5t54.5 -44t40 -51.5t15.5 -53
v-671q0 -64 -19.5 -104t-48.5 -62t-62 -30t-60 -8h-463q-54 0 -91.5 17t-61 45t-34.5 64.5t-11 75.5v1024q-5 8 -9 13t-6 9q-2 6 -24 6q-16 0 -28 -14t-20.5 -33.5t-13 -41.5t-4.5 -37t8 -15q10 0 25 -6t28.5 -20.5t23.5 -39t10 -60.5q0 -60 -24.5 -101t-76.5 -47h-17
q-55 0 -84 43t-29 115q0 76 23 148t60 128t83 90.5t92 34.5h63q35 0 62 -27q29 -29 29 -61v-1038q0 -32 10.5 -56.5t29.5 -40.5t44.5 -24t54.5 -8h248q46 0 84 33q38 32 38 102v495q0 69 -53.5 113t-162.5 48h-10q-18 0 -33 -2t-29 -2q-27 0 -38 17q-12 19 -26 45t-38 68
l274 338h38q181 -127 196 -127q33 0 52 11.5t23 53.5v19q0 43 -46 43q-8 0 -23 -4t-31 -4h-15q-5 0 -9.5 0.5t-9.5 1.5q-17 4 -46 21q-28 16 -28 61v4q0 51 32 82.5t92 31.5h5q69 0 124 -46t55 -134z" />
    <glyph glyph-name="tcaron" 
d="M-421 -433h-457q-22 0 -37 -9.5t-15 -35.5v-208l204 221h68l237 -227v259zM-177 -333h-74v-465h-182l-263 257l-242 -257h-162v468q0 57 34 90q34 31 66 31h579v131h170v-135h68l54 24l32 -110z" />
    <glyph glyph-name="Uring" 
d="M-421 -974h-455q-22 0 -38 -10t-16 -34v-193l200 207h61l248 -214v244zM-177 -974h-74v-424h-180l-275 231l-238 -231h-156v426q0 53 32 85q31 29 64 29h583v120h170v-124h68l54 22l32 -102z" />
    <glyph glyph-name="uring" horiz-adv-x="2047" 
d="M1839 1130v-1130h-169v1008l-262 206l-280 -84l-70 -63h-14q-13 16 -26.5 29t-28.5 23q-28 19 -63.5 35t-77.5 16q-14 0 -27.5 -8.5t-26.5 -21t-24 -26.5t-19 -24l-4 -6q31 6 66 6q42 0 91 -7t89 -25q30 -12 60 -32t54 -44t39.5 -51t15.5 -52v-671q0 -64 -19.5 -103.5
t-48.5 -62t-62 -30.5t-60 -8h-463q-54 0 -91.5 17t-61 45t-34.5 64.5t-11 75.5v1025q-14 16 -15 21q-2 6 -24 6q-16 0 -28 -14t-20.5 -33.5t-13 -41t-4.5 -37.5q0 -15 8 -15q10 0 25 -6t28.5 -20t23.5 -38.5t10 -61.5q0 -59 -24.5 -101t-76.5 -47h-17q-55 0 -84 43t-29 115
q0 76 23 148t60 128t83 90.5t92 34.5h63q35 0 62 -27q29 -29 29 -60v-1039q0 -32 10.5 -56t29.5 -40t44.5 -24t54.5 -8h248q44 0 84 31q38 33 38 103v495q0 69 -53.5 113t-162.5 49h-10q-18 0 -33 -2.5t-29 -2.5q-27 0 -38 17q-12 19 -26 45.5t-38 68.5l274 337h38l175 -112
q14 -8 12 -11q-1 -4 9 -4q33 0 52 11.5t23 53.5v19q0 43 -46 43q-8 0 -23 -3.5t-36 -3.5v2q-47 3 -75 20t-28 61v4q0 51 32 82t92 31h5q68 0 124 -45q55 -46 55 -134q0 -41 -11 -80q-11 -33 -21 -48l194 112h38z" />
    <glyph glyph-name="Udblacute" horiz-adv-x="2047" 
d="M1887 1416q0 -26 -7 -63t-17 -75.5t-21 -73.5t-18 -57l15 -17v-1130h-169v1008l-262 206l-280 -84l-70 -63h-14q-13 16 -26.5 29t-28.5 23q-28 19 -63.5 35t-77.5 16q-14 0 -27.5 -8.5t-26.5 -21t-24 -26.5t-19 -24l-4 -6q31 6 66 6q42 0 91 -7t89 -25q30 -12 60 -32
t54 -44t39.5 -51t15.5 -52v-671q0 -64 -19.5 -103.5t-48.5 -62t-62 -30.5t-60 -8h-463q-54 0 -91.5 17t-61 45t-34.5 64.5t-11 75.5v1025q-14 16 -15 21q-2 6 -24 6q-16 0 -28 -14t-20.5 -33.5t-13 -41t-4.5 -37.5q0 -15 8 -15q10 0 25 -6t28.5 -20t23.5 -38.5t10 -61.5
q0 -59 -24.5 -101t-76.5 -47h-17q-55 0 -84 43t-29 115q0 76 23 148t60 128t83 90.5t92 34.5h63q35 0 62 -27q29 -29 29 -60v-1039q0 -32 10.5 -56t29.5 -40t44.5 -24t54.5 -8h248q44 0 84 31q38 33 38 103v495q0 69 -53.5 113t-162.5 49h-10q-18 0 -33 -2.5t-29 -2.5
q-27 0 -38 17q-12 19 -26 45.5t-38 68.5l274 337h38l175 -112q14 -8 12 -11q-1 -4 9 -4q33 0 52 11.5t23 53.5v19q0 43 -46 43q-8 0 -23 -3.5t-36 -3.5v2q-47 3 -75 20t-28 61v4q0 51 32 82t92 31h5q68 0 124 -45q55 -46 55 -134q0 -41 -11 -80q-11 -33 -21 -48l194 112h38
l216 -176q8 19 16 43t15 47.5t11 45t4 35.5q0 55 -12.5 92t-37.5 72q-8 11 -14.5 17t-17.5 6q-13 0 -32 -6h-14q-5 0 -9.5 0.5t-9.5 1.5q-46 4 -72.5 33.5t-26.5 74.5v4q0 63 43 99q44 35 103 35q42 0 75.5 -17t62.5 -48q51 -57 77 -152q26 -96 26 -191z" />
    <glyph glyph-name="udblacute" unicode="&#x178c;" horiz-adv-x="1163" 
d="M901 -33h-76l-46 35v204q-18 -30 -54 -66t-79 -67t-88.5 -52t-82.5 -21h-201q-101 0 -137 41q-38 44 -38 111v296q0 75 44 113q43 37 114 60q61 18 132.5 36t139.5 40.5t126 52t92 69.5q32 44 32 106v196l-82 85l-146 -129h-71l-171 129l-40 -36v-357q0 -24 11.5 -34.5
t24.5 -10.5t23 7q15 8 29.5 24t14.5 30t-8 16q-11 0 -25.5 3t-28 13t-23 29t-9.5 51q0 65 36 88q37 23 75 23q36 0 61 -27.5t25 -92.5t-19 -114.5t-50.5 -83t-73.5 -50.5t-88 -17h-40q-15 0 -33.5 8.5t-34 22t-26.5 31.5t-11 38v437l208 194h57l193 -157l160 157h51
l183 -192v-339q0 -54 -18 -90t-47 -64q-32 -31 -74.5 -55.5t-90.5 -45t-99.5 -37t-101 -31t-94 -27t-79.5 -25.5q-33 -15 -55.5 -34.5t-22.5 -49.5v-158q0 -60 27.5 -83.5t75.5 -23.5h105q32 0 67 15.5t68.5 41t63.5 58t53 66.5t36.5 66.5t13.5 57.5v135l58 32h49l65 -30
v-581z" />
    <glyph glyph-name="Zacute" 
d="M-421 -756v63q-34 -46 -79 -55q-23 -4 -42.5 -6t-35.5 -2h-354q-74 0 -121 31t-47 93v75q0 24 36.5 39t93.5 25.5t127.5 19t138.5 20.5q48 8 98.5 24t91.5 34t67 36t26 30v80l-97 65l-140 -122h-28l-196 126l-48 -33v-177q6 -9 18 -13t22 -4h6q18 4 32 16t14 20
q0 6 -10 10q-21 0 -37.5 11t-16.5 40v4q2 36 23 51.5t41 15.5q11 0 23 -5t21.5 -14.5t15.5 -22.5t6 -29q0 -65 -61 -110q-63 -45 -158 -45h-13q-34 0 -64 31q-32 29 -32 69v160l176 137h80l212 -137l156 137h76l151 -120v-173q0 -21 -37 -45t-96.5 -46.5t-135 -41
t-152.5 -29.5q-76 -12 -126 -18t-80 -11t-42 -11t-12 -18v-20q0 -40 37 -46q36 -6 106 -6h231q36 0 61.5 9.5t42 24.5t24 34.5t7.5 39.5v44l57 26h55l60 -22v-259h-172z" />
    <glyph glyph-name="zacute" 
d="M-421 -1400v73q-32 -41 -84 -58q-47 -15 -84 -15h-353q-73 0 -115.5 28.5t-42.5 88.5v70q0 23 34 39t89 28t124.5 22t140.5 21q55 7 107 27.5t93 44.5t66 46t25 33v42l-93 68l-155 -122h-25l-200 120l-36 -24v-176q12 -15 28 -15h6q16 4 32 13.5t16 18.5q0 6 -10 10
q-24 0 -39.5 10.5t-15.5 39.5v5q2 36 22 48.5t43 12.5t44.5 -17.5t21.5 -48.5q0 -63 -60 -106q-62 -43 -151 -43h-19q-34 0 -60 29q-28 27 -28 66v170l176 113h70l210 -130l162 130h70l161 -115v-122q0 -23 -36.5 -51.5t-99.5 -56.5q-61 -29 -139 -54t-156 -36
q-76 -12 -124 -19t-75.5 -13t-38 -13.5t-10.5 -19.5v-19q0 -18 8.5 -27t26 -13.5t44.5 -5t64 -0.5h133q37 0 78 6t75.5 20t57 36.5t22.5 55.5v36l61 24h49l60 -22v-253h-170z" />
    <glyph glyph-name="Zdot" horiz-adv-x="1839" 
d="M951 833q0 -54 -18 -90t-47 -64q-48 -45 -119 -78t-147.5 -58.5t-150 -45.5t-126.5 -40q-74 -26 -74 -83v-126q0 -60 26.5 -83.5t74.5 -23.5h105q32 0 67 15.5t68.5 40.5t63.5 57.5t53 66.5t37 67.5t15 59.5v101l48 32h59l65 -30v-549l-52 -37h-76l-44 35v204
q-18 -30 -54 -66t-79.5 -66.5t-89 -51t-83.5 -20.5h-206q-51 0 -84 10t-51.5 29.5t-25.5 47.5t-7 63v264q0 74 44 115q43 37 114 60q60 19 131 37t139 40t126 50.5t92 68.5q34 46 34 105v238l-84 78l-146 -129h-72l-170 129l-38 -36v-391q0 -24 10.5 -34t23.5 -10q12 0 23 6
q8 5 16 12t16 16q17 20 17 34q0 4 -3 7q-10 0 -23 3t-24.5 13.5t-19.5 29.5t-8 51q0 65 32 88t69 23q18 0 35 -7t30.5 -21t21.5 -37t8 -54q0 -65 -21.5 -114.5t-57 -83t-80 -51t-90.5 -17.5h-40q-15 0 -33.5 8.5t-34 22t-26.5 31.5t-11 38v475l208 190h55l193 -157l154 157
h54l188 -186l293 186h38l346 -270v-1128h-170v1008l-250 206l-257 -120v-261z" />
    <glyph glyph-name="zdot" horiz-adv-x="1831" 
d="M951 833q0 -54 -18 -90t-47 -64q-48 -45 -119 -78t-147.5 -58.5t-150 -45.5t-126.5 -40q-74 -26 -74 -83v-126q0 -60 26.5 -83.5t74.5 -23.5h105q32 0 67 15.5t68.5 40.5t63.5 57.5t53 66.5t37 67.5t15 59.5v101l48 32h59l65 -30v-549l-52 -37h-76l-44 35v204
q-18 -30 -54 -66t-79.5 -66.5t-89 -51t-83.5 -20.5h-206q-51 0 -84 10t-51.5 29.5t-25.5 47.5t-7 63v264q0 74 44 115q45 39 114 60q60 19 131 37t139 40t126 50.5t92 68.5q34 46 34 105v238l-84 78l-146 -129h-72l-170 129l-38 -36v-391q0 -24 10.5 -34t23.5 -10q12 0 23 6
q15 10 32 28q17 20 17 34q0 4 -3 7q-10 0 -23 3t-24.5 13.5t-19.5 29.5t-8 51q0 65 32 88q31 23 69 23q18 0 35 -7t30.5 -21t21.5 -37t8 -54q0 -65 -21.5 -114.5t-57 -83t-80 -51t-90.5 -17.5h-40q-15 0 -33.5 8.5t-34 22t-26.5 31.5t-11 38v475l208 190h55l193 -157
l154 157h54l188 -186l293 186h38l210 -174q12 18 20.5 41.5t14 48t8.5 46t3 35.5q0 55 -12 92t-38 72q-10 17 -22 21t-42 -4h-14q-8 0 -18 2q-48 4 -76 32t-28 76v4q0 63 45 99q46 35 105 35q79 0 138 -65q51 -55 77 -152q26 -95 26 -191q0 -26 -7.5 -63t-18 -75.5
t-22 -73.5t-19.5 -57l16 -19v-1128h-170v1008l-250 206l-257 -120v-261z" />
    <glyph glyph-name="Gamma" unicode="&#x178d;" horiz-adv-x="1999" 
d="M879 314q-17 -3 -27 -13q-9 -7 -17 -21.5t-8 -39.5q0 -28 8 -44.5t17 -23.5q11 -8 27 -10v152zM1778 1063h-13q-14 17 -29.5 29.5t-31.5 22.5q-29 19 -66 35t-79 16q-15 0 -30 -10t-28 -24t-23.5 -28t-17.5 -23q16 2 31.5 3.5t30.5 1.5q96 0 152 -51q54 -53 54 -118v-917
h-176q-72 112 -137.5 177t-128.5 95q-61 29 -117.5 35.5t-118.5 6.5v-250q0 -15 -17 -41q-17 -23 -46 -23h-106q-47 0 -79 21t-52.5 53.5t-29.5 73t-9 79.5q0 42 9 84t28.5 76.5t51.5 58t79 27.5v634l-124 94l-174 -166h-49l-187 167l-101 -97q12 0 33.5 -12.5t42 -30.5
t35.5 -38t15 -35v-848q0 -21 15 -21q12 0 28 14.5t31 36t25.5 45.5t10.5 43t-13 29q-10 0 -25 5.5t-29.5 20t-25 38.5t-10.5 60q0 54 12.5 83.5t29 44t32.5 17t24 2.5h7q58 0 93.5 -40.5t35.5 -116.5q0 -77 -27 -149t-68 -128t-90.5 -90t-95.5 -35h-40q-33 0 -62 23
q-28 25 -28 65v823q0 36 -30 69q-31 34 -71 34v112l267 272h36l209 -180l172 180h38l229 -178v-736q23 0 54 -3t73 -8q81 -10 163 -44q30 -13 62 -34.5t61.5 -46t54 -51t39.5 -49.5v567q0 66 -22 96t-67 34h-18q-18 0 -33 -2t-25 -2q-8 0 -12 4q-10 21 -26 47t-39 68
l271 338h38l198 -136q8 -8 29 -8t34 10l38 -54z" />
    <glyph glyph-name="Theta" horiz-adv-x="700" 
d="M-421 -566q-10 10 -17 10q-14 0 -22.5 -19t-8.5 -47t7.5 -44t17.5 -24q8 -8 15 -8q8 -2 8 132zM473 1063q-11 0 -29.5 16t-45.5 35.5t-62 35.5t-80 16q-17 0 -32.5 -9.5t-28 -23t-23 -28t-16.5 -24.5q16 2 31.5 3.5t29.5 1.5q95 0 154 -51q56 -51 56 -118v-1781h-175
q-72 114 -150 177q-77 61 -141 95q-36 18 -66 23t-62 5h-84v-232q0 -15 -14 -41q-14 -27 -44 -27h-84q-88 0 -143 70t-62 164v18q0 26 5 46.5t13.5 37.5t20 31.5t25.5 29.5q55 61 115 61v53l-111 109l-198 -168h-50l-169 170l-84 -84q14 0 31.5 -8t33 -20.5t26 -28
t10.5 -31.5v-330q10 -2 21 -2q40 0 60 27q20 26 20 43q0 12 -9 12h-6q-20 0 -44 30q-25 28 -25 68q0 48 11 75t25.5 39.5t28.5 15.5t19 3h15q94 0 94 -123q0 -75 -26 -132.5t-64 -96.5t-80.5 -59t-75.5 -20h-44q-33 0 -60 34q-30 31 -30 76v310q0 23 -5 23q-12 0 -27 4v108
l210 212h80l154 -156l185 156h76l176 -152v-172h49q22 0 47.5 -1.5t54.5 -5.5t55.5 -10.5t50.5 -17.5q30 -15 67 -34.5t73 -40.5t66 -42t47 -39v1429q0 66 -27.5 93t-75.5 27q-17 0 -29.5 -4.5t-25.5 -4.5q-17 0 -29 19q-13 19 -26.5 45t-37.5 68l274 338h38l195 -136
q18 -8 32 -8q20 0 34 10l38 -52z" />
    <glyph glyph-name="Phi" horiz-adv-x="694" 
d="M-421 -1086h-8q-5 0 -11.5 -3t-13 -10t-11 -19t-4.5 -31q0 -29 7.5 -45t17.5 -24q7 -7 15 -7q8 -2 8 139zM473 1063q-11 0 -29.5 16t-45.5 35.5t-62 35.5t-80 16q-17 0 -32.5 -9.5t-28.5 -23t-23 -28t-16 -24.5q16 2 31.5 3.5t29.5 1.5q96 0 155 -51q57 -53 57 -118
v-2300h-181q-71 111 -132 165q-30 28 -61.5 49t-61.5 37q-60 29 -121.5 37.5t-122.5 8.5v-236q0 -15 -14 -38t-44 -23h-84q-89 0 -143 65q-55 64 -62 160v18q0 51 18 89.5t44.5 64t58 38t58.5 12.5v20l-122 86l-175 -146h-50l-192 168l-73 -74q14 0 31.5 -8.5t33 -22
t26 -30.5t10.5 -33v-293q5 -1 10.5 -1.5t10.5 -0.5q19 0 34 6t25.5 15.5t15.5 20t5 19.5q0 12 -9 12q-11 0 -24 3t-24 13.5t-19 30.5t-8 55q0 36 11 57t25.5 32t28.5 14t19 3h15q45 0 70 -37q24 -38 24 -87q0 -75 -28 -126.5t-67.5 -83t-83.5 -45.5t-77 -14h-44
q-32 0 -56 28.5t-24 72.5v192q0 12 -0.5 31t-6 37t-16.5 31t-32 13v92l223 208h90l166 -140l164 140h76l185 -134v-118h5q13 0 44 -1t71 -5.5t84 -14t85 -27.5q29 -14 61.5 -32t62.5 -38.5t55.5 -43.5t41.5 -48v1957q0 66 -27.5 93t-75.5 27q-17 0 -29.5 -4.5t-25.5 -4.5
q-17 0 -29 19q-13 19 -26.5 45t-37.5 68l274 338h38l195 -136q19 -8 32 -8q21 0 34 10l38 -52z" />
    <glyph glyph-name="alpha" horiz-adv-x="2596" 
d="M879 311q-18 -5 -27 -12t-16 -21.5t-7 -39.5q0 -28 7 -44.5t16 -23.5q4 -2 10.5 -5t16.5 -5v151zM2409 0h-172v1008l-339 206l-266 -135l96 -100v-979h-178q-71 111 -133 176.5t-125 95.5q-60 29 -119.5 34t-122.5 5v-247q0 -16 -18 -41q-18 -23 -47 -23h-104
q-47 0 -79 20.5t-52.5 53t-29.5 72.5t-9 79q0 42 9 84t28.5 76.5t51.5 58t79 27.5v636l-122 94l-174 -166h-50l-165 167l-122 -97q13 0 34 -12t41 -29.5t34.5 -37t14.5 -35.5v-852q0 -21 13 -21q11 0 28 14.5t32.5 36t27 45.5t11.5 43t-13 29q-10 0 -25 5.5t-29 20t-24 38.5
t-10 60q0 54 12.5 83.5t28.5 44t32 17t23 2.5h7q58 0 93.5 -40.5t35.5 -116.5q0 -51 -12.5 -100t-33.5 -93.5t-49 -82.5t-59 -65.5t-63.5 -43t-63.5 -15.5h-40q-32 0 -63 23q-29 26 -29 65v823q0 36 -30 69q-31 34 -71 34v112l269 272h36l209 -180l172 180h38l227 -178v-738
q23 0 54 -3t73 -8t81.5 -16t81.5 -30q30 -11 62 -31.5t61.5 -46t54 -52t39.5 -49.5v677l-101 91v124l501 260h38l414 -270v-1128z" />
    <glyph glyph-name="delta" horiz-adv-x="1292" 
d="M-421 -530q-19 -4 -34.5 -21t-15.5 -55q0 -28 8.5 -44.5t18.5 -23.5q8 -8 15 -8q8 -2 8 152zM1111 0h-172v1010l-338 206l-277 -135l103 -107v-1818h-179q-35 57 -68 100.5t-64 74.5q-59 58 -123 93q-60 27 -123 36.5t-121 9.5v-252q0 -17 -15 -39q-14 -23 -45 -23h-83
q-46 0 -84 18t-65 49t-42 73t-15 90q0 56 18 99t44.5 72t58 43.5t58.5 14.5v61l-122 120l-173 -166h-50l-187 170l-78 -76q14 0 31.5 -9t33 -22.5t26 -30t10.5 -32.5v-356q5 -1 10.5 -1.5t10.5 -0.5q41 0 60 25q20 26 20 43q0 12 -9 12q-11 0 -24 5t-24 18t-19 36t-8 59
q0 44 10 68.5t23 36t26 13.5t20 2h20q46 0 70 -29.5t24 -101.5q0 -75 -28 -131.5t-67.5 -94.5t-83.5 -57.5t-77 -19.5h-44q-15 0 -29.5 8.5t-26 23t-18 33.5t-6.5 41v292q0 26 -6 49q-7 25 -49 25v90l223 225h61l175 -158l182 158h76l187 -189v-133h9q17 0 48.5 -0.5
t70 -4.5t80.5 -13.5t81 -27.5q29 -13 61.5 -32.5t63 -42t56 -47.5t40.5 -49v1511l-105 101v124l499 258h38l420 -260v-1138z" />
    <glyph glyph-name="epsilon" horiz-adv-x="1298" 
d="M-421 -1084q-21 -4 -34.5 -21t-13.5 -55q0 -52 25 -70q9 -9 15 -10q8 -2 8 156zM1111 0h-170v1008l-340 206l-277 -135l105 -107v-2355h-181q-74 115 -133 168q-61 57 -124 89q-60 27 -122 34.5t-120 7.5v-242q0 -13 -14 -36q-12 -21 -44 -21h-84q-90 0 -147 59
q-58 58 -58 156q0 55 17.5 97t43.5 69.5t57.5 41.5t58.5 14v13l-120 120l-175 -166h-50l-187 170l-78 -75q14 0 31.5 -9t33 -22.5t26 -30.5t10.5 -33v-291q5 -1 10.5 -1.5t10.5 -0.5q39 0 55 25t16 43q0 12 -8 12q-20 0 -48 25t-28 59q0 43 10 67.5t23.5 36t26.5 14t20 2.5
h20q24 0 41.5 -13.5t29 -33.5t17.5 -42.5t6 -40.5q0 -75 -26 -126t-64.5 -81.5t-81.5 -44t-76 -13.5h-44q-32 0 -56 28.5t-24 72.5v227q0 29 -6 50q-8 24 -49 24v90l223 212h63l167 -166l190 166h76l185 -178v-84h9q15 0 47.5 -2.5t73.5 -8t86.5 -14.5t86.5 -22
q60 -22 116.5 -60t90.5 -89v2050l-105 101v124l499 259h38l420 -269v-1128z" />
    <glyph glyph-name="sigma" horiz-adv-x="2596" 
d="M879 314q-8 -2 -15 -5.5t-12 -7.5q-9 -7 -16 -21.5t-7 -39.5q0 -28 7 -44.5t16 -23.5q4 -2 10.5 -5t16.5 -5v152zM2462 1408q0 -34 -4.5 -68.5t-12.5 -71.5q-8 -36 -17.5 -66.5t-20.5 -56.5v-1145h-170v1010l-369 206l-240 -135l100 -94v-987h-178q-70 111 -135.5 174.5
t-128.5 92.5q-61 30 -117 38.5t-119 8.5v-250q0 -16 -18 -41q-18 -23 -47 -23h-104q-47 0 -79 21t-52.5 53.5t-29.5 73t-9 79.5q0 42 9 84t28.5 76.5t51.5 58t79 27.5v636l-122 93l-174 -165h-50l-194 167l-93 -97q13 0 34 -12t40.5 -29.5t33.5 -37.5t14 -35v-852
q0 -21 15 -21q11 0 28.5 15t34 37t28.5 46.5t12 42.5q0 17 -13 27q-10 0 -25 5.5t-29 20t-24 38.5t-10 60q0 54 12.5 83.5t28.5 44t32 17t24 2.5h6q58 0 93.5 -40.5t35.5 -116.5q0 -77 -27 -149t-68.5 -128t-92 -90t-97.5 -35h-40q-31 0 -63 23q-29 26 -29 65v825
q0 36 -30 69q-31 34 -71 34v112l269 272h36l209 -180l172 180h38l227 -178v-738q23 0 54 -3t73 -8t81.5 -16t81.5 -30q29 -12 61 -32.5t62 -45.5t54.5 -51t39.5 -50v677l-99 91v124l469 260h38l308 -176q8 18 16 38.5t15 43.5q17 51 17 80q0 38 -12 83t-40 83l-4 10
q-8 12 -16 12l-42 -6h-32q-48 6 -75 34.5t-27 74.5v4q0 66 43 100q44 35 103 35q79 0 138 -66q54 -60 79 -153q26 -96 26 -189z" />
    <glyph glyph-name="tau" horiz-adv-x="1298" 
d="M-421 -528q-19 -4 -34.5 -21t-15.5 -55q0 -28 8.5 -44t18.5 -24q8 -8 15 -8q8 -2 8 152zM1176 1448q0 -41 -6 -85.5t-15.5 -86t-21 -77t-22.5 -57.5v-1142h-172v1010l-338 206l-277 -135l105 -107v-1818h-181q-35 57 -67.5 100.5t-64 75.5t-62 55t-61.5 39
q-60 27 -123 36.5t-121 9.5v-254q0 -17 -15 -39q-14 -23 -45 -23h-83q-46 0 -84 18.5t-65 50t-42 73.5t-15 90q0 55 18 98t44.5 72t58 44t58.5 15v61l-122 120l-173 -166h-50l-187 170l-78 -77q14 0 31.5 -8.5t33 -22t26 -30t10.5 -32.5v-358q5 -1 10.5 -1.5t10.5 -0.5
q40 0 60 26t20 44q0 12 -9 12q-11 0 -24 5t-24 18t-19 36t-8 59q0 65 26.5 95.5t60.5 30.5q39 0 74 -36q32 -38 32 -100q0 -75 -28 -132.5t-67.5 -96t-83.5 -58t-77 -19.5h-44q-15 0 -29.5 8.5t-26 23t-18 33.5t-6.5 41v294q0 26 -6 49q-7 25 -49 25v90l223 225h86l166 -166
l166 166h76l187 -191v-131h51q43 0 111 -6q65 -6 127 -34q29 -14 61.5 -34t63 -43.5t56 -49t40.5 -50.5v1509l-105 101v124l499 258h38l277 -176q0 -3 2 7q9 15 20.5 39.5t21 52t16.5 55.5t7 50q0 38 -12.5 84t-39.5 82q-11 12 -14.5 17t-9.5 5q-4 0 -12 -2t-26 -4h-14
q-5 0 -9.5 0.5t-9.5 1.5q-44 4 -81 33q-36 31 -36 74v4q0 65 51 100q53 35 110 35q79 0 141 -66q51 -58 77 -152q26 -95 26 -190z" />
    <glyph glyph-name="phi" horiz-adv-x="1298" 
d="M-421 -1064q-19 -4 -34.5 -21t-15.5 -56q0 -28 8.5 -43.5t18.5 -24.5q8 -8 15 -8q8 -2 8 153zM1176 1448q0 -41 -6 -85.5t-15.5 -86t-21 -77t-22.5 -57.5v-1142h-172v1010l-338 206l-277 -135l105 -107v-2354h-181q-36 57 -68.5 100t-63.5 75t-61.5 55t-61.5 40
q-60 27 -123 36.5t-121 9.5v-254q0 -18 -15 -39q-14 -23 -45 -23h-83q-46 0 -84 18.5t-65 50t-42 73.5t-15 90q0 55 18 98t44.5 72t58 44t58.5 15v60l-122 120l-173 -166h-50l-187 170l-78 -76q14 0 31.5 -8.5t33 -22t26 -30.5t10.5 -33v-357q5 -1 10.5 -1.5t10.5 -0.5
q40 0 60 26t20 44q0 12 -9 12q-11 0 -24 5t-24 18t-19 36t-8 59q0 65 26.5 95t60.5 30q39 0 74 -36q32 -38 32 -99q0 -75 -28 -132.5t-67.5 -96t-83.5 -58t-77 -19.5h-44q-15 0 -29.5 8t-26 22.5t-18 33.5t-6.5 42v293q0 28 -6 49q-8 26 -49 26v89l223 226h86l166 -166
l166 166h76l187 -192v-130h51q43 0 111 -6q65 -6 127 -34q29 -14 61.5 -34t63 -43.5t56 -49.5t40.5 -51v2046l-105 101v124l499 258h38l277 -176q0 -3 2 7q9 15 20.5 39.5t21 52t16.5 55.5t7 50q0 38 -12.5 84t-39.5 82q-11 12 -14.5 17t-9.5 5q-4 0 -12 -2t-26 -4h-14
q-5 0 -9.5 0.5t-9.5 1.5q-44 4 -81 33q-36 31 -36 74v4q0 65 51 100q53 35 110 35q79 0 141 -66q51 -58 77 -152q26 -95 26 -190z" />
    <glyph glyph-name="underscoredbl" unicode="&#x178e;" horiz-adv-x="2505" 
d="M2308 1092v-1090h-171v1086q0 45 -18 76t-46.5 50.5t-64 28.5t-70.5 9h-72q-48 0 -91 -10t-75.5 -32.5t-52 -58t-19.5 -86.5v-1063h-174l-255 217q-3 0 -41 -35q-19 -16 -40 -35t-45 -39q-29 -24 -58.5 -51t-63.5 -57h-172v1088q0 49 -22 80.5t-55 49.5t-72.5 25t-74.5 7
h-71q-36 0 -74 -9t-69.5 -28.5t-51.5 -51.5t-20 -77v-945q27 0 47.5 15t34.5 35.5t21 42t7 35.5q0 19 -9 19q-11 0 -26 5.5t-28.5 20t-23.5 38.5t-10 62q0 54 11.5 83.5t27.5 44t32 17t24 2.5h19q26 0 47.5 -11.5t37 -32.5t24 -50t8.5 -63q0 -77 -27 -149t-68.5 -128.5
t-91.5 -90.5t-96 -34h-38q-30 0 -62 23q-31 25 -31 65v1040q0 63 35.5 112.5t89 84t116 53t115.5 18.5h118q20 0 46 -3t58 -8t63 -15t62 -26q61 -29 105 -82t44 -134v-942l244 214l263 -212v938q0 85 45 136q46 53 105 82q32 16 63 26t63 15t58.5 8t46.5 3h114q63 0 131 -16
q36 -13 62.5 -26.5t47 -28.5t36 -32t29.5 -37q27 -39 38 -75.5t11 -90.5z" />
    <glyph glyph-name="exclamdbl" 
d="M-226 -792v477q0 34 -8.5 56.5t-26.5 35.5t-45 18t-63 5h-66q-72 0 -96 -25q-24 -24 -24 -101v-466h-195l-128 184l-141 -184h-169v474q0 64 -40.5 91t-112.5 27h-59q-73 0 -95 -33q-22 -31 -27 -80v-347q2 -2 19 -2q24 0 41.5 10t28.5 25t16 32t5 31q0 26 -11 26
q-10 0 -25 5t-29.5 17.5t-24.5 34t-10 54.5q0 22 9 41t22.5 32.5t27.5 21.5t25 8q7 0 9.5 -1t6.5 -1h8q38 0 66 -29t34 -93v-17q0 -29 -10 -73.5t-31.5 -90.5t-54.5 -86.5t-79 -59.5q-36 -17 -77 -17h-27q-17 0 -36 6.5t-35.5 18.5t-27.5 27.5t-11 33.5v407q0 112 60 159
q58 45 168 45h195q40 0 84.5 -6.5t82.5 -24t63 -49t25 -82.5v-368q32 38 63.5 78t73.5 91l143 -173v328q0 113 72 160q73 46 180 46h168q39 0 84 -4.5t84 -25t65 -62.5t26 -116v-489h-170z" />
    <glyph glyph-name="nsuperior" 
d="M-228 -1412v420q0 68 -26 94q-29 24 -100 24h-85q-71 0 -94 -26q-22 -28 -22 -106v-406h-195l-128 174l-141 -174h-169v416q0 45 -10.5 69.5t-30.5 36.5t-48.5 14t-63.5 2h-59q-72 0 -95 -32q-23 -35 -27 -84v-287q1 -3 19 -3q49 0 70 22.5t21 49.5q0 28 -11 28
q-10 0 -25 5.5t-29.5 19t-24.5 35.5t-10 56q0 41 9 64.5t22.5 35.5t27.5 15t25 3h24q38 0 60 -29.5t28 -96.5v-18q0 -25 -5.5 -59t-18 -69.5t-31.5 -70.5t-46.5 -62t-63.5 -44t-81 -17h-21q-17 0 -36 7t-35.5 19t-27.5 27.5t-11 32.5v358q0 58 15 98.5t44 65t71.5 35.5
t97.5 11h195q40 0 84.5 -6t82.5 -24t63 -50.5t25 -85.5v-316q32 40 63.5 81t73.5 95l143 -174v268q0 61 19 102t52.5 65.5t79.5 34.5t101 10h168q39 0 84 -4.5t84 -25.5t65 -64t26 -120v-440h-172z" />
    <glyph glyph-name="peseta" horiz-adv-x="3192" 
d="M2990 1132v-1130h-168v1086q0 44 -20 75.5t-51.5 51.5t-69.5 29.5t-74 9.5h-72q-36 0 -75.5 -5t-73.5 -22t-56 -49t-22 -86v-1090h-171v1086q0 45 -18 76t-46.5 50.5t-64 28.5t-70.5 9h-72q-48 0 -91 -10t-75.5 -32.5t-52 -58t-19.5 -86.5v-1063h-174l-255 217
q-3 0 -41 -35q-19 -16 -40 -35t-45 -39q-29 -24 -58.5 -51t-63.5 -57h-172v1088q0 49 -22 80.5t-55 49.5t-72.5 25t-74.5 7h-71q-36 0 -74 -9t-69.5 -28.5t-51.5 -51.5t-20 -77v-945q27 0 47.5 15t34.5 35.5t21 42t7 35.5q0 19 -9 19q-11 0 -26 5.5t-28.5 20t-23.5 38.5
t-10 62q0 54 11.5 83.5t27.5 44t32 17t24 2.5h19q26 0 47.5 -11.5t37 -32.5t24 -50t8.5 -63q0 -77 -27 -149t-68.5 -128.5t-91.5 -90.5t-96 -34h-38q-30 0 -62 23q-31 25 -31 65v1040q0 63 35.5 112.5t89 84t116 53t115.5 18.5h118q20 0 46 -3t58 -8t63 -15t62 -26
q61 -29 105 -82t44 -134v-942l244 214l263 -212v938q0 85 45 136q46 53 105 82q32 16 63 26t63 15t58.5 8t46.5 3h114q56 0 131 -26q70 -26 129 -84q31 31 74 52.5t87.5 34.5t84.5 19t64 6h109q46 0 100 -18t99 -47q30 -19 58.5 -39.5t56.5 -59.5q14 -19 22 -34t12.5 -27
t6.5 -22.5t3 -20.5z" />
    <glyph glyph-name="IJ" horiz-adv-x="3192" 
d="M3038 1408q0 -64 -15 -128t-37 -118q2 -9 3 -17.5t1 -12.5v-1130h-168v1086q0 44 -20 75.5t-51.5 51.5t-69.5 29.5t-74 9.5h-72q-36 0 -75.5 -5t-73.5 -22t-56 -49t-22 -86v-1090h-171v1086q0 45 -18 76t-46.5 50.5t-64 28.5t-70.5 9h-72q-48 0 -91 -10t-75.5 -32.5
t-52 -58t-19.5 -86.5v-1063h-174l-255 217q-3 0 -41 -35q-19 -16 -40 -35t-45 -39q-29 -24 -58.5 -51t-63.5 -57h-172v1088q0 49 -22 80.5t-55 49.5t-72.5 25t-74.5 7h-71q-36 0 -74 -9t-69.5 -28.5t-51.5 -51.5t-20 -77v-945q27 0 47.5 15t34.5 35.5t21 42t7 35.5
q0 19 -9 19q-11 0 -26 5.5t-28.5 20t-23.5 38.5t-10 62q0 54 11.5 83.5t27.5 44t32 17t24 2.5h19q26 0 47.5 -11.5t37 -32.5t24 -50t8.5 -63q0 -77 -27 -149t-68.5 -128.5t-91.5 -90.5t-96 -34h-38q-30 0 -62 23q-31 25 -31 65v1040q0 63 35.5 112.5t89 84t116 53
t115.5 18.5h118q20 0 46 -3t58 -8t63 -15t62 -26q61 -29 105 -82t44 -134v-942l244 214l263 -212v938q0 85 45 136q46 53 105 82q32 16 63 26t63 15t58.5 8t46.5 3h114q56 0 131 -26q70 -26 129 -84q31 31 74 52.5t87.5 34.5t84.5 19t64 6h109q31 0 65.5 -8t68.5 -22.5
t64.5 -34t53.5 -43.5q2 9 4 20.5t4 27.5t3 27t1 19q0 38 -12 83t-40 83l-4 10q-8 12 -16 12l-42 -6h-32q-48 6 -72.5 36t-24.5 73v4q0 32 11 57t30 42.5t45 26.5t55 9q79 0 138 -66q54 -57 80 -153t26 -189z" />
    <glyph glyph-name="ij" unicode="&#x178f;" horiz-adv-x="1298" 
d="M1050 1025l-245 176l-184 -166h-50l-220 167l-105 -97q16 -13 36.5 -28t44.5 -34q23 -20 42 -35t33 -27q16 13 63 24q27 5 49 8t39 3h118q20 0 45.5 -3t57.5 -8q33 -5 64.5 -15.5t61.5 -24.5q63 -31 106 -82q44 -53 44 -136v-747h-171v703q0 49 -22 81.5t-55.5 51.5
t-73 27t-75.5 8h-74q-36 0 -73 -6.5t-67 -23.5t-49.5 -46t-19.5 -74v-580q27 0 47 15t33.5 35.5t20 42t6.5 35.5q0 19 -8 19q-10 0 -25 5.5t-29 20t-24 38.5t-10 60q0 54 12.5 83.5t28.5 44t32 17t23 2.5h7q58 0 93.5 -40.5t35.5 -116.5q0 -77 -27 -149t-68 -128t-90.5 -90
t-95.5 -35h-40q-31 0 -63 23q-29 26 -29 65v661q0 45 13.5 78.5t38.5 60.5l-153 126v112l269 272h47l236 -180l176 180h38l214 -176q13 -10 30 -10q16 0 36 12l35 -52z" />
    <glyph glyph-name="napostrophe" 
d="M-421 -792v424q0 44 -21.5 72t-54.5 43.5t-72.5 21.5t-74.5 6h-72q-36 0 -73.5 -6t-69 -20.5t-51.5 -40t-20 -64.5v-304q13 -7 28 -7q16 0 33 11q17 12 25 29t8 33q0 14 -8 14q-23 0 -48 22q-28 19 -28 72q0 42 10.5 65t24.5 33t27.5 11.5t19.5 1.5h16q48 0 74 -33
t26 -84q0 -56 -21.5 -110t-56 -96t-78.5 -68t-90 -26h-40q-33 0 -61 24q-31 24 -31 60v375q0 58 32.5 102t82 74t108.5 45t113 15h175q27 0 62.5 -4t73.5 -14.5t74.5 -27.5t65.5 -43.5t46.5 -63t17.5 -85.5v-457h-172z" />
    <glyph glyph-name="minute" 
d="M-421 -1407v362q0 44 -21.5 72.5t-54.5 44.5t-72.5 22t-74.5 6h-72q-36 0 -73.5 -8t-69 -26t-51.5 -46.5t-20 -68.5v-225q13 -6 28 -6q12 0 33 8q17 15 25 31t8 30q0 17 -8 17q-10 0 -23 4.5t-25 15.5t-20 29.5t-8 47.5q0 42 10.5 65t24.5 33.5t27.5 12.5t19.5 2h16
q48 0 74 -34t26 -88q0 -57 -21.5 -111.5t-56 -96.5t-79 -67.5t-89.5 -25.5h-40q-30 0 -61 25q-31 24 -31 61v312q0 57 32.5 102t82 76t108.5 47t113 16h170q42 0 99.5 -10t112.5 -36q27 -14 50.5 -32.5t41.5 -42.5t28.5 -54.5t10.5 -67.5v-396h-170z" />
    <glyph glyph-name="second" horiz-adv-x="1929" 
d="M1721 1140l4 -12v-1128h-169v1008l-416 206l-303 -177h-32l-323 179l-219 -128q32 -21 67.5 -50.5t62.5 -52.5l9 -6q17 14 63 25q27 5 49 7.5t39 2.5h118q19 0 45.5 -3t57.5 -7q32 -5 63.5 -15t61.5 -26q61 -32 105 -82q44 -53 44 -136v-745h-169v701q0 49 -22 81
t-55.5 51.5t-73 27.5t-75.5 8h-74q-36 0 -74 -10t-68.5 -31t-50.5 -53.5t-20 -77.5v-554q26 0 46.5 15t35 35.5t22 42.5t7.5 36q0 18 -8 18q-10 0 -25 5.5t-29 20t-24 38.5t-10 60q0 54 12.5 83.5t28.5 44t32 17t23 2.5h7q58 0 93.5 -40.5t35.5 -116.5q0 -51 -12.5 -100.5
t-33.5 -94t-49 -83t-59 -66.5t-63.5 -44t-63.5 -16h-40q-34 0 -64 24q-30 25 -30 66v657q0 45 14.5 78.5t39.5 60.5l-153 126v116l427 270h38l315 -186l312 186h38z" />
    <glyph glyph-name="afii61248" horiz-adv-x="1925" 
d="M1782 1404q0 -63 -20 -140q-18 -67 -41 -124l4 -12v-1128h-169v1008l-416 206l-303 -177h-32l-323 179l-219 -128q32 -21 67.5 -50.5t62.5 -52.5l9 -6q18 15 63 25q27 5 49 7.5t39 2.5h118q19 0 45.5 -3t57.5 -7q32 -5 63.5 -15t61.5 -26q60 -31 105 -82q44 -53 44 -136
v-745h-169v701q0 49 -22 81t-55.5 51.5t-73 27.5t-75.5 8h-74q-36 0 -74 -10t-68.5 -31t-50.5 -53.5t-20 -77.5v-554q26 0 46.5 15t35 35.5t22 42.5t7.5 36q0 18 -8 18q-10 0 -25 5.5t-29 20t-24 38.5t-10 60q0 54 12.5 83.5t28.5 44t32 17t23 2.5h7q58 0 93.5 -40.5
t35.5 -116.5q0 -51 -12.5 -100.5t-33.5 -94t-49 -83t-59 -66.5t-63.5 -44t-63.5 -16h-40q-34 0 -64 24q-30 25 -30 66v657q0 45 14.5 78.5t39.5 60.5l-153 126v116l427 270h38l315 -186l312 186h38l363 -178q8 18 16 38.5t16 43.5q15 43 15 80q0 38 -11.5 84t-39.5 82
q-10 11 -14 16.5t-10 5.5q-5 0 -12.5 -2t-25.5 -4h-16q-6 0 -16 2q-46 4 -77 33.5t-31 74.5v3q0 66 46 100q47 35 106 35q79 0 139 -66q52 -55 78 -151q27 -93 27 -191z" />
    <glyph glyph-name="afii61289" unicode="&#x1790;" horiz-adv-x="1365" 
d="M1162 183q0 -183 -169 -183h-513q-48 0 -80 17t-52 43t-28.5 56t-8.5 56v745q0 24 -28 40q-27 15 -58 15q-23 0 -38 -10.5t-31 -20.5l-86 119l433 338h36q81 -54 136 -90.5t99.5 -63t85.5 -46t93 -39.5q19 0 21 2q21 4 35.5 15t23.5 25t13 30.5t4 32.5q0 28 -11.5 47
t-24.5 19q-11 0 -30 -5t-47 -5q-7 0 -13 0.5t-11 1.5q-48 6 -72 35.5t-26 74.5v5q0 63 49 97t108 34h4q48 0 83 -19t58 -50.5t34 -72.5t11 -84q0 -72 -20.5 -133.5t-57 -107t-88 -71.5t-113.5 -26q-20 0 -45 6t-69.5 26.5t-114.5 59.5t-181 106l-132 -91q36 -4 62 -20.5
t43 -37.5t25.5 -44t8.5 -39v-701q0 -42 12 -67.5t31 -39t42 -17.5t45 -4h251q50 0 91 24q39 22 39 100v490q0 18 -8.5 31t-29.5 13q-16 0 -29 -14t-22.5 -34t-15 -41t-5.5 -35q0 -18 7 -18q10 0 25 -5.5t29 -20t24 -38.5t10 -61q0 -60 -25 -101.5t-76 -47.5h-28
q-11 0 -28 11.5t-33.5 32t-28.5 49.5t-12 65q0 76 24 148.5t62 128.5t85 90.5t92 34.5h59q34 0 64 -27q31 -28 31 -61v-672z" />
    <glyph glyph-name="H22073" 
d="M-29 -664q-33 -46 -70.5 -63t-64.5 -17q-45 -1 -79 20t-61.5 55.5t-51 79t-47.5 91t-51 91t-62 79t-80 55.5t-106 20q-32 0 -60 -5t-62 -22q-70 -37 -70 -99q0 -41 21 -70t65 -29h6l10 -8q12 -9 23.5 -17.5t20.5 -22t14.5 -34t5.5 -52.5q0 -45 -16.5 -75.5t-41 -49
t-53.5 -26t-53 -7.5h-13q-37 2 -72 18t-62 47.5t-43 80t-16 115.5q0 189 109 291q107 101 287 101q92 0 162.5 -21.5t125.5 -56.5t96 -80t73 -92q32 -48 56 -93.5t45 -80.5t41.5 -56t45.5 -21h6z" />
    <glyph glyph-name="H18543" 
d="M-27 -1284q-16 -23 -34 -38.5t-36 -24.5t-35 -13t-30 -4q-45 0 -79 21.5t-61.5 57.5t-51 82t-47.5 95q-25 47 -52.5 92.5t-62.5 81.5t-80.5 58t-105.5 22q-32 0 -60 -5.5t-62 -22.5q-34 -18 -52 -52t-18 -66q0 -42 20.5 -70t65.5 -28h6l10 -7q11 -8 22.5 -17t20.5 -23
t15 -34.5t6 -51.5q0 -46 -16.5 -76.5t-41 -48.5t-53.5 -25.5t-53 -7.5h-13q-37 2 -72 17.5t-62.5 47t-44 80t-16.5 116.5q0 94 28.5 170t80.5 129t125.5 82t163.5 29q92 0 162.5 -22.5t125.5 -59t96 -83.5t73 -95q31 -48 55.5 -94.5t46.5 -83t43 -59t45 -22.5h6z" />
    <glyph glyph-name="H18551" horiz-adv-x="2056" 
d="M1162 1340v-25v-13t-1 -12l285 108h38l355 -266v-1132h-169v1010l-273 204l-295 -90q-4 -7 -10 -13t-9 -13q-37 -45 -89 -70t-115 -25q-21 0 -46 5.5t-68.5 25.5t-113 59.5t-178.5 107.5l-132 -92q35 -4 61.5 -20.5t44 -37.5t26.5 -44t9 -39v-699q0 -42 11 -67.5
t28.5 -39t39.5 -17.5t45 -4h251q25 0 49 4.5t43 18t30.5 38t11.5 63.5v488q0 18 -10.5 31t-31.5 13q-16 0 -28 -11t-20.5 -27t-13 -34t-4.5 -32q0 -20 7 -20q10 0 25 -6t29.5 -20t24.5 -38.5t10 -61.5q0 -58 -25.5 -99.5t-76.5 -47.5h-34q-13 0 -29.5 11t-31.5 31.5
t-25 49.5t-10 65q0 75 23 144.5t60 122.5t83 85t91 32h59q33 0 66 -27q33 -29 33 -62v-669q0 -91 -45 -137t-132 -46h-505q-48 0 -80 17t-52 43t-28.5 56t-8.5 56v743q0 12 -7.5 22t-19.5 17.5t-27 11.5t-30 4q-25 0 -40 -9.5t-31 -21.5l-86 119l429 340h36q80 -64 140 -108
t108 -72.5t87.5 -42.5t78.5 -18q19 0 21 2q21 4 35.5 15t23.5 25t13 30.5t4 32.5q0 28 -11.5 47t-24.5 19q-11 0 -30 -4.5t-48 -4.5h-13.5t-9.5 1q-48 6 -72 35.5t-27 74.5v4q0 64 49 98q52 34 109 34h4q47 0 82.5 -19t59.5 -50.5t36 -72t12 -84.5z" />
    <glyph glyph-name="H18533" horiz-adv-x="2062" 
d="M1162 1340v-25v-13t-1 -12l285 108h38l216 -169l6 17q7 19 15 40t14.5 40.5t10.5 37t4 31.5q0 55 -12.5 92t-37.5 72q-8 11 -14.5 17t-17.5 6q-12 0 -33 -6h-13q-4 0 -8.5 0.5t-9.5 1.5q-48 4 -76 32t-28 76v4q0 63 45 99q47 35 105 35q79 0 138 -65q51 -57 77 -152
q26 -96 26 -191q0 -26 -8 -62t-18.5 -73.5t-22 -72.5t-18.5 -57l15 -19v-1132h-169v1010l-273 204l-295 -90q-4 -7 -10 -13t-9 -13q-37 -45 -89 -70t-115 -25q-21 0 -46 5.5t-68.5 25.5t-113 59.5t-178.5 107.5l-132 -92q35 -4 61.5 -20.5t44 -37.5t26.5 -44t9 -39v-699
q0 -42 11 -67.5t28.5 -39t39.5 -17.5t45 -4h251q25 0 49 4.5t43 18t30.5 38t11.5 63.5v488q0 18 -10.5 31t-31.5 13q-16 0 -28 -11t-20.5 -27t-13 -34t-4.5 -32q0 -20 7 -20q10 0 25 -6t29.5 -20t24.5 -38.5t10 -61.5q0 -58 -25.5 -99.5t-76.5 -47.5h-34q-13 0 -29.5 11
t-31.5 31.5t-25 49.5t-10 65q0 75 23 144.5t60 122.5t83 85t91 32h59q33 0 66 -27q33 -29 33 -62v-669q0 -91 -44.5 -137t-132.5 -46h-505q-48 0 -80 17t-52 43t-28.5 56t-8.5 56v743q0 12 -7.5 22t-19.5 17.5t-27 11.5t-30 4q-25 0 -40 -9.5t-31 -21.5l-86 119l429 340h36
q80 -64 140 -108t108 -72t87.5 -42.5t78.5 -18.5q19 0 21 2q21 4 35.5 15t23.5 25t13 30.5t4 32.5q0 28 -11.5 47t-24.5 19q-11 0 -30 -4.5t-48 -4.5q-18 0 -23 1q-48 6 -72 35.5t-27 74.5v4q0 64 49 98q52 34 109 34h4q47 0 82.5 -19t59.5 -50.5t36 -72.5t12 -84z" />
    <glyph glyph-name="openbullet" unicode="&#x1791;" horiz-adv-x="1245" 
d="M1039 833q0 -20 -13 -40t-31.5 -36.5t-39 -27t-34.5 -10.5h-38q-46 0 -91 12.5t-81 43t-58 81t-22 125.5q0 38 9.5 66.5t25.5 48t36.5 29t42.5 9.5q44 0 77 -33q34 -31 34 -110q0 -37 -8.5 -61.5t-21 -38.5t-26.5 -20t-25 -6q-8 -2 -8 -13q0 -9 11 -20t32 -13h7
q10 -2 22 -2q13 0 20.5 8t7.5 32v227q0 45 -18.5 77t-48 51.5t-66 28.5t-71.5 9h-95q-36 0 -73.5 -6.5t-68 -24.5t-50 -49t-19.5 -80v-287q0 -60 28.5 -101.5t73.5 -68t101 -39.5t111 -17h56q0 20 11 37t27 30t33.5 21t30.5 10q13 4 36 4q41 0 82 -23q40 -21 54 -75
q2 -10 2.5 -18t0.5 -12q0 -23 -11.5 -46t-31 -41.5t-44 -30.5t-50.5 -14v-276q0 -42 -16 -69.5t-38.5 -44t-45.5 -23t-38 -6.5h-220q-15 0 -40.5 7.5t-50.5 24t-43 43.5t-18 66v255l68 29h46l57 -32v-181q0 -31 22.5 -52t56.5 -22h30q32 0 47 21.5t15 56.5v213h-56
q-46 4 -97.5 12.5t-102 23.5t-97 38.5t-82 57t-56.5 79t-21 105.5v383q0 43 10.5 76.5t28.5 59.5t42.5 46t51.5 35q28 15 57.5 25t57.5 15q58 12 100 12h155q55 0 116 -17.5t113 -51t86 -83.5t34 -115v-297z" />
    <glyph glyph-name="Amacron" 
d="M-299 -792h-71l-51 32v198q-18 -29 -49.5 -51.5t-69.5 -39t-79.5 -25.5t-78.5 -10h-152q-52 0 -97.5 12.5t-79.5 34t-53.5 49.5t-19.5 60v136q0 68 45 103q48 36 115 55q34 9 86 14.5t109.5 11l115 11t103.5 14.5q32 8 52 14.5t31.5 13.5t15.5 13.5t4 14.5q0 4 -0.5 7
t-1.5 7v18h174v-48q0 -22 -13.5 -42t-42.5 -44q-22 -20 -51.5 -34t-63.5 -24t-71.5 -16.5t-75.5 -10.5q-39 -5 -77.5 -9t-74.5 -8.5t-69 -10t-60 -14.5q-34 -10 -57 -32t-23 -50v-30q0 -35 29 -67q30 -33 77 -33h124q47 0 96.5 19t90 49t66.5 66.5t26 71.5v23l61 30h49
l60 -28v-419z" />
    <glyph glyph-name="amacron" 
d="M-297 -1410h-73l-51 32v108q-17 -27 -48.5 -49.5t-70 -39t-80 -26t-78.5 -9.5h-152q-52 0 -97.5 13t-79.5 34t-53.5 48.5t-19.5 56.5v132q0 66 45 99q23 17 51.5 30.5t63.5 23.5q34 9 86 14t109.5 9.5t115 10.5t103.5 17q63 15 85 33t22 34q0 2 -0.5 5t-1.5 8v19h168v-34
q0 -11 -3 -25t-9.5 -29.5t-16.5 -30.5t-25 -27q-23 -20 -52.5 -33.5t-63.5 -23t-71.5 -15.5t-74.5 -10q-39 -5 -77.5 -9t-74.5 -8t-69 -9.5t-60 -14.5q-34 -11 -57 -31t-23 -47v-30q0 -34 27.5 -55t76.5 -21h124q47 0 96.5 15.5t90 41t66.5 57.5t26 65v23l61 28h51l60 -26
v-322z" />
    <glyph glyph-name="Ccircumflex" horiz-adv-x="1919" 
d="M1700 1149l15 -19v-1130h-169v1012l-276 204l-231 -143v-240q0 -20 -13 -40t-31.5 -36.5t-39 -27t-34.5 -10.5h-38q-46 0 -91 12.5t-81 43t-58 81t-22 125.5q0 38 9.5 66.5t25.5 48t36.5 29t42.5 9.5q44 0 77 -33q34 -31 34 -110q0 -37 -8.5 -61.5t-21 -38.5t-26.5 -20
t-25 -6q-8 -2 -8 -13q0 -9 11 -20t32 -13h7q5 -1 10.5 -1.5t11.5 -0.5q13 0 20.5 8t7.5 32v227q0 45 -18.5 77t-48 52.5t-66 29.5t-71.5 9h-95q-36 0 -73.5 -7t-68 -25.5t-50 -50t-19.5 -79.5v-287q0 -60 28.5 -101.5t73.5 -68t101 -39.5t111 -17h56q0 20 11 37t27 30
t33.5 21t30.5 10q12 4 36 4q41 0 82 -23q40 -21 54 -75v-30q0 -23 -11.5 -46t-30.5 -41.5t-43 -30.5t-49 -14v-276q0 -42 -16 -69.5t-38.5 -44t-45.5 -23t-38 -6.5h-220q-15 0 -40.5 7.5t-50.5 24t-43 43.5t-18 66v255l68 29h46l57 -32v-181q0 -31 22.5 -52t56.5 -22h30
q32 0 47 21.5t15 56.5v213h-56q-46 4 -97.5 12.5t-102 23.5t-97 38.5t-82 57t-56.5 79t-21 105.5v383q0 85 39 136q20 26 43 47t51 35q28 16 56.5 26t58.5 15q31 5 55.5 8t44.5 3h155q46 0 95.5 -12t95.5 -35.5t84 -58t60 -78.5l295 184h39z" />
    <glyph glyph-name="ccircumflex" horiz-adv-x="1920" 
d="M1759 1418q0 -26 -6 -63t-15 -75.5t-19.5 -73.5t-18.5 -57l15 -19v-1130h-169v1012l-276 204l-231 -143v-240q0 -20 -13 -40t-31.5 -36.5t-39 -27t-34.5 -10.5h-38q-46 0 -91 12.5t-81 43t-58 81t-22 125.5q0 38 9.5 66.5t25.5 48t36.5 29t42.5 9.5q44 0 77 -33
q34 -31 34 -110q0 -37 -8.5 -61.5t-21 -38.5t-26.5 -20t-25 -6q-8 -2 -8 -13q0 -9 11 -20t32 -13h7q5 -1 10.5 -1.5t11.5 -0.5q13 0 20.5 8t7.5 32v227q0 45 -18.5 77t-48 52.5t-66 29.5t-71.5 9h-95q-36 0 -73.5 -7t-68 -25.5t-50 -50t-19.5 -79.5v-287q0 -60 28.5 -101.5
t73.5 -68t101 -39.5t111 -17h56q0 20 11 37t27 30t33.5 21t30.5 10q12 4 36 4q41 0 82 -23q40 -21 54 -75v-30q0 -23 -11.5 -46t-30.5 -41.5t-43 -30.5t-49 -14v-276q0 -42 -16 -69.5t-38.5 -44t-45.5 -23t-38 -6.5h-220q-15 0 -40.5 7.5t-50.5 24t-43 43.5t-18 66v255
l68 29h46l57 -32v-181q0 -31 22.5 -52t56.5 -22h30q32 0 47 21.5t15 56.5v213h-56q-46 4 -97.5 12.5t-102 23.5t-97 38.5t-82 57t-56.5 79t-21 105.5v383q0 85 39 136q20 26 43 47t51 35q28 16 56.5 26t58.5 15q31 5 55.5 8t44.5 3h155q46 0 95.5 -12t95.5 -35.5t84 -58
t60 -78.5l295 184h39l217 -172q8 19 15 42.5t12.5 47.5t9 45.5t3.5 35.5q0 55 -11 92t-37 73q-9 10 -14.5 16t-17.5 6q-13 0 -32 -6h-14q-4 0 -8.5 0.5t-9.5 1.5q-96 10 -96 108v4q0 32 11 57t30.5 42t45 26t54.5 9q80 0 139 -65q52 -57 77 -152q26 -96 26 -191z" />
    <glyph glyph-name="Cdot" unicode="&#x1792;" horiz-adv-x="1298" 
d="M1092 1025l-235 176l-184 -166h-48l-223 164l-133 -101q16 -14 33.5 -31t38.5 -36q21 -20 39 -36t32 -29v-756l253 255l256 -257v545q0 18 -9 31t-31 13q-16 0 -28 -10t-20.5 -24t-13 -29.5t-4.5 -26.5q0 -16 8 -16q10 0 25 -6t29 -20t24 -38.5t10 -60.5q0 -59 -25 -101
t-78 -48l-17 -2q-60 4 -86 47t-26 113q0 76 23 143t60 116.5t83 78t92 28.5h64q35 0 62 -27q29 -29 29 -62v-852h-179l-256 256l-249 -256h-166v890q-10 9 -31.5 27.5t-44 38.5t-42 37t-25.5 23v122l332 260h38l236 -180l180 180h38l213 -176q16 -10 30 -10q16 0 36 12
l39 -52z" />
    <glyph glyph-name="cdot" 
d="M-423 -297q-97 -36 -198 -65t-201 -50l-28 -11q-36 -10 -57 -32.5t-21 -51.5v-53q0 -36 22 -45t70 -9h24q36 0 63 37t43 97q6 24 6 46q24 3 37 5t21 2q10 0 10 -4q2 -5 7 -14t9 -18l2 -8q7 -16 15.5 -34t21.5 -37q23 -37 70 -41h4q28 0 44 17t24.5 44t11 59.5t2.5 64.5
q0 21 -1 41t-1 35v25zM-251 -408q0 -40 -4.5 -83t-14.5 -84t-27.5 -78.5t-43.5 -65.5t-62 -45t-83 -18h-4q-27 0 -55 9t-51.5 22.5t-41.5 29t-26 29.5q-9 16 -20 16q-8 0 -14 -10q-11 -15 -28.5 -34.5t-38.5 -36t-44 -28t-45 -11.5h-68q-37 0 -69.5 15t-56.5 40t-38 56
t-14 63v163q0 34 12 60t33.5 45.5t50.5 33t64 23.5q34 13 86 22.5t110 18t115.5 18t103.5 23.5t75 33t29 47v36h170v-309z" />
    <glyph glyph-name="Emacron" 
d="M-423 -912q-97 -36 -198.5 -65t-200.5 -50l-38 -11q-36 -10 -53 -33t-17 -51v-27q0 -36 23 -45.5t71 -9.5h24q36 0 63 25t43 83q6 24 6 46q85 16 86 4q2 -14 12 -32l2 -8q6 -18 12.5 -37t17 -34.5t25.5 -26.5t38 -14h4q28 0 44 17.5t24.5 44.5t11 59.5t2.5 62.5
q0 22 -1 42t-1 34v26zM-249 -1014q0 -60 -10 -123.5t-36.5 -116.5t-72 -87.5t-116.5 -36.5h-4q-25 0 -53 7.5t-53 19.5t-44 26t-26 27q-18 25 -34 6q-12 -13 -30 -27.5t-42 -27.5q-50 -29 -94 -29h-64q-36 0 -67.5 15t-55 39.5t-36.5 56t-13 63.5v138q0 66 42 104.5
t113 56.5q36 6 89 14.5t111 19.5t116 24t104 28t75 32t29 35v22h172v-286z" />
    <glyph glyph-name="emacron" horiz-adv-x="1929" 
d="M1725 1138l5 -10v-1128h-171v1006l-358 206l-362 -177h-32l-319 179q-219 -126 -219 -143l32 -36q19 -21 38 -41t33 -31v-755l253 244l256 -246v543q0 18 -12 31t-34 13q-30 0 -49 -28q-18 -29 -18 -46q0 -12 9 -12q10 0 25 -6t29 -20t24 -38.5t10 -61.5q0 -58 -25 -99.5
t-77 -48.5h-14q-58 0 -85 44t-27 114q0 75 21.5 138t56 109.5t78.5 72.5t90 26h72q35 0 65 -27q32 -29 32 -62v-848h-183l-252 254l-249 -254h-166v886q-11 7 -26 21.5t-30 30.5t-28 30.5t-19 20.5v139l433 269h38l313 -187l367 187h38z" />
    <glyph glyph-name="Ebreve" horiz-adv-x="1929" 
d="M1788 1402q0 -70 -21 -140q-20 -73 -42 -124l5 -10v-1128h-171v1006l-358 206l-362 -177h-32l-319 179q-219 -126 -219 -143l32 -36q19 -21 38 -41t33 -31v-755l253 244l256 -246v543q0 18 -12 31t-34 13q-30 0 -49 -28q-18 -29 -18 -46q0 -12 9 -12q10 0 25 -6t29 -20
t24 -38.5t10 -61.5q0 -58 -25 -99.5t-77 -48.5h-14q-58 0 -85 44t-27 114q0 75 21.5 138t56 109.5t78.5 72.5t90 26h72q35 0 65 -27q32 -29 32 -62v-848h-183l-252 254l-249 -254h-166v886q-11 7 -26 21.5t-30 30.5t-28 30.5t-19 20.5v139l433 269h38l313 -187l367 187h38
l309 -179q8 19 16.5 39.5t16.5 42.5q16 45 16 80q0 38 -12 84t-40 82q-10 11 -14 16.5t-10 5.5q-4 0 -12 -2t-26 -4h-16q-3 0 -7 0.5t-9 1.5q-23 2 -43 10.5t-35 23t-23.5 33t-8.5 41.5v3q0 64 47 99t107 35q80 0 139 -65q53 -56 78 -151q27 -93 27 -191z" />
    <glyph glyph-name="ebreve" unicode="&#x1793;" horiz-adv-x="1149" 
d="M951 162q0 -39 -11 -66.5t-28 -45.5t-37.5 -28t-39.5 -15t-34 -6t-20 -1h-238q-39 0 -72.5 14t-61.5 37t-51.5 51.5t-43.5 57.5q-15 19 -25.5 38t-19.5 38v-236h-170v568l55 29h56l59 -31v-67q7 -13 13 -25.5t12 -23.5q32 -67 70 -123t77 -97t77 -64t71 -23h112
q12 0 25.5 3t25.5 14.5t19.5 32.5t7.5 57v146q0 29 -21 49t-55 35q-35 12 -80 22.5t-95 22.5t-102.5 25.5t-101.5 31t-92 40.5t-74 53q-28 28 -43.5 64t-15.5 90v299q0 42 11 76t29 60.5t42 46.5t50 35q57 30 113 41t98 11h155q54 0 116.5 -18.5t115 -53t87.5 -84t35 -112.5
v-339q0 -40 -33 -70q-35 -30 -68 -30h-47q-47 0 -94.5 17.5t-85.5 54t-62 92t-24 132.5q0 76 42 108q42 33 86 33q43 0 75 -26q31 -25 31 -103q0 -37 -9.5 -61.5t-23.5 -39.5t-29.5 -21t-27.5 -6q-6 -5 -6 -12q0 -14 13 -33t33 -29q12 -6 22 -6q36 0 36 48v247
q0 45 -19.5 77t-50 51.5t-67.5 28.5t-72 9h-97q-35 0 -71.5 -7t-66 -25t-48 -49.5t-18.5 -80.5v-204q0 -34 9.5 -58.5t24.5 -46.5q34 -40 92 -65t126.5 -43t140 -32t131.5 -31q68 -23 113 -61t45 -114v-273z" />
    <glyph glyph-name="Edot" 
d="M-640 -306h-189q-46 0 -72 -11q-31 -12 -31 -49q0 -34 34 -45q29 -12 71 -12h187v117zM-381 -574q0 18 -15.5 29t-37.5 11t-39 -11t-17 -29q0 -20 15.5 -33.5t40.5 -13.5q24 0 38.5 13.5t14.5 33.5zM-15 -235q-62 -50 -111 -60q-53 -11 -97 -11h-238v-119l38 2
q88 0 131 -36.5t43 -96.5v-4q0 -29 -11.5 -57t-35 -51t-58.5 -37.5t-82 -14.5q-98 0 -152 31.5t-54 103.5v21h-214q-105 0 -172 41q-72 40 -72 123v47q0 68 70 117q67 49 182 49h208v62q0 6 8 11t20.5 8.5t28.5 5t32 1.5t30.5 -1.5t30.5 -5.5q29 -7 29 -19v-62h212
q48 0 77 5q33 7 75 37z" />
    <glyph glyph-name="edot" 
d="M-640 -996h-189q-46 0 -72 -11q-31 -12 -31 -49q0 -34 34 -45q29 -12 71 -12h187v117zM-381 -1264q0 18 -15.5 29t-37.5 11t-39 -11t-17 -29q0 -20 15.5 -33.5t40.5 -13.5q24 0 38.5 13.5t14.5 33.5zM-15 -925q-62 -50 -111 -60q-53 -11 -97 -11h-238v-119l38 2
q88 0 131 -36.5t43 -96.5v-4q0 -29 -11.5 -57t-35 -51t-58.5 -37.5t-82 -14.5q-98 0 -152 31.5t-54 103.5v21h-214q-105 0 -172 41q-72 40 -72 123v47q0 68 70 117q67 49 182 49h208v62q0 6 8 11t20.5 8.5t28.5 5t32 1.5t30.5 -1.5t30.5 -5.5q29 -7 29 -19v-62h212
q48 0 77 5q33 7 75 37z" />
    <glyph glyph-name="Gcircumflex" horiz-adv-x="1831" 
d="M951 787q0 -40 -33 -70q-35 -29 -68 -29h-43q-47 0 -94.5 17.5t-85.5 53.5t-62 91.5t-24 132.5q0 75 35 110t79 35q42 0 80 -29q36 -27 36 -106q0 -37 -9 -61.5t-22.5 -38.5t-28.5 -20t-26 -6q-6 -5 -6 -12q0 -14 13 -33t33 -29q12 -6 22 -6q32 0 32 48v249
q0 45 -18.5 77t-48 51.5t-66 28.5t-73.5 9h-96q-35 0 -72 -6.5t-67 -24.5t-49.5 -49.5t-19.5 -81.5v-205q0 -35 11.5 -59.5t26.5 -46.5q33 -39 91.5 -64.5t127 -43.5t140 -32t131.5 -31q70 -23 111 -61q43 -37 43 -114v-273q0 -55 -19 -86.5t-45 -47.5t-52 -20t-40 -4h-248
q-39 0 -72.5 14t-62.5 36t-53.5 50t-44.5 56q-15 20 -25.5 39t-19.5 37v-232h-170v557l59 30h56l55 -32v-67q2 -5 5.5 -12l7.5 -15l12 -23q32 -67 72.5 -122t83.5 -94.5t84.5 -61t76.5 -21.5h92q12 0 25.5 3t24.5 14.5t18.5 33.5t7.5 60v141q0 32 -19 51t-53 33t-79 25.5
t-95.5 22.5t-103.5 24t-102.5 29.5t-92.5 39t-74 53.5q-28 28 -44.5 65t-16.5 91v301q0 42 11 76t29 60.5t42 46.5t50 35q57 30 113 41.5t98 11.5h159q84 0 173 -40q91 -40 143 -116q5 -8 10 -18t10 -21l279 196h46l366 -270v-1128h-170v1006l-265 206l-242 -185v-240z" />
    <glyph glyph-name="gcircumflex" horiz-adv-x="1831" 
d="M951 787q0 -40 -33 -70q-35 -29 -68 -29h-43q-47 0 -94.5 17.5t-85.5 53.5t-62 91.5t-24 132.5q0 75 35 110t79 35q42 0 80 -29q36 -27 36 -106q0 -37 -9 -61.5t-22.5 -38.5t-28.5 -20t-26 -6q-6 -5 -6 -12q0 -14 13 -33t33 -29q12 -6 22 -6q32 0 32 48v249
q0 45 -18.5 77t-48 51.5t-66 28.5t-73.5 9h-96q-35 0 -72 -6.5t-67 -24.5t-49.5 -49.5t-19.5 -81.5v-205q0 -35 11.5 -59.5t26.5 -46.5q33 -39 91.5 -64.5t127 -43.5t140 -32t131.5 -31q70 -23 111 -61q43 -37 43 -114v-273q0 -55 -19 -86.5t-45 -47.5t-52 -20t-40 -4h-248
q-39 0 -72.5 14t-62.5 36t-53.5 50t-44.5 56q-15 20 -25.5 39t-19.5 37v-232h-170v557l59 30h56l55 -32v-67q2 -5 5.5 -12l7.5 -15l12 -23q32 -67 72.5 -122t83.5 -94.5t84.5 -61t76.5 -21.5h92q12 0 25.5 3t24.5 14.5t18.5 33.5t7.5 60v141q0 32 -19 51t-53 33t-79 25.5
t-95.5 22.5t-103.5 24t-102.5 29.5t-92.5 39t-74 53.5q-28 28 -44.5 65t-16.5 91v301q0 42 11 76t29 60.5t42 46.5t50 35q57 30 113 41.5t98 11.5h159q84 0 173 -40q91 -40 143 -116q5 -8 10 -18t10 -21l279 196h46l226 -176q7 19 15 43t15 47.5t11.5 44.5t4.5 35
q0 56 -12 93t-38 72q-8 11 -14 17t-18 6q-13 0 -32 -6h-14q-4 0 -8.5 0.5t-9.5 1.5q-48 4 -74 31.5t-26 75.5v5q0 65 43 99q44 35 103 35q79 0 138 -65q52 -57 77 -152q26 -96 26 -191q0 -25 -7 -62t-16.5 -76t-20.5 -74.5t-19 -56.5l16 -17v-1128h-170v1006l-265 206
l-242 -185v-240z" />
    <glyph glyph-name="Gdot" unicode="&#x1794;" horiz-adv-x="1395" 
d="M1210 1067h-13q-23 22 -45 39.5t-43 30.5q-41 26 -110 31q-17 0 -31.5 -10t-27 -24t-22.5 -28.5t-17 -22.5q14 2 28 3.5t28 1.5q49 0 88 -16.5t66.5 -41.5t42 -55.5t14.5 -57.5v-729q0 -91 -42 -139.5t-127 -48.5h-513q-48 0 -80 18t-51.5 44.5t-28 56.5t-8.5 55v643
q0 128 -99 128q-27 0 -46 -3t-30 -3q-5 0 -5 2q-10 20 -27 48.5t-41 70.5l273 338h36l198 -136q8 -8 33 -8q17 0 33 10l36 -52l-147 -149q-9 0 -27.5 16t-46 35.5t-63 35.5t-77.5 16q-28 0 -56 -30q-14 -14 -24.5 -26.5t-18.5 -23.5l-3 -5q16 2 31.5 3.5t30.5 1.5
q96 0 153 -51t57 -118v-645q0 -43 11.5 -69t30 -39.5t41 -18t44.5 -4.5h282q55 0 76 25q24 24 24 101v552q0 26 -7 49t-21 40.5t-35 28t-49 10.5h-35q-6 0 -14.5 -1t-18.5 -3l-64 117l274 338h38l189 -132q16 -10 32 -10q8 0 24 3t26 9l23 -54z" />
    <glyph glyph-name="gdot" horiz-adv-x="678" 
d="M469 1063h-14q-15 16 -29.5 28.5t-29.5 23.5q-28 19 -64 35t-78 16q-17 0 -32.5 -9.5t-28.5 -23t-23 -28t-16 -24.5q15 2 30.5 3.5t31.5 1.5q93 0 152 -51q57 -53 57 -118v-1569q0 -89 -39 -120q-41 -32 -94 -32h-193q-43 0 -63 17q-8 7 -17 20t-19 29q-35 -66 -122 -66
h-160q-26 0 -51 7t-45 23.5t-32.5 43.5t-12.5 68v416q0 42 33 65q35 23 68 23h42q46 0 87 -18t72 -52.5t49.5 -84t18.5 -112.5t-32 -98q-33 -33 -66 -33q-44 0 -67.5 16t-23.5 66q2 64 31 86q25 22 49 22q7 0 7 15q0 20 -15 44q-17 27 -45 27q-11 0 -17.5 -5t-11 -12.5
t-6.5 -15t-3 -13.5v-264q0 -30 12 -48t37 -18h69q22 0 39.5 14.5t17.5 45.5v55l37 32h91l36 -32v-57q0 -32 13 -47t47 -15h52q11 0 21.5 5.5t19 14t13.5 19t5 21.5v1417q0 66 -25.5 93t-73.5 27h-20q-12 0 -22 -4.5t-20 -4.5q-16 0 -26 19q-12 19 -26 45t-38 68l274 338h38
l195 -136q11 -8 32 -8t34 10l38 -52z" />
    <glyph glyph-name="Gcedilla" horiz-adv-x="678" 
d="M477 1063h-14q-15 16 -30 28.5t-29 23.5q-29 19 -66 35t-79 16q-16 0 -31 -9.5t-28 -23t-23.5 -28t-16.5 -24.5q16 2 31.5 3.5t29.5 1.5q94 0 153 -51q55 -52 55 -118v-2155q0 -38 -10.5 -65.5t-29 -45t-43.5 -26t-54 -8.5h-168q-45 0 -64 13q-17 13 -36 48
q-23 -36 -36 -48q-16 -13 -61 -13h-207q-26 0 -51 6t-45 21t-32.5 41t-12.5 67v465q0 41 33 64q35 20 68 20h42q46 0 87 -17.5t72 -51t49.5 -82t18.5 -110.5q0 -64 -32 -108q-35 -42 -66 -42q-91 0 -91 100q2 64 31 86q27 21 49 21q7 0 7 16q0 19 -13 45q-15 25 -43 25
q-22 0 -32 -17t-10 -29v-313q0 -30 15 -48t40 -18h83q22 0 39 15t17 45v129l38 13h91l38 -32v-112q0 -32 11 -48t45 -16h55q23 0 30.5 20t7.5 42v2003q0 54 -23.5 87t-71.5 33h-21q-11 0 -21 -4.5t-21 -4.5q-15 0 -25 19q-12 19 -26 45t-38 68l274 338h38l195 -136
q11 -8 32 -8t34 10l38 -52z" />
    <glyph glyph-name="gcedilla" horiz-adv-x="1929" 
d="M1730 0h-171v1008l-358 206l-358 -177h-33l-322 179l-229 -132q0 -2 12.5 -14.5t30.5 -29.5t37 -35.5t33 -30.5v-705q0 -42 12 -67.5t30.5 -39t41.5 -17.5t45 -4h246q19 0 42.5 10t43.5 30.5t34 50.5t14 69v448q-20 1 -33.5 9t-21 20t-10.5 28t-3 33l2 20q2 19 14.5 35.5
t29 28t33.5 18t29 6.5h36q32 0 64 -29q31 -30 31 -87v-942q0 -45 -22 -66t-54 -21h-15q-33 0 -56.5 19.5t-23.5 61.5v181q-16 -32 -44 -48t-80 -16h-387q-48 0 -80.5 17t-52 43t-27.5 56t-8 56v735q-11 9 -25.5 22.5t-29.5 27t-28 26t-20 18.5v137l433 260h38l313 -186
l367 186h38l442 -270v-1128z" />
    <glyph glyph-name="Hcircumflex" horiz-adv-x="1298" 
d="M939 0v1010l-340 206l-277 -135l105 -109v-1624q0 -89 -39 -120q-41 -32 -96 -32h-191q-45 0 -62 17q-19 18 -37 49q-9 -16 -18.5 -29t-17.5 -20q-20 -17 -61 -17h-187q-26 0 -51 6.5t-44.5 23t-31.5 44t-12 68.5v458q0 42 33 65q34 22 68 22h40q46 0 87 -18t72 -52
t49.5 -83.5t18.5 -112.5q0 -64 -32 -99q-34 -34 -66 -34q-45 0 -67 17t-22 66q0 31 8.5 52t20.5 33.5t25.5 18t23.5 5.5q7 0 7 15q0 18 -13 44q-15 27 -43 27q-10 0 -17.5 -5t-12.5 -12.5t-7.5 -15t-2.5 -13.5v-306q0 -30 14 -48t39 -18h63q22 0 39.5 14.5t17.5 45.5v85
l37 33h91l38 -33v-87q0 -64 70 -64h34q21 0 44 21q23 18 23 41v1511l-107 105v124l499 258h37l423 -260v-1138h-172z" />
    <glyph glyph-name="hcircumflex" horiz-adv-x="1298" 
d="M939 0v1010l-340 206l-277 -135l105 -109v-2249q0 -89 -39 -120q-41 -32 -96 -32h-191q-46 0 -62 16q-9 9 -18 21.5t-19 28.5q-19 -33 -36 -50q-17 -16 -61 -16h-187q-26 0 -51 6.5t-44.5 23t-31.5 43.5t-12 69v458q0 41 33 65q34 22 68 22h40q46 0 87 -18t72 -52
t49.5 -83.5t18.5 -112.5q0 -65 -32 -99q-35 -35 -66 -35q-45 0 -67 17.5t-22 66.5q0 31 8.5 52t20.5 33.5t25.5 18t23.5 5.5q7 0 7 15q0 18 -13 44q-15 26 -43 26q-10 0 -17.5 -5t-12.5 -12t-7.5 -14.5t-2.5 -13.5v-307q0 -29 14 -47t39 -18h63q22 0 39.5 14.5t17.5 45.5v85
l37 33h91l38 -33v-87q0 -64 70 -64h34q21 0 44 21q23 18 23 41v2136l-107 105v124l499 258h37l423 -260v-1138h-172z" />
    <glyph glyph-name="Hbar" horiz-adv-x="1934" 
d="M1792 1404q0 -62 -23 -140q-11 -33 -22 -64t-22 -60l5 -12v-1128h-171v1008l-358 206l-358 -177h-33l-322 179l-229 -132q6 -7 24.5 -27.5t38 -42.5t35 -37.5t15.5 -11.5v-698q0 -42 12.5 -67.5t31.5 -39t42 -17.5t43 -4h264q64 0 90 39.5t26 120.5v450q-20 1 -32.5 9
t-19.5 20t-9.5 27.5t-2.5 31.5l2 22q2 19 15 34t29.5 25t34 15.5t28.5 5.5h37q16 0 31.5 -10.5t28.5 -26.5t21 -35t8 -36v-953q0 -47 -25 -63.5t-61 -16.5q-33 0 -59 20t-26 62v181q-16 -31 -41 -46t-77 -15h-393q-48 0 -80.5 16.5t-52 42t-27.5 55t-8 56.5v718
q-12 17 -24 29.5t-22 25.5q-18 22 -34 41.5t-23 25.5v128l433 260h38l313 -186l367 186h38l313 -178q8 19 16.5 39.5t16.5 42.5q16 45 16 80q0 38 -12 84t-41 82q-9 11 -13 16.5t-10 5.5q-4 0 -12 -2t-26 -4h-16q-3 0 -7 0.5t-9 1.5q-48 4 -73 33.5t-25 74.5v3q0 32 11 57
t30.5 42.5t45.5 26.5t55 9q80 0 140 -66q52 -58 77 -151q27 -93 27 -191z" />
    <glyph glyph-name="hbar" horiz-adv-x="1298" 
d="M939 0v1010l-340 206l-277 -135l107 -109v-1624q0 -89 -40 -120q-41 -32 -97 -32h-189q-45 0 -62 17q-19 18 -37 49q-9 -16 -18.5 -29t-17.5 -20q-20 -17 -61 -17h-189q-26 0 -51 6.5t-44.5 23t-31.5 44t-12 68.5v479q0 42 32 65q35 23 67 23h42q46 0 87 -18t72 -52
t49.5 -83.5t18.5 -111.5q0 -66 -32 -101q-35 -35 -66 -35q-89 0 -89 100q0 31 8.5 49.5t20.5 28t25.5 12.5t23.5 3l7 17q0 17 -13 44q-15 25 -43 25q-20 0 -30 -17t-10 -29v-327q0 -30 14 -48t39 -18h65q22 0 39 14.5t17 45.5v106l38 31h129v-139q0 -15 7.5 -26.5
t20.5 -19.5t28.5 -12t32.5 -4q31 0 55.5 14t24.5 46v1511l-107 105v124l499 258h37l297 -184q11 23 21.5 49.5t21.5 56.5q22 62 22 108q0 38 -9.5 83.5t-37.5 82.5l-24 20l-38 -4q-70 4 -103 36.5t-33 74.5q0 51 40 94t108 43q75 0 135 -66q52 -58 78 -152q27 -92 27 -190
q0 -46 -8.5 -94t-21.5 -91t-27 -78.5t-25 -56.5v-1130h-172z" />
    <glyph glyph-name="Itilde" horiz-adv-x="1298" 
d="M939 0v1010l-340 206l-277 -135l107 -109v-2245q0 -88 -40 -119t-97 -31h-189q-46 0 -62 16q-20 20 -37 50q-9 -17 -18.5 -29.5t-17.5 -20.5q-19 -16 -61 -16h-189q-54 0 -96 30q-43 28 -43 109v417q0 42 32 66q34 23 67 23h42q93 0 151 -70q56 -68 56 -136
q0 -33 -6 -60.5t-16.5 -47.5t-25 -31t-30.5 -11q-89 0 -89 100q0 30 8.5 51t20.5 35q7 6 15.5 0t33.5 -37q7 0 7 15q0 17 -13 44q-15 26 -43 26q-20 0 -30 -17t-10 -29v-266q0 -30 14 -47.5t39 -17.5h57q23 0 43.5 14.5t20.5 44.5v151l38 31h91l38 -31v-153q0 -16 2.5 -29.5
t13 -24t31.5 -16.5t59 -6q49 5 56 28q7 24 7 47v2138l-107 99v124l499 258h37l299 -186q9 20 19.5 44.5t21.5 55.5q22 60 22 106q0 38 -9.5 84t-37.5 82q-10 11 -14 15.5t-10 4.5q-5 0 -12.5 -2.5t-25.5 -2.5l-32 2q-44 4 -80 34q-34 31 -34 75v3q0 65 49 99q47 35 109 35
q76 0 135 -65q52 -61 78 -151q27 -93 27 -191q0 -45 -8.5 -93.5t-21 -92t-27 -79t-25.5 -54.5v-1121h-172z" />
    <glyph glyph-name="itilde" unicode="&#x1795;" horiz-adv-x="1371" 
d="M1164 1342q0 -72 -20.5 -133.5t-58 -107t-89 -71.5t-113.5 -26q-79 0 -180 59l-244 139l-118 -91q36 -4 63 -20.5t44.5 -37.5t26.5 -44t9 -39v-762l251 255l258 -255v549q0 18 -11.5 31t-32.5 13q-29 0 -49 -26q-17 -26 -17 -40q0 -12 9 -12q10 0 25 -6.5t29 -21
t23.5 -38.5t9.5 -60q0 -58 -25.5 -99.5t-76.5 -47.5h-16q-57 0 -85.5 43t-28.5 115q0 74 22 135.5t57 106t79.5 69t89.5 24.5h72q33 0 65 -26q32 -27 32 -62v-855h-181l-256 254l-250 -254h-163v917q0 24 -28 40q-29 15 -59 15q-25 0 -40 -9.5t-31 -21.5l-86 119l412 340h44
q79 -62 141 -105.5t112 -72t92 -43.5t82 -20q16 -2 21 2q21 4 35.5 15t23.5 25t13 30.5t4 32.5q0 28 -11.5 47t-24.5 19q-11 0 -30 -5t-47 -5q-7 0 -13 0.5t-11 1.5q-48 6 -69 35.5t-21 74.5v5q0 64 45 97q46 34 104 34h4q48 0 83 -19t58.5 -50.5t35 -72.5t11.5 -84z" />
    <glyph glyph-name="Imacron" 
d="M-1100 -746v503q-2 14 -6.5 24.5t-33.5 10.5l-19 63q8 13 25 25q17 9 40.5 16t64.5 7q9 0 25.5 -3t33 -11.5t28.5 -22.5t12 -37v-400l256 216l253 -209v329q0 4 -2 10.5t-6.5 12.5t-12 10t-19.5 4q-14 0 -24 -5.5t-16.5 -14t-9.5 -17.5t-3 -17q0 -14 7 -14q9 0 22 -3
t24.5 -11.5t19.5 -22.5t8 -38q0 -81 -85 -81q-33 0 -66 27q-36 26 -36 79t18.5 94t50 69t73 42t87.5 14h42q33 0 67 -20q31 -22 31 -52v-577h-161l-257 220l-249 -220h-182z" />
    <glyph glyph-name="imacron" 
d="M-1100 -1417v452l-2 14t-5 12t-12 8t-23 3l-19 66q4 7 10.5 13t14.5 13q17 7 41 15t66 8q9 0 25.5 -3t33 -11.5t28.5 -24t12 -37.5v-373l254 226l255 -216v326q0 11 -9.5 24.5t-32.5 13.5q-14 0 -24 -6t-17 -14.5t-10.5 -18t-3.5 -17.5q0 -17 7 -17q9 0 22.5 -1.5
t26 -8.5t21 -22.5t8.5 -42.5q0 -84 -89 -84q-16 0 -33.5 11t-32.5 30t-24.5 44t-9.5 53q0 38 18.5 69t50 53.5t73 34.5t87.5 12h42q33 0 68 -21q32 -23 32 -54v-529h-161l-264 225l-240 -225h-184z" />
    <glyph glyph-name="Ibreve" horiz-adv-x="2062" 
d="M1162 1338q0 -16 -0.5 -30t-2.5 -28l278 118h37l365 -270v-1128h-169v1069l-288 170l-273 -109q-11 -17 -25 -34q-36 -45 -87 -70t-114 -25q-78 0 -180 57l-230 141l-132 -92q35 -5 61.5 -21t44 -36.5t26.5 -43t9 -40.5v-760l253 255l256 -255v547q0 18 -10.5 31
t-31.5 13q-16 0 -28 -9t-20.5 -22t-13 -27.5t-4.5 -25.5q0 -14 7 -14q10 0 25 -5.5t29.5 -20t24.5 -38.5t10 -60q0 -58 -25 -100t-77 -48h-34q-12 0 -28.5 11.5t-31.5 32t-25.5 49.5t-10.5 65q0 74 23 139t60 113t83 76t91 28h65q33 0 63 -27q30 -29 30 -64v-850h-179
l-256 252l-250 -252h-166v915q0 12 -7.5 22t-19.5 16.5t-27 10.5t-30 4q-25 0 -40 -9.5t-31 -21.5l-86 119l433 342h36q80 -68 139 -112.5t106.5 -72t87.5 -40.5t81 -18q16 -2 21 2q21 4 35.5 15t23.5 25t13 30.5t4 32.5q0 28 -11.5 47t-24.5 19q-11 0 -30 -4.5t-47 -4.5
q-7 0 -13 0.5t-11 1.5q-48 5 -74 34.5t-26 74.5v4q0 63 50 98q52 34 109 34h4q48 0 83 -19t58 -50.5t34 -72.5t11 -84z" />
    <glyph glyph-name="ibreve" horiz-adv-x="2056" 
d="M1162 1338q0 -16 -0.5 -30t-2.5 -28l278 118h37l232 -174q7 20 15 43.5t15 47t11.5 44.5t4.5 36q0 55 -12 92t-38 72q-10 17 -22 21t-43 -4h-13q-4 0 -8.5 0.5t-9.5 1.5q-48 4 -77 32t-29 76v4q0 63 48 99q47 35 108 35q75 0 134 -65q51 -57 78 -152q26 -96 26 -191
q0 -24 -8.5 -61.5t-20 -76.5t-23.5 -74.5t-20 -56.5l17 -19v-1128h-169v1069l-288 170l-273 -109q-11 -17 -25 -34q-36 -45 -87 -70t-114 -25q-78 0 -180 57l-230 141l-132 -92q35 -5 61.5 -21t44 -36.5t26.5 -43t9 -40.5v-760l253 255l256 -255v547q0 18 -10.5 31t-31.5 13
q-16 0 -28 -9t-20.5 -22t-13 -27.5t-4.5 -25.5q0 -14 7 -14q10 0 25 -5.5t29.5 -20t24.5 -38.5t10 -60q0 -58 -25 -100t-77 -48h-34q-12 0 -28.5 11.5t-31.5 32t-25.5 49.5t-10.5 65q0 74 23 139t60 113t83 76t91 28h65q33 0 63 -27q30 -29 30 -64v-850h-179l-256 252
l-250 -252h-166v915q0 12 -7.5 22t-19.5 16.5t-27 10.5t-30 4q-25 0 -40 -9.5t-31 -21.5l-86 119l433 342h36q80 -68 139 -112.5t106.5 -72t87.5 -40.5t81 -18q16 -2 21 2q21 4 35.5 15t23.5 25t13 30.5t4 32.5q0 28 -11.5 47t-24.5 19q-11 0 -30 -4.5t-47 -4.5
q-7 0 -13 0.5t-11 1.5q-48 5 -74 34.5t-26 74.5v4q0 63 50 98q52 34 109 34h4q48 0 83 -19t58 -50.5t34 -72.5t11 -84z" />
    <glyph glyph-name="Iogonek" unicode="&#x1796;" horiz-adv-x="1261" 
d="M879 0v1107l-122 94l-170 -166h-50l-184 167l-107 -97q20 0 55 -26q17 -14 31.5 -27t25.5 -27q8 -11 10 -17.5t2 -10.5v-856q26 0 48 16t37.5 37.5t24 44t8.5 35.5q0 14 -8 14q-10 0 -25 5.5t-29.5 20t-24.5 38.5t-10 60q0 54 11.5 83.5t27.5 44t32 17t24 2.5h9
q60 0 93 -40.5t33 -116.5q0 -77 -27.5 -149t-69.5 -127.5t-92.5 -90t-96.5 -35.5h-40q-32 0 -64 23q-31 25 -31 65v823q0 36 -30 69q-31 34 -71 34v116l269 268h36l209 -180l172 180h38l227 -178v-1220h-171z" />
    <glyph glyph-name="iogonek" 
d="M-421 -726v420l-93 67l-146 -115h-60l-166 105l-44 -29v-323q14 -10 28 -10q19 0 36 8q20 9 29.5 28t9.5 31q0 10 -7 10q-9 0 -22.5 4t-26 14.5t-21.5 26.5t-9 41q0 37 13 57.5t29.5 30.5t31 11.5t17.5 1.5h12q48 0 73 -30.5t25 -76.5q0 -51 -22 -100t-58 -87.5
t-81.5 -61.5t-92.5 -23h-40q-32 0 -62 22q-32 22 -32 54v415l216 138h55l173 -124l155 124h65l185 -132v-497h-170z" />
    <glyph glyph-name="Jcircumflex" 
d="M-421 -1391v377l-88 72l-145 -120h-74l-166 108l-36 -30v-282q14 -10 26 -10q13 0 30 8q20 11 29 17.5t9 19.5q0 11 -6 11q-9 0 -21 1t-22.5 6.5t-19 17t-11.5 31.5q-6 38 6 58.5t29 30.5t33.5 12t18.5 3h11q48 0 73 -32t25 -79q0 -31 -22 -69t-58 -71.5t-81.5 -56.5
t-92.5 -23h-40q-16 0 -31.5 6t-27.5 16.5t-19.5 25t-7.5 32.5v362l208 142h54l188 -128l156 128h63l180 -137v-447h-170z" />
    <glyph glyph-name="jcircumflex" horiz-adv-x="1919" 
d="M1725 1132v-1132h-169v999l-296 221l-212 -145v-1075h-171v1107l-132 94l-175 -166h-51l-178 167l-95 -97q12 0 32.5 -12t40.5 -29.5t34.5 -37t14.5 -35.5v-850q26 0 48 16t37.5 37.5t24 44t8.5 35.5q0 14 -9 14q-10 0 -24.5 5.5t-28 20t-23.5 38.5t-10 60q0 45 11.5 74
t27.5 45t32 22t24 6h6q58 0 93.5 -40.5t35.5 -116.5q0 -51 -13 -100t-35 -93.5t-51 -82t-61 -65.5t-65.5 -44t-63.5 -17h-40q-32 0 -64 23q-30 25 -30 65v823q0 34 -29 69q-30 34 -70 34v112l267 272h38l195 -180l180 180h38l231 -176l248 176h38z" />
    <glyph glyph-name="Kcedilla" horiz-adv-x="1925" 
d="M1761 1384q0 -23 -3.5 -56.5t-9.5 -69t-13 -69t-14 -55.5l4 -2v-1132h-169v999l-296 221l-212 -145v-1075h-171v1107l-132 94l-175 -166h-51l-178 167l-95 -97q12 0 32.5 -12t40.5 -29.5t34.5 -37t14.5 -35.5v-850q26 0 48 16t37.5 37.5t24 44t8.5 35.5q0 14 -9 14
q-10 0 -24.5 5.5t-28 20t-23.5 38.5t-10 60q0 45 11.5 74t27.5 45t32 22t24 6h6q58 0 93.5 -40.5t35.5 -116.5q0 -51 -13 -100t-35 -93.5t-51 -82t-61 -65.5t-65.5 -44t-63.5 -17h-40q-32 0 -64 23q-30 25 -30 65v823q0 34 -29 69q-30 34 -70 34v112l267 272h38l195 -180
l180 180h38l231 -176l248 176h38l260 -196q5 14 10 37t8.5 47t5.5 45t2 31q0 75 -58 148q-10 12 -14 17t-10 5q-4 0 -12.5 -2t-25.5 -4h-16q-4 0 -7.5 0.5t-8.5 1.5q-48 4 -73 34t-25 73v4q0 32 11 57t30.5 42.5t45.5 26.5t55 9q80 0 140 -66q54 -60 81.5 -142t27.5 -182z
" />
    <glyph glyph-name="kcedilla" unicode="&#x1797;" horiz-adv-x="1298" 
d="M1110 1023l-246 176l-184 -166h-50l-219 168l-107 -99q17 -12 37.5 -27t43.5 -34q24 -20 43 -35t32 -27q18 15 64 25q25 4 47 7t41 3h118q20 0 46.5 -3t57.5 -7q63 -10 126 -41q31 -16 57.5 -36t48.5 -46q44 -53 44 -136v-745h-172v701q0 49 -22 81t-55 51.5t-73 27.5
t-76 8h-74q-35 0 -72.5 -10t-68 -31t-50 -53.5t-19.5 -77.5v-609q0 -40 -30 -65q-29 -23 -62 -23h-40q-45 0 -95 34t-92 89.5t-69 127.5t-27 149q0 76 35.5 116.5t93.5 40.5h7q7 0 23 -3t32 -17.5t28.5 -44t12.5 -82.5q0 -38 -10 -62t-23.5 -38.5t-29 -20t-25.5 -5.5
q-8 0 -8 -17q0 -14 7 -35.5t21 -42.5t34.5 -36t46.5 -15v609q0 45 14.5 78.5t37.5 60.5l-151 126v112l267 274h48l236 -182l181 182h38l210 -178q16 -10 30 -10q19 0 36 12l36 -52z" />
    <glyph glyph-name="kgreenlandic" 
d="M-421 -727v399q0 37 -21 60t-53.5 35.5t-71.5 16.5t-75 4h-72q-36 0 -74.5 -5.5t-70 -19t-51.5 -37t-20 -58.5v-315q0 -7 -4.5 -20.5t-15 -27t-28 -23t-44.5 -9.5h-38q-46 0 -90 23t-78.5 61.5t-55.5 87.5t-21 101q0 48 26 76.5t74 28.5h10q1 0 14 -0.5t28.5 -9t28.5 -29
t13 -61.5q0 -50 -29 -68q-29 -19 -45 -19q-6 0 -6 -16q0 -12 5.5 -28.5t24.5 -25.5q19 -7 33 -7q16 0 28 3v314q1 37 22 68t54.5 54.5t77 40.5t88.5 26q28 6 55.5 8.5t53.5 2.5h124q20 0 46.5 -1.5t57.5 -5.5q61 -7 123 -27q59 -23 103 -61q44 -40 44 -106v-430h-170z" />
    <glyph glyph-name="Lcedilla" 
d="M-421 -1411v348q0 43 -21 70t-53.5 42.5t-71.5 21t-75 5.5h-72q-36 0 -74.5 -8t-70 -25.5t-51.5 -44.5t-20 -65v-264q0 -8 -4.5 -21.5t-15.5 -26.5t-29 -22.5t-45 -9.5h-38q-46 0 -89.5 25t-77.5 67q-34 39 -55 91.5t-21 107.5q0 54 24.5 85t72.5 31q38 -1 54 -10
t29.5 -31.5t13.5 -66.5q0 -56 -29 -76q-26 -22 -45 -22q-8 0 -8 -17q0 -15 6.5 -31.5t25.5 -27.5q18 -7 33 -7q16 0 28 3v260q1 37 17.5 69t44.5 57.5t64 45.5t75.5 33t80 20t76.5 7h117q39 0 104 -9q60 -9 123 -35q59 -26 103 -71q44 -47 44 -119v-379h-170z" />
    <glyph glyph-name="lcedilla" horiz-adv-x="1992" 
d="M321 1088q34 -23 71.5 -54t65.5 -55q17 14 64 25q25 4 47 7t41 3h118q20 0 46 -3t59 -7q32 -5 63 -15t63 -26q31 -16 57 -36.5t49 -45.5q45 -51 45 -136v-745h-172v701q0 49 -22 81t-55.5 51.5t-74 27.5t-76.5 8h-74q-27 0 -54.5 -5t-53 -16.5t-46.5 -29.5t-35 -45
q-19 -28 -19 -54v-633q0 -20 -8 -36t-21 -27t-29 -17t-32 -6h-40q-46 0 -96 34t-92 89.5t-70 127.5t-29 149q0 76 38 116.5t96 40.5h6q7 0 23 -3t32 -17.5t28.5 -44t12.5 -82.5q0 -38 -10 -62t-23.5 -38.5t-29 -20t-25.5 -5.5q-8 0 -8 -17q0 -14 7.5 -35.5t21 -42.5
t33.5 -36t45 -15v609q0 45 15.5 78.5t39.5 60.5l-156 126v128l425 258h38l320 -186l367 186h38l442 -270v-1128h-170v1008l-360 206l-363 -177h-32l-324 179z" />
    <glyph glyph-name="Ncedilla" horiz-adv-x="1999" 
d="M321 1088q34 -23 71.5 -54t65.5 -55q18 15 64 25q25 4 47 7t41 3h118q20 0 46 -3t59 -7q63 -10 126 -41q31 -16 57 -36.5t49 -45.5q45 -51 45 -136v-745h-172v701q0 49 -22 81t-55.5 51.5t-74 27.5t-76.5 8h-74q-27 0 -54.5 -5t-53 -16.5t-46.5 -29.5t-35 -45
q-19 -29 -19 -54v-633q0 -20 -8 -36t-21 -27t-29 -17t-32 -6h-40q-31 0 -63.5 15.5t-64.5 43t-60.5 65t-50 82t-34.5 94t-14 100.5q0 76 38 116.5t96 40.5h6q7 0 23 -3t32 -17.5t28.5 -44t12.5 -82.5q0 -38 -10 -62t-23.5 -38.5t-29 -20t-25.5 -5.5q-8 0 -8 -17
q0 -14 7.5 -35.5t21 -42.5t33.5 -36t45 -15v609q0 45 15.5 78.5t39.5 60.5l-156 126v128l425 258h38l320 -186l367 186h38l312 -178q8 18 16.5 39t15.5 42t11.5 42t4.5 39q0 38 -12.5 84t-39.5 82q-10 11 -14.5 16.5t-9.5 5.5q-4 0 -12 -2t-26 -4h-16q-5 0 -9 0.5t-8 1.5
q-46 4 -71.5 33.5t-25.5 74.5v3q0 66 40.5 100.5t101.5 34.5q78 0 140 -66q52 -60 77 -151q26 -95 26 -191q0 -73 -21 -140q-11 -36 -21.5 -67t-20.5 -57l4 -12v-1128h-170v1008l-360 206l-363 -177h-32l-324 179z" />
    <glyph glyph-name="ncedilla" unicode="&#x1798;" horiz-adv-x="1395" 
d="M999 535h-509v-263q0 -43 11.5 -69t29.5 -39.5t40.5 -18t43.5 -4.5h252q58 0 92 25q39 25 40 101v268zM1218 1067h-14q-14 14 -29 26.5t-31 23.5q-27 19 -64 35t-79 16q-18 0 -33 -10t-27.5 -24t-22.5 -28.5t-17 -22.5q14 2 28 3.5t28 1.5q48 0 87.5 -16.5t67.5 -41.5
t43 -55.5t15 -57.5v-729q0 -91 -43.5 -139.5t-131.5 -48.5h-507q-48 0 -80.5 18t-52 44.5t-27.5 56.5t-8 55v643q0 66 -26 91.5t-77 25.5q-43 0 -55 -4q-19 -4 -30 17q-12 19 -25 45t-37 68l273 338h36l198 -136q8 -8 33 -8q17 0 33 10l36 -52l-147 -149q-9 0 -27.5 16
t-46 35.5t-63 35.5t-77.5 16q-28 0 -56 -30q-14 -14 -24.5 -26.5t-18.5 -23.5l-3 -5q16 2 31.5 3.5t30.5 1.5q95 0 154 -51q58 -52 58 -118v-238h509v140q0 48 -27 89q-24 39 -77 39q-16 0 -31.5 -3t-32.5 -7l-78 123l274 338h38l195 -132q16 -10 32 -10q14 0 34 12l38 -54z
" />
    <glyph glyph-name="Eng" 
d="M-189 -519q-2 23 -17.5 41t-29.5 18h-15v-132h16q16 0 31 21t15 49v3zM-78 -517q0 -47 -19.5 -86t-47 -67t-57 -43t-49.5 -15h-37q-63 0 -98 37t-35 101v130h-23q-8 -13 -22 -33t-30 -39q-10 -11 -19 -23t-19 -25q-36 -45 -86 -79q-52 -37 -120 -37q-46 0 -86 23.5
t-75.5 59t-67 76.5t-60.5 76.5t-57 59t-56 23.5q-5 0 -9 -0.5t-9.5 -2t-13.5 -5t-21 -9.5l-30 48l179 97q19 9 40 9q41 0 85 -41q42 -41 86 -89q21 -25 43 -47.5t44 -42.5q44 -41 88 -41q35 0 60.5 18t43.5 40q10 13 24 29.5t30 37.5q17 20 31 36.5t25 27.5h25v200
q9 6 20.5 14t23.5 18q18 11 28 23h36q2 0 17.5 -7.5t30.5 -15.5l44 -19v-49q-30 -29 -30 -58v-106q16 0 45 -10t57.5 -33.5t49.5 -63t21 -97.5z" />
    <glyph glyph-name="eng" 
d="M-189 -1217q-2 21 -17 38t-30 17h-15v-125h16q8 0 16 5.5t15 14.5t11 21t4 25v4zM-78 -1215q0 -44 -19.5 -80.5t-47 -63t-57 -41.5t-49.5 -15h-33q-63 0 -100 35t-37 95v123h-23q-8 -11 -24 -30t-33 -38q-10 -10 -19.5 -21.5t-20.5 -24.5q-32 -43 -82 -75
q-50 -36 -117 -36q-46 0 -86 22.5t-75.5 56t-67 72.5t-60.5 72.5t-57 56t-56 22.5q-6 0 -9.5 -1t-8.5 -2.5t-13 -4t-22 -6.5l-30 44l179 90q19 9 40 9q43 0 85 -39q21 -19 42.5 -40.5t43.5 -44.5q21 -22 43 -43t44 -40q44 -38 88 -38q35 0 58.5 17t41.5 36q9 13 23 28.5
t32 35.5q19 19 33.5 34t25.5 26h25v184q9 6 20.5 13t23.5 17q8 4 15 9.5t13 10.5h36q2 0 17.5 -6t30.5 -14l44 -18v-59q-30 -29 -30 -57v-80q16 0 45 -9.5t57.5 -31.5t49.5 -59t21 -91z" />
    <glyph glyph-name="Omacron" horiz-adv-x="2062" 
d="M490 521v-239q0 -43 11.5 -69t29.5 -39.5t40.5 -18t43.5 -4.5h252q56 0 93 25q39 24 39 101v244h-509zM1841 1152l6 -4v-1138h-170v1008l-331 206l-279 -140l103 -98v-788q0 -188 -175 -188h-507q-48 0 -80.5 18t-52 44t-27.5 56.5t-8 54.5v644q0 65 -26.5 91t-76.5 26
q-43 0 -55 -4q-19 -4 -30 17q-12 19 -25 45t-37 68l273 338h36l198 -136q8 -8 33 -8q17 0 33 10l36 -52l-147 -149q-9 0 -27.5 16t-46 35.5t-63 35.5t-77.5 16q-28 0 -56 -30q-14 -14 -24.5 -26.5t-18.5 -23.5l-3 -6q31 6 62 6q96 0 154 -52q58 -51 58 -118v-261h509v263
l-100 96v124l439 260h96z" />
    <glyph glyph-name="omacron" horiz-adv-x="2056" 
d="M490 521v-239q0 -43 11.5 -69t29.5 -39.5t40.5 -18t43.5 -4.5h252q56 0 93 25q39 24 39 101v244h-509zM1908 1416q0 -62 -23 -140q-11 -35 -22 -65.5t-22 -58.5l6 -4v-1138h-170v1008l-331 206l-279 -140l103 -98v-788q0 -188 -175 -188h-507q-48 0 -80.5 18t-52 44
t-27.5 56.5t-8 54.5v644q0 65 -26.5 91t-76.5 26q-43 0 -55 -4q-19 -4 -30 17q-12 19 -25 45t-37 68l273 338h36l198 -136q8 -8 33 -8q17 0 33 10l36 -52l-147 -149q-9 0 -27.5 16t-46 35.5t-63 35.5t-77.5 16q-28 0 -56 -30q-14 -14 -24.5 -26.5t-18.5 -23.5l-3 -6
q31 6 62 6q96 0 154 -52q58 -51 58 -118v-261h509v263l-100 96v124l439 260h96l278 -178q7 19 16 40t19 44q18 43 18 80q0 38 -11.5 83.5t-40.5 81.5q-9 13 -13 18t-10 5q-4 0 -12 -2t-26 -4h-17q-2 0 -6 0.5t-9 1.5q-48 4 -73 33t-25 74v4q0 32 11 57t30.5 42.5t45.5 26.5
t55 9q79 0 139 -67q52 -55 78 -151q27 -92 27 -190z" />
    <glyph glyph-name="Obreve" unicode="&#x1799;" horiz-adv-x="1894" 
d="M1672 1063h-12q-26 29 -63 52q-27 19 -64 35t-79 16q-15 0 -30.5 -10t-29 -24t-23.5 -28t-16 -23q15 2 30 3.5t31 1.5q97 0 154 -51q58 -52 58 -118v-723q0 -105 -49 -149.5t-133 -44.5h-398q-65 0 -107 23.5t-78 70.5q-16 -20 -31.5 -37t-29.5 -31q-29 -26 -81 -26h-426
q-53 0 -90 16.5t-60.5 44t-34.5 63.5t-11 76v1113q0 34 31 59q32 26 64 26h63q46 0 91 -27t79.5 -74t56 -112t21.5 -141q0 -70 -28.5 -114t-85.5 -44h-10q-26 3 -47.5 15.5t-35.5 33t-19.5 49t0.5 64.5q13 75 28 86q17 15 34 21t27 6q7 0 7 15q0 24 -18 51q-18 29 -46 29
q-21 0 -25 -6q-2 -3 -6 -8t-11 -13v-951q0 -64 28 -101q28 -36 118 -36h216q70 0 109 36.5t39 106.5v531q0 66 -25.5 92.5t-76.5 26.5q-30 0 -47 -7q-20 -8 -37 18q-12 21 -25 46t-36 69l273 338h36l190 -136q8 -8 32 -8q20 0 33 10l36 -52l-145 -149q-11 0 -28 16t-42 35.5
t-58.5 35.5t-77.5 16q-29 0 -56 -30q-29 -29 -44 -50l-4 -5q16 2 31.5 3.5t30.5 1.5q97 0 154 -51q58 -52 58 -118v-633q0 -36 15 -63t39 -44.5t54 -26.5t60 -9h191q25 0 51.5 3.5t48 17t35 41t13.5 75.5v537q0 68 -28 93.5t-78 25.5q-14 3 -25.5 0t-21.5 -5.5t-18 0.5
t-16 18q-13 19 -25.5 44t-37.5 67l272 340h37l198 -136q8 -8 31 -8q18 0 34 10l17 -54z" />
    <glyph glyph-name="obreve" horiz-adv-x="700" 
d="M473 1063q-11 0 -29 16t-44.5 35.5t-62 35.5t-80.5 16q-16 0 -31 -9.5t-28 -23t-23.5 -28t-16.5 -24.5q16 2 31.5 3.5t29.5 1.5q94 0 153 -51q55 -52 55 -118v-1459q0 -28 -12.5 -60t-36 -59t-57 -45t-75.5 -18h-505q-41 0 -71.5 19t-50.5 48t-30 63t-10 64v326
q0 10 9 25t23 28.5t31.5 23t35.5 9.5h42q45 0 86.5 -17.5t73 -51t50.5 -83t19 -113.5q0 -63 -34 -100q-35 -35 -68 -35q-85 0 -85 99q0 32 8 51t20 28.5t24.5 12.5t21.5 3q7 0 7 13q0 19 -12 45q-13 28 -42 28q-11 0 -18.5 -4.5t-12.5 -11t-7 -13.5t-2 -13q0 -184 7 -205
q6 -41 19 -57q14 -16 38.5 -27t59.5 -11h249q45 0 72 13t41.5 32t19 40t4.5 37v1275q0 66 -25.5 93t-73.5 27h-10q-13 2 -23.5 -2t-19.5 -6t-17 0.5t-16 17.5q-13 19 -27.5 45t-38.5 68l274 338h38l199 -136q11 -8 30 -8q21 0 34 10l36 -52z" />
    <glyph glyph-name="Rcedilla" horiz-adv-x="700" 
d="M473 1063q-11 0 -29 16t-44.5 35.5t-62 35.5t-80.5 16q-16 0 -31 -9.5t-28 -23t-23.5 -28t-16.5 -24.5q16 2 31.5 3.5t29.5 1.5q94 0 153 -51q55 -52 55 -118v-2139q0 -28 -12.5 -60t-36 -59t-57 -45t-75.5 -18h-505q-41 0 -71.5 19t-50.5 48t-30 63t-10 64v326
q0 10 9 25t23 28.5t31.5 23t35.5 9.5h42q45 0 86.5 -17.5t73 -51t50.5 -83t19 -113.5q0 -63 -34 -100q-35 -35 -68 -35q-85 0 -85 99q0 32 8 51t20 28.5t24.5 12.5t21.5 3q7 0 7 13q0 19 -12 45q-13 28 -42 28q-11 0 -18.5 -4.5t-12.5 -11t-7 -13.5t-2 -13q0 -184 7 -205
q6 -41 19 -57q14 -16 38.5 -27t59.5 -11h249q45 0 72 13t41.5 32t19 40t4.5 37v1955q0 66 -25.5 93t-73.5 27h-10q-13 2 -23.5 -2t-19.5 -6t-17 0.5t-16 17.5q-13 19 -27.5 45t-38.5 68l274 338h38l199 -136q11 -8 30 -8q21 0 34 10l36 -52z" />
    <glyph glyph-name="rcedilla" horiz-adv-x="2510" 
d="M2137 0v1010l-340 206l-267 -135l98 -102v-785q0 -104 -53 -149q-51 -45 -137 -45h-392q-63 0 -101 23q-35 23 -72 71q-17 -20 -32.5 -37.5t-33 -30t-37.5 -19.5t-47 -7h-428q-53 0 -90 16.5t-60.5 44t-34.5 63.5t-11 76v1113q0 34 31 59q32 26 64 26h63q46 0 90 -27
t78 -74t55 -112t21 -141q0 -70 -24 -114t-79 -44h-17q-52 6 -78.5 47.5t-26.5 101.5q0 37 10.5 61.5t25.5 38.5t30.5 20t25.5 6q7 0 7 15q0 24 -18 51q-18 29 -46 29q-21 0 -25 -6q-2 -3 -6 -8t-11 -13v-951q0 -64 31 -101q31 -36 121 -36h212q69 0 107.5 35t38.5 104v537
q0 66 -24.5 93t-75.5 27q-18 0 -47 -8q-21 -7 -37 18q-12 21 -25 46t-37 70l274 335h36l198 -134q8 -8 32 -8q18 0 34 10l35 -52l-145 -149q-10 0 -28.5 16t-45.5 35.5t-62.5 35.5t-79.5 16q-28 0 -55 -30q-15 -15 -25.5 -27.5t-17.5 -22.5l-4 -5q16 2 31.5 3.5t30.5 1.5
q96 0 153 -51t57 -118v-635q0 -36 15 -63t39 -44.5t54 -26.5t60 -9h191q25 0 51.5 3.5t48 17t35 41t13.5 75.5v647l-103 91v124l509 258h38l406 -268v-1130h-171z" />
    <glyph glyph-name="Scircumflex" horiz-adv-x="1298" 
d="M939 0v1008l-338 208l-277 -135l105 -107v-1529q0 -27 -13 -58t-37.5 -58t-58.5 -45t-76 -18h-473q-42 0 -77.5 18.5t-61 47t-39.5 62.5t-14 64v356q0 10 9.5 25.5t24.5 29t32.5 23.5t34.5 10h42q45 0 86.5 -18t73 -52.5t50.5 -84t19 -112.5q0 -65 -32 -100
q-35 -35 -66 -35q-44 0 -67.5 18t-23.5 68q2 64 31 86q25 22 49 22q7 0 7 13q0 17 -16 45q-18 28 -46 28q-11 0 -18 -5t-11.5 -12.5t-6.5 -15t-2 -13.5v-211q2 -43 37 -78q34 -37 107 -37h227q45 0 72.5 13t42 31.5t19.5 39.5t5 37v1386l-107 101v122l501 260h36l422 -260
v-1138h-172z" />
    <glyph glyph-name="scircumflex" horiz-adv-x="1298" 
d="M939 0v1008l-338 208l-277 -135l105 -107v-2209q0 -27 -13 -58t-37.5 -58t-58.5 -45t-76 -18h-473q-42 0 -77.5 18.5t-61 47t-39.5 62.5t-14 64v356q0 10 9.5 25.5t24.5 29t32.5 23.5t34.5 10h42q45 0 86.5 -18t73 -52.5t50.5 -84t19 -112.5q0 -65 -32 -100
q-35 -35 -66 -35q-44 0 -67.5 18t-23.5 68q2 64 31 86q25 22 49 22q7 0 7 13q0 17 -16 45q-18 28 -46 28q-11 0 -18 -5t-11.5 -12.5t-6.5 -15t-2 -13.5v-211q2 -43 37 -78q34 -37 107 -37h227q45 0 72.5 13t42 31.5t19.5 39.5t5 37v2066l-107 101v122l501 260h36l422 -260
v-1138h-172z" />
    <glyph glyph-name="Tbar" horiz-adv-x="2510" 
d="M2361 1406q0 -70 -15.5 -141t-39.5 -125v-1140h-169v1008l-340 206l-265 -135l96 -103v-782q0 -103 -52 -149q-51 -45 -136 -45h-401q-65 0 -103 23q-16 13 -34 30.5t-37 40.5q-17 -20 -32.5 -37.5t-33 -30t-37.5 -19.5t-47 -7h-420q-53 0 -90 16.5t-60.5 44t-34.5 63.5
t-11 76v1110q0 34 31 61q30 27 64 27h63q45 0 87.5 -27t75.5 -74.5t53 -112.5t20 -141q0 -72 -21.5 -115t-75.5 -43h-17q-52 5 -78.5 47t-26.5 101q0 37 10.5 61.5t25.5 38.5t30.5 20t25.5 6q8 0 8 15q0 22 -18 51q-17 29 -45 29q-21 0 -25 -6q-2 -3 -6 -8.5t-11 -13.5v-948
q0 -64 27 -101q28 -36 118 -36h239q69 0 97.5 35t28.5 104v535q0 66 -28.5 92.5t-79.5 26.5q-30 0 -47 -7q-21 -6 -37 18q-12 21 -25 46t-36 69l281 338h36l192 -136q8 -8 23 -8q21 0 34 10l36 -52l-137 -149q-9 0 -26.5 16t-43.5 35.5t-61 35.5t-79 16q-14 0 -29.5 -9
t-29.5 -21.5t-26.5 -26t-20.5 -23.5l-4 -5q17 3 35.5 4t34.5 1q96 0 153 -51t57 -118v-639q0 -36 15 -62t39 -42.5t54 -24.5t60 -8h194q25 0 51 3.5t47 17t34 41t13 75.5v645l-99 91v124l497 260h38l277 -178l16 40t16 43q16 41 16 81q0 38 -12 81t-40 79q-6 9 -8.5 14
t-7.5 6t-14.5 -0.5t-30.5 -4.5h-17q-10 0 -16 3q-46 4 -76 33.5t-30 74.5v4q0 64 45 94q46 31 105 31q80 0 140 -65q52 -60 78 -144t26 -184z" />
    <glyph glyph-name="tbar" horiz-adv-x="1298" 
d="M939 0v1008l-338 208l-277 -135l105 -107v-1509q0 -27 -12.5 -58t-36.5 -58t-58 -45t-76 -18h-503q-42 0 -72.5 18.5t-51 47t-30.5 62.5t-10 64v323q0 41 33 65q35 26 68 26h42q45 0 86.5 -16t73 -49t50.5 -83t19 -119q0 -65 -32 -100q-35 -35 -66 -35q-44 0 -67.5 18
t-23.5 68q1 63 31 85q27 21 49 21q7 0 7 13q0 17 -16 45q-18 28 -46 28q-11 0 -18 -5t-11.5 -12.5t-6.5 -15t-2 -13.5v-179q1 -41 30 -78q28 -37 101 -37h240q45 0 72.5 13t42 31.5t19.5 39.5t5 37v1366l-107 101v122l501 260h36l296 -186q8 19 18.5 43.5t20 50.5t16 52.5
t6.5 49.5q0 38 -11.5 84t-39.5 82q-10 12 -14.5 16.5t-10.5 4.5q-4 0 -11.5 -1.5t-26.5 -3.5h-13q-4 0 -8.5 0.5t-9.5 1.5q-47 3 -81 34q-35 30 -35 74v4q0 63 48 98q49 35 108 35q39 0 90 -16q51 -17 80 -49q50 -58 64 -151q7 -48 10.5 -95t3.5 -96q0 -43 -8 -88.5
t-20 -87.5t-25.5 -77t-24.5 -56v-1121h-172z" />
    <glyph glyph-name="Utilde" horiz-adv-x="1292" 
d="M939 0v1008l-338 208l-277 -135l105 -107v-2209q0 -27 -12.5 -58t-36.5 -58t-58 -45t-76 -18h-503q-42 0 -72.5 18.5t-51 47t-30.5 62.5t-10 64v323q0 41 33 65q35 26 68 26h42q45 0 86.5 -16t73 -49t50.5 -83t19 -119q0 -65 -32 -100q-35 -35 -66 -35q-44 0 -67.5 18
t-23.5 68q1 63 31 85q27 21 49 21q7 0 7 13q0 17 -16 45q-18 28 -46 28q-11 0 -18 -5t-11.5 -12.5t-6.5 -15t-2 -13.5v-179q1 -41 30 -78q28 -37 101 -37h240q45 0 72.5 13t42 31.5t19.5 39.5t5 37v2066l-107 101v122l501 260h36l296 -186q8 19 18.5 43.5t20 50.5t16 52.5
t6.5 49.5q0 38 -11.5 84t-39.5 82q-10 12 -14.5 16.5t-10.5 4.5q-4 0 -11.5 -1.5t-26.5 -3.5h-13q-4 0 -8.5 0.5t-9.5 1.5q-47 3 -81 34q-35 30 -35 74v4q0 63 48 98q49 35 108 35q39 0 90 -16q51 -17 80 -49q50 -58 64 -151q7 -48 10.5 -95t3.5 -96q0 -43 -8 -88.5
t-20 -87.5t-25.5 -77t-24.5 -56v-1121h-172z" />
    <glyph glyph-name="utilde" unicode="&#x179a;" horiz-adv-x="798" 
d="M566 1063q-11 0 -29 16t-45 35.5t-62 35.5t-79 16q-27 0 -55 -30q-14 -14 -24.5 -26.5t-17.5 -23.5l-4 -5q16 2 31.5 3.5t29.5 1.5q97 0 157 -51t60 -118v-829q0 -39 -32 -65q-32 -23 -63 -23h-40q-46 0 -96 34t-91.5 90.5t-68.5 128.5t-27 149q0 76 33 121t91 45h2
q6 0 23.5 -3.5t35.5 -18.5t32 -46.5t14 -87.5q0 -38 -9.5 -62t-23 -38.5t-28.5 -20t-26 -5.5q-8 0 -8 -17q0 -13 7 -35t20.5 -43t34.5 -36.5t48 -15.5v678q0 64 -28.5 90.5t-73.5 26.5q-44 0 -57 -4q-21 -5 -31 17q-12 19 -25 45t-38 68l274 338h37l197 -136q8 -8 32 -8
q18 0 34 10l36 -52z" />
    <glyph glyph-name="Umacron" horiz-adv-x="700" 
d="M1117 -486q-2 -47 -10.5 -85.5t-27.5 -65.5t-51 -42t-81 -15h-454q-43 0 -74.5 17t-52.5 43.5t-31.5 57t-12.5 57.5v1336q0 65 -28 92.5t-75 27.5q-28 0 -50 -6q-23 -5 -35 16q-12 19 -26 45t-38 68l273 338h36l198 -134q16 -10 33 -10q15 0 33 12l36 -54l-147 -147
q-9 0 -27.5 16t-46 34.5t-63 34.5t-77.5 16q-28 0 -54 -26q-12 -13 -22.5 -25t-18.5 -23l-7 -9q16 2 31 3.5t29 1.5q48 0 87.5 -15t68 -39t44.5 -55t16 -62l1 -1359q2 -15 7.5 -34.5t17.5 -37t31.5 -29t49.5 -11.5h232q72 0 93 27q21 24 21 65v269h172v-293z" />
    <glyph glyph-name="umacron" horiz-adv-x="701" 
d="M1117 -1192q-2 -47 -10.5 -85.5t-27.5 -65.5t-51 -42t-81 -15h-454q-44 0 -75 17t-52 43.5t-31.5 57.5t-12.5 58v2041q0 65 -28 92.5t-75 27.5q-28 0 -50 -6q-23 -5 -35 16q-12 19 -26 45t-38 68l273 338h36l198 -134q16 -10 33 -10q15 0 33 12l36 -54l-147 -147
q-9 0 -27.5 16t-46 34.5t-63 34.5t-77.5 16q-28 0 -54 -26q-12 -13 -22.5 -25t-18.5 -23l-7 -9q16 2 31 3.5t29 1.5q48 0 87.5 -15t68 -39t44.5 -55t16 -62l-8 -2065q11 -16 16.5 -35t17.5 -36t31.5 -28.5t49.5 -11.5h232q72 0 93 26q21 24 21 65v270h172v-294z" />
    <glyph glyph-name="Ubreve" horiz-adv-x="1403" 
d="M1226 1166v-1164h-172v1037l-225 177q-294 -153 -324 -153q0 -3 -13 13t-37 36t-58 37t-77 17q-28 0 -56 -30q-14 -14 -24.5 -26.5t-18.5 -23.5l-3 -5q16 2 31.5 3.5t30.5 1.5q48 0 95.5 -14.5t85 -38t61 -54t23.5 -62.5v-829q0 -40 -31 -65q-32 -23 -62 -23h-40
q-47 0 -97 34t-91.5 90.5t-68.5 128.5t-27 149q0 76 35 116.5t95 40.5h5q8 0 24 -3t32.5 -17.5t28.5 -44t12 -82.5q0 -38 -9.5 -62t-23.5 -38.5t-29.5 -20t-26.5 -5.5q-8 0 -8 -17q0 -13 8 -35t22.5 -43t35.5 -36.5t47 -15.5v678q0 30 -16 52q-18 24 -38 36t-42.5 17
t-47 5.5t-49.5 0.5q-17 1 -32.5 3.5t-29 9t-24 18.5t-17.5 32q-8 22 -8 57v12l273 338h36l176 -127q22 -5 18 -5q16 0 284 136h28z" />
    <glyph glyph-name="ubreve" horiz-adv-x="1403" 
d="M1273 1420q0 -26 -6.5 -59t-15.5 -67t-19 -65t-18 -53l12 -10v-1164h-172v1037l-225 177q-294 -153 -324 -153q0 -3 -13 13t-37 36t-58 37t-77 17q-28 0 -56 -30q-14 -14 -24.5 -26.5t-18.5 -23.5l-3 -5q16 2 31.5 3.5t30.5 1.5q48 0 95.5 -14.5t85 -38t61 -54
t23.5 -62.5v-829q0 -40 -31 -65q-32 -23 -62 -23h-40q-47 0 -97 34t-91.5 90.5t-68.5 128.5t-27 149q0 76 35 116.5t95 40.5h5q8 0 24 -3t32.5 -17.5t28.5 -44t12 -82.5q0 -38 -9.5 -62t-23.5 -38.5t-29.5 -20t-26.5 -5.5q-8 0 -8 -17q0 -13 8 -35t22.5 -43t35.5 -36.5
t47 -15.5v678q0 30 -16 52q-18 24 -38 36t-42.5 17t-47 5.5t-49.5 0.5q-17 1 -32.5 3.5t-29 9t-24 18.5t-17.5 32q-8 24 -8 57v12l273 338h36l176 -127q25 -5 18 -5q16 0 284 136h28l198 -148q15 42 30 79t15 65q0 56 -11.5 93t-37.5 73q-8 10 -14.5 16t-18.5 6
q-11 0 -32 -6h-13q-16 0 -18 2q-48 4 -73 33.5t-25 74.5v4q0 32 15.5 57t40 42t54.5 26t59 9q42 0 80 -18t67 -51q51 -60 60 -148q5 -45 7.5 -91t2.5 -100z" />
    </font>
</defs>
</svg>
