<?xml version="1.0" standalone="no"?>
<!DOCTYPE svg PUBLIC "-//W3C//DTD SVG 1.1//EN" "http://www.w3.org/Graphics/SVG/1.1/DTD/svg11.dtd" >
<svg xmlns="http://www.w3.org/2000/svg" xmlns:xlink="http://www.w3.org/1999/xlink" version="1.1">
<metadata>
Created by FontForge 20150824 at Sun Jul 31 02:44:17 2016
 By Everything Fonts
Copyright (c) Top Rithy, 2003. All rights reserved.
</metadata>
<defs>
<font id="KhmerMool1" horiz-adv-x="0" >
  <font-face 
    font-family="Khmer Mool1"
    font-weight="400"
    font-stretch="normal"
    units-per-em="2048"
    panose-1="2 0 5 6 0 0 0 2 0 4"
    ascent="1638"
    descent="-410"
    x-height="1117"
    cap-height="1489"
    bbox="-2225 -1461 4522 2860"
    underline-thickness="130"
    underline-position="-235"
    unicode-range="U+0020-25CC"
  />
<missing-glyph horiz-adv-x="2048" 
d="M256 0v1536h1536v-1536h-1536zM384 128h1280v1280h-1280v-1280z" />
    <glyph glyph-name=".notdef" horiz-adv-x="2048" 
d="M256 0v1536h1536v-1536h-1536zM384 128h1280v1280h-1280v-1280z" />
    <glyph glyph-name=".null" 
 />
    <glyph glyph-name="nonmarkingreturn" horiz-adv-x="640" 
 />
    <glyph glyph-name="space" unicode=" " horiz-adv-x="640" 
 />
    <glyph glyph-name="exclam" unicode="!" horiz-adv-x="680" 
d="M452 1489l-28 -1079h-166l-30 1079h224zM442 0h-204v211h204v-211z" />
    <glyph glyph-name="quotedbl" unicode="&#x22;" horiz-adv-x="822" 
d="M708 1556l-43 -579h-132l-43 579h218zM332 1556l-43 -579h-132l-43 579h218z" />
    <glyph glyph-name="numbersign" unicode="#" horiz-adv-x="1490" 
d="M1348 932h-293l-92 -376h268v-135h-303l-105 -421h-129l105 421h-270l-105 -421h-129l105 421h-258v135h293l92 376h-268v135h303l105 422h129l-105 -422h270l105 422h129l-105 -422h258v-135zM929 934h-274l-94 -380h274z" />
    <glyph glyph-name="dollar" unicode="$" horiz-adv-x="1118" 
d="M1024 380q0 -147 -112.5 -252.5t-283.5 -126.5v-362h-114v357q-108 1 -217.5 25t-190.5 64v202h15q79 -59 178 -96t215 -47v432q-25 6 -61 14.5t-61 16.5q-150 41 -214.5 124t-64.5 204q0 142 111 247t290 122v272h114v-270q91 -3 188.5 -25.5t159.5 -49.5v-198h-15
q-70 48 -153.5 84t-179.5 44v-430q33 -7 61.5 -14.5t49.5 -12.5q136 -32 210.5 -111t74.5 -213zM514 746v414q-90 -8 -151 -58.5t-61 -140.5q0 -89 44.5 -137.5t167.5 -77.5zM835 354q0 94 -48 139t-159 68v-415q102 12 154.5 61.5t52.5 146.5z" />
    <glyph glyph-name="percent" unicode="%" horiz-adv-x="2000" 
d="M807 1076q0 -225 -90.5 -333.5t-261.5 -108.5q-174 0 -263.5 110t-89.5 331q0 224 91 333t262 109q174 0 263 -110t89 -331zM1473 1489l-780 -1489h-165l780 1489h165zM1897 413q0 -225 -90.5 -333.5t-261.5 -108.5q-174 0 -263.5 110t-89.5 331q0 224 91 333t262 109
q174 0 263 -110t89 -331zM629 1076q0 152 -35.5 230t-138.5 78t-139 -79t-36 -230q0 -150 34 -229t141 -79q103 0 138.5 79t35.5 230zM1719 413q0 152 -35.5 230t-138.5 78t-139 -79t-36 -230q0 -150 34 -229t141 -79q103 0 138.5 79t35.5 230z" />
    <glyph glyph-name="ampersand" unicode="&#x26;" horiz-adv-x="1380" 
d="M1445 0h-256l-204 213q-102 -130 -209.5 -187t-243.5 -57q-202 0 -333.5 121.5t-131.5 318.5q0 86 24 153t64 121q39 52 90 91.5t98 68.5q-101 68 -151 143t-50 189q0 71 28.5 131.5t74.5 106.5q48 47 124.5 77t167.5 30q166 0 271 -87.5t105 -221.5q0 -49 -12.5 -101.5
t-45.5 -101.5t-86.5 -92t-142.5 -75l352 -362q14 82 17 178.5t3 251.5h195v-96q0 -96 -24.5 -216.5t-80.5 -228.5zM898 301l-460 471q-25 -16 -50 -38t-55 -66q-24 -35 -42.5 -91.5t-18.5 -119.5q0 -142 84.5 -233.5t228.5 -91.5q96 0 173 40.5t140 128.5zM532 912
q56 19 92.5 51t56.5 70q18 35 27 74t9 84q0 97 -56.5 150t-131.5 53q-89 0 -140 -60t-51 -150q0 -40 7.5 -68.5t31.5 -66.5q21 -31 58.5 -66t96.5 -71z" />
    <glyph glyph-name="quotesingle" unicode="'" horiz-adv-x="432" 
d="M327 1556l-43 -579h-136l-43 579h222z" />
    <glyph glyph-name="parenleft" unicode="(" horiz-adv-x="784" 
d="M710 -412h-229q-174 207 -273.5 438t-99.5 546q0 308 98.5 542.5t274.5 441.5h229v-10q-81 -73 -154.5 -168.5t-136.5 -222.5q-60 -123 -97.5 -271t-37.5 -312q0 -171 36.5 -313t98.5 -270q60 -123 137 -222.5t154 -168.5v-10z" />
    <glyph glyph-name="parenright" unicode=")" horiz-adv-x="784" 
d="M676 572q0 -309 -99 -543t-274 -441h-229v10q77 69 155 169.5t136 221.5q62 129 98.5 272.5t36.5 310.5q0 165 -37 312t-98 271t-138 223t-153 168v10h229q174 -207 273.5 -440t99.5 -544z" />
    <glyph glyph-name="asterisk" unicode="*" horiz-adv-x="1118" 
d="M1007 887l-65 -110l-327 217l7 -364h-125l6 364l-325 -218l-66 110l354 207l-354 207l66 110l326 -219l-7 365h125l-8 -365l328 218l65 -110l-354 -205z" />
    <glyph glyph-name="plus" unicode="+" horiz-adv-x="1490" 
d="M1333 572h-505v-505h-166v505h-505v160h505v505h166v-505h505v-160z" />
    <glyph glyph-name="comma" unicode="," horiz-adv-x="620" 
d="M500 285l-280 -655h-146l176 655h250z" />
    <glyph glyph-name="hyphen" unicode="-" horiz-adv-x="744" 
d="M654 561h-564v181h564v-181z" />
    <glyph glyph-name="period" unicode="." horiz-adv-x="620" 
d="M429 0h-239v285h239v-285z" />
    <glyph glyph-name="slash" unicode="/" horiz-adv-x="783" 
d="M728 1556l-583 -1880h-169l580 1880h172z" />
    <glyph glyph-name="zero" unicode="0" horiz-adv-x="1118" 
d="M1035 745q0 -401 -116.5 -588.5t-359.5 -187.5q-246 0 -361 191t-115 583q0 403 116.5 589.5t359.5 186.5q246 0 361 -193t115 -581zM779 291q29 74 41 187t12 267q0 153 -12 266t-42 188q-30 76 -82.5 115.5t-136.5 39.5q-83 0 -136.5 -39.5t-84.5 -117.5
q-30 -76 -41 -192t-11 -262q0 -156 9.5 -261t41.5 -188q29 -77 82.5 -118.5t139.5 -41.5q83 0 136.5 39.5t83.5 117.5z" />
    <glyph glyph-name="one" unicode="1" horiz-adv-x="1118" 
d="M952 0h-726v152h270v998h-270v136q153 0 225.5 43.5t81.5 164.5h155v-1342h264v-152z" />
    <glyph glyph-name="two" unicode="2" horiz-adv-x="1118" 
d="M1028 0h-919v209q99 94 187 180t172 179q170 187 232 299.5t62 232.5q0 62 -19.5 109t-53.5 78q-35 30 -81 45t-101 15q-53 0 -107.5 -13.5t-104.5 -33.5q-42 -17 -81 -41t-63 -41h-11v212q62 31 172.5 60.5t209.5 29.5q208 0 326 -110.5t118 -299.5q0 -87 -20.5 -161
t-56.5 -137q-37 -65 -89 -129t-110 -126q-94 -102 -209.5 -212t-184.5 -174h732v-171z" />
    <glyph glyph-name="three" unicode="3" horiz-adv-x="1118" 
d="M511 1347q-54 0 -108 -13t-106 -34q-48 -20 -83.5 -42t-63.5 -41h-12v211q65 35 176.5 63.5t212.5 28.5t176.5 -20.5t136.5 -63.5q66 -48 99.5 -116t33.5 -159q0 -123 -81 -216t-194 -118v-14q47 -9 100.5 -31t99.5 -65t75 -110.5t29 -164.5q0 -101 -34.5 -185.5
t-97.5 -149.5q-65 -68 -157 -103t-209 -35q-112 0 -222 27t-185 65v211h14q63 -46 169 -88t212 -42q61 0 122.5 19.5t102.5 63.5q40 44 61 97t21 134t-23.5 133t-65.5 82t-99.5 41.5t-124.5 11.5h-85v166h66q135 0 219.5 64t84.5 186q0 56 -22 96.5t-56 64.5q-38 26 -84 36
t-98 10z" />
    <glyph glyph-name="four" unicode="4" horiz-adv-x="1118" 
d="M1067 512h-177v-512h-192v512h-658v210l666 767h184v-817h177v-160zM698 672v582l-502 -582h502z" />
    <glyph glyph-name="five" unicode="5" horiz-adv-x="1118" 
d="M1011 474q0 -108 -34.5 -200t-96.5 -159q-63 -68 -156.5 -107t-209.5 -39q-107 0 -210.5 23.5t-179.5 61.5v211h14q23 -17 66 -38.5t95 -40.5q59 -21 108 -32.5t110 -11.5q60 0 117 21.5t98 69.5q37 44 56.5 103t19.5 139q0 79 -21.5 130t-62.5 84q-43 38 -105.5 53.5
t-139.5 15.5q-81 0 -163 -12.5t-131 -23.5v767h817v-175h-624v-396q36 4 71 6t64 2q114 0 193 -19t152 -74q74 -56 113.5 -140t39.5 -219z" />
    <glyph glyph-name="six" unicode="6" horiz-adv-x="1118" 
d="M1051 483q0 -115 -38 -212t-102 -162q-67 -69 -150 -104.5t-183 -35.5q-101 0 -183.5 34t-145.5 101q-77 81 -120.5 216.5t-43.5 333.5q0 194 40 350.5t123 272.5q81 113 209 176.5t296 63.5q50 0 93 -5t76 -16v-191h-9q-27 15 -78 27.5t-109 12.5q-186 0 -300.5 -125.5
t-135.5 -372.5q71 50 146 77t164 27q87 0 152.5 -17.5t136.5 -70.5q82 -62 122 -157t40 -223zM848 475q0 92 -24 154t-78 106q-39 32 -88.5 42t-101.5 10q-70 0 -136 -21t-130 -61q-2 -22 -3 -42.5t-1 -51.5q0 -155 30.5 -250t75.5 -144q43 -47 88.5 -66t98.5 -19
q120 0 194.5 86t74.5 257z" />
    <glyph glyph-name="seven" unicode="7" horiz-adv-x="1118" 
d="M1044 1266l-644 -1266h-213l682 1314h-770v175h945v-223z" />
    <glyph glyph-name="eight" unicode="8" horiz-adv-x="1118" 
d="M811 1142q0 100 -67 167t-186 67q-109 0 -178.5 -60t-69.5 -162q0 -74 35.5 -125t106.5 -92q31 -17 94.5 -47t115.5 -47q87 67 118 137.5t31 161.5zM839 396q0 92 -36 146t-139 110q-34 19 -90.5 41t-127.5 52q-83 -55 -127 -135.5t-44 -183.5q0 -135 81.5 -223
t204.5 -88q126 0 202 75.5t76 205.5zM559 -34q-111 0 -202 33t-155 95q-63 60 -95.5 142.5t-32.5 174.5q0 121 64.5 222.5t187.5 161.5v6q-110 64 -163 140t-53 190q0 168 127 280t322 112q203 0 325.5 -106.5t122.5 -272.5q0 -100 -58.5 -198t-168.5 -153v-6
q130 -61 197 -148t67 -224q0 -191 -138.5 -320t-346.5 -129z" />
    <glyph glyph-name="nine" unicode="9" horiz-adv-x="1118" 
d="M832 877q0 152 -28 247.5t-77 147.5q-44 48 -89 66t-99 18q-123 0 -196 -88t-73 -255q0 -94 24 -155t78 -105q38 -31 86 -41.5t103 -10.5q64 0 138 22.5t129 59.5q1 15 2.5 39.5t1.5 54.5zM67 1005q0 115 37.5 210t102.5 164q62 66 151.5 103t181.5 37q103 0 186.5 -34.5
t144.5 -99.5q77 -82 119.5 -215t42.5 -336q0 -185 -41.5 -350.5t-122.5 -274.5q-86 -116 -206.5 -177t-297.5 -61q-40 0 -85 4.5t-84 16.5v191h10q25 -14 78 -27t108 -13q196 0 308 129t127 369q-80 -54 -152.5 -79t-157.5 -25q-83 0 -151 18t-137 70q-80 61 -121 154.5
t-41 225.5z" />
    <glyph glyph-name="colon" unicode=":" horiz-adv-x="724" 
d="M482 832h-239v285h239v-285zM482 0h-239v285h239v-285z" />
    <glyph glyph-name="semicolon" unicode=";" horiz-adv-x="724" 
d="M482 832h-239v285h239v-285zM548 285l-280 -655h-146l176 655h250z" />
    <glyph glyph-name="less" unicode="&#x3c;" horiz-adv-x="1490" 
d="M1275 79l-1074 513v120l1074 513v-178l-833 -395l833 -395v-178z" />
    <glyph glyph-name="equal" unicode="=" horiz-adv-x="1490" 
d="M1298 782h-1106v160h1106v-160zM1298 362h-1106v160h1106v-160z" />
    <glyph glyph-name="greater" unicode="&#x3e;" horiz-adv-x="1490" 
d="M1289 592l-1074 -513v178l833 395l-833 395v178l1074 -513v-120z" />
    <glyph glyph-name="question" unicode="?" horiz-adv-x="970" 
d="M912 1139q0 -98 -32.5 -174.5t-86.5 -134.5t-122.5 -107t-144.5 -95v-228h-179v305q56 34 130.5 81.5t116.5 88.5q54 51 84 111.5t30 137.5q0 113 -71 168.5t-185 55.5q-100 0 -188.5 -33.5t-143.5 -69.5h-11v204q67 27 169 48.5t193 21.5q205 0 323 -104.5t118 -275.5z
M542 0h-204v211h204v-211z" />
    <glyph glyph-name="at" unicode="@" horiz-adv-x="1862" 
d="M1739 663q0 -139 -38 -268.5t-109 -237.5h-421l-25 116q-67 -57 -123.5 -90.5t-153.5 -33.5q-154 0 -252 123.5t-98 358.5t120.5 366t275.5 131q72 0 124 -18t105 -48v48h159v-842h227q38 71 54.5 184t16.5 205q0 327 -166.5 526.5t-478.5 199.5q-296 0 -488.5 -215.5
t-192.5 -522.5q0 -330 187 -534.5t489 -204.5q81 0 170.5 11t169.5 35v-142q-84 -20 -170.5 -28t-170.5 -8q-354 0 -586 243t-232 630q0 367 239.5 619t583.5 252q368 0 576 -237.5t208 -617.5zM1142 408v518q-56 29 -103 41.5t-98 12.5q-113 0 -182 -84.5t-69 -261.5
q0 -160 52 -245t166 -85q61 0 120.5 29t113.5 75z" />
    <glyph glyph-name="A" unicode="A" horiz-adv-x="1228" 
d="M-10 0l502 1489h244l502 -1489h-209l-135 416h-569l-135 -416h-200zM839 585l-230 702l-229 -702h459z" />
    <glyph glyph-name="B" unicode="B" horiz-adv-x="1207" 
d="M1161 457q0 -111 -42 -196t-113 -140q-84 -66 -180 -93.5t-248 -27.5h-427v1489h395q159 0 238.5 -10.5t152.5 -49.5q80 -43 117 -112.5t37 -163.5q0 -105 -55.5 -188t-153.5 -130v-8q133 -36 206 -131.5t73 -238.5zM885 1125q0 54 -18 93.5t-58 62.5q-48 27 -107 33
t-163 6h-190v-436h225q93 0 137 9.5t91 39.5q45 29 64 76t19 116zM955 449q0 84 -24 138.5t-97 92.5q-47 25 -102.5 32t-157.5 7h-225v-550h161q130 0 205 12t132 51q56 39 82 88.5t26 128.5z" />
    <glyph glyph-name="C" unicode="C" horiz-adv-x="1230" 
d="M733 -27q-146 0 -268.5 49t-211.5 146t-138 242t-49 333q0 187 47.5 326t138.5 242q89 100 211 152.5t273 52.5q75 0 140.5 -11t121.5 -28q48 -15 98.5 -37.5t99.5 -49.5v-239h-16q-26 24 -67 58t-100 67q-57 31 -124 51t-155 20q-95 0 -180 -39t-149 -115
q-63 -76 -98 -191t-35 -259q0 -153 37 -263.5t101 -186.5q62 -74 146 -111.5t178 -37.5q86 0 159 21t130 53q55 31 95 63.5t63 55.5h15v-236q-49 -23 -92.5 -44t-105.5 -41q-65 -21 -120.5 -32t-144.5 -11z" />
    <glyph glyph-name="D" unicode="D" horiz-adv-x="1389" 
d="M1325 743q0 -204 -82.5 -368t-221.5 -256q-113 -71 -229.5 -95t-297.5 -24h-343v1489h339q210 0 329.5 -31.5t203.5 -86.5q144 -95 223 -252.5t79 -375.5zM1119 746q0 172 -57 293.5t-169 189.5q-79 48 -169 69t-224 21h-151v-1149h151q132 0 231 21t181 78
q103 70 155 186.5t52 290.5z" />
    <glyph glyph-name="E" unicode="E" horiz-adv-x="1149" 
d="M151 0v1489h931v-176h-733v-408h683v-176h-683v-553h733v-176h-931z" />
    <glyph glyph-name="F" unicode="F" horiz-adv-x="1068" 
d="M1042 1313h-693v-420h664v-176h-664v-717h-198v1489h891v-176z" />
    <glyph glyph-name="G" unicode="G" horiz-adv-x="1367" 
d="M774 -29q-158 0 -289 48t-225 146q-94 99 -144 245t-50 336q0 180 50.5 322.5t144.5 243.5q91 98 224 151t291 53q75 0 144 -11t132 -30q50 -15 111.5 -41.5t99.5 -45.5v-239h-17q-37 33 -76.5 62.5t-111.5 63.5q-60 30 -138 50t-168 20q-215 0 -347.5 -162t-132.5 -431
q0 -150 35 -262t101 -190q64 -77 154.5 -117.5t203.5 -40.5q84 0 167 12t140 36v385h-344v174h540v-650q-38 -17 -101.5 -43t-118.5 -41q-73 -22 -132 -33t-143 -11z" />
    <glyph glyph-name="H" unicode="H" horiz-adv-x="1383" 
d="M1232 0h-198v729h-685v-729h-198v1489h198v-584h685v584h198v-1489z" />
    <glyph glyph-name="I" unicode="I" horiz-adv-x="764" 
d="M671 0h-578v152h190v1185h-190v152h578v-152h-190v-1185h190v-152z" />
    <glyph glyph-name="J" unicode="J" horiz-adv-x="853" 
d="M712 387q0 -196 -119.5 -302t-320.5 -106q-48 0 -128.5 8.5t-134.5 20.5v189h11q41 -14 101.5 -31t123.5 -17q92 0 146.5 21t80.5 60q27 40 34.5 98t7.5 134v869h-315v158h513v-1102z" />
    <glyph glyph-name="K" unicode="K" horiz-adv-x="1204" 
d="M1236 0h-257l-543 693l-87 -98v-595h-198v1489h198v-685l610 685h241l-616 -665z" />
    <glyph glyph-name="L" unicode="L" horiz-adv-x="1019" 
d="M1014 0h-863v1489h198v-1313h665v-176z" />
    <glyph glyph-name="M" unicode="M" horiz-adv-x="1578" 
d="M1427 0h-198v1283l-388 -873h-120l-385 873v-1283h-185v1489h270l372 -829l359 829h275v-1489z" />
    <glyph glyph-name="N" unicode="N" horiz-adv-x="1367" 
d="M1216 0h-222l-658 1284v-1284h-185v1489h281l599 -1179v1179h185v-1489z" />
    <glyph glyph-name="O" unicode="O" horiz-adv-x="1449" 
d="M1204 1318q85 -98 132 -243t47 -331q0 -181 -46 -327t-133 -245q-91 -104 -212.5 -153.5t-267.5 -49.5q-151 0 -272 51t-208 152q-86 99 -132 244t-46 328q0 188 46.5 330t132.5 244q86 99 207.5 150.5t271.5 51.5q152 0 274 -53t206 -149zM1177 744q0 148 -32 262
t-90 189q-59 77 -142.5 115.5t-187.5 38.5q-108 0 -188.5 -37.5t-142.5 -116.5q-59 -76 -90.5 -191t-31.5 -260q0 -293 123 -448.5t330 -155.5t329.5 155.5t122.5 448.5z" />
    <glyph glyph-name="P" unicode="P" horiz-adv-x="1129" 
d="M1091 1040q0 -97 -34.5 -183.5t-95.5 -147.5q-77 -76 -181 -115t-263 -39h-168v-555h-198v1489h374q132 0 225 -22t164 -71q83 -57 130 -144.5t47 -211.5zM885 1035q0 77 -26.5 134t-80.5 93q-47 31 -109.5 44t-155.5 13h-164v-595h135q120 0 194 19.5t123 69.5
q44 45 64 98t20 124z" />
    <glyph glyph-name="Q" unicode="Q" horiz-adv-x="1449" 
d="M1388 -364q-54 -14 -113.5 -21t-118.5 -7q-167 0 -271.5 94t-114.5 268h-25h-21q-151 0 -272.5 51.5t-207.5 150.5t-132 244t-46 328q0 188 46.5 330t132.5 244q86 99 207.5 150.5t271.5 51.5q152 0 274 -53t206 -149q85 -98 132 -243t47 -331q0 -289 -113 -477
t-309 -255q5 -56 19.5 -100.5t37.5 -70.5q27 -31 65.5 -45.5t105.5 -14.5q40 0 94 12.5t78 22.5h27v-180zM1177 744q0 148 -32 262t-90 189q-59 77 -142.5 115.5t-187.5 38.5q-108 0 -188.5 -37.5t-142.5 -116.5q-59 -76 -90.5 -191t-31.5 -260q0 -293 123 -449t330 -156
t329.5 156t122.5 449z" />
    <glyph glyph-name="R" unicode="R" horiz-adv-x="1271" 
d="M1304 0h-257l-472 592h-226v-592h-198v1489h384q128 0 214.5 -14t164.5 -65q78 -50 123.5 -129t45.5 -196q0 -164 -83 -274t-226 -163zM876 1070q0 65 -23 115.5t-71 82.5q-42 28 -98 39.5t-139 11.5h-196v-562h174q85 0 153 15t116 62q43 42 63.5 100t20.5 136z" />
    <glyph glyph-name="S" unicode="S" horiz-adv-x="1141" 
d="M566 -27q-162 0 -275.5 33.5t-213.5 82.5v248h14q98 -92 222 -142.5t239 -50.5q164 0 248 68.5t84 180.5q0 89 -44 145t-140 83q-69 20 -126 33t-143 35q-77 20 -138 51t-108 81q-46 49 -71.5 115.5t-25.5 153.5q0 181 141 303.5t360 122.5q125 0 236.5 -25t206.5 -71
v-237h-15q-71 65 -182 113.5t-233 48.5q-138 0 -223 -64.5t-85 -169.5q0 -95 50 -151t145 -82q63 -17 154 -38.5t151 -39.5q154 -47 225 -142t71 -234q0 -87 -35.5 -172t-99.5 -144q-72 -65 -162.5 -100t-226.5 -35z" />
    <glyph glyph-name="T" unicode="T" horiz-adv-x="1196" 
d="M499 0v1313h-500v176h1198v-176h-500v-1313h-198z" />
    <glyph glyph-name="U" unicode="U" horiz-adv-x="1343" 
d="M671 -31q-131 0 -229 34.5t-167 102.5q-78 78 -110 186.5t-32 267.5v929h198v-929q0 -103 13 -173.5t51 -126.5q40 -60 108.5 -91t167.5 -31q93 0 165 31t112 91q37 57 50.5 126t13.5 169v934h198v-929q0 -155 -31.5 -266t-110.5 -188q-71 -69 -165.5 -103t-231.5 -34z
" />
    <glyph glyph-name="V" unicode="V" horiz-adv-x="1222" 
d="M1230 1489l-512 -1489h-214l-512 1489h212l412 -1236l412 1236h202z" />
    <glyph glyph-name="W" unicode="W" horiz-adv-x="1847" 
d="M1821 1489l-374 -1489h-223l-303 1236l-296 -1236h-218l-381 1489h203l300 -1238l298 1238h201l301 -1250l298 1250h194z" />
    <glyph glyph-name="X" unicode="X" horiz-adv-x="1189" 
d="M1181 0h-227l-363 596l-369 -596h-214l473 745l-459 744h226l356 -585l361 585h215l-466 -734z" />
    <glyph glyph-name="Y" unicode="Y" horiz-adv-x="1180" 
d="M1193 1489l-503 -830v-659h-198v638l-503 851h220l384 -657l390 657h210z" />
    <glyph glyph-name="Z" unicode="Z" horiz-adv-x="1145" 
d="M1100 0h-1040v184l797 1129h-761v176h984v-179l-806 -1134h826v-176z" />
    <glyph glyph-name="bracketleft" unicode="[" horiz-adv-x="784" 
d="M686 -392h-520v1948h520v-143h-345v-1662h345v-143z" />
    <glyph glyph-name="backslash" unicode="\" horiz-adv-x="783" 
d="M804 -324h-169l-583 1880h172z" />
    <glyph glyph-name="bracketright" unicode="]" horiz-adv-x="784" 
d="M618 -392h-520v143h345v1662h-345v143h520v-1948z" />
    <glyph glyph-name="asciicircum" unicode="^" horiz-adv-x="1490" 
d="M1357 684h-198l-415 625l-414 -627h-197l549 807h126z" />
    <glyph glyph-name="underscore" unicode="_" horiz-adv-x="1118" 
d="M1134 -300h-1150v130h1150v-130z" />
    <glyph glyph-name="grave" unicode="`" horiz-adv-x="1118" 
d="M670 1302h-149l-273 374h243z" />
    <glyph glyph-name="a" unicode="a" horiz-adv-x="1075" 
d="M760 275v310q-67 -6 -169.5 -16.5t-165.5 -29.5q-75 -23 -124 -70.5t-49 -132.5q0 -96 54 -145t158 -49q89 0 161 38.5t135 94.5zM760 119q-23 -17 -61.5 -47.5t-74.5 -48.5q-50 -26 -96.5 -40t-130.5 -14q-69 0 -131 26t-109 73q-45 46 -72 113.5t-27 142.5
q0 116 49 197.5t155 129.5q94 43 222 59.5t276 24.5v36q0 66 -20 106.5t-56 62.5q-36 23 -88 30.5t-107 7.5q-65 0 -153 -19.5t-176 -56.5h-11v191q52 15 149 33t192 18q115 0 194 -18t142 -65q61 -46 91 -119t30 -178v-764h-187v119z" />
    <glyph glyph-name="b" unicode="b" horiz-adv-x="1132" 
d="M879 562q0 200 -61 303.5t-196 103.5q-77 0 -155.5 -36t-142.5 -91v-640q71 -35 126 -49.5t121 -14.5q144 0 226 102t82 322zM1073 577q0 -274 -133 -441t-333 -167q-91 0 -155.5 22.5t-127.5 60.5l-12 -52h-176v1556h188v-556q71 64 154 106t188 42q189 0 298 -151.5
t109 -419.5z" />
    <glyph glyph-name="c" unicode="c" horiz-adv-x="945" 
d="M580 -25q-115 0 -211 35.5t-165 107.5t-107 181.5t-38 257.5q0 147 39.5 254t105.5 180t164.5 112.5t211.5 39.5q92 0 177.5 -26t152.5 -60v-211h-11q-20 17 -51.5 39t-76.5 45q-39 20 -92 35t-102 15q-146 0 -234.5 -110.5t-88.5 -312.5q0 -198 85.5 -308.5
t237.5 -110.5q92 0 175 38t147 98h11v-211q-28 -13 -70 -31.5t-76 -27.5q-48 -14 -86 -21.5t-98 -7.5z" />
    <glyph glyph-name="d" unicode="d" horiz-adv-x="1132" 
d="M996 0h-188v114q-44 -37 -76 -61t-75 -44q-40 -19 -83 -29.5t-100 -10.5q-91 0 -168.5 38t-131.5 111q-55 74 -85 182.5t-30 249.5q0 147 38 254.5t105 187.5q61 73 147.5 114.5t181.5 41.5q84 0 146 -18.5t131 -57.5v484h188v-1556zM808 272v644q-70 34 -125.5 47
t-120.5 13q-145 0 -227 -108.5t-82 -313.5q0 -197 63 -301.5t202 -104.5q74 0 149 33.5t141 90.5z" />
    <glyph glyph-name="e" unicode="e" horiz-adv-x="1078" 
d="M621 -26q-267 0 -414.5 150.5t-147.5 427.5q0 273 143 434.5t374 161.5q104 0 184 -30t140 -94t92 -156.5t32 -226.5v-102h-774q0 -195 98 -298t271 -103q62 0 121.5 14t107.5 36q51 23 86 44.5t58 40.5h11v-205q-33 -13 -82 -32.5t-88 -30.5q-55 -15 -99.5 -23
t-112.5 -8zM841 683q-2 76 -18 131t-46 93q-33 42 -84.5 64t-127.5 22q-75 0 -127.5 -22.5t-95.5 -65.5q-42 -44 -64 -97.5t-28 -124.5h591z" />
    <glyph glyph-name="f" unicode="f" horiz-adv-x="652" 
d="M724 1376h-10q-25 9 -72 17.5t-84 8.5q-119 0 -169.5 -53.5t-50.5 -193.5v-38h311v-156h-305v-961h-188v961h-127v156h127v37q0 202 97 307t278 105q52 0 102 -5.5t91 -12.5v-172z" />
    <glyph glyph-name="g" unicode="g" horiz-adv-x="1132" 
d="M808 303v613q-70 34 -129.5 48.5t-118.5 14.5q-143 0 -225 -105t-82 -301q0 -186 62.5 -283t202.5 -97q73 0 150.5 29t139.5 81zM176 -179q19 -8 56 -21.5t84 -25.5q52 -13 96 -21t96 -8q87 0 147.5 23t94.5 64q32 41 45 95t13 123v98q-76 -66 -149 -97.5t-183 -31.5
q-191 0 -304 142t-113 408q0 139 39 246.5t105 182.5q63 72 149 111t178 39q87 0 150.5 -20.5t127.5 -58.5l11 48h177v-990q0 -284 -124 -417t-379 -133q-82 0 -167.5 13t-159.5 35v196h10z" />
    <glyph glyph-name="h" unicode="h" horiz-adv-x="1142" 
d="M1014 0h-188v636q0 77 -7.5 143.5t-28.5 106.5q-23 42 -64 62.5t-112 20.5q-70 0 -144.5 -37.5t-145.5 -97.5v-834h-188v1556h188v-563q84 75 166 115t173 40q165 0 258 -108.5t93 -314.5v-725z" />
    <glyph glyph-name="i" unicode="i" horiz-adv-x="468" 
d="M328 0h-188v1117h188v-1117zM341 1304h-214v195h214v-195z" />
    <glyph glyph-name="j" unicode="j" horiz-adv-x="577" 
d="M441 -32q0 -191 -102.5 -291t-282.5 -100q-31 0 -69.5 3t-76.5 9v168h11q22 -5 48.5 -9.5t50.5 -4.5q75 0 123.5 18.5t72.5 58.5q22 36 29.5 91t7.5 134v916h-202v156h390v-1149zM442 1304h-214v195h214v-195z" />
    <glyph glyph-name="k" unicode="k" horiz-adv-x="1020" 
d="M1062 0h-247l-417 539l-74 -72v-467h-188v1556h188v-911l442 472h234l-459 -467z" />
    <glyph glyph-name="l" unicode="l" horiz-adv-x="468" 
d="M328 0h-188v1556h188v-1556z" />
    <glyph glyph-name="m" unicode="m" horiz-adv-x="1720" 
d="M1404 0v646q0 77 -6 142.5t-25 102.5q-20 40 -57 59t-100 19q-58 0 -124.5 -35.5t-137.5 -102.5q1 -17 2.5 -40.5t1.5 -55.5v-735h-188v646q0 77 -6 142.5t-25 102.5q-20 40 -57 59t-100 19q-61 0 -128 -38t-130 -97v-834h-188v1117h188v-124q74 74 146.5 114.5
t159.5 40.5q99 0 175.5 -45t116.5 -148q85 95 166 144t176 49q72 0 131 -22.5t103 -72.5q45 -51 69.5 -127t24.5 -191v-735h-188z" />
    <glyph glyph-name="n" unicode="n" horiz-adv-x="1142" 
d="M1014 0h-188v636q0 77 -7.5 143.5t-28.5 106.5q-23 42 -64 62.5t-112 20.5q-70 0 -144.5 -37.5t-145.5 -97.5v-834h-188v1117h188v-124q84 75 166 115t173 40q165 0 258 -108.5t93 -314.5v-725z" />
    <glyph glyph-name="o" unicode="o" horiz-adv-x="1112" 
d="M1055 558q0 -282 -136 -435.5t-362 -153.5q-233 0 -366.5 158.5t-133.5 430.5q0 280 137.5 435t362.5 155q226 0 362 -154.5t136 -435.5zM861 558q0 217 -79 322.5t-225 105.5q-147 0 -226.5 -105.5t-79.5 -322.5q0 -210 79.5 -318.5t226.5 -108.5q145 0 224.5 106.5
t79.5 320.5z" />
    <glyph glyph-name="p" unicode="p" horiz-adv-x="1132" 
d="M1073 588q0 -279 -133.5 -444.5t-337.5 -165.5q-83 0 -147 19t-131 59v-468h-188v1529h188v-117q70 63 155.5 105.5t186.5 42.5q192 0 299.5 -152t107.5 -408zM879 567q0 191 -61 296.5t-198 105.5q-80 0 -154.5 -35.5t-141.5 -91.5v-633q74 -36 126.5 -49t120.5 -13
q146 0 227 107t81 313z" />
    <glyph glyph-name="q" unicode="q" horiz-adv-x="1132" 
d="M996 -412h-188v534q-82 -75 -160 -109.5t-173 -34.5q-190 0 -303 152.5t-113 424.5q0 144 39.5 254.5t104.5 185.5q62 73 148 113t179 40q86 0 149 -20t129 -59l12 48h176v-1529zM808 280v636q-71 35 -127 49t-120 14q-148 0 -228 -107t-80 -308q0 -196 64 -301.5
t199 -105.5q79 0 154 34t138 89z" />
    <glyph glyph-name="r" unicode="r" horiz-adv-x="738" 
d="M728 915h-10q-21 6 -44.5 7.5t-56.5 1.5q-76 0 -151 -33t-142 -98v-793h-188v1117h188v-166q103 91 179.5 128.5t148.5 37.5q29 0 43.5 -1.5t32.5 -4.5v-196z" />
    <glyph glyph-name="s" unicode="s" horiz-adv-x="914" 
d="M438 -27q-112 0 -209.5 30t-161.5 64v211h10q24 -19 56.5 -42t86.5 -48q48 -22 105.5 -39t119.5 -17q45 0 96 10.5t76 26.5q35 23 50.5 49t15.5 78q0 67 -36.5 101t-129.5 57q-36 9 -94 21t-107 26q-128 37 -186 114.5t-58 187.5q0 151 114 246t303 95q93 0 187 -23
t158 -58v-201h-10q-72 57 -160.5 90t-178.5 33q-93 0 -157 -39t-64 -118q0 -70 38 -104.5t122 -56.5q42 -11 93.5 -21.5t108.5 -24.5q124 -31 186.5 -103t62.5 -196q0 -72 -28.5 -136.5t-83.5 -110.5q-60 -50 -135.5 -76t-189.5 -26z" />
    <glyph glyph-name="t" unicode="t" horiz-adv-x="685" 
d="M474 -22q-154 0 -240 87.5t-86 276.5v619h-127v156h127v321h188v-321h346v-156h-346v-531q0 -85 3 -131t23 -86q17 -35 55 -52.5t103 -17.5q46 0 89 13.5t62 22.5h11v-169q-53 -15 -107.5 -23.5t-100.5 -8.5z" />
    <glyph glyph-name="u" unicode="u" horiz-adv-x="1142" 
d="M1006 0h-188v124q-87 -76 -165 -115.5t-174 -39.5q-73 0 -137.5 24t-112.5 76t-74.5 131t-26.5 192v725h188v-636q0 -89 6.5 -147.5t29.5 -102.5q23 -43 62.5 -63t113.5 -20q69 0 147 39t143 96v834h188v-1117z" />
    <glyph glyph-name="v" unicode="v" horiz-adv-x="1020" 
d="M1014 1117l-421 -1117h-169l-418 1117h203l306 -862l303 862h196z" />
    <glyph glyph-name="w" unicode="w" horiz-adv-x="1520" 
d="M1490 1117l-283 -1117h-174l-273 861l-271 -861h-173l-286 1117h196l197 -865l265 865h155l272 -865l186 865h189z" />
    <glyph glyph-name="x" unicode="x" horiz-adv-x="1014" 
d="M1004 0h-231l-271 422l-279 -422h-213l388 554l-384 563h231l269 -418l276 418h214l-386 -550z" />
    <glyph glyph-name="y" unicode="y" horiz-adv-x="1020" 
d="M1014 1117l-601 -1529h-201l200 466l-406 1063h203l305 -827l304 827h196z" />
    <glyph glyph-name="z" unicode="z" horiz-adv-x="910" 
d="M870 0h-821v139l584 823h-560v155h786v-134l-587 -826h598v-157z" />
    <glyph glyph-name="braceleft" unicode="{" horiz-adv-x="984" 
d="M886 -392h-116q-179 0 -280.5 98.5t-101.5 288.5v149q0 69 -13 139t-50 120t-96.5 75.5t-147.5 25.5h-21v156h21q88 0 147.5 25.5t96.5 75.5t50 120t13 139v149q0 190 101.5 288.5t280.5 98.5h116v-138h-80q-59 0 -102 -12t-74 -41q-32 -30 -47.5 -83t-15.5 -130v-175
q0 -82 -19 -138t-56 -105q-33 -44 -86 -80.5t-110 -59.5v-24q57 -23 109.5 -59.5t86.5 -80.5q37 -49 56 -105t19 -138v-175q0 -77 15.5 -130t47.5 -83q30 -29 73.5 -41t102.5 -12h80v-138z" />
    <glyph glyph-name="bar" unicode="|" horiz-adv-x="783" 
d="M475 -392h-167v1948h167v-1948z" />
    <glyph glyph-name="braceright" unicode="}" horiz-adv-x="984" 
d="M924 504h-21q-88 0 -147.5 -25.5t-96.5 -75.5t-50 -120t-13 -139v-149q0 -190 -101.5 -288.5t-280.5 -98.5h-116v138h80q59 0 102 12t74 41q32 30 47.5 83t15.5 130v175q0 82 19 138t56 105q33 44 86 80.5t110 59.5v24q-57 23 -110 59.5t-86 80.5q-37 49 -56 105t-19 138
v175q0 77 -15.5 130t-47.5 83q-31 29 -74 41t-102 12h-80v138h116q179 0 280.5 -98.5t101.5 -288.5v-149q0 -69 13 -139t50 -120t96.5 -75.5t147.5 -25.5h21v-156z" />
    <glyph glyph-name="asciitilde" unicode="~" horiz-adv-x="1490" 
d="M1356 927q-2 -102 -21 -196.5t-60 -169.5q-41 -73 -102 -119t-159 -46q-57 0 -102.5 15.5t-80.5 40.5t-67 60t-57 65q-27 33 -53 67t-51 60q-27 28 -56 45t-66 17q-50 0 -83 -26.5t-55 -78.5q-21 -50 -29.5 -120t-11.5 -146h-168q2 104 21.5 199t58.5 167
q40 76 106 120.5t156 44.5q60 0 105.5 -16t80.5 -41t64.5 -57t57.5 -67q22 -27 52.5 -66t51.5 -61q29 -30 58.5 -46t62.5 -16q50 0 84.5 28t53.5 76q20 50 29.5 117.5t11.5 149.5h168z" />
    <glyph glyph-name="Adieresis" unicode="&#x201a;" horiz-adv-x="1228" 
d="M-10 0l502 1489h244l502 -1489h-209l-135 416h-569l-135 -416h-200zM839 585l-230 702l-229 -702h459zM913 1657h-201v195h201v-195zM500 1657h-201v195h201v-195z" />
    <glyph glyph-name="Aring" unicode="&#x192;" horiz-adv-x="1228" 
d="M874.5 1532q-45.5 -69 -116.5 -107l480 -1425h-209l-135 416h-569l-135 -416h-200l479 1422q-72 40 -116.5 108.5t-44.5 154.5q0 128 89 214.5t217 86.5q129 0 217.5 -86t88.5 -215q0 -84 -45.5 -153zM839 584l-230 705l-229 -705h459zM773 1683q0 73 -44 121.5
t-115 48.5q-70 0 -114.5 -48.5t-44.5 -121.5q0 -74 45 -122.5t114 -48.5t114 48.5t45 122.5z" />
    <glyph glyph-name="Ccedilla" unicode="&#x201e;" horiz-adv-x="1230" 
d="M733 -27q-146 0 -268.5 49t-211.5 146t-138 242t-49 333q0 187 47.5 326t138.5 242q89 100 211 152.5t273 52.5q75 0 140.5 -11t121.5 -28q48 -15 98.5 -37.5t99.5 -49.5v-239h-16q-26 24 -67 58t-100 67q-57 31 -124 51t-155 20q-95 0 -180 -39t-149 -115
q-63 -76 -98 -191t-35 -259q0 -153 37 -263.5t101 -186.5q62 -74 146 -111.5t178 -37.5q86 0 159 21t130 53q55 31 95 63.5t63 55.5h15v-236q-49 -23 -92.5 -44t-105.5 -41q-8 -3 -23 -7.5t-21 -5.5q1 -15 3 -39t2 -53q0 -149 -82 -241.5t-227 -92.5q-37 0 -87 6t-90 18v160
h9q24 -11 63 -22.5t79 -11.5q94 0 138 39.5t44 126.5q0 18 -0.5 38t-1.5 45q-18 -1 -33.5 -2t-37.5 -1z" />
    <glyph glyph-name="Eacute" unicode="&#x2026;" horiz-adv-x="1149" 
d="M151 0v1489h931v-176h-733v-408h683v-176h-683v-553h733v-176h-931zM920 2049l-273 -374h-149l179 374h243z" />
    <glyph glyph-name="Ntilde" unicode="&#x2020;" horiz-adv-x="1367" 
d="M1216 0h-222l-658 1284v-1284h-185v1489h281l599 -1179v1179h185v-1489zM1110 1985q-10 -156 -74.5 -234t-171.5 -78q-52 0 -96 19t-86 59q-44 41 -76 62.5t-63 21.5q-49 0 -68.5 -45t-23.5 -121h-140q7 154 76 232.5t169 78.5q51 0 94 -19.5t86 -57.5q43 -39 77.5 -59.5
t63.5 -20.5q47 0 68.5 45t24.5 117h140z" />
    <glyph glyph-name="Odieresis" unicode="&#x2021;" horiz-adv-x="1449" 
d="M1204 1318q85 -98 132 -243t47 -331q0 -181 -46 -327t-133 -245q-91 -104 -212.5 -153.5t-267.5 -49.5q-151 0 -272 51t-208 152q-86 99 -132 244t-46 328q0 188 46.5 330t132.5 244q86 99 207.5 150.5t271.5 51.5q152 0 274 -53t206 -149zM1177 744q0 148 -32 262
t-90 189q-59 77 -142.5 115.5t-187.5 38.5q-108 0 -188.5 -37.5t-142.5 -116.5q-59 -76 -90.5 -191t-31.5 -260q0 -293 123 -448.5t330 -155.5t329.5 155.5t122.5 448.5zM1027 1677h-201v195h201v-195zM614 1677h-201v195h201v-195z" />
    <glyph glyph-name="Udieresis" unicode="&#x2030;" horiz-adv-x="1343" 
d="M671 -31q-131 0 -229 34.5t-167 102.5q-78 78 -110 186.5t-32 267.5v929h198v-929q0 -103 13 -173.5t51 -126.5q40 -60 108.5 -91t167.5 -31q93 0 165 31t112 91q37 57 50.5 126t13.5 169v934h198v-929q0 -155 -31.5 -266t-110.5 -188q-71 -69 -165.5 -103t-231.5 -34z
M1004 1677h-201v195h201v-195zM591 1677h-201v195h201v-195z" />
    <glyph glyph-name="aacute" unicode="&#x2039;" horiz-adv-x="1174" 
d="M1043 541l-488 419v85l488 418v-188l-317 -273l317 -273v-188zM613 512l-510 446v89l510 445v-196l-331 -294l331 -294v-196z" />
    <glyph glyph-name="agrave" unicode="&#x152;" horiz-adv-x="1075" 
d="M760 275v310q-67 -6 -169.5 -16.5t-165.5 -29.5q-75 -23 -124 -70.5t-49 -132.5q0 -96 54 -145t158 -49q89 0 161 38.5t135 94.5zM760 119q-23 -17 -61.5 -47.5t-74.5 -48.5q-50 -26 -96.5 -40t-130.5 -14q-69 0 -131 26t-109 73q-45 46 -72 113.5t-27 142.5
q0 116 49 197.5t155 129.5q94 43 222 59.5t276 24.5v36q0 66 -20 106.5t-56 62.5q-36 23 -88 30.5t-107 7.5q-65 0 -153 -19.5t-176 -56.5h-11v191q52 15 149 33t192 18q115 0 194 -18t142 -65q61 -46 91 -119t30 -178v-764h-187v119zM670 1302h-149l-273 374h243z" />
    <glyph glyph-name="acircumflex" unicode="&#x2018;" horiz-adv-x="499" 
d="M385 1444q-35 -12 -64.5 -33.5t-49 -47.5t-31 -53.5t-11.5 -54.5q0 -43 31 -76.5t94 -39.5q17 -9 23 -24t6 -30q0 -38 -29.5 -62t-68.5 -24q-37 0 -69 17.5t-53.5 46.5t-33.5 63.5t-12 69.5q0 53 19.5 100t54 85t79.5 68t95 48z" />
    <glyph glyph-name="adieresis" unicode="&#x2019;" horiz-adv-x="858" 
d="M362 993q-49 19 -94 48.5t-78.5 68.5t-54 85t-20.5 99q0 35 12 71t33.5 63.5t53.5 46t71 18.5q37 0 66.5 -23.5t29.5 -64.5q0 -14 -6 -29.5t-23 -23.5q-63 -6 -88.5 -40t-25.5 -75q0 -53 36.5 -108.5t108.5 -81.5zM725 993q-51 19 -95 48.5t-78 68.5t-54.5 85t-20.5 99
q0 35 11.5 71t34 63.5t53 46t69.5 18.5t68.5 -23.5t29.5 -64.5q0 -14 -7 -29.5t-21 -23.5q-64 -6 -94.5 -40t-30.5 -75q0 -27 11 -54.5t30.5 -53t48.5 -47t65 -35.5z" />
    <glyph glyph-name="atilde" unicode="&#x201c;" horiz-adv-x="858" 
d="M745 1444q-36 -12 -65 -33.5t-48.5 -47.5t-30.5 -53.5t-11 -54.5q0 -43 30.5 -76.5t94.5 -39.5q14 -9 21 -24t7 -30q0 -38 -29.5 -62t-68.5 -24t-69.5 17.5t-53 46.5t-34 63.5t-11.5 69.5q0 53 19.5 100t54.5 85t79 68t95 48zM385 1444q-35 -12 -64.5 -33.5t-49 -47.5
t-31 -53.5t-11.5 -54.5q0 -43 31 -76.5t94 -39.5q17 -9 23 -24t6 -30q0 -38 -29.5 -62t-68.5 -24q-37 0 -69 17.5t-53.5 46.5t-33.5 63.5t-12 69.5q0 53 19.5 100t54 85t79.5 68t95 48z" />
    <glyph glyph-name="aring" unicode="&#x201d;" horiz-adv-x="858" 
d="M477 1047q72 26 109 81.5t37 108.5q0 41 -26 75t-89 40q-16 8 -22.5 23.5t-6.5 29.5q0 41 30 64.5t66 23.5q39 0 71 -18.5t53.5 -46t33.5 -63.5t12 -71q0 -53 -20 -99t-54 -85t-79 -68.5t-94 -48.5zM115 1047q37 14 65.5 35.5t48 47t30.5 53t11 54.5q0 41 -30.5 75
t-94.5 40q-14 8 -21 23.5t-7 29.5q0 41 29.5 64.5t68.5 23.5t69.5 -18.5t53 -46t34 -63.5t11.5 -71q0 -53 -20.5 -99t-54.5 -85t-78 -68.5t-95 -48.5z" />
    <glyph glyph-name="ccedilla" unicode="&#x2022;" horiz-adv-x="945" 
d="M580 -25q-115 0 -211 35.5t-165 107.5t-107 181.5t-38 257.5q0 147 39.5 254t105.5 180t164.5 112.5t211.5 39.5q92 0 177.5 -26t152.5 -60v-211h-11q-20 17 -51.5 39t-76.5 45q-39 20 -92 35t-102 15q-146 0 -234.5 -110.5t-88.5 -312.5q0 -198 85.5 -308.5
t237.5 -110.5q92 0 175 38t147 98h11v-211q-28 -13 -65 -29t-68 -26q1 -16 3 -42t2 -55q0 -149 -82 -241.5t-227 -92.5q-37 0 -87 6t-90 18v160h9q24 -11 63 -22.5t79 -11.5q94 0 138 39.5t44 126.5q0 18 -0.5 38.5t-1.5 45.5q-13 0 -22.5 -1t-24.5 -1z" />
    <glyph glyph-name="eacute" unicode="&#x2013;" horiz-adv-x="1078" 
d="M621 -26q-267 0 -414.5 150.5t-147.5 427.5q0 273 143 434.5t374 161.5q104 0 184 -30t140 -94t92 -156.5t32 -226.5v-102h-774q0 -195 98 -298t271 -103q62 0 121.5 14t107.5 36q51 23 86 44.5t58 40.5h11v-205q-33 -13 -82 -32.5t-88 -30.5q-55 -15 -99.5 -23
t-112.5 -8zM841 683q-2 76 -18 131t-46 93q-33 42 -84.5 64t-127.5 22q-75 0 -127.5 -22.5t-95.5 -65.5q-42 -44 -64 -97.5t-28 -124.5h591zM889 1676l-273 -374h-149l179 374h243z" />
    <glyph glyph-name="egrave" unicode="&#x2014;" horiz-adv-x="1078" 
d="M621 -26q-267 0 -414.5 150.5t-147.5 427.5q0 273 143 434.5t374 161.5q104 0 184 -30t140 -94t92 -156.5t32 -226.5v-102h-774q0 -195 98 -298t271 -103q62 0 121.5 14t107.5 36q51 23 86 44.5t58 40.5h11v-205q-33 -13 -82 -32.5t-88 -30.5q-55 -15 -99.5 -23
t-112.5 -8zM841 683q-2 76 -18 131t-46 93q-33 42 -84.5 64t-127.5 22q-75 0 -127.5 -22.5t-95.5 -65.5q-42 -44 -64 -97.5t-28 -124.5h591zM685 1302h-149l-273 374h243z" />
    <glyph glyph-name="ecircumflex" unicode="&#x2122;" horiz-adv-x="1078" 
d="M621 -26q-267 0 -414.5 150.5t-147.5 427.5q0 273 143 434.5t374 161.5q104 0 184 -30t140 -94t92 -156.5t32 -226.5v-102h-774q0 -195 98 -298t271 -103q62 0 121.5 14t107.5 36q51 23 86 44.5t58 40.5h11v-205q-33 -13 -82 -32.5t-88 -30.5q-55 -15 -99.5 -23
t-112.5 -8zM841 683q-2 76 -18 131t-46 93q-33 42 -84.5 64t-127.5 22q-75 0 -127.5 -22.5t-95.5 -65.5q-42 -44 -64 -97.5t-28 -124.5h591zM915 1297h-159l-185 256l-184 -256h-155l228 379h227z" />
    <glyph glyph-name="edieresis" unicode="&#x203a;" horiz-adv-x="1174" 
d="M1071 958l-510 -446v196l331 294l-331 294v196l510 -445v-89zM619 960l-488 -419v188l317 273l-317 273v188l488 -418v-85z" />
    <glyph glyph-name="iacute" unicode="&#x153;" horiz-adv-x="468" 
d="M328 0h-188v1117h188v-1117zM548 1676l-273 -374h-149l179 374h243z" />
    <glyph glyph-name="igrave" unicode="&#x178;" horiz-adv-x="468" 
d="M328 0h-188v1117h188v-1117zM427 1302h-149l-273 374h243z" />
    <glyph glyph-name="icircumflex" unicode="&#xa0;" horiz-adv-x="468" 
d="M328 0h-188v1117h188v-1117zM521 1297h-151l-139 263l-138 -263h-147l174 379h227z" />
    <glyph glyph-name="idieresis" unicode="&#xa1;" horiz-adv-x="468" 
d="M328 0h-188v1117h188v-1117zM506 1304h-189v195h189v-195zM151 1304h-189v195h189v-195z" />
    <glyph glyph-name="ntilde" unicode="&#xa2;" horiz-adv-x="1142" 
d="M1014 0h-188v636q0 77 -7.5 143.5t-28.5 106.5q-23 42 -64 62.5t-112 20.5q-70 0 -144.5 -37.5t-145.5 -97.5v-834h-188v1117h188v-124q84 75 166 115t173 40q165 0 258 -108.5t93 -314.5v-725zM978 1632q-10 -156 -74.5 -234t-171.5 -78q-52 0 -96 19t-86 59
q-44 41 -76 62.5t-63 21.5q-49 0 -68.5 -45t-23.5 -121h-140q7 154 76 232.5t169 78.5q51 0 94 -19.5t86 -57.5q43 -39 77.5 -59.5t63.5 -20.5q47 0 68.5 45t24.5 117h140z" />
    <glyph glyph-name="oacute" unicode="&#xa3;" horiz-adv-x="1112" 
d="M1055 558q0 -282 -136 -435.5t-362 -153.5q-233 0 -366.5 158.5t-133.5 430.5q0 280 137.5 435t362.5 155q226 0 362 -154.5t136 -435.5zM861 558q0 217 -79 322.5t-225 105.5q-147 0 -226.5 -105.5t-79.5 -322.5q0 -210 79.5 -318.5t226.5 -108.5q145 0 224.5 106.5
t79.5 320.5zM871 1676l-273 -374h-149l179 374h243z" />
    <glyph glyph-name="ograve" unicode="&#xa4;" horiz-adv-x="1112" 
d="M1055 558q0 -282 -136 -435.5t-362 -153.5q-233 0 -366.5 158.5t-133.5 430.5q0 280 137.5 435t362.5 155q226 0 362 -154.5t136 -435.5zM861 558q0 217 -79 322.5t-225 105.5q-147 0 -226.5 -105.5t-79.5 -322.5q0 -210 79.5 -318.5t226.5 -108.5q145 0 224.5 106.5
t79.5 320.5zM670 1302h-149l-273 374h243z" />
    <glyph glyph-name="ocircumflex" unicode="&#xa5;" horiz-adv-x="1112" 
d="M1055 558q0 -282 -136 -435.5t-362 -153.5q-233 0 -366.5 158.5t-133.5 430.5q0 280 137.5 435t362.5 155q226 0 362 -154.5t136 -435.5zM861 558q0 217 -79 322.5t-225 105.5q-147 0 -226.5 -105.5t-79.5 -322.5q0 -210 79.5 -318.5t226.5 -108.5q145 0 224.5 106.5
t79.5 320.5zM901 1297h-159l-185 256l-184 -256h-155l228 379h227z" />
    <glyph glyph-name="odieresis" unicode="&#xa7;" horiz-adv-x="1112" 
d="M1055 558q0 -282 -136 -435.5t-362 -153.5q-233 0 -366.5 158.5t-133.5 430.5q0 280 137.5 435t362.5 155q226 0 362 -154.5t136 -435.5zM861 558q0 217 -79 322.5t-225 105.5q-147 0 -226.5 -105.5t-79.5 -322.5q0 -210 79.5 -318.5t226.5 -108.5q145 0 224.5 106.5
t79.5 320.5zM867 1304h-201v195h201v-195zM454 1304h-201v195h201v-195z" />
    <glyph glyph-name="otilde" unicode="&#xa8;" horiz-adv-x="1112" 
d="M1055 558q0 -282 -136 -435.5t-362 -153.5q-233 0 -366.5 158.5t-133.5 430.5q0 280 137.5 435t362.5 155q226 0 362 -154.5t136 -435.5zM861 558q0 217 -79 322.5t-225 105.5q-147 0 -226.5 -105.5t-79.5 -322.5q0 -210 79.5 -318.5t226.5 -108.5q145 0 224.5 106.5
t79.5 320.5zM960 1632q-10 -156 -74.5 -234t-171.5 -78q-52 0 -96 19t-86 59q-44 41 -76 62.5t-63 21.5q-49 0 -68.5 -45t-23.5 -121h-140q7 154 76 232.5t169 78.5q51 0 94 -19.5t86 -57.5q43 -39 77.5 -59.5t63.5 -20.5q47 0 68.5 45t24.5 117h140z" />
    <glyph glyph-name="uacute" unicode="&#xa9;" horiz-adv-x="1142" 
d="M1006 0h-188v124q-87 -76 -165 -115.5t-174 -39.5q-73 0 -137.5 24t-112.5 76t-74.5 131t-26.5 192v725h188v-636q0 -89 6.5 -147.5t29.5 -102.5q23 -43 62.5 -63t113.5 -20q69 0 147 39t143 96v834h188v-1117zM871 1676l-273 -374h-149l179 374h243z" />
    <glyph glyph-name="ugrave" unicode="&#xaa;" horiz-adv-x="1142" 
d="M1006 0h-188v124q-87 -76 -165 -115.5t-174 -39.5q-73 0 -137.5 24t-112.5 76t-74.5 131t-26.5 192v725h188v-636q0 -89 6.5 -147.5t29.5 -102.5q23 -43 62.5 -63t113.5 -20q69 0 147 39t143 96v834h188v-1117zM687 1302h-149l-273 374h243z" />
    <glyph glyph-name="ucircumflex" unicode="&#xab;" horiz-adv-x="1142" 
d="M1006 0h-188v124q-87 -76 -165 -115.5t-174 -39.5q-73 0 -137.5 24t-112.5 76t-74.5 131t-26.5 192v725h188v-636q0 -89 6.5 -147.5t29.5 -102.5q23 -43 62.5 -63t113.5 -20q69 0 147 39t143 96v834h188v-1117zM908 1297h-159l-185 256l-184 -256h-155l228 379h227z" />
    <glyph glyph-name="udieresis" unicode="&#xac;" horiz-adv-x="1142" 
d="M1006 0h-188v124q-87 -76 -165 -115.5t-174 -39.5q-73 0 -137.5 24t-112.5 76t-74.5 131t-26.5 192v725h188v-636q0 -89 6.5 -147.5t29.5 -102.5q23 -43 62.5 -63t113.5 -20q69 0 147 39t143 96v834h188v-1117zM879 1304h-201v195h201v-195zM466 1304h-201v195h201v-195z
" />
    <glyph glyph-name="dagger" unicode="&#xae;" horiz-adv-x="1118" 
d="M983 1034l-363 5l5 -904h-132l5 904l-363 -5v129l363 -5l-5 398h132l-5 -398l363 5v-129z" />
    <glyph glyph-name="degree" unicode="&#xaf;" horiz-adv-x="964" 
d="M863 1135q0 -160 -110 -270t-271 -110q-159 0 -270 109t-111 271q0 160 110 270t271 110t271 -110t110 -270zM706 1135q0 96 -64 162t-160 66t-160 -66t-64 -162q0 -98 65.5 -163t158.5 -65q96 0 160 66.5t64 161.5z" />
    <glyph glyph-name="cent" unicode="&#xb0;" horiz-adv-x="1118" 
d="M557 2q-215 25 -329 169t-114 386q0 238 118 386t325 172v360h114v-359q87 -3 167.5 -26.5t136.5 -52.5v-200h-10q-62 51 -132 89t-162 51v-836q49 5 98.5 23t83.5 38q36 21 64 41.5t48 37.5h10v-198q-65 -30 -135.5 -53.5t-168.5 -28.5v-362h-114v363zM557 146v825
q-116 -21 -183 -125.5t-67 -288.5q0 -188 68.5 -289.5t181.5 -121.5z" />
    <glyph glyph-name="sterling" unicode="&#xb1;" horiz-adv-x="1118" 
d="M1031 0h-942v207q111 33 156.5 128t45.5 278h-161v138h161v320q0 201 116 324t301 123q97 0 166 -15.5t127 -32.5v-206h-10q-58 41 -129 64t-135 23q-123 0 -183.5 -77t-60.5 -222v-301h364v-138h-364v-61q0 -117 -58.5 -212.5t-163.5 -157.5v-11h770v-171z" />
    <glyph glyph-name="section" unicode="&#xb4;" horiz-adv-x="1118" 
d="M759 401q24 35 37.5 67.5t13.5 86.5q0 49 -14.5 85t-39.5 59q-24 23 -56 38.5t-74 28.5q-33 10 -77 22.5t-99 30.5q-20 -12 -41.5 -30t-47.5 -51q-20 -26 -36.5 -70t-16.5 -89q0 -81 38 -129t146 -81q34 -10 77.5 -23.5t97.5 -30.5q19 12 44 33t48 53zM182 -133
q26 -13 64.5 -29t74.5 -28q47 -15 87 -22.5t101 -7.5q114 0 190.5 46.5t76.5 137.5q0 54 -18.5 87.5t-59.5 59.5q-42 25 -103.5 42.5t-134.5 38.5q-88 25 -146.5 51t-105.5 69q-45 41 -67 95t-22 126q0 94 49 178.5t150 146.5v7q-91 50 -130.5 121t-39.5 161q0 168 128 270
t352 102q85 0 157 -13t161 -44v-194h-10q-90 45 -167.5 66t-161.5 21q-112 0 -189.5 -45.5t-77.5 -133.5q0 -57 20.5 -93t59.5 -59q39 -24 99.5 -43t137.5 -39q184 -50 262.5 -128.5t78.5 -212.5q0 -108 -54.5 -189t-144.5 -135v-7q87 -46 128.5 -116t41.5 -164
q0 -74 -31.5 -145t-89.5 -119q-62 -53 -148.5 -82t-209.5 -29q-79 0 -157 14t-161 44v194h10z" />
    <glyph glyph-name="bullet" unicode="&#xb5;" horiz-adv-x="931" 
d="M817 662q0 -145 -103.5 -248t-248.5 -103t-248 103t-103 248t103 248t248 103t248.5 -103t103.5 -248z" />
    <glyph glyph-name="paragraph" unicode="&#xb6;" horiz-adv-x="1118" 
d="M982 -363h-140v1722h-187v-1722h-140v956q-206 5 -332 129t-126 328q0 207 130 323t373 116h422v-1852z" />
    <glyph glyph-name="germandbls" unicode="&#xb7;" horiz-adv-x="1123" 
d="M1068 481q0 -218 -135 -361.5t-351 -143.5q-25 0 -62.5 3t-59.5 7v166h10q28 -8 59 -12.5t61 -4.5q77 0 131.5 27.5t87.5 74.5q35 51 49.5 111t14.5 141q0 169 -103 248.5t-304 79.5v157q152 0 233.5 57.5t81.5 190.5q0 33 -10 68.5t-34 63.5q-24 29 -62 46.5t-97 17.5
q-53 0 -96 -14.5t-81 -54.5q-36 -37 -56.5 -103t-20.5 -160v-1086h-188v1080q0 130 34 218t95 150q60 60 142.5 89t174.5 29q168 0 279.5 -85t111.5 -240q0 -112 -71 -201t-184 -121v-9q164 -37 257 -147t93 -282z" />
    <glyph glyph-name="registered" unicode="&#xb8;" horiz-adv-x="1902" 
d="M1816 655q0 -358 -253.5 -611.5t-611.5 -253.5t-611.5 253.5t-253.5 611.5t253.5 611t611.5 253t611.5 -253t253.5 -611zM1701 655q0 313 -219.5 533.5t-529.5 220.5t-529.5 -220.5t-219.5 -533.5t219.5 -534t529.5 -221t529.5 221t219.5 534zM1448 215h-227l-283 355
h-123v-355h-165v915h279q94 0 148.5 -7t110.5 -39q60 -34 87 -82t27 -123q0 -100 -55.5 -164t-144.5 -100zM1120 868q0 37 -12 64t-42 46q-25 16 -56 21.5t-80 5.5h-115v-309h98q48 0 90 9.5t68 32.5t37.5 53t11.5 77z" />
    <glyph glyph-name="copyright" unicode="&#xba;" horiz-adv-x="1902" 
d="M1816 655q0 -358 -253.5 -611.5t-611.5 -253.5t-611.5 253.5t-253.5 611.5t253.5 611t611.5 253t611.5 -253t253.5 -611zM1701 655q0 313 -219.5 533.5t-529.5 220.5t-529.5 -220.5t-219.5 -533.5t219.5 -534t529.5 -221t529.5 221t219.5 534zM1274 255
q-67 -30 -134 -52.5t-158 -22.5q-209 0 -330 123.5t-121 356.5q0 230 125 356.5t326 126.5q83 0 159 -22t133 -51v-181h-16q-43 38 -119 72.5t-153 34.5q-123 0 -196.5 -82t-73.5 -254q0 -162 70 -247.5t200 -85.5q84 0 159 36.5t113 70.5h16v-179z" />
    <glyph glyph-name="trademark" unicode="&#xbb;" horiz-adv-x="1794" 
d="M1634 785h-124v616h-20l-204 -453h-85l-206 460h-25v-623h-123v704h238l161 -382l161 382h227v-704zM692 1372h-229v-587h-127v587h-229v117h585v-117z" />
    <glyph glyph-name="acute" unicode="&#xbf;" horiz-adv-x="1118" 
d="M871 1676l-273 -374h-149l179 374h243z" />
    <glyph glyph-name="dieresis" unicode="&#xc0;" horiz-adv-x="1118" 
d="M867 1304h-201v195h201v-195zM454 1304h-201v195h201v-195z" />
    <glyph glyph-name="notequal" unicode="&#xc1;" horiz-adv-x="1490" 
d="M1298 362h-568l-105 -335h-153l105 335h-385v156h434l84 268h-518v156h566l105 335h153l-105 -335h387v-156h-436l-83 -268h519v-156z" />
    <glyph glyph-name="AE" unicode="&#xc2;" horiz-adv-x="1870" 
d="M1802 0h-912v557h-505l-217 -557h-207l603 1489h1238v-176h-716v-408h666v-176h-666v-553h716v-176zM890 723v601h-194l-245 -601h439z" />
    <glyph glyph-name="Oslash" unicode="&#xc3;" horiz-adv-x="1449" 
d="M1383 744q0 -368 -180 -571.5t-479 -203.5q-110 0 -204.5 29t-171.5 82l-132 -196h-148l189 278q-90 99 -140.5 245t-50.5 337q0 368 180.5 572t477.5 204q114 0 203.5 -27.5t169.5 -82.5l115 171h148l-171 -251q91 -100 142.5 -243.5t51.5 -342.5zM995 1260
q-52 44 -120 66.5t-150 22.5q-208 0 -331.5 -154t-123.5 -451q0 -135 26 -239.5t73 -180.5zM1179 744q0 138 -27.5 246t-73.5 179l-628 -937q57 -46 120.5 -69t154.5 -23q206 0 330 155.5t124 448.5z" />
    <glyph glyph-name="infinity" unicode="&#xc4;" horiz-adv-x="1862" 
d="M1752 663q0 -229 -113.5 -367.5t-316.5 -138.5q-127 0 -234 80.5t-168 218.5q-77 -153 -176.5 -226t-236.5 -73q-182 0 -289.5 137t-107.5 348q0 236 117.5 371t312.5 135q127 0 234 -80.5t168 -218.5q75 150 177 224.5t236 74.5q182 0 289.5 -137t107.5 -348zM873 729
q-60 117 -144.5 175.5t-174.5 58.5q-131 0 -202.5 -82t-71.5 -239q0 -142 62.5 -220.5t167.5 -78.5q85 0 143 37.5t124 153.5q25 44 49.5 92t46.5 103zM1582 663q0 144 -63 221.5t-167 77.5q-88 0 -145 -39t-123 -152q-33 -55 -52.5 -97.5t-42.5 -97.5q58 -116 143.5 -175
t175.5 -59q131 0 202.5 81.5t71.5 239.5z" />
    <glyph glyph-name="plusminus" unicode="&#xc5;" horiz-adv-x="1490" 
d="M1328 159h-1166v158h500v422h-500v158h500v505h166v-505h500v-158h-500v-422h500v-158z" />
    <glyph glyph-name="lessequal" unicode="&#xc6;" horiz-adv-x="1490" 
d="M1275 305l-1074 483v120l1074 483v-181l-812 -362l812 -362v-181zM1275 0h-1074v160h1074v-160z" />
    <glyph glyph-name="greaterequal" unicode="&#xc7;" horiz-adv-x="1490" 
d="M1289 788l-1074 -483v181l812 362l-812 362v181l1074 -483v-120zM1289 0h-1074v160h1074v-160z" />
    <glyph glyph-name="yen" unicode="&#xc8;" horiz-adv-x="1118" 
d="M1059 1489l-408 -811v-100h342v-138h-340v-440h-188v440h-340v138h342v79l-411 832h210l294 -639l298 639h201z" />
    <glyph glyph-name="mu1" unicode="&#xc9;" horiz-adv-x="1163" 
d="M1027 0h-172v116h-6q-60 -63 -120.5 -98t-150.5 -35q-92 0 -145 35t-109 97v-527h-188v1529h188v-842q42 -50 105 -80.5t149 -30.5q90 0 151.5 29t109.5 82v842h188v-1117z" />
    <glyph glyph-name="partialdiff" unicode="&#xca;" horiz-adv-x="1118" 
d="M1033 837q0 -68 -7.5 -153.5t-25.5 -170.5t-48 -170t-74 -153q-82 -123 -178.5 -172t-205.5 -49q-190 0 -308.5 123.5t-118.5 331.5q0 228 130.5 372.5t326.5 144.5q87 0 163 -26t151 -91q2 26 2.5 53t0.5 58q0 216 -75 317.5t-221 101.5q-79 0 -165 -31t-162 -87h-13
v194q79 44 179.5 66.5t187.5 22.5q140 0 236.5 -56t155.5 -177q41 -86 55 -191t14 -258zM832 678q-56 46 -129 73.5t-143 27.5q-134 0 -213.5 -89t-79.5 -263q0 -146 63.5 -222t169.5 -76q143 0 230 143t102 406z" />
    <glyph glyph-name="summation" unicode="&#xcb;" horiz-adv-x="1303" 
d="M1228 -189h-1102v191l626 668l-616 631v188h1053v-176h-807l601 -598v-72l-628 -656h873v-176z" />
    <glyph glyph-name="product" unicode="&#xcc;" horiz-adv-x="1393" 
d="M1237 1489v-1678h-198v1502h-685v-1502h-198v1678h1081z" />
    <glyph glyph-name="pi1" unicode="&#xcd;" horiz-adv-x="1154" 
d="M1018 0h-188v955h-506v-955h-188v1117h882v-1117z" />
    <glyph glyph-name="integral" unicode="&#xce;" horiz-adv-x="1118" 
d="M1048 1369h-10q-29 10 -80.5 18.5t-80.5 8.5q-127 0 -175.5 -59.5t-48.5 -211.5v-1123q0 -210 -105.5 -317.5t-283.5 -107.5q-48 0 -94 4.5t-96 14.5v178h10q38 -11 82 -19t75 -8q127 0 175.5 59.5t48.5 211.5v1123q0 210 105 317.5t284 107.5q58 0 105 -5.5t89 -13.5
v-178z" />
    <glyph glyph-name="ordfeminine" unicode="&#xcf;" horiz-adv-x="1010" 
d="M874 566h-166v91q-19 -15 -51 -38.5t-63 -37.5q-41 -19 -80.5 -29.5t-109.5 -10.5q-124 0 -207 83.5t-83 214.5q0 104 43 169.5t123 103.5q75 36 189 51t239 21v19q0 52 -16.5 84t-48.5 50q-29 17 -72 22.5t-89 5.5q-78 0 -158.5 -23.5t-119.5 -37.5h-15v170
q44 13 131.5 29t162.5 16q192 0 291.5 -76.5t99.5 -248.5v-628zM708 802v243q-65 -4 -151 -12t-137 -23q-60 -17 -97 -55.5t-37 -105.5q0 -75 44 -114t131 -39q76 0 136.5 33t110.5 73z" />
    <glyph glyph-name="ordmasculine" unicode="&#xd1;" horiz-adv-x="1010" 
d="M926 1030q0 -234 -117 -362t-303 -128q-193 0 -307 131.5t-114 358.5q0 233 117 361.5t304 128.5t303.5 -127t116.5 -363zM746 1030q0 173 -64.5 256.5t-175.5 83.5t-176 -82.5t-65 -257.5q0 -169 64 -254.5t177 -85.5q111 0 175.5 85.5t64.5 254.5z" />
    <glyph glyph-name="Ohm" unicode="&#xd2;" horiz-adv-x="1438" 
d="M1403 0h-559v387q61 38 120.5 83.5t99.5 101.5q45 62 68.5 133t23.5 188q0 95 -26.5 179t-80.5 145q-53 61 -136 96.5t-190 35.5q-109 0 -191 -35t-140 -98q-53 -58 -81.5 -144.5t-28.5 -178.5q0 -109 26.5 -187.5t70.5 -134.5q45 -57 104 -101.5t119 -82.5v-387h-559
v174h393v124q-73 42 -138 101.5t-115 134.5q-50 76 -78.5 166.5t-28.5 192.5q0 139 43.5 250t128.5 198q81 83 204 131t271 48t268 -46.5t203 -131.5q82 -84 125 -198.5t43 -250.5q0 -103 -27.5 -193.5t-74.5 -164.5t-111 -134t-139 -103v-124h393v-174z" />
    <glyph glyph-name="ae" unicode="&#xd3;" horiz-adv-x="1802" 
d="M817 298q-19 54 -29 119.5t-10 140.5q-95 -3 -189.5 -8.5t-169.5 -26.5q-74 -20 -121 -66t-47 -127q0 -95 56 -141.5t167 -46.5q91 0 184 44t159 112zM1340 138q65 0 125.5 14.5t106.5 35.5q51 23 86 44.5t58 40.5h11v-205l-82.5 -32.5t-88.5 -30.5q-55 -15 -99.5 -23
t-114.5 -8q-161 0 -276 52t-189 155q-21 -19 -64.5 -59.5t-91.5 -68.5q-65 -38 -134.5 -60t-179.5 -22q-146 0 -247.5 97t-101.5 249q0 129 53 204t150 117q92 39 231.5 52t293.5 16v58q0 65 -21.5 108t-60.5 67q-36 22 -87.5 31.5t-116.5 9.5q-81 0 -176.5 -26.5
t-152.5 -51.5h-15v191q49 14 151.5 33.5t193.5 19.5q160 0 260 -48t153 -136q66 81 165 133.5t217 52.5q224 0 338.5 -134.5t114.5 -372.5v-82h-788q0 -114 30 -195.5t83 -132.5q53 -50 120 -71.5t146 -21.5zM1567 703q-5 59 -20.5 112.5t-47.5 92.5q-31 38 -85 61.5
t-127 23.5q-78 0 -129.5 -21.5t-94.5 -62.5q-40 -38 -64.5 -92.5t-34.5 -113.5h603z" />
    <glyph glyph-name="oslash" unicode="&#xd4;" horiz-adv-x="1112" 
d="M1055 558q0 -282 -136 -435t-362 -153q-79 0 -145 20.5t-124 56.5l-123 -194h-124l168 261q-72 76 -112 187t-40 257q0 280 137.5 434.5t362.5 154.5q75 0 142 -20t124 -57l108 170h125l-152 -236q71 -77 111 -186t40 -260zM735 932q-34 26 -78 40t-100 14
q-147 0 -228 -107.5t-81 -320.5q0 -97 14.5 -169.5t43.5 -126.5zM864 558q0 99 -14.5 173t-42.5 125l-429 -669q38 -29 79.5 -42.5t99.5 -13.5q145 0 226 106.5t81 320.5z" />
    <glyph glyph-name="questiondown" unicode="&#xd5;" horiz-adv-x="970" 
d="M632 1278h-204v211h204v-211zM861 40q-79 -30 -167 -50t-195 -20q-205 0 -323 104.5t-118 275.5q0 94 30 168t89 141q53 59 122.5 106.5t144.5 95.5v228h179v-305q-71 -43 -131.5 -81t-115.5 -89q-51 -48 -82.5 -109t-31.5 -140q0 -113 71 -168.5t185 -55.5
q99 0 191 34.5t141 68.5h11v-204z" />
    <glyph glyph-name="exclamdown" unicode="&#xd6;" horiz-adv-x="680" 
d="M442 1278h-204v211h204v-211zM452 0h-224l28 1079h166z" />
    <glyph glyph-name="logicalnot" unicode="&#xd8;" horiz-adv-x="1490" 
d="M1323 57h-171v545h-995v160h1166v-705z" />
    <glyph glyph-name="radical" unicode="&#xd9;" horiz-adv-x="1490" 
d="M1554 1789l-790 -1940h-104l-342 993h-237v139h393l265 -797l653 1605h162z" />
    <glyph glyph-name="florin" unicode="&#xda;" horiz-adv-x="1118" 
d="M1087 1320h-10q-27 10 -78.5 23.5t-89.5 13.5q-112 0 -162 -60.5t-72 -213.5l-29 -199h292v-138h-310l-70 -511q-32 -231 -137 -334t-286 -103q-39 0 -86.5 4.5t-97.5 13.5v181h10q28 -10 77.5 -23.5t90.5 -13.5q112 0 163 61t71 213l72 512h-178v138h196l27 198
q17 123 54 206.5t92 136.5q52 49 125.5 71.5t151.5 22.5q50 0 91 -4.5t93 -13.5v-181z" />
    <glyph glyph-name="approxequal" unicode="&#xdb;" horiz-adv-x="1490" 
d="M1298 1104q-19 -195 -100.5 -293.5t-235.5 -98.5q-69 0 -136.5 37t-120.5 83q-28 24 -90.5 65t-105.5 41q-72 0 -105 -47t-59 -172h-155q21 181 104 279t233 98q66 0 134.5 -36.5t122.5 -82.5q36 -30 94.5 -68.5t101.5 -38.5q69 0 106 53.5t55 180.5h157zM1299 588
q-23 -185 -102.5 -282t-235.5 -97q-66 0 -134.5 37t-122.5 83q-37 31 -95 68.5t-101 37.5q-72 0 -107.5 -55.5t-53.5 -177.5h-157q17 192 102 291.5t234 99.5q71 0 138.5 -37.5t118.5 -81.5q31 -26 90 -66.5t106 -40.5q70 0 104 50t59 171h157z" />
    <glyph glyph-name="Delta" unicode="&#xdc;" horiz-adv-x="1268" 
d="M1278 0h-1288l522 1489h244zM1010 172l-381 1120l-380 -1120h761z" />
    <glyph glyph-name="guillemotleft" unicode="&#xdf;" horiz-adv-x="1174" 
d="M1043 191l-488 419v85l488 418v-188l-317 -273l317 -273v-188zM613 162l-510 446v89l510 445v-196l-331 -294l331 -294v-196z" />
    <glyph glyph-name="guillemotright" unicode="&#xe0;" horiz-adv-x="1174" 
d="M1071 608l-510 -446v196l331 294l-331 294v196l510 -445v-89zM619 610l-488 -419v188l317 273l-317 273v188l488 -418v-85z" />
    <glyph glyph-name="ellipsis" unicode="&#xe1;" horiz-adv-x="1674" 
d="M1497 0h-204v223h204v-223zM939 0h-204v223h204v-223zM381 0h-204v223h204v-223z" />
    <glyph glyph-name="Agrave" unicode="&#xe2;" horiz-adv-x="1228" 
d="M-10 0l502 1489h244l502 -1489h-209l-135 416h-569l-135 -416h-200zM839 585l-230 702l-229 -702h459zM769 1675h-149l-273 374h243z" />
    <glyph glyph-name="Atilde" unicode="&#xe3;" horiz-adv-x="1228" 
d="M-10 0l502 1489h244l502 -1489h-209l-135 416h-569l-135 -416h-200zM839 585l-230 702l-229 -702h459zM1010 1965q-10 -156 -74.5 -234t-171.5 -78q-52 0 -96 19t-86 59q-44 41 -76 62.5t-63 21.5q-49 0 -68.5 -45t-23.5 -121h-140q7 154 76 232.5t169 78.5
q51 0 94 -19.5t86 -57.5q43 -39 77.5 -59.5t63.5 -20.5q47 0 68.5 45t24.5 117h140z" />
    <glyph glyph-name="Otilde" unicode="&#xe4;" horiz-adv-x="1449" 
d="M1204 1318q85 -98 132 -243t47 -331q0 -181 -46 -327t-133 -245q-91 -104 -212.5 -153.5t-267.5 -49.5q-151 0 -272 51t-208 152q-86 99 -132 244t-46 328q0 188 46.5 330t132.5 244q86 99 207.5 150.5t271.5 51.5q152 0 274 -53t206 -149zM1177 744q0 148 -32 262
t-90 189q-59 77 -142.5 115.5t-187.5 38.5q-108 0 -188.5 -37.5t-142.5 -116.5q-59 -76 -90.5 -191t-31.5 -260q0 -293 123 -448.5t330 -155.5t329.5 155.5t122.5 448.5zM1110 1985q-10 -156 -74.5 -234t-171.5 -78q-52 0 -96 19t-86 59q-44 41 -76 62.5t-63 21.5
q-49 0 -68.5 -45t-23.5 -121h-140q7 154 76 232.5t169 78.5q51 0 94 -19.5t86 -57.5q43 -39 77.5 -59.5t63.5 -20.5q47 0 68.5 45t24.5 117h140z" />
    <glyph glyph-name="OE" unicode="&#xe5;" horiz-adv-x="2000" 
d="M1932 0h-1031q-184 0 -308 26t-225 92q-144 95 -223 253.5t-79 374.5q0 209 84.5 370.5t220.5 252.5q89 60 209.5 90t318.5 30h1033v-176h-723v-408h673v-176h-673v-553h723v-176zM1012 171v1147h-119q-148 0 -241.5 -22.5t-172.5 -75.5q-103 -68 -155 -188t-52 -289
q0 -172 57 -293.5t169 -189.5q83 -50 173.5 -69.5t219.5 -19.5h121z" />
    <glyph glyph-name="oe" unicode="&#xe6;" horiz-adv-x="1861" 
d="M1625 683q-4 157 -71 233.5t-202 76.5q-128 0 -214.5 -82t-98.5 -228h586zM856 558q0 217 -78.5 322.5t-223.5 105.5q-148 0 -225.5 -110.5t-77.5 -317.5q0 -210 78.5 -318.5t224.5 -108.5q144 0 223 107.5t79 319.5zM1403 138q62 0 121.5 14t107.5 36q51 23 86 44.5
t58 40.5h11v-205q-33 -13 -82 -32.5t-88 -30.5q-55 -15 -99.5 -23t-112.5 -8q-147 0 -264.5 52.5t-188.5 152.5q-67 -103 -164.5 -156.5t-233.5 -53.5q-231 0 -364 158t-133 431q0 278 135 434t362 156q131 0 234.5 -55t167.5 -156q67 101 172.5 156t234.5 55
q215 0 330 -133t115 -374v-102h-769q0 -193 97 -297t267 -104z" />
    <glyph glyph-name="endash" unicode="&#xe7;" horiz-adv-x="1118" 
d="M1122 572h-1126v160h1126v-160z" />
    <glyph glyph-name="emdash" unicode="&#xe8;" horiz-adv-x="1862" 
d="M1866 572h-1870v160h1870v-160z" />
    <glyph glyph-name="quotedblleft" unicode="&#xe9;" horiz-adv-x="822" 
d="M725 997h-134l-261 559h238zM331 997h-134l-261 559h238z" />
    <glyph glyph-name="quotedblright" unicode="&#xea;" horiz-adv-x="822" 
d="M896 1556l-261 -559h-134l157 559h238zM502 1556l-261 -559h-134l157 559h238z" />
    <glyph glyph-name="quoteleft" unicode="&#xeb;" horiz-adv-x="432" 
d="M335 997h-138l-261 559h242z" />
    <glyph glyph-name="quoteright" unicode="&#xec;" horiz-adv-x="432" 
d="M496 1556l-261 -559h-138l157 559h242z" />
    <glyph glyph-name="divide" unicode="&#xed;" horiz-adv-x="1490" 
d="M864 1012h-238v275h238v-275zM1333 572h-1176v160h1176v-160zM864 17h-238v275h238v-275z" />
    <glyph glyph-name="lozenge" unicode="&#xee;" horiz-adv-x="1490" 
d="M1371 654l-626 -710l-626 710l626 710zM1153 654l-408 476l-408 -476l408 -474z" />
    <glyph glyph-name="ydieresis" unicode="&#xef;" horiz-adv-x="1020" 
d="M1014 1117l-601 -1529h-201l200 466l-406 1063h203l305 -827l304 827h196zM835 1304h-201v195h201v-195zM422 1304h-201v195h201v-195z" />
    <glyph glyph-name="Ydieresis" unicode="&#xf1;" horiz-adv-x="1180" 
d="M1193 1489l-503 -830v-659h-198v638l-503 851h220l384 -657l390 657h210zM900 1677h-201v195h201v-195zM487 1677h-201v195h201v-195z" />
    <glyph glyph-name="fraction" unicode="&#xf2;" horiz-adv-x="886" 
d="M916 1489l-780 -1489h-165l780 1489h165z" />
    <glyph glyph-name="Euro" unicode="&#xf3;" horiz-adv-x="1118" 
d="M945 662l-27 -138h-620q44 -170 146 -268q116 -112 290 -112q187 0 324 92h14v-193q-170 -70 -339 -70q-274 0 -444 158q-154 143 -203 393h-114l28 138h69q-3 40 -3 81q0 29 1 57h-95l28 138h83q46 262 207 414q174 164 446 164q178 0 336 -71v-195h-16q-141 97 -322 97
q-184 0 -302 -123q-101 -106 -140 -286h709l-27 -138h-700q-2 -28 -2 -57q0 -41 3 -81h670z" />
    <glyph glyph-name="guilsinglleft" unicode="&#xf4;" horiz-adv-x="784" 
d="M633 172l-510 436v89l510 435v-199l-331 -281l331 -281v-199z" />
    <glyph glyph-name="guilsinglright" unicode="&#xf5;" horiz-adv-x="784" 
d="M661 608l-510 -436v199l331 281l-331 281v199l510 -435v-89z" />
    <glyph glyph-name="fi" unicode="&#xf6;" horiz-adv-x="1092" 
d="M954 0h-188v964h-422v-964h-188v961h-127v156h127v57q0 182 97 287t250 105q52 0 94.5 -5.5t70.5 -9.5v-172h-10q-16 6 -53 14.5t-79 8.5q-105 0 -146.5 -54.5t-41.5 -172.5v-58h616v-1117zM954 1304h-202v195h202v-195z" />
    <glyph glyph-name="fl" unicode="&#xf7;" horiz-adv-x="1086" 
d="M948 0h-188v1404q-27 3 -66.5 5t-63.5 2q-162 0 -227 -53.5t-65 -193.5v-47h243v-156h-237v-961h-188v961h-127v156h127v49q0 103 32 177t90 125q55 48 142.5 73t187.5 25q60 0 131 -7t111 -11l98 8v-1556z" />
    <glyph glyph-name="daggerdbl" unicode="&#xf8;" horiz-adv-x="1118" 
d="M983 507l-363 5l5 -388h-132l5 388l-363 -5v129l363 -5v418l-363 -5v129l363 -5l-5 388h132l-5 -388l363 5v-129l-363 5v-418l363 5v-129z" />
    <glyph glyph-name="glyph194" unicode="&#xf9;" horiz-adv-x="620" 
d="M429 516h-239v273h239v-273z" />
    <glyph glyph-name="quotesinglbase" unicode="&#xfa;" horiz-adv-x="432" 
d="M386 283l-261 -559h-138l157 559h242z" />
    <glyph glyph-name="quotedblbase" unicode="&#xfb;" horiz-adv-x="814" 
d="M781 283l-261 -559h-134l157 559h238zM387 283l-261 -559h-134l157 559h238z" />
    <glyph glyph-name="perthousand" unicode="&#xfc;" horiz-adv-x="2848" 
d="M807 1076q0 -225 -90.5 -333.5t-261.5 -108.5q-174 0 -263.5 110t-89.5 331q0 224 91 333t262 109q174 0 263 -110t89 -331zM1473 1489l-780 -1489h-165l780 1489h165zM1897 413q0 -225 -90.5 -333.5t-261.5 -108.5q-174 0 -263.5 110t-89.5 331q0 224 91 333t262 109
q174 0 263 -110t89 -331zM629 1076q0 152 -35.5 230t-138.5 78t-139 -79t-36 -230q0 -150 34 -229t141 -79q103 0 138.5 79t35.5 230zM1719 413q0 152 -35.5 230t-138.5 78t-139 -79t-36 -230q0 -150 34 -229t141 -79q103 0 138.5 79t35.5 230zM2741 413
q0 -225 -90.5 -333.5t-261.5 -108.5q-174 0 -263.5 110t-89.5 331q0 224 91 333t262 109q174 0 263 -110t89 -331zM2563 413q0 152 -35.5 230t-138.5 78t-139 -79t-36 -230q0 -150 34 -229t141 -79q103 0 138.5 79t35.5 230z" />
    <glyph glyph-name="Acircumflex" unicode="&#xff;" horiz-adv-x="1228" 
d="M-10 0l502 1489h244l502 -1489h-209l-135 416h-569l-135 -416h-200zM839 585l-230 702l-229 -702h459zM940 1650h-159l-185 256l-184 -256h-155l228 379h227z" />
    <glyph glyph-name="Ecircumflex" unicode="&#x2260;" horiz-adv-x="1149" 
d="M151 0v1489h931v-176h-733v-408h683v-176h-683v-553h733v-176h-931zM961 1670h-159l-185 256l-184 -256h-155l228 379h227z" />
    <glyph glyph-name="Aacute" unicode="&#x20a0;" horiz-adv-x="1228" 
d="M-10 0l502 1489h244l502 -1489h-209l-135 416h-569l-135 -416h-200zM839 585l-230 702l-229 -702h459zM868 2049l-273 -374h-149l179 374h243z" />
    <glyph glyph-name="Edieresis" unicode="&#x160;" horiz-adv-x="1149" 
d="M151 0v1489h931v-176h-733v-408h683v-176h-683v-553h733v-176h-931zM966 1677h-201v195h201v-195zM553 1677h-201v195h201v-195z" />
    <glyph glyph-name="Egrave" unicode="&#x161;" horiz-adv-x="1149" 
d="M151 0v1489h931v-176h-733v-408h683v-176h-683v-553h733v-176h-931zM754 1675h-149l-273 374h243z" />
    <glyph glyph-name="Iacute" unicode="&#xa6;" horiz-adv-x="764" 
d="M671 0h-578v152h190v1185h-190v152h578v-152h-190v-1185h190v-152zM663 2049l-273 -374h-149l179 374h243z" />
    <glyph glyph-name="Icircumflex" unicode="&#xb2;" horiz-adv-x="764" 
d="M671 0h-578v152h190v1185h-190v152h578v-152h-190v-1185h190v-152zM731 1670h-159l-185 256l-184 -256h-155l228 379h227z" />
    <glyph glyph-name="Idieresis" unicode="&#xb3;" horiz-adv-x="764" 
d="M671 0h-578v152h190v1185h-190v152h578v-152h-190v-1185h190v-152zM696 1677h-201v195h201v-195zM283 1677h-201v195h201v-195z" />
    <glyph glyph-name="Igrave" unicode="&#xb9;" horiz-adv-x="764" 
d="M671 0h-578v152h190v1185h-190v152h578v-152h-190v-1185h190v-152zM535 1675h-149l-273 374h243z" />
    <glyph glyph-name="Oacute" unicode="&#xbc;" horiz-adv-x="1449" 
d="M1204 1318q85 -98 132 -243t47 -331q0 -181 -46 -327t-133 -245q-91 -104 -212.5 -153.5t-267.5 -49.5q-151 0 -272 51t-208 152q-86 99 -132 244t-46 328q0 188 46.5 330t132.5 244q86 99 207.5 150.5t271.5 51.5q152 0 274 -53t206 -149zM1177 744q0 148 -32 262
t-90 189q-59 77 -142.5 115.5t-187.5 38.5q-108 0 -188.5 -37.5t-142.5 -116.5q-59 -76 -90.5 -191t-31.5 -260q0 -293 123 -448.5t330 -155.5t329.5 155.5t122.5 448.5zM1002 2049l-273 -374h-149l179 374h243z" />
    <glyph glyph-name="Ocircumflex" unicode="&#xbd;" horiz-adv-x="1449" 
d="M1204 1318q85 -98 132 -243t47 -331q0 -181 -46 -327t-133 -245q-91 -104 -212.5 -153.5t-267.5 -49.5q-151 0 -272 51t-208 152q-86 99 -132 244t-46 328q0 188 46.5 330t132.5 244q86 99 207.5 150.5t271.5 51.5q152 0 274 -53t206 -149zM1177 744q0 148 -32 262
t-90 189q-59 77 -142.5 115.5t-187.5 38.5q-108 0 -188.5 -37.5t-142.5 -116.5q-59 -76 -90.5 -191t-31.5 -260q0 -293 123 -448.5t330 -155.5t329.5 155.5t122.5 448.5zM1055 1670h-159l-185 256l-184 -256h-155l228 379h227z" />
    <glyph glyph-name="Ograve" unicode="&#xbe;" horiz-adv-x="1449" 
d="M1204 1318q85 -98 132 -243t47 -331q0 -181 -46 -327t-133 -245q-91 -104 -212.5 -153.5t-267.5 -49.5q-151 0 -272 51t-208 152q-86 99 -132 244t-46 328q0 188 46.5 330t132.5 244q86 99 207.5 150.5t271.5 51.5q152 0 274 -53t206 -149zM1177 744q0 148 -32 262
t-90 189q-59 77 -142.5 115.5t-187.5 38.5q-108 0 -188.5 -37.5t-142.5 -116.5q-59 -76 -90.5 -191t-31.5 -260q0 -293 123 -448.5t330 -155.5t329.5 155.5t122.5 448.5zM851 1675h-149l-273 374h243z" />
    <glyph glyph-name="Uacute" unicode="&#xd0;" horiz-adv-x="1343" 
d="M671 -31q-131 0 -229 34.5t-167 102.5q-78 78 -110 186.5t-32 267.5v929h198v-929q0 -103 13 -173.5t51 -126.5q40 -60 108.5 -91t167.5 -31q93 0 165 31t112 91q37 57 50.5 126t13.5 169v934h198v-929q0 -155 -31.5 -266t-110.5 -188q-71 -69 -165.5 -103t-231.5 -34z
M995 2049l-273 -374h-149l179 374h243z" />
    <glyph glyph-name="Ucircumflex" unicode="&#xd7;" horiz-adv-x="1343" 
d="M671 -31q-131 0 -229 34.5t-167 102.5q-78 78 -110 186.5t-32 267.5v929h198v-929q0 -103 13 -173.5t51 -126.5q40 -60 108.5 -91t167.5 -31q93 0 165 31t112 91q37 57 50.5 126t13.5 169v934h198v-929q0 -155 -31.5 -266t-110.5 -188q-71 -69 -165.5 -103t-231.5 -34z
M1006 1670h-159l-185 256l-184 -256h-155l228 379h227z" />
    <glyph glyph-name="Ugrave" unicode="&#xdd;" horiz-adv-x="1343" 
d="M671 -31q-131 0 -229 34.5t-167 102.5q-78 78 -110 186.5t-32 267.5v929h198v-929q0 -103 13 -173.5t51 -126.5q40 -60 108.5 -91t167.5 -31q93 0 165 31t112 91q37 57 50.5 126t13.5 169v934h198v-929q0 -155 -31.5 -266t-110.5 -188q-71 -69 -165.5 -103t-231.5 -34z
M854 1675h-149l-273 374h243z" />
    <glyph glyph-name="dotlessi" unicode="&#xde;" horiz-adv-x="468" 
d="M328 0h-188v1117h188v-1117z" />
    <glyph glyph-name="circumflex" unicode="&#xf0;" horiz-adv-x="1118" 
d="M901 1297h-159l-185 256l-184 -256h-155l228 379h227z" />
    <glyph glyph-name="tilde" unicode="&#xfd;" horiz-adv-x="1118" 
d="M960 1632q-10 -156 -74.5 -234t-171.5 -78q-52 0 -96 19t-86 59q-44 41 -76 62.5t-63 21.5q-49 0 -68.5 -45t-23.5 -121h-140q7 154 76 232.5t169 78.5q51 0 94 -19.5t86 -57.5q43 -39 77.5 -59.5t63.5 -20.5q47 0 68.5 45t24.5 117h140z" />
    <glyph glyph-name="glyph216" unicode="&#xfe;" horiz-adv-x="1118" 
d="M936 1335h-754v154h754v-154z" />
    <glyph glyph-name="breve" unicode="&#x25cc;" horiz-adv-x="1079" 
d="M643 43q0 20 13.5 35.5t33.5 15.5q21 0 35 -15.5t14 -35.5t-14 -33.5t-35 -13.5q-20 0 -33.5 13.5t-13.5 33.5zM645 944q0 21 14.5 36t34.5 15q21 0 35 -15t14 -36q0 -20 -14 -33.5t-35 -13.5q-20 0 -34.5 13.5t-14.5 33.5zM618 76q0 -21 -14 -34t-35 -13q-20 0 -34.5 13
t-14.5 34q0 20 14.5 34.5t34.5 14.5q21 0 35 -14.5t14 -34.5zM516 150q0 -21 -14.5 -35.5t-34.5 -14.5q-21 0 -35 14.5t-14 35.5q0 20 14 34.5t35 14.5q20 0 34.5 -14.5t14.5 -34.5zM446 258q0 -20 -14 -34.5t-35 -14.5q-20 0 -34.5 14.5t-14.5 34.5q0 21 14.5 35t34.5 14
q21 0 35 -14t14 -35zM408 375q0 -21 -14.5 -35t-35.5 -14q-20 0 -34.5 14t-14.5 35q0 20 14.5 34.5t34.5 14.5q21 0 35.5 -14.5t14.5 -34.5zM399 494q0 -21 -14 -34.5t-35 -13.5q-20 0 -34.5 13.5t-14.5 34.5q0 20 14.5 35.5t34.5 15.5q21 0 35 -15.5t14 -35.5zM408 612
q0 -20 -14.5 -34.5t-35.5 -14.5q-20 0 -34.5 14.5t-14.5 34.5q0 21 14.5 35.5t34.5 14.5q21 0 35.5 -14.5t14.5 -35.5zM449 729q0 -20 -14.5 -34.5t-35.5 -14.5q-20 0 -34.5 14.5t-14.5 34.5q0 21 14.5 35t34.5 14q21 0 35.5 -14t14.5 -35zM514 838q0 -21 -14.5 -35.5
t-34.5 -14.5q-21 0 -34 14.5t-13 35.5q0 20 13 34.5t34 14.5q20 0 34.5 -14.5t14.5 -34.5zM616 913q0 -20 -14 -33.5t-35 -13.5q-20 0 -34.5 13.5t-14.5 33.5q0 21 14.5 36.5t34.5 15.5q21 0 35 -15.5t14 -36.5zM762 76q0 20 14.5 34.5t34.5 14.5t34.5 -14.5t14.5 -34.5
q0 -21 -14.5 -34t-34.5 -13t-34.5 13t-14.5 34zM864 150q0 20 14.5 34.5t34.5 14.5q21 0 35.5 -14.5t14.5 -34.5q0 -21 -14.5 -35.5t-35.5 -14.5q-20 0 -34.5 14.5t-14.5 35.5zM934 258q0 21 14.5 35t34.5 14q21 0 35 -14t14 -35q0 -20 -14 -34.5t-35 -14.5
q-20 0 -34.5 14.5t-14.5 34.5zM973 375q0 20 14 34.5t35 14.5q20 0 34.5 -14.5t14.5 -34.5q0 -21 -14.5 -35t-34.5 -14q-21 0 -35 14t-14 35zM981 494q0 20 14.5 35.5t34.5 15.5q21 0 35 -15.5t14 -35.5q0 -21 -14 -34.5t-35 -13.5q-20 0 -34.5 13.5t-14.5 34.5zM973 612
q0 21 14 35.5t35 14.5q20 0 34.5 -14.5t14.5 -35.5q0 -20 -14.5 -34.5t-34.5 -14.5q-21 0 -35 14.5t-14 34.5zM932 729q0 21 14.5 35t34.5 14t34.5 -14t14.5 -35q0 -20 -14.5 -34.5t-34.5 -14.5t-34.5 14.5t-14.5 34.5zM866 838q0 20 13.5 33.5t33.5 13.5q21 0 36.5 -13.5
t15.5 -33.5q0 -21 -15.5 -35.5t-36.5 -14.5q-20 0 -33.5 14.5t-13.5 35.5zM766 913q0 21 13.5 36.5t33.5 15.5q21 0 35 -15.5t14 -36.5q0 -20 -14 -33.5t-35 -13.5q-20 0 -33.5 13.5t-13.5 33.5z" />
    <glyph glyph-name="dotaccent" unicode="&#x200b;" 
 />
    <glyph glyph-name="ring" unicode="&#x200c;" horiz-adv-x="63" 
d="M0 0v1610h63v-1610h-63z" />
    <glyph glyph-name="cedilla" unicode="&#x200d;" horiz-adv-x="61" 
d="M184 1499l-123 123v-1622h-61v1620l-118 -121l-41 45l151 152l-151 151l41 45l151 -153l151 153l43 -45l-153 -151l153 -152z" />
    <glyph glyph-name="hungarumlaut" unicode="&#x1780;" horiz-adv-x="1417" 
d="M412 953q87 0 145 -58q25 -29 55 -58q34 28 62 47.5t50 32.5q134 83 225 83q64 0 166 -32q73 -23 146 -42.5t148 -33.5v-783q-133 -112 -167 -112q-18 7 -18 14q-71 55 -129 101t-105 84q-92 77 -92 170q0 90 203 149q130 40 199 112q-78 35 -203 61t-203 26
q-192 0 -246 -94v-504q-22 -51 -65.5 -85t-115.5 -34q-117 0 -178 52q-63 54 -91 136v225q60 -22 120 -22q99 0 170 49q73 49 73 96q0 61 -26 76l-32 11q-22 0 -73 -65q-26 -33 -47 -33q-83 0 -147 60q-63 60 -63 139q0 120 69 171q31 25 141 58zM589 1403q36 -22 73.5 -44
t76.5 -44q77 -43 125 -57q26 11 49 21.5t43 21.5q43 23 137 102q25 -20 54 -41.5t61 -44.5q66 -45 135 -45q50 0 112 33q0 -122 -80 -207q-80 -83 -206 -83q-105 51 -176 85.5t-100 34.5q-15 0 -116 -91q-50 -47 -79 -47q-51 29 -89 49.5t-64 33.5q-95 51 -181 51
q-47 0 -69 -22q23 -5 51.5 -15.5t61.5 -24.5q9 -4 21.5 -10t28.5 -15q0 -15 -50 -65l-26 -26l-29 -3q-76 43 -156 43v171q20 22 59 49t99 59q60 33 118 66t116 65zM1304 540q-76 -28 -76 -72q0 -69 76 -69v141z" />
    <glyph glyph-name="ogonek" 
d="M-460 -14q173 0 305 -41q130 -42 130 -97v-359q-14 -51 -66.5 -83.5t-143.5 -32.5q-84 0 -139 60q-57 60 -57 104q0 51 46 107q46 57 88 70q73 0 122 -12.5t89 -45.5v44q-77 47 -212 71q-69 11 -129.5 17t-115.5 6q-201 0 -250 -69v-279q-11 -65 -153 -65q-68 0 -95 9
q-28 9 -68 49v206q40 -11 71 -21.5t45 -10.5q38 0 124 43q-5 44 -29 44q-51 -15 -98 -15q-76 0 -101 40q-26 41 -26 98q0 33 11.5 58.5t32 43t48 27t60.5 9.5q174 0 174 -120q97 94 169 120q69 25 168 25z" />
    <glyph glyph-name="caron" 
d="M-461 -814q173 0 305 -41q130 -42 130 -97v-359q-14 -51 -66.5 -83.5t-143.5 -32.5q-84 0 -139 60q-57 60 -57 104q0 51 46 107q46 57 88 70q73 0 122 -12.5t89 -45.5v44q-77 47 -212 71q-69 11 -129.5 17t-115.5 6q-201 0 -250 -69v-279q-11 -65 -153 -65q-68 0 -95 9
q-28 9 -68 49v206q40 -11 71 -21.5t45 -10.5q38 0 124 43q-5 44 -29 44q-51 -15 -98 -15q-76 0 -101 40q-26 41 -26 98q0 33 11.5 58.5t32 43t48 27t60.5 9.5q174 0 174 -120q97 94 169 120q69 25 168 25z" />
    <glyph glyph-name="Lslash" horiz-adv-x="2083" 
d="M413 953q87 0 145 -58q25 -29 55 -58q34 28 62 47.5t50 32.5q134 83 225 83q64 0 166 -32q73 -23 146 -42.5t148 -33.5v-783q-133 -112 -167 -112q-18 7 -18 14q-71 55 -129 101t-105 84q-92 77 -92 170q0 90 203 149q130 40 199 112q-78 35 -203 61t-203 26
q-192 0 -246 -94v-504q-22 -51 -65.5 -85t-115.5 -34q-117 0 -178 52q-63 54 -91 136v225q60 -22 120 -22q99 0 170 49q73 49 73 96q0 61 -26 76l-32 11q-22 0 -73 -65q-26 -33 -47 -33q-83 0 -147 60q-63 60 -63 139q0 120 69 171q31 25 141 58zM1408 1352q56 50 115 50h10
t10 -1h59q477 -219 477 -252v-982q0 -69 -62 -120q-62 -50 -101 -50q-7 46 -154 157t-147 234q0 61 188 144q189 84 189 197q0 137 -158 262q-158 124 -282 144q-34 2 -60.5 2.5t-45.5 -1.5q-39 -5 -135 -46l-139 -79v1q-50 -32 -168 -5l-94 33q-157 66 -255.5 104.5
t-140.5 50.5q-41 -14 -75.5 -27.5t-63.5 -24.5q-47 -12 -69 -34q36 -30 113 -40q34 -6 50 -25v-15l-28 -68q1 0 -11 -2t-37 -6l-29 -3q-36 5 -83 8t-106 3v186q37 30 80.5 57t94.5 50t125.5 60.5t174.5 88.5l52 -2q249 -106 370 -177q70 -43 164 -4q60 42 103 75t69 57z
M1305 540q-76 -28 -76 -72q0 -69 76 -69v141zM1982 428l7 108q-26 -3 -49.5 -10.5t-30.5 -28.5q0 -26 47 -55q4 -2 10 -5.5t16 -8.5z" />
    <glyph glyph-name="lslash" horiz-adv-x="2083" 
d="M1543 1401h59q147 -68 248 -117.5t158 -81.5q36 112 36 151l-7 62q-8 37 -118 83q-111 46 -111 120q0 26 19 79q36 87 130 87q48 0 91 -18t79 -51q77 -72 77 -203q0 -108 -53 -197q-25 -42 -49 -76.5t-49 -63.5q26 -20 26 -26v-982q0 -69 -62 -120q-62 -50 -101 -50
q-7 46 -154 157t-147 234q0 61 188 144q189 84 189 197q0 137 -158 262q-158 124 -282 144q-34 2 -60.5 2.5t-45.5 -1.5q-39 -5 -135 -46l-139 -79v1q-50 -32 -168 -5l-94 33q-157 66 -255.5 104.5t-140.5 50.5q-41 -14 -75.5 -27.5t-63.5 -24.5q-47 -12 -69 -34
q36 -30 113 -40q34 -6 50 -25v-15l-28 -68q1 0 -11 -2t-37 -6l-29 -3q-36 5 -83 8t-106 3v186q37 30 80.5 57t94.5 50t125.5 60.5t174.5 88.5l52 -2q249 -106 370 -177q70 -43 164 -4q118 84 171 132q66 59 136 49zM413 953q87 0 145 -58q25 -29 55 -58q34 28 62 47.5
t50 32.5q134 83 225 83q64 0 166 -32q73 -23 146 -42.5t148 -33.5v-783q-133 -112 -167 -112q-18 7 -18 14q-71 55 -129 101t-105 84q-92 77 -92 170q0 90 203 149q130 40 199 112q-78 35 -203 61t-203 26q-192 0 -246 -94v-504q-22 -51 -65.5 -85t-115.5 -34
q-117 0 -178 52q-63 54 -91 136v225q60 -22 120 -22q99 0 170 49q73 49 73 96q0 61 -26 76l-32 11q-22 0 -73 -65q-26 -33 -47 -33q-83 0 -147 60q-63 60 -63 139q0 120 69 171q31 25 141 58zM1305 540q-76 -28 -76 -72q0 -69 76 -69v141zM1982 428l7 108
q-26 -3 -49.5 -10.5t-30.5 -28.5q0 -26 47 -55q4 -2 10 -5.5t16 -8.5z" />
    <glyph glyph-name="Scaron" unicode="&#x1781;" horiz-adv-x="1290" 
d="M656 1403q78 -11 159.5 -34.5t166.5 -60.5q86 -36 160.5 -79t140.5 -94q0 -42 -1.5 -81.5t-5.5 -76.5q-8 -74 -15 -89q-95 -243 -286 -348q-173 -94 -449 -94q51 -48 83.5 -75.5t46.5 -37.5q61 -36 167 -36q140 0 268 171q46 64 105 174q32 11 54 18t33 11
q-54 -340 -206 -515q-135 -152 -319 -152q-222 0 -380 143q-157 142 -208 375q368 51 504 98q294 100 294 293q0 87 -102 153q-115 76 -319 76q-65 0 -112 -44t-47 -105q0 -36 22 -76q43 -43 79 -43q47 0 47 134q0 43 55 43q65 0 109 -47q58 -61 58 -181q-29 -171 -258 -171
q-128 0 -216 96q-88 97 -88 205q0 73 54 124q60 57 161 137.5t245 188.5z" />
    <glyph glyph-name="scaron" 
d="M-560 -17q228 0 369 -54q142 -55 142 -181q0 -64 -49 -100q-54 -41 -147 -69q-42 -10 -87.5 -18.5t-96.5 -15.5q-110 -14 -207 -30q42 -7 82 -10t82 -3q206 1 418 71q-35 -89 -169 -149q-138 -65 -337 -69q-278 7 -360 105q-46 42 -64 85q-10 20 -19 35t-16 26
q122 0 238.5 5t229.5 15q103 18 172 44q61 24 61 66q5 55 -61 107q-33 28 -102 42q-65 16 -187 16q-111 0 -177 -29q-33 -14 -52 -22t-23 -10q13 -6 38 -6q18 2 36 3.5t34 5.5q23 4 40.5 6t28.5 2q103 -17 107 -132q-5 -29 -54 -54q-51 -28 -137 -31q-72 8 -130 43
q-56 30 -62 99q12 120 164 167q138 40 272 40h23z" />
    <glyph glyph-name="Zcaron" 
d="M-558 -797q228 0 369 -54q142 -55 142 -181q0 -64 -49 -100q-54 -41 -147 -69q-42 -10 -87.5 -18.5t-96.5 -15.5q-110 -14 -207 -30q42 -7 82 -10t82 -3q206 1 418 71q-35 -89 -169 -149q-138 -65 -337 -69q-278 7 -360 105q-46 42 -64 85q-10 20 -19 35t-16 26
q122 0 238.5 5t229.5 15q103 18 172 44q61 24 61 66q5 55 -61 107q-33 28 -102 42q-65 16 -187 16q-111 0 -177 -29q-33 -14 -52 -22t-23 -10q13 -6 38 -6q18 2 36 3.5t34 5.5q23 4 40.5 6t28.5 2q103 -17 107 -132q-5 -29 -54 -54q-51 -28 -137 -31q-72 8 -130 43
q-56 30 -62 99q12 120 164 167q138 40 272 40h23z" />
    <glyph glyph-name="zcaron" horiz-adv-x="2001" 
d="M1966 1199q25 -25 25 -41v-990q-3 -77 -69 -123q-61 -45 -98 -48q-7 52 -56 87q-25 20 -52.5 39t-59.5 38q-28 22 -53.5 45.5t-49.5 48.5q-50 56 -50 136q0 55 66 87q29 17 62.5 33t70.5 30q82 28 140 76q58 45 58 118q0 76 -48 150q-46 64 -119 119q-130 91 -221 111
q-44 11 -82.5 15.5t-89.5 4.5q-12 -1 -24.5 -1t-25.5 -1q-5 0 -7 -1q0 -42 -1.5 -80t-5.5 -75q-8 -74 -15 -89q-95 -243 -286 -348q-173 -94 -449 -94q51 -48 83.5 -75.5t46.5 -37.5q61 -36 167 -36q140 0 268 171q46 64 105 174q32 11 54 18t33 11q-54 -340 -206 -515
q-135 -152 -319 -152q-222 0 -380 143q-157 142 -208 375q368 51 504 98q294 100 294 293q0 87 -102 153q-115 76 -319 76q-65 0 -112 -44t-47 -105q0 -36 22 -76q43 -43 79 -43q47 0 47 134q0 43 55 43q65 0 109 -47q58 -61 58 -181q-29 -171 -258 -171q-128 0 -216 96
q-88 97 -88 205q0 73 54 124q60 57 161 137.5t245 188.5q78 -11 159.5 -34.5t166.5 -60.5q56 -23 106.5 -50t97.5 -56q23 13 41 23t32 18q17 10 37 19t43 19q45 20 105.5 54t141.5 83q66 -38 131 -74.5t132 -71.5q10 -5 19.5 -11t18.5 -11zM1910 505q-14 -8 -27 -15.5
t-25 -14.5q-28 -15 -28 -47q0 -31 28 -41q24 -14 52 -18v136z" />
    <glyph glyph-name="brokenbar" horiz-adv-x="2001" 
d="M1663 1623q0 37 18 90q40 96 134 96q97 -4 172 -76q77 -92 77 -225q0 -121 -52 -231q-13 -26 -24.5 -45.5t-21.5 -32.5q25 -25 25 -41v-990q-3 -77 -69 -123q-61 -45 -98 -48q-7 52 -56 87q-25 20 -52.5 39t-59.5 38q-28 22 -53.5 45.5t-49.5 48.5q-50 56 -50 136
q0 55 66 87q29 17 62.5 33t70.5 30q82 28 140 76q58 45 58 118q0 76 -48 150q-46 64 -119 119q-130 91 -221 111q-44 11 -82.5 15.5t-89.5 4.5q-12 -1 -24.5 -1t-25.5 -1q-5 0 -7 -1q0 -42 -1.5 -80t-5.5 -75q-8 -74 -15 -89q-95 -243 -286 -348q-173 -94 -449 -94
q51 -48 83.5 -75.5t46.5 -37.5q61 -36 167 -36q140 0 268 171q46 64 105 174q32 11 54 18t33 11q-54 -340 -206 -515q-135 -152 -319 -152q-222 0 -380 143q-157 142 -208 375q368 51 504 98q294 100 294 293q0 87 -102 153q-115 76 -319 76q-65 0 -112 -44t-47 -105
q0 -36 22 -76q43 -43 79 -43q47 0 47 134q0 43 55 43q65 0 109 -47q58 -61 58 -181q-29 -171 -258 -171q-128 0 -216 96q-88 97 -88 205q0 73 54 124q60 57 161 137.5t245 188.5q78 -11 159.5 -34.5t166.5 -60.5q56 -23 106.5 -50t97.5 -56q23 13 41 23t32 18q17 10 37 19
t43 19q45 20 105.5 54t141.5 83q66 -38 131 -74.5t132 -71.5q10 -5 19.5 -11t18.5 -11q8 20 14.5 43.5t10.5 51.5q0 27 -6 65q-7 39 -40 65q-19 8 -42 15.5t-49 15.5q-20 10 -39.5 22t-37.5 27q-35 27 -35 68zM1910 505q-14 -8 -27 -15.5t-25 -14.5q-28 -15 -28 -47
q0 -31 28 -41q24 -14 52 -18v136z" />
    <glyph glyph-name="Eth" unicode="&#x1782;" horiz-adv-x="1378" 
d="M729 997q66 0 166 -13.5t237 -41.5q85 -20 144 -32.5t91 -17.5v-776q-68 -62 -108 -89t-58 -27q-22 7 -22 14q-15 44 -155 169q-139 124 -139 201q0 57 147 83t227 131q-104 58 -192 76q-149 36 -323 36q-113 0 -285 -78q-172 -76 -172 -146q0 -43 80 -87
q26 -13 51 -24.5t50 -22.5q20 29 41 58t43 58q47 47 130 47q55 0 85 -44q31 -43 31 -98q0 -72 -29 -90t-54 -18t-47 7t-40 14q-44 0 -95 -145q-50 -144 -162 -144q-76 0 -128 41q-50 42 -50 85v587q64 137 181 207q134 80 355 80zM345 942q-73 44 -148 44l-4 170
q76 40 228 138l160 102q64 -38 150 -84q43 -23 74 -38.5t51 -22.5q26 11 49 21t43 20q42 19 137 104q25 -20 54 -41.5t61 -44.5q66 -45 138 -45q51 0 113 33q0 -124 -80 -207t-207 -83q-108 47 -182.5 76t-103.5 29q-12 0 -109 -76q-46 -37 -76 -37q-129 70 -196 96
q-66 28 -141 28q-43 0 -65 -22q26 -8 53.5 -17.5t58.5 -22.5q9 -4 21.5 -10t29.5 -15q0 -8 -54 -51q-10 -8 -23.5 -19t-31.5 -25zM1270 402v113q-10 -5 -16 -9t-10 -6q-29 -23 -29 -40t26 -40q8 -8 29 -18z" />
    <glyph glyph-name="eth" 
d="M-540 -21q261 -44 519 -87v-279q0 -148 -26 -192q-39 -66 -174 -66q-83 0 -143 64q-60 63 -60 107t40 87t102 43q45 -13 94 -32q45 -19 73 -19q32 5 32 62q-94 0 -193 11t-214 31q-116 19 -165 27q-26 4 -52 5.5t-54 1.5q-39 0 -71.5 -6t-58.5 -21t-47.5 -39.5
t-39.5 -60.5q0 -65 69 -65q32 0 47 25q9 36 25 60.5t37 39.5t46.5 21t54.5 6l69 -7q35 -18 69 -65q32 -47 32 -102l-11 -54q0 -8 -21 -15q-16 0 -62 15q-48 14 -69 14q-47 0 -61 -47q-8 -24 -14.5 -39.5t-15 -25.5t-20.5 -14t-30 -4q-67 0 -117 15.5t-83 49.5t-49 87.5
t-16 130.5q0 195 167 279q119 61 301 61z" />
    <glyph glyph-name="Yacute" 
d="M-542 -811q261 -44 519 -87v-279q0 -148 -26 -192q-39 -66 -174 -66q-83 0 -143 64q-60 63 -60 107t40 87t102 43q45 -13 94 -32q45 -19 73 -19q32 5 32 62q-94 0 -193 11t-214 31q-116 19 -165 27q-26 4 -52 5.5t-54 1.5q-39 0 -71.5 -6t-58.5 -21t-47.5 -39.5
t-39.5 -60.5q0 -65 69 -65q32 0 47 25q9 36 25 60.5t37 39.5t46.5 21t54.5 6l69 -7q35 -18 69 -65q32 -47 32 -102l-11 -54q0 -8 -21 -15q-16 0 -62 15q-48 14 -69 14q-47 0 -61 -47q-8 -24 -14.5 -39.5t-15 -25.5t-20.5 -14t-30 -4q-67 0 -117 15.5t-83 49.5t-49 87.5
t-16 130.5q0 195 167 279q119 61 301 61z" />
    <glyph glyph-name="yacute" horiz-adv-x="2085" 
d="M729 997q66 0 166 -13.5t237 -41.5q85 -20 144 -32.5t91 -17.5v-776q-68 -62 -108 -89t-58 -27q-22 7 -22 14q-15 44 -155 169q-139 124 -139 201q0 57 147 83t227 131q-104 58 -192 76q-149 36 -323 36q-113 0 -285 -78q-172 -76 -172 -146q0 -43 80 -87
q26 -13 51 -24.5t50 -22.5q20 29 41 58t43 58q47 47 130 47q55 0 85 -44q31 -43 31 -98q0 -72 -29 -90t-54 -18t-47 7t-40 14q-44 0 -95 -145q-50 -144 -162 -144q-76 0 -128 41q-50 42 -50 85v587q64 137 181 207q134 80 355 80zM1406 1352q56 50 115 50h10t10 -1h59
q477 -219 477 -252v-982q0 -69 -62 -120q-62 -50 -101 -50q-7 46 -154 157t-147 234q0 61 188 144q189 84 189 197q0 137 -158 262q-158 124 -282 144q-34 2 -60.5 2.5t-45.5 -1.5q-39 -5 -135 -46l-139 -79v1q-50 -32 -168 -5l-94 33q-157 66 -255.5 104.5t-140.5 50.5
q-41 -14 -75.5 -27.5t-63.5 -24.5q-47 -12 -69 -34q36 -30 113 -40q34 -6 50 -25v-15l-28 -68q1 0 -11 -2t-37 -6l-29 -3q-36 5 -83 8t-106 3v186q37 30 80.5 57t94.5 50t125.5 60.5t174.5 88.5l52 -2q249 -106 370 -177q70 -43 164 -4q60 42 103 75t69 57zM1980 428l7 108
q-26 -3 -49.5 -10.5t-30.5 -28.5q0 -26 47 -55q4 -2 10 -5.5t16 -8.5zM1270 402v113q-10 -5 -16 -9t-10 -6q-29 -23 -29 -40t26 -40q8 -8 29 -18z" />
    <glyph glyph-name="Thorn" horiz-adv-x="2085" 
d="M1541 1401h59q147 -68 248 -117.5t158 -81.5q36 112 36 151l-7 62q-8 37 -118 83q-111 46 -111 120q0 26 19 79q36 87 130 87q48 0 91 -18t79 -51q77 -72 77 -203q0 -108 -53 -197q-25 -42 -49 -76.5t-49 -63.5q26 -20 26 -26v-982q0 -69 -62 -120q-62 -50 -101 -50
q-7 46 -154 157t-147 234q0 61 188 144q189 84 189 197q0 137 -158 262q-158 124 -282 144q-34 2 -60.5 2.5t-45.5 -1.5q-39 -5 -135 -46l-139 -79v1q-50 -32 -168 -5l-94 33q-157 66 -255.5 104.5t-140.5 50.5q-41 -14 -75.5 -27.5t-63.5 -24.5q-47 -12 -69 -34
q36 -30 113 -40q34 -6 50 -25v-15l-28 -68q1 0 -11 -2t-37 -6l-29 -3q-36 5 -83 8t-106 3v186q37 30 80.5 57t94.5 50t125.5 60.5t174.5 88.5l52 -2q249 -106 370 -177q70 -43 164 -4q118 84 171 132q66 59 136 49zM729 997q66 0 166 -13.5t237 -41.5q85 -20 144 -32.5
t91 -17.5v-776q-68 -62 -108 -89t-58 -27q-22 7 -22 14q-15 44 -155 169q-139 124 -139 201q0 57 147 83t227 131q-104 58 -192 76q-149 36 -323 36q-113 0 -285 -78q-172 -76 -172 -146q0 -43 80 -87q26 -13 51 -24.5t50 -22.5q20 29 41 58t43 58q47 47 130 47q55 0 85 -44
q31 -43 31 -98q0 -72 -29 -90t-54 -18t-47 7t-40 14q-44 0 -95 -145q-50 -144 -162 -144q-76 0 -128 41q-50 42 -50 85v587q64 137 181 207q134 80 355 80zM1980 428l7 108q-26 -3 -49.5 -10.5t-30.5 -28.5q0 -26 47 -55q4 -2 10 -5.5t16 -8.5zM1270 402v113q-10 -5 -16 -9
t-10 -6q-29 -23 -29 -40t26 -40q8 -8 29 -18z" />
    <glyph glyph-name="thorn" unicode="&#x1783;" horiz-adv-x="2160" 
d="M1830 1004q184 0 264 -141q58 -101 58 -269q0 -224 -156 -402q-170 -192 -417 -192q-87 0 -181 36q-48 18 -94 37t-94 39q-14 0 -124 -56q-109 -56 -250 -56q-240 0 -424 138q-199 148 -199 373q190 23 308 98q149 95 149 246q0 94 -77 191q-77 96 -181 96
q-60 0 -116 -38q-54 -37 -69 -82q7 -22 33 -22q29 0 76 26q8 4 19 10t25 15q51 0 86 -14.5t56.5 -41.5t31.5 -66t10 -88q0 -92 -54 -138q-55 -47 -130 -47q-127 0 -178 134q-33 87 -33 236q0 170 80 271q79 102 221 102q185 0 254 -163q47 -111 47 -315q0 -233 -33 -294
q-4 -7 -46 -51.5t-124 -126.5q37 -32 70 -53.5t64 -31.5q63 -20 174 -20q170 0 294 65q123 66 123 160q0 69 -75 92q-74 24 -153 24q-45 0 -80 -13q-35 -12 -91 -45v515q20 16 35.5 28.5t26.5 22.5q140 122 192 206q31 -23 59 -42.5t53 -33.5q88 -47 156 -47q50 0 91 29
q-80 -279 -265 -279q-36 0 -91 18q-54 18 -83 18q-24 0 -44 -9.5t-35.5 -25t-26.5 -36.5t-17 -45q18 15 38 24t40.5 14.5t41 9t40.5 6.5q167 -26 246 -125q80 -100 80 -241q0 -127 -51 -206q0 -15 36 -37q103 -65 279 -65q130 0 222 51q108 61 108 181q0 76 -108 109
q-39 8 -109 18q-105 0 -225 -54v514q64 51 102 84q116 101 152 170q55 -44 112 -72q88 -44 156 -44q53 0 94 26q-20 -72 -44.5 -125t-56.5 -87.5t-72 -51t-91 -16.5q-37 0 -88 18q-48 19 -86 19q-24 0 -44 -9.5t-36 -25t-27 -36.5t-17 -45q29 36 76.5 45t116.5 9z" />
    <glyph glyph-name="minus" horiz-adv-x="637" 
d="M116 1142q20 14 35.5 26t26.5 21q141 120 192 207q27 -22 55 -40.5t57 -32.5q86 -43 156 -43q51 0 91 25q-20 -72 -45 -125t-57 -87t-72 -50.5t-91 -16.5q-36 0 -91 18q-54 18 -83 18q-24 0 -44 -9.5t-35.5 -25t-26.5 -36.5t-17 -45q54 29 109.5 40t100.5 11
q113 0 177 -49q66 -50 66 -176v-793q0 -33 87 -138q32 -40 65.5 -80.5t68.5 -82.5q-151 -191 -272 -261q-87 -51 -210 -51q-102 0 -160 33q-60 48 -94 69q-33 -41 -102 -72q-67 -33 -184 -33q-83 0 -181 65q-48 38 -78.5 62.5t-44.5 35.5q27 16 46 27.5t30 19.5q31 20 59 42
t53 45q18 22 37 65q0 7 3 22q0 22 -14.5 38t-28.5 16q0 -61 -34.5 -92t-89.5 -31q-58 0 -94 47q-36 46 -36 109q0 76 65 114t156 38q79 -10 129 -56q49 -45 49 -151q-9 -16 -16.5 -28.5t-12.5 -21.5q-41 -67 -69 -95q29 -32 82 -43q26 -5 48 -9.5t40 -8.5q63 0 96.5 20
t33.5 49q-14 14 -44.5 21.5t-88.5 7.5q22 73 43 126t43 88q58 94 138 94q31 0 59 -20q14 -10 26 -19t23 -17q23 -17 84 -17q-15 -50 -51 -108t-76 -58q-17 0 -33.5 4.5t-32 10.5t-29.5 12.5t-25 11.5q-29 -3 -47 -10.5t-36 -28.5q87 0 148 -34q62 -35 62 -64q0 -37 27 -51.5
t75 -14.5l87 11q28 0 69 26q34 22 74.5 62.5t88.5 100.5q-19 22 -37 43.5t-36 43.5q-51 64 -51 94l4 612q0 69 -55 94q-55 26 -126 26q-77 0 -171 -58q-7 -4 -18 -12t-25 -21v544z" />
    <glyph glyph-name="multiply" horiz-adv-x="637" 
d="M116 1142q20 14 35.5 26t26.5 21q141 120 192 207q27 -22 55 -40.5t57 -32.5q86 -43 156 -43q51 0 91 25q-20 -72 -45 -125t-57 -87t-72 -50.5t-91 -16.5q-36 0 -91 18q-54 18 -83 18q-24 0 -44 -9.5t-35.5 -25t-26.5 -36.5t-17 -45q54 29 109.5 40t100.5 11
q113 0 177 -49q66 -50 66 -176v-1563q0 -33 87 -138q32 -40 65.5 -80.5t68.5 -82.5q-151 -191 -272 -261q-87 -51 -210 -51q-102 0 -160 33q-60 48 -94 69q-33 -41 -102 -72q-67 -33 -184 -33q-83 0 -181 65q-48 38 -78.5 62.5t-44.5 35.5q27 16 46 27.5t30 19.5
q31 20 59 42t53 45q18 22 37 65q0 7 3 22q0 22 -14.5 38t-28.5 16q0 -61 -34.5 -92t-89.5 -31q-58 0 -94 47q-36 46 -36 109q0 76 65 114t156 38q79 -10 129 -56q49 -45 49 -151q-9 -16 -16.5 -28.5t-12.5 -21.5q-41 -67 -69 -95q29 -32 82 -43q26 -5 48 -9.5t40 -8.5
q63 0 96.5 20t33.5 49q-14 14 -44.5 21.5t-88.5 7.5q22 73 43 126t43 88q58 94 138 94q31 0 59 -20q14 -10 26 -19t23 -17q23 -17 84 -17q-15 -50 -51 -108t-76 -58q-17 0 -33.5 4.5t-32 10.5t-29.5 12.5t-25 11.5q-29 -3 -47 -10.5t-36 -28.5q87 0 148 -34q62 -35 62 -64
q0 -37 27 -51.5t75 -14.5l87 11q28 0 69 26q34 22 74.5 62.5t88.5 100.5q-19 22 -37 43.5t-36 43.5q-51 64 -51 94l4 1382q0 69 -55 94q-55 26 -126 26q-77 0 -171 -58q-7 -4 -18 -12t-25 -21v544z" />
    <glyph glyph-name="onesuperior" horiz-adv-x="2872" 
d="M1668 969h1q1 1 2 1h1q2 1 5 2l6 2q1 1 4 1q2 1 3 1t3 1q1 0 1.5 0.5t1.5 0.5h2q26 6 61.5 10.5t80.5 6.5q174 9 254 -132q58 -101 58 -269q0 -224 -156 -402q-170 -192 -417 -192q-87 0 -181 36q-48 18 -94 37t-94 39q-14 0 -124 -56q-109 -56 -250 -56q-240 0 -424 138
q-199 148 -199 373q190 23 308 98q149 95 149 246q0 94 -77 191q-77 96 -181 96q-60 0 -116 -38q-54 -37 -69 -82q7 -22 33 -22q29 0 76 26q8 4 19 10t25 15q51 0 86 -14.5t56.5 -41.5t31.5 -66t10 -88q0 -92 -54 -138q-55 -47 -130 -47q-127 0 -178 134q-33 87 -33 236
q0 170 80 271q79 102 221 102q185 0 254 -163q47 -111 47 -315q0 -233 -33 -294q-4 -7 -46 -51.5t-124 -126.5q37 -32 70 -53.5t64 -31.5q63 -20 174 -20q170 0 294 65q123 66 123 160q0 69 -75 92q-74 24 -153 24q-45 0 -80 -13q-35 -12 -91 -45v515q20 16 35.5 28.5
t26.5 22.5q140 122 192 206q31 -23 59 -42.5t53 -33.5q88 -47 156 -47q50 0 91 29q-80 -279 -265 -279q-36 0 -91 18q-54 18 -83 18q-24 0 -44 -9.5t-35.5 -25t-26.5 -36.5t-17 -45q18 15 38 24t40.5 14.5t41 9t40.5 6.5q167 -26 246 -125q80 -100 80 -241q0 -127 -51 -206
q0 -15 36 -37q103 -65 279 -65q130 0 222 51q108 61 108 181q0 76 -108 109q-39 8 -109 18q-84 0 -177 -33l-4 -2l-4 -2l-6 -2l-33 -13l-1 512l122 61q32 17 58 29.5t45 21.5l82 41h1q19 10 38.5 21t39.5 22q67 29 130.5 44.5t123.5 16.5l-1 -2l3 2q176 -33 252 -70
q42 -17 84 -37t87 -42q41 -21 95.5 -47.5t123.5 -58.5v-981q-3 -76 -69 -121q-62 -45 -98 -48q-7 52 -56 86q-25 20 -52.5 39t-59.5 37q-28 22 -53.5 45.5t-49.5 48.5q-50 56 -50 134q0 54 66 86q29 17 62.5 33t70.5 30q81 28 140 75q58 45 58 117q0 75 -48 149
q-47 64 -119 118q-75 33 -133 53.5t-101 27.5q-42 7 -75 11t-58 6q-91 4 -172.5 2.5t-153.5 -6.5q-53 -7 -86 -12.5t-47 -9.5q-27 -7 -82 -33l-21 -15q-30 -24 -42 -67q2 2 5.5 4.5t7.5 4.5l4 2q1 1 2 1t2 1q1 0 5 2zM2786 500q-14 -8 -27 -15.5t-25 -13.5q-28 -15 -28 -47
q0 -31 28 -41q25 -14 52 -17v134z" />
    <glyph glyph-name="twosuperior" horiz-adv-x="1406" 
d="M170 949q29 19 93 34q2 1 5 1t6 1q30 6 66 12h37q113 0 177 -49q66 -50 66 -176v-793q0 -33 87 -138q32 -40 65.5 -80.5t68.5 -82.5q-151 -191 -272 -261q-87 -51 -210 -51q-102 0 -160 33q-60 48 -94 69q-33 -41 -102 -72q-67 -33 -184 -33q-83 0 -181 65
q-48 38 -78.5 62.5t-44.5 35.5q27 16 46 27.5t30 19.5q31 20 59 42t53 45q18 22 37 65q0 7 3 22q0 22 -14.5 38t-28.5 16q0 -61 -34.5 -92t-89.5 -31q-58 0 -94 47q-36 46 -36 109q0 76 65 114t156 38q79 -10 129 -56q49 -45 49 -151q-9 -16 -16.5 -28.5t-12.5 -21.5
q-41 -67 -69 -95q29 -32 82 -43q26 -5 48 -9.5t40 -8.5q63 0 96.5 20t33.5 49q-14 14 -44.5 21.5t-88.5 7.5q22 73 43 126t43 88q58 94 138 94q31 0 59 -20q14 -10 26 -19t23 -17q23 -17 84 -17q-15 -50 -51 -108t-76 -58q-17 0 -33.5 4.5t-32 10.5t-29.5 12.5t-25 11.5
q-29 -3 -47 -10.5t-36 -28.5q87 0 148 -34q62 -35 62 -64q0 -37 27 -51.5t75 -14.5l87 11q28 0 69 26q34 22 74.5 62.5t88.5 100.5q-19 22 -37 43.5t-36 43.5q-51 64 -51 94l4 612q0 69 -55 94q-55 26 -126 26q-77 0 -171 -58q-7 -4 -18 -12t-25 -21v545q175 91 239 121
q32 16 68 35t78 42q67 29 130.5 44.5t123.5 16.5l-1 -2l3 2q176 -33 252 -70q42 -17 84 -37t87 -42q81 -42 150 -66t69 -40v-981q-3 -76 -69 -121q-62 -45 -98 -48q-7 52 -56 86q-25 20 -52.5 39t-59.5 37q-28 22 -53.5 45.5t-49.5 48.5q-50 56 -50 134q0 54 66 86
q29 17 62.5 33t70.5 30q81 28 140 75q58 45 58 117q0 75 -48 149q-47 64 -119 118q-75 33 -133 53.5t-101 27.5q-42 7 -75 11t-58 6q-91 4 -172.5 2.5t-153.5 -6.5q-53 -7 -86 -12.5t-47 -9.5q-27 -7 -82 -33l-21 -15q-32 -24 -42 -70zM1318 500q-14 -8 -27 -15.5t-25 -13.5
q-28 -15 -28 -47q0 -31 28 -41q25 -14 52 -17v134zM167 946l1 1q1 4 0.5 4t-1.5 -5z" />
    <glyph glyph-name="threesuperior" horiz-adv-x="1406" 
d="M170 949q29 19 93 34q2 1 5 1t6 1q30 6 66 12h37q113 0 177 -49q66 -50 66 -176v-1553q0 -33 87 -138q32 -40 65.5 -80.5t68.5 -82.5q-151 -191 -272 -261q-87 -51 -210 -51q-102 0 -160 33q-60 48 -94 69q-33 -41 -102 -72q-67 -33 -184 -33q-83 0 -181 65
q-48 38 -78.5 62.5t-44.5 35.5q27 16 46 27.5t30 19.5q31 20 59 42t53 45q18 22 37 65q0 7 3 22q0 22 -14.5 38t-28.5 16q0 -61 -34.5 -92t-89.5 -31q-58 0 -94 47q-36 46 -36 109q0 76 65 114t156 38q79 -10 129 -56q49 -45 49 -151q-9 -16 -16.5 -28.5t-12.5 -21.5
q-41 -67 -69 -95q29 -32 82 -43q26 -5 48 -9.5t40 -8.5q63 0 96.5 20t33.5 49q-14 14 -44.5 21.5t-88.5 7.5q22 73 43 126t43 88q58 94 138 94q31 0 59 -20q14 -10 26 -19t23 -17q23 -17 84 -17q-15 -50 -51 -108t-76 -58q-17 0 -33.5 4.5t-32 10.5t-29.5 12.5t-25 11.5
q-29 -3 -47 -10.5t-36 -28.5q87 0 148 -34q62 -35 62 -64q0 -37 27 -51.5t75 -14.5l87 11q28 0 69 26q34 22 74.5 62.5t88.5 100.5q-19 22 -37 43.5t-36 43.5q-51 64 -51 94l4 1372q0 69 -55 94q-55 26 -126 26q-77 0 -171 -58q-7 -4 -18 -12t-25 -21v545q175 91 239 121
q32 16 68 35t78 42q67 29 130.5 44.5t123.5 16.5l-1 -2l3 2q176 -33 252 -70q42 -17 84 -37t87 -42q81 -42 150 -66t69 -40v-981q-3 -76 -69 -121q-62 -45 -98 -48q-7 52 -56 86q-25 20 -52.5 39t-59.5 37q-28 22 -53.5 45.5t-49.5 48.5q-50 56 -50 134q0 54 66 86
q29 17 62.5 33t70.5 30q81 28 140 75q58 45 58 117q0 75 -48 149q-47 64 -119 118q-75 33 -133 53.5t-101 27.5q-42 7 -75 11t-58 6q-91 4 -172.5 2.5t-153.5 -6.5q-53 -7 -86 -12.5t-47 -9.5q-27 -7 -82 -33l-21 -15q-32 -24 -42 -70zM1318 500q-14 -8 -27 -15.5t-25 -13.5
q-28 -15 -28 -47q0 -31 28 -41q25 -14 52 -17v134zM167 946l1 1q1 4 0.5 4t-1.5 -5z" />
    <glyph glyph-name="onehalf" horiz-adv-x="2872" 
d="M1668 969h1q1 1 3 1q1 0 1.5 0.5t1.5 0.5q6 2 10 4q1 0 1.5 0.5t1.5 0.5h1q2 0 4 1q1 0 1.5 0.5t1.5 0.5h2q26 6 61.5 10.5t80.5 6.5q174 9 254 -132q58 -101 58 -269q0 -224 -156 -402q-170 -192 -417 -192q-87 0 -181 36q-48 18 -94 37t-94 39q-14 0 -124 -56
q-109 -56 -250 -56q-240 0 -424 138q-199 148 -199 373q190 23 308 98q149 95 149 246q0 94 -77 191q-77 96 -181 96q-60 0 -116 -38q-54 -37 -69 -82q7 -22 33 -22q29 0 76 26q8 4 19 10t25 15q51 0 86 -14.5t56.5 -41.5t31.5 -66t10 -88q0 -92 -54 -138q-55 -47 -130 -47
q-127 0 -178 134q-33 87 -33 236q0 170 80 271q79 102 221 102q185 0 254 -163q47 -111 47 -315q0 -233 -33 -294q-4 -7 -46 -51.5t-124 -126.5q37 -32 70 -53.5t64 -31.5q63 -20 174 -20q170 0 294 65q123 66 123 160q0 69 -75 92q-74 24 -153 24q-45 0 -80 -13
q-35 -12 -91 -45v515q20 16 35.5 28.5t26.5 22.5q140 122 192 206q31 -23 59 -42.5t53 -33.5q88 -47 156 -47q50 0 91 29q-80 -279 -265 -279q-36 0 -91 18q-54 18 -83 18q-24 0 -44 -9.5t-35.5 -25t-26.5 -36.5t-17 -45q18 15 38 24t40.5 14.5t41 9t40.5 6.5
q167 -26 246 -125q80 -100 80 -241q0 -127 -51 -206q0 -15 36 -37q103 -65 279 -65q130 0 222 51q108 61 108 181q0 76 -108 109q-39 8 -109 18q-84 0 -177 -33l-4 -2l-4 -2l-6 -2l-33 -13l-1 512l122 61q32 17 58 29.5t45 21.5l82 41h1l2 1q1 0 2 1l11 5q30 16 63 36
q67 29 130.5 44.5t123.5 16.5l-1 -2l3 2q176 -33 252 -70q42 -17 84 -37t87 -42q82 -42 113 -35h2q24 43 35 114q0 27 -6 65q-8 39 -40 64q-19 8 -42 15.5t-49 15.5q-42 20 -77 48q-35 27 -35 68q0 36 18 89q41 95 134 95q97 -4 172 -75q77 -92 77 -223q0 -121 -52 -229
q-26 -53 -50 -83q19 -19 19 -35v-981q-3 -76 -69 -121q-62 -45 -98 -48q-7 52 -56 86q-25 20 -52.5 39t-59.5 37q-28 22 -53.5 45.5t-49.5 48.5q-50 56 -50 134q0 54 66 86q29 17 62.5 33t70.5 30q81 28 140 75q58 45 58 117q0 75 -48 149q-47 64 -119 118q-75 33 -133 53.5
t-101 27.5q-42 7 -75 11t-58 6q-91 4 -172.5 2.5t-153.5 -6.5q-53 -7 -86 -12.5t-47 -9.5q-27 -7 -82 -33l-21 -15q-30 -24 -42 -67q2 2 5.5 4.5t7.5 4.5l4 2q1 1 2 1t2 1q2 1 4.5 2t4.5 2zM2786 500q-14 -8 -27 -15.5t-25 -13.5q-28 -15 -28 -47q0 -31 28 -41
q25 -14 52 -17v134z" />
    <glyph glyph-name="onequarter" horiz-adv-x="1406" 
d="M170 949q29 19 93 34q2 1 5 1t6 1q30 6 66 12h37q113 0 177 -49q66 -50 66 -176v-793q0 -33 87 -138q32 -40 65.5 -80.5t68.5 -82.5q-151 -191 -272 -261q-87 -51 -210 -51q-102 0 -160 33q-60 48 -94 69q-33 -41 -102 -72q-67 -33 -184 -33q-83 0 -181 65
q-48 38 -78.5 62.5t-44.5 35.5q27 16 46 27.5t30 19.5q31 20 59 42t53 45q18 22 37 65q0 7 3 22q0 22 -14.5 38t-28.5 16q0 -61 -34.5 -92t-89.5 -31q-58 0 -94 47q-36 46 -36 109q0 76 65 114t156 38q79 -10 129 -56q49 -45 49 -151q-9 -16 -16.5 -28.5t-12.5 -21.5
q-41 -67 -69 -95q29 -32 82 -43q26 -5 48 -9.5t40 -8.5q63 0 96.5 20t33.5 49q-14 14 -44.5 21.5t-88.5 7.5q22 73 43 126t43 88q58 94 138 94q31 0 59 -20q14 -10 26 -19t23 -17q23 -17 84 -17q-15 -50 -51 -108t-76 -58q-17 0 -33.5 4.5t-32 10.5t-29.5 12.5t-25 11.5
q-29 -3 -47 -10.5t-36 -28.5q87 0 148 -34q62 -35 62 -64q0 -37 27 -51.5t75 -14.5l87 11q28 0 69 26q34 22 74.5 62.5t88.5 100.5q-19 22 -37 43.5t-36 43.5q-51 64 -51 94l4 612q0 69 -55 94q-55 26 -126 26q-77 0 -171 -58q-7 -4 -18 -12t-25 -21v545q175 91 239 121
q32 16 68 35t78 42q67 29 130.5 44.5t123.5 16.5l-1 -2l3 2q176 -33 252 -70q42 -17 84 -37t87 -42q82 -42 113 -35h2q24 43 35 114q0 27 -6 65q-8 39 -40 64q-19 8 -42 15.5t-49 15.5q-42 20 -77 48q-35 27 -35 68q0 36 18 89q41 95 134 95q97 -4 172 -75q77 -92 77 -223
q0 -121 -52 -229q-26 -53 -50 -83q19 -19 19 -35v-981q-3 -76 -69 -121q-62 -45 -98 -48q-7 52 -56 86q-25 20 -52.5 39t-59.5 37q-28 22 -53.5 45.5t-49.5 48.5q-50 56 -50 134q0 54 66 86q29 17 62.5 33t70.5 30q81 28 140 75q58 45 58 117q0 75 -48 149q-47 64 -119 118
q-75 33 -133 53.5t-101 27.5q-42 7 -75 11t-58 6q-91 4 -172.5 2.5t-153.5 -6.5q-53 -7 -86 -12.5t-47 -9.5q-27 -7 -82 -33l-21 -15q-32 -24 -42 -70zM1318 500q-14 -8 -27 -15.5t-25 -13.5q-28 -15 -28 -47q0 -31 28 -41q25 -14 52 -17v134zM167 946l1 1q1 4 0.5 4
t-1.5 -5z" />
    <glyph glyph-name="threequarters" horiz-adv-x="1406" 
d="M170 949q29 19 93 34q2 1 5 1t6 1q30 6 66 12h37q113 0 177 -49q66 -50 66 -176v-1563q0 -33 87 -138q32 -40 65.5 -80.5t68.5 -82.5q-151 -191 -272 -261q-87 -51 -210 -51q-102 0 -160 33q-60 48 -94 69q-33 -41 -102 -72q-67 -33 -184 -33q-83 0 -181 65
q-48 38 -78.5 62.5t-44.5 35.5q27 16 46 27.5t30 19.5q31 20 59 42t53 45q18 22 37 65q0 7 3 22q0 22 -14.5 38t-28.5 16q0 -61 -34.5 -92t-89.5 -31q-58 0 -94 47q-36 46 -36 109q0 76 65 114t156 38q79 -10 129 -56q49 -45 49 -151q-9 -16 -16.5 -28.5t-12.5 -21.5
q-41 -67 -69 -95q29 -32 82 -43q26 -5 48 -9.5t40 -8.5q63 0 96.5 20t33.5 49q-14 14 -44.5 21.5t-88.5 7.5q22 73 43 126t43 88q58 94 138 94q31 0 59 -20q14 -10 26 -19t23 -17q23 -17 84 -17q-15 -50 -51 -108t-76 -58q-17 0 -33.5 4.5t-32 10.5t-29.5 12.5t-25 11.5
q-29 -3 -47 -10.5t-36 -28.5q87 0 148 -34q62 -35 62 -64q0 -37 27 -51.5t75 -14.5l87 11q28 0 69 26q34 22 74.5 62.5t88.5 100.5q-19 22 -37 43.5t-36 43.5q-51 64 -51 94l4 1382q0 69 -55 94q-55 26 -126 26q-77 0 -171 -58q-7 -4 -18 -12t-25 -21v545q175 91 239 121
q32 16 68 35t78 42q67 29 130.5 44.5t123.5 16.5l-1 -2l3 2q176 -33 252 -70q42 -17 84 -37t87 -42q82 -42 113 -35h2q24 43 35 114q0 27 -6 65q-8 39 -40 64q-19 8 -42 15.5t-49 15.5q-42 20 -77 48q-35 27 -35 68q0 36 18 89q41 95 134 95q97 -4 172 -75q77 -92 77 -223
q0 -121 -52 -229q-26 -53 -50 -83q19 -19 19 -35v-981q-3 -76 -69 -121q-62 -45 -98 -48q-7 52 -56 86q-25 20 -52.5 39t-59.5 37q-28 22 -53.5 45.5t-49.5 48.5q-50 56 -50 134q0 54 66 86q29 17 62.5 33t70.5 30q81 28 140 75q58 45 58 117q0 75 -48 149q-47 64 -119 118
q-75 33 -133 53.5t-101 27.5q-42 7 -75 11t-58 6q-91 4 -172.5 2.5t-153.5 -6.5q-53 -7 -86 -12.5t-47 -9.5q-27 -7 -82 -33l-21 -15q-32 -24 -42 -70zM1318 500q-14 -8 -27 -15.5t-25 -13.5q-28 -15 -28 -47q0 -31 28 -41q25 -14 52 -17v134zM167 946l1 1q1 4 0.5 4
t-1.5 -5z" />
    <glyph glyph-name="franc" unicode="&#x1784;" horiz-adv-x="1375" 
d="M285 957l91 11q134 0 226 -78q93 -78 93 -201q0 -37 -36 -95q-31 -44 -58.5 -83.5t-50.5 -75.5q42 -42 84 -69.5t84.5 -44.5t86.5 -24t89 -7q134 0 261 109q42 36 92 93.5t108 138.5q-38 -277 -200 -450q-164 -174 -406 -174q-210 0 -355 109q-146 110 -210 304
q217 61 261 84q65 32 116 105q-116 80 -210 80q-40 0 -82 -14.5t-85 -40.5v424q97 66 162.5 110.5t101.5 67.5q66 44 141 84.5t160 78.5q230 -41 403 -145q221 -134 221 -304q0 -120 -80 -236q-95 -138 -232 -138q-94 0 -169 51q-74 51 -74 149q0 62 61 126q61 66 139 66
q61 0 75 -24q15 -23 15 -78q0 -63 11 -87q10 -20 44 -43q54 0 54 69q0 116 -153 203q-152 87 -358 87q-132 0 -227 -37q-95 -36 -194 -101z" />
    <glyph glyph-name="Gbreve" 
d="M-884 -21q83 0 134 -52q51 -53 51 -137q0 -145 -145 -145q-54 0 -96 46l-42 46t-43 46q0 -113 108 -156q70 -29 171 -29q227 0 420 113q57 32 123 85t142 128q-22 -216 -207 -398t-402 -182q-184 0 -312 98q-145 112 -145 319q15 139 91 185q54 33 152 33z" />
    <glyph glyph-name="gbreve" 
d="M-145 -1014q57 70 93.5 118t52.5 75q0 -99 -18 -196q-21 -109 -87 -206q-52 -73 -150 -139q-103 -66 -205 -69q-157 0 -289 66q-126 61 -182 219q-25 46 -25 125q0 50 11 50q3 58 66 114q55 55 144 55q125 -17 166 -55q32 -47 29 -114q0 -33 -15 -73q-18 -39 -73 -73
q74 -56 171 -61q31 0 70 11q64 3 125 46q60 45 116 107z" />
    <glyph glyph-name="Idotaccent" horiz-adv-x="2065" 
d="M2035 1199q25 -25 25 -41v-990q-3 -77 -69 -123q-61 -45 -98 -48q-7 52 -56 87q-25 20 -52.5 39t-59.5 38q-28 22 -53.5 45.5t-49.5 48.5q-50 56 -50 136q0 55 66 87q29 17 62.5 33t70.5 30q82 28 140 76q58 45 58 118q0 76 -48 150q-46 64 -119 119q-130 91 -221 111
q-44 11 -82.5 15.5t-89.5 4.5q-12 -1 -24.5 -1t-25.5 -1q-21 -2 -57 -3q71 -85 71 -180q0 -120 -80 -236q-95 -138 -232 -138q-94 0 -169 51q-74 51 -74 149q0 62 61 126q61 66 139 66q61 0 75 -24q15 -23 15 -78q0 -63 11 -87q10 -20 44 -43q54 0 54 69q0 116 -153 203
q-152 87 -358 87q-132 0 -227 -37q-95 -36 -194 -101l91 11q134 0 226 -78q93 -78 93 -201q0 -37 -36 -95q-31 -44 -58.5 -83.5t-50.5 -75.5q42 -42 84 -69.5t84.5 -44.5t86.5 -24t89 -7q134 0 261 109q42 36 92 93.5t108 138.5q-38 -277 -200 -450q-164 -174 -406 -174
q-210 0 -355 109q-146 110 -210 304q217 61 261 84q65 32 116 105q-116 80 -210 80q-40 0 -82 -14.5t-85 -40.5v424q97 66 162.5 110.5t101.5 67.5q66 44 141 84.5t160 78.5q230 -41 403 -145q25 -15 46.5 -30t40.5 -31q29 16 51 28.5t38 21.5q17 10 37 19t43 19
q45 20 105.5 54t141.5 83q33 -19 66 -37.5t65 -37.5q64 -36 103 -56q20 -10 56 -32t90 -56zM1979 505q-14 -8 -27 -15.5t-25 -14.5q-28 -15 -28 -47q0 -31 28 -41q24 -14 52 -18v136z" />
    <glyph glyph-name="Scedilla" horiz-adv-x="2065" 
d="M1732 1623q0 37 18 90q40 96 134 96q97 -4 172 -76q77 -92 77 -225q0 -121 -52 -231q-13 -26 -24.5 -45.5t-21.5 -32.5q25 -25 25 -41v-990q-3 -77 -69 -123q-61 -45 -98 -48q-7 52 -56 87q-25 20 -52.5 39t-59.5 38q-28 22 -53.5 45.5t-49.5 48.5q-50 56 -50 136
q0 55 66 87q29 17 62.5 33t70.5 30q82 28 140 76q58 45 58 118q0 76 -48 150q-46 64 -119 119q-130 91 -221 111q-44 11 -82.5 15.5t-89.5 4.5q-12 -1 -24.5 -1t-25.5 -1q-21 -2 -57 -3q71 -85 71 -180q0 -120 -80 -236q-95 -138 -232 -138q-94 0 -169 51q-74 51 -74 149
q0 62 61 126q61 66 139 66q61 0 75 -24q15 -23 15 -78q0 -63 11 -87q10 -20 44 -43q54 0 54 69q0 116 -153 203q-152 87 -358 87q-132 0 -227 -37q-95 -36 -194 -101l91 11q134 0 226 -78q93 -78 93 -201q0 -37 -36 -95q-31 -44 -58.5 -83.5t-50.5 -75.5q42 -42 84 -69.5
t84.5 -44.5t86.5 -24t89 -7q134 0 261 109q42 36 92 93.5t108 138.5q-38 -277 -200 -450q-164 -174 -406 -174q-210 0 -355 109q-146 110 -210 304q217 61 261 84q65 32 116 105q-116 80 -210 80q-40 0 -82 -14.5t-85 -40.5v424q97 66 162.5 110.5t101.5 67.5
q66 44 141 84.5t160 78.5q230 -41 403 -145q25 -15 46.5 -30t40.5 -31q29 16 51 28.5t38 21.5q17 10 37 19t43 19q45 20 105.5 54t141.5 83q66 -38 131 -74.5t132 -71.5q10 -5 19.5 -11t18.5 -11q8 20 14.5 43.5t10.5 51.5q0 27 -6 65q-7 39 -40 65q-19 8 -42 15.5t-49 15.5
q-20 10 -39.5 22t-37.5 27q-35 27 -35 68zM1979 505q-14 -8 -27 -15.5t-25 -14.5q-28 -15 -28 -47q0 -31 28 -41q24 -14 52 -18v136z" />
    <glyph glyph-name="scedilla" unicode="&#x1785;" horiz-adv-x="1408" 
d="M838 1243q128 66 142 76q18 13 46 34t66 50q34 -24 70.5 -44.5t72.5 -35.5t72 -24t71 -9q52 0 84 22q-20 -60 -48 -109.5t-65 -89.5q-87 -94 -188 -94q-33 0 -144 48q-108 49 -139 49q-44 -18 -111 -69q-34 -25 -55.5 -41t-32.5 -24q-4 0 -98 60q-95 60 -178 60
q-69 0 -123 -80q-15 -25 -40 -80q65 33 103 47q37 15 89 15q131 0 214 -69t83 -188q0 -83 -68 -174q-40 -42 -63 -66t-28 -29q78 -96 174 -134q68 -25 170 -25q163 0 270 96t107 190q0 33 -18 51l-65 11q-65 0 -105 -66q-41 -65 -65 -65q-88 26 -136.5 78t-48.5 133
q0 90 72 144q73 55 189 55q101 0 185 -87q97 -100 97 -250q0 -231 -155 -413q-171 -196 -417 -196q-211 0 -389 141q-177 142 -238 341q110 0 188 22q120 32 203 116q-77 51 -170 51q-66 0 -125.5 -24t-99.5 -60v555q55 44 91 76q71 58 129 103.5t106 77.5q81 -40 160 -79
t159 -77z" />
    <glyph glyph-name="Cacute" 
d="M-761 -166q0 79 53 111q52 30 118 30q141 0 141 -170q-10 -56 -47 -113q-8 -9 -26 -30t-47 -53q33 -43 76.5 -59.5t101.5 -16.5q26 5 80 47q16 14 31.5 27.5t29.5 26.5q-37 44 -59 95q-24 49 -24 76q0 42 35 94q34 51 81 51q76 0 111 -45q34 -46 34 -111q0 -64 -14 -98
q8 -29 58 -56q49 -27 104 -45q-65 -84 -130 -84q-29 0 -69 18q-5 2 -22.5 11t-46.5 26q-64 -126 -139 -169q-74 -42 -201 -42q-92 0 -174 58q-55 37 -109 109q18 15 120 87q49 35 87 83q-90 43 -98 51q-55 40 -55 91z" />
    <glyph glyph-name="cacute" 
d="M-761 -936q0 79 53 111q52 30 118 30q141 0 141 -170q-10 -56 -47 -113q-8 -9 -26 -30t-47 -53q33 -43 76.5 -59.5t101.5 -16.5q26 5 80 47q16 14 31.5 27.5t29.5 26.5q-37 44 -59 95q-24 49 -24 76q0 42 35 94q34 51 81 51q76 0 111 -45q34 -46 34 -111q0 -64 -14 -98
q8 -29 58 -56q49 -27 104 -45q-65 -84 -130 -84q-29 0 -69 18q-5 2 -22.5 11t-46.5 26q-64 -126 -139 -169q-74 -42 -201 -42q-92 0 -174 58q-55 37 -109 109q18 15 120 87q49 35 87 83q-90 43 -98 51q-55 40 -55 91z" />
    <glyph glyph-name="Ccaron" horiz-adv-x="2053" 
d="M1561 1406q4 -2 90.5 -37.5t259.5 -107.5q137 -80 137 -112v-982q0 -69 -62 -120q-62 -50 -101 -50q-7 46 -154 157t-147 234q0 61 188 144q189 84 189 197q0 138 -208 262q-208 125 -356 125l-91 -14q-39 -10 -78 -22.5t-77 -29.5q-112 -49 -189 -118q-124 97 -297 145
q-120 32 -193 32q-99 0 -151 -45t-81 -122q65 33 103 47q37 15 89 15q131 0 214 -69t83 -188q0 -83 -68 -174q-40 -42 -63 -66t-28 -29q78 -96 174 -134q68 -25 170 -25q163 0 270 96t107 190q0 33 -18 51l-65 11q-65 0 -105 -66q-41 -65 -65 -65q-88 26 -136.5 78
t-48.5 133q0 90 72 144q73 55 189 55q101 0 185 -87q97 -100 97 -250q0 -231 -155 -413q-171 -196 -417 -196q-211 0 -389 141q-177 142 -238 341q110 0 188 22q120 32 203 116q-77 51 -170 51q-66 0 -125.5 -24t-99.5 -60v555l1 -5v27q69 34 119 58.5t84 38.5
q50 24 126 58.5t181 79.5q54 -16 114 -39.5t129 -54.5q45 -20 92 -43.5t96 -50.5q23 9 63.5 24t97.5 37q76 26 265 135l-3 -3zM1951 428l7 108q-26 -3 -49.5 -10.5t-30.5 -28.5q0 -26 47 -55q4 -2 10 -5.5t16 -8.5z" />
    <glyph glyph-name="ccaron" horiz-adv-x="2053" 
d="M1561 1406q4 -2 90.5 -37.5t259.5 -107.5q17 -10 31 -18.5t26 -16.5q35 111 35 147l-7 62q-8 37 -118 83q-111 46 -111 120q0 26 19 79q36 87 130 87q48 0 91 -18t79 -51q77 -72 77 -203q0 -108 -53 -197q-25 -42 -49 -76.5t-49 -63.5q36 -29 36 -46v-982q0 -69 -62 -120
q-62 -50 -101 -50q-7 46 -154 157t-147 234q0 61 188 144q189 84 189 197q0 138 -208 262q-208 125 -356 125l-91 -14q-39 -10 -78 -22.5t-77 -29.5q-112 -49 -189 -118q-124 97 -297 145q-120 32 -193 32q-99 0 -151 -45t-81 -122q65 33 103 47q37 15 89 15q131 0 214 -69
t83 -188q0 -83 -68 -174q-40 -42 -63 -66t-28 -29q78 -96 174 -134q68 -25 170 -25q163 0 270 96t107 190q0 33 -18 51l-65 11q-65 0 -105 -66q-41 -65 -65 -65q-88 26 -136.5 78t-48.5 133q0 90 72 144q73 55 189 55q101 0 185 -87q97 -100 97 -250q0 -231 -155 -413
q-171 -196 -417 -196q-211 0 -389 141q-177 142 -238 341q110 0 188 22q120 32 203 116q-77 51 -170 51q-66 0 -125.5 -24t-99.5 -60v555l1 -5v27q69 34 119 58.5t84 38.5q50 24 126 58.5t181 79.5q54 -16 114 -39.5t129 -54.5q45 -20 92 -43.5t96 -50.5q23 9 63.5 24
t97.5 37q76 26 265 135l-3 -3zM1951 428l7 108q-26 -3 -49.5 -10.5t-30.5 -28.5q0 -26 47 -55q4 -2 10 -5.5t16 -8.5z" />
    <glyph glyph-name="dmacron" unicode="&#x1786;" horiz-adv-x="1401" 
d="M843 1251q65 32 121 70t118 78q51 -36 105 -72q77 -44 160 -44q39 0 105 18q-32 -110 -95 -188q-79 -94 -177 -94q-25 0 -138 59q-113 60 -141 60l-18 -7q-145 -145 -185 -145q-37 22 -73 40.5t-72 35.5q-93 44 -134 47q-73 0 -135 -80q-9 -13 -21 -33.5t-26 -49.5
q35 14 61 24.5t44 15.5q39 11 91 11q210 0 254 -134v-294q65 0 97 -6q33 -4 62 -23q29 -18 38 -67t28 -71q31 -40 101 -72q12 -5 29 -15q97 0 179 74q82 75 82 162q0 59 -43 112l-48 11q-43 0 -92 -64q-50 -63 -78 -63q-80 0 -140 60q-59 61 -59 140q0 94 67 157
q67 64 183 64q187 0 261 -152q47 -103 47 -294q0 -237 -91 -379q-90 -143 -268 -143q-98 0 -183 63q-85 64 -85 122v279h-80v-279q0 -47 -51 -120q-50 -72 -101 -72q-33 0 -62 41q-14 21 -52.5 49t-101.5 63q-125 70 -132 144v174q45 5 87 13t81 19t93.5 31t126.5 49
q-10 51 -77 78q-65 27 -119 27q-48 0 -105 -25q-4 0 -87 -47v536q32 29 65.5 58t68.5 58q48 38 93.5 72.5t91.5 65.5zM571 348l7 109q-25 -8 -48.5 -17t-27.5 -30q0 -26 47 -55q4 -2 9 -3.5t13 -3.5z" />
    <glyph glyph-name="macron" 
d="M-710 -47v-83h174q10 -137 55 -206q43 -69 152 -69q152 0 203 141q-25 -25 -44 -36q-53 -37 -109 -37l-54 11q-80 29 -80 178q7 42 61 76q52 33 128 33q43 -5 105 -33q11 -4 25.5 -11t32.5 -18l4 -159q0 -102 -17.5 -177.5t-55 -125.5t-98 -75t-145.5 -25
q-191 18 -268 207v196h-65v-305q0 -51 -56 -74q-57 -24 -129 -24q-105 0 -181 76q-77 77 -77 185q0 113 39 193q37 79 103 79h148v83h149zM-927 -340q13 -51 72 -51v131q-80 0 -80 -44z" />
    <glyph glyph-name="periodcentered" 
d="M-752 -872h187q10 -122 57 -196q47 -72 161 -80q162 0 212 143q-6 0 -50 -38q-47 -32 -114 -35q-14 3 -48 17q-84 36 -84 179q17 49 55 80q47 38 139 38q63 0 98 -27q40 -23 66 -57q11 -38 17 -77t8 -77q1 -1 1 -15q0 -388 -347 -391q-200 22 -271 208q-28 59 -28 198
h-56v-307q0 -50 -62 -73q-69 -23 -130 -26q-114 3 -188 80t-87 184q0 112 44 192q41 80 106 80h157v84h157v-84zM-990 -1046q0 -7 8 -36q25 -52 76 -52v132q-87 -3 -84 -44z" />
    <glyph glyph-name="Abreve" horiz-adv-x="2054" 
d="M1562 1406q4 -2 90.5 -37.5t259.5 -107.5q137 -80 137 -112v-982q0 -69 -62 -120q-62 -50 -101 -50q-7 46 -154 157t-147 234q0 61 188 144q189 84 189 197q0 138 -208 262q-208 125 -356 125l-91 -14q-39 -10 -78 -22.5t-77 -29.5q-50 -22 -91.5 -47t-76.5 -53
q48 18 110 18q187 0 261 -152q47 -103 47 -294q0 -237 -91 -379q-90 -143 -268 -143q-98 0 -183 63q-85 64 -85 122v279h-80v-279q0 -47 -51 -120q-50 -72 -101 -72q-33 0 -62 41q-14 21 -52.5 49t-101.5 63q-125 70 -132 144v174q45 5 87 13t81 19t93.5 31t126.5 49
q-10 51 -77 78q-65 27 -119 27q-48 0 -105 -25q-4 0 -87 -47v555q69 34 119 58.5t84 38.5q50 24 126 58.5t181 79.5q54 -16 114 -39.5t129 -54.5q45 -20 92 -43.5t96 -50.5q23 9 63.5 24t97.5 37q76 26 265 135l-3 -3zM343 986q39 11 91 11q210 0 254 -134v-294q65 0 97 -6
q33 -4 62 -23q29 -18 38 -67t28 -71q31 -40 101 -72q12 -5 29 -15q97 0 179 74q82 75 82 162q0 59 -43 112l-48 11q-43 0 -92 -64q-50 -63 -78 -63q-80 0 -140 60q-59 61 -59 140q0 94 67 157q19 19 45 33q-124 94 -290 140q-120 32 -193 32q-99 0 -151 -45
q-52 -44 -78 -116q32 14 57 23.5t42 14.5zM1952 428l7 108q-26 -3 -49.5 -10.5t-30.5 -28.5q0 -26 47 -55q4 -2 10 -5.5t16 -8.5zM572 348l7 109q-25 -8 -48.5 -17t-27.5 -30q0 -26 47 -55q4 -2 9 -3.5t13 -3.5z" />
    <glyph glyph-name="abreve" horiz-adv-x="2054" 
d="M1562 1406q4 -2 90.5 -37.5t259.5 -107.5q17 -10 31 -18.5t26 -16.5q35 111 35 147l-7 62q-8 37 -118 83q-111 46 -111 120q0 26 19 79q36 87 130 87q48 0 91 -18t79 -51q77 -72 77 -203q0 -108 -53 -197q-25 -42 -49 -76.5t-49 -63.5q36 -29 36 -46v-982q0 -69 -62 -120
q-62 -50 -101 -50q-7 46 -154 157t-147 234q0 61 188 144q189 84 189 197q0 138 -208 262q-208 125 -356 125l-91 -14q-39 -10 -78 -22.5t-77 -29.5q-50 -22 -91.5 -47t-76.5 -53q48 18 110 18q187 0 261 -152q47 -103 47 -294q0 -237 -91 -379q-90 -143 -268 -143
q-98 0 -183 63q-85 64 -85 122v279h-80v-279q0 -47 -51 -120q-50 -72 -101 -72q-33 0 -62 41q-14 21 -52.5 49t-101.5 63q-125 70 -132 144v174q45 5 87 13t81 19t93.5 31t126.5 49q-10 51 -77 78q-65 27 -119 27q-48 0 -105 -25q-4 0 -87 -47v555q69 34 119 58.5t84 38.5
q50 24 126 58.5t181 79.5q54 -16 114 -39.5t129 -54.5q45 -20 92 -43.5t96 -50.5q23 9 63.5 24t97.5 37q76 26 265 135l-3 -3zM343 986q39 11 91 11q210 0 254 -134v-294q65 0 97 -6q33 -4 62 -23q29 -18 38 -67t28 -71q31 -40 101 -72q12 -5 29 -15q97 0 179 74
q82 75 82 162q0 59 -43 112l-48 11q-43 0 -92 -64q-50 -63 -78 -63q-80 0 -140 60q-59 61 -59 140q0 94 67 157q19 19 45 33q-124 94 -290 140q-120 32 -193 32q-99 0 -151 -45q-52 -44 -78 -116q32 14 57 23.5t42 14.5zM1952 428l7 108q-26 -3 -49.5 -10.5t-30.5 -28.5
q0 -26 47 -55q4 -2 10 -5.5t16 -8.5zM572 348l7 109q-25 -8 -48.5 -17t-27.5 -30q0 -26 47 -55q4 -2 9 -3.5t13 -3.5z" />
    <glyph glyph-name="Aogonek" unicode="&#x1787;" horiz-adv-x="1324" 
d="M1041 1638q119 0 192 -62q73 -61 73 -148q0 -199 -171 -355q-149 -138 -286 -138q-26 0 -217 94q-107 51 -182 51q-119 0 -166 -47q-33 -33 -33 -94q51 31 87 45q35 13 101 13q128 0 214 -73q87 -72 87 -181q0 -94 -69 -170q-25 -28 -50 -54t-51 -51q52 -54 91 -80
q116 -80 239 -80q115 15 237 131q121 115 180 261q0 -286 -158 -494q-158 -206 -390 -206q-221 0 -395 178q-135 135 -181 297q49 5 98.5 15.5t100.5 24.5q103 29 182 87q0 42 -51 68q-52 26 -127 26q-144 -15 -203 -65v507q107 81 185 134q49 35 98 66.5t98 60.5
q54 -31 109 -60.5t112 -58.5q145 -73 232 -73l54 7q34 8 47 15q47 23 51 47q0 86 -149 94q-148 7 -148 76q0 59 43 118q44 60 116 74z" />
    <glyph glyph-name="aogonek" 
d="M-710 -94q54 -44 54 -83q0 -35 -23 -69q-24 -33 -103 -94q54 -26 90 -36q118 -37 250 -37q134 15 236 87q116 84 170 218q0 -277 -139 -422q-140 -147 -379 -147q-233 0 -402 112q-144 94 -185 232q87 7 183 18q95 10 172 65q-18 29 -46.5 42t-73.5 13q-20 0 -43.5 -3
t-50.5 -8q-125 -25 -138 -25l-14 14q0 50 72 112q88 77 192 77q91 0 178 -66z" />
    <glyph glyph-name="Dcaron" 
d="M-752 -834q59 -47 55 -84q0 -53 -45 -93q-23 -21 -45 -39t-42 -32q9 0 102 -37q101 -33 260 -36q129 13 252 91q121 76 180 216q-13 -571 -553 -575q-262 4 -419 118q-157 105 -198 230q79 7 183 18q102 7 189 66q-42 57 -124 53q-32 0 -65.5 -3.5t-68.5 -10.5
q-71 -14 -111 -21q-14 3 -14 14q3 44 80 118q74 68 198 73q1 1 10 1q85 0 176 -67z" />
    <glyph glyph-name="dcaron" horiz-adv-x="2004" 
d="M1965 1199q25 -25 25 -41v-990q-3 -77 -69 -123q-61 -45 -98 -48q-7 52 -56 87q-25 20 -52.5 39t-59.5 38q-28 22 -53.5 45.5t-49.5 48.5q-50 56 -50 136q0 55 66 87q29 17 62.5 33t70.5 30q82 28 140 76q58 45 58 118q0 76 -48 150q-46 64 -119 119q-130 91 -221 111
q-44 11 -82.5 15.5t-89.5 4.5q-12 -1 -24.5 -1t-25.5 -1q-24 -2 -123 -30q-8 -8 -15.5 -15t-15.5 -15q-149 -138 -286 -138q-26 0 -217 94q-107 51 -182 51q-119 0 -166 -47q-33 -33 -33 -94q51 31 87 45q35 13 101 13q128 0 214 -73q87 -72 87 -181q0 -94 -69 -170
q-25 -28 -50 -54t-51 -51q52 -54 91 -80q116 -80 239 -80q115 15 237 131q121 115 180 261q0 -286 -158 -494q-158 -206 -390 -206q-221 0 -395 178q-135 135 -181 297q49 5 98.5 15.5t100.5 24.5q103 29 182 87q0 42 -51 68q-52 26 -127 26q-144 -15 -203 -65v507
q107 81 185 134q49 35 98 66.5t98 60.5q54 -31 109 -60.5t112 -58.5q145 -73 232 -73l54 7q34 8 47 15q47 23 51 47q0 86 -149 94q-148 7 -148 76q0 59 43 118q44 60 116 74q119 0 192 -62q73 -61 73 -148q0 -95 -39 -180q16 8 33.5 16.5t37.5 16.5q45 20 105.5 54t141.5 83
q66 -38 131 -74.5t132 -71.5q5 -2 34 -20.5t83 -52.5zM1909 505q-14 -8 -27 -15.5t-25 -14.5q-28 -15 -28 -47q0 -31 28 -41q24 -14 52 -18v136z" />
    <glyph glyph-name="Dslash" horiz-adv-x="2004" 
d="M1662 1623q0 37 18 90q40 96 134 96q97 -4 172 -76q77 -92 77 -225q0 -121 -52 -231q-13 -26 -24.5 -45.5t-21.5 -32.5q25 -25 25 -41v-990q-3 -77 -69 -123q-61 -45 -98 -48q-7 52 -56 87q-25 20 -52.5 39t-59.5 38q-28 22 -53.5 45.5t-49.5 48.5q-50 56 -50 136
q0 55 66 87q29 17 62.5 33t70.5 30q82 28 140 76q58 45 58 118q0 76 -48 150q-46 64 -119 119q-130 91 -221 111q-44 11 -82.5 15.5t-89.5 4.5q-12 -1 -24.5 -1t-25.5 -1q-24 -2 -123 -30q-8 -8 -15.5 -15t-15.5 -15q-149 -138 -286 -138q-26 0 -217 94q-107 51 -182 51
q-119 0 -166 -47q-33 -33 -33 -94q51 31 87 45q35 13 101 13q128 0 214 -73q87 -72 87 -181q0 -94 -69 -170q-25 -28 -50 -54t-51 -51q52 -54 91 -80q116 -80 239 -80q115 15 237 131q121 115 180 261q0 -286 -158 -494q-158 -206 -390 -206q-221 0 -395 178
q-135 135 -181 297q49 5 98.5 15.5t100.5 24.5q103 29 182 87q0 42 -51 68q-52 26 -127 26q-144 -15 -203 -65v507q107 81 185 134q49 35 98 66.5t98 60.5q54 -31 109 -60.5t112 -58.5q145 -73 232 -73l54 7q34 8 47 15q47 23 51 47q0 86 -149 94q-148 7 -148 76
q0 59 43 118q44 60 116 74q119 0 192 -62q73 -61 73 -148q0 -95 -39 -180q16 8 33.5 16.5t37.5 16.5q45 20 105.5 54t141.5 83q66 -38 131 -74.5t132 -71.5q10 -5 19.5 -11t18.5 -11q8 20 14.5 43.5t10.5 51.5q0 27 -6 65q-7 39 -40 65q-19 8 -42 15.5t-49 15.5
q-20 10 -39.5 22t-37.5 27q-35 27 -35 68zM1909 505q-14 -8 -27 -15.5t-25 -14.5q-28 -15 -28 -47q0 -31 28 -41q24 -14 52 -18v136z" />
    <glyph glyph-name="Eogonek" unicode="&#x1788;" horiz-adv-x="2709" 
d="M841 268l199 548q0 54 -143 146q-72 47 -129.5 76t-102.5 42q-90 26 -158 26q-76 0 -135.5 -20t-117.5 -71q27 7 83 7q141 0 248 -78t107 -194q0 -120 -151 -223q-150 -104 -150 -150q11 -22 22 -25.5t18 -7.5q17 0 40 26q55 61 76 61q174 0 174 -192q0 -109 -82 -176
q-81 -66 -200 -66q-135 0 -207 119q-58 97 -58 232q0 87 148 174q149 87 149 101q-23 87 -163 87q-72 0 -145 -43v475q9 5 63.5 37.5t154.5 92.5q62 38 120 70.5t115 60.5q157 -15 326 -84q37 -14 84 -38.5t105 -58.5q71 -44 109 -66.5t43 -24.5l-206 -584
q127 -131 163 -156q101 -68 246 -68q120 0 210 72q91 73 91 170q0 77 -98 109q-54 18 -116 18q-40 0 -99 -18t-122 -43v511q20 16 35.5 28.5t26.5 22.5q140 122 192 206q35 -27 62.5 -47t49.5 -33q88 -50 152 -50q54 0 95 36q-80 -279 -265 -279q-36 0 -91 18q-54 18 -83 18
q-48 0 -78.5 -30.5t-41.5 -78.5q10 4 19 7.5t18 7.5q81 32 159 32q170 0 250 -126q62 -103 62 -265q0 -38 -7 -69q-9 -29 -15.5 -51.5t-10.5 -39.5q46 -34 80.5 -57.5t57.5 -36.5q80 -47 217 -47q124 0 214 72q91 73 91 171q0 76 -98 109q-59 18 -120 18q-39 0 -97 -16.5
t-124 -48.5v532q20 14 35.5 26t26.5 22q140 118 192 206q55 -44 112 -72q88 -44 156 -44q50 0 91 26q-79 -280 -265 -280q-36 0 -91 18q-53 19 -83 19q-47 0 -78 -42q-30 -42 -45 -92q17 9 30 15t24 10q78 29 145 29q174 0 269 -120q83 -106 83 -257q0 -200 -109 -370
q-159 -249 -478 -249q-43 0 -163 53q-91 42 -145 66.5t-73 31.5q-146 -144 -420 -144q-126 0 -301 119q-140 97 -174 152z" />
    <glyph glyph-name="eogonek" horiz-adv-x="637" 
d="M112 1149q35 26 61 46.5t44 36.5q119 101 160 171q27 -22 55 -40.5t57 -32.5q86 -43 156 -43q51 0 91 25q-80 -279 -265 -279q-36 0 -91 18q-54 18 -83 18q-24 0 -44 -9.5t-35.5 -25t-26.5 -36.5t-17 -45q29 15 81.5 29.5t121.5 14.5q113 0 177 -49q66 -50 66 -176v-793
q0 -62 87 -156q32 -37 65.5 -73t68.5 -72q-151 -191 -272 -261q-87 -51 -210 -51q-102 0 -160 33q-60 48 -94 69q-33 -41 -102 -72q-67 -33 -184 -33q-87 0 -166 54q-85 70 -109 91l152 170q-55 55 -112 71t-156 16q-221 0 -250 -134q0 -65 58 -65q29 55 60 80q29 25 96 25
q50 -5 69 -56q18 -53 18 -104q-8 -42 -25 -70t-42.5 -45.5t-59 -25t-73.5 -7.5q-101 0 -135 87q-35 88 -35 174q0 152 113 257q112 105 286 105q205 0 351 -188q-11 -20 -20 -35.5t-16 -26.5q-37 -60 -76 -102q13 -10 43 -21q33 -14 64.5 -24.5t62.5 -15.5q63 0 96.5 20
t33.5 49q-14 14 -44.5 21.5t-88.5 7.5q37 88 90 170q34 48 57.5 80t36.5 51q66 -40 125 -53t107 -13q-15 -50 -51 -108t-76 -58q-17 0 -33.5 4.5t-32 10.5t-29.5 12.5t-25 11.5q-29 -3 -47 -10.5t-36 -28.5q87 0 148 -34q62 -35 62 -64q0 -37 27 -51.5t75 -14.5l87 11
q28 0 69 26q34 22 74.5 62.5t88.5 100.5q-23 22 -47 43.5t-48 43.5q-32 44 -32 94v612q0 68 -51 94q-52 26 -123 26q-77 0 -171 -58q-15 -8 -47 -33v551z" />
    <glyph glyph-name="Ecaron" horiz-adv-x="637" 
d="M112 1149q35 26 61 46.5t44 36.5q119 101 160 171q27 -22 55 -40.5t57 -32.5q86 -43 156 -43q51 0 91 25q-80 -279 -265 -279q-36 0 -91 18q-54 18 -83 18q-24 0 -44 -9.5t-35.5 -25t-26.5 -36.5t-17 -45q29 15 81.5 29.5t121.5 14.5q113 0 177 -49q66 -50 66 -176v-1583
q0 -62 87 -156q32 -37 65.5 -73t68.5 -72q-151 -191 -272 -261q-87 -51 -210 -51q-102 0 -160 33q-60 48 -94 69q-33 -41 -102 -72q-67 -33 -184 -33q-87 0 -166 54q-85 70 -109 91l152 170q-55 55 -112 71t-156 16q-221 0 -250 -134q0 -65 58 -65q29 55 60 80q29 25 96 25
q50 -5 69 -56q18 -53 18 -104q-8 -42 -25 -70t-42.5 -45.5t-59 -25t-73.5 -7.5q-101 0 -135 87q-35 88 -35 174q0 152 113 257q112 105 286 105q205 0 351 -188q-11 -20 -20 -35.5t-16 -26.5q-37 -60 -76 -102q13 -10 43 -21q33 -14 64.5 -24.5t62.5 -15.5q63 0 96.5 20
t33.5 49q-14 14 -44.5 21.5t-88.5 7.5q37 88 90 170q34 48 57.5 80t36.5 51q66 -40 125 -53t107 -13q-15 -50 -51 -108t-76 -58q-17 0 -33.5 4.5t-32 10.5t-29.5 12.5t-25 11.5q-29 -3 -47 -10.5t-36 -28.5q87 0 148 -34q62 -35 62 -64q0 -37 27 -51.5t75 -14.5l87 11
q28 0 69 26q34 22 74.5 62.5t88.5 100.5q-23 22 -47 43.5t-48 43.5q-32 44 -32 94v1402q0 68 -51 94q-52 26 -123 26q-77 0 -171 -58q-15 -8 -47 -33v551z" />
    <glyph glyph-name="ecaron" horiz-adv-x="3428" 
d="M869 268l199 548q0 54 -143 146q-72 47 -129.5 76t-102.5 42q-90 26 -158 26q-76 0 -135.5 -20t-117.5 -71q27 7 83 7q141 0 248 -78t107 -194q0 -120 -151 -223q-150 -104 -150 -150q11 -22 22 -25.5t18 -7.5q17 0 40 26q55 61 76 61q174 0 174 -192q0 -109 -82 -176
q-81 -66 -200 -66q-135 0 -207 119q-58 97 -58 232q0 87 148 174q149 87 149 101q-23 87 -163 87q-72 0 -145 -43v475q9 5 63.5 37.5t154.5 92.5q62 38 120 70.5t115 60.5q157 -15 326 -84q37 -14 84 -38.5t105 -58.5q71 -44 109 -66.5t43 -24.5l-206 -584
q127 -131 163 -156q101 -68 246 -68q120 0 210 72q91 73 91 170q0 77 -98 109q-54 18 -116 18q-40 0 -99 -18t-122 -43v511q20 16 35.5 28.5t26.5 22.5q140 122 192 206q35 -27 62.5 -47t49.5 -33q88 -50 152 -50q54 0 95 36q-80 -279 -265 -279q-36 0 -91 18q-54 18 -83 18
q-48 0 -78.5 -30.5t-41.5 -78.5q10 4 19 7.5t18 7.5q81 32 159 32q170 0 250 -126q62 -103 62 -265q0 -38 -7 -69q-9 -29 -15.5 -51.5t-10.5 -39.5q46 -34 80.5 -57.5t57.5 -36.5q80 -47 217 -47q124 0 214 72q91 73 91 171q0 76 -98 109q-59 18 -120 18q-39 0 -97 -16.5
t-124 -48.5v20h-1v511q88 45 147.5 75t91.5 45q32 16 68 35t78 42q67 29 130.5 44.5t123.5 16.5l-1 -2l3 2q176 -33 252 -70q42 -17 84 -37t87 -42q81 -42 150 -66t69 -40v-981q-3 -76 -69 -121q-62 -45 -98 -48q-7 52 -56 86q-25 20 -52.5 39t-59.5 37q-28 22 -53.5 45.5
t-49.5 48.5q-50 56 -50 134q0 54 66 86q29 17 62.5 33t70.5 30q81 28 140 75q58 45 58 117q0 75 -48 149q-47 64 -119 118q-75 33 -133 53.5t-101 27.5q-42 7 -75 11t-58 6q-91 4 -172.5 2.5t-153.5 -6.5q-53 -7 -86 -12.5t-47 -9.5q-27 -7 -82 -33l-21 -15q-31 -23 -43 -86
q3 1 7 3q32 26 106 39q19 5 36 7.5t34 3.5q5 1 11 1t12 1l9 -2q160 -6 252 -120q83 -106 83 -257q0 -200 -109 -370q-159 -249 -478 -249q-43 0 -163 53q-91 42 -145 66.5t-73 31.5q-146 -144 -420 -144q-126 0 -301 119q-140 97 -174 152zM3331 500q-14 -8 -27 -15.5
t-25 -13.5q-28 -15 -28 -47q0 -31 28 -41q25 -14 52 -17v134z" />
    <glyph glyph-name="Lacute" horiz-adv-x="1421" 
d="M1409 1158v-990q-3 -77 -69 -123q-61 -45 -98 -48q-7 52 -56 87q-25 20 -52.5 39t-59.5 38q-28 22 -53.5 45.5t-49.5 48.5q-50 56 -50 136q0 55 66 87q29 17 62.5 33t70.5 30q82 28 140 76q58 45 58 118q0 76 -48 150q-46 64 -119 119q-75 34 -133 54.5t-101 27.5
q-42 7 -75 11t-58 6q-44 5 -424 -21q-14 -2 -25.5 -4t-19.5 -4q-56 0 -87 -36q-30 -27 -43 -62q-1 -8 8 -5.5t24 8.5t35 12t41 4q55 10 105 9q113 0 187 -42q70 -49 70 -184v-959q0 -37 28 -77q16 -22 32.5 -42t33.5 -38q84 -77 143 -146q-173 -206 -285 -264
q-115 -50 -208 -50h-15q-122 7 -168 39q-26 15 -52.5 30.5t-54.5 32.5q-18 -4 -64 -52q-25 -19 -80 -36q-59 -18 -154 -18q-110 4 -180 57q-35 26 -62.5 48.5t-49.5 41.5q26 29 66 71.5t94 99.5q-59 59 -124 77q-35 7 -75 9.5t-86 0.5q-238 0 -266 -135q5 -33 29 -47
q25 -19 35 -19q11 13 23 29.5t26 36.5q14 17 41 30q35 11 76 11q64 -8 81 -63q7 -28 9.5 -52t0.5 -46q-18 -93 -73 -121q-67 -29 -139 -29q-118 7 -150 106q-28 85 -28 157q13 157 123 258q116 107 296 107q212 0 293 -95q80 -96 44 -153q-20 -29 -40 -55.5t-40 -51.5
q23 -14 67.5 -29.5t110.5 -32.5q139 7 139 69q-20 24 -48 27q-14 2 -37.5 3t-56.5 1q23 51 48 95.5t53 82.5q26 35 48.5 66t42.5 59q169 -71 246 -66q-14 -46 -45 -104q-38 -60 -87 -64q-45 7 -77 25q-35 15 -52 15q-26 0 -39 -4q-23 -11 -48 -36q103 0 164 -37
q59 -36 59 -63q0 -35 36 -50q28 -16 69 -16q31 2 54 5.5t39 7.5q22 0 77 28q16 11 35 25.5t41 33.5q20 18 43.5 43.5t51.5 58.5q-14 13 -33 30t-44 40q-55 44 -59 112v778q-3 81 -62 102q-59 18 -123 18q-82 -4 -146 -43q-74 -44 -77 -48v555l3 -3q7 4 39 17.5t92 36.5
q66 32 130 65t128 68q128 71 248 73l-1 -2l3 2q174 -33 252 -70q42 -18 84 -38t87 -42q219 -92 219 -107zM1328 505q-14 -8 -27 -15.5t-25 -14.5q-28 -15 -28 -47q0 -31 28 -41q24 -14 52 -18v136z" />
    <glyph glyph-name="lacute" horiz-adv-x="1421" 
d="M1409 1158v-990q-3 -77 -69 -123q-61 -45 -98 -48q-7 52 -56 87q-25 20 -52.5 39t-59.5 38q-28 22 -53.5 45.5t-49.5 48.5q-50 56 -50 136q0 55 66 87q29 17 62.5 33t70.5 30q82 28 140 76q58 45 58 118q0 76 -48 150q-46 64 -119 119q-75 34 -133 54.5t-101 27.5
q-42 7 -75 11t-58 6q-44 5 -424 -21q-14 -2 -25.5 -4t-19.5 -4q-56 0 -87 -36q-30 -27 -43 -62q-1 -8 8 -5.5t24 8.5t35 12t41 4q55 10 105 9q113 0 187 -42q70 -49 70 -184v-1589q0 -37 28 -77q16 -22 32.5 -42t33.5 -38q84 -77 143 -146q-173 -206 -285 -264
q-115 -50 -208 -50h-15q-122 7 -168 39q-26 15 -52.5 30.5t-54.5 32.5q-18 -4 -64 -52q-25 -19 -80 -36q-59 -18 -154 -18q-110 4 -180 57q-35 26 -62.5 48.5t-49.5 41.5q26 29 66 71.5t94 99.5q-59 59 -124 77q-35 7 -75 9.5t-86 0.5q-238 0 -266 -135q5 -33 29 -47
q25 -19 35 -19q11 13 23 29.5t26 36.5q14 17 41 30q35 11 76 11q64 -8 81 -63q7 -28 9.5 -52t0.5 -46q-18 -93 -73 -121q-67 -29 -139 -29q-118 7 -150 106q-28 85 -28 157q13 157 123 258q116 107 296 107q212 0 293 -95q80 -96 44 -153q-20 -29 -40 -55.5t-40 -51.5
q23 -14 67.5 -29.5t110.5 -32.5q139 7 139 69q-20 24 -48 27q-14 2 -37.5 3t-56.5 1q23 51 48 95.5t53 82.5q26 35 48.5 66t42.5 59q169 -71 246 -66q-14 -46 -45 -104q-38 -60 -87 -64q-45 7 -77 25q-35 15 -52 15q-26 0 -39 -4q-23 -11 -48 -36q103 0 164 -37
q59 -36 59 -63q0 -35 36 -50q28 -16 69 -16q31 2 54 5.5t39 7.5q22 0 77 28q16 11 35 25.5t41 33.5q20 18 43.5 43.5t51.5 58.5q-14 13 -33 30t-44 40q-55 44 -59 112v1408q-3 81 -62 102q-59 18 -123 18q-82 -4 -146 -43q-74 -44 -77 -48v555l3 -3q7 4 39 17.5t92 36.5
q66 32 130 65t128 68q128 71 248 73l-1 -2l3 2q174 -33 252 -70q42 -18 84 -38t87 -42q219 -92 219 -107zM1328 505q-14 -8 -27 -15.5t-25 -14.5q-28 -15 -28 -47q0 -31 28 -41q24 -14 52 -18v136z" />
    <glyph glyph-name="Lcaron" horiz-adv-x="3428" 
d="M869 268l199 548q0 54 -143 146q-72 47 -129.5 76t-102.5 42q-90 26 -158 26q-76 0 -135.5 -20t-117.5 -71q27 7 83 7q141 0 248 -78t107 -194q0 -120 -151 -223q-150 -104 -150 -150q11 -22 22 -25.5t18 -7.5q17 0 40 26q55 61 76 61q174 0 174 -192q0 -109 -82 -176
q-81 -66 -200 -66q-135 0 -207 119q-58 97 -58 232q0 87 148 174q149 87 149 101q-23 87 -163 87q-72 0 -145 -43v475q9 5 63.5 37.5t154.5 92.5q62 38 120 70.5t115 60.5q157 -15 326 -84q37 -14 84 -38.5t105 -58.5q71 -44 109 -66.5t43 -24.5l-206 -584
q127 -131 163 -156q101 -68 246 -68q120 0 210 72q91 73 91 170q0 77 -98 109q-54 18 -116 18q-40 0 -99 -18t-122 -43v511q20 16 35.5 28.5t26.5 22.5q140 122 192 206q35 -27 62.5 -47t49.5 -33q88 -50 152 -50q54 0 95 36q-80 -279 -265 -279q-36 0 -91 18q-54 18 -83 18
q-48 0 -78.5 -30.5t-41.5 -78.5q10 4 19 7.5t18 7.5q81 32 159 32q170 0 250 -126q62 -103 62 -265q0 -38 -7 -69q-9 -29 -15.5 -51.5t-10.5 -39.5q46 -34 80.5 -57.5t57.5 -36.5q80 -47 217 -47q124 0 214 72q91 73 91 171q0 76 -98 109q-59 18 -120 18q-39 0 -97 -16.5
t-124 -48.5v20h-1v511q88 45 147.5 75t91.5 45q32 16 68 35t78 42q67 29 130.5 44.5t123.5 16.5l-1 -2l3 2q176 -33 252 -70q42 -17 84 -37t87 -42q82 -42 113 -35h2q24 43 35 114q0 27 -6 65q-8 39 -40 64q-19 8 -42 15.5t-49 15.5q-42 20 -77 48q-35 27 -35 68q0 36 18 89
q41 95 134 95q97 -4 172 -75q77 -92 77 -223q0 -121 -52 -229q-26 -53 -50 -83q19 -19 19 -35v-981q-3 -76 -69 -121q-62 -45 -98 -48q-7 52 -56 86q-25 20 -52.5 39t-59.5 37q-28 22 -53.5 45.5t-49.5 48.5q-50 56 -50 134q0 54 66 86q29 17 62.5 33t70.5 30q81 28 140 75
q58 45 58 117q0 75 -48 149q-47 64 -119 118q-75 33 -133 53.5t-101 27.5q-42 7 -75 11t-58 6q-91 4 -172.5 2.5t-153.5 -6.5q-53 -7 -86 -12.5t-47 -9.5q-27 -7 -82 -33l-21 -15q-31 -23 -43 -86q3 1 7 3q32 26 106 39q19 5 36 7.5t34 3.5q5 1 11 1t12 1l9 -2
q160 -6 252 -120q83 -106 83 -257q0 -200 -109 -370q-159 -249 -478 -249q-43 0 -163 53q-91 42 -145 66.5t-73 31.5q-146 -144 -420 -144q-126 0 -301 119q-140 97 -174 152zM3331 500q-14 -8 -27 -15.5t-25 -13.5q-28 -15 -28 -47q0 -31 28 -41q25 -14 52 -17v134z" />
    <glyph glyph-name="lcaron" horiz-adv-x="1421" 
d="M1091 1623q0 37 18 90q40 96 134 96q97 -4 172 -76q77 -92 77 -225q0 -121 -52 -231q-13 -26 -25 -47t-25 -37q19 -19 19 -35v-990q-3 -77 -69 -123q-61 -45 -98 -48q-7 52 -56 87q-25 20 -52.5 39t-59.5 38q-28 22 -53.5 45.5t-49.5 48.5q-50 56 -50 136q0 55 66 87
q29 17 62.5 33t70.5 30q82 28 140 76q58 45 58 118q0 76 -48 150q-46 64 -119 119q-75 34 -133 54.5t-101 27.5q-42 7 -75 11t-58 6q-44 5 -424 -21q-14 -2 -25.5 -4t-19.5 -4q-56 0 -87 -36q-30 -27 -43 -62q-1 -8 8 -5.5t24 8.5t35 12t41 4q55 10 105 9q113 0 187 -42
q70 -49 70 -184v-959q0 -37 28 -77q16 -22 32.5 -42t33.5 -38q84 -77 143 -146q-173 -206 -285 -264q-115 -50 -208 -50h-15q-122 7 -168 39q-26 15 -52.5 30.5t-54.5 32.5q-18 -4 -64 -52q-25 -19 -80 -36q-59 -18 -154 -18q-110 4 -180 57q-35 26 -62.5 48.5t-49.5 41.5
q26 29 66 71.5t94 99.5q-59 59 -124 77q-35 7 -75 9.5t-86 0.5q-238 0 -266 -135q5 -33 29 -47q25 -19 35 -19q11 13 23 29.5t26 36.5q14 17 41 30q35 11 76 11q64 -8 81 -63q7 -28 9.5 -52t0.5 -46q-18 -93 -73 -121q-67 -29 -139 -29q-118 7 -150 106q-28 85 -28 157
q13 157 123 258q116 107 296 107q212 0 293 -95q80 -96 44 -153q-20 -29 -40 -55.5t-40 -51.5q23 -14 67.5 -29.5t110.5 -32.5q139 7 139 69q-20 24 -48 27q-14 2 -37.5 3t-56.5 1q23 51 48 95.5t53 82.5q26 35 48.5 66t42.5 59q169 -71 246 -66q-14 -46 -45 -104
q-38 -60 -87 -64q-45 7 -77 25q-35 15 -52 15q-26 0 -39 -4q-23 -11 -48 -36q103 0 164 -37q59 -36 59 -63q0 -35 36 -50q28 -16 69 -16q31 2 54 5.5t39 7.5q22 0 77 28q16 11 35 25.5t41 33.5q20 18 43.5 43.5t51.5 58.5q-14 13 -33 30t-44 40q-55 44 -59 112v778
q-3 81 -62 102q-59 18 -123 18q-82 -4 -146 -43q-74 -44 -77 -48v555l3 -3q7 4 39 17.5t92 36.5q66 32 130 65t128 68q128 71 248 73l-1 -2l3 2q174 -33 252 -70q42 -18 84 -38t87 -42q81 -43 113 -35h2q25 45 35 115q0 27 -6 65q-7 39 -40 65q-19 8 -42 15.5t-49 15.5
q-20 10 -39.5 22t-37.5 27q-35 27 -35 68zM1328 505q-14 -8 -27 -15.5t-25 -14.5q-28 -15 -28 -47q0 -31 28 -41q24 -14 52 -18v136z" />
    <glyph glyph-name="Ldot" horiz-adv-x="1421" 
d="M1091 1623q0 37 18 90q40 96 134 96q98 -5 172 -76q77 -92 77 -225q0 -123 -52 -231q-13 -26 -25 -47t-25 -37q19 -19 19 -35v-990q-3 -77 -69 -123q-62 -45 -98 -48q-8 53 -56 87q-25 20 -52.5 39t-59.5 38q-28 22 -53.5 45.5t-49.5 48.5q-50 56 -50 136q0 55 66 87
q29 17 62.5 33t70.5 30q82 28 140 76q58 45 58 118q0 76 -48 150q-46 64 -119 119q-75 34 -133 54.5t-101 27.5q-42 7 -75 11t-58 6q-44 5 -424 -21q-14 -2 -25.5 -4t-19.5 -4q-56 0 -87 -36q-29 -26 -43 -62q-1 -8 8 -5.5t24 8.5t35 12t41 4q55 10 105 9q113 0 187 -42
q70 -49 70 -184v-1579q0 -37 28 -77q16 -22 32.5 -42t33.5 -38q84 -77 143 -146q-173 -206 -285 -264q-117 -50 -208 -50h-15q-122 7 -168 39q-26 15 -52.5 30.5t-54.5 32.5q-18 -4 -64 -52q-26 -20 -80 -36q-59 -18 -154 -18q-110 4 -180 57q-35 26 -62.5 48.5t-49.5 41.5
q26 29 66 71.5t94 99.5q-59 59 -124 77q-35 7 -75 9.5t-86 0.5q-238 0 -266 -135q5 -33 29 -47q25 -19 35 -19q11 13 23 29.5t26 36.5q13 16 41 30q36 11 76 11q64 -8 81 -63q7 -28 9.5 -52t0.5 -46q-18 -93 -73 -121q-69 -29 -139 -29q-119 8 -150 106q-28 84 -28 157
q13 157 123 258q116 107 296 107q212 0 293 -95q80 -96 44 -153q-20 -29 -40 -55.5t-40 -51.5q23 -14 67.5 -29.5t110.5 -32.5q139 7 139 69q-20 24 -48 27q-14 2 -37.5 3t-56.5 1q23 51 48 95.5t53 82.5q26 35 48.5 66t42.5 59q169 -71 246 -66q-13 -44 -45 -104
q-37 -59 -87 -64q-47 8 -77 25q-35 15 -52 15q-27 0 -39 -4q-23 -11 -48 -36q103 0 164 -37q59 -36 59 -63q0 -35 36 -50q28 -16 69 -16q31 2 54 5.5t39 7.5q22 0 77 28q16 11 35 25.5t41 33.5q20 18 43.5 43.5t51.5 58.5q-14 13 -33 30t-44 40q-54 43 -59 112v1398
q-3 81 -62 102q-59 18 -123 18q-82 -4 -146 -43q-74 -44 -77 -48v555l3 -3q7 4 39 17.5t92 36.5q66 32 130 65t128 68q129 72 248 73l-1 -2l3 2q176 -33 252 -70q42 -18 84 -38t87 -42q80 -43 113 -35h2q24 43 35 115q0 27 -6 65q-8 40 -40 65q-19 8 -42 15.5t-49 15.5
q-20 10 -39.5 22t-37.5 27q-35 27 -35 68zM1328 505q-14 -8 -27 -15.5t-25 -14.5q-28 -15 -28 -47q0 -31 28 -41q24 -14 52 -18v136z" />
    <glyph glyph-name="ldot" unicode="&#x1789;" horiz-adv-x="2181" 
d="M855 1258q45 29 105.5 64t136.5 77l261 -174q44 -35 58 -59l370 230q73 -25 136.5 -58.5t120.5 -75.5q113 -83 113 -127v-972q0 -68 -62 -118q-61 -49 -101 -49q-7 45 -154 157t-147 234q0 61 194 142q194 83 194 194q0 120 -138 263q-149 153 -319 153q-40 0 -68 -1.5
t-45 -3.5q-11 -2 -32.5 -4t-53.5 -6v-946q0 -70 -58 -131t-105 -61l-19 11q-11 27 -206 235q-76 79 -76 152t186 147q187 73 187 190q0 150 -130 250q-113 87 -251 87q-39 0 -94 -39q-32 -26 -76 -73q-71 58 -120 76q-47 18 -116 18q-232 0 -232 -373q0 -297 214 -297
q68 0 100 30q30 30 53 118q-87 0 -131 -47q-6 -6 -14 -22q-174 0 -174 203q0 87 65 134q64 48 138 48q95 0 144 -106q51 -105 51 -231q0 -181 -50 -319q-69 -181 -203 -181q-164 0 -243 235q-66 192 -66 497q0 449 363 670q51 -22 87 -38t58 -27q36 -20 73.5 -39t75.5 -37z
M289 -253q109 109 221 163q111 53 269 76q157 0 391 -109q125 -69 247 -138t246 -141q37 -11 58.5 -17t28.5 -8q73 -18 123 -18q95 0 120 61q7 27 7 55v43q-47 -72 -156 -72q-65 0 -109 56q-43 55 -43 129q0 72 63 110q65 38 147 38q81 0 127 -67q47 -68 62 -168
q0 -145 -100 -248q-101 -104 -234 -104q-174 0 -397 102q-224 100 -429 195q-75 28 -127 46.5t-83 29.5q-111 37 -200 37q-54 0 -111.5 -11t-120.5 -40zM1333 417l4 123q-11 -5 -19.5 -8.5t-13.5 -5.5q-33 -20 -33 -40q0 -25 29 -51q7 -8 33 -18zM2087 412l7 107
q-11 -2 -22.5 -4.5t-22.5 -6.5t-19.5 -11t-11.5 -17q0 -21 47 -53q4 -2 9.5 -6t12.5 -9z" />
    <glyph glyph-name="Nacute" horiz-adv-x="2181" 
d="M855 1258q45 29 105.5 64t136.5 77l261 -174q44 -35 58 -59l370 230q73 -25 136.5 -58.5t120.5 -75.5q113 -83 113 -127v-972q0 -68 -62 -118q-61 -49 -101 -49q-7 45 -154 157t-147 234q0 61 194 142q194 83 194 194q0 120 -138 263q-149 153 -319 153q-40 0 -68 -1.5
t-45 -3.5q-11 -2 -32.5 -4t-53.5 -6v-946q0 -70 -58 -131t-105 -61l-19 11q-11 27 -206 235q-76 79 -76 152t186 147q187 73 187 190q0 150 -130 250q-113 87 -251 87q-39 0 -94 -39q-32 -26 -76 -73q-71 58 -120 76q-47 18 -116 18q-232 0 -232 -373q0 -297 214 -297
q68 0 100 30q30 30 53 118q-87 0 -131 -47q-6 -6 -14 -22q-174 0 -174 203q0 87 65 134q64 48 138 48q95 0 144 -106q51 -105 51 -231q0 -181 -50 -319q-69 -181 -203 -181q-164 0 -243 235q-66 192 -66 497q0 449 363 670q51 -22 87 -38t58 -27q36 -20 73.5 -39t75.5 -37z
M1333 417l4 123q-11 -5 -19.5 -8.5t-13.5 -5.5q-33 -20 -33 -40q0 -25 29 -51q7 -8 33 -18zM2087 412l7 107q-11 -2 -22.5 -4.5t-22.5 -6.5t-19.5 -11t-11.5 -17q0 -21 47 -53q4 -2 9.5 -6t12.5 -9z" />
    <glyph glyph-name="nacute" 
d="M-333 -54q95 0 160 -43q90 -62 101 -178q0 -203 -99 -317q-101 -114 -274 -114l-80 7q-103 13 -199 91q-121 96 -261 311q-80 120 -200 149q51 51 156 51q98 0 181 -47q36 -19 167 -171q109 -127 207 -127q100 0 170 29q112 46 112 160q-68 0 -108 -67q-41 -68 -73 -75
q-181 0 -181 153q0 78 65 134q64 54 156 54z" />
    <glyph glyph-name="Ncaron" 
d="M-466 -790q64 52 160 52q1 1 13 1q79 0 158 -46q89 -48 108 -178q-7 -427 -395 -435q-20 0 -41.5 1.5t-43.5 5.5q-157 28 -277 150q-61 60 -113.5 123t-98.5 132q-84 124 -209 150q55 55 164 55q100 0 195 -48q45 -23 87 -68q44 -47 88 -100q55 -55 103 -87
q45 -39 112 -47q35 0 81.5 7.5t106.5 21.5q109 31 112 160q-46 0 -69 -17q-23 -15 -36 -45q-8 -10 -15.5 -21.5t-15.5 -24.5q-18 -24 -49 -34q-195 7 -198 153q3 87 73 139z" />
    <glyph glyph-name="ncaron" 
d="M-1370 -39q124 0 174 -29q17 -10 84 -80q65 70 87 80q60 29 199 29q113 0 181 -37q35 -17 73 -39q18 37 58 50q70 26 199 26q149 0 196 -44q72 -65 72 -290q0 -129 -29 -185q-47 -87 -184 -87q-80 0 -140 67t-60 118q0 24 9.5 45t28.5 36.5t45.5 25t61.5 9.5
q43 0 102 -30q58 -31 76 -31l14 61q-69 74 -127 93q-60 20 -155 20q-87 0 -136 -31t-49 -133l7 -123q0 -33 -4.5 -56.5t-17 -39.5t-34.5 -23.5t-56 -7.5q-58 0 -125 60q-68 60 -68 125q0 62 95 82q48 10 88 18.5t75 15.5q-68 68 -120 91q-50 22 -138 22q-104 0 -172 -56
q-68 -57 -81 -57q-30 29 -58 55q-65 58 -171 58q-35 0 -62 -9t-46.5 -29.5t-29.5 -54.5t-10 -85l7 -76q43 72 54 90q37 51 116 51q66 0 104 -34.5t38 -106.5q0 -45 -12 -76t-37 -49.5t-62.5 -26.5t-88.5 -8q-153 0 -202 84q-51 82 -51 246q0 175 94 236q61 40 188 40z
M-1033 -663q140 0 287 -65q390 -175 457 -185q-15 43 -33 69q-29 44 -29 58l7 43q29 45 65.5 68t65.5 23q55 0 101 -58q6 -6 22 -33q0 -148 -105 -221q-91 -61 -236 -61q-134 0 -395 129q-262 128 -399 128h-101q-80 0 -134.5 -5.5t-104.5 -23.5q117 84 239 109
q121 25 293 25z" />
    <glyph glyph-name="Odblacute" 
d="M-1425 -711q111 0 162 -20q25 -7 46 -23q8 -8 17.5 -16.5t20.5 -17.5q42 37 94 60q49 17 206 17q38 0 69 -1.5t54 -5.5q22 -5 40.5 -11t32.5 -14q58 -35 73 -38q11 8 25.5 18.5t33.5 24.5q19 12 73 20q23 4 58.5 5.5t84.5 1.5q126 0 203 -57t77 -183q1 -1 1 -10
q0 -65 -33 -117q-41 -66 -195 -70q-94 4 -137 52q-48 51 -48 83q0 35 28 57q29 26 104 26q66 0 105 -21q43 -20 80 -23q4 9 7 20t7 24q-73 52 -139 72q-29 6 -68.5 8.5t-88.5 1.5q-119 0 -157 -35q-35 -35 -35 -86q3 -44 3 -86q4 -36 -18 -61q-25 -25 -99 -32q-61 4 -127 45
q-73 44 -77 90q4 21 25 39q22 10 63 18q40 7 85.5 13t96.5 13q-107 82 -270 77q-141 -3 -184 -37q-23 -14 -35 -26q-23 -14 -48 -14q-21 4 -66 37q-22 15 -65 27q-23 4 -51.5 6t-62.5 2q-94 0 -128 -37q-32 -38 -32 -84q3 -45 7 -52q48 62 80 83q28 18 105 18q103 0 132 -39
q22 -34 18 -62q-11 -68 -57 -90q-56 -27 -153 -27q-150 12 -195 83q-43 67 -43 157q11 88 102 143q87 54 193 54zM-872 -1170q93 0 168 -21q35 -12 69.5 -25.5t68.5 -29.5t69.5 -31t72.5 -29q73 -32 162 -45q-51 76 -54 95q0 3 1.5 10t3.5 18q60 68 108 65q51 0 79 -28
q26 -26 26 -37q0 -113 -86 -157q-84 -48 -195 -48q-42 2 -81 10t-78 22q-73 25 -160 63q-42 19 -81.5 35t-81.5 30q-80 27 -170 27h-82q-112 3 -200 -22q109 67 214 85q54 8 110 11t117 2z" />
    <glyph glyph-name="odblacute" horiz-adv-x="2886" 
d="M2507 1396q73 -25 136.5 -58.5t120.5 -75.5q113 -83 113 -127v-972q0 -68 -62 -118q-61 -49 -101 -49q-7 45 -154 157t-147 234q0 61 194 142q194 83 194 194q0 120 -138 263q-149 153 -319 153q-40 0 -68 -1.5t-45 -3.5q-17 -3 -74 -9v-962q0 -68 -62 -118
q-61 -49 -101 -49q-7 45 -154 157t-147 234q0 61 194 142q194 83 194 194q0 120 -138 263q-149 153 -319 153q-40 0 -68 -1.5t-45 -3.5q-11 -2 -32.5 -4t-53.5 -6v-946q0 -70 -58 -131t-105 -61l-19 11q-11 27 -206 235q-76 79 -76 152t186 147q187 73 187 190
q0 150 -130 250q-113 87 -251 87q-39 0 -94 -39q-32 -26 -76 -73q-71 58 -120 76q-47 18 -116 18q-232 0 -232 -373q0 -297 214 -297q68 0 100 30q30 30 53 118q-87 0 -131 -47q-6 -6 -14 -22q-174 0 -174 203q0 87 65 134q64 48 138 48q95 0 144 -106q51 -105 51 -231
q0 -181 -50 -319q-69 -181 -203 -181q-164 0 -243 235q-66 192 -66 497q0 449 363 670q51 -22 87 -38t58 -27q36 -20 73.5 -39t75.5 -37q45 29 105.5 64t136.5 77l261 -174q44 -35 58 -59l370 230q73 -25 136.5 -58.5t120.5 -75.5q73 -54 99 -92zM290 -253q109 109 221 163
q111 53 269 76q157 0 391 -109q125 -69 247 -138t246 -141q37 -11 58.5 -17t28.5 -8q73 -18 123 -18q95 0 120 61q7 27 7 55v43q-47 -72 -156 -72q-65 0 -109 56q-43 55 -43 129q0 72 63 110q65 38 147 38q81 0 127 -67q47 -68 62 -168q0 -145 -100 -248
q-101 -104 -234 -104q-174 0 -397 102q-224 100 -429 195q-75 28 -127 46.5t-83 29.5q-111 37 -200 37q-54 0 -111.5 -11t-120.5 -40zM1334 417l4 123q-11 -5 -19.5 -8.5t-13.5 -5.5q-33 -20 -33 -40q0 -25 29 -51q7 -8 33 -18zM2088 412l7 107q-11 -2 -22.5 -4.5
t-22.5 -6.5t-19.5 -11t-11.5 -17q0 -21 47 -53q4 -2 9.5 -6t12.5 -9zM2808 412l7 107q-11 -2 -22.5 -4.5t-22.5 -6.5t-19.5 -11t-11.5 -17q0 -21 47 -53q4 -2 9.5 -6t12.5 -9z" />
    <glyph glyph-name="Racute" horiz-adv-x="2886" 
d="M2507 1396q73 -25 136.5 -58.5t120.5 -75.5q113 -83 113 -127v-972q0 -68 -62 -118q-61 -49 -101 -49q-7 45 -154 157t-147 234q0 61 194 142q194 83 194 194q0 120 -138 263q-149 153 -319 153q-40 0 -68 -1.5t-45 -3.5q-17 -3 -74 -9v-962q0 -68 -62 -118
q-61 -49 -101 -49q-7 45 -154 157t-147 234q0 61 194 142q194 83 194 194q0 120 -138 263q-149 153 -319 153q-40 0 -68 -1.5t-45 -3.5q-11 -2 -32.5 -4t-53.5 -6v-946q0 -70 -58 -131t-105 -61l-19 11q-11 27 -206 235q-76 79 -76 152t186 147q187 73 187 190
q0 150 -130 250q-113 87 -251 87q-39 0 -94 -39q-32 -26 -76 -73q-71 58 -120 76q-47 18 -116 18q-232 0 -232 -373q0 -297 214 -297q68 0 100 30q30 30 53 118q-87 0 -131 -47q-6 -6 -14 -22q-174 0 -174 203q0 87 65 134q64 48 138 48q95 0 144 -106q51 -105 51 -231
q0 -181 -50 -319q-69 -181 -203 -181q-164 0 -243 235q-66 192 -66 497q0 449 363 670q51 -22 87 -38t58 -27q36 -20 73.5 -39t75.5 -37q45 29 105.5 64t136.5 77l261 -174q44 -35 58 -59l370 230q73 -25 136.5 -58.5t120.5 -75.5q73 -54 99 -92zM1334 417l4 123
q-11 -5 -19.5 -8.5t-13.5 -5.5q-33 -20 -33 -40q0 -25 29 -51q7 -8 33 -18zM2088 412l7 107q-11 -2 -22.5 -4.5t-22.5 -6.5t-19.5 -11t-11.5 -17q0 -21 47 -53q4 -2 9.5 -6t12.5 -9zM2808 412l7 107q-11 -2 -22.5 -4.5t-22.5 -6.5t-19.5 -11t-11.5 -17q0 -21 47 -53
q4 -2 9.5 -6t12.5 -9z" />
    <glyph glyph-name="racute" horiz-adv-x="2886" 
d="M2507 1396q73 -25 136.5 -58.5t120.5 -75.5q8 -5 15 -11t14 -11q30 97 30 133l-7 62q-8 37 -118 83q-111 46 -111 120q0 26 19 79q36 87 130 87q48 0 91 -18t79 -51q77 -72 77 -203q0 -108 -53 -197q-48 -80 -93 -134q40 -40 40 -66v-972q0 -68 -62 -118
q-61 -49 -101 -49q-7 45 -154 157t-147 234q0 61 194 142q194 83 194 194q0 120 -138 263q-149 153 -319 153q-40 0 -68 -1.5t-45 -3.5q-17 -3 -74 -9v-962q0 -68 -62 -118q-61 -49 -101 -49q-7 45 -154 157t-147 234q0 61 194 142q194 83 194 194q0 120 -138 263
q-149 153 -319 153q-40 0 -68 -1.5t-45 -3.5q-11 -2 -32.5 -4t-53.5 -6v-946q0 -70 -58 -131t-105 -61l-19 11q-11 27 -206 235q-76 79 -76 152t186 147q187 73 187 190q0 150 -130 250q-113 87 -251 87q-39 0 -94 -39q-32 -26 -76 -73q-71 58 -120 76q-47 18 -116 18
q-232 0 -232 -373q0 -297 214 -297q68 0 100 30q30 30 53 118q-87 0 -131 -47q-6 -6 -14 -22q-174 0 -174 203q0 87 65 134q64 48 138 48q95 0 144 -106q51 -105 51 -231q0 -181 -50 -319q-69 -181 -203 -181q-164 0 -243 235q-66 192 -66 497q0 449 363 670q51 -22 87 -38
t58 -27q36 -20 73.5 -39t75.5 -37q45 29 105.5 64t136.5 77l261 -174q44 -35 58 -59l370 230q73 -25 136.5 -58.5t120.5 -75.5q73 -54 99 -92zM290 -253q109 109 221 163q111 53 269 76q157 0 391 -109q125 -69 247 -138t246 -141q37 -11 58.5 -17t28.5 -8q73 -18 123 -18
q95 0 120 61q7 27 7 55v43q-47 -72 -156 -72q-65 0 -109 56q-43 55 -43 129q0 72 63 110q65 38 147 38q81 0 127 -67q47 -68 62 -168q0 -145 -100 -248q-101 -104 -234 -104q-174 0 -397 102q-224 100 -429 195q-75 28 -127 46.5t-83 29.5q-111 37 -200 37q-54 0 -111.5 -11
t-120.5 -40zM1334 417l4 123q-11 -5 -19.5 -8.5t-13.5 -5.5q-33 -20 -33 -40q0 -25 29 -51q7 -8 33 -18zM2088 412l7 107q-11 -2 -22.5 -4.5t-22.5 -6.5t-19.5 -11t-11.5 -17q0 -21 47 -53q4 -2 9.5 -6t12.5 -9zM2808 412l7 107q-11 -2 -22.5 -4.5t-22.5 -6.5t-19.5 -11
t-11.5 -17q0 -21 47 -53q4 -2 9.5 -6t12.5 -9z" />
    <glyph glyph-name="Rcaron" horiz-adv-x="2886" 
d="M2507 1396q73 -25 136.5 -58.5t120.5 -75.5q8 -5 15 -11t14 -11q30 97 30 133l-7 62q-8 37 -118 83q-111 46 -111 120q0 26 19 79q36 87 130 87q48 0 91 -18t79 -51q77 -72 77 -203q0 -108 -53 -197q-48 -80 -93 -134q40 -40 40 -66v-972q0 -68 -62 -118
q-61 -49 -101 -49q-7 45 -154 157t-147 234q0 61 194 142q194 83 194 194q0 120 -138 263q-149 153 -319 153q-40 0 -68 -1.5t-45 -3.5q-17 -3 -74 -9v-962q0 -68 -62 -118q-61 -49 -101 -49q-7 45 -154 157t-147 234q0 61 194 142q194 83 194 194q0 120 -138 263
q-149 153 -319 153q-40 0 -68 -1.5t-45 -3.5q-11 -2 -32.5 -4t-53.5 -6v-946q0 -70 -58 -131t-105 -61l-19 11q-11 27 -206 235q-76 79 -76 152t186 147q187 73 187 190q0 150 -130 250q-113 87 -251 87q-39 0 -94 -39q-32 -26 -76 -73q-71 58 -120 76q-47 18 -116 18
q-232 0 -232 -373q0 -297 214 -297q68 0 100 30q30 30 53 118q-87 0 -131 -47q-6 -6 -14 -22q-174 0 -174 203q0 87 65 134q64 48 138 48q95 0 144 -106q51 -105 51 -231q0 -181 -50 -319q-69 -181 -203 -181q-164 0 -243 235q-66 192 -66 497q0 449 363 670q51 -22 87 -38
t58 -27q36 -20 73.5 -39t75.5 -37q45 29 105.5 64t136.5 77l261 -174q44 -35 58 -59l370 230q73 -25 136.5 -58.5t120.5 -75.5q73 -54 99 -92zM1334 417l4 123q-11 -5 -19.5 -8.5t-13.5 -5.5q-33 -20 -33 -40q0 -25 29 -51q7 -8 33 -18zM2088 412l7 107q-11 -2 -22.5 -4.5
t-22.5 -6.5t-19.5 -11t-11.5 -17q0 -21 47 -53q4 -2 9.5 -6t12.5 -9zM2808 412l7 107q-11 -2 -22.5 -4.5t-22.5 -6.5t-19.5 -11t-11.5 -17q0 -21 47 -53q4 -2 9.5 -6t12.5 -9z" />
    <glyph glyph-name="rcaron" unicode="&#x178a;" horiz-adv-x="1346" 
d="M1143 1686q107 -10 156 -91q36 -62 36 -167q0 -196 -174 -344q-152 -131 -290 -131q-63 0 -265 109q-101 54 -152 54q-81 0 -106 -15q-24 -13 -93 -115q34 11 58.5 17t38.5 8t37 3t54 1q127 0 199 -91q73 -89 73 -206q0 -102 -87 -196q-51 -46 -82.5 -74.5t-44.5 -41.5
q18 -26 33 -36q49 -40 119 -40q45 0 91 43q20 22 40 43.5t40 43.5q16 -16 33 -32t36 -33q61 -51 134 -51q119 0 206 124q14 20 39.5 61t62.5 105v-214q0 -152 -84 -279q-95 -141 -224 -141q-69 0 -145 58q-38 36 -62.5 58.5t-35.5 32.5q-35 -29 -69 -57t-69 -56
q-54 -39 -138 -39q-94 0 -181 104q-43 50 -130 196v174q138 15 211 42q75 27 166 100q-116 87 -207 87q-79 0 -170 -62v500q59 103 163 152q64 28 127 56t126 57q63 -35 126.5 -68.5t129.5 -67.5q131 -67 205 -67q61 0 94 47q18 28 18 51q0 64 -102 114q-99 49 -195 49
q-33 0 -33 43q0 62 62 113q82 69 225 69z" />
    <glyph glyph-name="Sacute" 
d="M-572 -7q131 -22 260 -44.5t258 -45.5v-279q0 -150 -25 -193q-41 -65 -174 -65q-85 0 -143 64q-60 63 -60 110q0 41 40 84t101 43q11 0 98 -33q51 -18 65 -18q37 7 37 62q-107 0 -222 18q-75 14 -126 24.5t-80 15.5t-64.5 11t-78.5 11t-72.5 8t-45.5 3q-91 0 -145 -27
q-55 -28 -94 -100l-8 -22q0 -25 33 -25l40 10q36 41 54 82q18 42 36 42t119 -33q99 -33 99 -181q0 -87 -63 -121q-65 -35 -151 -35q-156 0 -210 101q-36 66 -36 196q0 196 170 283q115 58 304 58z" />
    <glyph glyph-name="sacute" 
d="M-696 -783q28 0 49.5 -1t37.5 -3q323 -40 548 -149v-223q1 -1 1 -11v-12q0 -98 -26 -167q-37 -66 -182 -69q-100 3 -154 73q-62 62 -62 102q0 43 39 84q41 44 111 44q17 0 80 -23q26 -13 49 -20t42 -9q39 7 39 40q0 10 -7 23q-112 4 -227 19t-244 43q-73 14 -135 21.5
t-116 7.5q-172 3 -256 -129q-8 -14 -8 -21q3 -25 37 -25q13 0 43 11q82 123 96 123q22 0 130 -32q97 -31 100 -182q-8 -94 -76 -125q-78 -32 -150 -32q-176 3 -220 101q-41 96 -41 185v12q8 117 59 183q52 70 129 102q157 60 301 60q12 0 13 -1z" />
    <glyph glyph-name="Tcedilla" horiz-adv-x="2012" 
d="M1974 1199q25 -25 25 -41v-990q-3 -77 -69 -123q-61 -45 -98 -48q-7 52 -56 87q-25 20 -52.5 39t-59.5 38q-28 22 -53.5 45.5t-49.5 48.5q-50 56 -50 136q0 55 66 87q29 17 62.5 33t70.5 30q82 28 140 76q58 45 58 118q0 76 -48 150q-46 64 -119 119q-130 91 -221 111
q-44 11 -82.5 15.5t-89.5 4.5q-12 -1 -24.5 -1t-25.5 -1q-23 -2 -114 -27l-11 -11t-13 -11q-152 -131 -290 -131q-63 0 -265 109q-101 54 -152 54q-81 0 -106 -15q-24 -13 -93 -115q34 11 58.5 17t38.5 8t37 3t54 1q127 0 199 -91q73 -89 73 -206q0 -102 -87 -196
q-51 -46 -82.5 -74.5t-44.5 -41.5q18 -26 33 -36q49 -40 119 -40q45 0 91 43q20 22 40 43.5t40 43.5q16 -16 33 -32t36 -33q61 -51 134 -51q119 0 206 124q14 20 39.5 61t62.5 105v-214q0 -152 -84 -279q-95 -141 -224 -141q-69 0 -145 58q-38 36 -62.5 58.5t-35.5 32.5
q-35 -29 -69 -57t-69 -56q-54 -39 -138 -39q-94 0 -181 104q-43 50 -130 196v174q138 15 211 42q75 27 166 100q-116 87 -207 87q-79 0 -170 -62v500q59 103 163 152q64 28 127 56t126 57q63 -35 126.5 -68.5t129.5 -67.5q131 -67 205 -67q61 0 94 47q18 28 18 51
q0 64 -102 114q-99 49 -195 49q-33 0 -33 43q0 62 62 113q82 69 225 69q107 -10 156 -91q36 -62 36 -167q0 -90 -36 -169q11 5 23 11t26 11q45 20 105.5 54t141.5 83q33 -19 66 -37.5t65 -37.5q64 -36 249 -144zM1918 505q-14 -8 -27 -15.5t-25 -14.5q-28 -15 -28 -47
q0 -31 28 -41q24 -14 52 -18v136z" />
    <glyph glyph-name="tcedilla" horiz-adv-x="2012" 
d="M1671 1623q0 37 18 90q40 96 134 96q97 -4 172 -76q77 -92 77 -225q0 -121 -52 -231q-13 -26 -24.5 -45.5t-21.5 -32.5q25 -25 25 -41v-990q-3 -77 -69 -123q-61 -45 -98 -48q-7 52 -56 87q-25 20 -52.5 39t-59.5 38q-28 22 -53.5 45.5t-49.5 48.5q-50 56 -50 136
q0 55 66 87q29 17 62.5 33t70.5 30q82 28 140 76q58 45 58 118q0 76 -48 150q-46 64 -119 119q-130 91 -221 111q-44 11 -82.5 15.5t-89.5 4.5q-12 -1 -24.5 -1t-25.5 -1q-23 -2 -114 -27l-11 -11t-13 -11q-152 -131 -290 -131q-63 0 -265 109q-101 54 -152 54
q-81 0 -106 -15q-24 -13 -93 -115q34 11 58.5 17t38.5 8t37 3t54 1q127 0 199 -91q73 -89 73 -206q0 -102 -87 -196q-51 -46 -82.5 -74.5t-44.5 -41.5q18 -26 33 -36q49 -40 119 -40q45 0 91 43q20 22 40 43.5t40 43.5q16 -16 33 -32t36 -33q61 -51 134 -51q119 0 206 124
q14 20 39.5 61t62.5 105v-214q0 -152 -84 -279q-95 -141 -224 -141q-69 0 -145 58q-38 36 -62.5 58.5t-35.5 32.5q-35 -29 -69 -57t-69 -56q-54 -39 -138 -39q-94 0 -181 104q-43 50 -130 196v174q138 15 211 42q75 27 166 100q-116 87 -207 87q-79 0 -170 -62v500
q59 103 163 152q64 28 127 56t126 57q63 -35 126.5 -68.5t129.5 -67.5q131 -67 205 -67q61 0 94 47q18 28 18 51q0 64 -102 114q-99 49 -195 49q-33 0 -33 43q0 62 62 113q82 69 225 69q107 -10 156 -91q36 -62 36 -167q0 -90 -36 -169q11 5 23 11t26 11q45 20 105.5 54
t141.5 83q66 -38 131 -74.5t132 -71.5q10 -5 19.5 -11t18.5 -11q8 20 14.5 43.5t10.5 51.5q0 27 -6 65q-7 39 -40 65q-19 8 -42 15.5t-49 15.5q-20 10 -39.5 22t-37.5 27q-35 27 -35 68zM1918 505q-14 -8 -27 -15.5t-25 -14.5q-28 -15 -28 -47q0 -31 28 -41q24 -14 52 -18
v136z" />
    <glyph glyph-name="Tcaron" unicode="&#x178b;" horiz-adv-x="1425" 
d="M833 297q180 0 282 44q135 59 156 188q0 69 -85 121q-86 53 -168 53q-33 0 -84 -11t-105 -29v479q4 4 39 40.5t102 107.5q33 35 61.5 62t51.5 47q31 -14 55 -26t43 -21q78 -37 141 -47q7 13 7 43q0 58 -36 111t-94 56q-84 0 -118 -9q-35 -9 -63 -52q-38 21 -51 39
q-55 65 -55 182q0 36 12.5 67t38.5 54t64.5 36t91.5 13q138 0 218 -101q94 -119 94 -316q0 -160 -51 -257q-65 -123 -196 -123q-22 11 -46 20.5t-52 18.5q-53 19 -94 19q-58 0 -80 -58q-8 -15 -18 -73q22 13 58 23.5t87 20.5q17 0 44 7q182 0 264 -127q66 -98 66 -276
l-8 -123q-21 -192 -199 -348q-179 -155 -399 -155q-235 0 -395 112q-199 136 -199 402q190 23 308 98q149 95 149 246q0 94 -77 191q-77 96 -181 96q-60 0 -116 -38q-54 -37 -69 -82q7 -22 33 -22q29 0 76 26q8 4 19 10t25 15q51 0 86 -14.5t56.5 -41.5t31.5 -66t10 -88
q0 -92 -54 -138q-55 -47 -130 -47q-127 0 -178 134q-33 87 -33 236q0 170 80 271q79 102 221 102q185 0 254 -163q47 -111 47 -315q0 -233 -33 -294q-4 -7 -46 -51.5t-124 -126.5q48 -72 116 -112t149 -40z" />
    <glyph glyph-name="tcaron" 
d="M-862 -659q-131 0 -200 134q-39 79 -39 145q0 65 45 176q45 110 85 110q57 0 94 -14q84 -33 403 -33h377q18 4 35.5 11t34.5 18q34 22 52 22q17 0 55 -18q0 -109 -40 -142l-54 -14t-54 -15q-19 -69 -37.5 -138t-38.5 -141q-59 -101 -178 -101q-94 0 -150 29
q-29 14 -62.5 42t-73.5 70q-46 -48 -79 -77t-55 -40q-44 -24 -120 -24zM-866 -442q120 0 167 51q33 33 54 123h-188q-41 0 -51 -30q-11 -33 -11 -57q0 -72 29 -87zM-445 -268q0 -49 56 -110q55 -60 103 -60q31 10 64 58q30 46 30 112h-253z" />
    <glyph glyph-name="Uring" 
d="M-775 -1364q-47 -26 -123 -30h-3q-79 0 -132 41q-48 37 -81 87q-25 58 -37 92.5t-13 47.5q0 73 40 177q11 26 21 48t20 39q19 30 43 32q-17 -15 526 -20l399 20q48 16 75 38q24 19 48 21q1 1 3 1q26 0 57 -16q1 -1 1 -15v-14q0 -57 -13 -82q-19 -37 -50 -46
q-69 -12 -85 -24q-10 -21 -10 -92q-4 -32 -12 -64.5t-19 -65.5q-18 -65 -63 -116q-52 -52 -142 -59q-104 -5 -164 29q-70 28 -146 98q-48 -51 -82.5 -82t-57.5 -45zM-946 -1089q7 -69 33 -86q137 10 178 65q38 53 46 122l-201 -11q-33 -2 -45 -27q-13 -21 -11 -63z
M-477 -977q14 -55 68 -106q50 -56 108 -56q29 12 63 58q31 35 26 118z" />
    <glyph glyph-name="uring" horiz-adv-x="2115" 
d="M2074 1199q25 -25 25 -41v-990q-3 -77 -69 -123q-61 -45 -98 -48q-7 52 -56 87q-25 20 -52.5 39t-59.5 38q-28 22 -53.5 45.5t-49.5 48.5q-50 56 -50 136q0 55 66 87q29 17 62.5 33t70.5 30q82 28 140 76q58 45 58 118q0 76 -48 150q-46 64 -119 119q-130 91 -221 111
q-44 11 -82.5 15.5t-89.5 4.5q-12 -1 -24.5 -1t-25.5 -1q-7 -1 -19 -3t-30 -7q-63 -75 -165 -75q-22 11 -46 20.5t-52 18.5q-53 19 -94 19q-58 0 -80 -58q-8 -15 -18 -73q22 13 58 23.5t87 20.5q17 0 44 7q182 0 264 -127q66 -98 66 -276l-8 -123q-21 -192 -199 -348
q-179 -155 -399 -155q-235 0 -395 112q-199 136 -199 402q190 23 308 98q149 95 149 246q0 94 -77 191q-77 96 -181 96q-60 0 -116 -38q-54 -37 -69 -82q7 -22 33 -22q29 0 76 26q8 4 19 10t25 15q51 0 86 -14.5t56.5 -41.5t31.5 -66t10 -88q0 -92 -54 -138
q-55 -47 -130 -47q-127 0 -178 134q-33 87 -33 236q0 170 80 271q79 102 221 102q185 0 254 -163q47 -111 47 -315q0 -233 -33 -294q-4 -7 -46 -51.5t-124 -126.5q48 -72 116 -112t149 -40q180 0 282 44q135 59 156 188q0 69 -85 121q-86 53 -168 53q-33 0 -84 -11t-105 -29
v479q4 4 39 40.5t102 107.5q33 35 61.5 62t51.5 47q31 -14 55 -26t43 -21q78 -37 141 -47q7 13 7 43q0 58 -36 111t-94 56q-84 0 -118 -9q-35 -9 -63 -52q-38 21 -51 39q-55 65 -55 182q0 36 12.5 67t38.5 54t64.5 36t91.5 13q138 0 218 -101q94 -119 94 -316
q0 -89 -17 -162l33 15q45 20 105.5 54t141.5 83q33 -19 66 -37.5t65 -37.5q64 -36 249 -144zM2018 505q-14 -8 -27 -15.5t-25 -14.5q-28 -15 -28 -47q0 -31 28 -41q24 -14 52 -18v136z" />
    <glyph glyph-name="Udblacute" horiz-adv-x="2115" 
d="M1771 1623q0 37 18 90q40 96 134 96q97 -4 172 -76q77 -92 77 -225q0 -121 -52 -231q-13 -26 -24.5 -45.5t-21.5 -32.5q25 -25 25 -41v-990q-3 -77 -69 -123q-61 -45 -98 -48q-7 52 -56 87q-25 20 -52.5 39t-59.5 38q-28 22 -53.5 45.5t-49.5 48.5q-50 56 -50 136
q0 55 66 87q29 17 62.5 33t70.5 30q82 28 140 76q58 45 58 118q0 76 -48 150q-46 64 -119 119q-130 91 -221 111q-44 11 -82.5 15.5t-89.5 4.5q-12 -1 -24.5 -1t-25.5 -1q-7 -1 -19 -3t-30 -7q-63 -75 -165 -75q-22 11 -46 20.5t-52 18.5q-53 19 -94 19q-58 0 -80 -58
q-8 -15 -18 -73q22 13 58 23.5t87 20.5q17 0 44 7q182 0 264 -127q66 -98 66 -276l-8 -123q-21 -192 -199 -348q-179 -155 -399 -155q-235 0 -395 112q-199 136 -199 402q190 23 308 98q149 95 149 246q0 94 -77 191q-77 96 -181 96q-60 0 -116 -38q-54 -37 -69 -82
q7 -22 33 -22q29 0 76 26q8 4 19 10t25 15q51 0 86 -14.5t56.5 -41.5t31.5 -66t10 -88q0 -92 -54 -138q-55 -47 -130 -47q-127 0 -178 134q-33 87 -33 236q0 170 80 271q79 102 221 102q185 0 254 -163q47 -111 47 -315q0 -233 -33 -294q-4 -7 -46 -51.5t-124 -126.5
q48 -72 116 -112t149 -40q180 0 282 44q135 59 156 188q0 69 -85 121q-86 53 -168 53q-33 0 -84 -11t-105 -29v479q4 4 39 40.5t102 107.5q33 35 61.5 62t51.5 47q31 -14 55 -26t43 -21q78 -37 141 -47q7 13 7 43q0 58 -36 111t-94 56q-84 0 -118 -9q-35 -9 -63 -52
q-38 21 -51 39q-55 65 -55 182q0 36 12.5 67t38.5 54t64.5 36t91.5 13q138 0 218 -101q94 -119 94 -316q0 -89 -17 -162l33 15q45 20 105.5 54t141.5 83q66 -38 131 -74.5t132 -71.5q10 -5 19.5 -11t18.5 -11q8 20 14.5 43.5t10.5 51.5q0 27 -6 65q-7 39 -40 65
q-19 8 -42 15.5t-49 15.5q-20 10 -39.5 22t-37.5 27q-35 27 -35 68zM2018 505q-14 -8 -27 -15.5t-25 -14.5q-28 -15 -28 -47q0 -31 28 -41q24 -14 52 -18v136z" />
    <glyph glyph-name="udblacute" unicode="&#x178c;" horiz-adv-x="1335" 
d="M835 1283q21 0 77 31t147 85q48 -32 82 -56t56 -38q55 -37 86.5 -58.5t40.5 -28.5v-508q-106 -65 -323 -137q-75 -26 -190 -59t-274 -75q59 -116 132 -155q76 -38 209 -38q66 0 127 73q4 5 9 14t13 22v87q0 66 43 94q28 11 43 17.5t19 8.5q33 18 78 36t71 18q33 0 43 -25
v-323v-68.5t-2 -64t-6.5 -57t-13.5 -45.5q-43 -87 -90 -121.5t-98 -34.5q-44 0 -91 29q-15 8 -40 29q44 59 44 239q-46 -93 -136 -134q-87 -40 -198 -40q-122 0 -243 62q-156 80 -253 246v243q170 22 297.5 47t216.5 54q122 41 294 142q47 47 47 123t-49 143q-50 68 -118 78
q-50 0 -119 -69q-36 -36 -62 -36q-14 0 -156 69q-72 36 -105 36q-27 0 -49 -9.5t-37.5 -26.5t-24 -39.5t-8.5 -47.5q0 -54 36 -102q72 0 90 58q19 58 66 58q177 0 177 -195q-10 -65 -74 -115q-63 -48 -154 -48q-161 0 -225 123q-43 82 -43 217q0 120 174 254q64 46 110 79
t75 55q75 -35 119 -55t58 -25q87 -36 102 -36z" />
    <glyph glyph-name="Zacute" 
d="M-525 -18q21 0 112 -47q8 -4 19.5 -10t27.5 -15q37 18 69 33q76 36 120 36q32 -10 58 -36q7 -8 19.5 -22t31.5 -36v-232q-52 -34 -243 -77q-72 -16 -117.5 -27t-67.5 -16q25 -45 67 -64t85 -19q26 0 47.5 9t39.5 20v47q0 24 47 47q8 2 19.5 5.5t27.5 8.5l73 22l22 -11
v-181q0 -87 -15 -87h-170v83q-35 -39 -128 -59q-95 -20 -151 -20q-57 0 -118 29q-60 28 -107 112v105q179 22 296 45.5t175 63.5q26 26 26 61q0 73 -62 84q-23 0 -69 -43q-47 -44 -65 -44q-5 0 -87 61q-44 33 -55 33q-28 0 -59 -23q-31 -24 -31 -53q3 -27 7 -33q0 66 69 66
q20 0 35 -7.5t25 -20t15 -28t5 -31.5q0 -15 -7.5 -29t-21 -25.5t-32.5 -18.5t-41 -7q-58 0 -90.5 36t-32.5 120q0 42 24 92q22 48 69 71q45 22 75.5 27t63.5 5z" />
    <glyph glyph-name="zacute" 
d="M-554 -777q26 0 94 -38q32 -16 50 -24.5t23 -10.5q7 2 26 10.5t51 24.5q58 34 125 34q37 -11 64 -37q14 -13 26 -27.5t22 -31.5v-234q-30 -17 -73.5 -32.5t-100.5 -28.5q-58 -17 -118 -33t-123 -33q32 -48 60 -58q33 -11 59 -11q91 11 98 21v48q0 18 20 29q9 5 17 9.5
t15 8.5q35 16 48 16q19 5 37.5 10.5t35.5 10.5q22 0 25 -10v-143q1 -3 1 -9v-29q0 -78 -15 -91h-178v84q-52 -43 -147 -59q-96 -21 -149 -21q-54 0 -140 59q-83 56 -98 171v18q88 11 163 23t141 25q126 21 192 63q25 28 25 62q0 66 -60 84q-34 0 -74 -45q-42 -39 -69 -43
q-7 2 -24.5 14.5t-45.5 35.5q-51 45 -84 45q-30 0 -58 -18q-34 -23 -38 -59q0 -15 13 -34q0 66 73 66q43 0 64 -28q23 -29 20 -59q0 -29 -31 -50q-32 -30 -80 -30q-84 3 -105 59q-22 50 -22 98q2 22 8.5 44.5t16.5 46.5q23 48 66 73q114 35 148 35q5 0 6 -1z" />
    <glyph glyph-name="Zdot" horiz-adv-x="2113" 
d="M2077 1189q25 -25 25 -41v-990q-3 -77 -69 -123q-61 -45 -98 -48q-7 52 -56 87q-25 20 -52.5 39t-59.5 38q-28 22 -53.5 45.5t-49.5 48.5q-50 56 -50 136q0 55 66 87q29 17 62.5 33t70.5 30q82 28 140 76q58 45 58 118q0 76 -48 150q-46 64 -119 119q-130 91 -221 111
q-44 11 -82.5 15.5t-89.5 4.5q-12 -1 -24.5 -1t-25.5 -1q-9 -1 -28.5 -5t-48.5 -12v-396q-106 -65 -323 -137q-75 -26 -190 -59t-274 -75q59 -116 132 -155q76 -38 209 -38q66 0 127 73q4 5 9 14t13 22v87q0 66 43 94q28 11 43 17.5t19 8.5q33 18 78 36t71 18q33 0 43 -25
v-323v-68.5t-2 -64t-6.5 -57t-13.5 -45.5q-43 -87 -90 -121.5t-98 -34.5q-44 0 -91 29q-15 8 -40 29q44 59 44 239q-46 -93 -136 -134q-87 -40 -198 -40q-122 0 -243 62q-156 80 -253 246v243q170 22 297.5 47t216.5 54q122 41 294 142q47 47 47 123t-49 143q-50 68 -118 78
q-50 0 -119 -69q-36 -36 -62 -36q-14 0 -156 69q-72 36 -105 36q-27 0 -49 -9.5t-37.5 -26.5t-24 -39.5t-8.5 -47.5q0 -54 36 -102q72 0 90 58q19 58 66 58q177 0 177 -195q-10 -65 -74 -115q-63 -48 -154 -48q-161 0 -225 123q-43 82 -43 217q0 120 174 254q64 46 110 79
t75 55q75 -35 119 -55t58 -25q87 -36 102 -36q21 0 77 31t147 85q48 -32 82 -56t56 -38q55 -37 86.5 -58.5t40.5 -28.5v-11q14 8 25 14.5t21 11.5q17 10 37 19t43 19q45 20 105.5 54t141.5 83q33 -19 66 -37.5t65 -37.5q64 -36 249 -144zM2021 495q-14 -8 -27 -15.5
t-25 -14.5q-28 -15 -28 -47q0 -31 28 -41q24 -14 52 -18v136z" />
    <glyph glyph-name="zdot" horiz-adv-x="2113" 
d="M1774 1623q0 37 18 90q40 96 134 96q97 -4 172 -76q77 -92 77 -225q0 -121 -52 -231q-13 -26 -24.5 -45.5t-21.5 -32.5q25 -25 25 -41v-990q-3 -77 -69 -123q-61 -45 -98 -48q-7 52 -56 87q-25 20 -52.5 39t-59.5 38q-28 22 -53.5 45.5t-49.5 48.5q-50 56 -50 136
q0 55 66 87q29 17 62.5 33t70.5 30q82 28 140 76q58 45 58 118q0 76 -48 150q-46 64 -119 119q-130 91 -221 111q-44 11 -82.5 15.5t-89.5 4.5q-12 -1 -24.5 -1t-25.5 -1q-9 -1 -28.5 -5t-48.5 -12v-406q-106 -65 -323 -137q-75 -26 -190 -59t-274 -75q59 -116 132 -155
q76 -38 209 -38q66 0 127 73q4 5 9 14t13 22v87q0 66 43 94q28 11 43 17.5t19 8.5q33 18 78 36t71 18q33 0 43 -25v-323v-68.5t-2 -64t-6.5 -57t-13.5 -45.5q-43 -87 -90 -121.5t-98 -34.5q-44 0 -91 29q-15 8 -40 29q44 59 44 239q-46 -93 -136 -134q-87 -40 -198 -40
q-122 0 -243 62q-156 80 -253 246v243q170 22 297.5 47t216.5 54q122 41 294 142q47 47 47 123t-49 143q-50 68 -118 78q-50 0 -119 -69q-36 -36 -62 -36q-14 0 -156 69q-72 36 -105 36q-27 0 -49 -9.5t-37.5 -26.5t-24 -39.5t-8.5 -47.5q0 -54 36 -102q72 0 90 58
q19 58 66 58q177 0 177 -195q-10 -65 -74 -115q-63 -48 -154 -48q-161 0 -225 123q-43 82 -43 217q0 120 174 254q64 46 110 79t75 55q75 -35 119 -55t58 -25q87 -36 102 -36q21 0 77 31t147 85q48 -32 82 -56t56 -38q55 -37 86.5 -58.5t40.5 -28.5v-1q14 8 25 14.5t21 11.5
q17 10 37 19t43 19q45 20 105.5 54t141.5 83q66 -38 131 -74.5t132 -71.5q10 -5 19.5 -11t18.5 -11q8 20 14.5 43.5t10.5 51.5q0 27 -6 65q-7 39 -40 65q-19 8 -42 15.5t-49 15.5q-20 10 -39.5 22t-37.5 27q-35 27 -35 68zM2021 505q-14 -8 -27 -15.5t-25 -14.5
q-28 -15 -28 -47q0 -31 28 -41q24 -14 52 -18v136z" />
    <glyph glyph-name="Gamma" unicode="&#x178d;" horiz-adv-x="2204" 
d="M1626 1145q20 14 35 26t26 22q141 117 193 206q55 -44 112 -72q88 -44 156 -44q49 0 90 26q-79 -280 -264 -280q-36 0 -91 18q-53 19 -83 19q-24 0 -44 -9.5t-36 -25t-27 -36.5t-16 -45q31 25 86 34q28 5 55 8.5t54 7.5q191 0 265 -155q54 -120 54 -381q0 -219 -85 -341
q-86 -123 -197 -123q-221 0 -325 119q-103 119 -103 316q-4 18 -20 23.5t-49 5.5v-276q0 -65 -64 -128q-63 -63 -106 -63q-22 13 -22 21q-5 31 -140 145q-136 115 -136 185q0 106 142 185l70 40t71 40q32 21 58 119q8 35 18 94q-46 87 -127 149q-108 87 -232 87
q-29 0 -70.5 -29t-99.5 -83q-69 50 -134 74t-142 24q-116 0 -167 -97q-50 -97 -50 -233q0 -186 40 -254q54 -94 199 -94q76 0 114 41q38 43 38 96l-10 55q-11 7 -24 10.5t-34 3.5q-29 -3 -48 -12q-17 -9 -43 -57q-2 -4 -4.5 -10t-6.5 -15q-84 8 -129 56q-45 49 -45 162
q0 94 61 152t131 58q122 0 181 -149q44 -114 44 -268q0 -192 -51 -319q-69 -174 -206 -174q-164 0 -246 210q-81 210 -81 508q0 467 377 685l312 -142q29 14 62.5 33.5t71.5 44.5t64.5 40.5t40.5 23.5q37 -26 69.5 -46.5t61.5 -37.5q78 -48 125 -76.5t63 -39.5v-583
q0 -4 91 -8q91 -3 112 -39q0 -105 33 -171q54 -108 185 -108q110 0 177 61q69 61 69 163q0 58 -47 105q-65 66 -177 66q-45 0 -104.5 -11t-120.5 -36v503zM1314 475q-14 -8 -24.5 -13t-15.5 -9q-40 -25 -40 -51q0 -32 55 -54q7 -4 25 -7v134z" />
    <glyph glyph-name="Theta" horiz-adv-x="732" 
d="M116 1142q20 14 35.5 26t26.5 21q141 120 192 207q27 -22 55 -40.5t57 -32.5q86 -43 156 -43q51 0 91 25q-20 -72 -45 -125t-57 -87t-72 -50.5t-91 -16.5q-36 0 -91 18q-54 18 -83 18q-24 0 -44 -9.5t-35.5 -25t-26.5 -36.5t-17 -45q54 29 109.5 40t100.5 11
q113 0 177 -49q66 -50 66 -176v-793q-7 -55 67 -132q37 -39 74.5 -78.5t75.5 -79.5q-76 -97 -136 -161t-105 -98q-88 -67 -208 -67q-104 0 -171 47q-48 32 -76 101q-31 -94 -76 -126q-44 -33 -119 -33q-102 0 -158 43t-56 134q0 57 15 89q13 31 69 31q19 0 72 -11t73 -11
q53 0 68 47q-40 31 -69.5 50t-49.5 27q-42 14 -127 14q-105 0 -154 -60q-50 -60 -67 -60q-41 38 -65 55q-83 58 -163 58q-40 0 -67.5 -9t-45 -24t-25 -35.5t-7.5 -44.5q0 -25 3.5 -43t10.5 -36q62 0 89 60q27 59 71 59q66 0 103.5 -48.5t37.5 -136.5q0 -30 -13.5 -56
t-39 -45t-62 -29.5t-81.5 -10.5q-159 26 -250 167v282q28 87 105 126q78 38 171 38q98 0 145 -22q7 -5 112 -109q22 23 42.5 46t40.5 45q58 40 189 40q137 0 204 -34.5t78 -100.5v-184q33 -66 134 -66q95 0 178 73q14 13 47.5 49.5t86.5 98.5q-29 26 -40 40q-39 54 -44 109
l4 612q0 69 -55 94q-55 26 -126 26q-77 0 -171 -58q-7 -4 -18 -12t-25 -21v544z" />
    <glyph glyph-name="Phi" horiz-adv-x="732" 
d="M116 1142q20 14 35.5 26t26.5 21q141 120 192 207q27 -22 55 -40.5t57 -32.5q86 -43 156 -43q51 0 91 25q-20 -72 -45 -125t-57 -87t-72 -50.5t-91 -16.5q-36 0 -91 18q-54 18 -83 18q-24 0 -44 -9.5t-35.5 -25t-26.5 -36.5t-17 -45q54 29 109.5 40t100.5 11
q113 0 177 -49q66 -50 66 -176v-1583q-7 -55 67 -132q37 -39 74.5 -78.5t75.5 -79.5q-76 -97 -136 -161t-105 -98q-88 -67 -208 -67q-104 0 -171 47q-48 32 -76 101q-31 -94 -76 -126q-44 -33 -119 -33q-102 0 -158 43t-56 134q0 57 15 89q13 31 69 31q19 0 72 -11t73 -11
q53 0 68 47q-40 31 -69.5 50t-49.5 27q-42 14 -127 14q-105 0 -154 -60q-50 -60 -67 -60q-41 38 -65 55q-83 58 -163 58q-40 0 -67.5 -9t-45 -24t-25 -35.5t-7.5 -44.5q0 -25 3.5 -43t10.5 -36q62 0 89 60q27 59 71 59q66 0 103.5 -48.5t37.5 -136.5q0 -30 -13.5 -56
t-39 -45t-62 -29.5t-81.5 -10.5q-159 26 -250 167v282q28 87 105 126q78 38 171 38q98 0 145 -22q7 -5 112 -109q22 23 42.5 46t40.5 45q58 40 189 40q137 0 204 -34.5t78 -100.5v-184q33 -66 134 -66q95 0 178 73q14 13 47.5 49.5t86.5 98.5q-29 26 -40 40q-39 54 -44 109
l4 1402q0 69 -55 94q-55 26 -126 26q-77 0 -171 -58q-7 -4 -18 -12t-25 -21v544z" />
    <glyph glyph-name="alpha" horiz-adv-x="2917" 
d="M1863 1264q32 16 68 35t78 42q67 29 130.5 44.5t123.5 16.5l-1 -2l3 2q176 -33 252 -70q42 -17 84 -37t87 -42q81 -42 150 -66t69 -40v-981q-3 -76 -69 -121q-62 -45 -98 -48q-7 52 -56 86q-25 20 -52.5 39t-59.5 37q-28 22 -53.5 45.5t-49.5 48.5q-50 56 -50 134
q0 54 66 86q29 17 62.5 33t70.5 30q81 28 140 75q58 45 58 117q0 75 -48 149q-47 64 -119 118q-75 33 -133 53.5t-101 27.5q-42 7 -75 11t-58 6q-91 4 -172.5 2.5t-153.5 -6.5q-53 -7 -86 -12.5t-47 -9.5q-27 -7 -82 -33l-21 -15q-30 -24 -42 -67q32 23 84 32l81 12h4
q0 1 1 1h4q5 1 9.5 1.5t9.5 1.5q191 0 265 -155q54 -120 54 -381q0 -219 -85 -341q-86 -123 -197 -123q-221 0 -325 119q-103 119 -103 316q-4 18 -20 23.5t-49 5.5v-276q0 -65 -64 -128q-63 -63 -106 -63q-22 13 -22 21q-5 31 -140 145q-136 115 -136 185q0 106 142 185
l70 40t71 40q32 21 58 119q8 35 18 94q-46 87 -127 149q-108 87 -232 87q-29 0 -70.5 -29t-99.5 -83q-69 50 -134 74t-142 24q-116 0 -167 -97q-50 -97 -50 -233q0 -186 40 -254q54 -94 199 -94q76 0 114 41q38 43 38 96l-10 55q-11 7 -24 10.5t-34 3.5q-29 -3 -48 -12
q-17 -9 -43 -57q-2 -4 -4.5 -10t-6.5 -15q-84 8 -129 56q-45 49 -45 162q0 94 61 152t131 58q122 0 181 -149q44 -114 44 -268q0 -192 -51 -319q-69 -174 -206 -174q-164 0 -246 210q-81 210 -81 508q0 467 377 685l312 -142q29 14 62.5 33.5t71.5 44.5t64.5 40.5t40.5 23.5
q37 -26 69.5 -46.5t61.5 -37.5q78 -48 125 -76.5t63 -39.5v-583q0 -4 91 -8q91 -3 112 -39q0 -105 33 -171q54 -108 185 -108q110 0 177 61q69 61 69 163q0 58 -47 105q-42 42 -102 57q-38 6 -79 9q-19 0 -43 -3h-2l-64 -13l-113 -34v504h1q88 46 147 76t91 45zM2826 500
q-14 -8 -27 -15.5t-25 -13.5q-28 -15 -28 -47q0 -31 28 -41q25 -14 52 -17v134zM1313 475q-14 -8 -24.5 -13t-15.5 -9q-40 -25 -40 -51q0 -32 55 -54q7 -4 25 -7v134z" />
    <glyph glyph-name="delta" horiz-adv-x="1400" 
d="M102 1151l2 -3v6q4 4 133 55q66 32 130 65t128 68q129 72 248 73l-1 -2l3 2q176 -33 252 -70q42 -18 84 -38t87 -42t82.5 -38t70.5 -27q66 -21 66 -42v-990q-3 -77 -69 -123q-62 -45 -98 -48q-8 53 -56 87q-25 20 -52.5 39t-59.5 38q-28 22 -53.5 45.5t-49.5 48.5
q-50 56 -50 136q0 55 66 87q29 17 62.5 33t70.5 30q82 28 140 76q58 45 58 118q0 76 -48 150q-46 64 -119 119q-75 34 -133 54.5t-101 27.5q-42 7 -75 11t-58 6q-44 5 -424 -21q-18 -4 -36.5 -5.5t-36 -5t-33 -11t-26.5 -22.5q-6 -7 -14 -14.5t-13.5 -15t-6 -16t7.5 -17.5
q36 18 117 21q5 2 9 3l8 2q48 3 84 3q123 0 187 -46q61 -52 61 -184v-928q0 -74 82 -135q38 -35 78 -75.5t82 -88.5q-75 -94 -136.5 -159t-112.5 -100q-100 -70 -230 -70q-118 5 -175 50q-58 40 -84 100q-32 -96 -80 -128q-52 -34 -128 -34q-99 3 -157 48q-62 46 -70 132
q7 73 34 98q20 24 53 29q55 0 93 -15q16 -5 31.5 -8.5t29.5 -5.5q55 -3 73 48q-79 67 -119 81q-25 7 -59.5 9.5t-80.5 0.5q-70 0 -101 -18q-38 -20 -59 -41q-7 -11 -14 -20.5t-15 -18.5q-17 -20 -44 -23q-2 1 -20 15.5t-50 43.5q-64 55 -171 55q-91 0 -121 -34
q-33 -32 -33 -80q8 -67 15 -80q46 3 69 23q7 8 13.5 18t11.5 21t12 21t15 20q10 18 46 18q56 0 88 -21q30 -24 44 -56q23 -69 18 -110q-3 -90 -80 -116q-69 -25 -125 -25q-99 0 -157 43q-54 43 -102 124q-14 58 -14 120q2 48 7.5 89t14.5 75q40 94 121 132q85 38 157 34
q138 0 185 -41q25 -20 46 -43t38 -48q23 26 46 49.5t47 44.5q25 18 71 31q23 4 54 5.5t71 1.5q152 0 223 -38q68 -34 76 -98v-187q15 -21 56 -39q37 -22 87 -25q113 3 193 77q38 34 73 70t66 74q-5 4 -39 48q-46 40 -59 105v773q-14 47 -59 70q-39 18 -128 18
q-124 -7 -241 -66v537zM1306 505q-14 -8 -27 -15.5t-25 -14.5q-28 -15 -28 -47q0 -31 28 -41q24 -14 52 -18v136z" />
    <glyph glyph-name="epsilon" horiz-adv-x="1400" 
d="M102 1151l2 -3v6q4 4 133 55q66 32 130 65t128 68q128 71 248 73l-1 -2l3 2q174 -33 252 -70q42 -18 84 -38t87 -42t82.5 -38t70.5 -27q66 -21 66 -42v-990q-3 -77 -69 -123q-61 -45 -98 -48q-7 52 -56 87q-25 20 -52.5 39t-59.5 38q-28 22 -53.5 45.5t-49.5 48.5
q-50 56 -50 136q0 55 66 87q29 17 62.5 33t70.5 30q82 28 140 76q58 45 58 118q0 76 -48 150q-46 64 -119 119q-75 34 -133 54.5t-101 27.5q-42 7 -75 11t-58 6q-44 5 -424 -21q-14 -2 -25.5 -4t-19.5 -4q-56 0 -87 -36q-11 -10 -19.5 -21t-15.5 -23q7 -14 18.5 -13.5t28 5
t36.5 9.5t43 1q5 2 9 3l8 2q48 3 84 3q123 0 187 -46q61 -52 61 -184v-1558q0 -74 82 -135q38 -35 78 -75.5t82 -88.5q-75 -94 -136.5 -159t-112.5 -100q-100 -70 -230 -70q-117 4 -175 50q-59 41 -84 100q-32 -96 -80 -128q-52 -34 -128 -34q-98 3 -157 48q-63 47 -70 132
q7 73 34 98q20 24 53 29q55 0 93 -15q16 -5 31.5 -8.5t29.5 -5.5q55 -3 73 48q-80 68 -119 81q-25 7 -59.5 9.5t-80.5 0.5q-70 0 -101 -18q-38 -20 -59 -41q-13 -21 -29 -39q-17 -20 -44 -23q-2 1 -20 15.5t-50 43.5q-64 55 -171 55q-91 0 -121 -34q-33 -32 -33 -80
q7 -66 15 -80q46 3 69 23q7 8 13.5 18t11.5 21t12 21t15 20q10 18 46 18q56 0 88 -21q30 -24 44 -56q23 -69 18 -110q-3 -90 -80 -116q-71 -25 -125 -25q-99 0 -157 43q-55 44 -102 124q-14 56 -14 120q2 48 7.5 89t14.5 75q41 95 121 132q83 38 157 34q138 0 185 -41
q25 -20 46 -43t38 -48q23 26 46 49.5t47 44.5q25 18 71 31q23 4 54 5.5t71 1.5q152 0 223 -38q69 -35 76 -98v-187q15 -21 56 -39q37 -22 87 -25q113 3 193 77q38 34 73 70t66 74q-5 4 -39 48q-45 39 -59 105v1403q-14 47 -59 70q-39 18 -128 18q-124 -7 -241 -66v537z
M1306 505q-14 -8 -27 -15.5t-25 -14.5q-28 -15 -28 -47q0 -31 28 -41q24 -14 52 -18v136z" />
    <glyph glyph-name="sigma" horiz-adv-x="2917" 
d="M1863 1264q32 16 68 35t78 42q67 29 130.5 44.5t123.5 16.5l-1 -2l3 2q176 -33 252 -70q42 -17 84 -37t87 -42q82 -42 113 -35h2q24 43 35 114q0 27 -6 65q-8 39 -40 64q-19 8 -42 15.5t-49 15.5q-42 20 -77 48q-35 27 -35 68q0 36 18 89q41 95 134 95q97 -4 172 -75
q77 -92 77 -223q0 -121 -52 -229q-26 -53 -50 -83q19 -19 19 -35v-981q-3 -76 -69 -121q-62 -45 -98 -48q-7 52 -56 86q-25 20 -52.5 39t-59.5 37q-28 22 -53.5 45.5t-49.5 48.5q-50 56 -50 134q0 54 66 86q29 17 62.5 33t70.5 30q81 28 140 75q58 45 58 117q0 75 -48 149
q-47 64 -119 118q-75 33 -133 53.5t-101 27.5q-42 7 -75 11t-58 6q-91 4 -172.5 2.5t-153.5 -6.5q-53 -7 -86 -12.5t-47 -9.5q-27 -7 -82 -33l-21 -15q-30 -24 -42 -67q32 23 84 32l81 12h4q0 1 1 1h4q5 1 9.5 1.5t9.5 1.5q191 0 265 -155q54 -120 54 -381q0 -219 -85 -341
q-86 -123 -197 -123q-221 0 -325 119q-103 119 -103 316q-4 18 -20 23.5t-49 5.5v-276q0 -65 -64 -128q-63 -63 -106 -63q-22 13 -22 21q-5 31 -140 145q-136 115 -136 185q0 106 142 185l70 40t71 40q32 21 58 119q8 35 18 94q-46 87 -127 149q-108 87 -232 87
q-29 0 -70.5 -29t-99.5 -83q-69 50 -134 74t-142 24q-116 0 -167 -97q-50 -97 -50 -233q0 -186 40 -254q54 -94 199 -94q76 0 114 41q38 43 38 96l-10 55q-11 7 -24 10.5t-34 3.5q-29 -3 -48 -12q-17 -9 -43 -57q-2 -4 -4.5 -10t-6.5 -15q-84 8 -129 56q-45 49 -45 162
q0 94 61 152t131 58q122 0 181 -149q44 -114 44 -268q0 -192 -51 -319q-69 -174 -206 -174q-164 0 -246 210q-81 210 -81 508q0 467 377 685l312 -142q29 14 62.5 33.5t71.5 44.5t64.5 40.5t40.5 23.5q37 -26 69.5 -46.5t61.5 -37.5q78 -48 125 -76.5t63 -39.5v-583
q0 -4 91 -8q91 -3 112 -39q0 -105 33 -171q54 -108 185 -108q110 0 177 61q69 61 69 163q0 58 -47 105q-42 42 -102 57q-38 6 -77 9h-2q-19 0 -43 -3h-2l-64 -13l-113 -34v504h1q88 46 147 76t91 45zM2826 500q-14 -8 -27 -15.5t-25 -13.5q-28 -15 -28 -47q0 -31 28 -41
q25 -14 52 -17v134zM1313 475q-14 -8 -24.5 -13t-15.5 -9q-40 -25 -40 -51q0 -32 55 -54q7 -4 25 -7v134z" />
    <glyph glyph-name="tau" horiz-adv-x="1400" 
d="M1069 1623q0 37 18 90q40 96 134 96q97 -4 172 -76q77 -92 77 -225q0 -121 -52 -231q-13 -26 -25 -47t-25 -37q19 -19 19 -35v-990q-3 -77 -69 -123q-61 -45 -98 -48q-7 52 -56 87q-25 20 -52.5 39t-59.5 38q-28 22 -53.5 45.5t-49.5 48.5q-50 56 -50 136q0 55 66 87
q29 17 62.5 33t70.5 30q82 28 140 76q58 45 58 118q0 76 -48 150q-46 64 -119 119q-75 34 -133 54.5t-101 27.5q-42 7 -75 11t-58 6q-44 5 -424 -21q-18 -4 -36.5 -5.5t-36 -5t-33 -11t-26.5 -22.5q-11 -10 -19.5 -21t-15.5 -23q6 -14 18 -13.5t28 5t36 9.5t43 1
q25 7 53.5 7.5t48.5 0.5q123 0 187 -46q61 -52 61 -184v-928q0 -74 82 -135q38 -35 78 -75.5t82 -88.5q-75 -94 -136.5 -159t-112.5 -100q-100 -70 -230 -70q-117 4 -175 50q-59 41 -84 100q-32 -96 -80 -128q-52 -34 -128 -34q-98 3 -157 48q-63 47 -70 132q7 73 34 98
q20 24 53 29q55 0 93 -15q16 -5 31.5 -8.5t29.5 -5.5q55 -3 73 48q-80 68 -119 81q-25 7 -59.5 9.5t-80.5 0.5q-70 0 -101 -18q-38 -20 -59 -41q-13 -21 -29 -39q-17 -20 -44 -23q-2 1 -20 15.5t-50 43.5q-64 55 -171 55q-91 0 -121 -34q-33 -32 -33 -80q7 -66 15 -80
q46 3 69 23q7 8 13.5 18t11.5 21t12 21t15 20q10 18 46 18q56 0 88 -21q30 -24 44 -56q23 -69 18 -110q-3 -90 -80 -116q-71 -25 -125 -25q-99 0 -157 43q-55 44 -102 124q-14 56 -14 120q2 48 7.5 89t14.5 75q41 95 121 132q83 38 157 34q138 0 185 -41q25 -20 46 -43
t38 -48q23 26 46 49.5t47 44.5q25 18 71 31q23 4 54 5.5t71 1.5q152 0 223 -38q69 -35 76 -98v-187q15 -21 56 -39q37 -22 87 -25q113 3 193 77q38 34 73 70t66 74q-5 4 -39 48q-45 39 -59 105v773q-14 47 -59 70q-39 18 -128 18q-124 -7 -241 -66v537l2 -3v6q4 4 133 55
q66 32 130 65t128 68q128 71 248 73l-1 -2l3 2q174 -33 252 -70q42 -18 84 -38t87 -42q81 -43 113 -35h2q25 45 35 115q0 27 -6 65q-7 39 -40 65q-19 8 -42 15.5t-49 15.5q-20 10 -39.5 22t-37.5 27q-35 27 -35 68zM1306 505q-14 -8 -27 -15.5t-25 -14.5q-28 -15 -28 -47
q0 -31 28 -41q24 -14 52 -18v136z" />
    <glyph glyph-name="phi" horiz-adv-x="1400" 
d="M1069 1623q0 37 18 90q40 96 134 96q98 -5 172 -76q77 -92 77 -225q0 -123 -52 -231q-13 -26 -25 -47t-25 -37q19 -19 19 -35v-990q-3 -77 -69 -123q-62 -45 -98 -48q-8 53 -56 87q-25 20 -52.5 39t-59.5 38q-28 22 -53.5 45.5t-49.5 48.5q-50 56 -50 136q0 55 66 87
q29 17 62.5 33t70.5 30q82 28 140 76q58 45 58 118q0 76 -48 150q-46 64 -119 119q-75 34 -133 54.5t-101 27.5q-42 7 -75 11t-58 6q-44 5 -424 -21q-18 -4 -36.5 -5.5t-36 -5t-33 -11t-26.5 -22.5q-11 -10 -19.5 -21t-15.5 -23q6 -14 18 -13.5t28 5t36 9.5t43 1q4 2 8.5 3
t9.5 2q48 3 84 3q123 0 187 -46q61 -52 61 -184v-1548q0 -74 82 -135q38 -35 78 -75.5t82 -88.5q-75 -94 -136.5 -159t-112.5 -100q-100 -70 -230 -70q-118 5 -175 50q-58 40 -84 100q-32 -96 -80 -128q-52 -34 -128 -34q-99 3 -157 48q-62 46 -70 132q7 73 34 98
q20 24 53 29q55 0 93 -15q16 -5 31.5 -8.5t29.5 -5.5q55 -3 73 48q-79 67 -119 81q-25 7 -59.5 9.5t-80.5 0.5q-70 0 -101 -18q-38 -20 -59 -41q-7 -11 -14 -20.5t-15 -18.5q-17 -20 -44 -23q-2 1 -20 15.5t-50 43.5q-64 55 -171 55q-91 0 -121 -34q-33 -32 -33 -80
q8 -67 15 -80q46 3 69 23q7 8 13.5 18t11.5 21t12 21t15 20q10 18 46 18q56 0 88 -21q30 -24 44 -56q23 -69 18 -110q-3 -90 -80 -116q-69 -25 -125 -25q-99 0 -157 43q-54 43 -102 124q-14 58 -14 120q2 48 7.5 89t14.5 75q40 94 121 132q85 38 157 34q138 0 185 -41
q25 -20 46 -43t38 -48q23 26 46 49.5t47 44.5q25 18 71 31q23 4 54 5.5t71 1.5q152 0 223 -38q68 -34 76 -98v-187q15 -21 56 -39q37 -22 87 -25q113 3 193 77q38 34 73 70t66 74q-5 4 -39 48q-46 40 -59 105v1393q-14 47 -59 70q-39 18 -128 18q-124 -7 -241 -66v537l2 -3
q2 7 34.5 21t98.5 40q66 32 130 65t128 68q129 72 248 73l-1 -2l3 2q176 -33 252 -70q42 -18 84 -38t87 -42q80 -43 113 -35h2q24 43 35 115q0 27 -6 65q-8 40 -40 65q-19 8 -42 15.5t-49 15.5q-20 10 -39.5 22t-37.5 27q-35 27 -35 68zM1306 505q-14 -8 -27 -15.5
t-25 -14.5q-28 -15 -28 -47q0 -31 28 -41q24 -14 52 -18v136z" />
    <glyph glyph-name="underscoredbl" unicode="&#x178e;" horiz-adv-x="2562" 
d="M761 1399q153 -51 241 -82.5t111 -44.5q156 -80 156 -206v-341q-58 -23 -89 -36t-35 -15q-76 -51 -97 -156q26 -48 94 -98q70 -50 119 -50q39 0 109 56q68 55 131 110q57 -48 93.5 -78.5t54.5 -44.5q55 -43 95 -43q50 0 97 36q62 47 62 116q-47 54 -80 80
q-109 83 -221 83q-53 0 -80 -7q-30 -8 -101 -33v348q133 202 181 250q156 160 366 160q151 0 366 -102q214 -100 214 -170v-982q0 -63 -58 -106t-105 -43l-22 7q-67 72 -120.5 128.5t-93.5 100.5q-79 86 -79 152t190 157q190 93 190 205q0 69 -141 189q-179 152 -406 152
q-199 0 -286 -116q245 0 340 -152q66 -105 66 -301q0 -181 -91 -341q-101 -177 -246 -177q-48 0 -156 72q-20 13 -63.5 44.5t-110.5 82.5q-8 -5 -49.5 -41.5t-117.5 -103.5q-62 -54 -109 -54q-80 0 -189 141q-108 141 -108 279q0 141 116 254q42 35 84 69t86 69
q0 116 -127 188q-125 73 -308 73q-136 0 -239 -77q-33 -25 -76 -79q72 18 120 18q115 0 192 -69q76 -69 76 -160q0 -24 -7.5 -43.5t-23.5 -38t-39.5 -37.5t-56.5 -40q-14 -11 -38 -25.5t-56 -32.5q-97 -54 -102 -98q44 -47 65 -47q14 0 58 47q22 25 44 25q101 0 146 -33
q46 -31 46 -130q0 -124 -75.5 -192t-228.5 -68q-139 0 -209 105q-71 106 -71 235q0 104 66 145q128 61 253 138q-8 69 -134 69q-79 0 -170 -55v511q80 54 154 94.5t143 69.5q138 58 290 90zM2468 406v112q-18 -3 -34 -10.5t-20 -25.5q0 -43 25 -62l11 -5.5t18 -8.5z" />
    <glyph glyph-name="exclamdbl" 
d="M-1758 -28q199 0 356 -62q156 -62 156 -170q0 -15 -34 -76q-35 -62 -35 -88q0 -36 40 -58l166 113l116 -113l84 55q-11 14 -22.5 29t-24.5 29q-37 46 -37 87q0 134 138 194t373 60q157 0 265 -34.5t156 -107.5v-344q-15 -57 -56 -85t-140 -28q-41 0 -109 40
q-90 55 -90 131q0 46 36 87q36 40 80 40l29 -11q69 -69 119 -69q26 0 37 9t21 24q-58 48 -105 76.5t-83 39.5q-74 21 -214 21q-129 0 -177 -16q-51 -17 -142 -85q18 -58 51 -94q4 -5 10 -11t15 -11q0 -54 -65 -116t-127 -62q-76 0 -130 58q-55 58 -66 58q-2 0 -46 -50
q-44 -51 -149 -51q-62 0 -98 54q-14 32 -24.5 53t-15.5 30l109 113q-110 90 -183 114q-75 24 -184 24q-167 0 -237 -42q-71 -42 -107 -183q51 0 87 73q36 72 109 72q52 0 89 -49q38 -50 38 -96q0 -76 -65 -123q-66 -48 -138 -48q-117 0 -172 49q-58 50 -71 122v275
q25 38 69.5 66.5t104.5 48t134 29t159 9.5z" />
    <glyph glyph-name="nsuperior" 
d="M-1494 -808q149 0 293 -59q138 -59 140 -175q0 -22 -29 -69q-26 -60 -29 -97q3 -25 37 -35q44 35 77 80q16 20 26.5 34t15.5 21l110 -150l70 54q-62 83 -63 139q2 146 127 205q121 53 276 53h12q10 0 11 -1q1 1 14 1h13q118 0 195 -31q91 -36 132 -113v-348
q-4 -52 -43 -80q-38 -32 -120 -32q-25 0 -89 43q-14 11 -27 25t-25 30q-24 30 -25 73q1 49 34 91q29 38 60 38q16 0 27 -11q67 -70 101 -70q47 15 47 33q-81 82 -150 108q-37 10 -83 14t-103 2q-80 4 -147 -16q-53 -19 -124 -87q61 -87 64 -80q0 -55 -56 -123
q-53 -74 -103 -77q-80 3 -108 57q-32 54 -58 59q-18 -5 -38 -50q-5 -9 -38 -34q-29 -18 -87 -18q-62 5 -81 59q-12 23 -21.5 43t-16.5 37l81 98q-97 103 -159 125q-64 18 -140 15q-146 3 -213 -27q-67 -35 -74 -186q13 -7 28 -7q25 0 33 29q4 14 6.5 27t4.5 24q6 30 27 52
q19 22 67 22q46 -7 78 -49q25 -46 25 -98q-3 -34 -17 -73q-16 -31 -44 -55q-49 -43 -109 -43q-104 5 -150 53q-43 55 -54 118q-9 73 -12 129q3 85 41 150q91 154 351 154q11 0 12 -1z" />
    <glyph glyph-name="peseta" horiz-adv-x="3317" 
d="M3301 1148v-990q-3 -77 -69 -123q-61 -45 -98 -48q-7 52 -56 87q-25 20 -52.5 39t-59.5 38q-28 22 -53.5 45.5t-49.5 48.5q-50 56 -50 136q0 55 66 87q29 17 62.5 33t70.5 30q82 28 140 76q58 45 58 118q0 76 -48 150q-46 64 -119 119q-130 91 -221 111
q-44 11 -82.5 15.5t-89.5 4.5q-12 -1 -24.5 -1t-25.5 -1q-7 -1 -20 -3.5t-32 -7.5v-963q0 -63 -58 -106t-105 -43l-22 7q-67 72 -120.5 128.5t-93.5 100.5q-79 86 -79 152t190 157q190 93 190 205q0 69 -141 189q-179 152 -406 152q-199 0 -286 -116q245 0 340 -152
q66 -105 66 -301q0 -181 -91 -341q-101 -177 -246 -177q-48 0 -156 72q-20 13 -63.5 44.5t-110.5 82.5q-8 -5 -49.5 -41.5t-117.5 -103.5q-62 -54 -109 -54q-80 0 -189 141q-108 141 -108 279q0 141 116 254q42 35 84 69t86 69q0 116 -127 188q-125 73 -308 73
q-136 0 -239 -77q-33 -25 -76 -79q72 18 120 18q115 0 192 -69q76 -69 76 -160q0 -24 -7.5 -43.5t-23.5 -38t-39.5 -37.5t-56.5 -40q-14 -11 -38 -25.5t-56 -32.5q-97 -54 -102 -98q44 -47 65 -47q14 0 58 47q22 25 44 25q101 0 146 -33q46 -31 46 -130q0 -124 -75.5 -192
t-228.5 -68q-139 0 -209 105q-71 106 -71 235q0 104 66 145q128 61 253 138q-8 69 -134 69q-79 0 -170 -55v511q80 54 154 94.5t143 69.5q138 58 290 90q153 -51 241 -82.5t111 -44.5q156 -80 156 -206v-341q-58 -23 -89 -36t-35 -15q-76 -51 -97 -156q26 -48 94 -98
q70 -50 119 -50q39 0 109 56q68 55 131 110q57 -48 93.5 -78.5t54.5 -44.5q55 -43 95 -43q50 0 97 36q62 47 62 116q-47 54 -80 80q-109 83 -221 83q-53 0 -80 -7q-30 -8 -101 -33v348q133 202 181 250q156 160 366 160q151 0 366 -102q120 -57 172 -103q20 11 35.5 19.5
t27.5 15.5q17 10 37 19t43 19q45 20 105.5 54t141.5 83q33 -19 66 -37.5t65 -37.5q32 -18 74.5 -43.5t94.5 -59.5q105 -66 105 -82zM3220 495q-14 -8 -27 -15.5t-25 -14.5q-28 -15 -28 -47q0 -31 28 -41q24 -14 52 -18v136zM2468 406v112q-18 -3 -34 -10.5t-20 -25.5
q0 -43 25 -62l11 -5.5t18 -8.5z" />
    <glyph glyph-name="IJ" horiz-adv-x="3317" 
d="M2973 1613q0 37 18 90q40 96 134 96q97 -4 172 -76q77 -92 77 -225q0 -121 -52 -231q-13 -26 -24.5 -45.5t-21.5 -32.5q25 -25 25 -41v-990q-3 -77 -69 -123q-61 -45 -98 -48q-7 52 -56 87q-25 20 -52.5 39t-59.5 38q-28 22 -53.5 45.5t-49.5 48.5q-50 56 -50 136
q0 55 66 87q29 17 62.5 33t70.5 30q82 28 140 76q58 45 58 118q0 76 -48 150q-46 64 -119 119q-130 91 -221 111q-44 11 -82.5 15.5t-89.5 4.5q-12 -1 -24.5 -1t-25.5 -1q-7 -1 -20 -3.5t-32 -7.5v-963q0 -63 -58 -106t-105 -43l-22 7q-67 72 -120.5 128.5t-93.5 100.5
q-79 86 -79 152t190 157q190 93 190 205q0 69 -141 189q-179 152 -406 152q-199 0 -286 -116q245 0 340 -152q66 -105 66 -301q0 -181 -91 -341q-101 -177 -246 -177q-48 0 -156 72q-20 13 -63.5 44.5t-110.5 82.5q-8 -5 -49.5 -41.5t-117.5 -103.5q-62 -54 -109 -54
q-80 0 -189 141q-108 141 -108 279q0 141 116 254q42 35 84 69t86 69q0 116 -127 188q-125 73 -308 73q-136 0 -239 -77q-33 -25 -76 -79q72 18 120 18q115 0 192 -69q76 -69 76 -160q0 -24 -7.5 -43.5t-23.5 -38t-39.5 -37.5t-56.5 -40q-14 -11 -38 -25.5t-56 -32.5
q-97 -54 -102 -98q44 -47 65 -47q14 0 58 47q22 25 44 25q101 0 146 -33q46 -31 46 -130q0 -124 -75.5 -192t-228.5 -68q-139 0 -209 105q-71 106 -71 235q0 104 66 145q128 61 253 138q-8 69 -134 69q-79 0 -170 -55v511q80 54 154 94.5t143 69.5q138 58 290 90
q153 -51 241 -82.5t111 -44.5q156 -80 156 -206v-341q-58 -23 -89 -36t-35 -15q-76 -51 -97 -156q26 -48 94 -98q70 -50 119 -50q39 0 109 56q68 55 131 110q57 -48 93.5 -78.5t54.5 -44.5q55 -43 95 -43q50 0 97 36q62 47 62 116q-47 54 -80 80q-109 83 -221 83
q-53 0 -80 -7q-30 -8 -101 -33v348q133 202 181 250q156 160 366 160q151 0 366 -102q120 -57 172 -103q20 11 35.5 19.5t27.5 15.5q17 10 37 19t43 19q45 20 105.5 54t141.5 83q66 -38 131 -74.5t132 -71.5q10 -5 19.5 -11t18.5 -11q8 20 14.5 43.5t10.5 51.5q0 27 -6 65
q-7 39 -40 65q-19 8 -42 15.5t-49 15.5q-20 10 -39.5 22t-37.5 27q-35 27 -35 68zM3220 495q-14 -8 -27 -15.5t-25 -14.5q-28 -15 -28 -47q0 -31 28 -41q24 -14 52 -18v136zM2468 406v112q-18 -3 -34 -10.5t-20 -25.5q0 -43 25 -62l11 -5.5t18 -8.5z" />
    <glyph glyph-name="ij" unicode="&#x178f;" horiz-adv-x="1427" 
d="M1417 917v-779q-29 -51 -89 -95q-58 -43 -103 -43q-32 0 -32 33q0 43 -109 130q-128 102 -156 189q-4 7 -7 39q0 61 192 120q118 36 174 87q-8 2 -68 21t-175 55q-126 40 -239 40q-197 0 -307 -49q-110 -50 -143 -176l-11 -79q0 -106 84 -149l50 -11q44 0 55 33
q0 58 -71 90q-71 33 -74 69q0 74 67 114q67 42 154 42q97 0 159 -80t62 -185q0 -62 -17.5 -115t-51.5 -95t-83.5 -71.5t-112.5 -44.5l-54 -7q-134 0 -229 161q-94 161 -94 354q0 195 159 333q160 138 356 138q184 0 426 -33q241 -32 288 -36zM358 928q-18 11 -36 22.5
t-36.5 21t-38.5 15.5t-41 6l-4 171q44 47 217 141q48 26 90.5 50.5t80.5 47.5q32 -18 69 -39t79 -45q42 -23 75 -38.5t56 -22.5q26 11 49 21.5t43 21.5q41 22 136 102q26 -20 55 -41.5t61 -44.5q66 -45 134 -45q51 0 113 33q0 -122 -80 -207q-80 -83 -207 -83
q-106 51 -176 85.5t-99 34.5q-16 0 -116 -91q-52 -47 -80 -47q-4 2 -41.5 22.5t-110.5 60.5q-92 51 -181 51q-47 0 -69 -22q23 -5 51.5 -15.5t60.5 -24.5q9 -4 21.5 -10t29.5 -15q0 -7 -51 -62q-14 -18 -54 -54zM1294 497q-46 -10 -54 -62q0 -62 54 -83v145z" />
    <glyph glyph-name="napostrophe" 
d="M-572 -7q131 -22 260 -44.5t258 -45.5v-279q0 -150 -25 -193q-41 -65 -174 -65q-85 0 -143 64q-60 63 -60 110q0 41 40 84t101 43q11 0 98 -33q51 -18 65 -18q37 7 37 62q-107 0 -222 18q-75 14 -126 24.5t-80 15.5t-64.5 11t-78.5 11t-72.5 8t-45.5 3q-91 0 -145 -27
q-55 -28 -94 -100l-8 -22q0 -25 33 -25l40 10q36 41 54 82q18 42 36 42t119 -33q99 -33 99 -181q0 -87 -63 -121q-65 -35 -151 -35q-156 0 -210 101q-36 66 -36 196q0 196 170 283q115 58 304 58z" />
    <glyph glyph-name="minute" 
d="M-625 -785q345 -42 564 -151v-223q1 -63 -5.5 -109.5t-19.5 -80.5q-37 -66 -182 -69q-100 3 -154 73q-62 62 -62 102q0 43 39 84q41 44 111 44q17 0 80 -23q26 -13 49 -20t42 -9q39 8 32 63q-112 4 -227 19t-244 43q-73 14 -135 21.5t-116 7.5q-172 3 -256 -129
q-4 -46 29 -46l43 11q82 123 103 123q15 0 123 -32q97 -31 100 -182q-8 -94 -76 -125q-78 -32 -150 -32q-176 3 -220 101q-41 100 -37 201q4 110 55 179q52 70 129 102q157 60 385 57z" />
    <glyph glyph-name="second" horiz-adv-x="2080" 
d="M1416 917v-779q-29 -51 -89 -95q-58 -43 -103 -43q-32 0 -32 33q0 43 -109 130q-128 102 -156 189q-4 7 -7 39q0 61 192 120q118 36 174 87q-8 2 -68 21t-175 55q-126 40 -239 40q-197 0 -307 -49q-110 -50 -143 -176l-11 -79q0 -106 84 -149l50 -11q44 0 55 33
q0 58 -71 90q-71 33 -74 69q0 74 67 114q67 42 154 42q97 0 159 -80t62 -185q0 -62 -17.5 -115t-51.5 -95t-83.5 -71.5t-112.5 -44.5l-54 -7q-134 0 -229 161q-94 161 -94 354q0 195 159 333q160 138 356 138q184 0 426 -33q241 -32 288 -36zM1406 1352q56 50 115 50h10
t10 -1h59q477 -219 477 -252v-982q0 -69 -62 -120q-62 -50 -101 -50q-7 46 -154 157t-147 234q0 61 188 144q189 84 189 197q0 137 -158 262q-158 124 -282 144q-34 2 -60.5 2.5t-45.5 -1.5q-39 -5 -135 -46l-139 -79v1q-50 -32 -168 -5l-94 33q-157 66 -255.5 104.5
t-140.5 50.5q-41 -14 -75.5 -27.5t-63.5 -24.5q-47 -12 -69 -34q36 -30 113 -40q34 -6 50 -25v-15l-28 -68q1 0 -11 -2t-37 -6l-29 -3q-36 5 -83 8t-106 3v186q37 30 80.5 57t94.5 50t125.5 60.5t174.5 88.5l52 -2q249 -106 370 -177q70 -43 164 -4q60 42 103 75t69 57z
M1293 497q-46 -10 -54 -62q0 -62 54 -83v145zM1980 428l7 108q-26 -3 -49.5 -10.5t-30.5 -28.5q0 -26 47 -55q4 -2 10 -5.5t16 -8.5z" />
    <glyph glyph-name="afii61248" horiz-adv-x="2080" 
d="M1541 1401h59q147 -68 248 -117.5t158 -81.5q36 112 36 151l-7 62q-8 37 -118 83q-111 46 -111 120q0 26 19 79q36 87 130 87q48 0 91 -18t79 -51q77 -72 77 -203q0 -108 -53 -197q-25 -42 -49 -76.5t-49 -63.5q26 -20 26 -26v-982q0 -69 -62 -120q-62 -50 -101 -50
q-7 46 -154 157t-147 234q0 61 188 144q189 84 189 197q0 137 -158 262q-158 124 -282 144q-34 2 -60.5 2.5t-45.5 -1.5q-39 -5 -135 -46l-139 -79v1q-50 -32 -168 -5l-94 33q-157 66 -255.5 104.5t-140.5 50.5q-41 -14 -75.5 -27.5t-63.5 -24.5q-47 -12 -69 -34
q36 -30 113 -40q34 -6 50 -25v-15l-28 -68q1 0 -11 -2t-37 -6l-29 -3q-36 5 -83 8t-106 3v186q37 30 80.5 57t94.5 50t125.5 60.5t174.5 88.5l52 -2q249 -106 370 -177q70 -43 164 -4q118 84 171 132q66 59 136 49zM1416 917v-779q-29 -51 -89 -95q-58 -43 -103 -43
q-32 0 -32 33q0 43 -109 130q-128 102 -156 189q-4 7 -7 39q0 61 192 120q118 36 174 87q-8 2 -68 21t-175 55q-126 40 -239 40q-197 0 -307 -49q-110 -50 -143 -176l-11 -79q0 -106 84 -149l50 -11q44 0 55 33q0 58 -71 90q-71 33 -74 69q0 74 67 114q67 42 154 42
q97 0 159 -80t62 -185q0 -62 -17.5 -115t-51.5 -95t-83.5 -71.5t-112.5 -44.5l-54 -7q-134 0 -229 161q-94 161 -94 354q0 195 159 333q160 138 356 138q184 0 426 -33q241 -32 288 -36zM1293 497q-46 -10 -54 -62q0 -62 54 -83v145zM1980 428l7 108q-26 -3 -49.5 -10.5
t-30.5 -28.5q0 -26 47 -55q4 -2 10 -5.5t16 -8.5z" />
    <glyph glyph-name="afii61289" unicode="&#x1790;" horiz-adv-x="1340" 
d="M1109 1682q109 0 156 -83q36 -62 36 -174q0 -194 -163 -330q-141 -120 -293 -120q-67 27 -123 48t-102 37q-90 31 -170 31q-117 0 -160 -43q-20 -31 -34.5 -54.5t-23.5 -40.5q48 15 98 29.5t101 14.5q116 0 196 -60t80 -194q0 -77 -25 -127q-11 -23 -120 -141
q75 -93 127 -131q79 -54 196 -54q194 0 271 105q55 73 55 199q-29 29 -62 29q-40 0 -96 -56t-85 -56q-83 29 -116 54q-65 51 -65 142q0 88 70 143q71 56 187 56q109 0 196 -94q87 -95 87 -250q0 -208 -105 -359q-143 -206 -435 -206q-206 0 -385 152q-159 136 -213 311
q97 26 150.5 40t66.5 18q98 33 167 102q-40 36 -89 54t-89 18q-55 0 -109 -22q-27 -11 -51 -20.5t-46 -18.5v514q49 38 94 72t88 63t95 58.5t114 60.5q154 -73 281 -116q128 -43 201 -43q48 0 58 25l11 54q0 57 -113 80q-112 22 -112 113q0 58 60 114q61 56 143 56z" />
    <glyph glyph-name="H22073" 
d="M-1098 -445q0 203 163 315q143 98 337 98q217 0 390 -179q172 -180 198 -401l-55 4q-87 166 -261 250q-175 83 -380 83q-126 0 -205 -50q-78 -51 -78 -142q51 0 112 91q33 47 73 50q42 0 76 -10t58 -29.5t37.5 -47t13.5 -61.5q0 -85 -67 -140q-68 -56 -162 -56
q-101 0 -152 33q-80 50 -98 192z" />
    <glyph glyph-name="H18543" 
d="M-1053 -1388q-80 36 -105 189q8 224 175 321q154 97 337 97q13 0 14 -1q244 -3 420 -183q170 -173 205 -402q-18 0 -33 1t-26 3q-97 175 -286 255q-192 80 -394 80q-25 2 -66 -5t-98 -23q-52 -15 -87 -56q-41 -42 -45 -108q38 -11 45 -11q25 3 35 25q13 16 16 48
q11 29 29 46q18 20 66 20q175 0 171 -136q0 -83 -59 -139q-54 -54 -153 -59h-11q-76 0 -150 38z" />
    <glyph glyph-name="H18551" horiz-adv-x="1997" 
d="M1989 1158v-990q-3 -77 -69 -123q-61 -45 -98 -48q-7 52 -56 87q-25 20 -52.5 39t-59.5 38q-28 22 -53.5 45.5t-49.5 48.5q-50 56 -50 136q0 55 66 87q29 17 62.5 33t70.5 30q82 28 140 76q58 45 58 118q0 76 -48 150q-46 64 -119 119q-130 91 -221 111
q-44 11 -82.5 15.5t-89.5 4.5q-12 -1 -24.5 -1t-25.5 -1q-24 -1 -146 -33v1q-4 -4 -7 -6q-141 -120 -293 -120q-67 27 -123 48t-102 37q-90 31 -170 31q-117 0 -160 -43q-20 -31 -34.5 -54.5t-23.5 -40.5q48 15 98 29.5t101 14.5q116 0 196 -60t80 -194q0 -77 -25 -127
q-11 -23 -120 -141q75 -93 127 -131q79 -54 196 -54q194 0 271 105q55 73 55 199q-29 29 -62 29q-40 0 -96 -56t-85 -56q-83 29 -116 54q-65 51 -65 142q0 88 70 143q71 56 187 56q109 0 196 -94q87 -95 87 -250q0 -208 -105 -359q-143 -206 -435 -206q-206 0 -385 152
q-159 136 -213 311q97 26 150.5 40t66.5 18q98 33 167 102q-40 36 -89 54t-89 18q-55 0 -109 -22q-27 -11 -51 -20.5t-46 -18.5v514q49 38 94 72t88 63t95 58.5t114 60.5q154 -73 281 -116q128 -43 201 -43q48 0 58 25l11 54q0 57 -113 80q-112 22 -112 113q0 58 60 114
q61 56 143 56q109 0 156 -83q36 -62 36 -174q0 -99 -43 -184l2 2q17 10 37 19t43 19q45 20 105.5 54t141.5 83q33 -19 66 -37.5t65 -37.5q32 -18 74.5 -43.5t94.5 -59.5q105 -66 105 -82zM1908 505q-14 -8 -27 -15.5t-25 -14.5q-28 -15 -28 -47q0 -31 28 -41q24 -14 52 -18
v136z" />
    <glyph glyph-name="H18533" horiz-adv-x="1997" 
d="M1661 1623q0 37 18 90q40 96 134 96q97 -4 172 -76q77 -92 77 -225q0 -121 -52 -231q-13 -26 -24.5 -45.5t-21.5 -32.5q25 -25 25 -41v-990q-3 -77 -69 -123q-61 -45 -98 -48q-7 52 -56 87q-25 20 -52.5 39t-59.5 38q-28 22 -53.5 45.5t-49.5 48.5q-50 56 -50 136
q0 55 66 87q29 17 62.5 33t70.5 30q82 28 140 76q58 45 58 118q0 76 -48 150q-46 64 -119 119q-130 91 -221 111q-44 11 -82.5 15.5t-89.5 4.5q-12 -1 -24.5 -1t-25.5 -1q-24 -1 -146 -33v1q-4 -4 -7 -6q-141 -120 -293 -120q-67 27 -123 48t-102 37q-90 31 -170 31
q-117 0 -160 -43q-20 -31 -34.5 -54.5t-23.5 -40.5q48 15 98 29.5t101 14.5q116 0 196 -60t80 -194q0 -77 -25 -127q-11 -23 -120 -141q75 -93 127 -131q79 -54 196 -54q194 0 271 105q55 73 55 199q-29 29 -62 29q-40 0 -96 -56t-85 -56q-83 29 -116 54q-65 51 -65 142
q0 88 70 143q71 56 187 56q109 0 196 -94q87 -95 87 -250q0 -208 -105 -359q-143 -206 -435 -206q-206 0 -385 152q-159 136 -213 311q97 26 150.5 40t66.5 18q98 33 167 102q-40 36 -89 54t-89 18q-55 0 -109 -22q-27 -11 -51 -20.5t-46 -18.5v514q49 38 94 72t88 63
t95 58.5t114 60.5q154 -73 281 -116q128 -43 201 -43q48 0 58 25l11 54q0 57 -113 80q-112 22 -112 113q0 58 60 114q61 56 143 56q109 0 156 -83q36 -62 36 -174q0 -99 -43 -184l2 2q17 10 37 19t43 19q45 20 105.5 54t141.5 83q66 -38 131 -74.5t132 -71.5q10 -5 19.5 -11
t18.5 -11q8 20 14.5 43.5t10.5 51.5q0 27 -6 65q-7 39 -40 65q-19 8 -42 15.5t-49 15.5q-20 10 -39.5 22t-37.5 27q-35 27 -35 68zM1908 505q-14 -8 -27 -15.5t-25 -14.5q-28 -15 -28 -47q0 -31 28 -41q24 -14 52 -18v136z" />
    <glyph glyph-name="openbullet" unicode="&#x1791;" horiz-adv-x="1384" 
d="M1382 950q0 -120 -80 -236q-95 -138 -232 -138q-94 0 -169 51q-74 51 -74 149q0 62 61 126q61 66 139 66q61 0 75 -24q15 -23 15 -78q0 -63 11 -87q10 -20 44 -43q54 0 54 69q0 116 -153 203q-152 87 -358 87q-268 0 -410 -102q232 0 348 -90q94 -73 94 -185
q0 -50 -14 -84q-43 -112 -87 -163q-29 -32 -127 -94q8 -41 38 -60q32 -20 60 -20q37 0 174 130q139 131 294 131q136 0 215 -71q78 -71 78 -186q0 -137 -71 -216q-71 -78 -186 -78q-120 0 -169 58t-49 149q0 82 51 105q50 22 134 22q11 -11 19.5 -18t13.5 -11q43 -33 65 -33
q25 0 29 25q-8 19 -14 26q-55 61 -178 61q-127 -21 -211 -208q-83 -186 -249 -186q-171 0 -276 90q-105 91 -105 214v170q201 18 214 22q144 25 221 87q-113 87 -236 87q-94 0 -199 -54v467q97 62 163.5 103.5t104.5 63.5q57 32 133.5 70t174.5 82q230 -41 403 -145
q221 -134 221 -304z" />
    <glyph glyph-name="Amacron" 
d="M-90 14q0 -60 -65 -128q-66 -67 -131 -96q-168 -83 -380 -83l-95 4q34 -45 113 -73q81 -29 156 -29q95 0 192 112q49 58 116 58q94 0 94 -235q0 -95 -43 -145q-44 -51 -102 -51q-45 0 -73 25q0 22 26 66q25 43 25 58q0 20 -36 43q-96 -64 -152 -90q-96 -44 -189 -44
q-87 0 -199 54q-152 74 -152 174q0 16 25 44q51 51 103 104t107 110q75 0 151 6.5t154 19.5q155 25 355 96z" />
    <glyph glyph-name="amacron" 
d="M-97 -746q0 -70 -70 -131q-70 -63 -139 -95q-171 -84 -401 -84q-24 0 -49 1t-51 3q37 -39 125 -70q40 -14 79.5 -22t77.5 -10q77 0 118 29q18 13 34.5 27.5t31.5 31.5q13 16 27 31.5t30 30.5q28 22 87 22q66 0 86 -59q15 -50 15 -163v-8t-1 -8q-8 -198 -153 -198
q-43 0 -77 27q3 36 28 70q22 31 22 53q3 22 -36 45q-35 -26 -75 -48.5t-85 -42.5q-89 -41 -202 -45q-67 0 -209 63q-30 16 -57 35t-52 41q-48 36 -51 91q16 97 80 161q58 66 169 100q63 0 137.5 6t162.5 19q91 13 189 37.5t209 59.5z" />
    <glyph glyph-name="Ccircumflex" horiz-adv-x="2069" 
d="M2059 1148v-990q-3 -77 -69 -123q-61 -45 -98 -48q-7 52 -56 87q-25 20 -52.5 39t-59.5 38q-28 22 -53.5 45.5t-49.5 48.5q-50 56 -50 136q0 55 66 87q29 17 62.5 33t70.5 30q82 28 140 76q58 45 58 118q0 76 -48 150q-46 64 -119 119q-130 91 -221 111
q-44 11 -82.5 15.5t-89.5 4.5q-12 -1 -24.5 -1t-25.5 -1q-11 -2 -36 -6q60 -80 60 -167q0 -120 -80 -236q-95 -138 -232 -138q-94 0 -169 51q-74 51 -74 149q0 62 61 126q61 66 139 66q61 0 75 -24q15 -23 15 -78q0 -63 11 -87q10 -20 44 -43q54 0 54 69q0 116 -153 203
q-152 87 -358 87q-268 0 -410 -102q232 0 348 -90q94 -73 94 -185q0 -50 -14 -84q-43 -112 -87 -163q-29 -32 -127 -94q8 -41 38 -60q32 -20 60 -20q37 0 174 130q139 131 294 131q136 0 215 -71q78 -71 78 -186q0 -137 -71 -216q-71 -78 -186 -78q-120 0 -169 58t-49 149
q0 82 51 105q50 22 134 22q11 -11 19.5 -18t13.5 -11q43 -33 65 -33q25 0 29 25q-8 19 -14 26q-55 61 -178 61q-127 -21 -211 -208q-83 -186 -249 -186q-171 0 -276 90q-105 91 -105 214v170q201 18 214 22q144 25 221 87q-113 87 -236 87q-94 0 -199 -54v467
q97 62 163.5 103.5t104.5 63.5q57 32 133.5 70t174.5 82q230 -41 403 -145q26 -16 48 -31.5t42 -32.5q24 14 43 24.5t33 18.5q17 10 37 19t43 19q45 20 105.5 54t141.5 83q33 -19 66 -37.5t65 -37.5q32 -18 74.5 -43.5t94.5 -59.5q105 -66 105 -82zM1978 495
q-14 -8 -27 -15.5t-25 -14.5q-28 -15 -28 -47q0 -31 28 -41q24 -14 52 -18v136z" />
    <glyph glyph-name="ccircumflex" horiz-adv-x="2069" 
d="M1731 1613q0 37 18 90q40 96 134 96q97 -4 172 -76q77 -92 77 -225q0 -121 -52 -231q-13 -26 -24.5 -45.5t-21.5 -32.5q25 -25 25 -41v-990q-3 -77 -69 -123q-61 -45 -98 -48q-7 52 -56 87q-25 20 -52.5 39t-59.5 38q-28 22 -53.5 45.5t-49.5 48.5q-50 56 -50 136
q0 55 66 87q29 17 62.5 33t70.5 30q82 28 140 76q58 45 58 118q0 76 -48 150q-46 64 -119 119q-130 91 -221 111q-44 11 -82.5 15.5t-89.5 4.5q-12 -1 -24.5 -1t-25.5 -1q-11 -2 -36 -6q60 -80 60 -167q0 -120 -80 -236q-95 -138 -232 -138q-94 0 -169 51q-74 51 -74 149
q0 62 61 126q61 66 139 66q61 0 75 -24q15 -23 15 -78q0 -63 11 -87q10 -20 44 -43q54 0 54 69q0 116 -153 203q-152 87 -358 87q-268 0 -410 -102q232 0 348 -90q94 -73 94 -185q0 -50 -14 -84q-43 -112 -87 -163q-29 -32 -127 -94q8 -41 38 -60q32 -20 60 -20
q37 0 174 130q139 131 294 131q136 0 215 -71q78 -71 78 -186q0 -137 -71 -216q-71 -78 -186 -78q-120 0 -169 58t-49 149q0 82 51 105q50 22 134 22q11 -11 19.5 -18t13.5 -11q43 -33 65 -33q25 0 29 25q-8 19 -14 26q-55 61 -178 61q-127 -21 -211 -208
q-83 -186 -249 -186q-171 0 -276 90q-105 91 -105 214v170q201 18 214 22q144 25 221 87q-113 87 -236 87q-94 0 -199 -54v467q97 62 163.5 103.5t104.5 63.5q57 32 133.5 70t174.5 82q230 -41 403 -145q26 -16 48 -31.5t42 -32.5q24 14 43 24.5t33 18.5q17 10 37 19t43 19
q45 20 105.5 54t141.5 83q66 -38 131 -74.5t132 -71.5q10 -5 19.5 -11t18.5 -11q8 20 14.5 43.5t10.5 51.5q0 27 -6 65q-7 39 -40 65q-19 8 -42 15.5t-49 15.5q-20 10 -39.5 22t-37.5 27q-35 27 -35 68zM1978 495q-14 -8 -27 -15.5t-25 -14.5q-28 -15 -28 -47q0 -31 28 -41
q24 -14 52 -18v136z" />
    <glyph glyph-name="Cdot" unicode="&#x1792;" horiz-adv-x="1398" 
d="M542 1403q9 -5 36 -21.5t73 -43.5q124 -77 188 -98q14 9 39.5 26t61.5 42q37 26 71.5 49.5t66.5 45.5q23 -18 49 -37t54 -39q56 -40 118 -40q42 0 64 5q19 6 63 27q-18 -120 -103 -205t-194 -85q-35 0 -127 47q-90 48 -109 51q-25 0 -116 -90q-47 -47 -76 -47
q-25 14 -50 29t-51 29q-112 61 -185 61q-93 0 -149 -80q-14 -27 -36 -79q106 47 109 47q38 11 83 11q283 0 283 -290q0 -102 -87 -196q-51 -46 -82.5 -74.5t-44.5 -41.5q14 -22 29 -33q44 -32 112 -32q41 0 103 49q32 25 55.5 41.5t37.5 25.5q77 -77 116 -96q42 -20 84 -20
q101 0 168 49t100 165q-10 79 -40 99q-29 20 -54 20q-34 0 -62 -43q-62 -98 -87 -98q-98 0 -154 50.5t-56 163.5q0 90 63 150q64 60 172 60q174 0 250 -160q58 -117 58 -304q0 -179 -58 -308q-83 -185 -257 -185q-84 0 -170 76q-29 26 -57 52t-56 53q-32 -35 -64 -68.5
t-63 -65.5q-50 -47 -155 -47q-109 0 -193 94q-16 18 -48.5 66.5t-81.5 129.5v174q75 9 129 19t88 21q102 31 156 105q-58 43 -110.5 61.5t-103.5 18.5t-88.5 -13t-70.5 -42v511q48 37 85.5 65.5t66.5 50.5q53 40 104.5 75.5t102.5 66.5z" />
    <glyph glyph-name="cdot" 
d="M-1020 -357q485 36 1001 171q0 -401 -227 -499q-5 0 -23.5 -1.5t-49.5 -5.5q-19 0 -55 11q-38 11 -59 35q-18 -52 -70 -91q-53 -41 -178 -44q-16 4 -38 13t-50 24q-26 14 -55.5 33t-61.5 44q-134 95 -143 251q0 33 9 59zM-221 -448q48 31 66 127q-78 -27 -146 -47
t-129 -33l41 -95q115 13 168 48zM-564 -430q-51 -5 -110.5 -11.5t-131.5 -13.5q21 -14 37.5 -27t28.5 -25q25 -25 132 -55q22 4 52 18q32 12 32 45q3 29 -40 69z" />
    <glyph glyph-name="Emacron" 
d="M-1020 -967q485 36 1001 171q0 -401 -227 -499q-5 0 -23.5 -1.5t-49.5 -5.5q-20 0 -55 11q-36 10 -59 35q-18 -52 -70 -91q-53 -41 -178 -44q-16 4 -38 13t-50 24q-26 14 -55.5 33t-61.5 44q-134 95 -143 251q0 33 9 59zM-221 -1058q48 32 66 127q-78 -27 -146 -47
t-129 -33l41 -95q115 13 168 48zM-564 -1040q-51 -5 -110.5 -11.5t-131.5 -13.5q47 -33 66 -52q25 -25 132 -55q22 4 52 18q32 12 32 45q3 29 -40 69z" />
    <glyph glyph-name="emacron" horiz-adv-x="2056" 
d="M1561 1406q4 -2 90.5 -37.5t259.5 -107.5q137 -80 137 -112v-982q0 -69 -62 -120q-62 -50 -101 -50q-7 46 -154 157t-147 234q0 61 188 144q189 84 189 197q0 138 -208 262q-208 125 -356 125l-91 -14q-39 -10 -78 -22.5t-77 -29.5q-112 -49 -189 -118q-124 97 -297 145
q-120 32 -193 32q-99 0 -151 -45q-51 -43 -77 -112q100 45 105 45q38 11 83 11q283 0 283 -290q0 -102 -87 -196q-51 -46 -82.5 -74.5t-44.5 -41.5q14 -22 29 -33q44 -32 112 -32q41 0 103 49q32 25 55.5 41.5t37.5 25.5q77 -77 116 -96q42 -20 84 -20q101 0 168 49t100 165
q-10 79 -40 99q-29 20 -54 20q-34 0 -62 -43q-62 -98 -87 -98q-98 0 -154 50.5t-56 163.5q0 90 63 150q64 60 172 60q174 0 250 -160q58 -117 58 -304q0 -179 -58 -308q-83 -185 -257 -185q-84 0 -170 76q-29 26 -57 52t-56 53q-32 -35 -64 -68.5t-63 -65.5
q-50 -47 -155 -47q-109 0 -193 94q-16 18 -48.5 66.5t-81.5 129.5v174q75 9 129 19t88 21q102 31 156 105q-58 43 -110.5 61.5t-103.5 18.5q-52 0 -88 -13q-34 -12 -64 -36q-3 -9 -6 -9v4l-1 -1v511l1 -4v23q69 34 119 58.5t84 38.5q50 24 126 58.5t181 79.5
q54 -16 114 -39.5t129 -54.5q45 -20 92 -43.5t96 -50.5q23 9 63.5 24t97.5 37q76 26 265 135l-3 -3zM1951 428l7 108q-26 -3 -49.5 -10.5t-30.5 -28.5q0 -26 47 -55q4 -2 10 -5.5t16 -8.5z" />
    <glyph glyph-name="Ebreve" horiz-adv-x="2056" 
d="M1561 1406q4 -2 90.5 -37.5t259.5 -107.5q14 -8 26 -15.5t23 -14.5q33 105 33 142l-7 62q-8 37 -118 83q-111 46 -111 120q0 26 19 79q36 87 130 87q48 0 91 -18t79 -51q77 -72 77 -203q0 -108 -53 -197q-23 -40 -47 -73.5t-47 -62.5q42 -32 42 -50v-982q0 -69 -62 -120
q-62 -50 -101 -50q-7 46 -154 157t-147 234q0 61 188 144q189 84 189 197q0 138 -208 262q-208 125 -356 125l-91 -14q-39 -10 -78 -22.5t-77 -29.5q-112 -49 -189 -118q-124 97 -297 145q-120 32 -193 32q-99 0 -151 -45q-51 -43 -77 -112q100 45 105 45q38 11 83 11
q283 0 283 -290q0 -102 -87 -196q-51 -46 -82.5 -74.5t-44.5 -41.5q14 -22 29 -33q44 -32 112 -32q41 0 103 49q32 25 55.5 41.5t37.5 25.5q77 -77 116 -96q42 -20 84 -20q101 0 168 49t100 165q-10 79 -40 99q-29 20 -54 20q-34 0 -62 -43q-62 -98 -87 -98q-98 0 -154 50.5
t-56 163.5q0 90 63 150q64 60 172 60q174 0 250 -160q58 -117 58 -304q0 -179 -58 -308q-83 -185 -257 -185q-84 0 -170 76q-29 26 -57 52t-56 53q-32 -35 -64 -68.5t-63 -65.5q-50 -47 -155 -47q-109 0 -193 94q-16 18 -48.5 66.5t-81.5 129.5v174q75 9 129 19t88 21
q102 31 156 105q-58 43 -110.5 61.5t-103.5 18.5q-52 0 -88 -13q-34 -12 -64 -36q-3 -9 -6 -9v4l-1 -1v511l1 -4v23q69 34 119 58.5t84 38.5q50 24 126 58.5t181 79.5q54 -16 114 -39.5t129 -54.5q45 -20 92 -43.5t96 -50.5q23 9 63.5 24t97.5 37q76 26 265 135l-3 -3z
M1951 428l7 108q-26 -3 -49.5 -10.5t-30.5 -28.5q0 -26 47 -55q4 -2 10 -5.5t16 -8.5z" />
    <glyph glyph-name="ebreve" unicode="&#x1793;" horiz-adv-x="1401" 
d="M1393 921q0 -116 -87 -221q-98 -120 -239 -120q-66 0 -142 51q-98 65 -98 156q0 82 42 141q42 58 132 58q115 0 120 -98t58 -134l25 -7q26 0 35 25t9 80q0 99 -154 163q-156 65 -303 65q-149 0 -254 -27q-106 -27 -221 -114l91 7q119 0 206 -51q69 -41 87 -87v-239
q29 0 58 -2t67 -11q39 -9 57 -76t36 -94t80 -45l54 -15q131 0 236 142q23 31 51.5 80.5t60.5 118.5v-228q0 -171 -100 -307q-99 -135 -248 -135q-110 0 -180 70q-69 69 -95 172v221h-80v-319q0 -54 -29 -98q-28 -43 -69 -43q-33 0 -58 40q-11 18 -170 83q-81 34 -109 76
q-40 60 -58 171q-2 18 -4.5 42.5t-6.5 55.5q204 18 399 112q-134 101 -236 101q-61 0 -163 -47v417q88 57 148 94.5t95 57.5q100 63 182 111.5t148 84.5q365 -79 507 -206q120 -110 120 -272zM581 341l7 123q-12 -2 -25.5 -5t-25 -8t-19.5 -13.5t-10 -20.5q0 -29 47 -62
q6 -3 26 -14z" />
    <glyph glyph-name="Edot" 
d="M-808 -47h142v-83h181q23 -236 206 -236q91 0 157 66q65 65 65 156q47 -59 47 -149q0 -142 -91 -255q-91 -115 -225 -115q-47 0 -88.5 15t-76 42t-61 65t-42.5 85v196h-69v-222q-13 -61 -57 -121t-84 -60q-23 0 -36 18q-42 48 -178 109q-105 46 -105 127q0 109 49 194
t110 85h156v83zM-804 -250q-33 -3 -54 -32q-22 -28 -22 -58q3 -44 76 -51v141z" />
    <glyph glyph-name="edot" 
d="M-701 -788v-84q50 0 98 -3q49 -5 91 -32q13 -117 70 -157q56 -41 149 -45q103 5 168 70q66 61 66 153q53 -59 53 -143q0 -9 -1 -10q0 -133 -91 -245q-97 -121 -241 -124q-101 10 -159 66q-57 55 -94 142q-41 97 -36 198h-70v-223q-11 -58 -58 -117q-45 -63 -91 -66
q-21 0 -41 17q-38 28 -80 54.5t-88 52.5q-95 49 -129 132q14 55 32 99t38 76q45 68 100 105h160v84h154zM-928 -1082q7 -27 29 -37q27 -11 48 -15v143q-72 -22 -77 -91z" />
    <glyph glyph-name="Gcircumflex" horiz-adv-x="2113" 
d="M2075 1189q25 -25 25 -41v-990q-3 -77 -69 -123q-61 -45 -98 -48q-7 52 -56 87q-25 20 -52.5 39t-59.5 38q-28 22 -53.5 45.5t-49.5 48.5q-50 56 -50 136q0 55 66 87q29 17 62.5 33t70.5 30q82 28 140 76q58 45 58 118q0 76 -48 150q-46 64 -119 119q-130 91 -221 111
q-44 11 -82.5 15.5t-89.5 4.5q-12 -1 -24.5 -1t-25.5 -1q-7 -1 -21.5 -3.5t-36.5 -7.5q52 -83 52 -191q0 -116 -87 -221q-98 -120 -239 -120q-66 0 -142 51q-98 65 -98 156q0 82 42 141q42 58 132 58q115 0 120 -98t58 -134l25 -7q26 0 35 25t9 80q0 99 -154 163
q-156 65 -303 65q-149 0 -254 -27q-106 -27 -221 -114l91 7q119 0 206 -51q69 -41 87 -87v-239q29 0 58 -2t67 -11q39 -9 57 -76t36 -94t80 -45l54 -15q131 0 236 142q23 31 51.5 80.5t60.5 118.5v-228q0 -171 -100 -307q-99 -135 -248 -135q-110 0 -180 70q-69 69 -95 172
v221h-80v-319q0 -54 -29 -98q-28 -43 -69 -43q-33 0 -58 40q-11 18 -170 83q-81 34 -109 76q-40 60 -58 171q-2 18 -4.5 42.5t-6.5 55.5q204 18 399 112q-134 101 -236 101q-61 0 -163 -47v417q88 57 148 94.5t95 57.5q100 63 182 111.5t148 84.5q365 -79 507 -206l9 -8
q28 15 49 27t37 21q17 10 37 19t43 19q45 20 105.5 54t141.5 83q33 -19 66 -37.5t65 -37.5q64 -36 249 -144zM2019 495q-14 -8 -27 -15.5t-25 -14.5q-28 -15 -28 -47q0 -31 28 -41q24 -14 52 -18v136zM581 341l7 123q-12 -2 -25.5 -5t-25 -8t-19.5 -13.5t-10 -20.5
q0 -29 47 -62q6 -3 26 -14z" />
    <glyph glyph-name="gcircumflex" horiz-adv-x="2113" 
d="M1772 1613q0 37 18 90q40 96 134 96q97 -4 172 -76q77 -92 77 -225q0 -121 -52 -231q-13 -26 -24.5 -45.5t-21.5 -32.5q25 -25 25 -41v-990q-3 -77 -69 -123q-61 -45 -98 -48q-7 52 -56 87q-25 20 -52.5 39t-59.5 38q-28 22 -53.5 45.5t-49.5 48.5q-50 56 -50 136
q0 55 66 87q29 17 62.5 33t70.5 30q82 28 140 76q58 45 58 118q0 76 -48 150q-46 64 -119 119q-130 91 -221 111q-44 11 -82.5 15.5t-89.5 4.5q-12 -1 -24.5 -1t-25.5 -1q-7 -1 -21.5 -3.5t-36.5 -7.5q52 -83 52 -191q0 -116 -87 -221q-98 -120 -239 -120q-66 0 -142 51
q-98 65 -98 156q0 82 42 141q42 58 132 58q115 0 120 -98t58 -134l25 -7q26 0 35 25t9 80q0 99 -154 163q-156 65 -303 65q-149 0 -254 -27q-106 -27 -221 -114l91 7q119 0 206 -51q69 -41 87 -87v-239q29 0 58 -2t67 -11q39 -9 57 -76t36 -94t80 -45l54 -15q131 0 236 142
q23 31 51.5 80.5t60.5 118.5v-228q0 -171 -100 -307q-99 -135 -248 -135q-110 0 -180 70q-69 69 -95 172v221h-80v-319q0 -54 -29 -98q-28 -43 -69 -43q-33 0 -58 40q-11 18 -170 83q-81 34 -109 76q-40 60 -58 171q-2 18 -4.5 42.5t-6.5 55.5q204 18 399 112
q-134 101 -236 101q-61 0 -163 -47v417q88 57 148 94.5t95 57.5q100 63 182 111.5t148 84.5q365 -79 507 -206l9 -8q28 15 49 27t37 21q17 10 37 19t43 19q45 20 105.5 54t141.5 83q66 -38 131 -74.5t132 -71.5q10 -5 19.5 -11t18.5 -11q8 20 14.5 43.5t10.5 51.5
q0 27 -6 65q-7 39 -40 65q-19 8 -42 15.5t-49 15.5q-20 10 -39.5 22t-37.5 27q-35 27 -35 68zM2019 495q-14 -8 -27 -15.5t-25 -14.5q-28 -15 -28 -47q0 -31 28 -41q24 -14 52 -18v136zM581 341l7 123q-12 -2 -25.5 -5t-25 -8t-19.5 -13.5t-10 -20.5q0 -29 47 -62
q6 -3 26 -14z" />
    <glyph glyph-name="Gdot" unicode="&#x1794;" horiz-adv-x="1414" 
d="M1099 1403q32 -26 59.5 -44.5t49.5 -31.5q83 -47 152 -47q50 0 94 32q-80 -279 -257 -279q-36 0 -87 18t-87 18q-24 0 -44 -9.5t-35.5 -25t-26.5 -36.5t-17 -45q58 26 101.5 33t75.5 11q178 0 258 -131q65 -106 65 -290q0 -182 -120 -348q-164 -224 -453 -224
q-213 0 -386 119q-172 120 -237 323q155 22 232 54q77 33 156 127q-74 47 -163 47q-51 0 -126 -18q-37 -9 -64.5 -15t-45.5 -10v514q32 26 57.5 46.5t43.5 37.5q115 100 153 170q55 -44 112 -72q88 -44 156 -44q50 0 91 26q-79 -280 -265 -280q-36 0 -91 18q-53 19 -83 19
q-24 0 -44 -9.5t-35.5 -25t-26.5 -36.5t-17 -45q42 16 73 25.5t51 11.5q21 3 37 5.5t27 4.5q121 0 192 -55q91 -67 91 -199q0 -21 -7.5 -47t-25 -59t-45 -74t-67.5 -92q83 -101 188 -134q67 -22 178 -22q102 0 218 72q116 74 116 153q0 68 -57 103q-55 34 -128 42
q-31 -2 -63.5 -4.5t-67.5 -6.5t-64.5 -11t-54.5 -18v497q72 54 108 87q115 100 156 174z" />
    <glyph glyph-name="gdot" horiz-adv-x="637" 
d="M359 1004q108 0 181 -53q73 -52 73 -172v-793q0 -51 72 -130q37 -40 74 -81.5t75 -85.5q-37 -42 -72 -84.5t-70 -86.5q-157 -155 -279 -155q-58 0 -90 32q-51 61 -98 113q-78 -72 -178 -109q-98 -36 -173 -36q-84 0 -163 87q-91 100 -91 246q0 294 254 294q43 0 79 -10.5
t62 -29.5t40 -47t14 -62q0 -54 -45 -96t-121 -42q-28 0 -71 35q-41 34 -53 34q-25 -25 -32 -47q11 -35 23.5 -57t27.5 -35.5t33 -18.5t39 -5l62 7q61 18 122 58q20 13 39 27.5t37 30.5q78 -78 116 -97q37 -19 80 -19q35 0 136 80q100 79 100 127q0 28 -29 69t-29 83v612
q0 51 -42 78t-136 27q-64 0 -134 -32q-35 -20 -57.5 -33t-33.5 -18v536q66 51 102 84q116 101 152 170q28 -22 56 -40t57 -32q88 -44 155 -44q54 0 95 26q-20 -72 -44.5 -125t-56.5 -87.5t-72.5 -51t-91.5 -16.5q-36 0 -87 18q-50 19 -87 19q-24 0 -44 -9.5t-35.5 -25
t-26.5 -36.5t-17 -45q64 40 121 45t82 9z" />
    <glyph glyph-name="Gcedilla" horiz-adv-x="637" 
d="M359 1004q108 0 181 -53q73 -52 73 -172v-1583q0 -51 72 -130q37 -40 74 -81.5t75 -85.5q-37 -42 -72 -84.5t-70 -86.5q-157 -155 -279 -155q-58 0 -90 32q-51 61 -98 113q-78 -72 -178 -109q-98 -36 -173 -36q-84 0 -163 87q-91 100 -91 246q0 294 254 294
q43 0 79 -10.5t62 -29.5t40 -47t14 -62q0 -54 -45 -96t-121 -42q-28 0 -71 35q-41 34 -53 34q-25 -25 -32 -47q11 -35 23.5 -57t27.5 -35.5t33 -18.5t39 -5l62 7q61 18 122 58q20 13 39 27.5t37 30.5q78 -78 116 -97q37 -19 80 -19q35 0 136 80q100 79 100 127q0 28 -29 69
t-29 83v1402q0 51 -42 78t-136 27q-64 0 -134 -32q-35 -20 -57.5 -33t-33.5 -18v536q66 51 102 84q116 101 152 170q28 -22 56 -40t57 -32q88 -44 155 -44q54 0 95 26q-20 -72 -44.5 -125t-56.5 -87.5t-72.5 -51t-91.5 -16.5q-36 0 -87 18q-50 19 -87 19q-24 0 -44 -9.5
t-35.5 -25t-26.5 -36.5t-17 -45q64 40 121 45t82 9z" />
    <glyph glyph-name="gcedilla" horiz-adv-x="1857" 
d="M1461 1406q9 -3 250 -145q137 -80 137 -112v-982q0 -69 -62 -120q-62 -50 -101 -50q-7 46 -154 157t-147 234q0 61 188 144q189 84 189 197q0 137 -158 262t-306 125l-42 -6q-87 -19 -173 -60q-54 -25 -97 -54.5t-78 -63.5q-114 96 -275 145q-111 32 -178 32
q-91 0 -140 -45q-49 -44 -67 -107l167 51q131 0 223 -75q92 -74 92 -190q0 -50 -53 -136q-26 -43 -52.5 -86.5t-53.5 -89.5q11 -14 20 -25t16 -18q103 -98 279 -98q68 0 121 38t53 103q0 47 -116 94q-116 48 -116 164q0 90 49 130t122 40q177 0 177 -167v-431q33 -47 58 -47
l40 7q36 0 58 -94l11 -73q0 -115 -116 -115q-127 0 -163 97q-4 16 -4 62q0 44 -7 61q-82 -86 -150 -121q-67 -34 -187 -34q-138 0 -265 79q-174 110 -246 334q51 13 102 26.5t104 27.5q98 33 189 145q-45 29 -97 43.5t-95 14.5q-56 0 -125 -20q-34 -10 -55 -15.5t-30 -7.5
v533q63 34 110 58.5t78 38.5q46 24 116 58.5t167 79.5q49 -16 105 -39.5t120 -54.5q42 -20 85 -43.5t89 -50.5q22 9 58.5 24t89.5 37q61 22 207 105q9 7 18.5 14t20.5 15zM1751 428l7 108q-26 -3 -49.5 -10.5t-30.5 -28.5q0 -26 47 -55q4 -2 10 -5.5t16 -8.5z" />
    </font>
</defs>
</svg>
